<?xml version="1.0" encoding="utf-8"?>
<!-- Generator: Adobe Illustrator 23.1.0, SVG Export Plug-In . SVG Version: 6.00 Build 0)  -->
<svg version="1.1" id="Capa_1" xmlns="http://www.w3.org/2000/svg" xmlns:xlink="http://www.w3.org/1999/xlink" x="0px" y="0px"
	 viewBox="0 0 89.2 89.2" enable-background="new 0 0 89.2 89.2" xml:space="preserve">
<g>
	<g>
		<path fill="#FFFFFF" d="M71.3,52.8c0,13.2-10.7,23.9-23.9,23.9S23.5,66,23.5,52.8s10.7-40.7,23.9-40.7S71.3,39.5,71.3,52.8z"/>
		<g>
			<g>
				<g>
					<g>
						<path fill="#808181" d="M71.4,53.2c0-0.6-0.1,0.3,0-0.4C71.4,52.8,71.4,53,71.4,53.2z"/>
						<path fill="#808181" d="M71.3,50.6c-0.3-2.1-0.6-4.8-1.2-7c-0.1-0.3,0.1,0-0.1-0.5c-0.6-2.1-1.5-5.5-2.4-8l0.1,0.1
							c-0.2-0.5-0.4-1.1-0.6-1.6c0,0,0.1,0.2,0.1,0c-0.1-0.1-0.4-0.9-0.5-1.1c-0.1-0.2,0-0.2-0.1-0.5l-0.2-0.3
							c-0.4-0.7-0.8-1.9-1.4-3c0,0,0.1,0.1,0.1,0.1c-0.9-1.7-2-3.8-3.1-5.6c0.1,0.1,0.1,0.1,0.1,0c-0.1-0.1-0.5-0.6-0.8-1.1
							c-0.1-0.2-0.6-0.8-0.9-1.3l0,0c-0.3-0.4-0.4-0.6-0.7-0.9l-0.2-0.3c-0.2-0.1-0.4-0.6-0.7-0.9l0,0c-0.3-0.3-0.4-0.5-0.6-0.7l0,0
							c-0.6-0.6-0.9-1-0.9-0.9c-0.2-0.2,0.6,0.6,0.3,0.2c-1-1-2-1.9-3.1-2.7c-1.1-0.8-2.3-1.5-3.6-2c-0.3-0.1-0.5-0.2-0.5-0.2
							c-0.3-0.1-1-0.3-1.3-0.3c0.1,0-0.2-0.1-0.3-0.1c-0.5-0.1-0.6,0-1.1,0c0.2,0,0.3,0,0.2,0c-0.5,0-1.1,0.1-1.6,0.1
							c0.1,0,0.2,0,0.2,0c-0.6,0.1-1.1,0.2-1.6,0.3c0.1,0,0.1-0.1,0.2-0.1c-0.8,0.2-0.2,0.1-0.9,0.3c0.2-0.1,0.1-0.1,0.1-0.1
							c-0.3,0.1-0.7,0.3-1.1,0.5c-0.4,0.2-0.8,0.4-1.1,0.6c0,0,0,0,0,0c-0.7,0.4-1.3,0.8-2,1.3c-0.2,0.2,0-0.1-0.6,0.4
							c0.1,0-1,0.9-0.6,0.7c-0.5,0.4-1.3,1.2-1.6,1.5c0.2-0.2-0.3,0.2,0.1-0.2l-0.3,0.3c0-0.1,0.3-0.3,0.2-0.2
							c-0.2,0.2-0.7,0.8-0.9,1c-0.3,0.4-0.5,0.8-1.1,1.5c0.2-0.3-0.2,0.1,0-0.1c-0.2,0.3-0.4,0.7-0.6,1c-0.2,0.2-0.1,0-0.3,0.4
							c0,0-0.1,0.1-0.1,0.3c-0.1,0.1-0.6,1-0.8,1c-0.1,0.1,0.2-0.4,0-0.1c-0.3,0.4-0.3,0.5-0.6,0.9l0,0c-0.2,0.3-0.5,0.9-0.3,0.6
							c0.1-0.2-0.1,0.1,0.1-0.2c-0.1,0.2-0.4,0.7-0.7,1.2c0.1-0.2,0.1-0.2,0.1-0.2c-0.3,0.6-0.7,1.3-1,2c0,0,0.1-0.3,0.2-0.4
							C30.8,27,30.5,28,30,28.7c0.1-0.1,0.1,0,0.1,0c-0.2,0.4-0.3,0.4-0.4,0.7c0,0-0.2,0.4-0.3,0.7c-0.1,0.2,0,0.1,0.1-0.2
							c-0.2,0.4-0.9,2.1-1.3,3c0,0-0.2,0.6-0.3,0.8l0-0.1c-0.1,0.2-0.3,0.7-0.3,0.8c-0.1,0.5,0.7-1.8,0.5-1.2
							c-0.1,0.2-0.3,0.9-0.3,0.8c-0.2,0.4-0.3,0.9-0.5,1.3c0.1-0.1,0.1-0.4-0.1,0c-0.2,0.6-0.1,0.2-0.2,0.7L27,36.3
							c0,0-0.2,0.6-0.1,0.4c-0.1,0.1-0.3,0.9-0.3,0.9l0-0.1c-0.1,0.3-0.1,0.5-0.1,0.7c0,0-0.1,0.1-0.1,0.1c0.1,0.1-0.2,0.7-0.3,1
							c-0.2,0.6-0.4,1.5-0.6,1.8c-0.1,0.5-0.2,0.9-0.3,1.4c0-0.1,0.1-0.3,0-0.3c-0.1,0.3-0.1,0.4-0.2,0.7c0-0.1-0.2,0.7-0.3,1
							c-0.1,0.5,0,0.3,0,0.4c-0.2,0.4-0.2,1.3-0.4,1.8c0-0.2,0.1-0.7,0-0.3c-0.2,0.4-0.1,0.9-0.2,1.5l0.1-0.2
							c-0.1,0.3-0.1,1-0.2,0.9c0,0.2-0.1,0.8-0.1,0.7c-0.2,1.1-0.2,2.8-0.3,3.5c0,0.2,0,0.6,0,0.5c0-0.3,0-0.4,0-0.5
							c0,0.1,0,0.2,0,0.2c0,0.4,0,0.6-0.1,0.3c0,0.8,0.2,0.8,0.2,1.8c0,0,0,0,0,0.3c0,0.2,0.1,0.4,0.1,0.5c0.1,0.6,0,0.4-0.1,0.4
							c0.1,0.3,0.1,0.8,0.2,0.9l0,0.4c0-0.3,0.1,0.3,0.1,0.4c0-0.1,0-0.1,0-0.2c0,0.1,0.1,0.5,0.2,0.6c0-0.1-0.1-0.4-0.1-0.7
							c0,0.2,0.1,0.4,0.2,0.7c-0.1-0.1,0.1,0.6,0.2,0.8c0.1,0.3,0.1,0.3,0.2,0.4c0,0,0.1,0.5,0,0.3c0-0.1,0-0.2-0.1-0.4
							c0,0.2,0,0.2,0.1,0.6c0.1,0.3,0.1-0.1,0.2,0.5c-0.1-0.1-0.1-0.2-0.2-0.3l0.2,0.6l0,0c0,0.1,0,0,0,0.1c0.1,0.1,0.3,0.8,0.4,0.9
							c0.1,0.3,0.2,0.6,0.3,0.8l0,0c0.1,0.3,0.3,0.7,0.5,1l0,0c0.1,0.2,0.3,0.6,0.4,0.8c0.2,0.4-0.1,0.2,0.3,0.6
							c0.2,0.4,0.5,0.6,0.4,0.4c0.4,0.8,1,1.5,1.5,2.2c0.1,0.1,0,0,0.2,0.2c0.4,0.5,0.9,1,1.3,1.4c0.4,0.5,0.9,0.9,1.2,1.2
							c-0.3-0.2,0,0-0.1,0c0.2,0.2,0.2,0.3,0.4,0.3c0,0,0,0-0.2-0.3c0.3,0.2,0.6,0.6,1,0.8c0.3,0.3,0.6,0.5,0.8,0.6
							c-0.2-0.1,0-0.1,0.1,0c-0.1,0,0.4,0.4,0.7,0.6l0.1,0c0.1,0.1,0.1,0.1,0.2,0.2c0.1,0.1,0.2,0,0.5,0.3c0,0,0,0,0.1,0.1
							c0.4,0.2,0.9,0.5,1.3,0.7l0.3,0.2c0.2,0.1,0.5,0.2,0.2,0c0.7,0.4,1.2,0.6,1.4,0.8c0.7,0.2,1.5,0.5,2.3,0.7
							c0.8,0.2,1.7,0.5,2.5,0.6l-0.1,0c0.4,0.1,0.2,0,0.5,0c-0.1,0,0.3,0.1,0,0.1c0.6,0.1,0.8,0.1,1.2,0.1c0.1,0-0.3,0-0.2-0.1
							c0.1,0,0.8,0.2,0.9,0.1c0.2,0,0,0.1-0.1,0.1l0.4,0c0.5,0.1-1.1,0.1-0.6,0.2l0.3,0c0.3,0.1-0.9,0-0.1,0.1
							c0.4,0,0.7-0.1,0.4-0.1c0.8,0,0.4-0.1,1.2-0.1c0.2,0-0.7,0-0.5,0c0.4,0.1,0.8,0,1.2,0c-0.4,0-0.1-0.1,0.2-0.1
							c0.4,0-0.3,0.1,0.3,0c0.1,0,0.7-0.1,0.2-0.1c0.2-0.1,0.6,0,1-0.1c0.2,0-0.6,0.2,0.1,0.1c-0.1,0,0.8-0.1,0.5-0.2
							c0.3,0,0.3,0,0.1,0.1c0.4,0,0.9-0.2,1-0.1l0.1-0.1c0.1,0,0.3,0,0.5,0c0.3,0,1-0.2,1-0.2c0.1,0,0.8-0.2,0.5-0.2
							c-0.5,0.1-0.5,0.2-0.8,0.2c0.3,0,0.6-0.2,0.9-0.3l0,0c0.2-0.1,0.5-0.1,0.6-0.2c-0.1,0,0,0.1,0.1,0l0.2-0.1
							c0.6-0.2,0.2,0.1,0.8-0.2c-0.1,0.1-0.3,0.1-0.4,0.2c0.1,0,0.3-0.1,0.6-0.2c0.1-0.1,0.3-0.2,0.4-0.3c0.3-0.1,0.2,0,0.5-0.2
							l-0.4,0.2c-0.1,0,0.3,0,0.8-0.2c0.3-0.1,0.7-0.3,0.2-0.2c0.2-0.1,0.5-0.2,0.4-0.1c0.5-0.2-0.1,0,0.3-0.2
							c0.2-0.1,0.7-0.3,1.1-0.4l-0.4,0.3l0.3-0.1c-0.4,0.2,0.2-0.1,0,0.1c0.2-0.1,0.4-0.2,0.6-0.3c-0.3,0.1-0.2,0,0-0.1
							c0.2-0.2,0.4-0.3,0.3-0.3c0.7-0.5,0.6-0.1,1.3-0.7c-0.1,0.1,0.2-0.2-0.3,0.1c0.5-0.3,0.3-0.2,0.8-0.6
							c-0.4,0.3,0.5-0.2-0.1,0.2c0,0-0.3,0.2-0.4,0.3c0.2-0.1,0,0.1,0.5-0.2c0.3-0.2,0.7-0.5,0.6-0.5c0,0-0.4,0.3-0.3,0.1
							c0.5-0.4,0.7-0.4,0.9-0.7c-0.3,0.3-0.5,0.3-0.5,0.3l0.4-0.3l-0.1,0.1c0.7-0.5,0.2-0.2,0.8-0.7l0.3-0.2
							c-0.1,0.2-0.9,0.7-0.7,0.7c0.4-0.3,0.5-0.5,0.9-0.8c-0.1,0.1-0.2,0.2-0.3,0.3c0.1-0.1,0.4-0.2,0.8-0.7c0.3-0.3,0.1-0.1,0-0.1
							c0.6-0.6,0.7-0.8,1.1-1.2c0,0.1,0.6-0.7,0.3-0.2c-0.2,0.2-1,1.1-1.2,1.3c0.3-0.1-0.5,0.4-0.6,0.6c0.5-0.4,0.5-0.4,0.6-0.4
							c0.1-0.1,0.3-0.3,0.3-0.3c0-0.1-0.1,0.1-0.2,0.1c0.5-0.5,1-1.1,1.2-1.4c0.2-0.2,0.2-0.1,0,0.1c0.6-0.6,1.1-1.4,1.6-2.1
							c-0.2,0.2-0.1,0,0.1-0.2c0.1-0.2,0.3-0.5,0.2-0.3c-0.2,0.4-0.5,0.6-0.4,0.4c0.2-0.2,0,0,0.1-0.1c0.2-0.3,0.3-0.4,0.5-0.8
							c-0.4,0.7,0,0.2,0,0.3c0.3-0.5,0,0,0.3-0.4c0.3-0.5,0.6-1.1,0.9-1.7c0.2-0.4,0.4-0.8,0.6-1.3c0.2-0.5,0.3-0.9,0.5-1.3
							c0.2-0.3,0.1-0.1,0.3-0.5c0.2-0.5-0.2,0.3,0.1-0.3l0,0.1c0.1-0.2,0.4-1.2,0.4-1.5l0,0.2c0-0.1,0.1-0.3,0.1-0.4
							c0,0,0.1-0.1,0,0.1c0.1-0.4,0.2-0.9,0.3-1.4c0,0.1-0.1,0.2-0.1,0.3c0.1-0.8,0.2-1.3,0.3-2.1l0,0c0-0.2,0-0.3,0-0.5
							c0,0.1,0.1-0.3,0.1-0.6c0,0.4,0,0.8,0,1.2c-0.1,0.3,0-0.4-0.1-0.2c-0.1,0.2-0.2,0.9-0.1,1c0-0.3,0-0.3,0.1-0.5
							c0.1-0.1,0,0.3,0,0.6c0-0.1,0.1-0.4,0.1-0.4c0,0.3-0.1,0.6-0.1,1.1c0-0.3-0.1,0.2-0.1,0c0.1,0.1,0,0.5-0.2,1.1
							c-0.2,0.4-0.2,1.1-0.5,1.8c0.1-0.3,0.1-0.6,0.2-1.1c-0.1,0.4-0.1,0.5-0.3,0.9c0,0.2,0,0.4-0.2,0.9l0,0
							c-0.2,0.5-0.1,0.5-0.3,1.1c-0.5,1-1,2.1-1.4,2.8l-0.1,0c-0.2,0.4-0.8,1.4-1.2,1.9c-0.3,0.4-0.7,0.9-1,1.3
							c-0.4,0.4-0.7,0.7-0.9,0.9c-1.3,1.5-2.6,2.5-4.2,3.7l0.2-0.2c-0.3,0.2-0.2,0.1-0.5,0.3c0.4-0.2-0.4,0.3-0.6,0.5
							c-0.4,0.2-0.8,0.5-1.3,0.7c-0.4,0.2-0.9,0.5-1.2,0.6l0,0c-0.7,0.5-1.6,0.7-2.6,1c-0.1,0-0.3,0.1-0.6,0.1
							c-0.5,0.2-0.8,0.3-1.5,0.5c-0.6,0.2-1.5,0.3-2.1,0.3c-1.1,0.3-2.2,0.2-3.3,0.3c-0.6,0-1.1,0-1.7-0.1l-0.8,0l-0.8-0.1L44,76.6
							c-0.5-0.1-1.1-0.1-1.7-0.2c-0.6-0.1-1.2-0.3-1.7-0.4c-0.6-0.1-1.1-0.4-1.6-0.6c-0.5-0.2-1-0.4-1.4-0.6l0.2,0
							c-0.5-0.3-1.2-0.6-1.1-0.4c-0.5-0.3-1.3-0.7-1.6-0.9c-0.5-0.3-0.7-0.4-1.1-0.6c-0.9-0.8-1.3-1-2.2-1.7l0.2,0.2
							c0.1,0.1,0.1,0.1-0.1-0.1c-0.3-0.3-1.1-1.1-0.9-0.7c-0.2-0.2-0.5-0.4-0.7-0.7c-0.2-0.3-0.5-0.5-0.7-0.8
							c-0.2-0.3-0.5-0.5-0.7-0.8c-0.2-0.3-0.4-0.5-0.6-0.8c0,0.1-0.1-0.1-0.2-0.2c-0.7-0.8-1.2-1.8-1.7-2.5c-0.1-0.2,0.2,0.2,0-0.2
							c-0.1-0.2,0,0-0.2-0.3c-0.4-0.8-0.8-1.6-1.1-2.4c-0.3-0.8-0.6-1.6-0.8-2.4c-0.9-2.7-1.1-5.6-1-8.3l0,0c0-0.9,0.2-2.1,0.2-2.8
							c0-0.2,0.1-0.8,0.1-0.6c0-0.7,0.4-2,0.5-3c0,0.1,0,0.1,0,0.3c0.2-1,0.4-1.9,0.7-3c0,0.1-0.1,0.3-0.1,0.3
							c0.1-0.4,0.2-1,0.3-1.2c0.1-0.2,0-0.2,0,0c0.6-2.3,1.4-4.8,2.2-7.1c0.7-1.6,0.2,0,0.6-1.4c0.1-0.1,0-0.1,0-0.1
							c0.2-0.5,0.4-0.7,0.5-1.1c-0.1,0.1,0.1-0.2,0-0.3c0.5-1,0.6-1.2,0.9-2l0,0.1c0.4-0.9,0.9-2,1.2-2.8c1.3-2.5,2.7-4.8,4.3-7
							c1.7-2.2,3.5-4.2,5.8-5.7c2.2-1.5,5-2.5,7.8-2.2c1.4,0.2,2.7,0.6,3.9,1.2c1.2,0.6,2.4,1.4,3.4,2.3c0.9,0.9,1,1,2,2
							c0,0-0.1-0.1-0.1,0c0.1,0,0.7,0.7,0.8,0.8c1.3,1.5,2.4,3,3.6,4.8c-0.2-0.3-0.3-0.4-0.1-0.1l0.2,0.3l0,0.1
							c0.1,0.2,0.3,0.5,0.2,0.2c2.8,4.4,4.7,9.2,6.3,14.1c0.3,1.2,0.9,2.8,1.2,4.1c0.9,3.8,1.5,7.3,1.6,11.3c0,0,0-0.1-0.1-0.5
							C71.4,52,71.4,51.4,71.3,50.6z"/>
						<path fill="#808181" d="M71.4,54c0,0.1-0.1,0.6-0.1,0.2C71.3,54.1,71.3,53.9,71.4,54z"/>
						<path fill="#808181" d="M67.5,65.2c0,0-0.1,0.1-0.1,0.2c0.1-0.1,0.1-0.3,0.2-0.4C67.5,65.2,67.6,65.1,67.5,65.2z"/>
						<path fill="#808181" d="M65.8,67.7c0-0.1,0.4-0.6,0.6-0.9L65.8,67.7z"/>
						<path fill="#808181" d="M63.8,69.7c-0.2,0.1-0.2,0.1,0.1-0.1C63.9,69.6,63.8,69.6,63.8,69.7z"/>
						<path fill="#808181" d="M63.6,69.9c-0.2,0.2-0.3,0.2-0.4,0.3C63.3,70.2,63.7,69.8,63.6,69.9z"/>
						<path fill="#808181" d="M58.7,73.4c-0.1,0.1-0.4,0.2-0.5,0.3C58.3,73.7,58.7,73.4,58.7,73.4z"/>
						<path fill="#808181" d="M56.1,74.7c-0.1,0-0.1,0-0.2,0.1C55.7,74.8,55.9,74.7,56.1,74.7L56.1,74.7z"/>
						<polygon fill="#808181" points="24.3,46.6 24.2,47 24.2,46.9 						"/>
						<path fill="#808181" d="M32,25.1c0.1-0.3,0.1-0.2,0.2-0.2C32.1,25.1,32.2,24.7,32,25.1z"/>
						<polygon fill="#808181" points="39.6,15.3 39.6,15.4 39.5,15.3 						"/>
					</g>
				</g>
			</g>
		</g>
	</g>
	<g>
		<path fill="#FFFFFF" d="M30.2,38.9c0,0-12.1,25.3,11.4,34.2"/>
		<g>
			<g>
				<g>
					<g>
						<path fill="#808181" d="M41.6,73.2C41.6,73.2,41.6,73.2,41.6,73.2L41.6,73.2L41.6,73.2z"/>
						<path fill="#808181" d="M41.2,73c-0.1,0-0.2,0-0.2,0.1C41.2,73,41.2,73.1,41.2,73c0.1,0.1,0.1,0.1,0.1,0.1c0,0,0.1,0,0.1,0
							C41.4,73,41.3,73,41.2,73C41.2,73,41.2,73,41.2,73z"/>
						<path fill="#808181" d="M36.1,70.2L36.1,70.2C36.1,70.3,36.1,70.2,36.1,70.2z"/>
						<path fill="#808181" d="M33.3,68C33.3,68,33.3,68,33.3,68C33.3,68,33.3,68,33.3,68z"/>
						<path fill="#808181" d="M32.9,67.5C32.9,67.5,32.9,67.5,32.9,67.5C32.9,67.5,32.9,67.5,32.9,67.5z"/>
						<path fill="#808181" d="M36.1,70.2L36.1,70.2C36,70.2,36.1,70.2,36.1,70.2z"/>
						<path fill="#808181" d="M40.4,72.8C40.4,72.8,40.5,72.8,40.4,72.8L40.4,72.8L40.4,72.8z"/>
						<polygon fill="#808181" points="37.5,71 37.5,71 37.5,71 						"/>
						<path fill="#808181" d="M38.6,71.6C38.5,71.6,38.5,71.6,38.6,71.6C38.5,71.6,38.5,71.6,38.6,71.6
							C38.6,71.6,38.6,71.6,38.6,71.6z"/>
						<path fill="#808181" d="M40.3,72.5L40.3,72.5L40.3,72.5z"/>
						<path fill="#808181" d="M36.7,70.6C36.7,70.5,36.7,70.5,36.7,70.6C36.7,70.5,36.7,70.5,36.7,70.6z"/>
						<path fill="#808181" d="M29.4,40.1L29.4,40.1C29.4,40.1,29.4,40.1,29.4,40.1z"/>
						<polygon fill="#808181" points="30.2,38.9 30.2,38.9 30.2,39 						"/>
						<path fill="#808181" d="M32.2,66.7L32.2,66.7C32.2,66.7,32.2,66.7,32.2,66.7z"/>
						<path fill="#808181" d="M27.7,57.6c0,0.1-0.1-0.2-0.1,0C27.6,57.6,27.7,57.7,27.7,57.6z"/>
						<path fill="#808181" d="M40.4,72.8L40.4,72.8C40.4,72.8,40.4,72.8,40.4,72.8z"/>
						<polygon fill="#808181" points="27.6,57.6 27.6,57.6 27.6,57.6 						"/>
						<path fill="#808181" d="M30.6,64.6C30.6,64.7,30.6,64.7,30.6,64.6C30.6,64.7,30.6,64.7,30.6,64.6z"/>
						<path fill="#808181" d="M31.7,66.2L31.7,66.2C31.7,66.2,31.7,66.2,31.7,66.2z"/>
						<path fill="#808181" d="M30,63.9C30,63.8,30,63.8,30,63.9C30,63.8,30,63.8,30,63.9C30,63.8,30,63.8,30,63.9z"/>
						<polygon fill="#808181" points="29.5,62.9 29.5,63 29.5,63 						"/>
						<path fill="#808181" d="M28.4,43.2C28.4,43.2,28.4,43.1,28.4,43.2C28.4,43.1,28.4,43,28.4,43.2z"/>
						<path fill="#808181" d="M40.4,72.8C40.4,72.8,40.4,72.8,40.4,72.8L40.4,72.8C40.4,72.8,40.4,72.8,40.4,72.8z"/>
						<path fill="#808181" d="M29.6,64l-0.1-0.2C29.5,63.9,29.6,64,29.6,64z"/>
						<path fill="#808181" d="M27,50.6L27,50.6C27,50.6,27,50.6,27,50.6z"/>
						<path fill="#808181" d="M29.3,63.4c0,0,0-0.1,0-0.1c0,0,0,0,0,0L29.3,63.4z"/>
						<path fill="#808181" d="M28.5,43.1L28.5,43.1L28.5,43.1z"/>
						<path fill="#808181" d="M28.7,42c-0.1,0.2,0,0.1,0.1,0.1c0,0.2-0.1,0.1-0.1,0.1c0,0.1,0,0.2,0,0.3c0,0,0,0,0,0
							c0,0.1-0.1,0.4-0.1,0.5c0,0,0,0,0,0c0,0,0.1,0,0.1,0c0,0.1,0,0.1,0,0.2c0,0,0-0.1,0-0.1l0,0.1c-0.1,0,0-0.1,0-0.1
							c0,0.1,0,0.3-0.1,0.4c-0.1,0,0.1-0.3,0-0.1l0.1-0.2c-0.1,0.1,0-0.1-0.1,0c-0.1,0.2,0,0.3-0.1,0.5c0,0.1,0.1,0,0.1,0.1
							c0,0.3-0.2,0.2-0.2,0.5c0,0.1,0.1,0.1,0,0.3L28,44.5c-0.1,0.2,0.1,0.1,0,0.4c0,0,0-0.2,0-0.1c-0.1,0.1,0,0.1,0,0.2l-0.1,0
							c0,0.2-0.1,0.5-0.1,0.7c0,0,0-0.1-0.1,0c0,0.3-0.2,0.7-0.3,1l0,0.1c0,0,0,0,0,0c0,0.1,0,0,0,0.1c0,0.1-0.1,0.1-0.1,0
							c0,0.2,0,0.6-0.1,0.8l0,0c-0.1,0.2,0.1,0.2,0,0.4l0,0c-0.1,0.4-0.1,0.8-0.2,1.1c0.1,0.1-0.1,0.4,0,0.4
							c-0.1,0.2-0.1,0.1-0.2,0.5c0,0.1,0.1,0.1,0.1,0.2l-0.1,0l0.1,0.1L27,50.4l0,0.1c0,0,0-0.1,0.1-0.1c0,0.2-0.1,0.4-0.1,0.4
							l0,0.4c0,0,0-0.1,0-0.1c0,0.2-0.1,0,0,0.2c0,0,0,0,0,0c0,0.1,0,0.3,0,0.4l0,0c0,0.3,0,0.6,0,0.9c0-0.1,0.1-0.1,0.1,0l-0.1,0
							c0,0.1,0-0.1,0.1,0c0,0.1-0.1,0.1-0.1,0l0,0.1c0,0,0,0-0.1,0c0,0.1-0.1,0.2,0,0.3l0,0c0,0.3,0,0.4,0,0.7c0.1,0,0,0.1,0.1,0.2
							c0,0.2,0,0.4,0,0.6c0,0.1,0,0,0.1,0.1c0,0,0,0.2-0.1,0.1c0,0.3,0,0.3,0.1,0.6c0,0,0-0.1,0-0.1c0,0.1,0,0.1,0,0.1l0,0
							c0.1,0.4,0,0.9,0.1,1.1l0,0l0.1,0.3c0,0.1,0-0.1-0.1,0c0.1,0.3,0.1,0.5,0.2,0.8c-0.1,0.2,0.1,0.7,0.1,1l0,0
							c0.1,0.1,0,0.1,0,0.1c0,0,0-0.1,0,0c0.2,0.6,0.3,1.2,0.5,1.8c0.1,0.2,0.2,0.1,0.2,0.4l-0.1-0.1c0.2,0.4,0.3,0.9,0.6,1.3
							c0,0,0,0-0.1-0.1c0,0.1,0.1,0.3,0.2,0.3c0,0.1,0,0,0,0.1c0,0.1,0.2,0.2,0.1,0.3c0,0,0,0,0,0c0,0,0.1,0.3,0.2,0.2
							c0.1,0.2,0.2,0.3,0.2,0.4c0.1,0,0.1,0.3,0.2,0.3c-0.1,0,0.1,0.3,0.2,0.4c0,0,0,0.1,0,0.1c0.1,0.1,0.1,0.2,0.2,0.2
							c0,0.2,0.3,0.3,0.3,0.5c0.2,0.3,0.4,0.6,0.7,0.8c-0.1,0-0.2-0.3-0.3-0.2c0.2,0.2,0.4,0.3,0.6,0.6c0,0.1-0.1,0-0.1,0
							c0.2,0.2,0.4,0.5,0.6,0.7c0,0,0,0-0.1,0c0,0,0.1,0.1,0.1,0.1l0,0c0-0.1,0.2,0.1,0.3,0.1c-0.1,0,0.2,0.2,0,0.2c0,0,0.1,0,0.1,0
							c0,0,0,0.1,0,0c0.2,0.1,0.1,0,0.3,0.2c0,0,0,0-0.1,0c0.1,0,0.2,0.1,0.3,0.2c0,0,0,0,0,0c0.2,0.2,0.4,0.2,0.5,0.5
							c-0.1,0,0,0.1,0,0.2l0.1,0.1l0-0.1c0.1,0.1,0.2,0.1,0.3,0.2l-0.1,0l0.2,0.2l-0.1-0.1c0.1,0.1,0.1-0.1,0.2,0.1
							c0,0,0.1,0.1,0.1,0.2l0,0c0.1,0,0.1,0.1,0.2,0.1c0,0-0.1,0-0.1,0.1c0.1,0,0.2,0.2,0.3,0.2c0,0-0.1,0-0.1,0l0.1,0
							c0,0.1,0,0.1,0,0.1c0.1,0.1,0-0.1,0.2,0.1c0,0,0,0,0,0c0.2,0.2,0.3,0.3,0.5,0.4c0,0.1-0.2-0.1-0.1,0c0.2,0.2,0.5,0.3,0.8,0.5
							l0,0c0.1-0.1,0.1,0.2,0.3,0.2c0,0-0.1,0-0.1,0c0.1,0.1,0.3,0.2,0.6,0.4l0,0c0.1,0.1,0.2,0.2,0.3,0.2c0,0,0.1,0,0.1,0
							c0.2,0.3,0.7,0.3,0.9,0.6c0,0-0.1,0-0.1,0l0.3,0.1c0-0.1,0,0-0.1-0.1c0,0,0.1,0,0.2,0.1c-0.1,0,0,0.1,0,0.1c0,0,0,0,0,0
							c0.1,0.1,0.1-0.1,0.2,0.1l0,0c0.1,0,0.2,0,0.2,0.1c0,0.1-0.1,0-0.1,0c0.1,0,0.2,0,0.3,0.1c-0.1,0-0.1,0-0.2-0.1
							c0.1,0.1,0.1,0.1,0.2,0.1l0,0l0.2,0.1l0,0c0.2-0.1,0.3,0.1,0.5,0.1c-0.2,0,0,0-0.1,0.1c0,0,0.1,0.1,0.1,0.1
							c0.1,0,0.1,0.1,0.3,0.1c0,0,0.1,0,0,0.1c0.1,0,0,0,0-0.1c0.2,0,0.4,0.3,0.6,0.3c0.2,0.1,0.3,0,0.5,0.1c0.1,0.1-0.1,0-0.1,0
							c0.1,0.1,0.2,0.1,0.3,0.1c0,0,0,0,0,0.1c0.1,0,0.1,0,0.2,0c0,0-0.1,0-0.1,0c0.1,0,0.2,0,0.3,0.1c0,0-0.1,0-0.1,0
							c0.1,0,0.3,0.1,0.4,0.1l-0.1,0c0,0,0,0.1,0,0c-0.1,0-0.1-0.1-0.1-0.1l0.1,0c0-0.1-0.3-0.1-0.4-0.2l0.1,0l-0.2,0
							c0,0,0-0.1,0-0.1c-0.1-0.1-0.1,0-0.2-0.1c0,0,0,0,0,0l-0.1,0c0,0,0-0.1,0.1,0c-0.2-0.1-0.3-0.1-0.4-0.1l0,0
							c-0.3-0.1,0,0-0.3,0l-0.1-0.2l0,0c0,0-0.1,0-0.1-0.1c-0.1,0,0,0-0.1,0c-0.1-0.1-0.3-0.1-0.3-0.2c-0.1,0,0.1,0.1,0,0.1
							c0-0.1-0.2-0.1-0.2-0.2c0.1,0,0.1,0,0.1,0c-0.1,0-0.2-0.1-0.3-0.2c0,0.1-0.2-0.1-0.4-0.1c0,0-0.3-0.2-0.4-0.3l0,0
							c-0.1,0.1-0.2,0-0.3-0.1c0,0,0.1,0,0.1,0L37.5,71c0,0-0.1,0-0.1,0l0.1,0c-0.1-0.1-0.3-0.1-0.4-0.2c0,0,0.1,0.2-0.1,0.1
							c0,0,0-0.1,0.1-0.1c0,0-0.1,0-0.1,0l0.1,0c-0.1-0.1-0.1,0-0.1,0c0,0,0-0.1,0-0.1c0,0,0,0,0.1,0c-0.1,0-0.1-0.1-0.1-0.2
							c0,0,0,0-0.1,0c-0.1-0.1,0-0.1-0.1-0.1c0,0-0.1-0.1-0.1,0c0,0,0,0,0-0.1c-0.1,0-0.3-0.2-0.3-0.1l0,0l0,0l0,0l0,0
							c-0.3-0.1-0.4-0.3-0.6-0.5l0,0c-0.1-0.1-0.3-0.2-0.4-0.2c0,0-0.1-0.1,0-0.1c-0.1-0.1-0.1,0-0.2-0.2c0.1,0,0,0,0.1,0.1
							c-0.1-0.1-0.1-0.1-0.3-0.2c0.1,0-0.1-0.1-0.1-0.1l0.1,0.1c-0.1,0-0.1-0.1-0.2-0.1l0.1,0c-0.2-0.3-0.5-0.3-0.6-0.5
							c-0.1,0,0.1,0.1,0,0.1c-0.1-0.1-0.1-0.3-0.2-0.3c-0.1-0.2-0.2,0-0.3-0.2c0,0,0,0.1-0.1,0c-0.1-0.1-0.1-0.2,0-0.1c0,0,0,0,0,0
							c0,0,0.1,0.1,0.1,0l0,0c0-0.1-0.2-0.2-0.1-0.2c-0.1-0.1-0.1,0,0,0.1c-0.1-0.1-0.2-0.2-0.3-0.3c0,0,0,0.1,0,0
							c-0.2-0.2-0.1-0.1-0.2-0.2c0-0.1,0.1,0-0.1-0.1c-0.1-0.1,0-0.1,0.1,0c-0.1-0.1-0.2-0.2-0.3-0.3l0.1,0.1c0,0-0.1-0.1-0.1-0.1
							l0,0.1c0,0-0.1-0.1,0-0.1c-0.1,0,0,0.1-0.1,0c0-0.1-0.2-0.1-0.1-0.2c0.1,0.2,0-0.1,0.2,0.1c0,0-0.1-0.1-0.1-0.1c0,0,0,0,0,0
							c-0.1-0.2-0.1,0-0.3-0.2c0,0,0-0.1,0-0.1c0.1,0.1,0,0.1-0.1,0c-0.1-0.1-0.1-0.1-0.2-0.2l0,0.1c0,0-0.1-0.1-0.2-0.1
							c0,0,0.1,0.1,0.1,0c-0.1,0-0.1-0.2-0.2-0.3c0-0.1,0,0,0-0.1c-0.1-0.1-0.1-0.2-0.2-0.3c0,0.1,0,0.1-0.1,0l0.2,0.2l-0.2-0.1
							c0.1,0.1,0.1,0.1,0.2,0.2c-0.1,0-0.1,0-0.1,0c0-0.1-0.2-0.2-0.2-0.3l0.1-0.1c-0.1-0.2-0.3-0.3-0.4-0.5l0,0.1
							c-0.1,0-0.1-0.1-0.2-0.2c0,0,0-0.1,0-0.1c0,0-0.1-0.2-0.2-0.1l0-0.1c-0.1-0.2-0.2-0.1-0.3-0.3c0.1,0,0-0.1,0.1,0
							c0-0.1-0.1-0.1-0.1-0.1c0,0-0.1-0.1-0.1-0.2c0,0-0.1,0-0.1-0.1c0,0,0,0,0,0c0,0-0.1-0.1-0.1,0c0-0.2-0.3-0.5-0.3-0.7
							c-0.1-0.1-0.2-0.3-0.2-0.4c0,0,0,0,0,0c0-0.2-0.1-0.1-0.2-0.3c0-0.1,0.1,0.1,0.1,0c0.1-0.1-0.1-0.2-0.1-0.4l0,0
							c0-0.1-0.2-0.2-0.2-0.4c0,0,0,0,0,0c-0.1-0.1-0.2-0.3-0.3-0.5c0.1,0,0.1,0.1,0.1,0c0-0.1-0.1,0.1-0.1-0.1c0-0.1,0-0.2,0-0.2
							l0.1,0.1c0-0.1-0.1-0.2-0.1-0.3l0,0c-0.1-0.2-0.2-0.2-0.2-0.4l0,0c-0.1-0.1,0-0.1-0.1-0.2l0.1-0.1c-0.1-0.1-0.2-0.3-0.2-0.4
							c0.1,0.1,0.2,0.2,0.2,0.3c0-0.1-0.1-0.3-0.1-0.3c0,0,0,0.1,0,0.1c-0.1-0.1-0.1-0.2-0.2-0.4c0.2,0-0.1-0.4,0-0.6
							c-0.1-0.3-0.1-0.6-0.2-0.9c-0.1,0.1,0-0.1-0.1-0.1c0-0.1,0-0.1,0-0.1l0-0.3c0-0.1,0,0.1,0.1,0.1c0-0.2,0-0.1,0-0.2
							c0,0-0.1-0.1-0.1-0.2l0,0.2c-0.1-0.2,0.1-0.2,0-0.5l0,0.1c0-0.1-0.1-0.5-0.2-0.6c0,0,0-0.1,0.1,0c0-0.3-0.2-0.7-0.1-0.9l0,0
							c0-0.1-0.1-0.1,0-0.2c0,0,0,0,0,0c0,0-0.1-0.2,0-0.2l0,0.1c0-0.3-0.1-0.5-0.1-0.7c0.1,0,0.1-0.2,0.1-0.4l0,0
							c0-0.4-0.1-0.6-0.1-0.9c0.1-0.2,0.1-0.7,0.1-1c0,0-0.1,0-0.1-0.1c0-0.1-0.1-0.2,0-0.2l0,0c0.1-0.1,0.1-0.2,0.1-0.3l-0.1,0
							c0.2-0.3,0-0.9,0.2-1c0-0.1,0-0.2,0-0.3l0.1,0c0-0.2,0.1-0.3,0.1-0.6l0,0.1c0-0.2-0.1-0.2-0.1-0.4l0.1,0
							c0-0.3,0.1-0.5,0.1-0.8c0,0,0,0,0,0.1c0-0.1,0.1-0.5,0-0.4c0.1,0,0.1-0.3,0-0.4l0,0c0-0.1-0.1-0.1,0-0.3c0,0,0,0,0,0
							c0.1-0.1,0-0.1,0-0.3l0,0.1c0-0.1,0-0.1,0-0.2c0-0.1,0.1-0.3,0.1-0.3c0,0,0-0.1,0-0.2c0,0,0,0,0,0c0.1-0.2,0-0.3,0.1-0.5
							c0,0,0,0,0,0c0,0.2-0.1,0.3-0.1,0.3c0,0,0.1-0.1,0.1,0c0-0.1,0-0.3,0-0.5l0,0l0,0c0,0,0-0.1,0-0.1c0,0,0-0.1,0-0.1
							c0,0,0.1-0.2,0.1-0.2c-0.1,0,0-0.1-0.1,0c0,0,0,0,0,0.1c0,0,0,0,0,0l0,0c0,0,0,0.1,0,0.2c0-0.1,0-0.1,0-0.2
							c0,0-0.1-0.1-0.1-0.1c0.1-0.1,0.2-0.3,0.2-0.3c0-0.2,0.1-0.5,0.1-0.7c0-0.1,0-0.1,0.1-0.1c0,0,0,0.1,0,0.1
							c0-0.1,0.1-0.4,0-0.4c0.1-0.1,0,0.1,0.1-0.1l0,0c0.2-0.4,0-0.7,0.3-1.2c0,0,0,0,0,0c0.2-0.5,0.3-1.1,0.6-1.6
							c0.1-0.1,0-0.2,0-0.3l0.1,0l0-0.2c0-0.2,0.3-0.3,0.3-0.6l-0.1,0c0-0.1,0.1-0.3,0.1-0.3c0,0,0,0,0-0.1l0,0l0.1-0.3
							c0.1-0.2,0.1,0.1,0.2-0.2c0-0.1,0-0.3,0-0.3c0,0-0.1,0.1-0.1,0.1l0-0.1c-0.1-0.1-0.1-0.2-0.3,0l0,0.2l-0.1,0l0.1-0.1
							c-0.1,0.1-0.1,0.1-0.1,0.2c0,0-0.1,0-0.1,0l0,0.2c0,0,0-0.1-0.1,0c0,0.1,0.1,0,0.1,0.1c-0.1,0.1-0.1,0-0.1,0.1c0,0,0,0,0-0.1
							c0,0.1-0.1,0.2,0,0.3c-0.1,0.1-0.1,0.3-0.2,0.2c0,0,0,0.2,0,0.2c0-0.2-0.1,0.3-0.2,0.2c0,0.1-0.1,0.4-0.1,0.6c0,0,0,0,0-0.1
							c0,0.1-0.1,0.1-0.1,0.2c0.1,0,0,0.2,0,0.3c-0.1,0.1-0.1-0.1-0.1-0.1c0.1,0,0,0.2,0,0.2c-0.1,0.1,0,0.1-0.1,0.1
							c0.1,0,0,0.1,0,0.2C28.7,42.1,28.7,42,28.7,42C28.7,42.2,28.7,42,28.7,42z M27.8,45.7L27.8,45.7
							C27.8,45.6,27.8,45.6,27.8,45.7C27.8,45.6,27.8,45.6,27.8,45.7z M27.8,46c0,0,0-0.1,0-0.1C27.8,45.8,27.8,45.9,27.8,46
							C27.8,45.9,27.8,45.9,27.8,46z M28.3,45.4C28.3,45.5,28.3,45.5,28.3,45.4C28.2,45.5,28.2,45.4,28.3,45.4L28.3,45.4
							C28.3,45.4,28.3,45.4,28.3,45.4z"/>
						<polygon fill="#808181" points="28.2,45.3 28.2,45.3 28.2,45.3 28.2,45.3 						"/>
						<path fill="#808181" d="M36.1,70.3L36.1,70.3C36.1,70.3,36.1,70.3,36.1,70.3L36.1,70.3z"/>
						<polygon fill="#808181" points="27,50.2 27,50.2 27,50.2 						"/>
						<path fill="#808181" d="M37.5,71.3C37.5,71.3,37.5,71.3,37.5,71.3C37.5,71.3,37.5,71.3,37.5,71.3z"/>
						<path fill="#808181" d="M38.1,71.7L38.1,71.7C38.2,71.7,38.2,71.7,38.1,71.7z"/>
						<path fill="#808181" d="M38.6,72C38.7,72,38.7,71.9,38.6,72L38.6,72L38.6,72z"/>
						<path fill="#808181" d="M31.4,66.5L31.4,66.5C31.4,66.4,31.4,66.5,31.4,66.5z"/>
						<path fill="#808181" d="M33.4,68.4C33.4,68.3,33.3,68.3,33.4,68.4C33.3,68.4,33.4,68.4,33.4,68.4z"/>
						<polygon fill="#808181" points="29.6,64 29.6,64 29.6,64 						"/>
						<path fill="#808181" d="M33.2,68.2C33.2,68.3,33.3,68.3,33.2,68.2C33.3,68.3,33.3,68.3,33.2,68.2z"/>
						<polygon fill="#808181" points="40.9,73 40.9,73 40.9,73 						"/>
						<path fill="#808181" d="M40.9,73L40.9,73C40.9,73,40.9,73,40.9,73z"/>
						<path fill="#808181" d="M41,73L41,73C41,73,41,73,41,73z"/>
						<path fill="#808181" d="M40.2,72.7L40.2,72.7C40.2,72.7,40.2,72.7,40.2,72.7z"/>
						<path fill="#808181" d="M40,72.6c0,0,0.1,0.1,0.2,0.1l0,0C40.1,72.7,40.1,72.6,40,72.6z"/>
						<path fill="#808181" d="M39.2,72l0.2,0.1c0,0,0-0.1,0,0C39.2,71.9,39.4,72.1,39.2,72z"/>
						<path fill="#808181" d="M38.7,71.7C38.8,71.7,38.7,71.7,38.7,71.7C38.7,71.6,38.6,71.6,38.7,71.7z"/>
						<path fill="#808181" d="M35.1,69.5L35.1,69.5C35,69.4,35.1,69.4,35.1,69.5z"/>
						<path fill="#808181" d="M34.2,69.2L34.2,69.2L34.2,69.2C34.3,69.2,34.3,69.2,34.2,69.2z"/>
						<polygon fill="#808181" points="34.1,68.6 34.1,68.6 34,68.5 						"/>
						<path fill="#808181" d="M29.6,63.1L29.6,63.1C29.6,63.2,29.7,63.1,29.6,63.1z"/>
						<path fill="#808181" d="M28.3,60.3c0,0,0-0.1,0-0.2C28.3,60.2,28.3,60.2,28.3,60.3z"/>
						<polygon fill="#808181" points="27.4,51.1 27.4,51.2 27.4,51 						"/>
					</g>
				</g>
			</g>
		</g>
	</g>
</g>
</svg>
