<?xml version="1.0" encoding="utf-8"?>
<!-- Generator: Adobe Illustrator 23.1.0, SVG Export Plug-In . SVG Version: 6.00 Build 0)  -->
<svg version="1.1" id="Capa_1" xmlns="http://www.w3.org/2000/svg" xmlns:xlink="http://www.w3.org/1999/xlink" x="0px" y="0px"
	 viewBox="0 0 89.2 89.2" enable-background="new 0 0 89.2 89.2" xml:space="preserve">
<g>
	<g>
		<path fill="#ABD0DB" d="M35.6,28.9c0,0,5.3-8.4,14.4-4.4c0,0-4,2.1-4.9,3.9"/>
		<g>
			<g>
				<g>
					<g>
						<path fill="#808181" d="M35.6,28.8C35.5,28.8,35.6,28.7,35.6,28.8C35.5,28.8,35.5,28.8,35.6,28.8z"/>
						<path fill="#808181" d="M45.3,28.1c0-0.3,0.4-0.5,0.5-0.8c0,0,0.1,0.1,0.1,0c0.1-0.3,0.5-0.5,0.8-0.7l0,0
							c0.1,0,0.1-0.1,0.1-0.2c0,0,0,0,0,0c0,0,0.1-0.1,0.1-0.1c0,0,0.1,0,0.1,0l0-0.1c0-0.2,0.2-0.2,0.3-0.3c0,0,0,0,0,0
							c0.2-0.2,0.4-0.4,0.6-0.5c0,0,0,0.1,0,0.1c0-0.1,0-0.1,0.1-0.2c0.1,0,0.1-0.1,0.2-0.1l0,0c0-0.1,0.1,0,0.1-0.1l0.1,0
							c0-0.1,0.1,0,0.1-0.1l0,0c0,0,0.1,0,0.1-0.1l0,0c0.1-0.1,0.2-0.1,0.1-0.1c0.1,0-0.1,0.1,0,0.1c0.3-0.2,0.6-0.4,0.8-0.6
							c0.1,0,0.1,0,0.2,0c0,0,0.1-0.1,0.1-0.1l0,0c0,0,0.1,0,0,0c0,0-0.2,0-0.2,0c0.1,0,0.1,0,0.1,0c-0.2,0-0.2,0-0.3,0
							c0,0,0.1,0,0.1,0c-0.2,0-0.1-0.1-0.2-0.1l0.1,0c-0.1-0.1-0.1,0-0.2,0c0,0,0,0,0.1,0c-0.1,0-0.2,0-0.3,0c0,0,0,0,0,0
							c-0.1,0-0.2-0.1-0.3-0.1c0,0,0-0.1-0.1-0.1c0,0.1-0.2,0-0.1,0.1c-0.1,0-0.2-0.1-0.3-0.1c0,0,0-0.1,0.1-0.1l0-0.1
							c0,0,0.1,0,0,0c0,0-0.1,0-0.2,0c-0.1,0-0.2,0.1-0.3,0.1c0.1,0,0-0.1,0-0.1l-0.2,0.1c0,0,0-0.1,0,0c0,0,0,0,0,0
							c0,0-0.1,0-0.2-0.1c0,0,0.1,0,0,0c-0.1,0-0.1,0-0.1,0l0,0c0,0-0.1,0-0.1,0.1c0,0,0,0,0,0c0,0-0.1,0-0.2,0c0,0,0,0,0,0
							c-0.1,0-0.2,0-0.3,0c0,0,0-0.1,0.1,0c-0.1-0.1-0.3,0-0.4-0.1c0,0,0,0,0,0c-0.1,0-0.1-0.1-0.1,0c0,0-0.1,0-0.1,0c0,0,0,0,0,0
							c-0.1,0-0.3,0-0.4,0c0,0-0.1,0.1-0.1,0.1l0,0c0,0-0.1,0-0.1,0c-0.1,0,0.3,0,0.2,0c0,0-0.1,0.1-0.1,0c-0.1,0-0.1,0-0.2,0
							c0,0,0.1-0.1,0-0.1c-0.1,0,0,0-0.1,0l0,0c0,0-0.1,0,0,0c0,0-0.1,0-0.1-0.1l0-0.1c0,0-0.1,0.1-0.1,0.1c0,0,0,0,0,0
							c0,0.1-0.1,0-0.1,0.1c-0.1,0-0.2,0-0.2,0c-0.1,0-0.1,0.1-0.2,0.1c0,0,0,0,0,0c0,0-0.1,0-0.1,0c0,0-0.1,0-0.1-0.1
							c-0.1,0,0,0.1,0,0.1c-0.1-0.1-0.2,0.1-0.2,0c0,0,0.1,0,0-0.1c-0.1-0.1-0.1,0.1-0.2,0l0,0.1c0,0-0.1,0-0.1,0c0,0-0.1,0-0.1,0.1
							c-0.2,0-0.3,0.1-0.4,0c0,0-0.1,0-0.1,0c0,0,0,0,0.1,0c0,0,0,0,0,0c0,0-0.1,0-0.1-0.1c-0.1,0-0.1,0.1-0.2,0.1c0,0,0,0,0,0
							l-0.1,0.1c-0.1,0-0.1-0.1-0.1-0.1c0,0-0.1,0-0.1,0.1l-0.1,0c0,0,0,0,0,0.1l0,0c0,0-0.1,0-0.1,0c0,0,0.1,0,0.1,0
							c0,0-0.1,0-0.1,0.1c0,0-0.1,0-0.1,0c0,0,0,0.1,0,0.1c0,0-0.1,0,0,0c0,0,0,0,0.1,0c0,0,0-0.1-0.1,0c0,0,0,0.1,0,0.1
							c0,0,0,0,0-0.1l-0.1,0l0,0c0,0,0,0,0,0c0,0.1-0.1,0-0.1,0.1c0,0-0.1,0-0.1,0l0,0c0,0-0.1,0-0.1,0.1l0,0c0,0-0.1,0-0.1,0.1
							c-0.1,0-0.1-0.1-0.1-0.1c-0.1,0-0.1,0.1,0,0.1c-0.1,0-0.2,0.1-0.3,0.1c0,0,0,0,0,0.1c-0.2,0.1-0.3,0.2-0.4,0.2c0,0,0,0,0-0.1
							c0,0.1-0.1,0,0,0c0,0,0,0.1,0.1,0c-0.1,0.1-0.2,0.1-0.3,0.1c0,0,0,0,0,0c0-0.1-0.1,0-0.1,0l0,0l0,0c0,0,0,0.1,0,0.1
							c0,0,0,0,0,0c0,0-0.1,0.1-0.1,0.1l-0.1,0c0,0,0,0.1,0,0.1c-0.1,0-0.2,0.1-0.2,0c-0.1,0.2-0.3,0.3-0.5,0.4l0,0
							c-0.1,0,0,0.1,0,0.1c0,0-0.1,0,0-0.1c-0.1,0-0.1,0.1-0.1,0.1c0,0,0,0,0,0c0,0-0.1,0-0.1,0.1c0,0,0-0.1,0-0.1l0,0.1
							c-0.1,0,0-0.2-0.1-0.2l0,0c-0.1,0,0.1-0.1,0-0.1c0,0.1,0,0.1,0,0.1c-0.1,0.1,0,0.1-0.1,0.2c0,0,0.1-0.1,0-0.1
							c-0.1,0-0.1,0.1-0.1,0.1c0.1,0,0.1,0.1,0,0.1c-0.1,0,0-0.1-0.1,0c0,0,0,0.1,0,0.1c0,0.1-0.1,0-0.1,0.1c-0.1,0,0-0.1-0.1-0.1
							c0,0,0,0.1,0,0.1c0,0-0.1,0-0.1-0.1c-0.1,0,0,0.1-0.1,0.1l0,0.1c0,0,0,0-0.1,0c0,0-0.1,0.1-0.1,0.1c0,0-0.1,0.1,0,0.1
							c0.1,0,0-0.1,0.1,0c-0.1,0-0.1,0.1-0.1,0.1l0,0c0,0,0,0,0,0.1c0,0,0,0,0,0l0,0c0,0.1-0.1,0-0.1,0l0-0.1c0,0-0.1,0-0.1,0
							c0,0,0,0.1,0,0.1c0,0,0,0-0.1,0l0-0.1c0,0-0.1,0-0.1,0c0,0,0,0.1,0,0.1c0,0-0.1,0-0.1,0c0,0.1,0,0,0,0.1c0,0-0.1,0-0.2,0
							l0-0.1l0,0c0-0.1,0,0-0.1-0.1c0,0,0,0-0.1,0.1c0.1,0,0,0.2,0.1,0.2c-0.1,0.1-0.2-0.1-0.2,0.1c0,0,0,0.1,0.1,0
							c-0.1,0,0,0.1-0.1,0.1c0-0.1-0.1,0-0.1-0.1c0,0,0.1,0,0.1,0c0,0-0.1-0.1-0.1,0c0,0-0.1,0.1,0,0.1c0,0,0-0.1,0.1,0
							c-0.1,0.1-0.1,0-0.1,0.1c0,0,0.1,0,0.1,0l0,0.1l0,0c-0.1,0.1,0,0.1-0.1,0.1l-0.1,0c0-0.1,0.1-0.1,0-0.1c-0.1,0,0,0.1-0.1,0.1
							c0,0,0,0,0,0c0,0-0.1-0.1-0.1,0.1c0,0.1,0,0,0,0.1c-0.1,0.1-0.1,0.1-0.1,0.2c0-0.1-0.1,0.1-0.1,0c0.1,0,0.2-0.1,0.1-0.2
							c-0.1,0,0.1,0,0-0.1c-0.1,0.1-0.1,0-0.2,0c0,0,0,0,0,0.1c0,0,0,0,0.1,0.1c-0.1,0.1-0.1,0.1-0.1,0.2c0,0-0.1,0,0-0.1
							c-0.1,0.1-0.2,0.2-0.2,0.2c0.1,0-0.1,0.1,0,0.1c0.1,0,0.1,0,0.1,0c0,0,0,0,0,0c0,0.1-0.1,0-0.1,0.1c0.1-0.1-0.1-0.1-0.1-0.1
							c0,0.1,0,0-0.1,0c0,0.1-0.1,0.2-0.1,0.2c-0.1,0-0.2,0.2-0.2,0.3c-0.1,0-0.1-0.1-0.1,0c0,0,0.1,0,0,0.1l0,0
							c0,0-0.1,0.1-0.1,0.2l0-0.1c0,0,0,0,0,0c0,0,0,0,0,0c-0.1,0-0.1,0.1-0.1,0.1l0.1,0c0,0.1-0.1,0.1-0.2,0.2l0,0l0,0.1
							c0,0-0.1,0-0.1,0l0-0.2c0,0,0,0.1,0.1,0.1c0,0,0.1-0.1,0.1-0.1c0,0,0,0,0,0.1c-0.1,0,0-0.1,0-0.1c0,0,0,0,0,0
							c0,0,0-0.1,0.1-0.1c0,0,0,0,0,0c0,0,0-0.1,0-0.1c0.1,0,0.1-0.1,0.1-0.2c0,0.1,0,0.1,0,0.2c0.1,0,0-0.1,0.1-0.1
							c0,0,0-0.1,0-0.2l0,0c0-0.1,0-0.1,0-0.2c0.1-0.1,0.2-0.2,0.3-0.3l0,0c0-0.1,0.1-0.2,0.1-0.3c0.1-0.1,0.2-0.3,0.3-0.3
							c0.2-0.2,0.3-0.4,0.5-0.5l0,0.1c0-0.1,0,0,0.1,0c-0.1,0,0-0.1,0-0.1c0.1,0,0.2-0.2,0.2-0.3l0,0c0-0.1,0.2-0.2,0.3-0.2
							c0,0,0.1,0,0.1,0c0-0.1,0-0.1,0.1-0.2c0.1-0.1,0.2-0.1,0.2-0.1c0.2-0.2,0.4-0.4,0.7-0.6l0,0c0.2-0.2,0.5-0.3,0.7-0.5l0,0.1
							c0.1,0,0.1-0.1,0.1-0.1c0.1,0,0.1-0.1,0.2-0.1c0.1,0,0.1-0.1,0.1-0.1c0.2,0,0.2-0.1,0.3-0.1l0,0c0,0,0,0.1,0,0
							c0,0,0.2-0.1,0.1-0.1c0.2,0,0.3-0.2,0.5-0.2c0,0,0,0,0-0.1c0.1,0,0.3,0,0.4-0.1c0,0,0,0.1,0,0c0,0,0,0,0-0.1
							c0.2-0.1,0.5-0.1,0.6-0.2c0.3-0.1,0.7-0.2,1.1-0.3l0,0c0.1-0.1,0.3,0,0.4-0.1c0,0,0.1,0,0.1,0c0.1-0.1,0.3,0,0.4,0
							c0,0,0,0,0,0c0.1,0,0.3,0,0.4,0c0,0,0,0,0,0c0.1,0,0.1-0.1,0.2,0c0,0,0,0,0,0c0.3,0,0.7,0,1,0c0.2,0.1,0,0.2,0.2,0.1
							c0,0,0,0,0,0c0.1,0,0.1,0.1,0.2,0.1c0-0.1,0,0,0-0.1c0.1,0,0.2,0.1,0.3,0.1l0,0c0.1-0.1,0.3,0,0.4-0.1
							c0.7,0.2,1.4,0.2,2.1,0.5c0.6,0.2,1.3,0.5,1.9,0.7c-0.5,0.3-1,0.6-1.6,0.9c-0.2,0-0.2,0-0.3,0.1c0,0,0,0,0,0
							c0,0.1-0.1,0.1-0.1,0.1c-0.2,0.1-0.4,0.3-0.6,0.4c0,0,0-0.1,0-0.1l0,0.1l0,0c0,0,0,0.1,0,0.1c-0.5,0.4-1.1,0.7-1.6,1.1
							c-0.1,0.1-0.3,0.2-0.4,0.4c-0.4,0.3-0.8,0.6-0.9,1C45.4,28.4,45.2,28.3,45.3,28.1z"/>
						<path fill="#808181" d="M35.6,28.7C35.7,28.7,35.7,28.6,35.6,28.7C35.7,28.7,35.6,28.7,35.6,28.7z"/>
						<path fill="#808181" d="M36.8,27.7C36.8,27.7,36.9,27.7,36.8,27.7C36.9,27.7,36.9,27.7,36.8,27.7
							C36.9,27.7,36.8,27.7,36.8,27.7z"/>
						<path fill="#808181" d="M37.1,27.4c0,0,0,0.1-0.1,0.1L37.1,27.4z"/>
						<path fill="#808181" d="M37.5,27.2C37.5,27.2,37.5,27.2,37.5,27.2C37.5,27.2,37.5,27.2,37.5,27.2z"/>
						<path fill="#808181" d="M37.4,27.1C37.5,27.1,37.5,27.1,37.4,27.1C37.5,27.1,37.5,27.2,37.4,27.1z"/>
						<path fill="#808181" d="M38.1,26.7C38.1,26.6,38.1,26.6,38.1,26.7C38.1,26.6,38.1,26.7,38.1,26.7z"/>
						<path fill="#808181" d="M38.3,26.4C38.3,26.4,38.3,26.4,38.3,26.4C38.4,26.4,38.4,26.4,38.3,26.4L38.3,26.4z"/>
						<polygon fill="#808181" points="44.2,23.6 44.2,23.6 44.2,23.6 						"/>
						<path fill="#808181" d="M47.1,23.8C47.2,23.8,47.2,23.8,47.1,23.8C47.1,23.8,47.2,23.8,47.1,23.8z"/>
						<polygon fill="#808181" points="48.7,24 48.7,24 48.7,24 						"/>
					</g>
				</g>
			</g>
		</g>
	</g>
	<g>
		<path fill="#C0E4F2" d="M36.2,61.3c1.6,2,6.5,6.8,13.8,3.6c0,0-2.8-1.5-4.2-3"/>
		<g>
			<g>
				<g>
					<g>
						<path fill="#808181" d="M36.3,61.3C36.3,61.3,36.3,61.4,36.3,61.3C36.3,61.3,36.3,61.3,36.3,61.3z"/>
						<path fill="#808181" d="M45.9,62.2c0.3,0.1,0.4,0.4,0.7,0.5c0,0-0.1,0.1,0,0.1c0.3,0.1,0.5,0.4,0.8,0.6l0,0c0,0,0.1,0,0.2,0.1
							c0,0,0,0,0,0c0,0,0.1,0,0.1,0c0,0,0,0.1,0,0.1l0.1,0c0.2,0,0.2,0.1,0.3,0.2c0,0,0,0,0,0c0.2,0.1,0.5,0.2,0.7,0.3
							c0,0,0,0,0,0.1c0,0,0.1,0,0.2,0c0,0.1,0.1,0,0.2,0.1l0,0c0.1,0,0.1,0.1,0.1,0l0,0.1c0.1-0.1,0.1,0.1,0.1,0.1l0,0
							c0,0,0.1,0.1,0.1,0.1l0,0c0.1,0,0.1,0.1,0.2,0.1c0,0-0.1,0-0.1,0c0.2,0.1,0.5,0.2,0.7,0.3c-0.1,0-0.2,0.1-0.3,0.1
							c-0.1,0-0.1,0-0.2,0c0,0-0.1,0-0.1,0.1c0,0-0.1,0-0.1,0c-0.1,0,0,0.1-0.1,0.1c0,0,0,0,0-0.1c0,0.1-0.1,0.1-0.1,0.1
							c0,0,0,0,0,0c0,0.1-0.1,0-0.2,0.1l0,0c-0.1,0,0,0.1-0.1,0.1c0,0,0,0,0,0c-0.1,0.1-0.2,0.1-0.3,0.2c0,0,0,0,0,0
							c-0.1,0-0.2,0-0.3,0.1c0,0,0-0.1-0.1-0.1c0,0.1-0.1,0.1-0.1,0.1c-0.1,0-0.2,0-0.3,0.1c0,0-0.1-0.1,0-0.1l-0.1,0c0,0,0.1,0,0,0
							c0,0-0.1,0.1-0.1,0.1c0,0.1-0.1,0.2-0.2,0.2c0,0,0-0.1,0-0.1l-0.1,0.2c0,0,0-0.1-0.1,0c0,0,0,0,0,0.1c0,0-0.1,0-0.2,0
							c0,0,0.1,0,0,0c-0.1,0-0.1,0-0.1,0l0,0c0,0-0.1,0-0.1,0.1c0,0,0,0,0,0c0,0-0.1,0.1-0.2,0.1c0,0,0,0,0-0.1
							c-0.1,0.1-0.2,0.1-0.2,0.1c0,0,0-0.1,0,0c-0.1,0-0.2,0.1-0.3,0c0,0,0,0,0,0c-0.1,0-0.1,0-0.1,0c0,0,0,0-0.1,0c0,0,0,0,0,0
							c0,0-0.3,0.1-0.4,0.1c0,0-0.1,0.1-0.1,0.1l0,0c0,0-0.1,0-0.1,0c-0.1,0.1,0.2-0.1,0.2,0c0,0-0.1,0.1-0.1,0
							c-0.1,0-0.1,0.1-0.2,0c0,0,0-0.1,0-0.1c-0.1,0,0,0-0.1,0l0,0c0,0-0.1,0,0,0c0,0-0.1,0-0.1,0l0-0.1c0,0-0.1,0.1-0.1,0.1
							c0,0,0,0,0,0c0,0.1-0.1,0-0.1,0.1c-0.1,0-0.2,0-0.2-0.1c-0.1,0-0.1,0-0.2,0c0,0,0,0,0,0c0,0-0.1,0-0.1,0c0,0-0.1-0.1-0.1-0.1
							c-0.1,0,0,0.1,0,0.1c0-0.1-0.2,0-0.2,0c0,0,0.1,0,0-0.1c0-0.1-0.1,0.1-0.2,0l0,0.1c0,0-0.1,0-0.1,0c0,0-0.1,0-0.1,0
							c-0.1-0.1-0.3,0-0.4-0.2c0,0-0.1,0-0.1,0c0,0,0,0,0.1,0c0,0,0,0,0,0c0,0-0.1,0,0-0.1c-0.1-0.1-0.1,0.1-0.2,0c0,0,0,0,0,0
							l-0.1,0c-0.1,0,0-0.1,0-0.1c0,0-0.1,0-0.1,0l0-0.1c0,0,0,0-0.1,0l0,0c0,0-0.1,0-0.1,0c0,0,0,0.1,0.1,0.1c0,0-0.1,0-0.1,0
							c0,0-0.1,0-0.1-0.1c0,0-0.1,0-0.1,0c0,0-0.1,0,0,0c0,0,0,0,0,0c0,0,0-0.1-0.1,0c0,0,0,0.1-0.1,0c0,0,0,0,0,0l-0.1,0l0,0
							c0,0,0,0,0,0c0,0-0.1,0-0.1,0c0,0-0.1,0-0.1-0.1l0,0c0,0-0.1,0-0.1,0l0,0c0,0-0.1,0-0.1,0c0,0,0-0.2,0-0.1
							c-0.1,0-0.1,0-0.1,0.1c-0.1-0.1-0.2,0-0.3-0.1c0,0,0,0,0,0c-0.1-0.1-0.3-0.1-0.4-0.2c0,0,0,0,0-0.1c0,0,0-0.1-0.1,0
							c0,0,0,0.1,0,0.1c-0.1,0-0.2-0.1-0.3-0.1c0,0,0,0,0,0c0-0.1,0-0.1-0.1-0.1l0,0l0-0.1c0,0-0.1,0.1-0.1,0c0,0,0,0,0,0
							c-0.1,0-0.1,0-0.2,0l0-0.1c0,0-0.1,0,0,0c-0.1-0.1-0.1-0.1-0.1-0.2c-0.2,0-0.4-0.1-0.6-0.2l0,0c0,0,0,0-0.1,0c0,0,0-0.1,0-0.1
							c0-0.1-0.1,0-0.2,0c0,0,0,0,0,0c0,0-0.1-0.1-0.1,0c0,0,0-0.1,0.1-0.1l-0.1,0c0-0.1,0.2,0,0.2-0.1l0,0c0-0.1,0.1,0,0.1-0.1
							c-0.1,0-0.1,0.1-0.1,0.1c-0.1,0-0.1,0.1-0.2,0c0,0,0.1,0,0.1,0c0-0.1-0.1,0-0.1-0.1c0,0,0,0.1-0.1,0.1c0,0,0.1,0,0-0.1
							c0,0-0.1,0-0.1,0.1c-0.1,0-0.1-0.1-0.1,0c0-0.1,0.1-0.1,0.1-0.1c0,0-0.1,0-0.1,0.1c0,0,0-0.1,0-0.1c0-0.1-0.1,0-0.1-0.1l0,0
							c0,0,0,0,0-0.1c0,0-0.1,0-0.1-0.1c0,0-0.1-0.1-0.1,0c0,0.1,0.1,0,0.1,0.1c0-0.1-0.1,0-0.1,0l0,0c0,0-0.1,0-0.1,0c0,0,0,0,0,0
							l0,0c-0.1,0,0-0.1,0-0.1l0.1,0c0,0,0-0.1,0-0.1c0,0-0.1,0.1-0.1,0.1c0,0,0,0,0,0l0.1,0c0,0,0-0.1,0-0.1c0,0-0.1,0-0.1,0.1
							c0,0,0-0.1,0-0.1c-0.1,0,0,0-0.1,0c0,0,0-0.1,0-0.2l0.1,0l0,0c0.1,0,0,0,0.1-0.1c0,0-0.1,0-0.1,0c0,0.1-0.1,0-0.2,0.1
							c-0.1,0,0.1-0.2-0.1-0.2c0,0-0.1,0,0,0.1c0,0-0.1,0-0.1,0c0.1,0,0-0.1,0.1-0.1c0,0,0,0,0,0c0,0,0.1-0.1,0-0.1
							c0,0-0.1-0.1-0.1,0c0,0,0.1,0,0,0.1c-0.1,0,0-0.1-0.1-0.1c0,0,0,0.1,0,0.1l-0.1,0l0,0c-0.1-0.1-0.1,0-0.1,0l0-0.1
							c0.1,0,0.1,0.1,0.1,0c0,0-0.1,0-0.1-0.1c0,0,0,0,0,0c0,0,0-0.1-0.1-0.1c-0.1,0,0,0-0.1,0c-0.1-0.1-0.1-0.1-0.2-0.1
							c0.1,0-0.1-0.1,0-0.1c0,0.1,0.1,0.1,0.2,0.1c0-0.1,0.1,0.1,0.1,0c-0.1-0.1,0-0.1,0-0.2c0,0,0,0-0.1,0c0,0,0,0,0,0.1
							C37.6,63,37.5,63,37.4,63c0,0,0-0.1,0.1,0c-0.1-0.1-0.2-0.1-0.2-0.2c0,0.1-0.1-0.1-0.1,0c0,0.1,0,0.1,0,0.1c0,0,0,0,0,0
							c-0.1,0,0-0.1-0.1-0.1c0.1,0.1,0.1-0.1,0.1-0.1c-0.1,0,0,0,0-0.1c-0.1,0-0.2-0.1-0.2-0.1c0-0.1-0.2-0.2-0.2-0.2
							c0-0.1,0.1-0.1,0-0.1c0,0,0,0.1-0.1,0l0,0c0,0-0.1-0.1-0.2-0.1l0.1,0c0,0,0,0,0,0c0,0,0,0,0.1,0c0-0.1-0.1-0.1-0.1-0.1l0,0.1
							c-0.1,0-0.1-0.1-0.2-0.2l0,0l-0.1,0c0,0,0-0.1,0-0.1l0.2,0c0,0-0.1,0-0.1,0c0,0,0.1,0.1,0.1,0.1c0,0,0,0-0.1,0
							c0,0,0.1,0,0.1,0c0,0,0,0,0,0c0,0,0.1,0,0.1,0.1c0,0,0,0,0,0c0,0,0.1,0,0.1,0.1c0,0.1,0.1,0.1,0.2,0.1c-0.1,0-0.1,0-0.2,0
							c0,0.1,0,0,0.1,0.1c0,0,0.1,0,0.2,0l0,0c0.1,0,0.1,0,0.1,0.1c0.1,0.1,0.2,0.2,0.2,0.3l0,0c0.1,0,0.2,0.1,0.2,0.1
							c0.1,0.1,0.2,0.2,0.2,0.3c0.2,0.1,0.3,0.2,0.5,0.4l-0.1,0c0.1,0,0,0,0,0.1c0-0.1,0.1,0,0.1,0c0.1,0.1,0.2,0.1,0.3,0.2l0,0
							c0.1,0,0.2,0.1,0.2,0.2c0,0,0,0.1,0,0.1c0.1,0,0.1,0,0.2,0c0.1,0,0.1,0.1,0.2,0.2c0.2,0.1,0.4,0.2,0.7,0.3l0,0
							c0.3,0.1,0.5,0.3,0.7,0.3l-0.1,0.1c0,0.1,0.1,0,0.2,0c0,0.1,0.2,0,0.2,0.1c0.1,0,0.1,0,0.1,0c0.1,0.1,0.2,0.1,0.3,0.1l0,0
							c0,0,0,0,0,0.1c0.1,0,0.2,0.1,0.1,0c0.1,0.1,0.3,0.1,0.4,0.2c0,0,0,0,0.1,0c0.1,0,0.2,0.1,0.3,0.1c0,0,0,0,0,0c0,0,0,0,0,0
							c0.2,0,0.4,0.2,0.5,0.2c0.3,0,0.6,0.1,0.9,0.2l0,0c0.1-0.1,0.2,0.1,0.3,0c0,0,0.1,0,0.1,0.1c0.1,0,0.2,0.1,0.3,0c0,0,0,0,0,0
							c0.1,0.1,0.2,0,0.3,0c0,0,0,0,0,0c0,0,0.1-0.1,0.1,0c0,0,0,0,0,0c0.3,0.1,0.6,0,0.8-0.1c0.2,0,0,0.2,0.2,0.1c0,0,0,0,0,0
							c0.1,0,0.1,0.1,0.1,0c0-0.1,0,0,0-0.1c0.1,0,0.2,0.1,0.2,0l0,0c0.1-0.1,0.2-0.1,0.3-0.2c0.6-0.1,1.2-0.3,1.8-0.5
							c0.1,0,0.2-0.1,0.4-0.1c0.1,0,0.3-0.1,0.2-0.1c0,0,0,0,0,0c0,0,0,0,0,0c0.1,0,0.1,0,0,0c0,0,0,0,0,0c-0.1,0,0,0-0.1,0
							c0,0,0,0,0,0l-0.1,0l-0.1-0.1c-0.1-0.1-0.2-0.1-0.3-0.2c0,0,0.1,0,0,0l-0.1,0l0,0c0,0-0.1,0-0.1,0c-0.6-0.3-1-0.7-1.5-1.1
							c-0.1-0.1-0.3-0.2-0.4-0.3c-0.3-0.4-0.6-0.7-1-1C45.6,62.2,45.7,62.1,45.9,62.2z"/>
						<path fill="#808181" d="M36.4,61.4C36.4,61.4,36.4,61.5,36.4,61.4C36.4,61.4,36.4,61.4,36.4,61.4z"/>
						<path fill="#808181" d="M37.1,62.6C37.1,62.6,37.1,62.7,37.1,62.6C37.1,62.7,37.1,62.7,37.1,62.6
							C37.1,62.7,37.1,62.6,37.1,62.6z"/>
						<path fill="#808181" d="M37.4,62.9c0,0-0.1,0-0.1-0.1L37.4,62.9z"/>
						<path fill="#808181" d="M37.6,63.2C37.6,63.3,37.5,63.3,37.6,63.2C37.5,63.2,37.5,63.2,37.6,63.2z"/>
						<path fill="#808181" d="M37.6,63.2C37.6,63.2,37.6,63.2,37.6,63.2C37.7,63.2,37.6,63.2,37.6,63.2z"/>
						<path fill="#808181" d="M38.1,63.7C38.1,63.7,38.2,63.8,38.1,63.7C38.2,63.8,38.1,63.8,38.1,63.7z"/>
						<path fill="#808181" d="M38.4,63.9C38.4,63.9,38.4,63.9,38.4,63.9C38.5,64,38.4,64,38.4,63.9L38.4,63.9z"/>
						<polygon fill="#808181" points="44.2,66.2 44.2,66.2 44.2,66.2 						"/>
						<path fill="#808181" d="M47,66.1C47,66.1,47,66.1,47,66.1C47,66.1,47,66.1,47,66.1z"/>
						<polygon fill="#808181" points="48.4,65.6 48.4,65.6 48.4,65.6 						"/>
					</g>
				</g>
			</g>
		</g>
	</g>
	<g>
		<path fill="#C0E4F2" d="M20.6,34.5c0,0-11.7,7.1-3.8,16.7c0,0,11.4,12.9,27.8,11c0,0,10.9-1.6,18.1-10.3l5.6-7.1
			c0,0-4.3-6.5-8.3-9.6c0,0-9.7-9.9-24.7-7.3C35.4,27.8,28.3,28.8,20.6,34.5z"/>
		<g>
			<g>
				<g>
					<g>
						<path fill="#808181" d="M20.4,34.8c0.4-0.3-0.3,0.1,0.3-0.2C20.6,34.6,20.6,34.7,20.4,34.8z"/>
						<path fill="#808181" d="M22,33.6c1.3-1,3.2-2,4.7-2.8c0.2-0.1,0,0.1,0.4-0.1c1.5-0.9,4.1-1.8,6.1-2.3l-0.1,0.1
							c0.4-0.1,0.8-0.3,1.3-0.4c0,0-0.1,0.1,0,0c0.1-0.1,0.7-0.2,0.9-0.2c0.2,0,0.2,0,0.4,0l0.2-0.1c0.6-0.2,1.6-0.2,2.5-0.4
							c0,0-0.1,0-0.1,0c0.7-0.1,1.6-0.1,2.4-0.1c0.8,0,1.7,0.1,2.5,0.1c-0.1,0-0.1,0,0,0.1c0.1,0,0.6,0,1,0.1
							c0.2,0.1,0.8,0.1,1.3,0.2l0,0c0.4,0,0.5,0.2,0.9,0.2l0.2,0.1c0.2,0,0.5,0.2,0.8,0.2l0,0c0.3,0,0.4,0.1,0.7,0.2l0,0
							c0.6,0.2,1,0.3,1,0.3c0.2,0.1-0.6-0.2-0.3,0c2.1,0.6,4.1,1.4,5.9,2.5c0.2,0.1,0.3,0.2,0.4,0.3c0.2,0.1,0.7,0.4,0.9,0.5
							c-0.1,0,0.1,0.1,0.2,0.2c0.3,0.2,0.4,0.2,0.7,0.4c-0.2-0.1-0.2-0.1-0.2,0c0.3,0.2,0.7,0.4,1.1,0.7c-0.1,0-0.1-0.1-0.1-0.1
							c0.4,0.2,0.7,0.5,1,0.8l-0.1-0.1c0.5,0.5,0.2,0.1,0.6,0.5c-0.1-0.1-0.1,0-0.1,0c0.5,0.3,1.1,0.9,1.5,1.2c0,0,0,0,0,0
							c0.5,0.4,0.9,0.8,1.4,1.2c0.2,0.2-0.1,0,0.3,0.4c0-0.1,0.7,0.7,0.6,0.4c0.4,0.4,0.9,1,1.1,1.3c-0.2-0.2,0.1,0.3-0.2-0.1L64,39
							c-0.1,0-0.2-0.3-0.2-0.2c0.1,0.2,0.6,0.6,0.7,0.8c0.3,0.3,0.6,0.5,1,1c-0.2-0.2,0,0.2-0.1,0l0.7,0.6c0.1,0.2,0,0.1,0.2,0.3
							c0,0,0.1,0.1,0.2,0.1c0,0.1,0.6,0.7,0.6,0.8c0,0.1-0.2-0.3-0.1-0.1c0.2,0.3,0.3,0.3,0.5,0.7l0,0c0.1,0.2,0.5,0.6,0.3,0.4
							c-0.1-0.2,0,0.1-0.1-0.2c0.1,0.1,0.4,0.5,0.7,0.8c-0.1-0.1-0.1-0.1-0.1-0.1c0.1,0.1,0.2,0.2,0.3,0.4l0.1,0.1
							c0,0,0,0.1-0.1,0.1L68.3,45c-0.2,0.2-0.3,0.5-0.5,0.7c0,0,0.1-0.2,0.2-0.3c-0.5,0.6-0.9,1.3-1.4,1.8c0.1-0.1,0.1,0,0.1,0
							c-0.2,0.3-0.3,0.2-0.4,0.5c0,0-0.2,0.2-0.3,0.5c-0.1,0.1-0.1,0,0.1-0.1c-0.2,0.3-1,1.4-1.6,2c0,0-0.3,0.4-0.4,0.6l0-0.1
							c-0.1,0.1-0.4,0.5-0.4,0.5c-0.2,0.3,0.9-1.2,0.6-0.8c-0.1,0.1-0.4,0.6-0.4,0.5c-0.2,0.3-0.4,0.6-0.7,0.9c0.1-0.1,0.1-0.3,0,0
							c-0.3,0.4-0.1,0.1-0.3,0.5l-0.2,0.2c0,0-0.3,0.4-0.2,0.2c-0.1,0-0.5,0.6-0.5,0.5l0-0.1c-0.2,0.2-0.2,0.3-0.3,0.5
							c0,0-0.1,0.1-0.1,0c0,0.1-0.4,0.4-0.6,0.6c-0.4,0.3-0.9,0.9-1.1,1c-0.3,0.3-0.5,0.5-0.9,0.8c0.1-0.1,0.1-0.1,0.2-0.2
							c-0.2,0.2-0.3,0.2-0.4,0.4c0,0-0.4,0.3-0.7,0.4c-0.3,0.2-0.2,0.2-0.2,0.2c-0.3,0.1-0.8,0.7-1.2,0.8c0.1-0.1,0.4-0.3,0.2-0.2
							c-0.3,0.1-0.5,0.4-1,0.7l0.2,0c-0.2,0.1-0.7,0.5-0.7,0.4c-0.1,0.1-0.6,0.3-0.5,0.3c-0.8,0.4-1.9,1-2.5,1.2
							C52.2,59.9,51.9,60,52,60c0.2-0.1,0.3-0.1,0.3-0.2c-0.1,0-0.1,0.1-0.1,0.1c-0.3,0.1-0.5,0.2-0.2,0c-0.6,0.2-0.5,0.4-1.3,0.6
							c0,0,0,0-0.3,0.1L50,60.9c-0.5,0.2-0.3,0-0.3,0c-0.3,0.1-0.6,0.2-0.7,0.3l-0.3,0.1c0.2,0-0.2,0.1-0.3,0.1l0.1,0
							c-0.1,0-0.4,0.1-0.5,0.2c0,0,0.4-0.1,0.5-0.1c-0.1,0.1-0.3,0.1-0.5,0.2c0-0.1-0.4,0.1-0.6,0.2c-0.2,0.1-0.3,0.1-0.3,0.1
							c0,0-0.4,0.1-0.2,0c0.1,0,0.2,0,0.3-0.1c-0.2,0-0.2,0-0.5,0.1c-0.2,0.1,0.1,0.1-0.4,0.2c0.1,0,0.1-0.1,0.2-0.1L46.1,62l0,0
							c-0.1,0,0,0-0.1,0c-0.1,0.1-0.7,0.2-0.8,0.2c-0.2,0-0.5,0.1-0.7,0.1l0,0c-0.3,0-0.6,0-0.8,0.1l0,0c-0.1,0-0.5,0-0.7,0.1
							c-0.4,0-0.1-0.2-0.5-0.1c-0.4,0-0.6,0.1-0.4,0.1c-0.7,0-1.4,0-2.1-0.1c-0.1,0,0,0-0.2,0c-1,0-2.1-0.1-2.9-0.3c0.3,0,0,0,0-0.1
							c-0.2,0-0.3-0.1-0.4,0c0,0,0,0.1,0.3,0.1c-0.3,0-0.7-0.1-1-0.1c-0.3-0.1-0.6-0.2-0.8-0.2c0.2,0.1,0,0-0.1,0
							c0.1-0.1-0.4-0.2-0.7-0.2l-0.1,0L34,61.6c-0.1,0-0.2,0-0.5-0.1c0,0,0,0-0.1-0.1c-0.3-0.1-0.8-0.2-1.2-0.3L32,61.1
							c-0.2,0-0.4-0.1-0.2,0c-0.6-0.2-1-0.3-1.2-0.5c-1.1-0.3-2.5-0.9-3.6-1.5l0,0c-0.3-0.2-0.2,0-0.4-0.2c0.1,0-0.2-0.2,0-0.1
							c-0.4-0.2-0.6-0.2-0.9-0.4c-0.1,0,0.2,0.1,0.2,0.1c-0.1,0-0.6-0.4-0.7-0.3c-0.1-0.1,0-0.1,0.1-0.1l-0.3-0.1
							c-0.3-0.2,0.8,0.3,0.5,0L25.4,58c-0.2-0.2,0.7,0.3,0.1-0.1c-0.3-0.1-0.5-0.2-0.3,0c-0.5-0.3-0.3,0-0.9-0.4
							c-0.1-0.1,0.5,0.3,0.4,0.2c-0.3-0.2-0.5-0.3-0.8-0.5c0.2,0.2,0,0.1-0.2,0c-0.3-0.2,0.2,0.1-0.2-0.2c-0.1,0-0.5-0.2-0.2,0
							c-0.2,0-0.4-0.3-0.7-0.4c-0.1-0.1,0.5,0.2,0.1-0.1c0,0.1-0.6-0.3-0.4-0.1c-0.2-0.1-0.2-0.2,0-0.1c-0.2-0.2-0.6-0.3-0.7-0.5
							l-0.1,0c-0.1-0.1-0.2-0.1-0.3-0.3c-0.2-0.1-0.7-0.5-0.6-0.5c-0.1,0-0.5-0.4-0.4-0.2c0.3,0.3,0.4,0.2,0.5,0.4
							c-0.2-0.2-0.4-0.3-0.6-0.4l0,0c-0.1-0.1-0.3-0.3-0.4-0.3c0.1,0,0.1,0,0-0.1l-0.1-0.1c-0.4-0.3,0-0.1-0.4-0.5l0.3,0.2
							c-0.1,0-0.2-0.2-0.4-0.3c-0.1,0-0.3-0.1-0.3-0.1c-0.2-0.2-0.1-0.1-0.3-0.3c0.1,0.1,0.2,0.1,0.3,0.2c0.1,0-0.1-0.2-0.4-0.5
							c-0.2-0.2-0.5-0.4-0.2-0.1c-0.1-0.1-0.3-0.3-0.2-0.2c-0.3-0.3,0,0.1-0.3-0.2c-0.1-0.1-0.4-0.5-0.6-0.7l0.3,0.2l-0.2-0.2
							c0.3,0.2-0.1-0.1,0.1-0.1c-0.1-0.1-0.3-0.3-0.4-0.4c0.3,0.5-0.5-0.3-0.4-0.2c-0.4-0.6-0.1-0.5-0.6-1c0.1,0.1-0.2-0.1,0.1,0.2
							c-0.3-0.4-0.2-0.2-0.5-0.7c0.3,0.3-0.2-0.4,0.2,0c0,0,0.2,0.3,0.2,0.3c-0.1-0.2,0.1,0-0.2-0.4c-0.2-0.2-0.3-0.6-0.4-0.5
							c0,0,0.2,0.4,0.1,0.2c-0.3-0.5-0.2-0.6-0.4-0.8c0.2,0.3,0.2,0.4,0.1,0.4l-0.2-0.4l0.1,0.1c-0.3-0.6-0.1-0.1-0.4-0.7l-0.1-0.3
							c0.1,0.1,0.4,0.8,0.4,0.7c-0.2-0.4-0.3-0.5-0.4-0.8c0,0.1,0.1,0.2,0.1,0.3c-0.1-0.1,0-0.3-0.2-0.9c-0.1-0.3-0.1-0.1-0.1-0.1
							c-0.2-0.6-0.3-0.8-0.4-1.3c0.1,0.1-0.1-0.8,0-0.3c0,0.1,0,0.4,0.1,0.7c0.1,0.3,0.2,0.6,0.3,0.7c0-0.3,0.1,0.5,0.3,0.6
							c-0.1-0.5-0.1-0.5,0-0.6c0-0.1-0.1-0.3-0.1-0.4c-0.1,0,0,0.1-0.1,0.2c-0.2-0.6-0.2-1.1-0.3-1.5c0-0.2,0.1-0.1,0.1,0.1
							c-0.1-0.7,0-1.4,0-2.1c-0.1,0.2,0,0,0-0.2c0-0.2,0.1-0.4,0-0.3c-0.1,0.3-0.2,0.7-0.2,0.4c0-0.2,0,0,0.1-0.1
							c0-0.3,0.2-0.4,0.2-0.7c-0.1,0.6,0.1,0.1,0.1,0.3c0.1-0.5,0,0,0.2-0.4c0-0.2,0.1-0.5,0.2-0.7c0.1-0.2,0.2-0.5,0.3-0.7
							c0.1-0.1,0.2-0.3,0.2-0.5c0.1-0.2,0.2-0.3,0.3-0.5c0.2-0.3,0.4-0.7,0.5-0.9c0.2-0.2,0.1,0,0.3-0.3c0.2-0.3-0.2,0.2,0.1-0.3
							l0,0.1c0.1-0.2,0.7-0.8,0.7-1l-0.1,0.2c0.1-0.1,0.1-0.2,0.2-0.2c0,0,0.1-0.1,0,0.1c0.3-0.2,0.5-0.5,0.7-0.8l-0.2,0.1
							c0.4-0.5,0.8-0.7,1.2-1.2l0,0l0.3-0.3c0,0.1,0.2-0.1,0.4-0.2c-0.2,0.2-0.5,0.4-0.7,0.7c-0.2,0.2,0.2-0.2,0-0.2
							c-0.1,0.1-0.6,0.5-0.6,0.5c0.2-0.1,0.2-0.2,0.3-0.3c0.1,0-0.2,0.2-0.3,0.4c0.1-0.1,0.2-0.2,0.2-0.2c-0.1,0.2-0.3,0.3-0.6,0.6
							c0.2-0.2-0.1,0.1-0.1,0c0,0.1-0.2,0.3-0.6,0.6c-0.3,0.2-0.6,0.7-0.9,1.1c0.1-0.2,0.2-0.4,0.4-0.7c-0.2,0.2-0.3,0.3-0.5,0.5
							c-0.1,0.2-0.1,0.3-0.3,0.7l0,0c-0.2,0.3-0.2,0.4-0.4,0.8c-0.5,0.7-0.8,1.6-1,2.2l0,0c0,0.4-0.3,1.2-0.3,1.7
							c-0.2,0.8,0.1,1.8,0,2.2c0,0.4,0.2,0.7,0.3,1c0.1,0.3,0.2,0.7,0.4,1c0.2,0.3,0.3,0.6,0.5,0.9c0.1,0.2,0.2,0.3,0.2,0.5
							c0.1,0.2,0.2,0.3,0.3,0.5l-0.2-0.2c0.2,0.2,0.1,0.2,0.2,0.4c-0.1-0.3,0.3,0.3,0.4,0.4c0.2,0.3,0.4,0.6,0.7,0.9
							c0.3,0.3,0.5,0.5,0.8,0.7l0,0c0.5,0.4,1,0.9,1.6,1.4c0.1,0.1,0.1,0.2,0.3,0.3c0.4,0.2,0.5,0.4,1,0.7c0.3,0.3,0.9,0.7,1.3,1
							c1.4,0.9,2.8,1.9,4.4,2.7l0.1,0.1c0.8,0.3,1.6,0.8,2.4,1.1c0.8,0.3,1.6,0.7,2.3,0.9l-0.2,0c0.4,0.2,1,0.3,0.9,0.2
							c0.4,0.2,1.1,0.3,1.3,0.5c0.4,0.1,0.6,0.1,0.9,0.2c0.9,0.2,1.2,0.3,2.1,0.5l-0.2,0c-0.1,0-0.1,0,0.1,0.1c0.3,0,1.2,0.2,0.9,0
							c0.5,0.1,1,0.2,1.5,0.2c0.5,0,1.1,0,1.5,0.1c-0.1,0,0.2,0,0.2,0c0.4,0,0.8,0,1.2,0.1c0.4,0,0.8,0,1.1-0.1c0.1,0-0.2,0.1,0.1,0
							c0.2,0,0,0,0.2-0.1c0.6-0.1,1.3,0,1.9-0.2c0.6-0.1,1.3-0.2,1.8-0.4c2-0.6,4.1-1.4,6-2.3l0,0c0.6-0.4,1.5-0.7,1.9-1
							c0.1-0.1,0.5-0.3,0.5-0.2c0.4-0.3,1.3-0.8,1.9-1.3c-0.1,0-0.1,0.1-0.2,0.1c0.7-0.4,1.2-0.9,1.9-1.4c-0.1,0.1-0.2,0.2-0.2,0.2
							c0.3-0.2,0.5-0.6,0.7-0.6c0.1-0.1,0.1-0.1,0,0c1.4-1.2,2.7-2.6,3.9-4.2c0.9-1.1,0.2,0,0.8-0.9c0.1-0.1,0-0.1,0-0.1
							c0.2-0.3,0.5-0.5,0.6-0.7c-0.1,0.1,0.1-0.2,0.1-0.2c0.6-0.6,0.7-0.7,1.1-1.3l0,0.1c0.4-0.7,1-1.3,1.3-1.9l0.5-0.6l0.2-0.3
							c0,0,0.1,0,0-0.1l-0.8-1.1c-0.6-0.9-1.3-1.7-1.9-2.5c-1.3-1.6-2.7-3.2-4.2-4.6c-3-2.9-6.4-5.1-10.2-6.7
							c-0.9-0.4-0.9-0.5-2-0.7c0,0,0.1,0,0,0c-0.1,0-0.7-0.2-0.8-0.2c-0.7-0.2-1.5-0.4-2.2-0.5c-0.7-0.2-1.5-0.2-2.3-0.3
							c0.2,0,0.4,0,0.1,0l-0.3,0l0,0c-0.2,0-0.4,0-0.2,0c-2-0.1-4-0.2-5.9,0.1c-2,0.2-3.9,0.6-5.7,1.2c-0.9,0.3-2.1,0.8-3,1.2
							c-2.8,1.1-5.2,2.5-7.6,4.3C20.8,34.7,21,34.3,22,33.6z"/>
						<path fill="#808181" d="M19.9,35.1c-0.1,0-0.4,0.2-0.2,0C19.8,35.1,19.9,35.1,19.9,35.1z"/>
						<path fill="#808181" d="M14.1,42.3c0,0,0,0.1-0.1,0.2c0-0.1,0-0.2,0.1-0.3C14.1,42.3,14.1,42.3,14.1,42.3z"/>
						<path fill="#808181" d="M13.8,44.8c-0.1,0-0.1-0.6,0-0.9C13.8,44.2,13.8,44.5,13.8,44.8z"/>
						<path fill="#808181" d="M14.1,47c0,0.2,0,0.2-0.1-0.1C14.1,46.9,14.1,47,14.1,47z"/>
						<path fill="#808181" d="M14.2,47.2c0.1,0.2,0.1,0.3,0.1,0.4C14.3,47.5,14.2,47.1,14.2,47.2z"/>
						<path fill="#808181" d="M16.6,51.5c0.1,0.1,0.3,0.3,0.3,0.4C16.9,51.8,16.5,51.5,16.6,51.5z"/>
						<path fill="#808181" d="M18.3,53.1c0.1,0.1,0.1,0.1,0.1,0.1C18.5,53.3,18.4,53.2,18.3,53.1L18.3,53.1z"/>
						<polygon fill="#808181" points="56.3,57.7 56.1,57.9 56.1,57.8 						"/>
						<path fill="#808181" d="M68.5,44.5c-0.2-0.3-0.1-0.2-0.1-0.3C68.5,44.5,68.3,44.2,68.5,44.5z"/>
						<polygon fill="#808181" points="62.3,37 62.3,37 62.3,37 						"/>
					</g>
				</g>
			</g>
		</g>
	</g>
	<g>
		<path fill="#8CA3A8" d="M79.4,28.7c0,0-15.3,2.8-10.8,16C68.6,44.7,80.8,44.4,79.4,28.7z"/>
		<g>
			<g>
				<g>
					<g>
						<path fill="#808181" d="M79.3,28.8C79.4,28.8,79.2,28.8,79.3,28.8C79.4,28.8,79.3,28.8,79.3,28.8z"/>
						<path fill="#808181" d="M79.3,29.2c0.2,0.5,0,1.2,0.2,1.8c0,0.1-0.1,0-0.1,0.1c0.1,0.6,0,1.4-0.2,2.1l0,0c0,0.1,0,0.3,0,0.4
							c0,0,0,0,0,0c0,0,0,0.2,0,0.3c0,0.1-0.1,0-0.1,0.1l0,0.1c0.1,0.2-0.1,0.5-0.1,0.8c0,0,0,0,0,0c0,0.5-0.1,1.1-0.3,1.6
							c0,0,0-0.1-0.1,0c0,0,0,0.2,0,0.3c-0.1,0,0,0.2-0.1,0.4l0,0c0,0.1-0.1,0.2-0.1,0.3l-0.1,0.1c0.1,0.1-0.1,0.2-0.1,0.3l0,0
							c0,0.1-0.1,0.1-0.1,0.2l0,0c-0.1,0.2-0.2,0.3-0.1,0.3c-0.1,0,0.1-0.2,0-0.1c-0.3,0.6-0.6,1.3-1,1.8C77,40,77,40.1,77,40.1
							c0,0.1-0.1,0.2-0.2,0.3c0,0-0.1,0-0.1,0c-0.1,0.1,0,0.2-0.1,0.3c0-0.1,0-0.1,0-0.1c0,0.1-0.2,0.2-0.2,0.3c0,0,0-0.1,0-0.1
							c-0.1,0.1-0.2,0.2-0.3,0.3l0-0.1c-0.2,0.1,0,0.1-0.1,0.2c0,0,0,0,0-0.1c-0.1,0.2-0.3,0.4-0.4,0.5c0,0,0,0,0,0
							c-0.1,0.1-0.3,0.2-0.5,0.4c-0.1,0,0-0.1-0.2,0.1c0.1,0.1-0.2,0.2-0.1,0.2c-0.1,0.1-0.4,0.2-0.5,0.3c0-0.1-0.1,0,0-0.1l-0.1,0
							c0,0,0.1,0,0-0.1c-0.1,0-0.2,0.2-0.3,0.2c-0.1,0.1-0.1,0.2-0.3,0.4c0.1-0.1-0.1,0,0-0.1l-0.2,0.3c-0.1,0,0,0-0.1,0
							c0,0,0,0,0,0.1c0,0-0.3,0.1-0.3,0.1c0,0,0.1-0.1,0-0.1c-0.1,0.1-0.1,0.1-0.2,0.1l0,0c-0.1,0-0.2,0.1-0.1,0.1c0.1,0,0,0,0.1,0
							c0,0.1-0.2,0.1-0.3,0.2c0,0,0,0,0-0.1C72.3,44,72.2,44,72,44.1c0,0,0-0.1,0.1-0.1c-0.3,0-0.5,0.2-0.7,0.3c0,0,0,0,0,0
							c-0.1,0-0.1,0-0.2,0c0,0-0.1,0-0.2,0.1c0,0,0,0,0,0c-0.1,0-0.5,0.2-0.8,0.2c0,0-0.1,0.1-0.2,0.1l0,0c-0.1,0-0.2,0-0.2,0
							c-0.1,0.1,0.5-0.1,0.3-0.1c-0.1,0-0.2,0.1-0.2,0.1c-0.1,0-0.2,0.1-0.4,0.1c0,0,0.1-0.1,0-0.1c-0.2,0,0,0-0.2,0.1l-0.1,0
							c0,0-0.2,0-0.1,0.1c0,0-0.3,0.1-0.2,0l0-0.1c-0.1,0-0.1,0.1-0.2,0.1c0,0,0,0,0,0c0,0.1-0.3,0-0.4,0.1
							c-0.1-0.3-0.2-0.6-0.1-0.6c-0.1-0.1-0.1-0.2-0.1-0.3c0,0,0,0.1,0,0.1c0-0.1,0-0.1-0.1-0.2c0,0,0-0.2,0-0.3
							C68,43.4,68,43.5,68,43.5c0.1-0.1-0.1-0.3-0.1-0.5c0,0,0.1,0.2,0.1,0.1c0.1-0.1-0.1-0.2-0.1-0.4l-0.1,0.1c0-0.1-0.1-0.2,0-0.2
							c0-0.1,0-0.2-0.1-0.2c0-0.3-0.1-0.7,0-0.9c0,0,0-0.1-0.1-0.1c0,0.1,0,0.1,0,0.1c0,0,0,0,0,0c0-0.1,0-0.2,0.1-0.1
							c0-0.2-0.1-0.2-0.1-0.5c0,0,0,0,0-0.1l-0.1-0.1c0-0.2,0.1-0.1,0.1-0.1c0-0.1,0-0.2-0.1-0.2l0.1-0.1c0,0.1,0-0.1,0-0.1l0,0
							c0,0,0-0.1,0-0.2c0,0,0,0.1-0.1,0.2c0,0,0-0.1,0-0.2c0,0,0-0.1,0-0.2c0-0.1,0-0.1,0-0.1c0,0,0-0.1,0-0.1c0,0,0,0.1,0,0.1
							c0-0.1,0.1,0,0-0.2c0-0.1-0.1,0-0.1-0.1c0,0,0,0.1,0,0.1l0-0.1l0,0c0,0,0,0,0,0c0,0,0-0.2,0-0.3c0-0.1,0.1-0.2,0.1-0.2l0,0
							c0-0.1,0-0.2,0-0.3l0,0c0,0,0-0.2,0-0.2c0.1-0.1,0.2,0,0.1-0.2c0-0.1,0-0.2-0.1-0.2c0.1-0.2,0.1-0.5,0.2-0.7c0,0,0,0,0-0.1
							c0.1-0.3,0.1-0.7,0.3-0.9c0,0.1,0,0,0.1,0c0-0.1,0.1-0.1,0-0.1c0,0-0.1,0-0.1,0.1c0.1-0.2,0.2-0.5,0.3-0.5c0,0,0,0,0,0
							c0,0,0.1-0.1,0.2-0.2l0,0l0.1,0c0,0,0-0.1,0-0.2c0,0,0,0,0.1,0c0-0.1,0.1-0.3,0.1-0.4l0.1-0.1c0,0,0-0.1,0-0.1
							c0.1-0.2,0.2-0.3,0.3-0.3c0.1-0.4,0.4-0.8,0.7-1.1l0,0c0.1-0.1,0-0.1,0.1-0.1c0,0,0.1,0,0.1,0.1c0.1-0.1,0.1-0.2,0.2-0.3
							c0,0,0,0.1-0.1,0c0,0,0.2-0.1,0.1-0.2c0,0,0.1,0,0.1,0.1l0.1-0.1c0.1,0-0.1,0.3,0,0.2l0.1-0.1c0.1,0-0.1,0.2,0.1,0.1
							c0-0.1,0.1-0.2,0-0.2c0.1-0.2,0-0.2,0.1-0.3c0.1,0-0.1,0.1-0.1,0.1c0.1,0,0.1-0.2,0.2-0.2c-0.1,0.1-0.1,0,0-0.1
							c0.1-0.1,0,0.1,0.1,0c0,0,0.1-0.2,0-0.1c0-0.1,0.1-0.1,0.2-0.2c0.1,0,0,0.2,0.1,0.1c-0.1,0,0.1-0.2,0-0.2c0.1,0,0.1,0,0.1,0
							c0.1,0,0.1-0.2,0.2-0.2l0-0.1c0,0,0.1,0,0.1,0c0.1-0.1,0.2-0.2,0.2-0.2c0,0,0.2-0.1,0.1-0.1c-0.1,0-0.1,0.1-0.2,0.1
							c0.1,0,0.1-0.1,0.2-0.2l0,0c0,0,0.1-0.1,0.1-0.1c0,0,0,0,0,0l0-0.1c0.1-0.1,0.1,0,0.2-0.1l-0.1,0.1c0,0,0.1,0,0.1-0.1
							c0-0.1,0-0.1,0-0.2c0.1-0.1,0.1,0,0.1-0.1l-0.1,0.1c0,0,0.1,0,0.2-0.1c0.1-0.1,0.1-0.2,0-0.1c0.1,0,0.1-0.1,0.1,0
							c0.1-0.1,0,0,0.1-0.1c0.1,0,0.2-0.1,0.3-0.1L73,31l0.1,0c-0.1,0.1,0.1,0,0,0.1c0.1,0,0.1-0.1,0.1-0.1c-0.2,0,0.1-0.2,0-0.3
							c0.2-0.1,0.2,0.1,0.4-0.1c0,0,0-0.1-0.1,0c0.1-0.1,0-0.1,0.2-0.2c-0.1,0.1,0.2,0,0,0.1c0,0-0.1,0-0.1,0.1c0.1,0,0,0.1,0.2,0
							c0.1-0.1,0.2-0.1,0.1-0.1c0,0-0.1,0.1-0.1,0c0.1-0.1,0.2,0,0.2-0.2c-0.1,0.1-0.1,0-0.2,0l0.1-0.1l0,0c0.2-0.1,0-0.1,0.2-0.2
							l0.1,0c0,0.1-0.3,0.1-0.2,0.2c0.1-0.1,0.1-0.1,0.3-0.2c0,0,0,0-0.1,0.1c0,0,0.1,0.1,0.3-0.1c0.1-0.1,0,0,0-0.1
							c0.2-0.1,0.2-0.2,0.4-0.2c0,0.1,0.2-0.1,0.1,0c-0.1,0-0.4,0.1-0.4,0.2c0.1,0-0.2,0.1-0.2,0.2c0.2-0.1,0.2,0,0.2,0
							c0,0,0.1-0.1,0.1-0.1c0-0.1-0.1,0-0.1-0.1c0.2-0.1,0.3-0.2,0.4-0.3c0.1,0,0.1,0,0,0.1c0.2-0.1,0.4-0.2,0.6-0.3
							c-0.2,0,0.2-0.1,0.1-0.1c-0.1,0-0.2,0-0.2,0c0.1,0,0,0,0,0c0.1-0.1,0.2,0,0.2-0.1c-0.2,0.1,0,0.1,0,0.2c0.1-0.1,0,0,0.1,0
							c0.1-0.1,0.3-0.2,0.4-0.2c0.2,0,0.5-0.2,0.7-0.2c0.1,0,0.1,0.1,0.2,0.1c0.1,0-0.1,0,0.1-0.1l0,0c0,0,0.3-0.1,0.4-0.2l0,0.1
							c0,0,0.1,0,0.1,0c0,0,0.1,0,0,0.1c0.1,0,0.2-0.1,0.3-0.1l-0.1,0c0.2-0.1,0.3-0.1,0.5-0.1l0,0l0.1-0.1c0,0,0.1,0,0.1,0
							l-0.3,0.2c-0.1,0,0.1-0.1,0-0.1c-0.1,0-0.2,0-0.2,0.1c0.1,0,0.1,0,0.1-0.1c0,0.1-0.1,0.1-0.1,0.1c0,0,0.1,0,0.1,0
							c-0.1,0-0.1,0.1-0.2,0.1c0.1,0-0.1,0,0,0c0,0.1-0.1,0.1-0.2,0.1c-0.1,0-0.3,0.1-0.4,0.2c0.1-0.1,0.1-0.1,0.2-0.2
							c-0.1,0-0.1,0-0.2,0c0,0.1-0.1,0.1-0.2,0.2l0,0c-0.1,0.1-0.1,0.1-0.3,0.2c-0.3,0.1-0.5,0.2-0.7,0.2l0,0
							c-0.1,0.1-0.4,0.2-0.5,0.3c-0.3,0.1-0.5,0.3-0.7,0.3c-0.4,0.2-0.8,0.4-1.2,0.7l0-0.1c-0.1,0.1-0.1,0-0.1,0
							c0.1,0-0.1,0.1-0.1,0.2c-0.2,0.1-0.4,0.3-0.6,0.4l0,0c-0.1,0.2-0.4,0.2-0.6,0.4c0,0-0.1,0-0.1,0c-0.1,0.1-0.1,0.2-0.3,0.3
							c-0.1,0.1-0.3,0.2-0.4,0.3c-0.4,0.4-0.8,0.7-1.1,1.2l-0.1,0c-0.3,0.5-0.8,0.9-1,1.3l0-0.1c-0.1,0.1-0.2,0.3-0.1,0.3
							c-0.1,0.1-0.2,0.3-0.3,0.4c-0.1,0.1-0.1,0.2-0.1,0.3c-0.2,0.2-0.2,0.3-0.3,0.6l0-0.1c0,0,0-0.1-0.1,0c0,0.1-0.2,0.3,0,0.3
							c-0.2,0.2-0.2,0.7-0.3,0.9c0,0,0,0.1,0,0.1c-0.1,0.2-0.2,0.5-0.2,0.7c0,0,0-0.1-0.1,0c0,0.1,0,0,0,0.1c0,0.4-0.2,0.8-0.2,1.2
							c0,0.7,0,1.4,0.1,2l0,0c0.1,0.2,0,0.5,0.1,0.7c0,0.1,0,0.2,0,0.2c0.1,0.2,0.1,0.5,0.2,0.7c0,0,0,0,0-0.1
							c0,0.3,0.1,0.5,0.2,0.7c0,0,0-0.1-0.1-0.1c0,0.1,0.1,0.2,0.1,0.3c0,0.1,0.1,0,0,0c0,0.1,0.1,0.2,0.1,0.3c0,0.1,0.1,0,0.1,0
							c0.3,0,0.6-0.1,0.9-0.2c0.4,0,0.1,0.1,0.4,0c0,0,0,0,0,0c0.1-0.1,0.2,0.1,0.3,0c-0.1,0,0.1,0,0-0.1c0.3,0,0.3,0,0.5-0.1l0,0
							c0.2-0.1,0.5-0.2,0.7-0.4c1.3-0.5,2.4-1.2,3.4-2c1-0.8,1.8-1.9,2.4-3c0.2-0.2,0.2-0.3,0.3-0.6c0,0,0,0,0,0
							c0,0,0.1-0.2,0.1-0.3c0.2-0.4,0.3-0.9,0.5-1.4c0,0.1,0,0.1,0,0l0-0.1l0,0c0-0.1,0-0.1,0-0.1c0.3-1.2,0.6-2.4,0.7-3.7
							c0-0.3,0.1-0.7,0.1-1c0.1-1,0.1-1.8,0-2.8C79.1,28.7,79.3,28.8,79.3,29.2z"/>
						<path fill="#808181" d="M79.1,28.9C79.1,28.8,78.9,28.8,79.1,28.9C79,28.8,79.1,28.8,79.1,28.9z"/>
						<path fill="#808181" d="M76.1,29.4C76.1,29.5,76.1,29.4,76.1,29.4C76.1,29.4,76.1,29.4,76.1,29.4
							C76.1,29.4,76.1,29.4,76.1,29.4z"/>
						<path fill="#808181" d="M75.4,29.7c0,0,0.1-0.1,0.2-0.2L75.4,29.7z"/>
						<path fill="#808181" d="M74.7,29.9C74.6,29.9,74.6,29.9,74.7,29.9C74.7,29.9,74.7,29.9,74.7,29.9z"/>
						<path fill="#808181" d="M74.6,30c-0.1,0-0.1,0-0.1,0C74.5,30.1,74.6,30,74.6,30z"/>
						<path fill="#808181" d="M73.2,30.7c0,0-0.1,0.1-0.1,0.1C73.1,30.8,73.2,30.6,73.2,30.7z"/>
						<path fill="#808181" d="M72.6,31.1C72.6,31.1,72.6,31.1,72.6,31.1C72.5,31.2,72.5,31.1,72.6,31.1L72.6,31.1z"/>
						<polygon fill="#808181" points="67.8,42.9 67.8,42.8 67.8,42.8 						"/>
						<path fill="#808181" d="M72.4,44C72.5,43.9,72.5,44,72.4,44C72.4,44,72.5,43.9,72.4,44z"/>
						<polygon fill="#808181" points="75,42.2 75,42.3 75,42.2 						"/>
					</g>
				</g>
			</g>
		</g>
	</g>
	<g>
		<path fill="#8CA3A8" d="M79.4,60.7c0,0-15.3-2.8-10.8-16C68.6,44.7,80.8,44.9,79.4,60.7z"/>
		<g>
			<g>
				<g>
					<g>
						<path fill="#808181" d="M79.2,60.8c0.2,0-0.1-0.1,0.1,0C79.3,60.8,79.3,60.8,79.2,60.8z"/>
						<path fill="#808181" d="M79.5,60.2c-0.1-0.5,0.1-1.2,0-1.8c0-0.1,0.1,0,0.1-0.1c-0.1-0.6-0.1-1.4-0.1-2.1l0,0
							c0-0.1-0.1-0.3-0.1-0.4c0,0,0,0,0,0c0,0,0-0.2-0.1-0.3c0-0.1,0-0.1,0.1-0.1l-0.1-0.1c-0.2-0.2-0.1-0.5-0.2-0.8c0,0,0,0,0,0
							c-0.2-0.4-0.2-1-0.5-1.5c0,0,0.1,0,0.1,0c-0.1,0-0.1-0.2-0.2-0.3c0-0.1-0.1-0.2-0.2-0.4l0,0c-0.1-0.1,0-0.2-0.1-0.3l0-0.1
							c-0.1,0,0-0.2-0.1-0.3l0,0c0-0.1,0-0.1-0.1-0.2l0,0c-0.1-0.2-0.1-0.3-0.2-0.3c0-0.1,0.1,0.2,0.1,0c-0.4-0.6-0.6-1.2-1.1-1.8
							c0-0.1,0-0.1,0-0.2c-0.1,0-0.2-0.2-0.2-0.2c0,0,0-0.1,0-0.1c-0.1-0.1-0.1-0.1-0.2-0.2c0,0,0.1,0,0.1,0
							c-0.1-0.1-0.2-0.2-0.3-0.3c0,0,0.1,0,0.1,0c-0.1-0.1-0.2-0.2-0.3-0.3l0.1,0c-0.1-0.2-0.1,0-0.2-0.1c0,0,0,0,0.1,0
							c-0.2-0.1-0.3-0.3-0.5-0.4c0,0,0,0,0,0c-0.2-0.1-0.3-0.3-0.5-0.4c0-0.1,0.1-0.1-0.1-0.2c0,0.1-0.3-0.2-0.2-0.1
							c-0.1-0.1-0.3-0.3-0.4-0.3c0.1,0,0-0.1,0.1,0l-0.1-0.1c0,0,0.1,0.1,0.1,0c-0.1,0-0.3-0.1-0.3-0.2c-0.1,0-0.3,0-0.5-0.1
							c0.1,0,0-0.1,0.1-0.1l-0.3,0c-0.1,0,0-0.1-0.1-0.1c0,0,0,0-0.1,0c0,0-0.3-0.1-0.3-0.2c0,0,0.1,0,0.1,0c-0.1-0.1-0.1,0-0.3-0.1
							l0,0c-0.1,0-0.2-0.1-0.2,0c0.1,0,0,0,0.1,0c-0.1,0-0.2,0-0.3-0.1c0,0,0,0,0.1,0c-0.2,0-0.4-0.1-0.5-0.1c0,0,0.1,0,0.1,0
							c-0.2-0.1-0.5-0.1-0.7-0.2c0,0,0,0.1,0,0c-0.1,0-0.1-0.1-0.2-0.1c0,0-0.1,0-0.2,0c0,0,0,0,0.1,0c-0.1,0-0.6-0.1-0.8-0.2
							c0,0-0.2,0-0.2,0l0,0c0,0-0.2,0-0.2-0.1c-0.1,0,0.5,0.1,0.3,0.1c0,0-0.2,0-0.2,0c-0.1,0-0.2,0-0.3-0.1c0,0,0.1,0,0-0.1
							c-0.2,0-0.1,0-0.2,0l-0.1,0c0,0-0.1,0-0.1,0c0,0-0.2,0-0.2-0.1l0-0.1c-0.1,0-0.1,0-0.2,0.1c0,0,0,0,0,0c0,0.1-0.1,0-0.1,0.1
							c0,0-0.1,0.2-0.1,0.3c0,0.1,0,0.2-0.1,0.4c0,0,0-0.1,0-0.1c0,0.1,0,0.1,0,0.2c0,0-0.1,0.1-0.2,0.2c0,0.1,0.1,0.1,0.1,0.1
							c-0.1,0.1,0,0.3-0.1,0.4c0,0,0-0.2,0-0.1c-0.1,0.1,0,0.2-0.1,0.4l0.1,0c-0.1,0.1,0,0.3-0.1,0.2c0,0.1-0.1,0.2,0,0.2
							c-0.1,0.3-0.1,0.7-0.2,0.8c0,0,0,0.1,0,0.1c0-0.1,0-0.1,0-0.1c0,0,0,0,0,0.1c0,0.1,0,0.2-0.1,0.1c-0.1,0.2,0.1,0.2,0.1,0.5
							c0,0,0,0,0,0.1l0,0.1c0,0.2-0.1,0.1-0.1,0.1c0,0.1,0,0.2,0,0.2l-0.1,0.1c0-0.1,0,0.1,0,0.1l0,0c0,0,0,0.1,0,0.2
							c0,0,0-0.1,0-0.2c0,0,0,0.1,0,0.2c0,0,0,0.1,0,0.2c0,0.1,0,0.1,0,0.1c0,0,0,0.1,0,0.1c0,0,0-0.1,0-0.1c0,0.1-0.1,0,0,0.2
							c0,0.1,0.1,0,0.1,0.1c0,0,0,0-0.1-0.1l0,0.1l0,0c0,0,0,0,0,0c0,0,0,0.2,0.1,0.2c0,0.1,0,0.2,0,0.2l0,0c0,0.1,0,0.2,0.1,0.3
							l0,0c0,0,0,0.2,0.1,0.2c0,0.1-0.2,0.1-0.1,0.2c0,0.1,0.1,0.2,0.1,0.1c0,0.2,0.1,0.4,0.1,0.6c0,0,0,0,0.1,0.1
							c0.1,0.3,0.2,0.6,0.3,0.9c-0.1-0.1,0,0-0.1,0c0.1,0.1,0,0.1,0.1,0.1c0,0,0.1,0,0-0.1c0.1,0.2,0.2,0.4,0.2,0.5c0-0.1,0,0,0,0
							c-0.1,0,0,0.1,0.1,0.2l0,0l0,0.1c0,0,0.1,0,0.1,0.1c0,0,0,0,0,0c0.1,0.1,0.2,0.2,0.2,0.3l0,0.1c0,0,0.1,0.1,0.1,0
							c0.1,0.2,0.1,0.3,0.1,0.4c0.3,0.2,0.6,0.6,0.8,0.9l0,0c0.1,0.1,0.1,0,0.1,0.1c0,0,0,0.1-0.1,0.1c0.1,0.1,0.2,0.1,0.2,0.2
							c0,0-0.1,0,0-0.1c0,0,0.1,0.2,0.2,0.2c0,0,0,0.1-0.1,0.1l0.1,0c0,0.1-0.3-0.1-0.2,0l0.1,0.1c0,0.1-0.2-0.1-0.1,0.1
							c0.1,0,0.2,0,0.2,0c0.2,0.1,0.2,0,0.3,0.1c0,0.1-0.1-0.1-0.1,0c0,0.1,0.2,0.1,0.2,0.2c-0.1-0.1,0-0.1,0.1,0
							c0.1,0.1-0.1,0,0,0.1c0,0,0.2,0.1,0.1,0c0.1,0,0.1,0.1,0.2,0.1c0,0.1-0.2,0-0.1,0.1c0-0.1,0.2,0.1,0.2,0c0,0.1,0,0.1,0,0.1
							c0.1,0.1,0.2,0.1,0.2,0.2l0.1,0c0,0,0,0.1,0.1,0.1c0.1,0.1,0.3,0.1,0.2,0.2c0,0,0.2,0.1,0.1,0c-0.1-0.1-0.1,0-0.1-0.1
							c0,0.1,0.1,0.1,0.2,0.1l0,0c0,0,0.1,0.1,0.1,0.1c0,0,0,0,0,0l0.1,0c0.1,0.1,0,0.1,0.1,0.2l-0.1,0c0,0,0,0.1,0.1,0.1
							c0,0,0.1,0,0.2,0c0.1,0,0,0.1,0.1,0.1l-0.1,0c0,0,0,0.1,0.1,0.2c0.1,0,0.2,0,0.1,0c0,0,0.1,0.1,0,0.1c0.1,0.1,0,0,0.1,0
							c0,0,0.1,0.2,0.2,0.2l-0.1,0l0.1,0c-0.1,0,0,0.1-0.1,0.1c0,0,0.1,0.1,0.2,0.1c-0.1-0.2,0.2,0,0.2-0.1c0.2,0.1,0,0.2,0.3,0.2
							c0,0,0.1,0,0-0.1c0.1,0.1,0.1,0,0.2,0.1c-0.1,0,0.1,0.1-0.1,0.1c0,0-0.1-0.1-0.1-0.1c0,0.1-0.1,0.1,0.1,0.1
							c0.1,0,0.2,0.1,0.2,0c0,0-0.1-0.1,0-0.1c0.2,0.1,0.2,0.1,0.3,0.1c-0.1,0-0.1-0.1-0.1-0.1l0.1,0l0,0c0.2,0.1,0.1,0,0.3,0.1
							l0.1,0.1c-0.1,0-0.2-0.2-0.3-0.1c0.1,0.1,0.2,0,0.3,0.1c0,0-0.1,0-0.1,0c0,0,0,0.2,0.2,0.2c0.1,0,0,0,0.1,0
							c0.2,0.1,0.3,0.1,0.4,0.1c-0.1,0,0.2,0.1,0,0.1c0-0.1-0.3-0.2-0.4-0.2c0,0.1-0.1-0.1-0.2,0c0.1,0.1,0.1,0.1,0.1,0.2
							c0,0,0.1,0,0.1,0c0,0,0-0.1,0-0.1c0.2,0.1,0.3,0.1,0.4,0.1c0,0,0,0.1-0.1,0.1c0.2,0.1,0.4,0.2,0.6,0.3c-0.1-0.1,0.2,0.1,0.2,0
							C76,59.4,76,59.3,76,59.3c0.1,0,0,0,0,0.1c0.1,0,0.1,0.1,0.2,0.1c-0.2,0-0.1,0.1-0.1,0.1c0.1,0,0,0,0.1,0.1
							c0.1,0,0.3,0.1,0.5,0.1c0.2,0.1,0.5,0.2,0.7,0.2c0.1,0.1,0,0.1,0.1,0.1c0.1,0-0.1-0.1,0.1,0l0,0c0.1,0,0.3,0.1,0.4,0.1
							l-0.1,0.1c0,0,0.1,0,0.1,0c0,0,0,0.1,0,0.1c0.1,0.1,0.2,0.1,0.3,0.1l-0.1-0.1c0.2,0,0.3,0.1,0.5,0.1l0,0l0.1,0
							c0,0,0.1,0.1,0.1,0.1l-0.3,0c-0.1,0,0.1,0,0.1-0.1c0,0-0.2-0.1-0.3,0c0.1,0,0.1,0,0.1,0c0,0.1-0.1,0-0.2,0.1c0,0,0.1,0,0.1,0
							c-0.1,0-0.2,0-0.3,0c0.1,0,0,0,0-0.1c0,0-0.1,0-0.3,0c-0.1-0.1-0.3,0-0.4-0.1c0.1,0,0.2,0,0.3,0c-0.1-0.1-0.1,0-0.2-0.1
							c-0.1,0-0.1,0.1-0.3,0l0,0c-0.1,0-0.1,0-0.3,0c-0.3-0.1-0.5-0.2-0.7-0.3l0,0c-0.1,0-0.4-0.1-0.5-0.1c-0.2-0.1-0.6-0.2-0.7-0.3
							c-0.5-0.2-0.8-0.3-1.3-0.6l0.1,0c-0.1,0,0-0.1-0.1-0.1c0.1,0.1-0.1,0-0.2,0c-0.2-0.1-0.4-0.3-0.6-0.3l0,0
							c-0.2,0-0.4-0.2-0.6-0.4c0,0,0-0.1-0.1-0.1c-0.2,0-0.2-0.1-0.4-0.2c-0.1-0.1-0.3-0.2-0.4-0.4c-0.5-0.3-0.9-0.7-1.3-1.1l0-0.1
							c-0.5-0.3-0.8-0.9-1.1-1.3l0.1,0c-0.1-0.1-0.2-0.3-0.2-0.2c-0.1-0.1-0.2-0.3-0.2-0.4c-0.1-0.1-0.1-0.1-0.2-0.3
							c-0.1-0.3-0.2-0.4-0.3-0.7l0,0.1c0,0,0.1,0,0-0.1c-0.1-0.1-0.1-0.4-0.2-0.2c-0.1-0.3-0.3-0.7-0.3-1c0,0,0,0-0.1-0.1
							c-0.1-0.3-0.1-0.6-0.2-0.8c0,0,0.1,0.1,0,0c0-0.1,0,0-0.1-0.1c-0.1-0.4-0.1-0.9-0.1-1.3c-0.1-0.7,0-1.5,0.1-2.1l0,0
							c0-0.2,0.1-0.5,0.1-0.7c0,0,0.1-0.2,0.1-0.2c0-0.2,0.2-0.5,0.1-0.8c0,0,0,0,0,0.1c0.1-0.2,0.1-0.5,0.2-0.7c0,0,0,0.1,0,0.1
							c0.1-0.1,0-0.3,0.1-0.3c0-0.1,0-0.1,0,0l0.1-0.2l0.1-0.3l0.1-0.2c0,0,0.1,0,0.2,0l0.4,0c0.3,0,0.6,0,1,0.1
							c0.4,0.1,0,0.2,0.4,0.2c0,0,0,0,0,0c0.1,0,0.2,0.1,0.3,0.1c0-0.1,0.1,0,0.1,0c0.3,0.1,0.3,0.2,0.5,0.2l0,0
							c0.3,0,0.5,0.1,0.8,0.1c1.3,0.5,2.6,1.1,3.7,2c1,0.9,1.9,2,2.5,3.3c0.1,0.3,0.1,0.3,0.3,0.7c0,0,0,0,0,0
							c0.1,0,0.1,0.2,0.2,0.2c0.2,0.5,0.3,0.9,0.5,1.4c0-0.1-0.1-0.1-0.1,0l0.1,0.1l0,0c0,0.1,0.1,0.1,0.1,0.1
							c0.4,1.3,0.5,2.6,0.6,3.9c0,0.3,0,0.7,0.1,1.1c-0.1,1-0.2,1.9-0.2,2.9C79.6,60.7,79.5,60.6,79.5,60.2z"/>
						<path fill="#808181" d="M79,60.7c0,0-0.1-0.1,0-0.1C79,60.7,79.1,60.7,79,60.7z"/>
						<path fill="#808181" d="M76.3,59.5C76.3,59.5,76.2,59.5,76.3,59.5C76.3,59.5,76.3,59.5,76.3,59.5
							C76.3,59.5,76.3,59.5,76.3,59.5z"/>
						<path fill="#808181" d="M75.6,59.2c0,0,0.2,0,0.3,0.1L75.6,59.2z"/>
						<path fill="#808181" d="M75,58.8C74.9,58.8,74.9,58.8,75,58.8C75,58.8,75,58.8,75,58.8z"/>
						<path fill="#808181" d="M74.9,58.9C74.8,58.8,74.8,58.8,74.9,58.9C74.8,58.8,74.9,58.8,74.9,58.9z"/>
						<path fill="#808181" d="M73.6,58.1c0,0-0.1,0-0.1-0.1C73.5,58,73.6,58,73.6,58.1z"/>
						<path fill="#808181" d="M73,57.7C72.9,57.7,72.9,57.7,73,57.7C72.9,57.6,72.9,57.6,73,57.7L73,57.7z"/>
						<polygon fill="#808181" points="68.3,46.6 68.3,46.7 68.2,46.7 						"/>
						<path fill="#808181" d="M72.2,45.8C72.3,45.8,72.3,45.8,72.2,45.8C72.2,45.8,72.3,45.8,72.2,45.8z"/>
						<polygon fill="#808181" points="75,47.2 74.9,47.2 75,47.2 						"/>
					</g>
				</g>
			</g>
		</g>
	</g>
	<g>
		<g>
			<g>
				<g>
					<g>
						<path fill="#808181" d="M30.8,55C30.8,55.1,30.9,55.1,30.8,55L30.8,55L30.8,55z"/>
						<path fill="#808181" d="M31.1,54.9c0-0.1,0-0.1-0.1-0.1C31,54.8,31,54.8,31.1,54.9c-0.1,0.1-0.1,0.1-0.1,0c0,0,0,0,0,0.1
							C31,55,31.1,54.9,31.1,54.9C31.1,54.8,31.1,54.9,31.1,54.9z"/>
						<path fill="#808181" d="M33.4,51.5L33.4,51.5C33.3,51.5,33.4,51.5,33.4,51.5z"/>
						<path fill="#808181" d="M34.6,49.2C34.6,49.2,34.6,49.2,34.6,49.2C34.6,49.2,34.6,49.2,34.6,49.2z"/>
						<path fill="#808181" d="M34.8,48.8C34.8,48.9,34.8,48.9,34.8,48.8C34.8,48.9,34.8,48.9,34.8,48.8z"/>
						<path fill="#808181" d="M33.4,51.5L33.4,51.5C33.4,51.4,33.4,51.4,33.4,51.5z"/>
						<path fill="#808181" d="M31.3,54.3C31.3,54.3,31.3,54.3,31.3,54.3L31.3,54.3L31.3,54.3z"/>
						<polygon fill="#808181" points="32.9,52.5 32.8,52.5 32.9,52.5 						"/>
						<path fill="#808181" d="M32.4,53.2C32.4,53.2,32.4,53.1,32.4,53.2C32.4,53.1,32.4,53.2,32.4,53.2
							C32.4,53.2,32.4,53.2,32.4,53.2z"/>
						<path fill="#808181" d="M31.6,54.3L31.6,54.3L31.6,54.3z"/>
						<path fill="#808181" d="M33.2,51.9C33.2,52,33.2,52,33.2,51.9C33.2,51.9,33.2,51.9,33.2,51.9z"/>
						<path fill="#808181" d="M32.4,29.6L32.4,29.6C32.4,29.6,32.3,29.6,32.4,29.6z"/>
						<polygon fill="#808181" points="31.9,28.7 31.9,28.7 31.9,28.7 						"/>
						<path fill="#808181" d="M35.1,48.1L35.1,48.1C35.1,48.1,35.1,48.1,35.1,48.1z"/>
						<path fill="#808181" d="M36.7,41c0,0.1-0.1-0.1-0.1,0C36.6,40.9,36.6,41.1,36.7,41z"/>
						<path fill="#808181" d="M31.3,54.3L31.3,54.3C31.3,54.3,31.3,54.3,31.3,54.3z"/>
						<path fill="#808181" d="M36.5,41L36.5,41L36.5,41C36.5,41,36.5,41,36.5,41z"/>
						<path fill="#808181" d="M35.7,46.4C35.7,46.4,35.7,46.4,35.7,46.4C35.7,46.4,35.7,46.4,35.7,46.4z"/>
						<path fill="#808181" d="M35.2,47.6L35.2,47.6C35.2,47.6,35.2,47.6,35.2,47.6z"/>
						<path fill="#808181" d="M35.8,45.7C35.9,45.7,35.9,45.7,35.8,45.7L35.8,45.7C35.9,45.6,35.9,45.7,35.8,45.7z"/>
						<polygon fill="#808181" points="36,45 36,45 36,45 						"/>
						<path fill="#808181" d="M33.7,31.3C33.7,31.3,33.7,31.3,33.7,31.3C33.7,31.3,33.6,31.2,33.7,31.3z"/>
						<path fill="#808181" d="M31.3,54.3C31.3,54.3,31.3,54.3,31.3,54.3L31.3,54.3C31.3,54.3,31.3,54.3,31.3,54.3z"/>
						<path fill="#808181" d="M35.4,45.5l0-0.1C35.5,45.5,35.4,45.5,35.4,45.5z"/>
						<path fill="#808181" d="M35.7,36.1L35.7,36.1C35.7,36.1,35.7,36.1,35.7,36.1z"/>
						<path fill="#808181" d="M35.6,45.1C35.6,45.1,35.6,45.1,35.6,45.1C35.6,45,35.6,45,35.6,45.1L35.6,45.1z"/>
						<path fill="#808181" d="M33.7,31.3L33.7,31.3L33.7,31.3z"/>
						<path fill="#808181" d="M33.2,30.7c0.1,0.1,0.1,0,0.1,0c0.1,0.1,0,0.1,0,0.1c0.1,0.1,0.1,0.1,0.2,0.1c0,0,0,0,0,0
							c0.1,0,0.1,0.2,0.3,0.3c0,0,0,0,0,0c0,0,0.1-0.1,0.1-0.1c0,0,0.1,0.1,0.1,0.1c0,0,0,0-0.1,0l0,0c0,0.1-0.1,0-0.1,0
							c0.1,0.1,0.2,0.1,0.2,0.2c0,0-0.1-0.1-0.1,0l0-0.1c0,0.1,0-0.1-0.1,0.1c0.1,0.1,0.1,0.1,0.2,0.3c0,0,0,0,0.1,0
							c0.2,0.2-0.1,0.2,0.1,0.3c0.1,0,0.1,0,0.2,0.1l-0.1,0c0.1,0.1,0.1,0,0.2,0.2c0,0-0.1-0.1-0.1-0.1c0,0.1,0.1,0,0.1,0.1l-0.1,0
							c0.1,0.1,0.2,0.3,0.3,0.4c0,0-0.1,0-0.1,0c0.1,0.2,0.2,0.4,0.2,0.7l0.1,0.1c0,0,0,0,0,0c0,0.1,0,0,0.1,0c0,0,0,0.1,0,0
							c0.1,0.1,0.3,0.4,0.3,0.5l0,0c0,0.1,0.2,0.1,0.1,0.2l0,0c0.1,0.3,0.2,0.5,0.2,0.7c0.1,0,0,0.3,0.2,0.2c0,0.2,0,0.1,0,0.3
							c0,0.1,0.1,0.1,0.1,0.1l-0.1,0l0.1,0.1L35.7,36l0,0.1c0,0,0-0.1,0-0.1c0,0.1,0,0.3,0,0.3l0.1,0.2c0,0,0,0-0.1-0.1
							c0.1,0.1-0.1,0,0,0.1c0,0,0,0,0,0c0,0.1,0,0.2,0,0.3l0,0c0,0.2,0.1,0.4,0.1,0.6c0-0.1,0.1-0.1,0.1,0l-0.1,0c0,0,0-0.1,0.1,0
							c0,0.1-0.1,0.1-0.1,0l0,0.1c0,0,0,0-0.1,0c0.1,0,0,0.2,0,0.2l0,0c0,0.2,0.1,0.3,0.1,0.5c0.1,0,0,0.1,0.1,0.1
							c0,0.1,0,0.3,0,0.4c0,0.1,0,0,0.1,0.1c0,0,0,0.2-0.1,0.1c0,0.2,0,0.2,0.1,0.4c0,0,0-0.1,0,0c0,0,0,0.1,0,0.1l0,0
							c0.1,0.2-0.1,0.6,0,0.8l0,0l0.1,0.2c0,0.1,0-0.1-0.1,0c0.1,0.2,0,0.4,0,0.5c-0.1,0.1,0,0.5-0.1,0.7l0,0c0,0.1,0,0.1,0,0.1
							c0,0,0-0.1,0,0c0,0.4-0.2,0.9-0.3,1.3c0,0.2,0.2,0.1,0.1,0.3l-0.1-0.1c0,0.3-0.1,0.6-0.1,1c0,0,0,0,0-0.1
							c-0.1,0.1-0.1,0.2,0,0.2c0,0,0,0-0.1,0c0,0.1,0,0.2,0,0.2c0,0,0,0,0,0c0,0-0.1,0.2,0,0.2c-0.1,0.1,0,0.2-0.1,0.3
							c0,0.1-0.1,0.2,0,0.2c-0.1,0-0.1,0.2-0.1,0.3c0,0,0,0.1-0.1,0c0,0.1,0,0.2,0,0.2c-0.1,0.1,0,0.3-0.1,0.4c0,0.3,0,0.5-0.1,0.7
							c-0.1,0,0.1-0.2,0-0.3c0,0.2,0,0.4-0.1,0.5c0,0,0,0,0-0.1c0,0.2-0.2,0.4-0.2,0.6c0,0,0,0,0,0c0,0,0,0.1,0,0.1l0,0
							c0.1,0,0.1,0.2,0.1,0.2c-0.1-0.1-0.1,0.2-0.2,0c0,0,0,0.1,0,0.1c0,0,0,0-0.1,0c0,0.1,0,0.1,0,0.2c0,0,0,0,0-0.1
							c0,0.1,0,0.1,0,0.2c0,0,0,0,0,0c-0.1,0.2,0,0.3-0.1,0.5c-0.1-0.1,0,0.1-0.1,0l0,0.1l0,0c0,0.1,0,0.2-0.1,0.2l0-0.1l-0.1,0.2
							l0.1-0.1c0,0.1,0.1,0,0,0.1c0,0,0,0.1-0.1,0.1l0,0c0,0.1,0,0.1,0,0.2c0,0-0.1,0-0.1,0c0,0.1-0.1,0.2-0.1,0.3c0,0,0,0,0,0
							l0,0.1c0,0,0,0-0.1,0c-0.1,0.1,0.1,0,0,0.1c0,0,0,0,0,0c-0.1,0.1-0.1,0.3-0.2,0.4c-0.1,0,0-0.1,0-0.1
							c-0.1,0.2-0.1,0.4-0.2,0.6l0,0c0.1,0.1-0.1,0.1-0.1,0.2c0,0,0-0.1,0,0c-0.1,0.1-0.1,0.3-0.2,0.5l0,0c-0.1,0.1-0.1,0.2-0.2,0.2
							c0,0,0,0.1,0,0.1c-0.3,0.2-0.1,0.5-0.4,0.6c0,0,0-0.1,0,0l-0.1,0.2c0,0,0,0,0.1,0c0,0,0,0.1,0,0.1c0-0.1-0.1,0-0.1,0
							c0,0,0,0,0,0c-0.1,0,0.1,0.1-0.1,0.2l0,0c0,0.1,0,0.1-0.1,0.2c-0.1,0,0-0.1,0-0.1c0,0.1,0,0.2-0.1,0.2c0,0,0-0.1,0-0.1
							c-0.1,0-0.1,0.1-0.1,0.1l0,0L32.2,53l0,0c0.1,0.2-0.1,0.2-0.1,0.3c0-0.2,0,0-0.1-0.1c0,0-0.1,0.1-0.1,0c0,0.1-0.1,0.1-0.1,0.2
							c0,0,0,0.1-0.1,0c0,0.1,0,0,0.1,0c0,0.1-0.2,0.2-0.3,0.4c-0.1,0.2,0,0.2-0.1,0.4c-0.1,0,0-0.1,0-0.1c-0.1,0.1-0.1,0.1-0.1,0.2
							c0,0,0,0-0.1,0c0,0.1,0,0.1,0,0.1c0,0,0-0.1,0-0.1c0,0.1,0,0.2-0.1,0.2c0,0,0-0.1,0-0.1c0,0.1-0.1,0.2-0.1,0.3l0,0
							c0,0,0,0,0,0c0-0.1,0.1-0.1,0.1-0.1l0,0.1c0.1,0,0.1-0.2,0.2-0.3l0,0.1l0-0.1c0,0,0.1,0,0.1,0.1c0.1,0,0-0.1,0.1-0.1
							c0,0,0,0,0,0l0-0.1c0,0,0.1,0,0,0.1c0.1-0.1,0.1-0.2,0.1-0.2l0,0c0.1-0.2,0,0,0-0.2l0.2,0l0,0c0,0,0,0,0.1,0c0-0.1,0,0,0-0.1
							c0.1,0,0.1-0.2,0.2-0.2c0-0.1-0.1,0.1,0,0c0.1,0,0-0.1,0.1-0.2c0,0.1,0,0.1,0,0.1c0-0.1,0.1-0.1,0.1-0.2
							c-0.1,0,0.1-0.1,0.1-0.3c0,0,0.2-0.2,0.2-0.2l0,0c0-0.1,0-0.1,0.1-0.2c0,0,0,0,0,0.1l0-0.1c0,0,0-0.1,0-0.1l0,0
							c0.1-0.1,0.1-0.2,0.2-0.3c0,0-0.2,0-0.1-0.1c0,0,0.1,0,0.1,0.1c0,0,0,0,0-0.1l0,0.1c0,0,0,0,0-0.1c0,0,0,0,0.1,0
							c0,0,0,0,0,0.1c0,0,0.1-0.1,0.1-0.1c0,0,0,0,0-0.1c0-0.1,0.1,0,0.1-0.1c0,0,0-0.1,0-0.1c0,0,0,0,0.1,0c0-0.1,0.1-0.2,0-0.2
							l0,0l0,0l0,0l0,0c0-0.2,0.2-0.3,0.3-0.5l0,0c0-0.1,0.1-0.2,0.1-0.3c0,0,0.1,0,0.1,0c0-0.1,0-0.1,0.1-0.2c0,0.1,0,0,0,0.1
							c0.1-0.1,0.1-0.1,0.1-0.2c0,0.1,0.1,0,0.1-0.1l-0.1,0c0-0.1,0-0.1,0.1-0.1l0,0.1c0.2-0.2,0.1-0.4,0.3-0.5c0-0.1-0.1,0.1-0.1,0
							c0.1-0.1,0.2-0.1,0.2-0.2c0.1-0.1,0-0.2,0.1-0.3c0,0-0.1,0-0.1-0.1c0-0.1,0.1-0.1,0.1,0c0,0,0,0,0,0c0,0,0,0.1,0,0.1l0,0
							c0,0,0.1-0.2,0.1-0.1c0-0.1,0,0-0.1,0c0.1-0.1,0.1-0.2,0.1-0.3c0,0-0.1,0,0,0c0.1-0.2,0-0.1,0-0.2c0.1-0.1,0.1,0.1,0.1-0.1
							c0.1-0.1,0.1,0,0.1,0c0-0.1,0.1-0.2,0.1-0.3l0,0.1c0,0,0-0.1,0-0.1l-0.1,0c0,0,0-0.1,0.1-0.1c0,0-0.1,0-0.1-0.1
							c0,0,0-0.1,0.1-0.1c-0.1,0.1,0.1,0,0,0.1c0,0,0-0.1,0-0.1c0,0,0,0,0,0c0.1-0.1,0-0.1,0-0.2c0,0,0.1,0,0.1,0
							c0,0.1-0.1,0-0.1-0.1c0.1-0.1,0-0.1,0-0.2l0,0.1c0,0,0-0.1,0-0.1c0,0,0,0.1,0,0c0-0.1,0.1-0.1,0.1-0.3c0,0,0.1,0,0.1,0
							c0-0.1,0.1-0.1,0.1-0.2c-0.1,0,0,0-0.1-0.1l0,0.2l0-0.1c0,0.1,0,0.1,0,0.2c0-0.1,0-0.1-0.1,0c0.1-0.1,0-0.2,0.1-0.2l0.1,0
							c0.1-0.1,0.1-0.3,0.1-0.4l0,0.1c0,0,0-0.1,0-0.2c0,0,0.1,0,0.1,0c0,0,0-0.1,0-0.2l0.1-0.1c0.1-0.1-0.1-0.2,0-0.3
							c0,0.1,0.1,0,0.1,0.1c0,0,0-0.1,0-0.1c0,0,0-0.1,0-0.2c0,0,0,0,0-0.1c0,0,0,0,0,0c0,0,0-0.1-0.1-0.1c0.2-0.1,0.1-0.4,0.2-0.5
							c0-0.1,0-0.2,0.1-0.3c0,0,0,0,0,0c0.1-0.1-0.1-0.1,0-0.2c0.1-0.1,0,0.1,0,0c0.1,0,0-0.2,0.1-0.3l0,0c0.1-0.1,0-0.2,0-0.3
							c0,0,0,0,0,0c-0.1-0.1,0-0.3,0-0.4c0,0,0,0.1,0.1,0c0-0.1-0.1,0-0.1-0.1c0,0,0.1-0.1,0.1-0.1l0,0.1c0.1,0,0-0.1,0-0.2l0,0
							c0-0.2-0.1-0.2,0-0.3l0,0c-0.1-0.1,0.1-0.1,0-0.2l0.1,0c0-0.1,0-0.2,0-0.3c0,0.1,0.1,0.2,0.1,0.3c0-0.1,0-0.2,0-0.2
							c0,0,0,0.1,0,0.1c0-0.1-0.1-0.2,0-0.3c0.1,0,0.1-0.3,0.2-0.4c0-0.2,0-0.4,0-0.7c-0.1,0.1,0-0.1-0.1-0.1c0-0.1,0-0.1,0-0.1
							l0.1-0.2c0,0,0,0.1,0.1,0.1c0-0.1,0.1-0.1,0.1-0.1c0,0-0.1,0,0-0.1l-0.1,0.1c-0.1-0.2,0.1-0.2,0-0.3l0,0.1
							c0-0.1,0-0.4-0.1-0.4c0,0,0,0,0.1,0c0-0.2-0.1-0.5-0.1-0.7l0,0c0,0-0.1-0.1,0-0.1c0,0,0,0,0,0c0,0-0.1-0.1-0.1-0.2l0,0
							c0-0.2-0.1-0.3-0.2-0.5c0.1,0,0.1-0.2,0.1-0.3l0,0c0-0.3-0.1-0.4-0.2-0.7c0.1-0.2-0.1-0.5-0.1-0.7c0,0-0.1,0-0.1,0
							c0-0.1-0.1-0.1,0-0.1l0,0c0.1-0.1,0-0.2,0-0.3l-0.1,0c0.1-0.3-0.2-0.6-0.1-0.7c0,0-0.1-0.1-0.1-0.2l0.1,0
							c0-0.2-0.1-0.2-0.1-0.4l0,0c0-0.1-0.2-0.1-0.2-0.2l0.1-0.1c-0.1-0.2-0.1-0.4-0.2-0.5c0,0,0,0,0,0c0-0.1-0.1-0.3-0.2-0.3
							c0.1,0-0.1-0.2-0.1-0.3l0.1,0c-0.1-0.1-0.1,0-0.2-0.2c0,0,0,0,0,0c0-0.1-0.1,0-0.1-0.2l0,0c0-0.1,0-0.1-0.1-0.1
							c0,0-0.1-0.2,0-0.2c0,0-0.1,0-0.1-0.1c0,0,0,0,0,0c0-0.2-0.2-0.2-0.2-0.3c0,0,0,0,0,0C35,32.9,35,33,35,33c0,0,0-0.1,0.1-0.1
							c-0.1-0.1-0.2-0.2-0.2-0.3c0,0,0,0,0,0l0,0c0,0,0,0,0-0.1c0,0,0-0.1,0-0.1c0,0,0-0.1-0.1-0.2c0,0-0.1,0-0.1,0c0,0,0,0,0,0
							c0,0,0,0,0,0l0,0c0,0,0,0.1,0.1,0.1c0,0-0.1-0.1-0.1-0.1c0,0-0.1,0-0.1,0c0-0.1,0-0.2,0-0.3c-0.1-0.1-0.2-0.3-0.3-0.4
							c0,0,0-0.1,0-0.1c0,0,0,0,0.1,0.1c-0.1-0.1-0.1-0.2-0.2-0.2c0-0.1,0.1,0,0-0.1l0,0c-0.1-0.3-0.4-0.3-0.5-0.7c0,0,0,0,0,0
							c-0.1-0.4-0.5-0.6-0.7-1c0-0.1-0.1-0.1-0.2-0.1l0-0.1l-0.1,0c-0.1-0.1-0.1-0.3-0.3-0.4l0,0c0-0.1-0.2-0.2-0.1-0.2
							c0,0,0,0-0.1,0l0,0l-0.2-0.1c-0.1-0.1,0.1-0.1,0-0.2c-0.1,0-0.2-0.1-0.2-0.1c0,0,0,0.1,0,0.1l-0.1,0c-0.1,0.1-0.2,0.1-0.1,0.2
							l0.1,0l0,0.1L31.8,29c0,0.1,0.1,0.1,0.1,0.1c0,0,0,0,0,0.1l0.1,0c0,0-0.1,0,0,0.1c0.1,0,0-0.1,0.1,0c0,0.1,0,0.1,0,0.1
							c0,0,0,0-0.1,0c0.1,0,0.1,0.1,0.2,0.1c0,0.1,0.1,0.1,0.1,0.2c0,0,0.1,0,0.2,0.1c-0.1,0,0.1,0.2,0,0.2c0.1,0,0.2,0.2,0.3,0.3
							c0,0,0,0,0,0c0,0.1,0,0.1,0,0.1c0.1,0,0.1,0,0.2,0.1c0,0.1-0.1,0-0.1,0.1c0,0,0.1,0.1,0.2,0c0,0.1,0,0.1,0,0.1
							c0.1,0,0.1,0,0.1,0.1C33.2,30.7,33.2,30.7,33.2,30.7C33.2,30.8,33.2,30.7,33.2,30.7z M34.6,32.9L34.6,32.9
							C34.6,32.8,34.6,32.8,34.6,32.9C34.6,32.8,34.6,32.8,34.6,32.9z M34.7,33.1C34.7,33,34.7,33,34.7,33.1
							C34.7,33,34.7,33,34.7,33.1C34.7,33,34.7,33,34.7,33.1z M34.8,32.5C34.8,32.5,34.8,32.5,34.8,32.5
							C34.8,32.5,34.8,32.5,34.8,32.5L34.8,32.5C34.8,32.5,34.8,32.5,34.8,32.5z"/>
						<polygon fill="#808181" points="34.7,32.5 34.7,32.4 34.7,32.5 34.7,32.5 						"/>
						<polygon fill="#808181" points="33.3,51.5 33.3,51.5 33.3,51.5 						"/>
						<polygon fill="#808181" points="35.6,35.9 35.6,35.9 35.6,35.9 						"/>
						<path fill="#808181" d="M32.6,52.4C32.6,52.4,32.6,52.4,32.6,52.4C32.6,52.4,32.6,52.4,32.6,52.4z"/>
						<path fill="#808181" d="M32.3,52.9L32.3,52.9C32.3,52.9,32.3,52.9,32.3,52.9z"/>
						<path fill="#808181" d="M32,53.2C32.1,53.2,32.1,53.2,32,53.2L32,53.2L32,53.2z"/>
						<path fill="#808181" d="M34.9,47.5C34.9,47.5,34.9,47.5,34.9,47.5C34.9,47.5,34.9,47.5,34.9,47.5z"/>
						<path fill="#808181" d="M34.3,49.3C34.3,49.3,34.3,49.3,34.3,49.3C34.3,49.3,34.2,49.3,34.3,49.3z"/>
						<polygon fill="#808181" points="35.4,45.5 35.4,45.5 35.4,45.5 						"/>
						<path fill="#808181" d="M34.3,49.2C34.3,49.2,34.3,49.3,34.3,49.2C34.3,49.3,34.3,49.2,34.3,49.2z"/>
						<polygon fill="#808181" points="31.1,54.6 31.1,54.6 31.1,54.6 						"/>
						<path fill="#808181" d="M31.1,54.6L31.1,54.6C31.1,54.6,31.1,54.6,31.1,54.6z"/>
						<path fill="#808181" d="M31.1,54.7L31.1,54.7C31.1,54.7,31,54.7,31.1,54.7z"/>
						<path fill="#808181" d="M31.4,54.2L31.4,54.2C31.4,54.2,31.4,54.2,31.4,54.2z"/>
						<path fill="#808181" d="M31.5,54c0,0-0.1,0.1-0.1,0.1l0,0C31.4,54.1,31.5,54.1,31.5,54z"/>
						<path fill="#808181" d="M32,53.6L32,53.7c0,0,0.1,0,0,0C32.1,53.7,31.9,53.8,32,53.6z"/>
						<path fill="#808181" d="M32.3,53.3C32.3,53.4,32.3,53.3,32.3,53.3C32.3,53.3,32.3,53.3,32.3,53.3z"/>
						<path fill="#808181" d="M33.8,50.7L33.8,50.7C33.9,50.6,33.8,50.7,33.8,50.7z"/>
						<polygon fill="#808181" points="33.9,50 33.8,50.1 33.8,50.1 						"/>
						<polygon fill="#808181" points="34.3,49.9 34.3,49.9 34.4,49.8 						"/>
						<path fill="#808181" d="M36,45.1L36,45.1C36,45.1,36,45.2,36,45.1z"/>
						<path fill="#808181" d="M36.4,42.9c0,0,0.1-0.1,0-0.1C36.4,42.8,36.4,42.9,36.4,42.9z"/>
						<polygon fill="#808181" points="36.2,36.3 36.2,36.4 36.2,36.3 						"/>
					</g>
				</g>
			</g>
		</g>
	</g>
	<g>
		<g>
			<g>
				<g>
					<g>
						<path fill="#808181" d="M37.1,50.1C37.1,50.2,37.1,50.2,37.1,50.1L37.1,50.1L37.1,50.1z"/>
						<path fill="#808181" d="M37.3,50.3c0.1,0,0.1,0,0.1-0.1C37.3,50.3,37.3,50.2,37.3,50.3c-0.1-0.1-0.1-0.1-0.1-0.1
							c0,0-0.1,0-0.1,0C37.2,50.3,37.2,50.3,37.3,50.3C37.3,50.3,37.3,50.3,37.3,50.3z"/>
						<path fill="#808181" d="M41.2,51L41.2,51L41.2,51z"/>
						<path fill="#808181" d="M43.6,50.8C43.6,50.8,43.6,50.8,43.6,50.8C43.6,50.8,43.6,50.8,43.6,50.8z"/>
						<path fill="#808181" d="M44,50.6C44,50.6,44,50.6,44,50.6C44,50.6,44,50.6,44,50.6z"/>
						<path fill="#808181" d="M41.2,51L41.2,51C41.2,51,41.2,51,41.2,51z"/>
						<path fill="#808181" d="M37.9,50.3C37.8,50.3,37.8,50.3,37.9,50.3L37.9,50.3L37.9,50.3z"/>
						<polygon fill="#808181" points="40.1,51 40.1,51 40,51 						"/>
						<path fill="#808181" d="M39.3,50.9C39.3,50.9,39.3,50.9,39.3,50.9C39.3,50.9,39.3,50.9,39.3,50.9
							C39.3,50.9,39.3,50.9,39.3,50.9z"/>
						<path fill="#808181" d="M38,50.6L38,50.6L38,50.6z"/>
						<path fill="#808181" d="M40.7,51.1C40.7,51.1,40.7,51.1,40.7,51.1C40.7,51.1,40.7,51.1,40.7,51.1z"/>
						<path fill="#808181" d="M39.7,40.6L39.7,40.6C39.7,40.6,39.7,40.6,39.7,40.6z"/>
						<polygon fill="#808181" points="38.8,40.9 38.8,40.9 38.7,40.9 						"/>
						<path fill="#808181" d="M44.6,50L44.6,50C44.6,50.1,44.6,50.1,44.6,50z"/>
						<path fill="#808181" d="M46.1,43.9C46,43.9,46.1,43.8,46.1,43.9C46.1,43.8,46,44,46.1,43.9z"/>
						<path fill="#808181" d="M37.9,50.3L37.9,50.3C37.9,50.4,37.9,50.3,37.9,50.3z"/>
						<path fill="#808181" d="M46,43.8L46,43.8L46,43.8C46,43.8,46,43.8,46,43.8z"/>
						<path fill="#808181" d="M45.1,48.2C45.1,48.2,45,48.2,45.1,48.2C45,48.2,45.1,48.2,45.1,48.2z"/>
						<path fill="#808181" d="M44.8,49.6L44.8,49.6C44.8,49.5,44.8,49.5,44.8,49.6z"/>
						<path fill="#808181" d="M44.9,47.5C44.9,47.5,44.9,47.5,44.9,47.5L44.9,47.5C44.9,47.5,44.9,47.5,44.9,47.5z"/>
						<polygon fill="#808181" points="44.8,46.8 44.8,46.8 44.8,46.9 						"/>
						<path fill="#808181" d="M41.5,39.6C41.5,39.6,41.5,39.6,41.5,39.6C41.5,39.6,41.4,39.7,41.5,39.6z"/>
						<path fill="#808181" d="M37.8,50.4C37.9,50.4,37.9,50.3,37.8,50.4L37.8,50.4C37.8,50.4,37.8,50.4,37.8,50.4z"/>
						<path fill="#808181" d="M44.5,47.6l0-0.1C44.5,47.5,44.5,47.5,44.5,47.6z"/>
						<path fill="#808181" d="M46.2,39.8L46.2,39.8C46.2,39.8,46.2,39.8,46.2,39.8z"/>
						<path fill="#808181" d="M44.4,47.1C44.4,47.1,44.4,47.1,44.4,47.1L44.4,47.1L44.4,47.1z"/>
						<path fill="#808181" d="M41.5,39.6L41.5,39.6L41.5,39.6z"/>
						<path fill="#808181" d="M40.9,40c0.1,0,0-0.1,0-0.1c0.1-0.1,0.1,0,0.1,0c0.1,0,0.1-0.1,0.1-0.2c0,0,0,0,0,0
							c0.1-0.1,0.2-0.1,0.3-0.2c0,0,0,0,0,0c0,0,0-0.1,0-0.1c0,0,0.1-0.1,0.1,0c0,0,0,0,0,0l0,0c0.1,0-0.1,0,0,0.1
							c0.1-0.1,0.2-0.1,0.2-0.1c0,0.1-0.2,0.1,0,0.1l-0.1,0c0.1,0.1-0.1,0,0,0.1c0.1,0,0.1-0.1,0.3-0.1c0,0,0,0,0-0.1
							c0.2-0.1,0.2,0.1,0.3,0c0-0.1,0-0.1,0.1-0.1l0,0.1c0.1,0,0.1-0.1,0.2-0.1c0,0-0.1,0-0.1,0.1c0.1,0,0.1-0.1,0.1-0.1l0,0.1
							c0.1,0,0.3-0.1,0.5-0.1c0,0,0,0,0,0.1c0.2-0.1,0.5,0,0.7,0l0.1-0.1c0,0,0,0,0,0c0.1,0,0,0,0-0.1c0,0,0.1,0,0,0
							c0.1,0,0.4-0.1,0.5,0l0,0c0.1,0,0.1-0.1,0.2,0l0,0c0.2,0,0.3,0.1,0.5,0.1l0,0c0.1,0,0.1,0.1,0.2,0.1c0.1-0.1,0.2,0.1,0.3,0
							c0.1,0.1,0.1,0.1,0.2,0.2c0,0,0.1,0,0.2,0l0,0.1c0,0,0.1,0,0.1,0l0,0.1l0.1,0c0,0,0-0.1,0-0.1c0.1,0,0.2,0.2,0.1,0.2l0.2,0.1
							c0,0-0.1,0-0.1,0c0.1,0,0,0.1,0.1,0.1c0,0,0,0,0,0c0,0.1,0.1,0.2,0.1,0.2l0,0c0.1,0.1,0.1,0.3,0.2,0.4c0-0.1,0.1-0.1,0.1,0
							l-0.1,0c0,0,0-0.1,0.1,0c0,0.1-0.1,0.1-0.1,0l0,0.1c0,0,0,0-0.1,0c0,0,0,0.1,0,0.2l0,0c0,0.2,0,0.3,0,0.4c0.1,0,0,0.1,0.1,0.1
							c0,0.1-0.1,0.2-0.2,0.3c0,0.1,0,0,0.1,0.1c0,0-0.1,0.1-0.1,0c0,0.2-0.1,0.2-0.1,0.4c0,0,0,0,0.1,0c0,0-0.1,0.1-0.1,0.1l0,0
							c0,0.2-0.4,0.4-0.4,0.6l0,0l-0.1,0.2c-0.1,0.1,0-0.1-0.1,0c-0.1,0.2-0.2,0.3-0.3,0.4c-0.2,0-0.3,0.4-0.5,0.5l0,0
							c0,0.1-0.1,0-0.1,0.1c0,0,0.1,0,0.1,0c-0.2,0.3-0.6,0.6-0.9,0.9c-0.1,0.1,0.1,0.2-0.1,0.3l0-0.1c0,0.1,0,0.1-0.1,0.2
							c-0.1,0.1-0.1,0.2-0.2,0.2l0.2,0.4c0,0.1,0.1,0.2,0.1,0.3c0,0,0,0,0,0c0,0.1,0.1,0.2,0.1,0.2c0,0,0,0,0,0.1
							c0,0.1,0.1,0.1,0.1,0.2c0,0,0,0,0,0c0,0,0,0.2,0.1,0.1c0,0.1,0.1,0.2,0.1,0.3c0.1,0,0,0.2,0.1,0.2c-0.1,0,0,0.2,0,0.3
							c0,0,0,0.1-0.1,0c0,0.1,0,0.1,0.1,0.1c-0.1,0.2,0.1,0.3,0,0.4c0.1,0.2,0.1,0.4,0.1,0.7c-0.1,0,0-0.2-0.1-0.2
							c0,0.2,0.1,0.3,0,0.5c0,0,0,0,0-0.1c0,0.2-0.1,0.4-0.1,0.5c0,0,0,0,0,0c0,0,0,0.1,0,0.1l0,0c0.1,0,0.1,0.2,0.1,0.2
							c-0.1-0.1-0.1,0.1-0.2,0c0,0,0,0.1,0,0.1c0,0,0,0-0.1,0c0,0.1,0,0.1,0,0.2c0,0,0,0,0-0.1c0,0.1,0,0.1-0.1,0.2c0,0,0,0,0,0
							c-0.1,0.1-0.1,0.3-0.3,0.3c0-0.1-0.1,0-0.1,0l-0.1,0.1l0.1,0c-0.1,0-0.1,0.1-0.2,0.1l0-0.1l-0.1,0.1l0.1,0
							c-0.1,0.1,0,0.1-0.1,0.1c0,0-0.1,0-0.1,0l0,0c0,0-0.1,0.1-0.1,0.1c0,0,0-0.1,0-0.1c0,0.1-0.2,0.1-0.2,0.1c0,0,0-0.1,0-0.1
							l0,0.1c0,0,0,0,0,0c-0.1,0,0.1,0.1-0.1,0.1c0,0,0,0,0,0c-0.1,0-0.3,0.1-0.4,0.1c0-0.1,0.1,0,0.1-0.1c-0.2,0-0.4,0.1-0.6,0.1
							l0,0c0,0.1-0.1-0.1-0.2,0c0,0,0-0.1,0,0c-0.1,0-0.3,0-0.5,0l0,0c-0.1,0-0.2,0-0.3,0c0,0-0.1,0,0,0.1c-0.2-0.2-0.5,0-0.7-0.1
							c0,0,0.1,0,0,0l-0.2,0c0,0,0,0,0.1,0.1c0,0-0.1,0-0.1,0c0.1,0,0-0.1,0-0.1c0,0,0,0,0,0c-0.1-0.1,0,0.1-0.2,0l0,0
							c-0.1,0-0.1,0-0.2,0c0-0.1,0.1,0,0.1-0.1c-0.1,0-0.2,0.1-0.2,0c0,0,0.1,0,0.1,0c-0.1-0.1-0.1-0.1-0.1-0.1l0,0l-0.1,0l0,0
							c-0.1,0.1-0.2,0-0.3,0.1c0.1-0.1,0,0,0-0.1c0,0-0.1,0-0.1-0.1c-0.1,0-0.1-0.1-0.2,0c0,0-0.1,0,0-0.1c-0.1,0,0,0,0,0.1
							c-0.1,0-0.3-0.1-0.5-0.1c-0.2,0-0.2,0.1-0.3,0.1c0,0,0.1-0.1,0.1-0.1c-0.1,0-0.1-0.1-0.2,0c0,0,0,0,0-0.1
							c-0.1,0-0.1,0.1-0.1,0c0,0,0,0,0.1-0.1c-0.1,0-0.1,0-0.2,0c0,0,0.1,0,0.1-0.1c-0.1,0-0.2,0-0.2,0l0,0c0,0,0,0,0-0.1
							c0.1,0,0.1,0,0.1,0.1l-0.1,0c0,0.1,0.2,0,0.3,0.1l-0.1,0.1l0.1,0c0,0,0,0.1,0,0.1c0.1,0.1,0.1,0,0.1,0c0,0,0,0,0,0l0.1,0
							c0,0,0,0.1,0,0c0.1,0.1,0.2,0,0.3,0.1l0,0c0.2,0,0-0.1,0.2-0.1l0.1,0.2l0-0.1c0,0,0.1,0,0,0c0.1,0,0,0,0-0.1
							c0.1,0.1,0.2,0,0.3,0.1c0,0-0.1,0,0-0.1c0,0.1,0.1,0,0.2,0.1c0,0-0.1,0,0,0.1c0.1-0.1,0.2,0,0.2,0c0-0.1,0.2,0,0.3,0
							c0,0,0.2,0.1,0.3,0.1l0,0c0-0.1,0.1,0,0.2,0c0,0,0,0.1-0.1,0.1l0.1,0c0,0,0,0,0.1,0l0,0.1c0.1,0,0.2,0,0.3,0
							c0,0-0.1-0.1,0-0.2c0,0,0,0.1,0,0.1c0,0,0,0,0.1,0l-0.1,0c0.1,0,0,0,0.1,0c0,0,0,0,0,0.1c0,0,0,0-0.1,0c0.1,0,0.1,0,0.1,0.1
							c0,0,0-0.1,0-0.1c0.1,0,0,0,0.1,0.1c0,0,0.1,0,0.1,0c0,0,0,0,0,0c0.1,0,0.2,0,0.2-0.1l0,0l0,0l0,0l0,0c0.2,0,0.4,0.1,0.5,0
							l0,0c0.1,0,0.2,0,0.3,0c0,0,0.1,0,0.1,0.1c0.1,0,0.1,0,0.2,0c-0.1,0,0,0-0.1,0c0.1,0,0.1,0,0.2,0c0,0.1,0.1,0.1,0.1,0l-0.1,0
							c0.1,0,0.1,0,0.2,0l0,0.1c0.2,0.1,0.4-0.2,0.5-0.1c0-0.1-0.1,0-0.1-0.1c0.1,0,0.2,0,0.3,0c0.1,0,0.1-0.1,0.2-0.1
							c0,0-0.1-0.1,0-0.1c0.1,0,0.1,0,0.1,0.1c0,0,0,0,0,0c0,0-0.1,0.1,0,0.1l0,0c0.1,0,0.2-0.1,0.2,0c0.1-0.1,0,0,0,0
							c0.1,0,0.2-0.1,0.3-0.1c0,0-0.1,0,0,0c0.2-0.1,0-0.1,0.1-0.2c0.1,0,0,0.1,0.1,0c0.1,0,0.1,0,0,0.1c0.1-0.1,0.2-0.1,0.3-0.2
							l0,0.1c0-0.1,0-0.1,0.1-0.1l-0.1,0c0,0,0-0.1,0.1,0c0-0.1-0.1,0-0.1-0.1c0,0,0.1-0.1,0.1-0.1c-0.1,0.1,0.1,0,0,0.1
							c0,0,0-0.1,0.1-0.1c0,0,0,0,0,0c0.1-0.1,0-0.1,0.1-0.2c0,0,0.1,0,0.1,0c0,0.1-0.1,0-0.1-0.1c0.1-0.1,0-0.1,0-0.2l0,0.1
							c0,0,0-0.1,0-0.1c0,0,0,0.1,0,0c0-0.1,0.1-0.1,0.1-0.3c0,0,0.1,0,0.1,0c0-0.1,0.1-0.1,0.1-0.3c-0.1,0,0,0-0.1-0.1l0,0.2l0-0.1
							c0,0.1,0,0.1,0,0.2c0-0.1,0-0.1-0.1,0c0.1-0.1,0-0.2,0.1-0.3l0.1,0c0.1-0.1,0-0.3,0-0.5l0,0.1c0,0,0-0.1,0-0.2
							c0,0,0.1,0,0.1-0.1c0,0,0-0.1-0.1-0.2l0-0.1c0-0.2-0.1-0.2-0.1-0.3c0,0,0.1,0,0.1,0.1c0,0,0-0.1,0-0.1c0,0-0.1-0.1,0-0.2
							c0,0-0.1,0-0.1-0.1c0,0,0,0,0,0c0,0,0-0.1-0.1,0c0.1-0.2-0.1-0.4,0-0.5c0-0.1-0.1-0.2-0.1-0.3c0,0,0,0,0,0
							c0-0.1-0.1,0-0.1-0.2c0-0.1,0.1,0.1,0.1,0c0.1-0.1-0.1-0.2,0-0.3l0,0c0-0.1-0.1-0.2-0.1-0.3c0,0,0,0,0,0
							c-0.1,0-0.1-0.1-0.1-0.1c0,0,0-0.1,0.1-0.1c0,0,0,0,0.1,0.1c0,0-0.1,0,0-0.1c0,0,0.1,0,0.2,0l-0.1,0.1c0.1,0,0.1-0.1,0.1-0.1
							l0,0c0.1-0.1,0-0.2,0.2-0.3l0,0c0-0.1,0.1,0,0.1-0.1l0.1,0c0-0.1,0.1-0.2,0.2-0.3c0,0.1-0.1,0.2-0.1,0.3c0,0,0.1-0.1,0.1-0.2
							c0,0,0,0.1,0,0.1c0-0.1,0.1-0.2,0.1-0.3c0.1,0.1,0.2-0.2,0.4-0.2c0.1-0.2,0.3-0.3,0.4-0.5c-0.1,0,0-0.1-0.1-0.1
							c0,0,0-0.1,0.1-0.1l0.2-0.1c0.1,0,0,0.1,0,0.1c0.1-0.1,0.1,0,0.1-0.1c0,0,0-0.1,0-0.1l-0.1,0.1c0-0.2,0.2-0.1,0.2-0.3l0,0.1
							c0-0.1,0.2-0.3,0.2-0.4c0,0,0.1,0,0,0c0.1-0.2,0.1-0.5,0.3-0.6l0,0c0,0,0-0.1,0-0.1c0,0,0,0,0,0c0,0,0-0.1,0-0.2l0,0.1
							c0.1-0.2,0-0.4,0.1-0.5c0.1,0,0.2-0.1,0.2-0.2l0,0c0-0.3,0-0.5-0.1-0.7c0.1-0.2-0.1-0.5-0.2-0.8c0,0-0.1,0-0.1,0
							c0-0.1-0.1-0.1-0.1-0.1l0,0c0-0.1,0-0.2-0.1-0.2l-0.1,0.1c-0.1-0.3-0.5-0.4-0.6-0.5c-0.1,0-0.1,0-0.2,0l0,0
							c-0.1-0.1-0.2-0.1-0.4-0.2l0.1,0c-0.1,0-0.2,0.1-0.3,0.1l0-0.1c0,0-0.1,0-0.1,0l0,0c-0.1,0-0.3-0.1-0.4-0.1c0,0,0,0,0,0
							c-0.1,0-0.3-0.1-0.3,0c0-0.1-0.2,0-0.3,0l0-0.1c-0.1,0.1-0.1,0.1-0.2,0.1c0,0,0,0,0,0c-0.1,0-0.1,0-0.2,0l0,0
							c-0.1,0-0.1,0-0.1,0.1c-0.1,0-0.2,0-0.2-0.1c0,0-0.1,0.1-0.1,0.1c0,0,0,0,0,0c-0.2,0-0.2,0.1-0.3,0c0,0,0,0,0,0
							c0.1,0,0.2,0,0.2,0c0,0-0.1-0.1,0-0.1c-0.1,0-0.2,0.1-0.3,0.1c0,0,0,0,0,0l0,0c0,0,0,0-0.1,0c0,0-0.1,0-0.1,0c0,0-0.1,0-0.2,0
							c0,0.1-0.1,0.1,0,0.1c0,0,0,0,0,0c0,0,0,0,0,0l0,0c0,0,0.1,0,0.1,0c0,0-0.1,0.1-0.1,0c0,0,0,0.1-0.1,0.1
							c-0.1-0.1-0.2-0.1-0.2-0.1c-0.1,0.1-0.4,0.1-0.4,0.2c0,0-0.1,0-0.1,0c0,0,0.1,0,0.1,0c-0.1,0-0.2,0.1-0.2,0.2
							c-0.1,0,0-0.1-0.1,0l0,0c-0.3,0-0.4,0.3-0.8,0.3c0,0,0,0,0,0c-0.4,0.1-0.7,0.4-1,0.5c-0.1,0-0.1,0.1-0.1,0.1l0,0l-0.1,0.1
							c-0.1,0.1-0.3,0-0.4,0.2l0,0c-0.1,0-0.2,0.1-0.2,0.1c0,0,0,0,0,0l0,0L39,40.7c-0.1,0.1-0.1-0.1-0.2,0
							c-0.1,0.1-0.1,0.2-0.1,0.2c0,0,0.1,0,0.1,0l0,0.1c0.1,0.1,0.1,0.2,0.2,0.1L39,41l0.1,0L39,41c0.1,0,0.1,0,0.1-0.1
							c0,0,0,0,0.1,0l0-0.1c0,0,0,0.1,0.1,0.1c0-0.1-0.1,0,0-0.1c0.1,0,0.1,0,0.1,0c0,0,0,0,0,0.1c0-0.1,0.1-0.1,0.1-0.1
							c0.1,0,0.1-0.1,0.2,0c0,0,0-0.1,0.1-0.1c0,0.1,0.2-0.1,0.2,0c0-0.1,0.2-0.2,0.3-0.3c0,0,0,0,0,0c0.1,0,0.1,0,0.1,0
							c0-0.1,0.1-0.1,0.1-0.2c0.1,0,0,0.1,0.1,0.2c0-0.1,0.1-0.1,0.1-0.2c0.1,0,0.1,0,0.1,0c0-0.1,0,0,0.1-0.1
							C40.8,39.9,40.8,40,40.9,40C40.9,39.9,40.9,40,40.9,40z M43.1,39.2L43.1,39.2C43.1,39.2,43.1,39.2,43.1,39.2
							C43.1,39.2,43.1,39.2,43.1,39.2z M43.3,39.1C43.3,39.2,43.3,39.2,43.3,39.1C43.2,39.1,43.2,39.1,43.3,39.1
							C43.2,39.1,43.3,39.1,43.3,39.1z M42.8,38.8C42.9,38.8,42.9,38.8,42.8,38.8C42.9,38.8,42.9,38.8,42.8,38.8L42.8,38.8
							C42.8,38.8,42.8,38.8,42.8,38.8z"/>
						<polygon fill="#808181" points="42.8,38.9 42.8,38.9 42.8,38.9 42.8,38.9 						"/>
						<polygon fill="#808181" points="41.1,51 41.1,51 41.1,51 						"/>
						<polygon fill="#808181" points="46,39.7 46,39.7 46,39.7 						"/>
						<path fill="#808181" d="M40,50.7C40,50.7,40,50.7,40,50.7C40,50.7,40,50.7,40,50.7z"/>
						<path fill="#808181" d="M39.5,50.7L39.5,50.7C39.5,50.7,39.5,50.7,39.5,50.7z"/>
						<path fill="#808181" d="M39.1,50.6C39.1,50.6,39.1,50.6,39.1,50.6L39.1,50.6L39.1,50.6z"/>
						<path fill="#808181" d="M44.4,49.4C44.4,49.4,44.4,49.4,44.4,49.4C44.4,49.4,44.4,49.4,44.4,49.4z"/>
						<path fill="#808181" d="M43.3,50.7C43.3,50.6,43.3,50.6,43.3,50.7C43.3,50.6,43.3,50.6,43.3,50.7z"/>
						<polygon fill="#808181" points="44.5,47.6 44.5,47.6 44.5,47.6 						"/>
						<path fill="#808181" d="M43.4,50.6C43.4,50.6,43.4,50.6,43.4,50.6C43.4,50.6,43.4,50.6,43.4,50.6z"/>
						<polygon fill="#808181" points="37.5,50.2 37.5,50.2 37.5,50.2 						"/>
						<path fill="#808181" d="M37.5,50.2L37.5,50.2C37.5,50.3,37.5,50.3,37.5,50.2z"/>
						<path fill="#808181" d="M37.4,50.2L37.4,50.2C37.5,50.2,37.5,50.2,37.4,50.2z"/>
						<path fill="#808181" d="M38,50.4L38,50.4C38,50.4,38,50.4,38,50.4z"/>
						<path fill="#808181" d="M38.2,50.4c0,0-0.1-0.1-0.1-0.1l0,0C38,50.4,38.1,50.4,38.2,50.4z"/>
						<path fill="#808181" d="M38.7,50.8l-0.1,0c0,0,0,0.1,0,0.1C38.8,50.9,38.6,50.7,38.7,50.8z"/>
						<path fill="#808181" d="M39.1,50.9C39.1,50.9,39.1,50.9,39.1,50.9C39.2,50.9,39.2,50.9,39.1,50.9z"/>
						<path fill="#808181" d="M42,51.1L42,51.1C42.1,51.1,42,51.1,42,51.1z"/>
						<polygon fill="#808181" points="42.6,50.8 42.5,50.8 42.5,50.8 						"/>
						<polygon fill="#808181" points="43,51.1 42.9,51.1 43,51 						"/>
						<path fill="#808181" d="M44.8,46.9L44.8,46.9C44.8,47,44.9,47,44.8,46.9z"/>
						<path fill="#808181" d="M44.8,45.3C44.8,45.3,44.9,45.2,44.8,45.3C44.9,45.2,44.8,45.2,44.8,45.3z"/>
						<polygon fill="#808181" points="46.7,39.6 46.8,39.7 46.7,39.6 						"/>
					</g>
				</g>
			</g>
		</g>
	</g>
	<g>
		<circle fill="#808181" cx="26.1" cy="41" r="2"/>
	</g>
	<g>
		<g>
			<g>
				<g>
					<g>
						<path fill="#808181" d="M51.4,58.6C51.4,58.6,51.4,58.6,51.4,58.6L51.4,58.6L51.4,58.6z"/>
						<path fill="#808181" d="M51.6,58.6c0,0,0-0.1,0-0.2C51.5,58.5,51.5,58.5,51.6,58.6C51.5,58.6,51.5,58.6,51.6,58.6
							c-0.1,0-0.1,0-0.1,0C51.5,58.6,51.5,58.6,51.6,58.6C51.6,58.5,51.6,58.6,51.6,58.6z"/>
						<path fill="#808181" d="M53.9,57.3L53.9,57.3C53.9,57.3,53.9,57.3,53.9,57.3z"/>
						<path fill="#808181" d="M55.3,56.4C55.3,56.4,55.3,56.4,55.3,56.4C55.3,56.4,55.3,56.4,55.3,56.4z"/>
						<path fill="#808181" d="M55.6,56.3L55.6,56.3C55.6,56.3,55.6,56.3,55.6,56.3z"/>
						<path fill="#808181" d="M53.9,57.3L53.9,57.3C54,57.3,53.9,57.3,53.9,57.3z"/>
						<path fill="#808181" d="M51.8,58.3C51.8,58.3,51.8,58.3,51.8,58.3L51.8,58.3L51.8,58.3z"/>
						<polygon fill="#808181" points="53.3,57.7 53.3,57.7 53.3,57.8 						"/>
						<path fill="#808181" d="M52.8,58C52.9,58,52.8,58,52.8,58C52.8,58,52.8,58,52.8,58C52.8,58,52.8,58,52.8,58z"/>
						<path fill="#808181" d="M52,58.4L52,58.4L52,58.4z"/>
						<path fill="#808181" d="M53.7,57.5C53.7,57.5,53.7,57.5,53.7,57.5L53.7,57.5z"/>
						<path fill="#808181" d="M64.7,46.7L64.7,46.7C64.7,46.7,64.7,46.7,64.7,46.7z"/>
						<polygon fill="#808181" points="65.3,46.3 65.3,46.3 65.3,46.3 						"/>
						<path fill="#808181" d="M56.1,56.1L56.1,56.1C56.1,56.1,56.1,56.1,56.1,56.1z"/>
						<path fill="#808181" d="M59.8,53.1C59.7,53.1,59.8,53,59.8,53.1C59.7,53,59.7,53.1,59.8,53.1z"/>
						<path fill="#808181" d="M51.8,58.3L51.8,58.3C51.8,58.2,51.8,58.3,51.8,58.3z"/>
						<polygon fill="#808181" points="59.7,53 59.7,53 59.7,53 						"/>
						<path fill="#808181" d="M57,55.4C57,55.3,57,55.3,57,55.4C57,55.3,57,55.4,57,55.4z"/>
						<path fill="#808181" d="M56.2,55.8L56.2,55.8C56.3,55.8,56.3,55.8,56.2,55.8z"/>
						<path fill="#808181" d="M57.3,55C57.3,55,57.4,55,57.3,55L57.3,55C57.4,55,57.3,55,57.3,55z"/>
						<path fill="#808181" d="M57.7,54.7C57.7,54.7,57.7,54.7,57.7,54.7L57.7,54.7L57.7,54.7z"/>
						<path fill="#808181" d="M63.9,47.9C63.9,47.9,64,47.9,63.9,47.9C63.9,47.9,64,47.8,63.9,47.9z"/>
						<path fill="#808181" d="M51.8,58.3C51.8,58.3,51.8,58.3,51.8,58.3C51.8,58.3,51.8,58.3,51.8,58.3
							C51.8,58.3,51.8,58.3,51.8,58.3z"/>
						<path fill="#808181" d="M57.1,54.7L57.1,54.7C57.1,54.6,57.1,54.6,57.1,54.7z"/>
						<path fill="#808181" d="M61.8,50.5L61.8,50.5C61.8,50.5,61.8,50.5,61.8,50.5z"/>
						<path fill="#808181" d="M57.3,54.5C57.3,54.5,57.4,54.5,57.3,54.5C57.4,54.5,57.4,54.5,57.3,54.5L57.3,54.5z"/>
						<path fill="#808181" d="M64,47.9L64,47.9L64,47.9z"/>
						<path fill="#808181" d="M64.2,47.4c0,0.1,0,0.1,0.1,0.1c0,0.1-0.1,0-0.1,0c0,0.1,0,0.1,0,0.2c0,0,0,0,0,0
							c0,0.1-0.1,0.1-0.1,0.2l0,0c0,0,0.1,0,0.1,0c0,0,0,0.1,0,0.1c0,0,0,0,0,0l0,0c-0.1,0,0-0.1,0-0.1c0,0.1,0,0.2-0.1,0.2
							c-0.1,0,0.1-0.1,0-0.1l0.1,0c-0.1,0,0,0-0.1-0.1c-0.1,0.1,0,0.1-0.1,0.2c0,0,0,0,0.1,0.1c0,0.2-0.2,0-0.2,0.1
							c0,0,0.1,0.1,0,0.1l0-0.1c-0.1,0.1,0.1,0.1-0.1,0.2c0,0,0-0.1,0-0.1c-0.1,0,0,0.1,0,0.1l-0.1,0c-0.1,0.1-0.1,0.2-0.2,0.3
							c0,0,0,0,0,0c-0.1,0.1-0.2,0.2-0.3,0.3l0,0.1c0,0,0,0,0,0c-0.1,0,0,0,0,0.1c0,0-0.1,0-0.1,0c0,0.1-0.1,0.3-0.2,0.3l0,0
							c-0.1,0,0,0.1-0.1,0.2l0,0c-0.1,0.1-0.2,0.3-0.4,0.3c0,0.1-0.1,0.1-0.1,0.2c-0.1,0-0.1,0-0.2,0.1c0,0,0,0.1,0,0.1l0,0l0,0.1
							l-0.1,0l0,0c0,0,0,0,0.1,0c0,0.1-0.1,0.1-0.2,0.1l-0.1,0.2c0,0,0,0,0-0.1c0,0.1-0.1,0-0.1,0.1c0,0,0,0,0,0
							c-0.1,0-0.1,0.1-0.1,0.1l0,0c-0.1,0.1-0.2,0.2-0.3,0.3c0,0,0.1,0,0.1,0.1l-0.1,0c0,0,0,0,0,0.1c0,0-0.1,0-0.1-0.1l0,0.1
							c0,0,0,0,0,0c0,0-0.1,0-0.1,0.1l0,0c-0.1,0.1-0.1,0.2-0.2,0.2c0,0,0,0.1,0,0.1c-0.1,0-0.2,0.1-0.2,0.1c0,0.1,0,0,0,0.1
							c0,0-0.1,0-0.1,0c-0.1,0.1-0.1,0.1-0.2,0.2c0,0,0,0,0,0c0,0-0.1,0-0.1,0l0,0c-0.1,0.2-0.4,0.2-0.4,0.3l0,0l-0.1,0.1
							c-0.1,0,0-0.1-0.1,0c-0.1,0.2-0.2,0.1-0.2,0.3c-0.2,0-0.2,0.2-0.4,0.2l0,0c0,0,0,0-0.1,0c0,0,0,0,0,0
							c-0.2,0.2-0.5,0.3-0.7,0.5c-0.1,0.1,0.1,0.2-0.1,0.2l0-0.1c-0.1,0.2-0.3,0.3-0.4,0.5c0,0,0,0,0,0c-0.1,0-0.1,0.1-0.1,0.1
							c0,0,0,0-0.1,0c-0.1,0,0,0.1-0.1,0.1c0,0,0,0,0,0c0,0-0.1,0.1-0.1,0.1c-0.1,0-0.1,0.1-0.2,0.1c0,0.1-0.1,0.1-0.1,0.1
							c0-0.1-0.2,0-0.2,0.1c0,0-0.1,0-0.1,0c0,0-0.1,0.1,0,0.1c-0.1,0-0.1,0.2-0.2,0.1c-0.1,0.1-0.2,0.3-0.3,0.4
							c0-0.1,0.1-0.1,0.1-0.2c-0.1,0.1-0.1,0.2-0.2,0.3c0,0,0,0,0-0.1c-0.1,0.1-0.2,0.1-0.3,0.3c0,0,0,0,0,0c0,0-0.1,0,0,0.1l0,0
							c0.1,0,0,0.2,0,0.2c0-0.1-0.1,0-0.1-0.1c0,0,0,0,0,0.1c0,0,0,0,0,0c-0.1,0.1,0,0.1-0.1,0.1c0,0,0,0,0-0.1c0,0.1,0,0.1-0.1,0.1
							c0,0,0,0,0,0c-0.1,0.1-0.1,0.2-0.2,0.2c0-0.1-0.1,0-0.1-0.1l0,0.1l0,0c0,0-0.1,0.1-0.1,0.1l0-0.1l-0.1,0.1l0.1,0
							c0,0.1,0.1,0.1,0,0.1c0,0,0,0-0.1,0l0,0c0,0,0,0.1-0.1,0.1c0,0,0-0.1-0.1-0.1c0,0.1-0.1,0.1-0.1,0.2c0,0,0-0.1,0-0.1l0,0.1
							c0,0,0,0-0.1,0c-0.1,0,0.1,0.1,0,0.1c0,0,0,0,0,0c-0.1,0-0.1,0.1-0.2,0.2c-0.1,0,0.1-0.1,0-0.1c-0.1,0.1-0.2,0.2-0.3,0.3l0,0
							c0,0.1-0.1,0-0.1,0.1c0,0,0-0.1,0,0c-0.1,0-0.1,0.1-0.2,0.2l0,0c-0.1,0-0.1,0.1-0.2,0.1c0,0,0,0,0,0.1c-0.2,0-0.2,0.2-0.4,0.2
							c0,0,0,0,0,0l-0.1,0.1c0,0,0,0,0.1,0c0,0,0,0.1,0,0.1c0-0.1,0-0.1-0.1-0.1c0,0,0,0,0,0c-0.1,0,0,0.1-0.1,0.1l0,0
							c0,0,0,0.1-0.1,0.1c0,0,0,0,0-0.1c0,0,0,0.1-0.1,0.1c0,0,0,0,0.1-0.1c-0.1,0-0.1,0-0.1,0l0,0l-0.1,0l0,0
							c0,0.1-0.1,0.1-0.1,0.2c0-0.1,0,0,0-0.1c0,0-0.1,0-0.1,0c0,0.1-0.1,0-0.1,0.1c0,0,0,0-0.1,0c0,0,0,0,0,0c0,0.1-0.2,0-0.3,0.2
							c-0.1,0.1-0.1,0.1-0.1,0.2c0,0,0-0.1,0-0.1c-0.1,0-0.1,0-0.1,0.1c0,0,0,0,0,0c0,0,0,0.1,0,0.1c0,0,0-0.1,0-0.1
							c0,0-0.1,0.1-0.1,0.1c0,0,0-0.1,0-0.1c0,0-0.1,0.1-0.1,0.2l0,0c0,0,0,0,0,0c0-0.1,0.1,0,0.1,0l0,0c0.1,0.1,0.1-0.1,0.2-0.1
							l0,0.1l0-0.1c0,0,0.1,0,0,0.1c0.1,0,0,0,0.1,0c0,0,0,0,0,0l0,0c0,0,0,0,0,0.1c0.1,0,0.1-0.1,0.2-0.1l0,0c0.1-0.1,0-0.1,0-0.2
							l0.1,0.1l0-0.1c0,0,0,0,0,0c0-0.1,0,0,0-0.1c0.1,0,0.1-0.1,0.2,0c0,0-0.1,0,0-0.1c0.1,0.1,0.1-0.1,0.1,0c0,0.1,0,0.1,0,0.1
							c0-0.1,0.1,0,0.1-0.1c0-0.1,0.1-0.1,0.1-0.1c0,0,0.1,0,0.2-0.1l0,0c0-0.1,0-0.1,0.1-0.1c0,0,0,0.1,0,0.1l0,0c0,0,0,0,0-0.1
							l0,0.1c0.1,0,0.1-0.1,0.2-0.1c0,0-0.1-0.1-0.1-0.2c0,0,0,0.1,0,0.1c0,0,0,0,0,0l0,0.1c0,0,0,0,0-0.1c0,0,0,0,0,0c0,0,0,0,0,0
							c0,0,0.1,0,0.1,0c0,0,0,0,0-0.1c0.1,0,0,0,0.1,0c0,0,0.1,0,0-0.1c0,0,0,0,0,0c0,0,0.1-0.1,0.1-0.1l0,0l0,0l0,0l0,0
							c0.1-0.1,0.2-0.1,0.3-0.2l0,0c0-0.1,0.1-0.1,0.1-0.2c0,0,0.1,0,0.1,0c0,0,0-0.1,0.1-0.1c0,0.1,0,0,0,0c0.1,0,0.1,0,0.1-0.1
							c0,0.1,0.1,0,0.1,0l-0.1,0c0,0,0.1,0,0.1-0.1l0,0.1c0.2,0,0.1-0.2,0.3-0.2c0-0.1-0.1,0-0.1,0c0.1,0,0.2,0,0.2,0
							c0.1,0,0-0.1,0.1-0.2c0,0-0.1-0.1,0-0.1c0.1,0,0.1,0,0.1,0.1c0,0,0,0,0,0c0,0,0,0,0,0l0,0c0,0,0.1-0.1,0.1,0c0,0,0,0,0,0
							c0.1,0,0.1-0.1,0.2-0.1c0,0,0,0,0,0c0.1,0,0-0.1,0.1-0.1c0.1,0,0,0.1,0.1,0c0.1,0,0,0,0,0.1c0-0.1,0.1-0.1,0.2-0.1l0,0
							c0,0,0,0,0,0l0,0c0,0,0,0,0.1,0c0,0-0.1-0.1,0-0.1c0,0,0.1-0.1,0.1,0c-0.1,0,0,0,0,0.1c0,0,0,0,0.1,0c0,0,0,0,0,0
							c0.1,0,0-0.1,0.1-0.1c0,0,0.1,0,0.1,0c0,0,0,0,0-0.1c0.1,0,0-0.1,0.1-0.1l0,0c0,0,0-0.1,0-0.1c0,0,0,0,0,0
							c0-0.1,0.1,0,0.2-0.1c0,0,0,0.1,0.1,0c0-0.1,0.1,0,0.1-0.1c0,0,0,0,0-0.1l-0.1,0.1l0-0.1c0,0-0.1,0.1-0.1,0.1c0-0.1,0,0,0-0.1
							c0.1,0,0.1-0.1,0.1-0.1l0.1,0.1c0.1,0,0.1-0.2,0.2-0.2l0,0c0,0,0.1-0.1,0.1-0.1c0,0,0,0,0.1,0c0,0,0.1-0.1,0-0.1l0.1,0
							c0.1,0,0-0.2,0.1-0.2c0,0.1,0.1,0,0,0.1c0,0,0.1,0,0-0.1c0,0,0-0.1,0.1-0.1c0,0,0-0.1,0-0.1c0,0,0,0,0,0c0,0,0-0.1,0-0.1
							c0.2,0,0.2-0.2,0.3-0.1c0-0.1,0.1-0.1,0.2-0.2c0,0,0,0,0,0c0.1,0,0-0.1,0.1-0.1c0.1,0,0,0.1,0,0.1c0.1,0.1,0.1-0.1,0.2-0.1
							l0,0c0.1,0,0.1-0.1,0.1-0.2c0,0,0,0,0,0c0-0.1,0.1-0.2,0.1-0.2c0,0.1,0,0,0,0.1c0,0-0.1-0.1,0-0.1c0,0,0.1,0,0.1,0l-0.1,0
							c0.1,0,0.1-0.1,0.1-0.1l0,0c0.1-0.1,0-0.1,0.1-0.2l0,0c0-0.1,0.1,0,0.1-0.1l0.1,0c0,0,0.1-0.1,0.1-0.2c0,0.1,0,0.1-0.1,0.2
							c0,0,0.1-0.1,0.1-0.1c0,0,0,0,0,0c0-0.1,0-0.1,0.1-0.2c0.1,0.1,0.2-0.1,0.3-0.1c0.1-0.1,0.2-0.2,0.3-0.3c-0.1,0,0,0-0.1-0.1
							c0,0,0,0,0,0l0.1,0c0,0,0,0,0,0.1c0.1-0.1,0.1,0,0.1,0c0,0,0-0.1,0-0.1l-0.1,0c0-0.1,0.1,0,0.2-0.1l0,0.1
							c0-0.1,0.2-0.2,0.1-0.3c0,0,0.1,0,0,0c0.1-0.1,0.2-0.3,0.3-0.3l0,0c0,0,0-0.1,0-0.1c0,0,0,0,0,0c0,0,0-0.1,0.1-0.1l0,0
							c0.1-0.1,0.1-0.2,0.2-0.3c0.1,0.1,0.2,0,0.2,0l0,0c0.1-0.1,0.2-0.2,0.2-0.4c0.1,0,0.3-0.2,0.4-0.3c0,0,0,0,0-0.1
							c0,0,0-0.1,0.1-0.1l0,0c0.1,0,0.1,0,0.2-0.1L61.8,51c0.2,0,0.2-0.3,0.4-0.3c0,0,0-0.1,0-0.1l0,0c0.1-0.1,0.1-0.1,0.2-0.2l0,0
							c0-0.1-0.1-0.2,0-0.2l0.1,0c0.1-0.1,0.2-0.1,0.2-0.3c0,0,0,0,0,0c0,0,0.2-0.1,0.1-0.2c0.1,0,0.1-0.1,0.1-0.2l0,0
							c0-0.1,0-0.1,0-0.2c0,0,0,0,0,0c0.1,0,0-0.1,0.1-0.1l0,0c0,0,0-0.1,0-0.1c0,0,0.1-0.1,0.1-0.1c0,0,0-0.1,0-0.1c0,0,0,0,0,0
							c0.1-0.1,0.1-0.2,0.1-0.2c0,0,0,0,0,0c-0.1,0.1-0.1,0.1-0.1,0.1c0,0,0.1,0,0.1,0.1c0-0.1,0-0.2,0.1-0.2l0,0l0,0c0,0,0,0,0,0
							c0,0,0,0,0,0c0,0,0.1,0,0.1-0.1c0,0,0-0.1-0.1-0.1c0,0,0,0,0,0c0,0,0,0,0,0l0,0c0,0,0,0-0.1,0.1c0,0,0-0.1,0-0.1
							c0,0,0-0.1,0-0.1c0.1,0,0.2,0,0.2,0c0-0.1,0.1-0.2,0.1-0.3c0,0,0,0,0.1,0c0,0,0,0,0,0.1c0-0.1,0.1-0.1,0-0.2
							c0.1,0,0,0.1,0.1,0l0,0c0.2-0.1,0-0.4,0.3-0.5c0,0,0,0,0,0c0.2-0.2,0.3-0.5,0.5-0.6c0.1,0,0-0.1,0-0.1l0.1,0l0-0.1
							c0-0.1,0.2-0.1,0.2-0.2l0,0c0,0,0.1-0.1,0.1-0.1c0,0,0,0,0,0l0,0l0-0.1c0.1-0.1,0.1,0.1,0.2,0c0,0,0-0.2,0-0.2c0,0,0,0-0.1,0
							l0,0c-0.1,0-0.1-0.1-0.2-0.1l0,0.1l-0.1,0l0-0.1c-0.1,0,0,0,0,0.1c0,0,0,0-0.1,0l0,0.1c0,0,0-0.1-0.1,0c0,0.1,0.1,0,0.1,0.1
							c-0.1,0-0.1,0-0.1,0c0,0,0,0,0,0c0,0,0,0.1,0,0.1c-0.1,0-0.1,0.1-0.1,0.1c0,0,0,0.1,0,0.1c-0.1-0.1-0.1,0.1-0.2,0
							c0.1,0.1-0.1,0.2-0.1,0.3c0,0,0,0,0,0c0,0-0.1,0-0.1,0c0.1,0,0,0.1,0.1,0.2c-0.1,0-0.1-0.1-0.1-0.1c0.1,0,0,0.1,0,0.1
							c-0.1,0,0,0-0.1,0c0.1,0.1,0,0,0,0.1C64.2,47.5,64.2,47.4,64.2,47.4C64.1,47.5,64.2,47.4,64.2,47.4z M63.3,48.9L63.3,48.9
							C63.3,48.8,63.3,48.8,63.3,48.9C63.3,48.8,63.3,48.8,63.3,48.9z M63.2,49L63.2,49C63.3,48.9,63.3,48.9,63.2,49
							C63.3,48.9,63.2,49,63.2,49z M63.7,49C63.7,49,63.7,49,63.7,49C63.7,49,63.7,49,63.7,49L63.7,49C63.7,48.9,63.7,49,63.7,49z"
							/>
						<polygon fill="#808181" points="63.7,48.9 63.7,48.9 63.6,48.9 63.6,48.9 						"/>
						<polygon fill="#808181" points="53.9,57.3 53.9,57.3 53.9,57.3 						"/>
						<polygon fill="#808181" points="61.8,50.4 61.9,50.4 61.9,50.4 						"/>
						<path fill="#808181" d="M53.1,57.6C53.1,57.6,53.1,57.6,53.1,57.6C53.1,57.6,53.1,57.6,53.1,57.6z"/>
						<path fill="#808181" d="M52.8,57.7L52.8,57.7C52.8,57.7,52.8,57.7,52.8,57.7z"/>
						<path fill="#808181" d="M52.6,57.8C52.6,57.8,52.6,57.8,52.6,57.8L52.6,57.8L52.6,57.8z"/>
						<path fill="#808181" d="M56,55.5C56,55.5,56,55.5,56,55.5C56,55.5,56,55.5,56,55.5z"/>
						<path fill="#808181" d="M55.1,56.3C55.1,56.3,55.1,56.3,55.1,56.3C55.1,56.3,55.1,56.3,55.1,56.3z"/>
						<polygon fill="#808181" points="57.1,54.7 57.1,54.7 57.1,54.7 						"/>
						<path fill="#808181" d="M55.2,56.3C55.1,56.3,55.1,56.3,55.2,56.3C55.1,56.3,55.1,56.3,55.2,56.3z"/>
						<polygon fill="#808181" points="51.6,58.4 51.6,58.4 51.6,58.4 						"/>
						<path fill="#808181" d="M51.6,58.4L51.6,58.4C51.6,58.4,51.6,58.4,51.6,58.4z"/>
						<path fill="#808181" d="M51.6,58.4L51.6,58.4C51.6,58.4,51.6,58.4,51.6,58.4z"/>
						<path fill="#808181" d="M51.9,58.2L51.9,58.2C51.9,58.2,51.9,58.2,51.9,58.2z"/>
						<path fill="#808181" d="M52,58.2C52,58.2,51.9,58.2,52,58.2L52,58.2C51.9,58.2,52,58.2,52,58.2z"/>
						<path fill="#808181" d="M52.5,58.2L52.5,58.2C52.4,58.2,52.5,58.2,52.5,58.2C52.6,58.2,52.4,58.2,52.5,58.2z"/>
						<path fill="#808181" d="M52.8,58C52.7,58.1,52.8,58.1,52.8,58C52.8,58.1,52.8,58,52.8,58z"/>
						<path fill="#808181" d="M54.4,57L54.4,57C54.5,57,54.4,57,54.4,57z"/>
						<polygon fill="#808181" points="54.6,56.6 54.6,56.6 54.6,56.6 						"/>
						<polygon fill="#808181" points="55,56.8 55,56.8 55,56.7 						"/>
						<path fill="#808181" d="M57.7,54.8L57.7,54.8C57.6,54.8,57.7,54.8,57.7,54.8z"/>
						<path fill="#808181" d="M58.7,53.9C58.8,53.9,58.8,53.9,58.7,53.9C58.8,53.8,58.8,53.8,58.7,53.9z"/>
						<polygon fill="#808181" points="61.9,51 61.9,51 62,51 						"/>
					</g>
				</g>
			</g>
		</g>
	</g>
</g>
</svg>
