<?xml version="1.0" encoding="utf-8"?>
<!-- Generator: Adobe Illustrator 23.1.0, SVG Export Plug-In . SVG Version: 6.00 Build 0)  -->
<svg version="1.1" id="Capa_1" xmlns="http://www.w3.org/2000/svg" xmlns:xlink="http://www.w3.org/1999/xlink" x="0px" y="0px"
	 viewBox="0 0 89.2 89.2" enable-background="new 0 0 89.2 89.2" xml:space="preserve">
<g>
	<g>
		<path fill="#F4DDA3" d="M44,37.4c0,0,7.6-23.1-18.3-22.2c0,0-25.4,0.8-17.9,22.2c0,0,1.8,9.3,17.8,8.3
			C25.7,45.8,40.9,46.7,44,37.4z"/>
		<g>
			<g>
				<g>
					<g>
						<path fill="#808181" d="M43.9,37.1c-0.1,0.4,0.1-0.2-0.1,0.3C43.9,37.3,43.9,37.3,43.9,37.1z"/>
						<path fill="#808181" d="M43.4,38.7c-0.2,0.6-0.6,1.3-1.1,1.9c-0.5,0.6-1.1,1.1-1.7,1.6c-0.1,0.1,0-0.1-0.3,0.1
							c-1.1,1-3.1,1.9-4.8,2.2l0.1-0.1c-0.3,0.1-0.7,0.3-1,0.3c0,0,0.1-0.1,0-0.1c-0.1,0.1-0.6,0.2-0.7,0.2c-0.1,0-0.1,0-0.3,0
							l-0.2,0.1c-0.5,0.3-1.3,0.2-2.1,0.4c0,0,0.1,0,0,0c-1.2,0.2-2.7,0.3-4.1,0.4c0.1,0,0.1-0.1,0-0.1c-0.1,0.1-0.5,0.1-0.8,0.1
							c-0.2-0.1-0.6,0-1,0l0,0c-0.3,0.1-0.5,0-0.7,0.1l-0.2,0c-0.1,0.1-0.5,0-0.7,0l0,0c-0.2,0-0.4,0-0.6,0l0,0
							c-0.5,0-0.8-0.1-0.8,0c-0.2-0.1,0.5,0,0.2-0.1c-1.8,0-3.6-0.2-5.3-0.6c-0.2-0.1-0.3-0.1-0.3-0.1c-0.2,0-0.6-0.1-0.8-0.2
							c0.1,0-0.1-0.1-0.2-0.1c-0.3-0.1-0.4,0-0.7-0.2c0.1,0,0.2,0,0.2,0c-0.3-0.1-0.7-0.2-1-0.3c0.1,0,0.1,0,0.1,0
							c-0.4-0.1-0.6-0.3-1-0.4l0.1,0c-0.5-0.3-0.2,0-0.6-0.2c0.1,0,0.1,0,0.1,0c-0.4-0.1-1-0.6-1.4-0.8c0,0,0,0,0,0
							c-0.4-0.3-0.8-0.6-1.2-0.9c-0.1-0.1,0.1,0-0.3-0.4c0,0.1-0.6-0.6-0.5-0.3c-0.3-0.3-0.7-0.9-0.9-1.1c0.1,0.1,0-0.2,0.2,0.1
							l-0.1-0.3c0,0,0.1,0.2,0.1,0.1c-0.1-0.2-0.4-0.6-0.5-0.7c-0.2-0.3-0.4-0.5-0.7-1c0.1,0.2,0-0.2,0.1,0
							c-0.1-0.2-0.3-0.4-0.4-0.7c-0.1-0.2,0.1-0.1,0-0.3c0,0-0.1-0.1-0.1-0.2c0-0.1-0.2-0.7-0.2-0.8c0-0.1,0.1,0.3,0.1,0.1
							c-0.1-0.3-0.1-0.3-0.2-0.6l0,0c-0.1-0.2-0.2-0.6-0.2-0.4c0,0.1,0-0.1,0.1,0.2c-0.1-0.1-0.2-0.5-0.3-0.8C7,34.9,7,34.9,7,34.9
							c-0.2-0.4-0.3-0.9-0.4-1.4c0,0,0.1,0.2,0.1,0.2c-0.1-0.6-0.3-1.3-0.3-1.9c0,0.1,0,0.1,0,0c0-0.3,0-0.3,0-0.5c0,0,0-0.3,0-0.5
							c0-0.1,0-0.1,0,0.1c0-0.1-0.1-0.5-0.1-0.9c0-0.4,0-0.9,0.1-1.2c0,0,0-0.4,0-0.6l0,0.1c0-0.1,0.1-0.5,0.1-0.5
							c0-0.3-0.1,1.3-0.1,0.8c0.1-0.1,0-0.6,0.1-0.5c0-0.3,0-0.6,0.1-0.9c0,0.1,0,0.3,0.1,0c0.1-0.4,0-0.1,0.1-0.5l0-0.2
							c0,0,0.1-0.4,0-0.2c0,0,0.1-0.6,0.2-0.6l0,0.1C7,25.7,7,25.6,7,25.5c0,0,0-0.1,0-0.1C7,25.3,7.2,25,7.3,24.7
							c0.2-0.3,0.5-0.9,0.6-1.1c0.1-0.3,0.3-0.5,0.5-0.8c0,0.1-0.1,0.1-0.1,0.2c0.1-0.2,0.1-0.2,0.3-0.4c0,0,0.3-0.3,0.5-0.5
							c0.2-0.3,0.1-0.2,0.1-0.3c0.2-0.2,0.5-0.7,0.8-0.9c-0.1,0.1-0.3,0.4-0.1,0.2c0.3-0.1,0.3-0.5,0.7-0.7l-0.1,0
							c0.2-0.1,0.5-0.5,0.5-0.4c0.1-0.1,0.4-0.3,0.4-0.3c0.6-0.4,1.5-1.1,1.9-1.2c0.1-0.1,0.3-0.2,0.3-0.2c-0.2,0.1-0.2,0.1-0.3,0.2
							c0.1,0,0.1-0.1,0.1-0.1c0.2-0.1,0.4-0.2,0.2,0c0.5-0.2,0.4-0.4,1-0.6c0,0,0,0,0.2-0.1c0.1-0.1,0.2-0.1,0.3-0.2
							c0.4-0.2,0.2,0,0.3,0c0.2-0.1,0.5-0.2,0.5-0.3l0.3,0c-0.2,0,0.2-0.1,0.3-0.1l-0.1,0c0,0,0.3-0.1,0.4-0.2c0,0-0.3,0.1-0.4,0.1
							c0.1-0.1,0.3-0.1,0.4-0.2c0,0.1,0.4-0.1,0.5-0.1c0.2-0.1,0.2-0.1,0.3-0.1c0,0,0.3-0.1,0.2,0c-0.1,0-0.2,0-0.3,0.1
							c0.1,0,0.1,0,0.4-0.1c0.2-0.1-0.1-0.1,0.3-0.2c-0.1,0-0.1,0.1-0.2,0.1l0.4-0.1l0,0c0.1,0,0,0,0,0c0.1-0.1,0.5-0.2,0.6-0.3
							C19,16,19.2,16,19.4,16l0,0c0.2,0,0.5-0.1,0.7-0.2l0,0c0.1,0,0.4-0.1,0.5-0.2c0.3,0,0.1,0.1,0.5,0c0.3-0.1,0.5-0.2,0.3-0.2
							c0.6-0.1,1.2-0.3,1.7-0.3c0.1,0,0,0,0.2-0.1c0.8-0.1,1.7-0.3,2.4-0.2c-0.2,0,0,0,0,0.1c0.2-0.1,0.2,0,0.3,0c0,0,0-0.1-0.2-0.1
							c0.5,0,1.2,0,1.5,0c-0.1,0,0,0,0.1,0c0,0.1,0.3,0.1,0.6,0.1l0,0l0.2,0c0.1,0,0.1-0.1,0.4,0c0,0,0,0,0.1,0c0.3,0,0.7-0.1,1,0
							l0.2,0.1c0.1,0,0.4,0,0.1-0.1c0.5,0.1,0.9,0.1,1,0.2c0.9,0,2.2,0.2,3.2,0.4l0,0c0.3,0.1,0.2,0,0.3,0.1c-0.1,0,0.2,0.1,0,0.1
							c0.4,0.1,0.5,0.1,0.8,0.1c0.1,0-0.2,0-0.1-0.1c0,0,0.5,0.2,0.6,0.1c0.1,0.1,0,0.1-0.1,0.1c0.1,0,0.2,0,0.2,0.1
							c0.3,0.2-0.7-0.1-0.4,0.1l0.2,0.1c0.2,0.1-0.6-0.1-0.1,0.1c0.2,0.1,0.5,0,0.3-0.1c0.5,0.2,0.3-0.1,0.8,0.1
							c0.1,0.1-0.4-0.2-0.3-0.1c0.2,0.1,0.5,0.2,0.7,0.3c-0.2-0.1,0-0.1,0.2,0c0.2,0.1-0.2,0,0.2,0.2c0.1,0,0.4,0.1,0.1,0
							c0.2,0,0.4,0.2,0.6,0.2c0.1,0.1-0.4-0.1,0,0.2c0-0.1,0.5,0.2,0.4,0c0.1,0.1,0.1,0.1,0,0.1c0.2,0.1,0.6,0.2,0.6,0.4l0.1,0
							c0.1,0.1,0.1,0.1,0.2,0.2c0.2,0.1,0.6,0.3,0.6,0.4c0.1,0,0.5,0.3,0.3,0.2c-0.2-0.2-0.3-0.2-0.4-0.4c0.1,0.2,0.4,0.3,0.5,0.4
							l0,0c0.1,0.1,0.3,0.2,0.4,0.2c-0.1,0-0.1,0,0,0.1l0.1,0c0.3,0.3,0,0.1,0.3,0.4L40.9,19c0.1,0,0.1,0.2,0.3,0.3
							c0.1,0,0.2,0.1,0.3,0.1c0.2,0.2,0,0.1,0.2,0.2l-0.3-0.2c0,0,0.1,0.2,0.3,0.4c0.1,0.1,0.4,0.3,0.2,0.1c0.1,0.1,0.2,0.3,0.1,0.2
							c0.2,0.3,0-0.1,0.2,0.2c0.1,0.1,0.3,0.5,0.4,0.7l-0.2-0.2l0.1,0.2c-0.2-0.2,0,0.1-0.1,0.1c0.1,0.1,0.2,0.3,0.3,0.4
							c-0.2-0.4,0.4,0.3,0.4,0.2c0.3,0.5,0,0.4,0.4,0.9c0-0.1,0.2,0.1,0-0.2c0.2,0.3,0.2,0.2,0.4,0.6c-0.2-0.3,0.1,0.4-0.2,0
							c0,0-0.1-0.2-0.1-0.3c0,0.2-0.1,0,0.1,0.3c0.1,0.2,0.2,0.5,0.3,0.4c0,0-0.1-0.3,0-0.2c0.2,0.4,0.2,0.5,0.3,0.6
							c-0.1-0.3-0.1-0.3-0.1-0.4l0.2,0.3l-0.1,0c0.2,0.5,0.1,0.1,0.3,0.6l0,0.3c-0.1-0.1-0.2-0.7-0.3-0.6c0.1,0.3,0.2,0.4,0.3,0.7
							c0-0.1-0.1-0.1-0.1-0.2c0,0.1,0,0.3,0.2,0.7c0.1,0.2,0.1,0.1,0.1,0c0.2,0.5,0.2,0.7,0.3,1c-0.1-0.1,0.1,0.6,0,0.2
							c0-0.2-0.2-1-0.3-1.1c0,0.2-0.1-0.4-0.2-0.5c0.1,0.4,0,0.4,0,0.5c0,0.1,0.1,0.2,0.1,0.3c0.1,0,0-0.1,0.1-0.1
							c0.1,0.5,0.2,0.9,0.3,1.2c0,0.2-0.1,0.1-0.1-0.1c0.1,0.6,0.2,1.2,0.2,1.7c0.1-0.4,0.1,0.6,0.1,0.4c0-0.3,0-0.6,0.1-0.4
							c0,0.2,0,0,0,0.1c0.1,0.2,0,0.4,0,0.6c-0.1-0.5-0.1-0.1-0.2-0.2c0.1,0.4,0,0,0,0.4c0,0.4,0.1,0.8,0.1,1.2
							c-0.1,0.5,0,1.3-0.1,1.8c-0.1,0.2-0.1,0.1-0.2,0.3c0,0.3,0.1-0.2,0,0.2l0,0c0,0.1-0.1,0.8-0.1,1l-0.1-0.2c0,0.1,0,0.2,0,0.2
							c0,0-0.1,0.1-0.1,0c-0.1,0.3-0.1,0.6-0.1,0.9l0.1-0.2c0,0.5-0.2,0.9-0.3,1.4l0,0l0,0.3c0-0.1-0.1,0.2-0.1,0.3l0.1-0.8
							c0.1-0.2,0,0.2,0.1,0.1c0.1-0.1,0.1-0.6,0.1-0.7c0,0.2,0,0.2,0,0.3c-0.1,0,0-0.2,0-0.4c0,0.1-0.1,0.2,0,0.2
							c0-0.2,0-0.4,0.1-0.7c0,0.2,0.1-0.1,0.1,0c-0.1,0,0-0.3,0.1-0.7c0.1-0.3,0.1-0.7,0.1-1.1c0,0.2,0.1,0.4,0.1,0.7
							c0.1-0.3,0-0.3,0.1-0.6c0-0.1-0.1-0.2-0.1-0.6l0,0c0-0.3-0.1-0.3,0-0.7c0.1-0.7,0.1-1.4,0-2l0,0c-0.1-0.3-0.1-1-0.2-1.4
							c0-0.7-0.3-1.5-0.3-1.8c-0.3-1.2-0.7-2.2-1.2-3.3c0.1,0.1,0.1,0.1,0.1,0.2c-0.1-0.2,0-0.1-0.1-0.3c0.1,0.2-0.2-0.2-0.3-0.4
							c-0.2-0.5-0.7-1.1-1-1.4l0,0c-0.4-0.3-0.7-0.8-1.2-1.3c0-0.1-0.1-0.2-0.2-0.3c-0.3-0.2-0.4-0.3-0.9-0.5
							c-0.3-0.2-0.8-0.5-1.1-0.8c-1.2-0.6-2.5-1.2-3.9-1.5l-0.1-0.1c-1.3-0.3-3-0.6-4.2-0.7l0.1-0.1c-0.4-0.1-0.8-0.1-0.8,0
							c-0.4,0-0.9,0-1.2-0.1c-0.4,0-0.5,0-0.8,0c-0.8,0-1,0-1.8,0l0.2,0c0.1,0,0.1-0.1-0.1-0.1c-0.3,0-1,0-0.7,0.1
							c-0.8,0-1.8,0.2-2.5,0.2c0.1,0-0.1,0.1-0.2,0.1c-0.7,0.1-1.4,0.2-1.9,0.3c-0.1,0,0.2-0.1-0.1,0c-0.2,0,0,0-0.2,0.1
							c-1,0.3-2.1,0.5-3.1,0.8c-1.6,0.6-3.3,1.3-4.7,2.2l0,0c-0.4,0.4-1.1,0.7-1.4,1c-0.1,0.1-0.4,0.3-0.3,0.2
							c-0.3,0.3-1,0.8-1.3,1.3c0,0,0.1-0.1,0.1-0.1c-0.2,0.2-0.4,0.5-0.6,0.7c-0.2,0.2-0.4,0.5-0.6,0.8c0-0.1,0.1-0.2,0.1-0.2
							c-0.2,0.2-0.3,0.6-0.4,0.6c-0.1,0.1,0,0.1,0,0C7.7,25,7.2,26.5,7,28c-0.2,1.1-0.2,0-0.2,0.9c0,0.1,0,0.1,0,0.1
							c0,0.3-0.1,0.5-0.1,0.8c0.1-0.1,0,0.2,0.1,0.2c-0.1,0.7-0.1,0.8,0,1.4l0,0c0.1,0.6,0.2,1.4,0.4,1.9c0.1,0.9,0.4,1.7,0.6,2.5
							l0.4,1.2l0.1,0.3l0,0.1l0,0.1l0,0.1c0,0.2,0.1,0.4,0.2,0.6c0.6,1.5,1.7,2.8,3,3.9c1.3,1,2.7,1.8,4.3,2.3
							c0.8,0.3,1.6,0.4,2.4,0.6c0.8,0.1,1.7,0.3,2.5,0.4c0.8,0.1,0.9,0.1,1.7,0.1c0,0-0.1,0,0,0c0-0.1,0.6,0,0.7-0.1
							c0.6,0,1.2,0,1.9,0l0.5,0l0.1,0c0.1,0,0.1,0,0.2,0l0.2,0c0.3,0,0.6,0,1,0c-0.2,0-0.3,0.1-0.1,0.1l0.3,0l0,0
							c0.2,0,0.3,0,0.2-0.1c3.3-0.1,6.5-0.4,9.5-1.6c0.7-0.2,1.7-0.7,2.4-1.2c2.1-1.2,3.7-2.9,4.5-5.2c0,0,0,0.1,0,0.3
							C43.6,37.8,43.6,38.2,43.4,38.7z"/>
						<path fill="#808181" d="M44.1,36.7c0.1-0.1,0.1-0.4,0.1-0.1C44.2,36.6,44.1,36.7,44.1,36.7z"/>
						<path fill="#808181" d="M45.2,29c0,0,0-0.1,0-0.1c0,0.1,0,0.2,0,0.3C45.3,29.1,45.2,29.1,45.2,29z"/>
						<path fill="#808181" d="M45,27c0,0,0.1,0.4,0.2,0.7L45,27z"/>
						<path fill="#808181" d="M44.7,25.2C44.7,25,44.7,25.1,44.7,25.2C44.8,25.3,44.8,25.2,44.7,25.2z"/>
						<path fill="#808181" d="M44.6,25.1c0-0.1,0-0.2-0.1-0.3C44.6,24.8,44.7,25.1,44.6,25.1z"/>
						<path fill="#808181" d="M43,21.3c-0.1-0.1-0.2-0.2-0.2-0.3C42.8,21.1,43.1,21.4,43,21.3z"/>
						<path fill="#808181" d="M41.8,19.8c0,0-0.1-0.1-0.1-0.1C41.6,19.6,41.7,19.7,41.8,19.8L41.8,19.8z"/>
						<polygon fill="#808181" points="10.2,20.7 10.3,20.5 10.3,20.6 						"/>
						<path fill="#808181" d="M6.8,34.6c0.1,0.2,0,0.1,0,0.2C6.8,34.6,6.9,34.8,6.8,34.6z"/>
						<polygon fill="#808181" points="10.4,41.7 10.3,41.6 10.4,41.6 						"/>
					</g>
				</g>
			</g>
		</g>
	</g>
	<g>
		<g>
			<g>
				<g>
					<g>
						<path fill="#808181" d="M31.9,20.4C32,20.4,32,20.3,31.9,20.4L31.9,20.4L31.9,20.4z"/>
						<path fill="#808181" d="M31.8,20.2c0,0-0.1,0.1-0.1,0.1C31.7,20.3,31.7,20.3,31.8,20.2c0.1,0,0.1,0.1,0.1,0.1c0,0,0,0,0.1,0
							C31.9,20.3,31.8,20.2,31.8,20.2C31.7,20.2,31.8,20.2,31.8,20.2z"/>
						<path fill="#808181" d="M28.6,19.4L28.6,19.4L28.6,19.4z"/>
						<path fill="#808181" d="M26.6,19.2C26.6,19.2,26.6,19.1,26.6,19.2C26.6,19.1,26.6,19.1,26.6,19.2z"/>
						<path fill="#808181" d="M26.3,19.1C26.3,19.1,26.3,19.1,26.3,19.1C26.3,19.1,26.3,19.1,26.3,19.1z"/>
						<path fill="#808181" d="M28.6,19.4L28.6,19.4C28.6,19.4,28.6,19.4,28.6,19.4z"/>
						<path fill="#808181" d="M31.3,20.2C31.3,20.2,31.3,20.2,31.3,20.2L31.3,20.2L31.3,20.2z"/>
						<polygon fill="#808181" points="29.5,19.4 29.5,19.4 29.6,19.4 						"/>
						<path fill="#808181" d="M30.2,19.6C30.2,19.6,30.2,19.6,30.2,19.6C30.2,19.6,30.2,19.6,30.2,19.6
							C30.2,19.6,30.2,19.6,30.2,19.6z"/>
						<path fill="#808181" d="M31.2,20L31.2,20L31.2,20z"/>
						<path fill="#808181" d="M29,19.4C29,19.3,29,19.3,29,19.4C29,19.3,29,19.3,29,19.4z"/>
						<path fill="#808181" d="M12.2,26.3L12.2,26.3C12.2,26.3,12.2,26.3,12.2,26.3z"/>
						<polygon fill="#808181" points="11.5,26.7 11.5,26.7 11.4,26.7 						"/>
						<path fill="#808181" d="M25.6,19L25.6,19C25.7,19,25.6,19,25.6,19z"/>
						<path fill="#808181" d="M19.9,20.3c0.1,0-0.1,0.1,0,0.1C20,20.4,20,20.3,19.9,20.3z"/>
						<path fill="#808181" d="M31.3,20.2L31.3,20.2C31.3,20.2,31.3,20.2,31.3,20.2z"/>
						<polygon fill="#808181" points="20,20.4 20,20.4 20,20.4 						"/>
						<path fill="#808181" d="M24.2,19.2C24.2,19.2,24.2,19.2,24.2,19.2C24.2,19.2,24.2,19.2,24.2,19.2z"/>
						<path fill="#808181" d="M25.3,19.1L25.3,19.1C25.2,19.1,25.3,19.1,25.3,19.1z"/>
						<path fill="#808181" d="M23.6,19.3C23.6,19.3,23.6,19.3,23.6,19.3L23.6,19.3C23.6,19.3,23.6,19.3,23.6,19.3z"/>
						<polygon fill="#808181" points="23,19.4 23.1,19.5 23.1,19.4 						"/>
						<path fill="#808181" d="M13.4,25.1C13.4,25.1,13.4,25,13.4,25.1C13.4,25.1,13.3,25.1,13.4,25.1z"/>
						<path fill="#808181" d="M31.3,20.2C31.3,20.2,31.3,20.2,31.3,20.2L31.3,20.2C31.3,20.2,31.3,20.2,31.3,20.2z"/>
						<path fill="#808181" d="M23.7,19.8L23.7,19.8C23.6,19.8,23.6,19.8,23.7,19.8z"/>
						<path fill="#808181" d="M16.7,22.5L16.7,22.5C16.7,22.5,16.7,22.5,16.7,22.5z"/>
						<path fill="#808181" d="M23.3,19.9C23.3,19.8,23.3,19.8,23.3,19.9L23.3,19.9L23.3,19.9z"/>
						<path fill="#808181" d="M13.4,25L13.4,25L13.4,25z"/>
						<path fill="#808181" d="M13,25.6c0.1-0.1,0-0.1,0-0.1c0.1-0.1,0.1,0,0.1,0c0-0.1,0-0.1,0.1-0.2c0,0,0,0,0,0
							c0-0.1,0.1-0.1,0.2-0.2c0,0,0,0,0,0c0,0-0.1,0-0.1-0.1c0,0,0-0.1,0.1-0.1c0,0,0,0,0,0.1l0,0c0.1,0,0,0.1,0,0.1
							c0-0.1,0.1-0.2,0.1-0.2c0.1,0-0.1,0.1,0,0.1l-0.1,0c0.1,0,0,0,0.1,0.1c0.1-0.1,0.1-0.1,0.2-0.2c0,0,0,0-0.1-0.1
							c0.1-0.2,0.2,0,0.3-0.1c0-0.1-0.1-0.1,0-0.2l0,0.1c0.1-0.1,0-0.1,0.1-0.2c0,0-0.1,0.1,0,0.1c0.1,0,0-0.1,0.1-0.1l0.1,0
							c0.1-0.1,0.2-0.2,0.3-0.3c0,0,0,0.1,0,0c0.1-0.1,0.3-0.2,0.5-0.3l0-0.1c0,0,0,0,0,0c0.1,0,0,0,0-0.1c0,0,0.1,0,0.1,0
							c0.1-0.1,0.2-0.3,0.3-0.3l0,0c0.1,0,0-0.2,0.1-0.2l0,0c0.2-0.1,0.3-0.3,0.5-0.3c0-0.1,0.2-0.1,0.1-0.2c0.1,0,0.1,0,0.3,0
							c0,0,0-0.1,0.1-0.1l0,0.1l0-0.1l0.1,0l0,0c0,0-0.1,0-0.1,0c0.1-0.1,0.2-0.1,0.2,0l0.1-0.2c0,0,0,0,0,0.1
							c0.1-0.1,0.1,0,0.1-0.1c0,0,0,0,0,0c0.1,0,0.2-0.1,0.2-0.1l0,0c0.1-0.1,0.2-0.2,0.4-0.3c-0.1,0-0.1-0.1,0-0.1l0.1,0
							c0-0.1-0.1,0,0-0.1c0.1,0,0.1,0,0.1,0.1l0.1-0.1c0,0,0,0,0,0.1c0-0.1,0.1,0,0.1-0.1l0,0c0.1-0.1,0.2-0.1,0.3-0.2
							c0-0.1,0-0.1,0-0.1c0.1,0,0.2,0,0.3-0.1c0.1-0.1,0-0.1,0-0.1c0,0,0.1,0,0.1,0c0.1-0.1,0.2-0.1,0.3-0.2c0,0-0.1,0,0,0
							c0,0,0.1,0,0.1,0l0,0c0.2-0.2,0.5,0,0.6-0.2l0,0l0.1-0.1c0.1,0,0,0.1,0,0.1c0.1-0.2,0.3-0.1,0.4-0.2c0.2,0.1,0.4-0.2,0.5-0.1
							l0,0c0,0,0.1,0,0.1,0c0,0-0.1,0,0,0c0.3-0.1,0.7-0.2,1-0.2c0.1,0,0-0.2,0.2-0.2l0,0.1c0.2-0.2,0.5-0.1,0.7-0.2c0,0,0,0,0,0
							c0.1,0,0.2,0,0.2-0.1c0,0,0,0,0,0c0.1,0,0.1-0.1,0.2,0c0,0,0,0,0,0c0,0,0.2,0,0.1-0.1c0.1,0,0.2-0.1,0.2,0
							c0-0.1,0.2,0,0.2-0.1c0,0.1,0.2,0,0.2,0c0,0,0.1,0,0,0.1c0.1,0,0.1,0,0.1-0.1c0.1,0.1,0.2-0.1,0.3,0c0.2-0.1,0.4-0.1,0.5-0.2
							c0,0.1-0.2,0-0.2,0.1c0.2-0.1,0.3-0.1,0.4-0.1c0,0,0,0,0,0.1c0.2-0.1,0.3,0,0.5-0.1c0,0,0,0,0,0c0,0,0.1,0,0.1,0l0,0
							c-0.1-0.1,0.1-0.1,0.1-0.2c0,0.1,0.2,0,0.1,0.2c0,0,0,0,0-0.1c0,0,0,0,0,0.1c0.1,0,0.1-0.1,0.2-0.1c0,0,0,0,0,0.1
							c0,0,0.1-0.1,0.2-0.1c0,0,0,0,0,0c0.1,0,0.2-0.1,0.4-0.1c0,0.1,0.1,0,0.1,0.1l0.1,0l0,0c0.1,0,0.1-0.1,0.2,0l-0.1,0l0.1,0
							l-0.1,0c0.1,0,0-0.1,0.1-0.1c0,0,0.1,0,0.1,0l0,0c0,0,0.1,0,0.1,0c0,0,0,0.1,0,0.1c0-0.1,0.2,0,0.2-0.1c0,0,0,0.1,0,0.1l0-0.1
							c0,0,0,0,0,0.1c0.1,0,0-0.1,0.1-0.1c0,0,0,0,0,0c0.1,0,0.2,0,0.3,0c0,0.1-0.1,0-0.1,0.1c0.2,0,0.3-0.1,0.5,0l0,0
							c0-0.1,0.1,0.1,0.2,0c0,0,0,0.1,0,0c0.1,0,0.2,0,0.4,0l0,0c0.1,0,0.2,0,0.2,0.1c0,0,0.1,0,0-0.1c0.2,0.2,0.4,0,0.6,0.1
							c0,0-0.1,0,0,0l0.2,0c0,0,0,0,0-0.1c0,0,0.1,0,0.1,0c-0.1,0,0,0.1,0,0.1c0,0,0,0,0,0c0.1,0.1,0-0.1,0.1,0l0,0c0,0,0.1,0,0.1,0
							c0,0.1,0,0-0.1,0.1c0.1,0,0.1-0.1,0.2,0c0,0-0.1,0-0.1,0c0,0.1,0.1,0.1,0.1,0.1l0,0l0.1,0.1l0,0c0.1-0.1,0.2,0,0.3,0
							c-0.1,0.1,0,0-0.1,0.1c0,0,0.1,0.1,0,0.1c0.1,0,0.1,0.1,0.2,0c0,0,0.1,0,0,0.1c0.1,0,0,0,0-0.1c0.1,0,0.2,0.1,0.4,0.1
							c0.1,0,0.2-0.1,0.3-0.1c0,0-0.1,0.1-0.1,0.1c0.1,0,0.1,0.1,0.2,0c0,0,0,0,0,0.1c0,0,0.1-0.1,0.1,0c0,0,0,0-0.1,0.1
							c0.1,0,0.1,0,0.2,0c0,0-0.1,0-0.1,0.1c0.1,0,0.2,0,0.2,0l0,0c0,0,0,0,0,0.1c-0.1,0-0.1,0-0.1-0.1l0,0c0-0.1-0.2,0-0.2-0.1
							l0.1-0.1l-0.1,0c0,0,0-0.1,0-0.1c0-0.1-0.1,0-0.1,0c0,0,0,0,0,0l-0.1,0c0,0,0-0.1,0,0c-0.1-0.1-0.2,0-0.2-0.1l0,0
							c-0.2,0,0,0.1-0.2,0.1l0-0.2l0,0.1c0,0,0,0,0,0c-0.1,0,0,0,0,0.1c-0.1-0.1-0.2,0-0.2-0.1c0,0,0.1,0.1,0,0.1
							c0-0.1-0.1,0-0.1-0.1c0,0,0.1,0,0-0.1c-0.1,0.1-0.1-0.1-0.2-0.1c0,0.1-0.1,0-0.2,0c0,0-0.2-0.1-0.2-0.1l0,0c0,0.1-0.1,0-0.2,0
							c0,0,0-0.1,0.1-0.1l-0.1,0c0,0,0,0-0.1,0l0-0.1c-0.1,0-0.2,0-0.3,0c0,0.1,0.1,0.2-0.1,0.2c0,0,0-0.1,0-0.1c0,0,0,0-0.1,0
							l0.1,0c0,0,0,0-0.1,0c0,0,0,0,0-0.1c0,0,0,0,0,0c0,0-0.1,0-0.1-0.1c0,0,0,0.1,0,0.1c-0.1,0,0-0.1-0.1-0.1c0,0-0.1,0-0.1,0
							c0,0,0,0,0-0.1c0,0-0.2,0-0.2,0l0,0l0,0l0,0l0,0c-0.1,0-0.3-0.1-0.4-0.1l0,0c-0.1,0-0.2,0-0.3,0c0,0-0.1,0,0-0.1
							c-0.1,0-0.1,0-0.2,0c0.1,0,0,0,0.1,0c-0.1,0-0.1-0.1-0.2,0c0-0.1-0.1-0.1-0.1-0.1l0.1,0c0,0-0.1,0-0.1,0l0-0.1
							c-0.2-0.1-0.3,0.1-0.4,0c0,0,0.1,0,0,0.1c-0.1,0-0.2-0.1-0.2-0.1c-0.1,0-0.1,0.1-0.2,0.1c0,0,0,0.1-0.1,0.1
							c-0.1,0-0.1-0.1,0-0.1c0,0,0,0,0,0c0,0,0.1,0,0,0l0,0c0,0-0.1,0-0.1-0.1c-0.1,0,0,0,0,0.1c-0.1,0-0.2,0-0.3,0c0,0,0,0,0,0
							c-0.2,0-0.1,0-0.2,0.1c-0.1,0,0-0.1-0.1-0.1c-0.1,0,0-0.1,0-0.1c-0.1,0-0.2,0-0.2,0l0.1,0c0,0-0.1,0-0.1,0l0,0
							c0,0-0.1,0-0.1,0c0,0,0,0.1,0,0.1c0,0-0.1,0-0.1,0c0.1,0,0-0.1,0.1-0.1c0,0,0,0-0.1,0c0,0,0,0,0,0c-0.1,0-0.1,0.1-0.2,0.1
							c0,0,0-0.1-0.1-0.1c0,0,0,0.1,0,0.1c-0.1,0-0.1,0-0.1,0l0,0c0,0-0.1,0-0.1,0.1c0,0,0,0,0,0c-0.1,0.1-0.1-0.1-0.2,0
							c0,0,0-0.1,0-0.1c-0.1,0.1-0.1,0-0.2,0c0,0,0,0,0,0.1l0.2-0.1l-0.1,0.1c0,0,0.1,0,0.1,0c0,0,0,0,0,0.1c-0.1-0.1-0.1,0.1-0.2,0
							l0-0.1c-0.1,0-0.2,0.1-0.4,0.1l0.1,0c0,0-0.1,0-0.1,0c0,0,0-0.1-0.1-0.1c0,0-0.1,0-0.1,0.1l-0.1,0c-0.1,0-0.1,0.1-0.2,0.1
							c0,0,0-0.1,0-0.1c0,0-0.1,0-0.1,0c0,0-0.1,0.1-0.1,0c0,0,0,0.1-0.1,0.1c0,0,0,0,0,0c0,0-0.1,0,0,0.1c-0.1-0.1-0.3,0.1-0.5,0
							c-0.1,0-0.2,0.1-0.3,0.1c0,0,0,0,0,0c-0.1,0,0,0.1-0.2,0.1c-0.1-0.1,0.1,0,0-0.1c0-0.1-0.1,0-0.2,0l0,0
							c-0.1,0-0.1,0.1-0.2,0.1c0,0,0,0,0,0c-0.1,0.1-0.2,0.1-0.3,0.2c0-0.1,0,0,0-0.1c0,0,0,0.1,0,0.1c0,0-0.1,0-0.1-0.1l0.1,0
							c-0.1-0.1-0.1,0-0.1,0l0,0c-0.1,0.1-0.1,0.1-0.2,0.2l0,0c0,0.1-0.1,0-0.1,0.1l0-0.1c0,0-0.1,0.1-0.2,0.2
							c0-0.1,0.1-0.1,0.2-0.2c0,0-0.2,0.1-0.2,0.1c0,0,0,0,0.1,0c0,0.1-0.1,0.1-0.2,0.2c0-0.2-0.3,0-0.4,0c-0.1,0.1-0.3,0.1-0.5,0.2
							c0.1,0.1-0.1,0,0,0.1c0,0-0.1,0-0.1,0l-0.2,0c0,0,0,0,0-0.1c-0.1,0-0.1,0-0.1,0c0,0,0,0.1-0.1,0.1l0.1,0
							c-0.1,0.1-0.2,0-0.3,0.1l0-0.1c-0.1,0.1-0.3,0.1-0.3,0.2c0,0,0,0,0-0.1c-0.2,0.1-0.3,0.3-0.5,0.3l0,0c0,0,0,0.1-0.1,0.1
							c0,0,0,0,0,0c0,0-0.1,0.1-0.1,0.1l0,0c-0.2,0-0.2,0.2-0.3,0.3c0-0.1-0.2,0-0.2,0l0,0c-0.2,0.1-0.3,0.2-0.4,0.4
							c-0.1,0-0.4,0.1-0.6,0.2c0,0,0,0.1,0,0.1c0,0-0.1,0.1-0.1,0l0,0c-0.1-0.1-0.1,0-0.2,0.1l0,0.1c-0.2,0-0.4,0.3-0.5,0.2
							c0,0-0.1,0.1-0.1,0.1l0,0c-0.1,0.1-0.2,0.1-0.3,0.2l0-0.1c-0.1,0,0,0.2-0.1,0.2l-0.1-0.1c-0.1,0.1-0.3,0.1-0.4,0.3
							c0,0,0,0,0-0.1c-0.1,0-0.3,0.1-0.2,0.2c0-0.1-0.1,0.1-0.2,0.2l0-0.1c0,0.1,0,0.1-0.1,0.2c0,0,0,0,0,0c-0.1,0,0,0.1-0.1,0.1
							l0,0c-0.1,0,0,0.1-0.1,0.1c0,0-0.1,0.1-0.2,0c0,0,0,0.1,0,0.1c0,0,0,0,0,0c-0.1,0.1-0.1,0.2-0.2,0.2c0,0,0,0,0,0
							c0.1-0.1,0.1-0.1,0.1-0.1c0,0-0.1,0-0.1-0.1c0,0.1-0.1,0.2-0.1,0.2c0,0,0,0,0,0l0,0c0,0,0,0,0,0c0,0,0,0-0.1,0
							c0,0-0.1,0-0.1,0.1c0,0,0,0.1,0.1,0.1c0,0,0,0,0,0c0,0,0,0,0,0l0,0c0,0,0,0,0.1-0.1c0,0,0,0.1-0.1,0.1c0,0,0,0.1,0,0.1
							c-0.1,0-0.2,0-0.3,0c-0.1,0.1-0.2,0.2-0.2,0.3c0,0-0.1,0-0.1,0c0,0,0,0,0-0.1c0,0.1-0.2,0.2-0.1,0.2c-0.1,0,0-0.1-0.1,0l0,0
							c-0.3,0.1-0.2,0.4-0.5,0.5c0,0,0,0,0,0c-0.3,0.2-0.4,0.5-0.7,0.6c-0.1,0,0,0.1-0.1,0.2l-0.1,0l0,0.1c0,0.1-0.3,0.1-0.3,0.2
							l0,0c0,0-0.1,0.2-0.1,0.1c0,0,0,0,0,0l0,0l-0.1,0.1c-0.1,0.1-0.1-0.1-0.2,0c0,0.1,0,0.2,0,0.2c0,0,0.1,0,0.1,0l0,0.1
							c0.1,0.1,0.1,0.2,0.3,0.1l0-0.1l0.1,0l0,0.1c0.1,0,0.1-0.1,0.1-0.1c0,0,0,0,0.1,0l0-0.1c0,0,0,0.1,0.1,0c0-0.1-0.1,0-0.1-0.1
							c0.1,0,0.1,0,0.1,0c0,0,0,0,0,0.1c0-0.1,0.1-0.1,0.1-0.2c0.1,0,0.1-0.1,0.2-0.1c0,0,0-0.1,0-0.1c0,0.1,0.1-0.1,0.2,0
							c0-0.1,0.1-0.2,0.1-0.3c0,0,0,0,0,0c0,0,0.1,0,0.1,0c-0.1-0.1,0-0.1,0-0.2c0.1,0,0,0.1,0.1,0.1c0,0,0-0.1,0-0.2
							c0.1,0,0,0,0.1,0c-0.1-0.1,0,0,0-0.1C13,25.5,12.9,25.6,13,25.6C13,25.5,13,25.6,13,25.6z M14.4,24.1L14.4,24.1
							C14.4,24.1,14.4,24.1,14.4,24.1C14.4,24.1,14.4,24.1,14.4,24.1z M14.5,24C14.5,24,14.5,24,14.5,24C14.5,24,14.5,24,14.5,24
							C14.5,24,14.5,24,14.5,24z M14,23.9C14,23.9,14,23.9,14,23.9C14,23.9,14,23.9,14,23.9L14,23.9C14,23.9,14,23.9,14,23.9z"/>
						<polygon fill="#808181" points="14,24 14,24 14,24 14,24 						"/>
						<polygon fill="#808181" points="28.7,19.4 28.7,19.4 28.7,19.4 						"/>
						<polygon fill="#808181" points="16.5,22.6 16.5,22.6 16.5,22.7 						"/>
						<path fill="#808181" d="M29.6,19.7C29.6,19.7,29.6,19.7,29.6,19.7C29.6,19.7,29.6,19.7,29.6,19.7z"/>
						<path fill="#808181" d="M30,19.8L30,19.8C30,19.8,30,19.8,30,19.8z"/>
						<path fill="#808181" d="M30.3,19.9C30.3,19.9,30.3,19.9,30.3,19.9L30.3,19.9L30.3,19.9z"/>
						<path fill="#808181" d="M25.3,19.5C25.3,19.5,25.3,19.5,25.3,19.5C25.3,19.5,25.3,19.5,25.3,19.5z"/>
						<path fill="#808181" d="M26.8,19.4C26.8,19.4,26.8,19.4,26.8,19.4C26.8,19.4,26.8,19.4,26.8,19.4z"/>
						<polygon fill="#808181" points="23.7,19.8 23.7,19.8 23.7,19.8 						"/>
						<path fill="#808181" d="M26.7,19.4C26.7,19.4,26.7,19.4,26.7,19.4C26.7,19.4,26.7,19.4,26.7,19.4z"/>
						<polygon fill="#808181" points="31.6,20.3 31.6,20.3 31.6,20.3 						"/>
						<path fill="#808181" d="M31.6,20.3L31.6,20.3C31.6,20.3,31.6,20.3,31.6,20.3z"/>
						<path fill="#808181" d="M31.6,20.3L31.6,20.3C31.6,20.3,31.6,20.3,31.6,20.3z"/>
						<path fill="#808181" d="M31.2,20.2L31.2,20.2C31.2,20.2,31.2,20.2,31.2,20.2z"/>
						<path fill="#808181" d="M31,20.2c0,0,0.1,0.1,0.1,0.1l0,0C31.1,20.2,31.1,20.1,31,20.2z"/>
						<path fill="#808181" d="M30.6,19.8L30.6,19.8c0.1,0,0.1,0,0.1,0C30.6,19.7,30.7,19.8,30.6,19.8z"/>
						<path fill="#808181" d="M30.3,19.6C30.3,19.6,30.3,19.6,30.3,19.6C30.3,19.6,30.3,19.6,30.3,19.6z"/>
						<path fill="#808181" d="M27.9,19.2L27.9,19.2C27.9,19.2,27.9,19.2,27.9,19.2z"/>
						<polygon fill="#808181" points="27.4,19.4 27.5,19.5 27.5,19.4 						"/>
						<polygon fill="#808181" points="27.2,19.1 27.2,19.1 27.1,19.1 						"/>
						<path fill="#808181" d="M23.1,19.4L23.1,19.4C23.2,19.4,23.2,19.3,23.1,19.4z"/>
						<path fill="#808181" d="M21.4,19.9c0,0-0.1,0-0.1,0C21.4,19.9,21.4,19.9,21.4,19.9z"/>
						<polygon fill="#808181" points="16.6,22 16.7,21.9 16.6,22 						"/>
					</g>
				</g>
			</g>
		</g>
	</g>
	<g>
		<path fill="#F4DDA3" d="M73.4,50.9c0,0,17.9-10.8,0.6-24.7c0,0-17-13.7-24.1,4.5c0,0-4.1,7.1,6.9,15.4
			C56.8,46.1,66.2,55.2,73.4,50.9z"/>
		<g>
			<g>
				<g>
					<g>
						<path fill="#808181" d="M73.5,50.7c-0.3,0.2,0.2-0.1-0.2,0.1C73.4,50.8,73.4,50.7,73.5,50.7z"/>
						<path fill="#808181" d="M72.3,51.3c-0.2,0.2-0.5,0.3-0.8,0.4c-0.3,0.1-0.6,0.2-1,0.2c-0.7,0-1.4,0.1-2,0.1
							c-0.1,0,0-0.1-0.3-0.1c-1.2,0-3.1-0.5-4.4-1.2l0.1,0c-0.3-0.1-0.6-0.2-0.9-0.3c0,0,0.1,0,0,0c-0.1,0-0.5-0.2-0.6-0.2
							c-0.1-0.1-0.1-0.1-0.2-0.2l-0.2,0c-0.5-0.1-1-0.6-1.6-0.9c0,0,0.1,0,0.1,0c-0.9-0.5-2-1.3-2.9-2c0,0,0.1,0,0.1,0
							c-0.1,0-0.4-0.2-0.6-0.4c-0.1-0.1-0.4-0.3-0.7-0.6l0,0c-0.2-0.1-0.3-0.3-0.5-0.4L56,45.4c-0.1,0-0.3-0.3-0.5-0.4l0,0
							c-0.2-0.1-0.2-0.2-0.4-0.3l0,0c-0.4-0.3-0.5-0.5-0.6-0.4c-0.1-0.2,0.3,0.3,0.2,0.1c-1.1-1-2.2-2.1-3.1-3.3
							c-0.1-0.2-0.1-0.3-0.1-0.3c-0.1-0.1-0.3-0.5-0.4-0.6c0,0,0-0.1-0.1-0.2c-0.1-0.3-0.2-0.2-0.3-0.5c0.1,0.1,0.1,0.1,0.1,0.1
							c-0.2-0.2-0.3-0.5-0.5-0.8c0,0,0.1,0.1,0.1,0.1c-0.2-0.3-0.2-0.6-0.4-0.8l0.1,0.1c-0.1-0.5-0.1-0.1-0.3-0.5
							c0.1,0.1,0.1,0,0.1,0.1c-0.2-0.3-0.3-0.9-0.5-1.3c0,0,0,0,0,0c-0.1-0.4-0.2-0.8-0.3-1.3c0-0.2,0.1,0,0.1-0.4
							c-0.1,0-0.1-0.7-0.2-0.5c0-0.4,0.1-1,0.1-1.2c0,0.2,0.1-0.2,0.1,0.1l0.1-0.2c0,0,0,0.2,0,0.2c0-0.2,0-0.6,0.1-0.7
							c0-0.3,0-0.6,0.1-1c0,0.2,0.1-0.1,0.1,0.1c0-0.2,0.1-0.4,0.1-0.7c0.1-0.1,0.1,0,0.1-0.2c0,0,0-0.1,0-0.2
							c0-0.1,0.2-0.6,0.3-0.6c0.1-0.1-0.1,0.2,0,0.1c0.1-0.3,0.1-0.3,0.2-0.6l0,0c0.1-0.2,0.2-0.5,0.1-0.4c-0.1,0.1,0.1,0,0,0.1
							c0-0.1,0.2-0.4,0.3-0.7c0,0.1,0,0.1,0,0.1c0.1-0.4,0.3-0.8,0.5-1.1c0,0,0,0.2-0.1,0.2c0.3-0.4,0.5-1,0.9-1.4
							c0,0.1-0.1,0-0.1,0c0.2-0.2,0.2-0.2,0.3-0.3c0,0,0.1-0.2,0.2-0.3c0-0.1,0,0-0.1,0.1c0.1-0.1,0.2-0.4,0.5-0.7
							c0.2-0.3,0.5-0.6,0.7-0.8c0,0,0.2-0.3,0.3-0.4l0,0.1c0.1-0.1,0.3-0.3,0.4-0.3c0.2-0.2-0.8,0.8-0.5,0.5c0.1,0,0.4-0.4,0.3-0.3
							c0.2-0.2,0.4-0.4,0.6-0.5c-0.1,0-0.1,0.2,0,0.1c0.3-0.2,0.1-0.1,0.3-0.3l0.1-0.1c0,0,0.3-0.2,0.1-0.2c0.1,0,0.5-0.3,0.5-0.2
							l0,0.1c0.1-0.1,0.2-0.2,0.3-0.3c0,0,0.1,0,0.1,0c0-0.1,0.3-0.2,0.5-0.3c0.3-0.1,0.8-0.4,1-0.4c0.2-0.1,0.5-0.2,0.8-0.3
							c-0.1,0-0.1,0.1-0.1,0.1c0.2,0,0.2-0.1,0.4-0.1c0,0,0.4,0,0.6,0c0.3-0.1,0.2-0.1,0.2-0.1c0.3,0,0.7-0.1,1.1-0.1
							c-0.1,0-0.4,0.1-0.2,0.1c0.2,0.1,0.5-0.1,0.9-0.1L61.1,21c0.2,0,0.6-0.1,0.5,0c0.1,0,0.5,0.1,0.4,0c0.6,0.1,1.6,0.1,1.9,0.3
							c0.1,0,0.3,0.1,0.3,0c-0.1-0.1-0.2,0-0.3-0.1c0.1,0,0.1,0,0.1,0c0.2,0.1,0.3,0.1,0.1,0.1c0.4,0.1,0.5,0,1,0.1c0,0,0,0,0.2,0.1
							c0.1,0,0.2,0,0.3,0c0.3,0.1,0.2,0.1,0.2,0.2c0.2,0,0.4,0.1,0.5,0.1l0.2,0.1c-0.1-0.1,0.2,0,0.2,0l-0.1,0c0,0,0.2,0.1,0.3,0.1
							c0,0-0.2-0.1-0.3-0.2c0.1,0,0.2,0.1,0.4,0.1c-0.1,0,0.3,0.1,0.4,0.2c0.2,0.1,0.2,0,0.2,0.1c0,0,0.3,0.1,0.1,0.1
							c-0.1,0-0.1-0.1-0.2-0.1c0.1,0.1,0.1,0.1,0.3,0.2c0.2,0,0-0.1,0.3,0c-0.1,0-0.1,0-0.2,0l0.3,0.2l0,0c0,0,0,0,0,0
							c0.1,0,0.5,0.2,0.5,0.2c0.2,0.1,0.3,0.2,0.4,0.3l0,0c0.2,0.1,0.4,0.2,0.6,0.2l0,0c0.1,0.1,0.3,0.2,0.4,0.2
							c0.2,0.2,0,0.2,0.3,0.3c0.2,0.1,0.4,0.1,0.3,0.1c0.4,0.3,0.9,0.5,1.2,0.8c0.1,0,0,0,0.2,0.1c0.6,0.4,1.3,0.8,1.7,1.2
							c-0.2-0.1,0,0-0.1,0.1c0.2,0.1,0.1,0.2,0.2,0.1c0,0,0,0-0.1-0.2c0.3,0.3,0.8,0.7,1,0.8c-0.1-0.1,0,0,0.1,0
							c-0.1,0,0.2,0.2,0.4,0.4l0.1,0l0.1,0.1c0.1,0.1,0.1,0,0.3,0.2c0,0,0,0,0,0.1c0.2,0.1,0.5,0.3,0.7,0.5l0.1,0.2
							c0.1,0.1,0.2,0.2,0.1,0c0.3,0.3,0.5,0.6,0.5,0.7c0.6,0.5,1.4,1.3,1.9,2.1l0,0c0.1,0.2,0.1,0.1,0.2,0.2c-0.1,0,0,0.2-0.1,0.1
							c0.2,0.3,0.3,0.3,0.4,0.5c0.1,0-0.1-0.1-0.1-0.1c0,0,0.2,0.4,0.3,0.4c0,0.1,0,0.1-0.1,0c0,0.1,0.1,0.1,0.1,0.2
							c0.1,0.3-0.4-0.4-0.4-0.2l0.1,0.2c0,0.2-0.3-0.4-0.1,0c0.1,0.2,0.3,0.3,0.2,0.1c0.2,0.4,0.2,0.1,0.4,0.5
							c0,0.1-0.2-0.3-0.2-0.2c0.1,0.2,0.2,0.4,0.3,0.6c-0.1-0.2,0.1-0.1,0.1,0.1c0.1,0.2-0.1-0.1,0,0.2c0.1,0,0.2,0.3,0.1,0.1
							c0.1,0.1,0.1,0.3,0.3,0.5c0,0.1-0.3-0.3-0.1,0.1c0-0.1,0.3,0.4,0.2,0.2c0,0.1,0,0.2-0.1,0.1c0.1,0.2,0.3,0.5,0.2,0.6l0.1,0.1
							c0,0.1,0,0.2,0,0.3c0.1,0.2,0.2,0.6,0.1,0.6c0,0.1,0.1,0.5,0.1,0.3c0-0.3-0.1-0.3-0.1-0.5c0,0.2,0.1,0.4,0.1,0.5l0,0
							c0,0.1,0.1,0.3,0.1,0.4c0-0.1,0,0,0,0l0.1,0.1c0.1,0.4-0.1,0.1,0,0.5l-0.1-0.3c0,0.1,0,0.2,0,0.4c0.1,0.1,0.1,0.2,0.2,0.2
							c0,0.2,0,0.1,0,0.3l-0.1-0.3c0,0,0,0.2,0,0.5c0,0.2,0.1,0.4,0.1,0.2c0,0.1,0,0.3-0.1,0.2c0,0.3,0,0,0.1,0.2
							c0,0.1-0.1,0.5-0.2,0.7l0-0.3l0,0.2c0-0.2-0.1,0.1-0.1,0c0,0.1,0,0.3,0,0.4c0.1-0.4,0.1,0.4,0.2,0.3c-0.1,0.5-0.3,0.3-0.2,0.8
							c0-0.1,0.1,0.2,0.1-0.1c-0.1,0.3,0.1,0.2-0.1,0.6c0-0.3-0.2,0.3-0.1-0.1c0,0,0.1-0.2,0.1-0.3c-0.1,0.1-0.1,0-0.2,0.3
							c0,0.2-0.1,0.4-0.1,0.4c0.1,0,0.1-0.3,0.1-0.2c-0.1,0.4-0.2,0.4-0.1,0.6c0.1-0.2,0.1-0.3,0.2-0.3l-0.1,0.3l0-0.1
							c-0.2,0.4,0,0.2-0.2,0.6l-0.1,0.2c0-0.1,0.3-0.6,0.1-0.6c-0.1,0.3-0.1,0.4-0.2,0.6l0.1-0.2c0,0.1-0.2,0.2-0.3,0.6
							c-0.1,0.2,0,0.1,0,0.1c-0.2,0.4-0.2,0.6-0.4,0.8c0-0.1-0.3,0.5-0.2,0.1c0.1-0.1,0.4-0.7,0.4-0.9c-0.2,0.1,0.2-0.3,0.1-0.5
							c-0.2,0.3-0.2,0.3-0.3,0.3c0,0.1-0.1,0.2-0.1,0.2c0,0.1,0.1-0.1,0.1,0c-0.2,0.4-0.4,0.7-0.4,1c-0.1,0.1-0.1,0,0-0.1
							c-0.2,0.4-0.5,0.9-0.8,1.3c0.2-0.2-0.3,0.4-0.1,0.3c0.2-0.2,0.3-0.3,0.3-0.2c-0.1,0.1,0,0-0.1,0c-0.1,0.2-0.2,0.2-0.3,0.4
							c0.2-0.4,0-0.1,0-0.2c-0.2,0.3,0,0-0.2,0.2c-0.2,0.3-0.4,0.6-0.6,0.9c-0.3,0.3-0.8,0.8-1.1,1.1c-0.2,0.1-0.1,0-0.3,0.1
							c-0.2,0.2,0.2-0.1-0.1,0.2l0,0c-0.1,0.1-0.6,0.5-0.6,0.6l0-0.1c-0.1,0-0.1,0.1-0.1,0.2c0,0-0.1,0,0-0.1
							c-0.2,0.1-0.4,0.3-0.6,0.5l0.2-0.1c-0.3,0.3-0.6,0.5-0.9,0.7l0,0l-0.2,0.2c0-0.1-0.2,0-0.3,0.2l0.5-0.5c0.2-0.1-0.1,0.2,0,0.1
							c0.1,0,0.4-0.3,0.4-0.4c-0.1,0.1-0.1,0.1-0.2,0.2c-0.1,0,0.1-0.2,0.2-0.3c-0.1,0.1-0.2,0.1-0.2,0.1c0.1-0.1,0.2-0.2,0.4-0.4
							c-0.1,0.1,0.1,0,0.1,0c0-0.1,0.2-0.2,0.4-0.4c0.2-0.1,0.4-0.4,0.7-0.7c-0.1,0.2-0.2,0.3-0.3,0.5c0.2-0.1,0.2-0.2,0.4-0.3
							c0.1-0.1,0.1-0.2,0.3-0.5l0,0c0.2-0.2,0.1-0.3,0.4-0.5c0.4-0.4,0.8-0.9,1.1-1.3l0,0c0.1-0.3,0.5-0.7,0.7-1
							c0.4-0.5,0.6-1.1,0.9-1.3c0.5-0.9,0.8-1.8,1.1-2.8c0,0.1,0,0.1,0,0.2c0-0.2,0.1-0.1,0.1-0.3c-0.1,0.2,0-0.3,0-0.4
							c0.2-0.5,0.1-1.1,0.1-1.5l0,0c-0.1-0.4,0-0.9,0-1.5c0-0.1,0-0.2,0-0.3c-0.1-0.3-0.1-0.4-0.3-0.8c0-0.3-0.2-0.8-0.3-1.1
							c-0.5-1.1-0.9-2.2-1.7-3.2l0-0.1c-0.7-0.9-1.6-2.1-2.3-2.8l0.1,0c-0.2-0.3-0.5-0.5-0.5-0.4c-0.2-0.2-0.6-0.5-0.7-0.7
							c-0.2-0.2-0.3-0.3-0.5-0.4c-0.5-0.4-0.7-0.6-1.1-1l0.1,0.1c0.1,0,0.1,0,0-0.1c-0.2-0.1-0.6-0.6-0.5-0.3
							c-0.5-0.4-1.3-0.8-1.8-1.3c0,0.1-0.1,0-0.2,0c-0.5-0.3-1-0.7-1.4-0.8c-0.1-0.1,0.2,0-0.1-0.1c-0.1-0.1,0,0-0.2,0
							c-0.8-0.4-1.7-0.9-2.4-1.2c-1.4-0.5-2.9-1-4.3-1.2l0,0c-0.5,0-1.1-0.2-1.5-0.1c-0.1,0-0.4,0-0.3-0.1c-0.4,0.1-1.1,0-1.6,0.1
							c0,0,0.1,0,0.1,0c-0.3,0-0.5,0-0.8,0.1c-0.3,0.1-0.5,0.1-0.8,0.2c0.1,0,0.2-0.1,0.2-0.1c-0.2,0-0.5,0.2-0.6,0.2
							c-0.1,0-0.1,0.1,0,0c-1.2,0.4-2.4,1.1-3.4,2c-0.7,0.6-0.2-0.1-0.7,0.5c-0.1,0,0,0.1,0,0.1c-0.2,0.2-0.4,0.3-0.5,0.4
							c0.1,0-0.1,0.1,0,0.2c-0.4,0.4-0.5,0.5-0.8,0.9l0,0c-0.3,0.5-0.6,1-0.8,1.4c-0.4,0.6-0.7,1.3-1,2l-0.4,1l-0.1,0.3l0,0.1l0,0.1
							L50.2,31c-0.1,0.1-0.1,0.3-0.2,0.5c-0.4,1.3-0.5,2.8-0.2,4.2c0.3,1.4,0.8,2.7,1.5,3.9c0.3,0.6,0.8,1.2,1.2,1.8
							c0.5,0.5,0.9,1.1,1.4,1.6c0.4,0.5,0.5,0.6,1,1.1c0,0-0.1,0,0,0c0.1,0,0.4,0.4,0.5,0.3c0.4,0.3,0.8,0.7,1.2,1l0.3,0.2l0.1,0.1
							c0,0,0.1,0.1,0.1,0.1l0.1,0.1c0.2,0.2,0.4,0.4,0.6,0.5c-0.1-0.1-0.2-0.1-0.1,0l0.2,0.1l0,0c0.1,0.1,0.3,0.2,0.2,0
							c2.2,1.7,4.5,3.4,7.1,4.3c0.3,0.1,0.7,0.2,1.1,0.3c0.4,0.1,0.8,0.1,1.1,0.2c2,0.4,4,0.3,5.8-0.9
							C73.3,50.6,73.1,50.9,72.3,51.3z"/>
						<path fill="#808181" d="M73.9,50.4c0.1,0,0.3-0.1,0.2,0C74,50.4,73.9,50.5,73.9,50.4z"/>
						<path fill="#808181" d="M79,46.1C79,46.1,79,46.1,79,46.1c0,0,0,0.1,0,0.1C79,46.2,78.9,46.2,79,46.1z"/>
						<path fill="#808181" d="M80,44.7c0,0-0.2,0.4-0.3,0.5L80,44.7z"/>
						<path fill="#808181" d="M80.8,43.4C80.9,43.3,80.9,43.3,80.8,43.4C80.8,43.5,80.8,43.4,80.8,43.4z"/>
						<path fill="#808181" d="M80.8,43.2c0.1-0.1,0.1-0.2,0.1-0.2C80.9,43,80.8,43.3,80.8,43.2z"/>
						<path fill="#808181" d="M81.9,39.9c0-0.1,0-0.3,0-0.3C81.9,39.6,81.9,39.9,81.9,39.9z"/>
						<path fill="#808181" d="M81.9,38.2c0-0.1,0-0.1,0-0.1C81.9,38,81.9,38.1,81.9,38.2L81.9,38.2z"/>
						<polygon fill="#808181" points="60.8,21 61,21 60.9,21 						"/>
						<path fill="#808181" d="M50.8,28.2c-0.1,0.2-0.1,0.1-0.1,0.1C50.7,28.1,50.7,28.4,50.8,28.2z"/>
						<polygon fill="#808181" points="49.1,34.8 49.1,34.7 49.2,34.8 						"/>
					</g>
				</g>
			</g>
		</g>
	</g>
	<g>
		<g>
			<g>
				<g>
					<g>
						<path fill="#808181" d="M75.1,33.1C75.1,33.1,75.2,33,75.1,33.1L75.1,33.1L75.1,33.1z"/>
						<path fill="#808181" d="M75.1,32.8c0,0-0.1,0-0.2,0C75,32.9,75,32.9,75.1,32.8c0,0.1,0,0.1,0,0.1c0,0,0,0,0.1,0
							C75.2,32.9,75.1,32.9,75.1,32.8C75.1,32.8,75.1,32.8,75.1,32.8z"/>
						<path fill="#808181" d="M73.6,30.5L73.6,30.5C73.6,30.5,73.6,30.5,73.6,30.5z"/>
						<path fill="#808181" d="M72.4,29.2C72.4,29.2,72.4,29.2,72.4,29.2C72.4,29.2,72.4,29.2,72.4,29.2z"/>
						<path fill="#808181" d="M72.2,29L72.2,29C72.2,29,72.2,29,72.2,29z"/>
						<path fill="#808181" d="M73.6,30.5L73.6,30.5C73.5,30.5,73.5,30.5,73.6,30.5z"/>
						<path fill="#808181" d="M74.8,32.6C74.8,32.6,74.8,32.6,74.8,32.6L74.8,32.6L74.8,32.6z"/>
						<polygon fill="#808181" points="74.1,31.1 74.1,31.1 74.1,31.1 						"/>
						<path fill="#808181" d="M74.5,31.5C74.5,31.5,74.4,31.5,74.5,31.5C74.4,31.5,74.4,31.5,74.5,31.5
							C74.4,31.5,74.4,31.5,74.5,31.5z"/>
						<path fill="#808181" d="M74.9,32.4L74.9,32.4L74.9,32.4z"/>
						<path fill="#808181" d="M73.8,30.7C73.8,30.7,73.8,30.7,73.8,30.7L73.8,30.7z"/>
						<path fill="#808181" d="M58.9,25.8L58.9,25.8C58.9,25.8,58.9,25.8,58.9,25.8z"/>
						<polygon fill="#808181" points="58.2,25.7 58.2,25.7 58.2,25.6 						"/>
						<path fill="#808181" d="M71.8,28.6L71.8,28.6C71.8,28.6,71.8,28.6,71.8,28.6z"/>
						<path fill="#808181" d="M67.4,26.2c0,0.1-0.1,0,0,0.1C67.3,26.3,67.4,26.3,67.4,26.2z"/>
						<path fill="#808181" d="M74.8,32.6L74.8,32.6C74.7,32.6,74.8,32.6,74.8,32.6z"/>
						<polygon fill="#808181" points="67.3,26.3 67.3,26.3 67.3,26.3 						"/>
						<path fill="#808181" d="M70.8,27.9C70.8,27.9,70.8,27.9,70.8,27.9C70.8,27.9,70.8,27.9,70.8,27.9z"/>
						<path fill="#808181" d="M71.5,28.5L71.5,28.5C71.5,28.5,71.5,28.5,71.5,28.5z"/>
						<path fill="#808181" d="M70.3,27.7C70.3,27.6,70.3,27.6,70.3,27.7L70.3,27.7C70.3,27.6,70.3,27.6,70.3,27.7z"/>
						<path fill="#808181" d="M69.9,27.4C69.9,27.4,69.9,27.4,69.9,27.4L69.9,27.4L69.9,27.4z"/>
						<path fill="#808181" d="M60.4,25.7C60.4,25.7,60.4,25.7,60.4,25.7C60.4,25.7,60.3,25.7,60.4,25.7z"/>
						<path fill="#808181" d="M74.8,32.6C74.8,32.6,74.8,32.6,74.8,32.6C74.8,32.6,74.8,32.6,74.8,32.6
							C74.8,32.6,74.8,32.6,74.8,32.6z"/>
						<path fill="#808181" d="M70.1,28L70.1,28C70,28,70,28,70.1,28z"/>
						<path fill="#808181" d="M64,25.9L64,25.9C64,25.9,64,25.9,64,25.9z"/>
						<path fill="#808181" d="M69.8,27.9C69.8,27.9,69.8,27.8,69.8,27.9C69.8,27.8,69.8,27.8,69.8,27.9L69.8,27.9z"/>
						<path fill="#808181" d="M60.4,25.7L60.4,25.7L60.4,25.7z"/>
						<path fill="#808181" d="M59.9,25.8c0.1,0,0-0.1,0-0.1c0.1,0,0,0.1,0.1,0.1c0.1,0,0.1-0.1,0.1-0.1c0,0,0,0,0,0
							c0.1-0.1,0.2,0,0.2-0.1c0,0,0,0,0,0c0,0,0-0.1,0-0.1c0,0,0.1,0,0.1,0c0,0,0,0,0,0l0,0c0,0.1,0,0,0,0.1c0.1,0,0.1-0.1,0.2-0.1
							c0,0.1-0.1,0-0.1,0.1l-0.1,0c0.1,0.1,0,0,0,0.1c0.1,0,0.1,0,0.2,0c0,0,0-0.1,0-0.1c0.2-0.1,0.1,0.2,0.2,0.1c0,0,0-0.1,0.1-0.1
							l0,0.1c0.1,0,0.1-0.1,0.2-0.1c0,0-0.1,0-0.1,0c0.1,0.1,0.1,0,0.1,0l0,0.1c0.1,0,0.2-0.1,0.4-0.1c0,0,0,0,0,0.1
							c0.2,0,0.3,0,0.5,0.1l0.1-0.1c0,0,0,0,0,0c0.1,0,0,0,0-0.1c0,0,0,0,0,0.1c0.1,0,0.3-0.1,0.4,0l0,0c0.1,0,0.1-0.1,0.2-0.1l0,0
							c0.2,0,0.4,0,0.5,0.1c0-0.1,0.2,0.1,0.2-0.1c0.1,0.1,0.1,0.1,0.2,0.2c0,0,0.1-0.1,0.1-0.1l0,0.1l0.1-0.1l0,0.1l0,0
							c0,0,0,0,0-0.1c0.1,0,0.2,0.1,0.2,0.1l0.2,0c0,0,0,0-0.1,0c0.1-0.1,0,0.1,0.1,0c0,0,0,0,0,0c0,0,0.1,0.1,0.2,0.1l0,0
							c0.1,0,0.3,0,0.4,0.1c0,0,0-0.1,0-0.1l0,0.1c0,0,0,0,0-0.1c0,0,0,0.1,0,0.1l0.1,0c0,0,0,0,0,0.1c0,0,0.1,0.1,0.1,0l0,0
							c0.1,0,0.2,0,0.3,0c0-0.1,0.1,0,0.1-0.1c0.1,0,0.2,0.1,0.3,0.1c0.1,0,0,0,0.1-0.1c0,0.1,0.1,0.1,0,0.1c0.1,0,0.2,0,0.3,0
							c0,0,0,0,0-0.1c0,0,0.1,0,0,0.1l0,0c0.2,0,0.3,0.3,0.5,0.2l0,0l0.2,0c0.1,0,0,0,0,0.1c0.2,0,0.2,0.1,0.4,0.1
							c0,0.2,0.3,0.1,0.4,0.2l0,0c0,0,0,0,0.1,0.1c0,0,0,0,0-0.1c0.3,0.1,0.5,0.3,0.8,0.4c0.1,0,0.1-0.1,0.2,0l-0.1,0
							c0.2,0,0.4,0.2,0.6,0.2c0,0,0,0,0,0c0,0.1,0.1,0.1,0.2,0c0,0,0,0,0,0.1c0,0,0.1,0,0.1,0.1c0,0,0,0,0,0c0,0,0.1,0.1,0.1,0
							c0.1,0.1,0.1,0.1,0.2,0.1c0.1,0,0.1,0.1,0.2,0C69.9,27.9,70,28,70.1,28c0,0,0,0,0,0.1c0.1,0,0.1,0,0.1,0c0,0.2,0.2,0,0.2,0.2
							c0.2,0.1,0.3,0.1,0.5,0.2c-0.1,0.1-0.1-0.1-0.2,0c0.1,0.1,0.3,0,0.4,0.1c0,0,0,0-0.1,0c0.1,0.1,0.2,0.2,0.4,0.2c0,0,0,0,0,0
							c0,0,0,0,0.1,0l0,0c0-0.1,0.2,0,0.2-0.1c-0.1,0.1,0.1,0.1-0.1,0.2c0,0,0,0,0.1,0c0,0,0,0,0,0c0.1,0,0.1,0,0.2,0c0,0,0,0-0.1,0
							c0.1,0,0.1,0,0.2,0.1c0,0,0,0,0,0c0.1,0.1,0.2,0.1,0.3,0.2c-0.1,0,0,0.1,0,0.1l0.1,0l0,0c0,0,0.1,0,0.1,0.1l-0.1,0l0.1,0.1
							l0-0.1c0.1,0,0.1-0.1,0.1,0c0,0,0,0,0,0.1h0c0,0,0.1,0,0.1,0.1c0,0-0.1,0.1-0.1,0.1c0.1,0,0.1,0.1,0.2,0.1c0,0,0,0-0.1,0
							l0.1,0c0,0,0,0,0,0.1c0.1,0.1,0-0.1,0.1,0c0,0,0,0,0,0c0.1,0.1,0.2,0.1,0.2,0.2c0,0.1-0.1,0-0.1,0c0.1,0.1,0.3,0.1,0.3,0.3
							l0,0c0.1-0.1,0,0.1,0.1,0.1c0,0-0.1,0,0,0c0,0.1,0.1,0.1,0.3,0.2l0,0c0,0.1,0.1,0.1,0.1,0.2c0,0,0.1,0,0.1,0
							c0,0.2,0.3,0.2,0.3,0.4c0,0,0,0,0,0l0.1,0.1c0,0,0,0,0-0.1c0,0,0.1,0,0.1,0c-0.1,0-0.1,0-0.1,0.1c0,0,0,0,0,0
							c0,0.1,0.1,0,0.1,0.1l0,0c0,0,0.1,0,0.1,0.1c0,0,0,0-0.1,0c0,0,0.1,0,0.1,0.1c0,0,0,0-0.1,0c0,0.1,0,0.1,0,0.1l0,0l0,0.1l0,0
							c0.2,0,0.1,0.1,0.2,0.1c-0.1,0-0.1,0-0.1,0c0,0,0,0.1,0,0.1c0.1,0,0,0.1,0.1,0.1c0,0,0,0,0,0.1c0,0,0,0,0,0
							c0.1,0,0,0.2,0.2,0.3c0.1,0.1,0.2,0.1,0.2,0.1c0,0-0.1,0-0.1,0c0,0.1,0,0.1,0.1,0.1c0,0,0,0,0,0c0,0,0.1,0,0.1,0
							c0,0-0.1,0-0.1,0c0,0,0.1,0.1,0.1,0.1c0,0-0.1,0-0.1,0c0,0,0.1,0.1,0.2,0.1l0,0c0,0,0,0-0.1,0c-0.1,0,0-0.1,0-0.1l0,0
							c0.1-0.1-0.1-0.1-0.1-0.2l0.1,0l-0.1,0c0,0,0-0.1,0.1,0c0-0.1-0.1,0,0-0.1c0,0,0,0,0,0l0,0c0,0,0,0,0.1,0
							c0-0.1-0.1-0.1-0.1-0.2l0,0c-0.1-0.1-0.1,0-0.2,0l0.1-0.1l-0.1,0c0,0,0,0,0,0c-0.1,0,0,0-0.1,0c0-0.1-0.1-0.1,0-0.2
							c-0.1,0,0,0.1-0.1,0c0.1-0.1-0.1-0.1,0-0.1c0.1,0,0.1,0,0.1,0c-0.1,0,0-0.1-0.1-0.1c-0.1,0-0.1-0.1-0.1-0.1c0,0,0-0.2-0.1-0.2
							l0,0c-0.1,0-0.1,0-0.2-0.1c0,0,0.1,0,0.1,0l0,0c0,0,0,0-0.1,0l0.1,0c0-0.1-0.1-0.1-0.2-0.2c0,0-0.1,0.1-0.2,0.1
							c0,0,0.1-0.1,0.1,0c0,0,0,0,0,0l0.1,0c0,0,0,0-0.1,0c0,0,0,0,0-0.1c0,0,0,0,0,0c0,0,0-0.1,0-0.1c0,0,0,0-0.1,0
							c0-0.1,0,0,0-0.1c0,0,0,0-0.1,0c0,0,0,0,0-0.1c0,0-0.1-0.1-0.1-0.1l0,0l0,0l0,0l0,0c-0.1-0.1-0.1-0.2-0.2-0.3l0,0
							c-0.1,0-0.1-0.1-0.2-0.1c0,0,0-0.1,0-0.1c0,0-0.1,0-0.1-0.1c0.1,0,0,0,0.1,0c0-0.1,0-0.1-0.1-0.1c0.1,0,0-0.1,0-0.1l0,0.1
							c0,0-0.1,0-0.1-0.1l0.1,0c-0.1-0.2-0.3-0.1-0.3-0.3c-0.1,0,0,0.1,0,0.1c0-0.1,0-0.2,0-0.2c0-0.1-0.1,0-0.2-0.1
							c0,0,0,0.1-0.1,0.1c0-0.1,0-0.1,0.1-0.1c0,0,0,0,0,0c0,0,0.1,0,0,0l0,0c0,0-0.1-0.1,0-0.1c-0.1,0,0,0,0,0.1
							c0-0.1-0.1-0.1-0.2-0.2c0,0,0,0.1,0,0c-0.1-0.1-0.1,0-0.1-0.1c0-0.1,0.1-0.1,0-0.1c0-0.1,0-0.1,0.1-0.1
							c-0.1,0-0.1-0.1-0.1-0.2l0,0c0,0,0,0-0.1,0l0,0.1c0,0,0,0,0-0.1c0,0,0,0.1-0.1,0.1c0,0-0.1,0-0.1-0.1c0.1,0.1,0-0.1,0.1,0
							c0,0,0,0,0,0c0,0,0,0,0,0c0-0.1-0.1,0-0.2,0c0,0,0-0.1,0-0.1c0,0,0,0.1-0.1,0.1c0-0.1-0.1,0-0.1,0l0,0c0,0-0.1,0-0.1,0
							c0,0,0,0,0,0c-0.1,0-0.1-0.1-0.1-0.1c0,0,0-0.1,0-0.1c-0.1,0,0-0.1-0.1-0.1c0,0.1,0,0-0.1,0.1l0.1,0.1l-0.1,0c0,0,0.1,0,0.1,0
							c-0.1,0,0,0-0.1,0c0-0.1-0.1,0-0.1-0.1l0.1-0.1c-0.1-0.1-0.2-0.1-0.3-0.2l0,0c0,0-0.1,0-0.1,0c0,0,0-0.1,0-0.1
							c0,0-0.1-0.1-0.1,0l0-0.1c-0.1-0.1-0.2,0-0.2,0c0,0,0-0.1,0.1-0.1c0,0,0,0-0.1,0c0,0-0.1,0-0.1,0c0,0,0,0-0.1,0c0,0,0,0,0,0
							c0,0-0.1,0-0.1,0c0-0.2-0.3-0.1-0.3-0.3c-0.1,0-0.2-0.1-0.2-0.1c0,0,0,0,0,0c-0.1-0.1-0.1,0.1-0.2,0c0-0.1,0.1,0,0,0
							c0-0.1-0.1,0-0.1-0.1l0,0c0-0.1-0.1,0-0.2-0.1c0,0,0,0,0,0c-0.1,0-0.2,0-0.3,0c0,0,0,0,0.1-0.1c0,0,0,0.1-0.1,0.1
							c0,0-0.1-0.1,0-0.1l0.1,0c0-0.1-0.1,0-0.1-0.1l0,0c-0.1,0-0.1,0-0.2,0l0,0c-0.1,0,0-0.1-0.1,0l0-0.1c0,0-0.2,0-0.2,0
							c0.1,0,0.2,0,0.2,0c0,0-0.1,0-0.2,0c0,0,0,0,0.1,0c-0.1,0-0.1,0-0.2,0c0.1-0.1-0.2-0.1-0.2-0.3c-0.2,0-0.3-0.1-0.4-0.2
							c0,0.1-0.1,0-0.1,0.1c0,0-0.1,0-0.1,0l-0.1-0.1c0,0,0,0,0.1,0c-0.1,0,0-0.1-0.1-0.1c0,0,0,0.1-0.1,0l0.1,0.1
							c-0.1,0-0.1-0.1-0.2-0.1l0.1,0c-0.1,0-0.2-0.1-0.3,0c0,0,0-0.1,0-0.1c-0.1-0.1-0.4,0-0.5-0.1l0,0c0,0-0.1,0-0.1,0c0,0,0,0,0,0
							c0,0-0.1,0-0.1,0l0,0c-0.1-0.1-0.2,0-0.4,0c0-0.1-0.1-0.1-0.1-0.2l0,0c-0.2,0-0.3,0-0.5,0c-0.1-0.1-0.3-0.1-0.5-0.2
							c0,0,0,0.1,0,0.1c0,0-0.1,0-0.1,0l0,0c0-0.1-0.1-0.1-0.2-0.1l0,0.1c-0.1-0.2-0.4,0-0.5-0.2c0,0-0.1,0-0.1,0l0-0.1
							c-0.1,0-0.2,0-0.3,0l0,0c-0.1,0-0.1,0.2-0.2,0.2l0-0.1c-0.1,0-0.3-0.1-0.4,0c0,0,0,0,0,0c-0.1,0-0.2-0.1-0.2,0
							c0-0.1-0.1,0-0.2,0l0-0.1c-0.1,0.1-0.1,0.1-0.1,0.1c0,0,0,0,0,0c-0.1,0-0.1,0.1-0.1,0l0,0c-0.1,0-0.1,0-0.1,0.1
							c0,0-0.1,0-0.1-0.1c0,0,0,0.1-0.1,0.1c0,0,0,0,0,0c-0.1,0-0.2,0.1-0.2,0c0,0,0,0,0,0c0.1,0,0.2,0,0.2,0c0-0.1-0.1-0.1,0-0.1
							c-0.1,0-0.2,0.1-0.2,0.1c0,0,0,0,0,0l0,0c0,0,0,0,0,0c0,0,0,0-0.1,0c0,0-0.1,0-0.1,0c0,0.1,0,0,0,0.1c0,0,0,0,0,0c0,0,0,0,0,0
							l0,0c0,0,0.1,0,0.1,0c0,0-0.1,0.1-0.1,0c0,0,0,0.1-0.1,0.1c0-0.1-0.1-0.1-0.2-0.2c-0.1,0-0.3,0-0.3,0.1c0,0,0,0,0,0
							c0,0,0,0,0,0c-0.1,0-0.2,0-0.2,0.1c-0.1,0,0-0.1-0.1-0.1l0,0c-0.2-0.1-0.3,0.2-0.6,0.1c0,0,0,0,0,0c-0.3,0-0.5,0.1-0.8,0
							c-0.1,0-0.1,0-0.1,0.1l0-0.1l-0.1,0.1c-0.1,0.1-0.2-0.1-0.3,0l0,0c-0.1,0-0.2,0-0.2,0c0,0,0,0,0,0l0,0l-0.1,0.1
							c-0.1,0,0-0.1-0.1-0.1c-0.1,0-0.1,0.1-0.1,0.1c0,0,0.1,0,0.1,0l0,0c0,0.1,0,0.2,0.1,0.2l0.1-0.1l0,0l-0.1,0c0,0,0.1,0,0.1,0
							c0,0,0,0,0,0l0.1-0.1c0,0,0,0.1,0,0.1c0,0,0-0.1,0-0.1c0,0,0,0.1,0.1,0c0,0,0,0,0,0.1c0,0,0.1,0,0.1-0.1c0,0,0.1,0,0.1,0.1
							c0,0,0.1-0.1,0.1-0.1c-0.1,0.1,0.1,0,0.1,0.1c0-0.1,0.2-0.1,0.3-0.1c0,0,0,0,0,0c0.1,0,0.1,0,0.1,0c0-0.1,0.1-0.1,0.1-0.2
							c0.1,0.1,0,0.1,0,0.2c0-0.1,0.1-0.1,0.1-0.1c0,0,0,0,0.1,0.1c0-0.1,0,0,0.1-0.1C59.9,25.7,59.9,25.8,59.9,25.8
							C60,25.8,59.9,25.8,59.9,25.8z M61.6,25.6L61.6,25.6C61.6,25.6,61.6,25.6,61.6,25.6C61.6,25.6,61.6,25.6,61.6,25.6z
							 M61.8,25.6C61.8,25.6,61.8,25.6,61.8,25.6C61.7,25.6,61.7,25.6,61.8,25.6C61.7,25.6,61.8,25.6,61.8,25.6z M61.5,25.2
							C61.5,25.2,61.5,25.2,61.5,25.2C61.5,25.2,61.5,25.2,61.5,25.2L61.5,25.2C61.5,25.2,61.5,25.2,61.5,25.2z"/>
						<polygon fill="#808181" points="61.4,25.3 61.4,25.3 61.4,25.3 61.5,25.3 						"/>
						<polygon fill="#808181" points="73.6,30.5 73.6,30.5 73.6,30.5 						"/>
						<polygon fill="#808181" points="63.8,25.9 63.8,25.9 63.8,25.9 						"/>
						<path fill="#808181" d="M73.9,31.3C73.9,31.3,73.9,31.3,73.9,31.3C73.9,31.3,73.9,31.3,73.9,31.3z"/>
						<path fill="#808181" d="M74.1,31.6L74.1,31.6C74.2,31.6,74.1,31.6,74.1,31.6z"/>
						<path fill="#808181" d="M74.3,31.8C74.3,31.8,74.3,31.8,74.3,31.8L74.3,31.8L74.3,31.8z"/>
						<path fill="#808181" d="M71.3,28.8C71.3,28.8,71.3,28.8,71.3,28.8C71.2,28.8,71.3,28.8,71.3,28.8z"/>
						<path fill="#808181" d="M72.3,29.5C72.3,29.5,72.3,29.5,72.3,29.5C72.3,29.5,72.3,29.5,72.3,29.5z"/>
						<polygon fill="#808181" points="70.1,28 70.1,28 70.1,28 						"/>
						<path fill="#808181" d="M72.2,29.5C72.2,29.5,72.3,29.5,72.2,29.5C72.3,29.5,72.3,29.5,72.2,29.5z"/>
						<polygon fill="#808181" points="74.9,32.8 74.9,32.8 74.9,32.8 						"/>
						<path fill="#808181" d="M74.9,32.8L74.9,32.8C74.9,32.8,74.9,32.8,74.9,32.8z"/>
						<path fill="#808181" d="M74.9,32.8L74.9,32.8C74.9,32.8,74.9,32.8,74.9,32.8z"/>
						<path fill="#808181" d="M74.7,32.5L74.7,32.5C74.7,32.5,74.7,32.5,74.7,32.5z"/>
						<path fill="#808181" d="M74.7,32.4c0,0,0,0.1,0,0.1L74.7,32.4C74.7,32.5,74.7,32.4,74.7,32.4z"/>
						<path fill="#808181" d="M74.6,31.9L74.6,31.9C74.7,31.9,74.7,31.9,74.6,31.9C74.7,31.8,74.7,32,74.6,31.9z"/>
						<path fill="#808181" d="M74.5,31.6C74.5,31.6,74.5,31.6,74.5,31.6C74.5,31.6,74.5,31.6,74.5,31.6z"/>
						<path fill="#808181" d="M73.2,30L73.2,30C73.2,29.9,73.2,30,73.2,30z"/>
						<polygon fill="#808181" points="72.7,29.9 72.7,30 72.8,29.9 						"/>
						<polygon fill="#808181" points="72.8,29.5 72.8,29.5 72.8,29.5 						"/>
						<path fill="#808181" d="M70,27.4L70,27.4C70,27.5,70,27.4,70,27.4z"/>
						<path fill="#808181" d="M68.6,26.8C68.6,26.8,68.6,26.7,68.6,26.8C68.6,26.8,68.6,26.8,68.6,26.8z"/>
						<polygon fill="#808181" points="64.3,25.4 64.3,25.4 64.3,25.4 						"/>
					</g>
				</g>
			</g>
		</g>
	</g>
	<g>
		<path fill="#F4DDA3" d="M57,68.2c0,0,6.9-19.7-15.3-19.4c0,0-21.8,0.3-15.7,18.8c0,0,1.4,8,15.2,7.5C41.1,75.1,54.2,76.2,57,68.2z
			"/>
		<g>
			<g>
				<g>
					<g>
						<path fill="#808181" d="M56.9,67.9c-0.1,0.3,0.1-0.2,0,0.2C56.9,68.1,56.9,68,56.9,67.9z"/>
						<path fill="#808181" d="M56.4,69.2c-0.1,0.3-0.2,0.5-0.4,0.8c-0.2,0.3-0.4,0.6-0.6,0.8c-0.5,0.5-1,1-1.5,1.3
							c-0.1,0.1,0-0.1-0.3,0.1c-0.9,0.8-2.7,1.6-4.2,1.8l0.1-0.1c-0.3,0.1-0.6,0.2-0.9,0.3c0,0,0.1,0,0-0.1
							c-0.1,0.1-0.5,0.1-0.6,0.2c-0.1,0-0.1,0-0.3,0l-0.2,0.1c-0.4,0.2-1.1,0.2-1.8,0.3c0,0,0.1,0,0,0c-1,0.2-2.3,0.3-3.5,0.3
							c0,0,0.1-0.1,0-0.1c-0.1,0.1-0.4,0.1-0.7,0.1c-0.1-0.1-0.5,0-0.9,0l0,0c-0.3,0.1-0.4,0-0.6,0l-0.2,0c-0.1,0.1-0.4,0-0.6,0l0,0
							c-0.2,0-0.3,0-0.5,0l0,0c-0.5,0-0.7-0.1-0.7,0c-0.2-0.1,0.4,0,0.2-0.1c-1.5,0-3.1-0.2-4.5-0.6c-0.2-0.1-0.3-0.1-0.3-0.1
							c-0.1,0-0.6-0.1-0.7-0.1c0,0-0.1-0.1-0.2-0.1c-0.2-0.1-0.3,0-0.6-0.2c0.1,0,0.2,0,0.1,0c-0.3,0-0.6-0.2-0.9-0.3
							c0,0,0.1,0,0.1,0c-0.3-0.1-0.5-0.3-0.8-0.4l0.1,0c-0.4-0.3-0.2,0-0.5-0.2c0.1,0,0.1,0,0.1,0c-0.4-0.1-0.9-0.5-1.2-0.7
							c0,0,0,0,0,0c-0.3-0.3-0.7-0.5-1-0.8c-0.1-0.1,0.1,0-0.2-0.3c0,0.1-0.5-0.5-0.4-0.3c-0.2-0.3-0.6-0.8-0.7-1
							c0.1,0.1,0-0.2,0.2,0.1l-0.1-0.2c0,0,0.1,0.2,0.1,0.1c-0.1-0.1-0.4-0.5-0.4-0.6c-0.2-0.2-0.4-0.4-0.6-0.9c0.1,0.2,0-0.1,0.1,0
							c-0.1-0.2-0.2-0.4-0.3-0.6c0-0.1,0.1-0.1,0-0.3c0,0-0.1-0.1-0.1-0.1c0-0.1-0.2-0.6-0.1-0.7c0-0.1,0.1,0.2,0.1,0.1
							c-0.1-0.3-0.1-0.3-0.2-0.6l0,0c-0.1-0.2-0.2-0.5-0.2-0.3c0,0.1,0-0.1,0.1,0.1c-0.1-0.1-0.2-0.4-0.2-0.7c0,0.1,0.1,0.1,0.1,0.1
							c-0.1-0.4-0.3-0.8-0.4-1.2c0,0,0.1,0.2,0.1,0.2c0-0.6-0.2-1.1-0.2-1.6c0,0.1,0,0,0,0c0-0.3,0-0.3,0-0.4c0,0,0-0.2,0-0.4
							c0-0.1,0,0,0,0.1c0-0.1-0.1-0.4-0.1-0.8c0-0.4,0-0.8,0.1-1c0,0,0-0.4,0-0.5l0,0.1c0-0.1,0.1-0.4,0.1-0.5
							c0-0.3-0.1,1.1-0.1,0.7c0.1-0.1,0-0.5,0.1-0.5c0-0.3,0-0.5,0.1-0.8c0,0.1,0,0.2,0.1,0c0.1-0.4,0-0.1,0.1-0.4l0-0.2
							c0,0,0.1-0.3,0-0.2c0,0,0.1-0.5,0.2-0.5l0,0.1c0.1-0.2,0-0.3,0.1-0.4c0,0,0-0.1,0,0c-0.1-0.1,0.1-0.4,0.2-0.6
							c0.2-0.3,0.4-0.8,0.5-0.9c0.1-0.2,0.2-0.5,0.4-0.7c0,0.1-0.1,0.1-0.1,0.2c0.1-0.1,0.1-0.2,0.2-0.4c0,0,0.3-0.3,0.4-0.4
							c0.1-0.2,0-0.2,0-0.2c0.2-0.1,0.5-0.6,0.7-0.8c-0.1,0.1-0.2,0.3-0.1,0.2c0.2-0.1,0.3-0.4,0.6-0.6l-0.1,0
							c0.2-0.1,0.4-0.4,0.4-0.3c0.1-0.1,0.4-0.3,0.3-0.3c0.5-0.3,1.3-0.9,1.7-1c0.1-0.1,0.3-0.2,0.2-0.2c-0.2,0-0.2,0.1-0.2,0.1
							c0.1,0,0.1-0.1,0.1-0.1c0.2-0.1,0.3-0.2,0.2,0c0.4-0.2,0.3-0.3,0.9-0.5c0,0,0,0,0.2,0c0.1-0.1,0.2-0.1,0.3-0.2
							c0.3-0.1,0.2,0,0.2,0c0.2-0.1,0.4-0.2,0.5-0.2l0.2,0c-0.2,0,0.1-0.1,0.2-0.1l-0.1,0c0,0,0.2-0.1,0.4-0.1c0,0-0.3,0-0.4,0.1
							c0.1-0.1,0.2-0.1,0.3-0.2c0,0.1,0.3-0.1,0.5-0.1c0.2,0,0.2-0.1,0.2-0.1c0,0,0.3-0.1,0.2,0c-0.1,0-0.1,0-0.2,0.1
							c0.1,0,0.1,0,0.3-0.1c0.2-0.1-0.1-0.1,0.3-0.2c-0.1,0-0.1,0.1-0.2,0.1l0.3-0.1l0,0c0,0,0,0,0,0c0.1-0.1,0.5-0.1,0.5-0.2
							c0.2-0.1,0.3-0.1,0.5-0.1l0,0c0.2,0,0.4-0.1,0.6-0.2l0,0c0.1,0,0.3-0.1,0.5-0.1c0.3,0,0.1,0.2,0.4,0c0.3,0,0.4-0.2,0.3-0.2
							c0.5-0.1,1-0.2,1.5-0.2c0.1,0,0,0,0.2-0.1c0.7-0.1,1.5-0.2,2-0.1c-0.2,0,0,0,0,0.1c0.2,0,0.2,0,0.3,0c0,0,0-0.1-0.2-0.1
							c0.4,0,1.1,0,1.3,0c-0.1,0,0,0,0.1,0c0,0.1,0.3,0.1,0.5,0.1l0,0l0.2,0c0.1,0,0.1-0.1,0.3,0c0,0,0,0,0.1,0c0.2,0,0.6,0,0.8,0
							l0.2,0.1c0.1,0,0.3,0,0.1-0.1c0.4,0.1,0.7,0.1,0.9,0.2c0.8,0,1.9,0.2,2.8,0.4l0,0c0.2,0.1,0.1,0,0.3,0.1c-0.1,0,0.2,0.1,0,0.1
							c0.3,0.1,0.4,0.1,0.7,0.1c0,0-0.2,0-0.1-0.1c0,0,0.5,0.2,0.5,0.1c0.1,0,0,0.1-0.1,0.1c0.1,0,0.1,0,0.2,0
							c0.2,0.2-0.6-0.1-0.4,0.1l0.2,0c0.2,0.1-0.5-0.1-0.1,0.1c0.2,0,0.4,0,0.2-0.1c0.4,0.1,0.2-0.1,0.7,0.1
							c0.1,0.1-0.4-0.1-0.3-0.1c0.2,0.1,0.4,0.1,0.6,0.2c-0.2-0.1,0-0.1,0.1,0c0.2,0.1-0.2,0,0.1,0.1c0.1,0,0.4,0.1,0.1,0
							c0.1,0,0.3,0.2,0.5,0.2c0.1,0.1-0.4,0-0.1,0.2c0-0.1,0.5,0.2,0.3,0c0.1,0.1,0.1,0.1,0,0.1c0.2,0.1,0.5,0.2,0.5,0.3l0.1,0
							c0.1,0.1,0.1,0.1,0.2,0.2c0.2,0.1,0.5,0.3,0.5,0.3c0.1,0,0.4,0.3,0.3,0.2c-0.2-0.2-0.3-0.2-0.3-0.3c0.1,0.2,0.3,0.2,0.4,0.3
							l0,0c0.1,0,0.2,0.2,0.3,0.2c-0.1,0-0.1,0,0,0.1l0.1,0c0.3,0.2,0,0.1,0.3,0.4l-0.2-0.2c0,0,0.1,0.2,0.2,0.3
							c0.1,0,0.2,0.1,0.3,0.1c0.2,0.1,0,0.1,0.2,0.2l-0.2-0.2c0,0,0.1,0.2,0.3,0.4c0.1,0.1,0.3,0.3,0.2,0.1c0.1,0.1,0.2,0.3,0.1,0.2
							c0.2,0.2,0-0.1,0.2,0.1c0.1,0.1,0.2,0.4,0.3,0.6L56,53.9l0.1,0.2c-0.2-0.2,0,0.1-0.1,0.1c0.1,0.1,0.2,0.2,0.2,0.3
							c-0.1-0.4,0.3,0.3,0.4,0.1c0.3,0.4,0,0.4,0.3,0.8c0-0.1,0.2,0.1,0-0.2c0.1,0.3,0.2,0.1,0.3,0.5c-0.1-0.2,0,0.3-0.2,0
							c0,0-0.1-0.2-0.1-0.3c0,0.1-0.1,0,0,0.3c0.1,0.2,0.2,0.4,0.2,0.4c0,0-0.1-0.3,0-0.2c0.2,0.4,0.1,0.4,0.3,0.6
							c-0.1-0.2-0.1-0.3,0-0.3l0.1,0.3l-0.1,0c0.1,0.4,0.1,0.1,0.2,0.5l0,0.2c-0.1-0.1-0.2-0.6-0.3-0.5c0.1,0.3,0.2,0.4,0.2,0.6
							L57.6,57c0,0.1,0,0.2,0.1,0.6c0.1,0.2,0,0,0.1,0c0.1,0.5,0.2,0.6,0.3,0.9c-0.1,0,0.1,0.5,0,0.2c0-0.2-0.1-0.8-0.2-1
							c0,0.2-0.1-0.4-0.2-0.4c0.1,0.4,0,0.4,0,0.4c0,0.1,0.1,0.2,0.1,0.2c0.1,0,0-0.1,0.1-0.1c0.1,0.4,0.2,0.8,0.3,1
							c0,0.1-0.1,0.1-0.1-0.1c0.1,0.5,0.2,1,0.2,1.5c0.1-0.3,0.1,0.5,0.1,0.3c0-0.3,0.1-0.5,0.1-0.3c0,0.2,0,0-0.1,0.1
							c0.1,0.2-0.1,0.3,0,0.5c-0.1-0.5-0.1-0.1-0.2-0.2c0.1,0.3,0,0,0,0.3c0,0.3,0.1,0.7,0.1,1.1c-0.1,0.4-0.1,1.1-0.1,1.5
							c-0.1,0.2-0.1,0.1-0.2,0.3c0,0.3,0.1-0.2,0,0.2l0,0c0,0.1-0.1,0.7-0.1,0.8l-0.1-0.1c0,0.1,0,0.1,0,0.2c0,0-0.1,0.1-0.1,0
							c-0.1,0.2-0.1,0.5-0.1,0.8l0.1-0.2c0,0.5-0.2,0.7-0.2,1.2l0,0l0,0.3c0-0.1-0.1,0.2-0.1,0.3l0.1-0.7c0.1-0.2,0,0.2,0.1,0.1
							c0.1-0.1,0.1-0.5,0.1-0.6c0,0.2,0,0.2,0,0.3c-0.1,0,0-0.2,0-0.3c0,0.1-0.1,0.2,0,0.2c0-0.2,0-0.3,0.1-0.6c0,0.2,0.1-0.1,0.1,0
							c-0.1,0,0-0.3,0-0.6c0.1-0.2,0.1-0.6,0.1-1c0,0.2,0.1,0.4,0.1,0.6c0.1-0.2,0-0.3,0.1-0.5c0-0.1-0.1-0.2-0.1-0.5l0,0
							c0-0.3-0.1-0.3,0-0.6c0.1-0.6,0.1-1.2,0.1-1.7l0,0c-0.1-0.3-0.1-0.9-0.1-1.2c0-0.6-0.2-1.3-0.2-1.6c-0.3-1-0.6-1.9-1-2.9
							c0,0,0.1,0.1,0.1,0.1c-0.1-0.2,0-0.1-0.1-0.3c0.1,0.2-0.2-0.2-0.3-0.3c-0.2-0.5-0.6-0.9-0.9-1.2l0,0c-0.3-0.3-0.6-0.7-1-1.1
							c0-0.1-0.1-0.2-0.2-0.3c-0.3-0.2-0.4-0.2-0.7-0.5c-0.2-0.2-0.6-0.5-0.9-0.7c-1-0.5-2.1-1.1-3.3-1.4L49.3,50
							c-1.1-0.3-2.6-0.6-3.6-0.7l0.1-0.1c-0.3-0.1-0.7-0.1-0.6,0c-0.3,0-0.8,0-1-0.1c-0.3,0-0.4,0-0.7,0c-0.7,0-0.9,0-1.5,0l0.2,0
							c0.1,0,0.1-0.1-0.1-0.1c-0.2,0-0.8,0-0.6,0.1c-0.7,0-1.5,0.2-2.2,0.2c0.1,0-0.1,0-0.2,0.1c-0.6,0.1-1.2,0.1-1.6,0.3
							c-0.1,0,0.1-0.1-0.1,0c-0.1,0,0,0-0.2,0.1c-0.9,0.2-1.8,0.4-2.6,0.6c-1.4,0.5-2.9,1.1-4.1,1.8l0,0c-0.4,0.3-1,0.5-1.2,0.9
							c-0.1,0-0.3,0.3-0.3,0.2c-0.3,0.3-0.8,0.7-1.2,1.1c0,0,0.1-0.1,0.1-0.1c-0.2,0.2-0.4,0.4-0.5,0.6c-0.2,0.2-0.3,0.4-0.5,0.6
							c0-0.1,0.1-0.1,0.1-0.2c-0.2,0.2-0.2,0.5-0.4,0.5c-0.1,0.1,0,0.1,0,0c-0.7,1.1-1.1,2.4-1.3,3.7c-0.2,0.9-0.2,0-0.2,0.8
							c0,0.1,0,0,0,0.1c0,0.3-0.1,0.4-0.1,0.7c0.1-0.1,0,0.1,0.1,0.1c-0.1,0.6-0.1,0.7,0,1.2l0,0c0.1,0.5,0.2,1.2,0.3,1.6
							c0.1,0.7,0.3,1.5,0.5,2.2l0.3,1.1l0.1,0.3l0,0.1l0,0.1l0,0.1c0,0.2,0.1,0.3,0.2,0.5c0.5,1.3,1.4,2.4,2.5,3.4
							c1.1,0.9,2.3,1.6,3.7,2c0.7,0.3,1.4,0.4,2.1,0.6c0.7,0.1,1.4,0.3,2.1,0.4c0.7,0.1,0.7,0.1,1.5,0.2c0,0-0.1,0,0,0
							c0-0.1,0.5,0,0.6,0c0.5,0,1.1,0,1.6,0l0.4,0l0.1,0c0.1,0,0.1,0,0.2,0l0.2,0c0.3,0,0.5,0,0.8,0c-0.2,0-0.3,0.1-0.1,0.1l0.2,0
							l0,0c0.1,0,0.3,0,0.2-0.1c2.8-0.1,5.6-0.3,8.2-1.2c0.3-0.1,0.7-0.3,1-0.4c0.4-0.2,0.7-0.4,1-0.6c1.8-0.9,3.3-2.4,3.9-4.4
							C56.7,68.1,56.7,68.4,56.4,69.2z"/>
						<path fill="#808181" d="M57.1,67.5c0.1-0.1,0.1-0.3,0.1-0.1C57.1,67.4,57.1,67.6,57.1,67.5z"/>
						<path fill="#808181" d="M58.2,61c0,0,0-0.1,0-0.1c0,0.1,0,0.2,0,0.2C58.3,61,58.2,61,58.2,61z"/>
						<path fill="#808181" d="M58.1,59.3c0,0,0.1,0.4,0.1,0.6L58.1,59.3z"/>
						<path fill="#808181" d="M57.9,57.7C57.9,57.5,57.9,57.6,57.9,57.7C57.9,57.8,57.9,57.7,57.9,57.7z"/>
						<path fill="#808181" d="M57.8,57.6c0-0.1,0-0.2,0-0.3C57.7,57.3,57.9,57.6,57.8,57.6z"/>
						<path fill="#808181" d="M56.5,54.3c0-0.1-0.2-0.2-0.2-0.3C56.3,54.1,56.5,54.3,56.5,54.3z"/>
						<path fill="#808181" d="M55.4,53c0,0,0-0.1-0.1-0.1C55.3,52.8,55.4,52.9,55.4,53L55.4,53z"/>
						<polygon fill="#808181" points="28.2,53.2 28.3,53.1 28.3,53.1 						"/>
						<path fill="#808181" d="M25,65.2c0.1,0.2,0,0.1,0,0.2C25,65.2,25.1,65.4,25,65.2z"/>
						<polygon fill="#808181" points="28,71.3 28,71.3 28,71.2 						"/>
					</g>
				</g>
			</g>
		</g>
	</g>
	<g>
		<g>
			<g>
				<g>
					<g>
						<path fill="#808181" d="M46.9,53.4C46.9,53.4,46.9,53.3,46.9,53.4L46.9,53.4L46.9,53.4z"/>
						<path fill="#808181" d="M46.8,53.2c0,0-0.1,0.1-0.1,0.1C46.7,53.3,46.7,53.3,46.8,53.2c0,0,0.1,0.1,0,0.1c0,0,0,0,0.1,0
							C46.9,53.2,46.8,53.2,46.8,53.2C46.7,53.2,46.8,53.2,46.8,53.2z"/>
						<path fill="#808181" d="M44.1,52.4L44.1,52.4L44.1,52.4z"/>
						<path fill="#808181" d="M42.4,52.2C42.4,52.2,42.4,52.2,42.4,52.2C42.4,52.2,42.4,52.2,42.4,52.2z"/>
						<path fill="#808181" d="M42.1,52.1C42.1,52.1,42.1,52.1,42.1,52.1C42.1,52.1,42.1,52.1,42.1,52.1z"/>
						<path fill="#808181" d="M44.1,52.4L44.1,52.4C44,52.4,44.1,52.4,44.1,52.4z"/>
						<path fill="#808181" d="M46.3,53.2C46.4,53.2,46.4,53.2,46.3,53.2L46.3,53.2L46.3,53.2z"/>
						<polygon fill="#808181" points="44.9,52.5 44.9,52.5 44.9,52.5 						"/>
						<path fill="#808181" d="M45.4,52.6C45.4,52.6,45.4,52.7,45.4,52.6C45.4,52.7,45.4,52.6,45.4,52.6
							C45.4,52.6,45.4,52.6,45.4,52.6z"/>
						<path fill="#808181" d="M46.3,53L46.3,53L46.3,53z"/>
						<path fill="#808181" d="M44.4,52.4C44.4,52.4,44.4,52.4,44.4,52.4C44.4,52.4,44.4,52.4,44.4,52.4z"/>
						<path fill="#808181" d="M29.9,58.1L29.9,58.1C29.8,58.1,29.9,58.1,29.9,58.1z"/>
						<polygon fill="#808181" points="29.2,58.4 29.2,58.4 29.2,58.4 						"/>
						<path fill="#808181" d="M41.5,52L41.5,52C41.5,52,41.5,52,41.5,52z"/>
						<path fill="#808181" d="M36.6,53c0.1,0-0.1,0.1,0,0.1C36.6,53.1,36.7,53,36.6,53z"/>
						<path fill="#808181" d="M46.3,53.2L46.3,53.2C46.3,53.2,46.3,53.2,46.3,53.2z"/>
						<polygon fill="#808181" points="36.6,53.2 36.6,53.2 36.6,53.2 						"/>
						<path fill="#808181" d="M40.2,52.1C40.2,52.1,40.3,52.2,40.2,52.1C40.3,52.2,40.3,52.2,40.2,52.1z"/>
						<path fill="#808181" d="M41.2,52.1L41.2,52.1C41.2,52.1,41.2,52.1,41.2,52.1z"/>
						<path fill="#808181" d="M39.8,52.3C39.8,52.3,39.8,52.3,39.8,52.3L39.8,52.3C39.7,52.3,39.8,52.3,39.8,52.3z"/>
						<path fill="#808181" d="M39.3,52.4C39.3,52.4,39.3,52.4,39.3,52.4L39.3,52.4L39.3,52.4z"/>
						<path fill="#808181" d="M30.9,57.1C30.9,57.1,30.9,57.1,30.9,57.1C30.9,57.1,30.9,57.1,30.9,57.1z"/>
						<path fill="#808181" d="M46.4,53.2C46.3,53.2,46.3,53.2,46.4,53.2C46.3,53.2,46.3,53.2,46.4,53.2
							C46.4,53.2,46.4,53.2,46.4,53.2z"/>
						<path fill="#808181" d="M39.8,52.7L39.8,52.7C39.8,52.7,39.8,52.7,39.8,52.7z"/>
						<path fill="#808181" d="M33.8,55L33.8,55C33.8,55,33.8,55,33.8,55z"/>
						<path fill="#808181" d="M39.5,52.8C39.5,52.8,39.5,52.8,39.5,52.8L39.5,52.8L39.5,52.8z"/>
						<path fill="#808181" d="M30.9,57.1L30.9,57.1L30.9,57.1z"/>
						<path fill="#808181" d="M30.6,57.5c0.1-0.1,0-0.1,0-0.1c0.1-0.1,0.1,0,0.1,0c0-0.1,0-0.1,0-0.2c0,0,0,0,0,0
							c0-0.1,0.1-0.1,0.1-0.2c0,0,0,0,0,0c0,0-0.1,0-0.1-0.1c0,0,0-0.1,0.1,0c0,0,0,0,0,0l0,0c0.1,0,0,0.1,0,0.1
							c0-0.1,0.1-0.2,0.1-0.2c0.1,0-0.1,0.1,0,0.1l-0.1,0c0.1,0,0,0,0.1,0.1c0.1-0.1,0.1-0.1,0.2-0.2c0,0,0,0-0.1-0.1
							c0.1-0.2,0.2,0.1,0.2-0.1c0-0.1-0.1-0.1,0-0.1l0,0.1c0.1-0.1,0-0.1,0.1-0.2c0,0,0,0.1,0,0.1c0.1,0,0-0.1,0.1-0.1l0.1,0
							c0.1-0.1,0.1-0.2,0.2-0.3c0,0,0,0.1,0,0c0.1-0.1,0.3-0.2,0.4-0.3l0-0.1c0,0,0,0,0,0c0.1,0,0,0,0-0.1c0,0,0.1,0,0.1,0
							c0.1-0.1,0.2-0.3,0.3-0.3l0,0c0.1,0,0-0.2,0.1-0.2l0,0c0.2-0.1,0.3-0.2,0.5-0.3c0-0.1,0.2-0.1,0.1-0.2c0.1,0,0.1,0,0.3,0
							c0,0,0-0.1,0-0.1l0,0.1l0-0.1l0.1,0l0,0c0,0,0,0-0.1,0c0-0.1,0.2-0.1,0.2,0l0.1-0.1c0,0,0,0,0,0.1c0-0.1,0,0,0.1,0
							c0,0,0,0,0,0c0.1,0,0.1,0,0.2-0.1l0,0c0.1-0.1,0.2-0.2,0.3-0.2c-0.1,0-0.1-0.1,0-0.1l0,0.1c0,0-0.1,0,0-0.1
							c0.1,0,0.1,0.1,0.1,0.1l0,0c0,0,0,0,0,0.1c0,0,0.1,0,0.1-0.1l0,0c0.1-0.1,0.2-0.1,0.3-0.2c0-0.1,0-0.1,0-0.1
							c0.1,0,0.2,0,0.3-0.1c0.1-0.1,0-0.1,0-0.1c0,0,0.1,0,0.1,0.1c0.1-0.1,0.1-0.1,0.3-0.2c0,0,0,0,0,0c0,0,0.1,0,0.1,0l0,0
							c0.1-0.1,0.4,0,0.5-0.2l0,0l0.1-0.1c0.1,0,0,0.1,0,0.1c0.1-0.1,0.2-0.1,0.3-0.2c0.1,0.1,0.3-0.1,0.5-0.1l0,0c0,0,0,0,0.1,0
							c0,0,0,0,0,0c0.3-0.1,0.6-0.1,0.9-0.2c0.1,0,0-0.2,0.2-0.2l0,0.1c0.2-0.2,0.4-0.1,0.6-0.2c0,0,0,0,0,0c0.1,0,0.2,0,0.2-0.1
							c0,0,0,0,0,0.1c0,0,0.1-0.1,0.1,0c0,0,0,0,0,0c0,0,0.1,0,0.1-0.1c0.1,0,0.1-0.1,0.2,0c0-0.1,0.1,0,0.1-0.1c0,0.1,0.1,0,0.2,0
							c0,0,0,0,0,0.1c0.1,0,0.1,0,0.1-0.1c0.1,0.1,0.2-0.1,0.3,0c0.2-0.1,0.3-0.1,0.5-0.1c0,0.1-0.2,0-0.2,0.1
							c0.1,0,0.2-0.1,0.4-0.1c0,0,0,0,0,0.1c0.1-0.1,0.3,0,0.4-0.1c0,0,0,0,0,0c0,0,0.1,0,0.1,0l0,0c0-0.1,0.1-0.1,0.1-0.2
							c0,0.1,0.1,0,0.1,0.2c0,0,0,0,0-0.1c0,0,0,0,0,0.1c0.1,0,0.1-0.1,0.1-0.1c0,0,0,0,0,0.1c0,0,0.1-0.1,0.2-0.1c0,0,0,0,0,0
							c0.1,0,0.2-0.1,0.3-0.1c0,0.1,0,0,0.1,0.1l0.1,0l0,0c0.1,0,0.1,0,0.2,0l0,0l0.1,0l-0.1,0c0.1,0,0-0.1,0.1-0.1c0,0,0.1,0,0.1,0
							l0,0c0,0,0.1,0,0.1,0c0,0,0,0.1,0,0.1c0-0.1,0.1,0,0.2-0.1c0,0,0,0.1,0,0.1l0-0.1c0,0,0,0,0,0.1c0.1,0,0-0.1,0.1-0.1
							c0,0,0,0,0,0c0.1,0,0.2,0,0.3,0c0,0.1-0.1,0-0.1,0.1c0.1,0,0.3-0.1,0.4,0l0,0c0-0.1,0.1,0.1,0.2,0c0,0,0,0.1,0,0
							c0.1,0,0.2,0,0.3,0l0,0c0,0,0.1,0,0.2,0.1c0,0,0.1,0,0-0.1c0.1,0.2,0.4,0,0.5,0.1c0,0,0,0,0,0l0.1,0c0,0,0,0,0-0.1
							c0,0,0.1,0,0.1,0c-0.1,0,0,0.1,0,0.1c0,0,0,0,0,0c0.1,0.1,0-0.1,0.1,0l0,0c0,0,0.1,0,0.1,0c0,0.1,0,0-0.1,0.1
							c0.1,0,0.1-0.1,0.2,0c0,0-0.1,0-0.1,0c0,0.1,0,0.1,0.1,0.1l0,0l0.1,0.1l0,0c0.1-0.1,0.1,0,0.3,0c-0.1,0.1,0,0-0.1,0.1
							c0,0,0,0.1,0,0.1c0.1,0,0.1,0.1,0.1,0c0,0,0,0,0,0.1c0.1,0,0,0,0-0.1c0.1,0,0.2,0.1,0.3,0.1c0.1,0,0.2-0.1,0.3-0.1
							c0,0,0,0.1,0,0.1c0,0,0.1,0.1,0.1,0c0,0,0,0,0,0.1c0,0,0.1-0.1,0.1,0c0,0,0,0-0.1,0.1c0.1,0,0.1,0,0.2,0c0,0,0,0-0.1,0.1
							c0.1,0,0.2,0,0.2,0l0,0c0,0,0,0,0,0.1c-0.1,0-0.1,0-0.1-0.1l0,0c0-0.1-0.1,0-0.2-0.1l0.1-0.1l-0.1,0c0,0,0-0.1,0-0.1
							c0-0.1-0.1,0-0.1,0c0,0,0,0,0,0l-0.1,0c0,0,0-0.1,0,0c-0.1-0.1-0.2,0-0.2-0.1l0,0c-0.1,0,0,0.1-0.1,0.1l0-0.2l0,0.1
							c0,0,0,0,0,0c-0.1,0,0,0,0,0.1c0-0.1-0.2,0-0.2-0.1c0,0,0,0.1,0,0.1c0-0.1-0.1,0-0.1-0.1c0,0,0.1,0,0-0.1
							c-0.1,0.1-0.1-0.1-0.2-0.1c0,0.1-0.1,0-0.2,0c0,0-0.1-0.1-0.2-0.1l0,0c0,0.1-0.1,0-0.2,0c0,0,0-0.1,0.1-0.1l-0.1,0
							c0,0,0,0-0.1,0l0-0.1c-0.1,0-0.2,0-0.2,0c0,0.1,0,0.2-0.1,0.2c0,0,0-0.1,0-0.1c0,0,0,0,0,0l0,0c0,0,0,0-0.1,0c0,0,0,0,0-0.1
							c0,0,0,0,0,0c0,0-0.1,0-0.1-0.1c0,0,0,0.1,0,0.1c-0.1,0,0-0.1-0.1-0.1c0,0-0.1,0-0.1,0c0,0,0,0,0,0c0,0-0.2,0-0.1,0l0,0l0,0
							l0,0l0,0c-0.1,0-0.2-0.1-0.4-0.1l0,0c-0.1,0-0.2,0-0.2,0c0,0,0,0,0-0.1c-0.1,0-0.1,0-0.1,0c0.1,0,0,0,0.1,0
							c-0.1,0-0.1-0.1-0.2,0c0-0.1,0-0.1-0.1-0.1l0,0c0,0-0.1,0-0.1,0l0-0.1c-0.1-0.1-0.3,0.1-0.4,0c0,0,0.1,0,0,0.1
							c-0.1,0-0.1-0.1-0.2-0.1c-0.1,0-0.1,0.1-0.2,0.1c0,0,0,0.1-0.1,0.1c-0.1,0-0.1-0.1,0-0.1c0,0,0,0,0,0c0,0,0.1,0,0,0l0,0
							c0,0-0.1,0-0.1-0.1c-0.1,0,0,0,0,0.1c-0.1,0-0.1,0-0.2,0c0,0,0,0,0,0c-0.1,0-0.1,0-0.1,0.1c-0.1,0,0-0.1-0.1-0.1
							c-0.1,0,0-0.1,0-0.1c-0.1,0-0.2,0-0.2,0l0,0c0,0,0,0-0.1,0l0,0c0,0,0,0,0,0c0,0,0,0.1,0,0.1c0,0-0.1,0-0.1,0
							c0.1,0,0-0.1,0.1-0.1c0,0,0,0-0.1,0c0,0,0,0,0,0c-0.1,0,0,0.1-0.2,0.1c0,0,0-0.1,0-0.1c0,0,0,0.1,0,0.1c-0.1,0-0.1,0-0.1,0
							l0,0c0,0,0,0-0.1,0.1c0,0,0,0,0,0c0,0.1-0.1-0.1-0.2,0c0,0,0-0.1,0-0.1c-0.1,0.1-0.1,0-0.2,0c0,0,0,0,0,0.1l0.1,0l-0.1,0.1
							c0,0,0.1,0,0.1,0c0,0,0,0,0,0.1c-0.1-0.1-0.1,0.1-0.2,0l0-0.1c-0.1,0-0.2,0.1-0.3,0.1l0,0c0,0-0.1,0-0.1,0c0,0,0-0.1,0-0.1
							c0,0-0.1,0-0.1,0.1l-0.1,0c-0.1,0-0.1,0.1-0.2,0.1c0,0,0-0.1,0-0.1c0,0-0.1,0-0.1,0c0,0-0.1,0.1-0.1,0c0,0,0,0.1,0,0.1
							c0,0,0,0,0,0c0,0-0.1,0,0,0.1c-0.1-0.1-0.3,0.1-0.4,0c-0.1,0-0.2,0.1-0.2,0.1c0,0,0,0,0,0c-0.1,0,0,0.1-0.1,0.1
							c-0.1-0.1,0,0,0-0.1c0-0.1-0.1,0-0.2,0l0,0c-0.1,0-0.1,0.1-0.2,0.1c0,0,0,0,0,0c0,0.1-0.2,0.1-0.2,0.2c0-0.1,0,0,0-0.1
							c0,0,0,0.1,0,0.1c0,0-0.1,0-0.1-0.1l0.1,0c-0.1-0.1-0.1,0-0.1,0l0,0c-0.1,0-0.1,0.1-0.2,0.2l0,0c0,0.1-0.1,0-0.1,0l0-0.1
							c0,0-0.1,0.1-0.2,0.2c0-0.1,0.1-0.1,0.1-0.2c0,0-0.1,0-0.1,0.1c0,0,0,0,0,0c0,0.1-0.1,0.1-0.2,0.2c0-0.2-0.2,0-0.3-0.1
							C37,53,36.8,52.9,36.7,53c0.1,0.1,0,0,0,0.1c0,0,0,0-0.1,0l-0.1,0c0,0,0,0,0-0.1c-0.1,0-0.1,0-0.1,0c0,0,0,0.1-0.1,0.1l0.1,0
							c-0.1,0.1-0.1-0.1-0.2,0.1l0-0.1c-0.1,0-0.2,0.1-0.2,0.2c0,0,0,0,0-0.1c-0.1,0-0.3,0.2-0.4,0.2l0,0c0,0,0,0.1-0.1,0.1
							c0,0,0,0,0,0c0,0,0,0.1-0.1,0.1l0,0c-0.2,0-0.2,0.2-0.3,0.3c0-0.1-0.2-0.1-0.2,0l0,0c-0.2,0.1-0.2,0.2-0.4,0.3
							c-0.1,0-0.3,0.1-0.5,0.2c0,0,0,0.1,0,0.1c0,0-0.1,0.1-0.1,0l0,0c-0.1-0.1-0.1,0-0.2,0l0,0.1c-0.2-0.1-0.3,0.3-0.5,0.2
							c0,0-0.1,0.1-0.1,0.1l0-0.1c-0.1,0-0.1,0.1-0.3,0.1l0,0c-0.1,0,0,0.2,0,0.2L32.9,55c-0.1,0.1-0.3,0.1-0.3,0.2c0,0,0,0,0,0
							c-0.1,0-0.2,0.1-0.1,0.2c0-0.1-0.1,0.1-0.2,0.1l0-0.1c0,0.1,0,0.1-0.1,0.2c0,0,0,0,0,0c-0.1,0,0,0.1-0.1,0.1l0,0
							c-0.1,0,0,0,0,0.1c0,0-0.1,0.1-0.1,0c0,0,0,0.1,0,0.1c0,0,0,0,0,0c-0.1,0-0.1,0.2-0.2,0.2c0,0,0,0,0,0
							c0.1-0.1,0.1-0.1,0.1-0.1c0,0-0.1,0-0.1-0.1c0,0.1,0,0.2-0.1,0.2c0,0,0,0,0,0l0,0c0,0,0,0,0,0c0,0,0,0-0.1,0
							c0,0-0.1,0-0.1,0.1c0,0,0,0.1,0.1,0.1c0,0,0,0,0,0c0,0,0,0,0,0l0,0c0,0,0,0,0.1-0.1c0,0,0,0.1-0.1,0.1c0,0,0,0.1,0,0.1
							c-0.1,0-0.2,0-0.2,0c-0.1,0.1-0.2,0.2-0.2,0.3c0,0,0,0-0.1,0c0,0,0,0,0-0.1c0,0.1-0.1,0.1-0.1,0.2c-0.1,0,0-0.1-0.1,0l0,0
							c-0.2,0-0.1,0.4-0.4,0.4c0,0,0,0,0,0c-0.2,0.1-0.4,0.4-0.6,0.5c-0.1,0,0,0.1,0,0.1l-0.1,0l0,0.1c0,0.1-0.2,0-0.3,0.2l0,0
							c0,0-0.1,0.1-0.1,0.1c0,0,0,0,0,0l0,0l0,0.1c-0.1,0.1-0.1-0.1-0.2,0c0,0,0,0.2,0,0.2c0,0,0.1,0,0.1,0l0,0
							c0.1,0.1,0.1,0.2,0.2,0.1l0-0.1l0.1,0l0,0.1c0.1,0,0,0,0-0.1c0,0,0,0,0.1,0l0-0.1c0,0,0,0.1,0.1,0.1c0-0.1-0.1,0-0.1-0.1
							c0.1,0,0.1,0,0.1,0c0,0,0,0,0,0.1c0,0,0.1-0.1,0-0.1c0.1,0,0.1-0.1,0.1,0c0,0,0-0.1,0-0.1c0,0.1,0.1-0.1,0.2,0
							c0-0.1,0.1-0.2,0.1-0.3c0,0,0,0,0,0c0,0,0.1,0,0.1,0c-0.1-0.1,0-0.1,0-0.2c0.1,0,0,0.1,0.1,0.1c0,0,0-0.1,0-0.1
							c0.1,0,0,0,0.1,0c-0.1-0.1,0,0,0-0.1C30.5,57.4,30.5,57.5,30.6,57.5C30.6,57.4,30.6,57.5,30.6,57.5z M31.8,56.2L31.8,56.2
							C31.8,56.2,31.8,56.3,31.8,56.2C31.8,56.3,31.8,56.3,31.8,56.2z M31.9,56.1C31.9,56.2,31.9,56.2,31.9,56.1
							C31.8,56.2,31.8,56.2,31.9,56.1C31.8,56.2,31.9,56.1,31.9,56.1z M31.4,56C31.4,56,31.4,56,31.4,56C31.4,56,31.4,56,31.4,56
							L31.4,56C31.4,56,31.4,56,31.4,56z"/>
						<polygon fill="#808181" points="31.4,56.1 31.4,56.1 31.4,56.1 31.4,56.1 						"/>
						<polygon fill="#808181" points="44.1,52.4 44.1,52.4 44.1,52.4 						"/>
						<polygon fill="#808181" points="33.6,55.1 33.6,55.1 33.6,55.1 						"/>
						<path fill="#808181" d="M44.9,52.7C44.9,52.7,44.9,52.8,44.9,52.7C44.9,52.8,44.9,52.8,44.9,52.7z"/>
						<path fill="#808181" d="M45.2,52.8L45.2,52.8C45.2,52.9,45.2,52.8,45.2,52.8z"/>
						<path fill="#808181" d="M45.5,52.9C45.5,52.9,45.5,52.9,45.5,52.9L45.5,52.9L45.5,52.9z"/>
						<path fill="#808181" d="M41.2,52.5C41.2,52.5,41.2,52.5,41.2,52.5C41.2,52.5,41.2,52.5,41.2,52.5z"/>
						<path fill="#808181" d="M42.5,52.4C42.5,52.4,42.5,52.4,42.5,52.4C42.5,52.4,42.5,52.4,42.5,52.4z"/>
						<polygon fill="#808181" points="39.8,52.7 39.8,52.7 39.8,52.7 						"/>
						<path fill="#808181" d="M42.4,52.4C42.4,52.4,42.4,52.4,42.4,52.4C42.4,52.4,42.4,52.4,42.4,52.4z"/>
						<polygon fill="#808181" points="46.6,53.3 46.6,53.3 46.6,53.3 						"/>
						<path fill="#808181" d="M46.6,53.3L46.6,53.3C46.6,53.3,46.6,53.3,46.6,53.3z"/>
						<path fill="#808181" d="M46.6,53.3L46.6,53.3C46.6,53.3,46.6,53.3,46.6,53.3z"/>
						<path fill="#808181" d="M46.2,53.2L46.2,53.2C46.2,53.2,46.2,53.2,46.2,53.2z"/>
						<path fill="#808181" d="M46.1,53.2C46.2,53.2,46.2,53.2,46.1,53.2L46.1,53.2C46.2,53.2,46.2,53.1,46.1,53.2z"/>
						<path fill="#808181" d="M45.8,52.8L45.8,52.8c0.1,0,0.1,0,0.1,0C45.8,52.7,45.9,52.8,45.8,52.8z"/>
						<path fill="#808181" d="M45.5,52.7C45.6,52.7,45.5,52.6,45.5,52.7C45.5,52.6,45.5,52.6,45.5,52.7z"/>
						<path fill="#808181" d="M43.5,52.3L43.5,52.3C43.4,52.2,43.5,52.2,43.5,52.3z"/>
						<polygon fill="#808181" points="43.1,52.5 43.1,52.5 43.1,52.5 						"/>
						<polygon fill="#808181" points="42.8,52.1 42.9,52.1 42.8,52.1 						"/>
						<path fill="#808181" d="M39.4,52.3L39.4,52.3C39.4,52.3,39.4,52.3,39.4,52.3z"/>
						<path fill="#808181" d="M37.9,52.7C37.9,52.7,37.8,52.7,37.9,52.7C37.8,52.7,37.9,52.7,37.9,52.7z"/>
						<polygon fill="#808181" points="33.7,54.4 33.7,54.4 33.7,54.4 						"/>
					</g>
				</g>
			</g>
		</g>
	</g>
</g>
</svg>
