<?xml version="1.0" encoding="utf-8"?>
<!-- Generator: Adobe Illustrator 23.1.0, SVG Export Plug-In . SVG Version: 6.00 Build 0)  -->
<svg version="1.1" id="Capa_1" xmlns="http://www.w3.org/2000/svg" xmlns:xlink="http://www.w3.org/1999/xlink" x="0px" y="0px"
	 viewBox="0 0 89.2 89.2" enable-background="new 0 0 89.2 89.2" xml:space="preserve">
<g>
	<g>
		<path fill="#F4BC63" d="M52.4,27.3h-0.6c0.1-0.2,0.2-0.5,0.2-0.7v-2.5c0-0.9-0.7-1.7-1.7-1.7h-1.9c-0.2,0-0.3-0.1-0.4-0.3
			l-2.9-9.9c-0.1-0.4-0.6-0.4-0.7,0l-2.8,10.2h-0.2h-2c-0.9,0-1.7,0.7-1.7,1.7v2.5c0,0.3,0.1,0.5,0.2,0.7h-0.6
			c-1.9,0-3.5,1.6-3.5,3.5v42.5c0,1.9,1.6,3.5,3.5,3.5h14.9c1.9,0,3.5-1.6,3.5-3.5V30.8C55.9,28.8,54.3,27.3,52.4,27.3z"/>
		<g>
			<g>
				<g>
					<g>
						<path fill="#808181" d="M52,27.4c0.6,0-0.3,0,0.4,0C52.3,27.4,52.2,27.4,52,27.4z"/>
						<path fill="#808181" d="M54.2,27.9c0.8,0.4,1.5,1.4,1.6,2.6c0,1.1,0,2.3,0,3.3c0,0.2-0.1-0.1-0.1,0.5c0.1,2,0,5.2,0,7.7l0-0.1
							c0,0.5,0.1,1,0,1.5c0,0,0-0.2,0,0c0,0.1,0,0.9,0.1,1.1c0,0.2-0.1,0.2-0.1,0.4l0.1,0.3c0.1,0.8,0,1.9,0.1,3c0-0.1,0-0.2,0-0.1
							c0.1,1.7,0.1,3.9,0.1,5.8c0-0.1-0.1-0.1-0.1,0c0.1,0.1,0.1,0.7,0.1,1.2c-0.1,0.2,0.1,0.9,0,1.5l0-0.1c0.1,0.5,0,0.7,0,1l0,0.3
							c0.1,0.2,0,0.7,0,1l0,0c0,0.4,0,0.5,0,0.9l0,0c0,0.8,0,1.2,0,1.2c0,0.3,0-0.7-0.1-0.3c0.1,2.5,0.1,5.1,0.1,7.6
							c0,0.3,0,0.5-0.1,0.5c0,0.3,0,0.9,0,1.2c0-0.1,0,0.2,0,0.3c0,0.5,0.1,0.5,0,1c0-0.2,0-0.3-0.1-0.2c0,0.4,0,1,0.1,1.5
							c0-0.1,0-0.2,0-0.2c0,0.6,0,1,0,1.5l0-0.2c-0.2,0.8,0.1,0.2-0.2,0.9c0-0.2,0-0.1,0-0.1c-0.1,0.6-0.8,1.5-1.3,1.8c0,0,0,0,0,0
							c-0.6,0.4-1.3,0.6-2.1,0.6c-0.3,0,0.1-0.1-0.6-0.1c0,0.1-1.2,0-0.8,0.1c-0.6,0-1.6,0-2,0c0.3,0-0.3-0.1,0.2-0.1l-0.4,0
							c0.1,0,0.4,0,0.3,0c-0.3,0-1,0-1.2,0c-0.5,0-0.9,0.1-1.7,0.1c0.4,0-0.2-0.1,0-0.1L45,76.9c-0.3,0-0.1-0.1-0.4,0
							c0,0-0.1,0-0.3,0c-0.1,0-1.1,0-1.2-0.1c-0.1,0,0.4,0,0.1,0c-0.5,0-0.5,0-1,0l0,0c-0.3,0-0.9,0-0.6,0.1c0.2,0-0.1,0,0.2,0
							c-0.2,0-0.8,0.1-1.3,0.1c0.2,0,0.1,0,0.2-0.1c-0.6,0.1-1.3,0.1-2,0.1c0,0,0.3-0.1,0.4,0c-0.5,0-0.9,0-1.4,0
							c-0.4,0-0.9,0-1.3-0.1c0.1,0,0.1,0.1,0.1,0.1c-0.4-0.1-0.4-0.2-0.7-0.3c0,0-0.3-0.2-0.6-0.3c-0.1-0.1-0.1-0.1,0.2,0.1
							c-0.2-0.1-0.6-0.4-1-0.9c-0.4-0.5-0.6-1.2-0.6-1.7c0,0-0.1-0.6-0.1-0.8l0,0.1c0-0.2,0-0.7,0-0.8c-0.1-0.5,0,1.8,0,1.2
							c0-0.2-0.1-0.9,0-0.7c0-0.4-0.1-0.9,0-1.3c0,0.1,0.1,0.4,0.1,0c0-0.6,0-0.2,0-0.7l0-0.3c0,0,0-0.6,0-0.3c0-0.1,0-0.9,0-0.8
							l0.1,0.1c0-0.3-0.1-0.4-0.1-0.7c0,0,0-0.1,0-0.1c-0.1,0,0-0.6-0.1-1c0-0.6,0-1.4,0.1-1.7c0-0.4-0.1-0.8,0-1.3
							c0,0.1,0,0.2,0,0.3c0-0.3,0-0.4,0-0.7c0,0.1,0.1-0.6,0.1-1c0-0.4-0.1-0.3-0.1-0.3c0.1-0.4-0.1-1.2,0-1.7c0,0.2,0,0.6,0.1,0.3
							c0.1-0.4-0.1-0.8,0-1.4L33.8,60c0-0.3,0-0.9,0-0.9c0-0.2,0-0.8,0-0.7c0.1-1.1,0-2.6,0.1-3.2c0-0.2,0-0.5,0-0.4
							c0,0.3,0,0.3,0,0.4c0-0.1,0-0.2,0-0.2c0-0.3,0-0.6,0.1-0.3c0-0.7-0.1-0.7-0.1-1.7c0,0,0,0,0-0.3l0-0.5c0-0.6,0.1-0.3,0.1-0.4
							c0-0.3,0-0.7,0-0.9l0.1-0.4c0,0.3,0-0.3,0-0.4l0,0.2c0-0.1,0-0.4,0-0.6c0,0,0,0.4-0.1,0.6c0-0.2,0-0.4,0-0.6
							c0,0.1,0-0.5,0-0.8c0-0.3,0-0.3,0-0.4c0,0,0-0.5,0-0.2c0,0.1,0,0.2,0,0.4c0-0.2,0.1-0.2,0-0.6c0-0.3-0.1,0.1-0.1-0.5
							c0,0.1,0,0.2,0,0.3l0-0.5l0,0c0-0.1,0,0,0-0.1c0-0.2,0-0.8-0.1-0.9c0-0.3,0-0.6,0-0.8l0,0c0-0.3,0-0.7,0-1l0,0
							c0-0.2,0-0.6,0-0.8c0-0.4,0.2-0.1,0.1-0.6c0-0.4-0.1-0.7-0.1-0.5c0-0.8,0-1.7,0-2.4c0-0.1,0,0,0-0.3c0-1.2-0.1-2.4,0-3.4
							c0,0.3,0,0,0.1,0c0-0.3,0-0.3,0-0.4c0,0-0.1,0-0.1,0.3c0-0.7,0-1.7,0-2.1c0,0.2,0,0,0-0.1c0.1,0.1,0.1-0.5,0-0.8l0-0.1l0-0.3
							c0-0.1-0.1-0.2,0-0.5c0,0,0,0,0-0.1c0-0.4-0.1-1-0.1-1.4l0.1-0.4c0-0.2,0-0.5,0-0.2c0.1-0.8,0.3-1.3,0.5-1.5
							c0.2-0.6,0.8-1.3,1.5-1.7c0.4-0.2,0.8-0.3,1.2-0.4c0.1,0,0.2,0,0.3,0l0.2,0c0,0,0.1,0,0.1,0l0,0l0,0c0,0,0-0.1,0-0.1
							c0,0,0,0,0,0c0,0,0,0,0-0.1c0,0.2,0-0.4,0.1,0c0-0.6-0.1-0.7-0.1-1.1c0-0.1,0,0.3,0,0.2c0-0.1,0-0.8,0-0.9c0-0.1,0.1,0,0.1,0
							l0-0.3c0.1-0.4,0.1,1,0.2,0.5l0-0.3c0.1-0.3,0.1,0.8,0.1,0c0-0.3-0.1-0.6-0.1-0.3c0-0.4,0-0.4-0.1-0.5c0-0.1-0.1-0.2,0.1-0.7
							c0.1-0.1,0,0.1-0.1,0.2c0,0.2,0,0.4,0,0.3c0.1-0.4,0.2-0.8,0.5-1.1c-0.3,0.3-0.1,0,0.1-0.2c0.4-0.3-0.2,0.2,0.3-0.2
							c0.1-0.1,0.6-0.4,0.1-0.2c0.2-0.2,0.7-0.2,1-0.3c0.2,0-0.6,0.1,0,0.1c-0.1-0.1,0.8-0.1,0.4-0.1c0.2,0,0.3,0.1,0.1,0.1
							c0.3,0,0.8-0.1,1,0l0.1-0.1c0.2,0,0.1,0,0.2,0.1l0,0c0,0,0-0.1,0-0.1c0-0.1,0-0.2,0.1-0.3c0-0.2,0.1-0.4,0.1-0.3
							c0-0.1,0.2-0.8,0.1-0.5c-0.1,0.4-0.1,0.5-0.2,0.7c0.1-0.3,0.2-0.6,0.2-0.9l0,0c0-0.1,0.1-0.5,0.1-0.6c0,0.1,0,0.1,0.1,0l0-0.2
							c0.1-0.6,0.1-0.1,0.3-0.7l-0.1,0.4c0-0.1,0.1-0.3,0.2-0.6c0-0.1,0-0.3,0-0.4c0.1-0.3,0.1-0.1,0.1-0.5l-0.1,0.4
							c0,0.1,0.1-0.3,0.3-0.7c0.1-0.3,0.1-0.7,0-0.3c0.1-0.2,0.2-0.5,0.1-0.3c0.1-0.5-0.1,0.1,0-0.4c0.1-0.2,0.3-0.7,0.4-1l-0.1,0.5
							l0.1-0.3c-0.1,0.4,0.1-0.2,0.1,0c0.1-0.2,0.1-0.4,0.2-0.6c-0.3,0.6,0.1-0.7-0.1-0.5c0.2-0.8,0.3-0.4,0.4-1.3
							c-0.1,0.1,0-0.3-0.1,0.2c0.1-0.5,0-0.4,0.2-0.9c-0.1,0.4,0.2-0.4,0.1,0.2c0,0-0.1,0.3-0.1,0.4c0.1-0.2,0.1,0.1,0.2-0.4
							c0.1-0.3,0.2-0.7,0.1-0.7c-0.1,0-0.1,0.5-0.1,0.3c0.1-0.3,0.1-0.5,0.2-0.7c0.1-0.2,0.2-0.3,0.4-0.4c-0.3,0.1-0.4,0.3-0.5,0.4
							c-0.1,0.1-0.1,0.1-0.1,0.1c0.1-0.3,0.3-0.5,0.5-0.6c0,0-0.1,0.1-0.1,0.1c0.3-0.1,0.5-0.1,0.6-0.1c0.1,0,0.1,0.1,0.2,0.1
							c0,0,0.1,0,0.2,0.1c0,0,0.1,0.1,0.1,0.2c0,0.1,0.1,0.3,0.1,0.3l0,0.3c0,0-0.1-0.1-0.1-0.2c0-0.1,0-0.1,0-0.2
							c0-0.1-0.1-0.2-0.1-0.3c-0.2-0.4-0.5-0.4-0.4-0.3c0.4,0.1,0.4,0.5,0.5,0.6c0.1,0.1,0.1,0.3,0.2,0.5c0-0.1-0.1-0.2-0.1-0.3
							c0,0.2,0,0.4,0.2,1c0.1,0.3,0.1,0.1,0.1,0.1c0.2,0.7,0.3,0.9,0.5,1.4c-0.1-0.1,0.2,0.8,0,0.3c0-0.3-0.3-1.3-0.5-1.5
							c0,0.3-0.2-0.6-0.3-0.7c0.2,0.6,0.1,0.6,0.1,0.7c0,0.2,0.1,0.3,0.1,0.4c0.1,0.1,0-0.2,0-0.2c0.2,0.7,0.4,1.3,0.5,1.6
							c0,0.2,0,0.2-0.1-0.1c0.2,0.8,0.5,1.6,0.7,2.4c-0.1-0.5,0.3,0.8,0.2,0.5c-0.1-0.4-0.1-0.8,0-0.5c0.1,0.2,0,0,0,0.1
							c0.1,0.3,0.1,0.5,0.2,0.8c-0.2-0.7-0.1-0.1-0.2-0.2c0.2,0.5,0,0,0.1,0.5c0.2,0.5,0.4,1.1,0.6,1.7c0.1,0.4,0.2,0.8,0.3,1.3
							c0,0.2,0.2,0.3,0.3,0.3c0.2,0,0.4,0,0.6,0c0.3,0,0.1,0.1,0.5,0.1c0.4,0-0.3-0.1,0.3,0l-0.1,0c0.1,0,0.4,0,0.7,0
							c0.3,0,0.6,0.2,0.7,0.2c-0.1,0-0.2,0-0.2,0c0.1,0.1,0.2,0.1,0.3,0.2c0,0,0.1,0.1-0.1,0c0.3,0.3,0.6,0.6,0.7,1
							c0-0.1,0-0.2,0-0.3c0.2,0.4,0.2,0.7,0.1,1c0,0.3,0,0.6,0,1l0,0l0,0.4c0-0.1-0.1,0.3,0,0.5L52,25.2c0-0.3,0.1,0.3,0.1,0.1
							c0-0.2,0-0.8,0-0.9c0,0.3,0,0.3,0,0.5C52,25,52,24.6,52,24.4c0,0.1,0,0.3,0,0.4c0-0.3,0-0.6-0.1-1c0.1,0.3,0-0.2,0-0.1
							c-0.1,0-0.1-0.4-0.5-0.8c-0.1-0.1-0.3-0.3-0.6-0.3c-0.3-0.1-0.6,0-0.9,0c0.3,0,0.6-0.1,1,0c-0.4-0.1-0.4-0.1-0.8-0.1
							c-0.2,0-0.3,0.1-0.8,0.1l0,0c-0.2,0-0.4,0-0.5,0c-0.1,0-0.1,0-0.2,0c-0.1,0-0.3,0-0.4-0.2c-0.1-0.2-0.1-0.3-0.2-0.4l-0.1-0.4
							c-0.1-0.2-0.1-0.5-0.2-0.7c-0.1-0.5-0.3-0.9-0.4-1.3l0,0c-0.2-0.4-0.4-1.4-0.6-1.9c-0.2-1-0.6-2.1-0.7-2.6
							c-0.3-0.8-0.5-1.6-0.7-2.4c-0.1-0.2-0.1-0.3-0.2-0.4c-0.1-0.1-0.3,0-0.3,0.1c-0.1,0.4-0.2,0.8-0.3,1.2l0-0.3
							c0,0.3-0.1,0.2-0.2,0.5c0.1-0.3-0.1,0.4-0.1,0.7c-0.3,0.8-0.5,1.8-0.6,2.5l0,0c-0.1,0.7-0.4,1.5-0.7,2.4
							c0,0.1-0.1,0.2-0.2,0.5c-0.1,0.5-0.1,0.7-0.3,1.4c-0.1,0.4-0.3,0.9-0.4,1.4c-0.3,0-0.6,0-0.8,0c-0.5,0-1,0-1.5,0
							c-0.4,0-0.9,0.2-1.1,0.5c-0.1,0.2-0.2,0.4-0.3,0.6c-0.1,0.2,0,0.4,0,0.7c0,0.5,0,1,0,1.5l0,0.1c0.1,0.4-0.2,0.6,0.5,1.4
							c-0.1,0.1-0.3,0-0.5,0l-0.5,0c-0.3,0-0.4,0-0.6,0.1c-0.4,0.1-0.8,0.2-1.1,0.4c-0.7,0.4-1.1,1.1-1.3,1.7l0-0.2
							c-0.2,0.5-0.2,1.1-0.1,1c0,0.5,0,1.3,0,1.7c0,0.5,0,0.7,0,1.1c0,1.1,0,1.5,0,2.5l0-0.3c0-0.1-0.1-0.1-0.1,0.1
							c0,0.4,0,1.4,0.1,1c-0.1,1.1,0,2.6,0,3.6c0-0.1,0,0.2,0,0.3c0,1-0.1,2,0,2.8c0,0.2,0-0.2,0,0.1c0,0.2,0,0,0,0.3
							c0,1.6,0,3.2,0,4.6c0,2.5,0,5.2,0,7.6l0,0c0.1,0.8-0.1,1.9,0,2.6c0,0.2,0,0.7,0,0.6c0.1,0.6,0,1.8,0,2.7c0-0.1,0-0.1,0-0.2
							c0,0.9,0,1.8,0,2.8c0-0.1,0-0.3,0-0.3c0,0.4,0.1,0.9,0,1.1c0,0.2,0,0.2,0,0c0,2.2,0,4.5,0,6.8c0,1.6-0.2,0.1-0.1,1.4
							c0,0.1,0,0.1,0,0.1c0.1,0.4,0.1,0.7,0.2,1c0-0.1,0.1,0.2,0.2,0.2c0.5,0.8,0.6,1,1.2,1.3l-0.1,0c0.4,0.2,0.8,0.3,1.3,0.4
							c0.4,0,0.9,0,1.3-0.1c2.5,0,5,0,7.5,0c1.2,0,2.5,0,3.7,0l1.8,0l0.9,0c0.3,0,0.5,0,0.8-0.1c1-0.3,1.9-1.1,2.2-2.2
							c0.1-0.3,0.1-0.5,0.1-0.8l0-0.9l0-1.8c0-2.4,0-4.9,0-7.4c0.1-1.2,0.1-1.3,0-2.5c0,0.1,0,0.1,0,0c-0.1-0.1,0-0.9-0.1-1
							c0-1.8,0-3.5,0-5.4c0,0.3,0.1,0.4,0.1,0.1l0-0.4l0-0.1c0-0.2,0-0.5-0.1-0.3c-0.1-4.7,0.1-9.4,0.1-14.1c0-1.1,0-2.7,0-3.9
							c0-1.8,0.1-3.5,0.1-5.1c0-1.6-1.5-3-3.2-3c0,0,0.1,0,0.4-0.1C53.1,27.5,53.6,27.5,54.2,27.9z"/>
						<path fill="#808181" d="M51.9,26.8c0.1-0.1,0.1-0.5,0.1-0.2C52,26.7,51.9,26.9,51.9,26.8z"/>
						<path fill="#808181" d="M47.4,18.9c0,0,0-0.2,0-0.2c0,0.1,0.1,0.2,0.1,0.4C47.5,18.9,47.4,19,47.4,18.9z"/>
						<path fill="#808181" d="M46.6,16.2c0,0,0.2,0.6,0.3,0.9L46.6,16.2z"/>
						<path fill="#808181" d="M46,13.6c0-0.2,0-0.2,0.1,0.1C46.1,13.8,46.1,13.7,46,13.6z"/>
						<path fill="#808181" d="M45.9,13.5c-0.1-0.2-0.1-0.3-0.1-0.4C45.8,13.1,46,13.5,45.9,13.5z"/>
						<path fill="#808181" d="M43.3,15.4c0,0.1-0.1,0.4-0.2,0.5C43.2,15.8,43.3,15.3,43.3,15.4z"/>
						<path fill="#808181" d="M42.6,18c0,0.1,0,0.1-0.1,0.2C42.5,18.3,42.5,18.1,42.6,18L42.6,18z"/>
						<polygon fill="#808181" points="33.8,60.5 33.8,60.2 33.8,60.2 						"/>
						<path fill="#808181" d="M40.4,77c0.3,0,0.2,0,0.2,0C40.4,77,40.7,77,40.4,77z"/>
						<polygon fill="#808181" points="51.8,76.8 51.7,76.8 51.7,76.8 						"/>
					</g>
				</g>
			</g>
		</g>
	</g>
	<g>
		<g>
			<g>
				<g>
					<g>
						<path fill="#808181" d="M51.3,27.4C51.3,27.4,51.3,27.4,51.3,27.4L51.3,27.4L51.3,27.4z"/>
						<path fill="#808181" d="M51.1,27.3c0,0,0,0.1,0,0.1C51.2,27.4,51.2,27.4,51.1,27.3C51.2,27.4,51.2,27.4,51.1,27.3
							C51.2,27.4,51.2,27.4,51.1,27.3C51.2,27.3,51.2,27.3,51.1,27.3C51.1,27.4,51.1,27.3,51.1,27.3z"/>
						<path fill="#808181" d="M49.5,27.6L49.5,27.6C49.5,27.6,49.5,27.6,49.5,27.6z"/>
						<path fill="#808181" d="M48.5,27.8C48.5,27.8,48.5,27.8,48.5,27.8C48.5,27.8,48.5,27.8,48.5,27.8z"/>
						<path fill="#808181" d="M48.3,27.7C48.3,27.7,48.3,27.7,48.3,27.7C48.3,27.7,48.3,27.7,48.3,27.7z"/>
						<path fill="#808181" d="M49.5,27.6L49.5,27.6C49.5,27.6,49.5,27.6,49.5,27.6z"/>
						<path fill="#808181" d="M51,27.5C51,27.5,51,27.5,51,27.5C51,27.5,51,27.5,51,27.5L51,27.5z"/>
						<polygon fill="#808181" points="49.9,27.5 49.9,27.5 49.9,27.5 						"/>
						<path fill="#808181" d="M50.3,27.4C50.3,27.4,50.3,27.4,50.3,27.4C50.3,27.4,50.3,27.4,50.3,27.4
							C50.3,27.4,50.3,27.4,50.3,27.4z"/>
						<path fill="#808181" d="M50.8,27.4L50.8,27.4L50.8,27.4z"/>
						<path fill="#808181" d="M49.7,27.5C49.7,27.5,49.7,27.5,49.7,27.5L49.7,27.5z"/>
						<path fill="#808181" d="M40,28L40,28C40,28,40,28,40,28z"/>
						<polygon fill="#808181" points="39.7,27.7 39.7,27.7 39.7,27.6 						"/>
						<path fill="#808181" d="M48,27.7L48,27.7C48,27.7,48,27.7,48,27.7z"/>
						<path fill="#808181" d="M45.1,28c0,0-0.1,0.1,0,0.1C45.1,28.1,45.1,28,45.1,28z"/>
						<path fill="#808181" d="M51,27.5L51,27.5C50.9,27.5,51,27.5,51,27.5z"/>
						<polygon fill="#808181" points="45.1,28.1 45.1,28.1 45.1,28.1 						"/>
						<path fill="#808181" d="M47.3,27.9C47.3,27.9,47.3,27.9,47.3,27.9C47.3,27.9,47.3,27.9,47.3,27.9z"/>
						<path fill="#808181" d="M47.8,27.9L47.8,27.9C47.8,27.9,47.8,27.9,47.8,27.9z"/>
						<path fill="#808181" d="M47,28C47,28,47,27.9,47,28L47,28C47,28,47,28,47,28z"/>
						<polygon fill="#808181" points="46.7,28 46.7,28 46.7,28 						"/>
						<path fill="#808181" d="M40.9,28.2C40.9,28.2,40.9,28.2,40.9,28.2C40.9,28.2,40.8,28.2,40.9,28.2z"/>
						<path fill="#808181" d="M51,27.5C51,27.5,51,27.5,51,27.5L51,27.5C51,27.5,51,27.5,51,27.5z"/>
						<path fill="#808181" d="M47,28.4L47,28.4C47,28.4,47,28.4,47,28.4z"/>
						<path fill="#808181" d="M43.1,28.4L43.1,28.4C43,28.4,43,28.4,43.1,28.4z"/>
						<path fill="#808181" d="M46.8,28.4C46.8,28.4,46.8,28.4,46.8,28.4C46.8,28.4,46.8,28.4,46.8,28.4L46.8,28.4z"/>
						<path fill="#808181" d="M40.9,28.1L40.9,28.1L40.9,28.1z"/>
						<path fill="#808181" d="M40.6,28.2c0,0,0-0.1,0.1-0.1C40.7,28.1,40.6,28.2,40.6,28.2c0.1,0,0.2-0.1,0.2-0.1c0,0,0,0,0,0
							c0,0,0.1,0,0.2,0l0,0c0,0,0-0.1,0-0.1c0,0,0,0,0,0c0,0,0,0,0,0l0,0c0,0.1,0,0,0,0.1c0,0,0.1-0.1,0.1,0c0,0.1-0.1,0,0,0.1l0,0
							c0,0.1,0,0,0,0.1c0.1,0,0.1,0,0.1,0c0,0,0-0.1,0-0.1c0.1-0.1,0,0.2,0.1,0.1c0,0,0-0.1,0.1-0.1l0,0.1c0.1,0,0.1-0.1,0.1,0
							c0,0-0.1,0,0,0c0,0.1,0,0,0.1,0l0,0.1c0.1,0,0.1,0,0.2,0c0,0,0,0,0,0.1c0.1,0,0.2,0,0.3,0.1l0-0.1c0,0,0,0,0,0c0,0,0,0,0-0.1
							c0,0,0,0,0,0.1c0.1,0,0.2-0.1,0.2,0l0,0c0,0,0.1-0.1,0.1-0.1l0,0c0.1,0,0.2,0,0.3,0.1c0-0.1,0.1,0,0.1-0.1
							c0.1,0.1,0,0.1,0.1,0.1c0,0,0-0.1,0.1-0.1l0,0.1l0-0.1l0,0.1l0,0c0,0,0,0,0,0c0,0,0.1,0,0.1,0.1l0.1,0c0,0,0,0,0,0
							c0.1-0.1,0,0.1,0.1,0c0,0,0,0,0,0c0,0,0.1,0,0.1,0l0,0c0.1,0,0.2,0,0.2,0c0,0,0-0.1,0-0.1l0,0.1c0,0,0,0,0-0.1
							c0,0,0,0.1,0,0.1l0,0c0,0,0,0,0,0.1c0,0,0.1,0.1,0.1,0l0,0c0.1,0,0.1,0,0.2,0c0-0.1,0,0,0.1-0.1c0.1,0,0.1,0.1,0.2,0.1
							c0,0,0,0,0-0.1c0,0,0.1,0,0,0.1c0.1,0,0.1,0,0.2,0c0,0,0,0,0,0c0,0,0,0,0,0l0,0c0.1-0.1,0.2,0.1,0.3,0l0,0l0.1-0.1
							c0,0,0,0,0,0.1c0.1-0.1,0.1,0,0.2,0c0.1,0.1,0.2,0,0.3,0.1l0,0c0,0,0,0,0,0c0,0,0,0,0,0c0.2,0,0.4,0,0.5,0.1
							c0.1,0,0-0.2,0.1-0.1l0,0.1c0.1-0.1,0.3,0,0.4-0.1c0,0,0,0,0,0c0,0,0.1,0,0.1,0c0,0,0,0,0,0.1c0,0,0.1-0.1,0.1,0c0,0,0,0,0,0
							c0,0,0.1,0,0.1-0.1c0.1,0,0.1,0,0.1,0c0-0.1,0.1,0,0.1-0.1c0,0.1,0.1,0.1,0.1,0c0,0,0,0,0,0.1c0,0,0.1,0,0.1-0.1
							c0.1,0.1,0.1-0.1,0.2,0c0.1-0.1,0.2-0.1,0.3-0.1c0,0.1-0.1,0-0.1,0.1c0.1,0,0.1-0.1,0.2-0.1c0,0,0,0,0,0.1
							c0.1,0,0.2,0,0.2-0.1c0,0,0,0,0,0c0,0,0,0,0,0l0,0c0-0.1,0-0.1,0-0.2c0,0.1,0.1,0,0.1,0.2c0,0,0,0,0-0.1c0,0,0,0,0,0.1
							c0.1,0,0-0.1,0.1-0.1c0,0,0,0,0,0.1c0,0,0-0.1,0.1-0.1c0,0,0,0,0,0c0.1,0,0.1-0.1,0.2-0.1c0,0.1,0,0,0,0.1l0,0l0,0
							c0,0,0.1-0.1,0.1,0l0,0l0.1,0l0,0c0,0,0-0.1,0-0.1c0,0,0,0,0.1,0l0,0c0,0,0-0.1,0.1,0c0,0,0,0.1,0,0.1c0-0.1,0.1,0,0.1-0.1
							c0,0,0,0.1,0,0.1l0-0.1c0,0,0,0,0,0.1c0.1,0,0-0.1,0-0.1c0,0,0,0,0,0c0.1,0,0.1-0.1,0.2,0c0,0.1,0,0,0,0.1
							c0.1,0,0.2-0.1,0.2-0.1l0,0c0-0.1,0.1,0,0.1,0c0,0,0,0.1,0,0c0.1,0,0.1,0,0.2-0.1l0,0c0,0,0.1,0,0.1,0c0,0,0,0,0-0.1
							c0.1,0.1,0.2-0.1,0.3,0c0,0,0,0,0,0l0.1,0c0,0,0,0,0-0.1c0,0,0-0.1,0-0.1c0,0,0,0.1,0,0.1c0,0,0,0,0,0c0.1,0.1,0-0.1,0.1-0.1
							l0,0c0,0,0-0.1,0.1-0.1c0,0,0,0,0,0.1c0,0,0-0.1,0.1-0.1c0,0,0,0,0,0c0,0.1,0,0,0.1,0l0,0l0.1,0l0,0c0-0.1,0.1,0,0.1-0.1
							c0,0.1,0,0,0,0.1c0,0,0,0,0,0c0-0.1,0.1,0,0.1-0.1c0,0,0,0,0,0c0,0,0,0,0-0.1c0-0.1,0.1,0,0.2-0.1c0.1-0.1,0-0.1,0.1-0.2
							c0,0,0,0.1,0,0.1c0,0,0.1,0,0.1,0c0,0,0,0,0,0c0,0,0-0.1,0-0.1c0,0,0,0.1,0,0.1c0,0,0-0.1,0.1-0.1c0,0,0,0.1,0,0.1
							c0,0,0.1-0.1,0.1-0.1l0,0c0,0,0,0,0,0.1c0,0,0,0-0.1,0l0,0c-0.1-0.1-0.1,0-0.1,0l0-0.1l0,0.1c0,0,0-0.1,0-0.1c0,0,0,0-0.1,0
							c0,0,0,0,0,0l0,0c0,0,0-0.1,0,0c-0.1,0-0.1,0.1-0.1,0l0,0c-0.1,0,0,0.1,0,0.1l-0.1-0.1l0,0.1c0,0,0,0,0,0c0,0,0,0,0,0.1
							c0,0-0.1,0.1-0.1,0c0,0,0,0,0,0.1c0-0.1,0,0-0.1,0c0-0.1,0,0,0-0.1c0,0.1-0.1,0-0.1,0c0,0.1-0.1,0-0.1,0.1c0,0-0.1,0-0.1,0
							l0,0c0,0.1,0,0.1-0.1,0.1c0,0,0-0.1,0-0.1l0,0c0,0,0,0,0,0l0-0.1c0,0-0.1,0.1-0.1,0.1c0,0,0.1,0.1,0,0.2c0,0,0-0.1,0-0.1
							c0,0,0,0,0,0l0,0c0,0,0,0,0,0c0,0,0,0,0-0.1c0,0,0,0,0,0c0,0-0.1,0-0.1,0c0,0,0,0.1,0,0.1c0,0,0,0-0.1-0.1c0,0,0,0,0,0.1
							c0,0,0,0,0,0c0,0-0.1,0-0.1,0.1l0,0l0,0l0,0l0,0c-0.1,0.1-0.2,0-0.2,0l0,0c0,0-0.1,0-0.1,0.1c0,0,0,0,0-0.1c0,0,0,0-0.1,0
							c0,0,0,0,0,0c0,0-0.1,0-0.1,0c0-0.1,0-0.1-0.1,0l0,0c0,0,0,0-0.1,0l0-0.1c-0.1-0.1-0.1,0.2-0.2,0c0,0,0.1,0,0,0.1
							c0,0-0.1-0.1-0.1-0.1c-0.1,0,0,0.1-0.1,0.1c0,0,0,0.1,0,0.1c0,0-0.1-0.1,0-0.1c0,0,0,0,0,0c0,0,0,0,0,0l0,0c0,0-0.1,0-0.1,0
							c0,0,0,0,0,0c-0.1,0-0.1,0-0.1,0c0,0,0,0,0,0c-0.1,0,0,0-0.1,0.1c0,0,0-0.1,0,0c0,0,0-0.1,0-0.1c0,0.1-0.1,0-0.1,0l0,0
							c0,0,0,0,0,0l0,0c0,0,0,0,0,0c0,0,0,0.1,0,0.1c0,0-0.1,0-0.1,0c0.1,0,0-0.1,0-0.1c0,0,0,0,0,0c0,0,0,0,0,0
							c-0.1,0,0,0.1-0.1,0.1c0,0,0-0.1,0-0.1c0,0,0,0.1,0,0.1c0,0,0,0-0.1,0l0,0c0,0,0,0,0,0c0,0,0,0,0,0c0,0.1-0.1-0.1-0.1,0
							c0,0,0-0.1,0-0.1c0,0-0.1,0-0.1,0c0,0,0,0,0,0.1l0.1,0l0,0.1c0,0,0,0,0.1,0c0,0,0,0,0,0.1c0-0.1-0.1,0-0.1,0l0-0.1
							c-0.1,0-0.1,0.1-0.2,0l0,0c0,0,0,0-0.1,0c0,0,0-0.1,0-0.1c0,0-0.1,0-0.1,0.1l0,0c-0.1,0-0.1,0.1-0.1,0.1c0,0,0-0.1,0-0.1
							c0,0,0,0,0,0c0,0,0,0.1-0.1,0c0,0,0,0.1,0,0.1c0,0,0,0,0,0c0,0,0,0,0,0.1c-0.1-0.1-0.2,0-0.2-0.1c0,0-0.1,0-0.1,0c0,0,0,0,0,0
							c-0.1,0,0,0.1-0.1,0.1c0-0.1,0,0,0-0.1c0-0.1-0.1,0-0.1,0l0,0c0,0-0.1,0.1-0.1,0c0,0,0,0,0,0c0,0.1-0.1,0.1-0.1,0.1
							c0-0.1,0,0,0-0.1c0,0,0,0.1,0,0.1c0,0-0.1,0-0.1-0.1l0,0c0-0.1-0.1,0-0.1,0l0,0c-0.1,0-0.1,0.1-0.1,0.1l0,0c0,0.1,0,0-0.1,0
							l0-0.1c0,0-0.1,0.1-0.1,0.1c0-0.1,0.1-0.1,0.1-0.1c0,0-0.1,0-0.1,0c0,0,0,0,0,0c0,0.1-0.1,0.1-0.1,0.1c0-0.1-0.1,0-0.2-0.1
							c-0.1,0.1-0.2,0-0.3,0c0,0.1,0,0,0,0.1c0,0,0,0,0,0L45,28.1c0,0,0,0,0-0.1c-0.1,0,0,0-0.1-0.1c0,0,0,0.1,0,0l0,0.1
							c-0.1,0.1-0.1-0.1-0.1,0l0,0c0,0-0.1,0-0.2,0.1c0,0,0,0,0-0.1c-0.1,0-0.2,0.1-0.3,0l0,0c0,0,0,0.1-0.1,0c0,0,0,0,0,0
							c0,0,0,0.1-0.1,0l0,0c-0.1,0-0.1,0.1-0.2,0.1C44.1,28,44,28,44,28l0,0c-0.1,0-0.2,0.1-0.3,0.1c-0.1-0.1-0.2,0-0.3-0.1
							c0,0,0,0.1,0,0.1c0,0-0.1,0.1-0.1,0l0,0c0-0.1-0.1-0.1-0.1-0.1l0,0.1c-0.1-0.2-0.2,0-0.3-0.1c0,0-0.1,0-0.1,0l0-0.1
							c-0.1,0-0.1,0-0.2,0l0,0c0,0-0.1,0.2-0.1,0.2l0-0.1c-0.1,0-0.1-0.1-0.2,0c0,0,0,0,0,0c0,0-0.1-0.1-0.1,0c0-0.1-0.1,0-0.1,0
							l0-0.1c0,0.1,0,0.1-0.1,0.1c0,0,0,0,0,0c0,0,0,0-0.1,0l0,0c0,0,0,0-0.1,0c0,0-0.1,0-0.1-0.1c0,0,0,0.1-0.1,0c0,0,0,0,0,0
							c-0.1,0-0.1,0.1-0.1,0c0,0,0,0,0,0c0.1,0,0.1,0,0.1,0c0,0,0-0.1,0-0.1c0,0-0.1,0.1-0.1,0.1c0,0,0,0,0,0l0,0c0,0,0,0,0,0
							c0,0,0,0,0,0c0,0,0,0-0.1,0c0,0.1,0,0,0,0.1c0,0,0,0,0,0l0,0l0,0c0,0,0,0,0.1,0c0,0,0,0-0.1,0c0,0,0,0.1,0,0.1
							c0-0.1-0.1-0.1-0.1-0.2c-0.1,0-0.2,0-0.2,0.1c0,0,0,0,0,0c0,0,0,0,0,0c0,0-0.1,0-0.1,0.1c0,0,0-0.1,0-0.1l0,0
							c-0.1-0.1-0.2,0.1-0.3,0c0,0,0,0,0,0c-0.1-0.1-0.3,0-0.5-0.1c0,0-0.1,0-0.1,0l0-0.1l-0.1,0.1c-0.1,0-0.1-0.2-0.2-0.1l0,0
							c0,0-0.1,0-0.1,0c0,0,0,0,0,0l0,0l-0.1,0c0,0,0-0.1,0-0.1c0,0-0.1,0.1-0.1,0.1c0,0,0,0,0,0.1l0,0c0,0.1-0.1,0.2,0,0.2l0.1,0
							l0,0l0,0c0,0,0,0,0.1,0c0,0,0,0,0,0.1l0.1-0.1c0,0,0,0.1,0,0.1c0,0,0-0.1,0-0.1c0,0,0,0.1,0,0c0,0,0,0,0,0c0,0,0.1,0,0.1,0
							c0,0.1,0.1,0,0.1,0.1c0,0,0.1-0.1,0.1-0.1c-0.1,0.1,0.1,0,0,0.1c0-0.1,0.1,0,0.2-0.1c0,0,0,0,0,0c0,0,0,0,0,0.1
							c0-0.1,0.1-0.1,0.1-0.1c0,0.1,0,0.1,0,0.2c0-0.1,0.1,0,0.1-0.1C40.5,28.1,40.5,28.1,40.6,28.2c-0.1-0.2,0-0.1,0-0.1
							C40.6,28.1,40.5,28.2,40.6,28.2C40.6,28.2,40.6,28.2,40.6,28.2z M41.6,28.2L41.6,28.2C41.6,28.2,41.6,28.2,41.6,28.2
							C41.6,28.2,41.6,28.2,41.6,28.2z M41.7,28.2C41.7,28.2,41.7,28.2,41.7,28.2C41.7,28.2,41.7,28.2,41.7,28.2
							C41.7,28.2,41.7,28.2,41.7,28.2z M41.6,27.8C41.6,27.8,41.6,27.8,41.6,27.8C41.6,27.8,41.6,27.8,41.6,27.8L41.6,27.8
							C41.6,27.8,41.6,27.8,41.6,27.8z"/>
						<path fill="#808181" d="M41.6,27.9L41.6,27.9C41.6,27.9,41.6,27.9,41.6,27.9L41.6,27.9L41.6,27.9z"/>
						<polygon fill="#808181" points="49.5,27.6 49.5,27.6 49.5,27.6 						"/>
						<polygon fill="#808181" points="43,28.4 43,28.4 42.9,28.4 						"/>
						<path fill="#808181" d="M50,27.7C50,27.7,50,27.7,50,27.7C50.1,27.7,50,27.7,50,27.7z"/>
						<path fill="#808181" d="M50.2,27.7L50.2,27.7C50.3,27.7,50.3,27.7,50.2,27.7z"/>
						<path fill="#808181" d="M50.4,27.7C50.4,27.7,50.4,27.6,50.4,27.7L50.4,27.7L50.4,27.7z"/>
						<path fill="#808181" d="M47.9,28.2L47.9,28.2C47.9,28.2,47.9,28.2,47.9,28.2z"/>
						<path fill="#808181" d="M48.6,28C48.6,28,48.6,28,48.6,28C48.6,28,48.6,28,48.6,28z"/>
						<polygon fill="#808181" points="47,28.4 47,28.4 47,28.4 						"/>
						<path fill="#808181" d="M48.6,28C48.6,28,48.6,28,48.6,28C48.6,28,48.6,28,48.6,28z"/>
						<polygon fill="#808181" points="51.1,27.5 51.1,27.5 51.1,27.5 						"/>
						<path fill="#808181" d="M51.1,27.5L51.1,27.5C51.1,27.5,51.1,27.5,51.1,27.5z"/>
						<path fill="#808181" d="M51.1,27.5L51.1,27.5C51.1,27.5,51.1,27.5,51.1,27.5z"/>
						<path fill="#808181" d="M50.9,27.5L50.9,27.5C50.9,27.6,50.9,27.6,50.9,27.5z"/>
						<path fill="#808181" d="M50.8,27.6C50.8,27.6,50.9,27.6,50.8,27.6L50.8,27.6C50.9,27.6,50.8,27.5,50.8,27.6z"/>
						<path fill="#808181" d="M50.5,27.4L50.5,27.4C50.5,27.4,50.5,27.4,50.5,27.4C50.5,27.3,50.6,27.4,50.5,27.4z"/>
						<path fill="#808181" d="M50.3,27.4C50.4,27.4,50.3,27.4,50.3,27.4C50.3,27.4,50.3,27.4,50.3,27.4z"/>
						<path fill="#808181" d="M49.1,27.7L49.1,27.7C49.1,27.6,49.1,27.6,49.1,27.7z"/>
						<polygon fill="#808181" points="49,28 49,28 49,27.9 						"/>
						<polygon fill="#808181" points="48.8,27.6 48.8,27.6 48.7,27.7 						"/>
						<path fill="#808181" d="M46.7,27.9L46.7,27.9C46.8,28,46.8,27.9,46.7,27.9z"/>
						<path fill="#808181" d="M45.9,28.1C45.8,28,45.8,28,45.9,28.1C45.8,28.1,45.9,28.1,45.9,28.1z"/>
						<polygon fill="#808181" points="43.2,28 43.2,28 43.2,28 						"/>
					</g>
				</g>
			</g>
		</g>
	</g>
	<g>
		<g>
			<g>
				<g>
					<g>
						<path fill="#808181" d="M47.7,22.5C47.7,22.5,47.7,22.5,47.7,22.5L47.7,22.5L47.7,22.5z"/>
						<path fill="#808181" d="M47.6,22.4c0,0,0,0.1,0,0.1C47.6,22.5,47.6,22.5,47.6,22.4C47.6,22.5,47.6,22.5,47.6,22.4
							C47.6,22.5,47.7,22.5,47.6,22.4C47.6,22.4,47.6,22.4,47.6,22.4C47.6,22.5,47.6,22.5,47.6,22.4z"/>
						<path fill="#808181" d="M46.9,22.6L46.9,22.6L46.9,22.6z"/>
						<path fill="#808181" d="M46.5,22.6C46.5,22.6,46.5,22.6,46.5,22.6C46.5,22.6,46.5,22.6,46.5,22.6z"/>
						<path fill="#808181" d="M46.4,22.6L46.4,22.6C46.4,22.6,46.4,22.6,46.4,22.6z"/>
						<path fill="#808181" d="M46.9,22.6L46.9,22.6C46.9,22.6,46.9,22.6,46.9,22.6z"/>
						<path fill="#808181" d="M47.6,22.6C47.6,22.6,47.6,22.6,47.6,22.6L47.6,22.6L47.6,22.6z"/>
						<polygon fill="#808181" points="47.1,22.5 47.1,22.5 47.1,22.4 						"/>
						<path fill="#808181" d="M47.2,22.4C47.2,22.4,47.2,22.5,47.2,22.4C47.2,22.5,47.2,22.5,47.2,22.4
							C47.2,22.4,47.2,22.4,47.2,22.4z"/>
						<path fill="#808181" d="M47.4,22.4L47.4,22.4L47.4,22.4z"/>
						<path fill="#808181" d="M47,22.5C47,22.5,46.9,22.5,47,22.5L47,22.5z"/>
						<path fill="#808181" d="M42.8,23.1L42.8,23.1C42.8,23.1,42.8,23.1,42.8,23.1z"/>
						<polygon fill="#808181" points="42.7,22.8 42.7,22.8 42.7,22.8 						"/>
						<path fill="#808181" d="M46.2,22.5L46.2,22.5C46.2,22.5,46.2,22.5,46.2,22.5z"/>
						<path fill="#808181" d="M45,22.7c0,0,0,0.1,0,0.1C45,22.8,45,22.7,45,22.7z"/>
						<path fill="#808181" d="M47.6,22.6L47.6,22.6L47.6,22.6z"/>
						<polygon fill="#808181" points="45,22.8 45,22.8 45,22.8 						"/>
						<path fill="#808181" d="M45.9,22.6L45.9,22.6C45.9,22.6,45.9,22.6,45.9,22.6z"/>
						<path fill="#808181" d="M46.2,22.7L46.2,22.7C46.2,22.7,46.2,22.7,46.2,22.7z"/>
						<path fill="#808181" d="M45.8,22.7C45.8,22.7,45.8,22.7,45.8,22.7L45.8,22.7C45.8,22.7,45.8,22.7,45.8,22.7z"/>
						<polygon fill="#808181" points="45.7,22.7 45.7,22.7 45.7,22.7 						"/>
						<path fill="#808181" d="M43.2,23.1L43.2,23.1C43.2,23.1,43.2,23.1,43.2,23.1z"/>
						<path fill="#808181" d="M47.5,22.6C47.6,22.6,47.6,22.6,47.5,22.6L47.5,22.6C47.6,22.6,47.5,22.6,47.5,22.6z"/>
						<path fill="#808181" d="M45.9,23.1L45.9,23.1C45.8,23.1,45.9,23.1,45.9,23.1z"/>
						<path fill="#808181" d="M44.1,23.1L44.1,23.1C44.1,23.1,44.1,23.1,44.1,23.1z"/>
						<path fill="#808181" d="M45.8,23.1C45.8,23.1,45.8,23.1,45.8,23.1C45.8,23.1,45.8,23.1,45.8,23.1L45.8,23.1z"/>
						<path fill="#808181" d="M43.2,23L43.2,23L43.2,23z"/>
						<path fill="#808181" d="M43.1,23.2c0,0,0-0.1,0-0.1C43.1,23,43.1,23.1,43.1,23.2C43.1,23.1,43.1,23.1,43.1,23.2
							C43.1,23.1,43.1,23.1,43.1,23.2c0.1-0.1,0.1-0.1,0.1-0.1l0,0c0,0,0-0.1,0-0.1c0,0,0,0,0,0c0,0,0,0,0,0l0,0c0,0.1,0,0,0,0.1
							c0,0,0-0.1,0.1-0.1c0,0.1,0,0,0,0.1l0,0c0,0.1,0,0,0,0.1c0,0,0,0,0.1,0c0,0,0-0.1,0-0.1c0-0.1,0,0.2,0.1,0.1c0,0,0-0.1,0-0.1
							l0,0.1c0,0,0-0.1,0-0.1c0,0,0,0,0,0c0,0.1,0,0,0,0l0,0.1c0,0,0.1-0.1,0.1-0.1c0,0,0,0,0,0.1c0,0,0.1,0,0.1,0.1l0-0.1
							c0,0,0,0,0,0c0,0,0,0,0-0.1c0,0,0,0,0,0.1c0,0,0.1-0.1,0.1,0l0,0c0,0,0-0.1,0-0.1l0,0c0,0,0.1,0,0.1,0.1c0-0.1,0,0,0.1-0.1
							c0,0.1,0,0.1,0.1,0.1c0,0,0-0.1,0-0.1l0,0.1l0-0.1l0,0.1l0,0c0,0,0,0,0,0c0,0,0,0,0,0.1l0,0c0,0,0,0,0,0c0-0.1,0,0.1,0,0
							c0,0,0,0,0,0c0,0,0,0,0.1,0l0,0c0,0,0.1,0,0.1,0c0,0,0-0.1,0-0.1l0,0.1c0,0,0,0,0-0.1c0,0,0,0.1,0,0.1l0,0c0,0,0,0,0,0.1
							c0,0,0,0.1,0,0l0,0c0,0,0.1,0,0.1,0c0-0.1,0,0,0-0.1c0,0,0,0.1,0.1,0.1c0,0,0,0,0-0.1c0,0,0,0,0,0.1c0,0,0,0,0.1-0.1
							c0,0,0,0,0,0c0,0,0,0,0,0l0,0c0-0.1,0.1,0.1,0.1,0l0,0l0-0.1c0,0,0,0,0,0.1c0-0.1,0.1,0,0.1,0c0,0.1,0.1,0,0.1,0.1l0,0
							c0,0,0,0,0,0c0,0,0,0,0,0c0.1,0,0.2,0,0.2,0.1c0,0,0-0.2,0-0.1l0,0.1c0.1-0.1,0.1,0,0.2-0.1c0,0,0,0,0,0c0,0,0,0,0,0
							c0,0,0,0,0,0.1c0,0,0-0.1,0,0c0,0,0,0,0,0c0,0,0,0,0-0.1c0,0,0,0,0.1,0c0-0.1,0,0,0-0.1c0,0.1,0,0.1,0.1,0c0,0,0,0,0,0.1
							c0,0,0,0,0-0.1c0,0.1,0-0.1,0.1,0c0-0.1,0.1-0.1,0.1-0.1c0,0.1,0,0,0,0.1c0,0,0-0.1,0.1-0.1c0,0,0,0,0,0.1c0,0,0.1,0,0.1-0.1
							c0,0,0,0,0,0c0,0,0,0,0,0l0,0c0-0.1,0-0.1,0-0.2c0,0.1,0,0,0,0.2c0,0,0,0,0-0.1c0,0,0,0,0,0.1c0,0,0-0.1,0-0.1c0,0,0,0,0,0
							c0,0,0-0.1,0-0.1c0,0,0,0,0,0c0,0,0-0.1,0.1-0.1c0,0.1,0,0,0,0.1l0,0l0,0c0,0,0-0.1,0,0l0,0l0,0l0,0c0,0,0-0.1,0-0.1
							c0,0,0,0,0,0v0c0,0,0,0,0,0c0,0,0,0.1,0,0.1c0-0.1,0,0,0-0.1c0,0,0,0.1,0,0.1l0,0c0,0,0,0,0,0.1c0,0,0-0.1,0-0.1c0,0,0,0,0,0
							c0,0,0,0,0.1,0c0,0.1,0,0,0,0.1c0,0,0.1-0.1,0.1-0.1l0,0c0-0.1,0,0,0,0c0,0,0,0.1,0,0c0,0,0,0,0.1-0.1l0,0c0,0,0,0,0.1,0
							c0,0,0,0,0-0.1c0.1,0.1,0.1-0.1,0.1,0c0,0,0,0,0,0l0,0c0,0,0,0,0-0.1c0,0,0,0,0-0.1c0,0,0,0.1,0,0.1l0,0c0,0.1,0-0.1,0,0l0,0
							c0,0,0,0,0,0c0,0,0,0,0,0.1c0,0,0-0.1,0-0.1c0,0,0,0,0,0c0,0.1,0,0,0,0l0,0l0,0l0,0c0-0.1,0,0,0-0.1c0,0.1,0,0,0,0.1
							c0,0,0,0,0,0c0,0,0,0,0,0c0,0,0,0,0,0c0,0,0,0,0-0.1c0-0.1,0.1,0.1,0.1,0c0,0,0-0.1,0-0.1c0,0,0,0.1,0,0.1c0,0,0,0,0,0
							c0,0,0,0,0,0c0,0,0-0.1,0,0c0,0,0,0.1,0,0.1c0,0,0-0.1,0-0.1c0,0,0,0,0,0.1c0,0,0,0,0-0.1l0,0c0,0,0,0,0,0.1c0,0,0,0,0,0l0,0
							c-0.1-0.1,0,0,0,0l0-0.1l0,0.1c0,0,0-0.1,0-0.1c0,0,0,0,0,0c0,0,0,0,0,0l0,0c0,0,0-0.1,0,0c0,0,0,0.1,0,0l0,0c0,0,0,0.1,0,0.1
							l-0.1-0.1l0,0.1c0,0,0,0,0,0c0,0,0,0,0,0.1c0,0,0,0-0.1,0c0,0,0,0,0,0.1c0-0.1,0,0,0,0c0-0.1,0,0,0-0.1c0,0.1,0,0,0,0
							c0,0.1,0,0,0,0.1c0,0,0,0-0.1,0l0,0c0,0.1,0,0.1,0,0.1c0,0,0-0.1,0-0.1l0,0c0,0,0,0,0,0l0-0.1c0,0,0,0.1,0,0
							c0,0,0.1,0.1,0,0.2c0,0,0-0.1,0-0.1c0,0,0,0,0,0l0,0c0,0,0,0,0,0c0,0,0,0,0-0.1c0,0,0,0,0,0c0,0,0,0,0,0c0,0,0,0,0,0.1
							c0,0,0,0,0-0.1c0,0,0,0,0,0.1c0,0,0,0,0,0c0,0,0,0,0,0.1l0,0l0,0l0,0l0,0c0,0.1-0.1,0-0.1,0l0,0c0,0,0,0,0,0.1c0,0,0,0,0-0.1
							c0,0,0,0,0,0c0,0,0,0,0,0c0,0,0,0,0,0c0,0,0-0.1,0,0l0,0c0,0,0,0,0,0l0-0.1c-0.1-0.1,0,0.1-0.1,0c0,0,0,0,0,0.1
							c0,0-0.1-0.1-0.1-0.1c0,0,0,0.1,0,0.1c0,0,0,0.1,0,0.1c0,0,0-0.1,0-0.1c0,0,0,0,0,0c0,0,0,0,0,0l0,0c0,0,0,0,0-0.1
							c0,0,0,0,0,0c0,0,0,0-0.1,0c0,0,0,0,0,0c0,0,0,0,0,0.1c0,0,0-0.1,0-0.1c0,0,0-0.1,0-0.1c0,0,0,0-0.1,0l0,0c0,0,0,0,0,0l0,0
							c0,0,0,0,0,0c0,0,0,0.1,0,0.1c0,0,0,0,0,0c0,0,0-0.1,0-0.1c0,0,0,0,0,0c0,0,0,0,0,0c0,0,0,0.1,0,0.1c0,0,0-0.1,0-0.1
							c0,0,0,0.1,0,0.1c0,0,0,0,0,0l0,0c0,0,0,0,0,0c0,0,0,0,0,0c0,0.1,0-0.1-0.1,0c0,0,0-0.1,0-0.1c0,0,0,0,0,0c0,0,0,0,0,0.1l0,0
							l0,0.1c0,0,0,0,0,0c0,0,0,0,0,0.1c0-0.1,0,0,0,0l0-0.1c0,0,0,0.1-0.1,0l0,0c0,0,0,0,0,0c0,0,0-0.1,0-0.1c0,0,0,0,0,0.1l0,0
							c0,0,0,0.1,0,0.1c0,0,0-0.1,0-0.1c0,0,0,0,0,0c0,0,0,0.1,0,0c0,0,0,0.1,0,0.1c0,0,0,0,0,0c0,0,0,0,0,0.1c0-0.1-0.1,0-0.1-0.1
							c0,0,0,0-0.1,0c0,0,0,0,0,0c0,0,0,0.1,0,0.1c0-0.1,0,0,0-0.1c0-0.1,0,0-0.1-0.1l0,0c0,0,0,0-0.1,0c0,0,0,0,0,0
							c0,0.1,0,0.1-0.1,0.1c0,0,0,0,0-0.1c0,0,0,0.1,0,0.1c0,0,0,0,0-0.1l0,0c0-0.1,0,0,0,0l0,0c0,0,0,0.1-0.1,0.1l0,0
							c0,0.1,0,0,0,0l0-0.1c0,0,0,0.1-0.1,0.1c0-0.1,0-0.1,0-0.1c0,0,0,0,0,0c0,0,0,0,0,0c0,0.1,0,0.1,0,0.1c0-0.1-0.1,0-0.1-0.1
							c0,0.1-0.1,0-0.1,0c0,0.1,0,0,0,0.1c0,0,0,0,0,0l0-0.1c0,0,0,0,0-0.1c0,0,0,0,0-0.1c0,0,0,0.1,0,0l0,0.1c0,0.1,0-0.1-0.1,0
							l0,0c0,0-0.1,0-0.1,0.1c0,0,0,0,0-0.1c0,0-0.1,0.1-0.1,0l0,0c0,0,0,0.1,0,0c0,0,0,0,0,0c0,0,0,0.1,0,0l0,0
							c0,0-0.1,0.1-0.1,0.1c0-0.1,0-0.1,0-0.1l0,0c0,0-0.1,0.1-0.1,0.1c0-0.1-0.1,0-0.1-0.1c0,0,0,0.1,0,0.1c0,0,0,0.1,0,0l0,0
							c0-0.1,0-0.1,0-0.1l0,0.1c0-0.1-0.1,0.1-0.1-0.1c0,0,0,0,0,0.1l0-0.1c0,0,0,0-0.1,0l0,0c0,0,0,0.2,0,0.2l0-0.1
							c0,0-0.1-0.1-0.1,0c0,0,0,0,0,0c0,0-0.1-0.1-0.1,0.1c0-0.1,0,0-0.1,0l0-0.1c0,0.1,0,0.1,0,0.1c0,0,0,0,0,0c0,0,0,0.1,0,0l0,0
							c0,0,0,0,0,0.1c0,0,0,0,0-0.1c0,0,0,0.1,0,0.1c0,0,0,0,0,0c0,0,0,0.1-0.1,0c0,0,0,0,0,0c0,0,0,0,0,0c0,0,0-0.1,0-0.1
							c0,0,0,0.1-0.1,0.1c0,0,0,0,0,0l0,0c0,0,0,0,0,0c0,0,0,0,0,0c0,0,0,0,0,0c0,0.1,0,0,0,0.1c0,0,0,0,0,0l0,0l0,0l0,0
							c0,0,0,0,0,0c0,0,0,0.1,0,0.1c0-0.1,0-0.1,0-0.2c0,0-0.1,0-0.1,0.1c0,0,0,0,0,0c0,0,0,0,0,0c0,0,0,0-0.1,0.1c0,0,0-0.1,0-0.1
							l0,0c0-0.1-0.1,0.2-0.1,0c0,0,0,0,0,0c-0.1-0.1-0.1,0-0.2-0.1c0,0,0,0,0,0.1l0-0.1l0,0.1c0,0,0-0.1-0.1-0.1l0,0c0,0,0,0,0,0
							c0,0,0,0,0,0l0,0l0,0c0,0,0-0.1,0-0.1c0,0,0,0.1,0,0.1c0,0,0,0,0,0.1l0,0c0,0.1,0,0.2,0,0.2l0-0.1l0,0l0,0c0,0,0,0,0,0
							c0,0,0,0,0,0l0-0.1c0,0,0,0.1,0,0.1c0,0,0-0.1,0-0.1c0,0,0,0.1,0,0c0,0,0,0,0,0c0,0,0,0,0-0.1c0,0.1,0,0,0,0.1
							c0,0,0-0.1,0-0.1c0,0.1,0,0,0,0.1c0-0.1,0.1,0,0.1-0.1c0,0,0,0,0,0c0,0,0,0,0,0.1c0-0.1,0-0.1,0-0.1C43,23,43,23.1,43.1,23.2
							c-0.1-0.1,0-0.1,0-0.1C43,23.1,43,23,43.1,23.2c0-0.1,0-0.1,0-0.1C43.1,23.1,43,23.1,43.1,23.2C43.1,23.1,43.1,23.2,43.1,23.2
							z M43.5,23L43.5,23L43.5,23C43.5,23,43.5,23,43.5,23z M43.6,23L43.6,23C43.6,23,43.6,23,43.6,23C43.6,23,43.6,23,43.6,23z
							 M43.5,22.7C43.5,22.6,43.5,22.7,43.5,22.7C43.5,22.7,43.5,22.7,43.5,22.7L43.5,22.7C43.5,22.7,43.5,22.7,43.5,22.7z"/>
						<polygon fill="#808181" points="43.5,22.7 43.5,22.7 43.5,22.7 43.5,22.7 						"/>
						<polygon fill="#808181" points="46.9,22.6 46.9,22.6 46.9,22.6 						"/>
						<polygon fill="#808181" points="44.1,23.2 44.1,23.2 44.1,23.2 						"/>
						<path fill="#808181" d="M47.2,22.7L47.2,22.7C47.2,22.7,47.2,22.7,47.2,22.7z"/>
						<path fill="#808181" d="M47.2,22.7L47.2,22.7C47.3,22.7,47.2,22.7,47.2,22.7z"/>
						<path fill="#808181" d="M47.3,22.7C47.3,22.7,47.3,22.7,47.3,22.7L47.3,22.7L47.3,22.7z"/>
						<path fill="#808181" d="M46.2,23L46.2,23C46.2,23,46.2,23,46.2,23z"/>
						<path fill="#808181" d="M46.5,22.8C46.5,22.8,46.5,22.9,46.5,22.8C46.5,22.9,46.5,22.9,46.5,22.8z"/>
						<polygon fill="#808181" points="45.9,23.1 45.9,23.1 45.9,23.1 						"/>
						<path fill="#808181" d="M46.5,22.9C46.5,22.9,46.5,22.9,46.5,22.9C46.5,22.9,46.5,22.9,46.5,22.9z"/>
						<polygon fill="#808181" points="47.6,22.6 47.6,22.6 47.6,22.6 						"/>
						<path fill="#808181" d="M47.6,22.6L47.6,22.6C47.6,22.6,47.6,22.6,47.6,22.6z"/>
						<path fill="#808181" d="M47.6,22.6L47.6,22.6C47.6,22.6,47.6,22.6,47.6,22.6z"/>
						<path fill="#808181" d="M47.5,22.6L47.5,22.6C47.5,22.6,47.5,22.6,47.5,22.6z"/>
						<path fill="#808181" d="M47.5,22.6C47.5,22.6,47.5,22.7,47.5,22.6L47.5,22.6C47.5,22.7,47.5,22.6,47.5,22.6z"/>
						<path fill="#808181" d="M47.3,22.4L47.3,22.4C47.3,22.4,47.3,22.4,47.3,22.4C47.3,22.3,47.3,22.4,47.3,22.4z"/>
						<path fill="#808181" d="M47.2,22.4C47.2,22.4,47.2,22.4,47.2,22.4C47.2,22.4,47.2,22.4,47.2,22.4z"/>
						<path fill="#808181" d="M46.7,22.6L46.7,22.6C46.7,22.5,46.7,22.5,46.7,22.6z"/>
						<polygon fill="#808181" points="46.7,22.8 46.7,22.9 46.7,22.8 						"/>
						<polygon fill="#808181" points="46.6,22.5 46.6,22.5 46.5,22.5 						"/>
						<path fill="#808181" d="M45.7,22.7L45.7,22.7C45.7,22.7,45.7,22.6,45.7,22.7z"/>
						<path fill="#808181" d="M45.3,22.8C45.3,22.7,45.3,22.7,45.3,22.8C45.3,22.7,45.3,22.8,45.3,22.8z"/>
						<polygon fill="#808181" points="44.2,22.7 44.2,22.7 44.2,22.7 						"/>
					</g>
				</g>
			</g>
		</g>
	</g>
	<g>
		<g>
			<g>
				<g>
					<g>
						<path fill="#808181" d="M35.6,53.8C35.6,53.9,35.7,53.8,35.6,53.8L35.6,53.8L35.6,53.8z"/>
						<path fill="#808181" d="M35.7,53.6c0,0-0.1-0.1-0.1-0.1C35.7,53.6,35.6,53.6,35.7,53.6C35.7,53.7,35.7,53.7,35.7,53.6
							c-0.1,0.1-0.1,0.1-0.1,0.2C35.7,53.7,35.7,53.7,35.7,53.6C35.7,53.6,35.7,53.6,35.7,53.6z"/>
						<path fill="#808181" d="M35.8,50.1L35.8,50.1L35.8,50.1z"/>
						<path fill="#808181" d="M35.9,48C35.9,48,35.9,48,35.9,48C35.9,48,35.9,48,35.9,48z"/>
						<path fill="#808181" d="M36,47.6C36,47.6,35.9,47.6,36,47.6C36,47.6,36,47.6,36,47.6z"/>
						<path fill="#808181" d="M35.8,50.1L35.8,50.1C35.8,50.1,35.9,50.1,35.8,50.1z"/>
						<path fill="#808181" d="M35.6,53.1C35.6,53.1,35.6,53.1,35.6,53.1L35.6,53.1L35.6,53.1z"/>
						<polygon fill="#808181" points="35.9,51.1 35.9,51.1 35.9,51.1 						"/>
						<path fill="#808181" d="M35.9,51.8C35.9,51.8,35.9,51.8,35.9,51.8C35.9,51.8,35.9,51.8,35.9,51.8
							C35.9,51.8,35.9,51.8,35.9,51.8z"/>
						<path fill="#808181" d="M35.8,53L35.8,53L35.8,53z"/>
						<path fill="#808181" d="M35.9,50.6C35.9,50.6,35.9,50.6,35.9,50.6C35.9,50.5,35.9,50.6,35.9,50.6z"/>
						<path fill="#808181" d="M37.8,30.7L37.8,30.7C37.8,30.7,37.8,30.7,37.8,30.7z"/>
						<polygon fill="#808181" points="38.7,30.8 38.7,30.8 38.7,30.8 						"/>
						<path fill="#808181" d="M36,46.9L36,46.9C36,47,36,46.9,36,46.9z"/>
						<path fill="#808181" d="M36,40.8c0,0.1-0.1-0.1-0.1,0C35.9,40.7,36,40.8,36,40.8z"/>
						<path fill="#808181" d="M35.6,53.1L35.6,53.1C35.6,53.1,35.6,53.1,35.6,53.1z"/>
						<polygon fill="#808181" points="35.9,40.7 35.9,40.7 35.9,40.8 						"/>
						<path fill="#808181" d="M36,45.4C36,45.4,36,45.4,36,45.4C36,45.4,36,45.4,36,45.4z"/>
						<path fill="#808181" d="M35.9,46.5L35.9,46.5C35.9,46.5,35.9,46.5,35.9,46.5z"/>
						<path fill="#808181" d="M35.9,44.8C35.9,44.8,35.9,44.8,35.9,44.8L35.9,44.8C35.9,44.8,35.9,44.8,35.9,44.8z"/>
						<polygon fill="#808181" points="35.9,44.2 35.9,44.2 35.9,44.2 						"/>
						<path fill="#808181" d="M36.3,32.1C36.3,32.1,36.3,32.1,36.3,32.1C36.3,32.1,36.3,32,36.3,32.1z"/>
						<path fill="#808181" d="M35.6,53.1C35.6,53.1,35.6,53.1,35.6,53.1L35.6,53.1C35.6,53.1,35.6,53.1,35.6,53.1z"/>
						<path fill="#808181" d="M35.5,44.8L35.5,44.8C35.5,44.7,35.5,44.7,35.5,44.8z"/>
						<path fill="#808181" d="M35.5,36.5L35.5,36.5C35.5,36.5,35.5,36.5,35.5,36.5z"/>
						<path fill="#808181" d="M35.5,44.4C35.5,44.3,35.5,44.3,35.5,44.4L35.5,44.4L35.5,44.4z"/>
						<path fill="#808181" d="M36.3,32.1L36.3,32.1L36.3,32.1z"/>
						<path fill="#808181" d="M36.6,31.4c-0.1,0.1,0,0.1,0,0.1c-0.1,0.1-0.1,0-0.1,0c0,0.1,0,0.2-0.1,0.2c0,0,0,0,0,0
							c0,0.1-0.1,0.2-0.1,0.3c0,0,0,0,0,0c0,0,0.1,0,0.1,0c0,0,0,0.1-0.1,0.1c0,0,0,0,0-0.1l0,0c-0.1,0,0-0.1,0-0.1
							c0,0.1,0,0.2-0.1,0.3c-0.1,0,0.1-0.2,0-0.1l0.1-0.1c-0.1,0,0-0.1-0.1,0c-0.1,0.1,0,0.2-0.1,0.3c0,0,0.1,0,0.1,0.1
							c0,0.2-0.2,0.1-0.2,0.3c0,0.1,0.1,0.1,0,0.2l-0.1-0.1c-0.1,0.1,0.1,0.1,0,0.2c0,0,0-0.1,0-0.1c-0.1,0.1,0,0.1,0,0.1l-0.1,0
							c0,0.1,0,0.3,0,0.5c0,0,0,0-0.1,0c0,0.2-0.1,0.4-0.2,0.6l0,0.1c0,0,0,0,0,0c0,0.1,0,0,0.1,0c0,0,0,0.1-0.1,0
							c0,0.1,0.1,0.4,0,0.5l0,0c0,0.1,0.1,0.1,0.1,0.2l0,0c0,0.2,0,0.5-0.1,0.7c0.1,0,0,0.2,0.1,0.2c-0.1,0.1-0.1,0.1-0.1,0.3
							c0,0,0.1,0.1,0.1,0.1l-0.1,0l0.1,0.1l-0.1,0l0,0.1c0,0,0,0,0,0c0,0.1,0,0.2-0.1,0.2l0.1,0.2c0,0,0,0,0-0.1
							c0.1,0.1-0.1,0,0,0.1c0,0,0,0,0,0c0,0.1,0,0.2,0,0.3l0,0c0,0.2,0,0.3,0,0.5c0-0.1,0.1,0,0.1,0l-0.1,0c0,0,0-0.1,0.1,0
							c0,0.1-0.1,0-0.1,0l0,0.1c0,0,0,0-0.1,0c0,0-0.1,0.1,0,0.2l0,0c0,0.2,0,0.3,0,0.4c0.1,0,0,0.1,0.1,0.1c0,0.1-0.1,0.2-0.1,0.3
							c0,0.1,0,0,0.1,0.1c0,0,0,0.1-0.1,0.1c0,0.2,0,0.2,0.1,0.4c0,0,0,0,0,0c0,0,0,0.1,0,0.1l0,0c0.1,0.2-0.1,0.5,0,0.7l0,0
							l0.1,0.2c0,0.1,0,0-0.1,0c0.1,0.2,0,0.3,0,0.5c-0.1,0.1,0,0.4-0.1,0.6l0,0c0,0,0,0.1,0,0.1c0,0,0,0,0,0c0,0.4-0.1,0.7-0.1,1.1
							c0,0.1,0.2,0.1,0.1,0.2l-0.1,0c0.1,0.3,0,0.6,0.1,0.8c0,0,0,0,0,0c0,0.1,0,0.2,0,0.2c0,0,0,0-0.1,0c0,0.1,0.1,0.1,0,0.2
							c0,0,0,0,0,0c0,0,0,0.2,0,0.1c0,0.1,0,0.2,0,0.3c0.1,0.1,0,0.2,0.1,0.2c-0.1,0-0.1,0.2,0,0.2c0,0,0,0.1-0.1,0
							c0,0.1,0,0.1,0.1,0.1c-0.1,0.1,0.1,0.3-0.1,0.3c0,0.2,0.1,0.4,0.1,0.6c-0.1,0,0-0.2-0.1-0.2c0,0.2,0.1,0.3,0.1,0.5
							c0,0,0,0-0.1,0c0,0.2,0,0.4,0,0.5c0,0,0,0,0,0c0,0,0,0.1,0,0.1l0,0c0.1-0.1,0.1,0.1,0.2,0.1c-0.1-0.1,0,0.2-0.2,0.1
							c0,0,0,0,0.1,0c0,0,0,0-0.1,0c0,0.1,0.1,0.1,0.1,0.2c0,0,0,0,0,0c0,0.1,0.1,0.1,0.1,0.2c0,0,0,0,0,0c0,0.2,0.1,0.3,0.1,0.4
							c-0.1,0,0,0.1-0.1,0.1l0,0.1l0,0c0,0.1,0.1,0.1,0,0.2l0-0.1l0,0.1l0-0.1c0,0.1,0.1,0,0.1,0.1c0,0,0,0.1,0,0.1l0,0
							c0,0,0,0.1,0,0.1c0,0-0.1,0-0.1,0c0.1,0,0,0.2,0.1,0.2c0,0-0.1,0-0.1,0l0,0c0,0,0,0-0.1,0c0,0.1,0.1,0,0.1,0.1c0,0,0,0,0,0
							c0,0.1,0,0.3,0,0.4c-0.1,0,0-0.1-0.1-0.1c0,0.2,0.1,0.4,0.1,0.5l0,0c0.1,0-0.1,0.1,0,0.2c0,0-0.1,0,0,0c0,0.1,0,0.2,0.1,0.4
							l0,0c0,0.1,0,0.2,0,0.3c0,0,0,0.1,0.1,0c-0.2,0.2,0.1,0.4,0,0.6c0,0,0-0.1,0,0l0,0.2c0,0,0,0,0.1-0.1c0,0,0,0.1,0,0.1
							c0-0.1-0.1,0-0.1,0c0,0,0,0,0,0c-0.1,0.1,0.1,0,0,0.1l0,0c0,0,0,0.1,0,0.1c-0.1,0,0,0-0.1-0.1c0,0.1,0.1,0.1,0,0.2
							c0,0,0-0.1,0-0.1c-0.1,0.1,0,0.1-0.1,0.1l0,0l0,0.1l0,0c0.1,0.1,0,0.2,0.1,0.3c-0.1-0.1,0,0-0.1,0c0,0,0,0.1-0.1,0.1
							c0,0.1,0,0.1,0,0.2c0,0,0,0.1,0,0c0,0.1,0,0,0.1,0c0.1,0.1-0.1,0.3,0,0.4c0,0.1,0.1,0.2,0.1,0.3c0,0-0.1,0-0.1,0
							c0,0.1,0,0.1,0,0.2c0,0,0,0-0.1,0c0,0.1,0.1,0,0,0.1c0,0-0.1,0-0.1-0.1c0,0.1,0.1,0.1,0.1,0.2c0,0,0,0-0.1-0.1
							c0,0.1,0,0.2,0.1,0.2l0,0c0,0,0,0-0.1,0c0-0.1,0-0.1,0-0.1l0,0c0.1,0,0-0.2,0-0.3l0.1,0l-0.1-0.1c0,0,0.1,0,0.1,0
							c0-0.1,0-0.1,0-0.1c0,0,0,0,0,0l0-0.1c0,0,0.1,0,0,0c0-0.1-0.1-0.2,0-0.2l0,0c0-0.2-0.1,0-0.1-0.1l0.1-0.1l-0.1,0c0,0,0,0,0,0
							c0-0.1,0,0-0.1,0c0.1-0.1,0-0.2,0.1-0.2c0,0,0,0.1-0.1,0c0.1,0,0-0.1,0-0.2c0.1,0,0,0.1,0.1,0c-0.1,0,0-0.1,0-0.2
							c-0.1,0,0-0.1-0.1-0.2c0,0,0-0.2,0.1-0.3l0,0c-0.1,0-0.1-0.1-0.1-0.2c0,0,0.1,0,0.1,0.1l0-0.1c0,0,0,0,0-0.1l0.1,0
							c0-0.1-0.1-0.2,0-0.3c0,0-0.1,0.1-0.2,0c0,0,0.1,0,0.1,0c0,0,0,0,0-0.1l0,0c0-0.1,0,0,0-0.1c0,0,0,0,0.1,0c0,0,0,0,0,0.1
							c0,0,0-0.1,0.1-0.1c0,0-0.1,0-0.1,0c0-0.1,0,0,0.1-0.1c0,0,0-0.1-0.1-0.1c0,0,0,0,0,0c0,0,0-0.2-0.1-0.2l0,0l0,0v0v0
							c-0.1-0.2,0-0.3,0-0.5l0,0c0-0.1,0-0.2-0.1-0.3c0,0,0-0.1,0.1-0.1c0-0.1,0-0.1,0-0.2c0,0.1,0,0,0,0.1c0-0.1,0-0.1,0-0.2
							c0,0,0.1-0.1,0-0.1l0,0.1c0,0,0-0.1,0-0.1l0.1,0c0.1-0.2-0.1-0.3,0-0.5c0,0,0,0.1-0.1,0.1c0-0.1,0.1-0.2,0.1-0.2
							c0-0.1-0.1-0.1-0.1-0.2c0,0-0.1,0-0.1-0.1c0-0.1,0.1-0.1,0.1-0.1c0,0,0,0,0,0c0,0,0,0.1,0,0l0,0c0,0,0-0.2,0.1-0.1
							c0-0.1,0,0,0,0c0-0.1,0-0.2,0-0.3c0,0,0,0,0,0c0-0.2,0-0.1-0.1-0.2c0-0.1,0.1,0,0.1-0.1c0-0.1,0.1,0,0.1,0c0-0.1,0-0.2,0-0.2
							l0,0.1c0,0,0-0.1,0-0.1l0,0c0,0,0-0.1,0-0.1c0,0-0.1,0-0.1,0c0,0,0-0.1,0-0.1c0,0.1,0.1,0,0.1,0.1c0,0,0,0,0-0.1c0,0,0,0,0,0
							c0.1-0.1-0.1-0.1-0.1-0.2c0,0,0.1,0,0.1-0.1c0,0.1-0.1,0-0.1,0c0-0.1,0-0.1,0-0.1l0,0c0,0,0-0.1,0-0.1c0,0,0,0.1,0,0
							c-0.1-0.1,0.1-0.1,0-0.2c0,0,0.1,0,0.1,0c0-0.1,0-0.1,0-0.2c0,0,0,0-0.1,0l0,0.2L35.9,46c0,0.1,0,0.1,0,0.1c0-0.1,0,0-0.1,0
							c0.1-0.1,0-0.1,0-0.2l0.1,0c0.1-0.1-0.1-0.2,0-0.4l0,0.1c0,0,0-0.1,0-0.2c0,0,0.1,0,0.1-0.1c0,0,0-0.1-0.1-0.1l0.1-0.1
							c0-0.1-0.1-0.1-0.1-0.3c0,0,0.1,0,0.1,0.1c0,0,0-0.1,0-0.1c0,0-0.1-0.1,0-0.2c0,0-0.1,0-0.1-0.1c0,0,0,0,0,0c0,0,0-0.1-0.1,0
							c0.1-0.1,0-0.4,0.1-0.5c0-0.1,0-0.2,0-0.3c0,0,0,0,0,0c0-0.1-0.1-0.1-0.1-0.2c0.1-0.1,0,0.1,0.1,0c0.1,0,0-0.2,0.1-0.2l0,0
							c0-0.1,0-0.2,0-0.3c0,0,0,0,0,0c-0.1-0.1-0.1-0.2-0.1-0.3c0,0,0,0,0.1,0c0,0-0.1,0-0.1-0.1c0,0,0.1-0.1,0.1-0.1l0,0.1
							c0.1,0,0-0.1,0-0.2l0,0c0-0.1-0.1-0.1-0.1-0.3l0,0c-0.1-0.1,0-0.1,0-0.1l0.1,0c0-0.1-0.1-0.2-0.1-0.3c0.1,0.1,0.1,0.2,0.1,0.2
							c0-0.1,0-0.2,0-0.2c0,0,0,0,0,0.1c-0.1-0.1-0.1-0.1-0.1-0.3c0.1,0,0-0.3,0.2-0.3c-0.1-0.2,0-0.4,0-0.6c-0.1,0.1,0-0.1-0.1,0
							c0-0.1,0-0.1,0-0.1l0.1-0.2c0,0,0,0,0.1,0c0-0.1,0.1,0,0.1-0.1c0,0-0.1,0,0-0.1L36,40.5c-0.1-0.2,0.1-0.1,0-0.3l0,0
							c0-0.1,0-0.3-0.1-0.4c0,0,0,0,0.1,0c0-0.2-0.1-0.4,0-0.6l0,0c0,0-0.1-0.1,0-0.1c0,0,0,0,0,0c0,0-0.1-0.1,0-0.1l0,0
							c0-0.2-0.1-0.3-0.1-0.4c0.1,0,0.1-0.1,0.1-0.2l0,0c0-0.2-0.1-0.4-0.1-0.6c0.1-0.1,0-0.4,0.1-0.6c0,0-0.1,0-0.1,0
							c0,0-0.1-0.1,0-0.1l0,0c0.1,0,0.1-0.1,0.1-0.2l-0.1,0c0.1-0.2-0.1-0.5,0.1-0.6c0,0,0-0.1-0.1-0.2l0.1,0c0-0.1,0-0.2,0-0.4l0,0
							c0-0.1-0.2-0.1-0.2-0.2l0.1,0c0-0.2,0.1-0.3,0-0.5c0,0,0,0,0,0c0-0.1,0.1-0.3,0-0.3c0.1,0,0-0.2,0-0.2l0.1,0
							c-0.1-0.1-0.1-0.1-0.1-0.2c0,0,0,0,0,0c0-0.1,0-0.1,0-0.2l0,0c0-0.1,0-0.1,0-0.1c0-0.1,0-0.2,0.1-0.2c0,0-0.1-0.1,0-0.1
							c0,0,0,0,0,0c0-0.1,0-0.2,0-0.3c0,0,0,0,0,0c0,0.1,0,0.2,0,0.2c0,0,0.1-0.1,0.1,0c0-0.1-0.1-0.2,0-0.3c0,0,0,0,0,0l0,0
							c0,0,0,0,0-0.1c0,0,0,0,0-0.1c0,0,0-0.1,0.1-0.1c-0.1,0,0-0.1-0.1,0c0,0,0,0,0,0c0,0,0,0,0,0l0,0c0,0,0,0.1,0,0.1
							c0,0,0-0.1,0-0.1c0,0-0.1-0.1-0.1-0.1c0.1,0,0.2-0.1,0.2-0.1c0-0.1,0.1-0.3,0-0.4c0,0,0,0,0.1,0c0,0,0,0,0,0.1
							c0-0.1,0.1-0.2,0-0.2c0.1-0.1,0,0.1,0.1,0l0,0c0.2-0.2,0-0.5,0.3-0.6c0,0,0,0,0,0c0.2-0.2,0.4-0.5,0.7-0.6
							c0.1,0,0.1-0.1,0.1-0.1l0,0l0.1-0.1c0.1-0.1,0.3,0,0.4-0.1l0,0c0.1,0,0.2-0.1,0.2,0c0,0,0,0,0,0l0,0l0.1-0.1
							c0.1,0,0,0.1,0.2,0.1c0.1,0,0.2-0.1,0.1-0.1c0,0-0.1,0-0.1,0l0.1,0c0-0.1,0.1-0.2-0.1-0.2c0,0-0.1,0-0.1,0.1l0,0l0.1,0
							c-0.1,0-0.1,0-0.1,0c0,0,0,0-0.1,0l-0.1,0.1c0,0,0-0.1,0-0.1c0,0,0.1,0.1,0,0.1c-0.1,0-0.1-0.1-0.1,0c0,0,0,0,0-0.1
							c0,0-0.1,0-0.2,0.1c-0.1,0-0.2,0.1-0.2,0c0,0-0.1,0.1-0.1,0.1c0-0.1-0.2,0.1-0.2,0c0,0.1-0.2,0.2-0.3,0.3c0,0,0,0,0,0
							c-0.1,0-0.1,0-0.1,0c0,0.1,0,0.1,0,0.2c-0.1,0,0-0.1-0.1-0.1c0,0-0.1,0.1,0,0.2c-0.1,0-0.1,0-0.1,0c0.1,0.1,0,0,0,0.1
							C36.7,31.5,36.7,31.4,36.6,31.4C36.6,31.5,36.6,31.4,36.6,31.4z M35.8,33.6L35.8,33.6C35.8,33.6,35.8,33.5,35.8,33.6
							C35.8,33.5,35.8,33.5,35.8,33.6z M35.8,33.8C35.8,33.7,35.8,33.7,35.8,33.8C35.8,33.7,35.8,33.7,35.8,33.8
							C35.8,33.7,35.8,33.7,35.8,33.8z M36.2,33.5C36.2,33.5,36.2,33.5,36.2,33.5C36.2,33.5,36.2,33.5,36.2,33.5L36.2,33.5
							C36.2,33.4,36.2,33.5,36.2,33.5z"/>
						<polygon fill="#808181" points="36.2,33.4 36.2,33.4 36.1,33.4 36.2,33.4 						"/>
						<polygon fill="#808181" points="35.8,50.2 35.8,50.1 35.8,50.2 						"/>
						<polygon fill="#808181" points="35.5,36.3 35.5,36.3 35.5,36.3 						"/>
						<path fill="#808181" d="M35.7,51.2C35.6,51.2,35.6,51.2,35.7,51.2C35.6,51.2,35.6,51.2,35.7,51.2z"/>
						<path fill="#808181" d="M35.6,51.6L35.6,51.6C35.6,51.7,35.6,51.6,35.6,51.6z"/>
						<path fill="#808181" d="M35.6,52C35.6,52,35.6,52,35.6,52L35.6,52L35.6,52z"/>
						<path fill="#808181" d="M35.5,46.6C35.5,46.6,35.5,46.6,35.5,46.6C35.5,46.5,35.5,46.5,35.5,46.6z"/>
						<path fill="#808181" d="M35.7,48.2C35.7,48.1,35.7,48.1,35.7,48.2C35.6,48.1,35.6,48.2,35.7,48.2z"/>
						<polygon fill="#808181" points="35.5,44.8 35.5,44.8 35.5,44.8 						"/>
						<path fill="#808181" d="M35.7,48C35.6,48.1,35.6,48.1,35.7,48C35.7,48.1,35.7,48.1,35.7,48z"/>
						<polygon fill="#808181" points="35.6,53.4 35.6,53.4 35.6,53.4 						"/>
						<path fill="#808181" d="M35.6,53.4L35.6,53.4C35.6,53.5,35.6,53.4,35.6,53.4z"/>
						<path fill="#808181" d="M35.6,53.5L35.6,53.5C35.6,53.5,35.6,53.5,35.6,53.5z"/>
						<path fill="#808181" d="M35.6,53L35.6,53C35.6,53,35.6,53,35.6,53z"/>
						<path fill="#808181" d="M35.6,52.8c0,0,0,0.1,0,0.1l0,0C35.6,53,35.6,52.9,35.6,52.8z"/>
						<path fill="#808181" d="M35.9,52.3l0,0.1c0,0,0,0,0.1,0C36,52.2,35.8,52.4,35.9,52.3z"/>
						<path fill="#808181" d="M35.9,51.9C35.9,52,35.9,51.9,35.9,51.9C35.9,51.9,35.9,51.9,35.9,51.9z"/>
						<path fill="#808181" d="M35.9,49.4L35.9,49.4C35.9,49.3,35.9,49.4,35.9,49.4z"/>
						<polygon fill="#808181" points="35.6,48.9 35.6,48.9 35.6,48.9 						"/>
						<polygon fill="#808181" points="36,48.6 36,48.6 36,48.5 						"/>
						<path fill="#808181" d="M36,44.3L36,44.3C35.9,44.3,36,44.3,36,44.3z"/>
						<path fill="#808181" d="M35.9,42.4c0,0,0.1-0.1,0-0.1C35.9,42.3,35.9,42.4,35.9,42.4z"/>
						<polygon fill="#808181" points="36,36.8 36,36.9 36,36.8 						"/>
					</g>
				</g>
			</g>
		</g>
	</g>
</g>
</svg>
