<?xml version="1.0" encoding="utf-8"?>
<!-- Generator: Adobe Illustrator 23.1.0, SVG Export Plug-In . SVG Version: 6.00 Build 0)  -->
<svg version="1.1" id="Capa_1" xmlns="http://www.w3.org/2000/svg" xmlns:xlink="http://www.w3.org/1999/xlink" x="0px" y="0px"
	 viewBox="0 0 89.2 89.2" enable-background="new 0 0 89.2 89.2" xml:space="preserve">
<g>
	<g>
		<path fill="#D8B58B" d="M44.8,77c-28.1-4.4-27.3-33.6-27.3-33.6c0.4-28.5,27.3-31.9,27.3-31.9s26.9,3.4,27.3,31.9
			C72.1,43.4,72.9,72.7,44.8,77z"/>
		<g>
			<g>
				<g>
					<g>
						<path fill="#808181" d="M44.4,77.1c0.7,0.1-0.4-0.1,0.4,0.1C44.7,77.1,44.6,77.1,44.4,77.1z"/>
						<path fill="#808181" d="M47.1,76.7c2.1-0.6,5-1.3,7.1-2.4c0.3-0.1,0,0.1,0.5-0.2c1-0.6,2.3-1.3,3.7-2.2c0.3-0.2,0.7-0.4,1-0.7
							c0.3-0.2,0.6-0.5,0.9-0.7c0.6-0.5,1.2-1,1.7-1.5l-0.1,0.1c0.4-0.3,0.8-0.9,1.2-1.3c0,0-0.1,0.1,0,0.1c0.1-0.1,0.7-0.8,0.8-1
							c0.2-0.2,0.2-0.1,0.4-0.3l0.2-0.3c0.5-0.8,1.4-1.8,2-2.9c0,0.1-0.1,0.2,0,0.1c1-1.7,2.2-4,2.9-6.1c0,0.1,0,0.2,0.1,0.1
							c0-0.1,0.2-0.8,0.4-1.3c0.2-0.2,0.3-1,0.5-1.7l0,0.1c0.1-0.5,0.2-0.7,0.3-1.2l0.1-0.3c0-0.2,0.2-0.7,0.3-1.2l0,0
							c0.1-0.4,0.2-0.6,0.2-1l0,0c0.2-0.9,0.3-1.4,0.2-1.4c0.1-0.3-0.1,0.8,0,0.4c0.4-2.9,0.7-5.9,0.5-8.8c0-0.3,0-0.5,0-0.6
							c0-0.3-0.1-1.1-0.2-1.4c0,0.1,0-0.2,0-0.3c0-0.5-0.1-0.6-0.2-1.1c0.1,0.2,0.1,0.3,0.1,0.2c-0.1-0.5-0.2-1.1-0.4-1.7
							c0,0.1,0.1,0.2,0.1,0.2c-0.2-0.6-0.2-1.1-0.4-1.7l0.1,0.2c-0.2-0.9-0.1-0.2-0.3-1c0.1,0.2,0.1,0.1,0.1,0.1
							c-0.3-0.7-0.6-1.8-0.9-2.5c0,0,0,0,0,0c-0.3-0.7-0.5-1.5-1-2.3c-0.1-0.3,0.1,0.1-0.2-0.7c0,0-0.7-1.3-0.5-0.8
							c-0.3-0.6-0.9-1.6-1.2-2c0.2,0.3-0.1-0.3,0.2,0.2l-0.2-0.4c0.1,0,0.2,0.4,0.2,0.3c-0.2-0.2-0.6-1-0.8-1.2
							c-0.4-0.4-0.7-0.8-1.3-1.5c0.3,0.3-0.1-0.2,0.1,0l-0.9-0.9c-0.2-0.2,0-0.1-0.3-0.4c0,0-0.1-0.1-0.2-0.2
							c-0.1-0.1-0.9-0.9-0.9-1c-0.1-0.1,0.4,0.3,0.1,0.1c-0.4-0.4-0.4-0.4-0.8-0.8l0,0c-0.2-0.3-0.8-0.7-0.6-0.4
							c0.2,0.2,0-0.1,0.2,0.2c-0.2-0.1-0.7-0.5-1.1-0.9c0.2,0.1,0.1,0.1,0.2,0.1c-0.6-0.4-1.2-0.9-1.9-1.3c0,0,0.3,0.1,0.4,0.2
							c-0.4-0.3-0.9-0.6-1.3-0.9c-0.5-0.3-0.9-0.5-1.2-0.8c0.1,0.1,0,0.1,0,0.1c-0.4-0.3-0.4-0.3-0.7-0.4c0,0-0.4-0.2-0.7-0.4
							c-0.2-0.1-0.1-0.1,0.2,0.1c-0.4-0.2-2.1-1-3.2-1.5c0,0-0.6-0.2-0.9-0.3l0.1,0c-0.2-0.1-0.8-0.3-0.8-0.4
							c-0.5-0.1,2,0.7,1.3,0.5c-0.2-0.1-1-0.3-0.8-0.3c-0.5-0.2-1-0.3-1.4-0.5c0.1,0.1,0.4,0.1,0-0.1c-0.7-0.2-0.2,0-0.8-0.2
							L49,12.7c0,0-0.6-0.2-0.4-0.1c-0.1-0.1-1-0.3-0.9-0.3l0.1,0c-0.3-0.1-0.5-0.1-0.8-0.1c0,0-0.1,0-0.1-0.1
							c-0.1,0.1-0.7-0.2-1.1-0.2c-0.3-0.1-0.7-0.2-1-0.2c-0.3,0-0.7,0.1-0.8,0.1c-0.5,0.1-0.9,0.3-1.5,0.4c0.1,0,0.3-0.1,0.3-0.1
							c-0.4,0.1-0.4,0.1-0.8,0.2c0.1,0-0.7,0.1-1.1,0.2c-0.5,0.2-0.3,0.2-0.3,0.2c-0.5,0-1.3,0.5-1.9,0.6c0.2-0.1,0.7-0.3,0.3-0.2
							c-0.5,0.1-0.8,0.4-1.5,0.6l0.2,0c-0.3,0.1-1,0.5-0.9,0.4c-0.2,0.1-0.8,0.3-0.7,0.4c-1.1,0.4-2.6,1.4-3.3,1.6
							c-0.1,0.1-0.5,0.3-0.4,0.3c0.3-0.1,0.3-0.2,0.4-0.3c-0.1,0.1-0.2,0.1-0.2,0.1c-0.3,0.2-0.6,0.3-0.3,0.1
							c-0.7,0.4-0.7,0.5-1.6,1.1c0-0.1,0,0-0.3,0.2c-0.2,0.1-0.3,0.3-0.4,0.4c-0.6,0.4-0.4,0.2-0.4,0.2c-0.3,0.2-0.7,0.5-0.8,0.6
							l-0.4,0.2c0.3-0.2-0.2,0.2-0.3,0.3l0.1-0.1c-0.1,0-0.4,0.3-0.5,0.5c0.1,0,0.4-0.3,0.6-0.4c-0.1,0.1-0.4,0.3-0.5,0.5
							c0-0.1-0.5,0.4-0.7,0.6c-0.3,0.2-0.2,0.3-0.3,0.4c0,0-0.4,0.4-0.2,0.2c0.1-0.1,0.2-0.2,0.3-0.3c-0.2,0.1-0.2,0.1-0.5,0.4
							c-0.2,0.3,0.1,0-0.3,0.5c0.1-0.1,0.1-0.2,0.2-0.3l-0.4,0.4l0,0c-0.1,0.1,0,0-0.1,0C25.6,22,25,22.5,25,22.7
							c-0.2,0.2-0.4,0.5-0.6,0.7l0,0c-0.3,0.3-0.5,0.7-0.7,0.9l0,0c-0.1,0.2-0.4,0.5-0.5,0.7c-0.3,0.4-0.2,0-0.5,0.5
							c-0.3,0.4-0.4,0.7-0.2,0.6c-0.5,0.7-0.9,1.7-1.4,2.4c0,0.1,0,0.1-0.1,0.3c-0.6,1.2-1.1,2.6-1.5,3.6c0.1-0.4,0,0-0.1,0
							c-0.1,0.3-0.2,0.4-0.1,0.5c0,0,0.1,0,0.2-0.3c-0.1,0.4-0.3,0.9-0.4,1.3c-0.1,0.4-0.2,0.8-0.3,1.1c0.1-0.2,0,0,0,0.1
							c0-0.1-0.2,0.5-0.3,0.9l0,0.1c0,0.1-0.1,0.2-0.1,0.3c0,0.2,0,0.2-0.1,0.6c0,0,0,0-0.1,0.1c0,0.5-0.1,1.1-0.2,1.6L18.1,39
							c0,0.2,0,0.6,0,0.2c-0.1,0.8-0.2,1.4-0.3,1.7c0,0.7,0,1.6,0,2.6c0,0.9,0.1,1.9,0.1,2.7l0,0c0,0.5,0.1,0.2,0.1,0.6
							c0-0.1,0,0.4-0.1,0c0,0.7,0.1,0.8,0.2,1.3c0,0.1-0.1-0.3,0-0.3c0,0.1,0.1,0.9,0.2,1c0,0.2-0.1,0-0.1,0l0.1,0.4
							c0,0.5-0.3-1.1-0.3-0.6l0.1,0.4c0,0.4-0.2-1-0.1,0c0.1,0.4,0.2,0.7,0.2,0.4c0.2,0.8,0.2,0.4,0.3,1.2c0,0.2-0.1-0.7-0.1-0.5
							c0,0.4,0.2,0.8,0.2,1.2c-0.1-0.4,0.1-0.1,0.1,0.2c0.1,0.5-0.1-0.3,0,0.4c0.1,0.1,0.2,0.7,0.1,0.2c0.1,0.2,0.1,0.7,0.3,1
							c0,0.2-0.3-0.6-0.1,0.1c0-0.1,0.3,0.8,0.3,0.4c0.1,0.3,0,0.3-0.1,0.1c0.1,0.4,0.3,0.9,0.3,1.1l0.1,0.1c0,0.1,0.1,0.3,0.1,0.5
							c0.1,0.3,0.4,1.1,0.3,1c0,0.1,0.3,0.9,0.3,0.6c-0.1-0.5-0.2-0.5-0.2-0.8c0.1,0.4,0.2,0.7,0.4,0.9l0,0.1
							c0.1,0.2,0.2,0.5,0.3,0.6c-0.1-0.1-0.1,0,0,0.1l0.1,0.1c0.3,0.6,0,0.2,0.2,0.8L20.8,58c0.1,0.1,0.1,0.3,0.2,0.6
							c0.1,0.1,0.2,0.3,0.3,0.4c0.2,0.3,0,0.2,0.2,0.5l-0.2-0.4c0-0.1,0.1,0.3,0.3,0.8c0.2,0.3,0.4,0.7,0.2,0.2
							c0.1,0.2,0.3,0.6,0.1,0.4c0.3,0.5,0-0.1,0.3,0.3c0.1,0.2,0.3,0.8,0.5,1.1l-0.3-0.4l0.2,0.3c-0.3-0.4,0.1,0.2-0.1,0
							c0.1,0.2,0.3,0.5,0.4,0.6c-0.3-0.7,0.5,0.6,0.5,0.4c0.5,0.8,0.1,0.6,0.8,1.4C24,64.2,24.3,64.5,24,64c0.3,0.5,0.3,0.3,0.7,0.9
							c-0.3-0.4,0.3,0.5-0.2-0.1c0.1,0-0.2-0.3-0.3-0.4c0.1,0.2-0.1,0,0.3,0.5c0.2,0.3,0.5,0.7,0.5,0.6c0,0-0.3-0.5-0.2-0.3
							c0.4,0.6,0.5,0.7,0.7,0.9c-0.3-0.4-0.3-0.5-0.3-0.5l0.4,0.4L25.4,66c0.5,0.7,0.2,0.2,0.7,0.8c0.1,0.1,0.1,0.2,0.2,0.3
							c-0.2-0.1-0.8-1-0.7-0.8c0.4,0.4,0.5,0.5,0.8,0.9c-0.1-0.1-0.2-0.2-0.3-0.3c0.1,0.2,0.2,0.4,0.8,0.9c0.3,0.3,0.1,0.1,0.1,0
							c0.6,0.6,0.8,0.8,1.2,1.1c-0.1,0,0.7,0.7,0.2,0.3c-0.2-0.2-1.1-1.1-1.4-1.3c0.2,0.3-0.5-0.5-0.7-0.6c0.5,0.5,0.4,0.5,0.4,0.7
							c0.1,0.1,0.3,0.3,0.4,0.3c0.1,0-0.1-0.2-0.1-0.2c0.5,0.6,1.1,1,1.5,1.3c0.2,0.2,0.1,0.2-0.1,0c0.3,0.3,0.7,0.6,1.1,0.9
							c0.4,0.3,0.7,0.6,1.1,0.9c-0.4-0.4,0.8,0.6,0.5,0.3c-0.4-0.3-0.7-0.6-0.4-0.4c0.2,0.2,0,0,0.1,0.1c0.3,0.2,0.4,0.4,0.8,0.5
							c-0.7-0.5-0.2,0-0.4-0.1c0.5,0.3,0,0,0.5,0.4c0.6,0.3,1.2,0.7,1.8,1c0.7,0.4,1.9,1,2.6,1.3c0.4,0.2,0.1,0.1,0.5,0.3
							c0.5,0.2-0.3-0.2,0.4,0.1l-0.1,0c0.2,0.1,1.3,0.5,1.5,0.5l-0.2,0c0.1,0.1,0.3,0.1,0.4,0.1c0,0,0.1,0.1-0.1,0
							c0.4,0.2,0.9,0.3,1.4,0.5c-0.1,0-0.2-0.1-0.3-0.1c0.9,0.2,1.4,0.4,2.2,0.6l0,0c0.2,0,0.3,0.1,0.5,0.1c-0.1,0,0.3,0.1,0.6,0.1
							c-0.4,0-0.9-0.1-1.3-0.2c-0.3-0.1,0.4,0,0.2-0.1c-0.2-0.1-0.9-0.3-1.1-0.3c0.3,0.1,0.3,0.1,0.5,0.1c0.1,0.1-0.4,0-0.6,0
							c0.2,0,0.4,0.1,0.4,0.1c-0.3,0-0.6-0.1-1.1-0.2c0.3,0.1-0.2-0.1,0-0.1c-0.1,0.1-0.5-0.1-1.1-0.3c-0.4-0.2-1.2-0.3-1.8-0.6
							c0.3,0.1,0.7,0.2,1.1,0.3c-0.4-0.2-0.5-0.2-0.9-0.4c-0.2,0-0.4-0.1-1-0.3l0,0c-0.5-0.2-0.5-0.1-1.2-0.4
							c-0.5-0.3-1.1-0.6-1.6-0.8c-0.5-0.3-0.9-0.6-1.3-0.8l0-0.1c-0.5-0.2-1.4-0.9-2-1.3c-0.9-0.7-2-1.6-2.4-2
							c-1.5-1.4-2.7-2.7-3.9-4.5l0.3,0.3c-0.3-0.3-0.1-0.2-0.3-0.5c0.2,0.4-0.3-0.4-0.5-0.6c-0.5-0.8-1.1-1.8-1.6-2.6l0,0
							c-0.2-0.4-0.4-0.8-0.7-1.2c-0.2-0.5-0.4-0.9-0.6-1.4c0-0.1-0.1-0.3-0.2-0.6c-0.3-0.5-0.4-0.8-0.7-1.6
							c-0.2-0.6-0.5-1.5-0.6-2.1c-0.7-2.2-1.1-4.5-1.5-6.9l0-0.2c-0.2-1.2-0.3-2.4-0.3-3.7c0.1-1.3,0.1-2.5,0.2-3.5l0.1,0.2
							c0.1-0.6,0.1-1.4,0.1-1.3c0.1-0.6,0.2-1.6,0.3-1.9c0.1-0.6,0.1-0.8,0.2-1.3c0.3-1.2,0.4-1.7,0.7-2.9l-0.1,0.3
							c0,0.1,0,0.2,0.1-0.1c0.1-0.4,0.5-1.6,0.3-1.2c0.2-0.6,0.5-1.3,0.8-2c0.3-0.7,0.6-1.4,0.9-1.9c-0.1,0.1,0.1-0.2,0.1-0.3
							c0.3-0.5,0.6-1,0.8-1.5c0.3-0.5,0.6-0.9,0.8-1.3c0.1-0.1-0.1,0.3,0.1-0.1c0.1-0.2,0,0,0.1-0.3c1-1.5,2.3-2.9,3.5-4.1
							c2.1-2.1,4.6-3.9,7.1-5.3l0,0c0.8-0.5,2-1,2.7-1.4c0.2-0.1,0.8-0.3,0.7-0.2c0.7-0.4,2-0.7,3-1.1c-0.1,0-0.1,0.1-0.3,0.1
							c1.1-0.3,2-0.6,3.1-0.9c-0.1,0-0.3,0.1-0.3,0.1c0.4-0.1,1-0.3,1.3-0.3c0.3-0.1,0.2-0.1,0,0c0.5-0.1,0.8-0.2,1.4-0.2
							c2.2,0.3,4.3,0.9,6.4,1.6c1.8,0.7,0.1,0.2,1.5,0.7c0.1,0.1,0.1,0,0.1,0c0.5,0.2,0.8,0.4,1.2,0.6c-0.1-0.1,0.3,0.1,0.3,0.1
							c1,0.5,1.2,0.7,2,1.1l-0.1,0c1,0.4,2,1.1,2.8,1.6c4.9,3.3,8.8,7.9,11,13.3c2.1,5.4,2.9,11.1,2.3,16.9
							c-0.2,1.3-0.2,1.4-0.5,2.9c0-0.1,0-0.2,0-0.1c0.1,0.1-0.2,1-0.2,1.2c-0.4,2.1-1,4-1.7,6.1c0.1-0.3,0.1-0.5,0-0.1
							c0,0.1-0.1,0.3-0.1,0.4l0,0.1c-0.1,0.3-0.2,0.6-0.1,0.3c-1.9,5.2-5.3,9.8-9.6,13.2c-1,0.8-2.6,1.8-3.8,2.5
							c-3.7,1.9-7.4,3-11.5,3.7C44.9,77.3,45.4,77.1,47.1,76.7z"/>
						<path fill="#808181" d="M43.6,76.9c-0.1-0.1-0.6-0.2-0.2-0.1C43.4,76.8,43.6,76.9,43.6,76.9z"/>
						<path fill="#808181" d="M31.9,72c0,0-0.1-0.1-0.2-0.1c0.1,0.1,0.3,0.1,0.4,0.2C31.9,72,31.9,72.1,31.9,72z"/>
						<path fill="#808181" d="M29.3,70.1c0.1,0,0.6,0.4,0.9,0.7L29.3,70.1z"/>
						<path fill="#808181" d="M27.1,67.9C27,67.7,27,67.8,27.3,68C27.3,68.1,27.2,68,27.1,67.9z"/>
						<path fill="#808181" d="M26.9,67.8c-0.2-0.2-0.2-0.3-0.3-0.4C26.6,67.5,27,67.8,26.9,67.8z"/>
						<path fill="#808181" d="M23.1,62.6c-0.1-0.1-0.3-0.4-0.3-0.6C22.8,62.1,23.2,62.6,23.1,62.6z"/>
						<path fill="#808181" d="M21.6,59.9c0-0.1-0.1-0.1-0.1-0.2C21.4,59.5,21.5,59.7,21.6,59.9L21.6,59.9z"/>
						<polygon fill="#808181" points="38.1,13.6 37.8,13.7 37.9,13.7 						"/>
						<path fill="#808181" d="M60.6,18.7c0.3,0.2,0.2,0.2,0.2,0.2C60.6,18.7,60.9,18.9,60.6,18.7z"/>
						<polygon fill="#808181" points="68.9,28.8 68.8,28.7 68.9,28.7 						"/>
					</g>
				</g>
			</g>
		</g>
	</g>
	<g>
		<path fill="#FAE8D5" d="M44.8,71.5c-22.8-3-22.9-28.8-22.9-28.8c0.9-23.2,22.9-25.4,22.9-25.4s22,2.2,22.9,25.4
			C67.7,42.7,67.6,68.5,44.8,71.5z"/>
		<g>
			<g>
				<g>
					<g>
						<path fill="#808181" d="M44.8,71.4c-0.1,0,0,0.1,0.2,0l0.1-0.1L44.8,71.4z"/>
						<path fill="#808181" d="M46.3,71.2c0.3-0.1,0.5-0.2,0.4-0.2c-0.2,0.1-0.3,0.1-0.6,0.2c-0.2,0-0.4,0-0.4,0
							c-0.1,0-0.3,0-0.5,0.1C45.6,71.4,46,71.3,46.3,71.2C46.4,71.2,46.4,71.2,46.3,71.2z"/>
						<path fill="#808181" d="M63.6,58.8l-0.1,0.1C63.5,58.9,63.6,58.8,63.6,58.8z"/>
						<path fill="#808181" d="M67.6,45.8c0,0.1,0,0.1,0,0.2C67.6,45.8,67.6,45.8,67.6,45.8z"/>
						<path fill="#808181" d="M67.9,43.5c0,0.1,0,0.1,0,0.1C67.9,43.5,67.9,43.5,67.9,43.5z"/>
						<path fill="#808181" d="M63.6,58.8c0.1-0.1,0.1-0.2,0.2-0.3C63.8,58.4,63.7,58.6,63.6,58.8z"/>
						<path fill="#808181" d="M49.2,70.4c-0.1,0-0.1,0.1-0.2,0.1L49.2,70.4L49.2,70.4z"/>
						<path fill="#808181" d="M60.2,63.8L60.2,63.8c-0.1,0.1-0.1,0.1-0.1,0.2L60.2,63.8z"/>
						<path fill="#808181" d="M56.8,66.9c0.1-0.1,0.1-0.1,0.1-0.2C56.9,66.8,56.8,66.9,56.8,66.9C56.8,66.9,56.8,66.9,56.8,66.9z"/>
						<path fill="#808181" d="M50.3,70.3l-0.1,0C50.2,70.3,50.3,70.3,50.3,70.3z"/>
						<path fill="#808181" d="M62.2,61.1C62.3,61.1,62.3,61.1,62.2,61.1C62.3,61.1,62.3,61.1,62.2,61.1z"/>
						<path fill="#808181" d="M39.7,70.1C39.7,70.1,39.7,70.1,39.7,70.1C39.7,70.1,39.8,70.1,39.7,70.1z"/>
						<path fill="#808181" d="M44.8,71.5L44.8,71.5C44.8,71.5,44.7,71.5,44.8,71.5L44.8,71.5z"/>
						<path fill="#808181" d="M67.7,39.2C67.7,39.2,67.7,39.2,67.7,39.2C67.7,39.3,67.7,39.2,67.7,39.2z"/>
						<path fill="#808181" d="M39.6,18.3c0.4-0.1-0.7,0.3,0,0.1C39.6,18.4,40.2,18.1,39.6,18.3z"/>
						<path fill="#808181" d="M49.4,70.4l0.2-0.1C49.5,70.3,49.4,70.3,49.4,70.4z"/>
						<path fill="#808181" d="M39.6,18.4L39.6,18.4L39.6,18.4C39.7,18.4,39.7,18.4,39.6,18.4z"/>
						<path fill="#808181" d="M64.6,29.8C64.6,29.8,64.6,29.9,64.6,29.8C64.6,29.9,64.6,29.9,64.6,29.8z"/>
						<path fill="#808181" d="M67.1,36.7l0-0.2C67.1,36.6,67.1,36.6,67.1,36.7z"/>
						<path fill="#808181" d="M62.3,26.7c-0.1-0.1-0.1-0.1-0.2-0.2l0,0C62.2,26.5,62.3,26.6,62.3,26.7z"/>
						<path fill="#808181" d="M59.6,23.8L59.6,23.8c0.1,0.1,0.1,0.1,0.1,0.1L59.6,23.8z"/>
						<path fill="#808181" d="M29.9,63.6c0,0.1,0.1,0.1,0.1,0.2C29.9,63.7,30.3,64.1,29.9,63.6z"/>
						<path fill="#808181" d="M49.3,70.4c0,0,0,0,0.1-0.1L49.3,70.4C49.2,70.4,49.2,70.4,49.3,70.4z"/>
						<path fill="#808181" d="M61.9,26.8c-0.1-0.2-0.3-0.3-0.4-0.5C61.6,26.5,61.8,26.6,61.9,26.8z"/>
						<path fill="#808181" d="M22.8,37.3l0,0.1C22.8,37.4,22.8,37.3,22.8,37.3z"/>
						<path fill="#808181" d="M60.2,25c-0.1-0.1-0.1-0.2-0.2-0.3c0,0,0,0-0.1,0L60.2,25z"/>
						<path fill="#808181" d="M30,63.8L30,63.8L30,63.8z"/>
						<path fill="#808181" d="M33,66.5c-0.5-0.4-0.3-0.1-0.4-0.2c-0.6-0.4-0.2-0.2-0.4-0.4c-0.4-0.3-0.7-0.4-0.9-0.7
							c0,0-0.1-0.1,0,0c-0.2-0.1-0.4-0.4-0.7-0.6c-0.3-0.3-0.5-0.5-0.7-0.7c0,0,0-0.1,0-0.1c0,0.1,0,0.1,0,0.1
							c-0.2-0.2-0.4-0.3-0.4-0.4c0.1,0.1,0.1,0.1,0.2,0.2l-0.2-0.2c-0.1-0.2,0.3,0.3,0.3,0.2c-0.4-0.4-0.8-0.9-1.1-1.2
							c0-0.1,0.6,0.7,0.3,0.3l0.4,0.5c-0.2-0.5,0.2,0.3,0-0.1c-0.5-0.7-0.6-0.7-1.1-1.4c-0.1-0.1,0,0.1-0.1,0
							c-0.8-0.9-0.4-0.9-1-1.6C27.1,60,27,60,26.7,59.4l0.2,0.1c-0.4-0.7-0.3-0.4-0.7-1.1c0.1,0.1,0.3,0.6,0.3,0.4
							c-0.2-0.5-0.2-0.3-0.4-0.7l0-0.1c-0.4-0.8-0.9-1.6-1.2-2.5c0,0,0.1,0.2,0.1,0c-0.5-1.1-0.9-2.5-1.2-3.6l-0.2-0.4
							c0-0.1,0-0.2,0-0.1c-0.1-0.4,0,0-0.1-0.2c-0.1-0.3-0.1-0.3,0-0.2c-0.3-0.8-0.6-2.2-0.7-3.1l0,0.2c-0.1-0.7-0.2-0.7-0.3-1.3
							l0,0.1c-0.2-1.4-0.4-3-0.3-4.1c-0.1-0.2,0.1-1.4,0-1.5c0.1-0.8,0.1-0.6,0.3-1.7c0-0.3,0-0.5,0-0.9l0.1,0l0-0.5l0.1-0.3
							l0.1-0.4c0,0.1-0.1,0.3-0.1,0.3c0.1-0.6,0.3-1.3,0.4-1.3l0.3-1.3c0,0,0,0.3-0.1,0.4c0.1-0.7,0.1-0.1,0.2-0.7
							c0,0.1,0-0.1,0-0.1c0.1-0.3,0.4-1,0.5-1.5l0,0.1c0.2-0.5,0.4-0.9,0.6-1.4c0.2-0.5,0.5-1,0.7-1.5c-0.2,0.3-0.2,0.2-0.1-0.1
							l0.1-0.1c0.1-0.2-0.2,0.3,0-0.1c0.2-0.4,0.2-0.2,0.1,0l0.2-0.4c0,0,0,0.1,0,0.1c0.1-0.2,0.5-0.7,0.6-1l0,0
							c0.6-0.9,0.9-1.3,1.5-2c0-0.1,0.2-0.3,0.3-0.5c0.4-0.5,1-1,1.5-1.6c0.4-0.4,0.1-0.1,0.3-0.3c0.1,0,0.7-0.5,0.4-0.2
							c0.7-0.6,0.9-0.8,1.9-1.6c-0.1,0.1-0.2,0.1-0.2,0.1c0.2-0.1,0.4-0.3,0.4-0.2l0,0c1.1-0.9,2.7-1.6,3.6-2.1l-0.1,0l1-0.5
							c0.5-0.2-0.3,0.2,0.1,0c1.1-0.6,1.8-0.7,2.7-1.1c0.8-0.1,2.6-0.8,3.7-0.9l-0.1,0c0.3-0.1,0.3,0,0.5-0.1c0,0-0.3,0-0.1,0
							c0.4-0.1,0.8-0.2,1.2-0.2c1.8,0.2,3.8,0.8,5.6,1.5c0.8,0.3,0.5,0,1.5,0.5l-0.3-0.1c1.6,0.6,3.2,1.5,4.7,2.3
							c-0.1,0-0.1,0-0.2-0.1c0.1,0.1,0.4,0.3,0.7,0.4c0.2,0.1,0.4,0.3,0.5,0.3c0.2,0.2,0,0.1,0.1,0.2c0.3,0.2,0.8,0.5,0.9,0.6
							c0,0-0.1-0.1-0.1-0.1c0.2,0.1,0.8,0.7,0.7,0.5c0.5,0.4,0.9,0.8,1.3,1.1c0.3,0.2,0.7,0.8,0.9,0.8c-0.1,0,0.7,0.9,1,1.2
							c-0.1-0.1,0.2,0.3,0.1,0.2c0.3,0.4,0.6,0.7,0.5,0.6c0.4,0.7,1,1.3,1.2,1.8c0.4,0.6,0.7,1.1,1,1.7c0.1,0.3,0.3,0.6,0.4,0.8
							c0.1,0.3,0.2,0.6,0.4,0.8c-0.1,0-0.5-1.2-0.6-1.1c0.5,1,0.9,1.6,1.2,2.7c0.1,0.3-0.1-0.1-0.1-0.2c0.4,1.1,0.6,2.1,0.9,3.1
							c0,0,0-0.1-0.1-0.2c0,0.2,0.1,0.5,0.1,0.4l0-0.2c0-0.3,0.3,0.8,0.3,0.8c-0.2-0.3,0.2,1-0.1,0.5c0,0.1,0.1,0.3,0.1,0.3
							c0,0.2,0,0.3,0,0.1c0.1,0.7,0.1,0.5,0.2,1.1c0,0,0-0.1-0.1-0.2c0.1,0.3,0.2,0.7,0.2,1.2c0,0,0,0,0-0.1c0,0.5,0.1,0.9,0.1,1.3
							c0.1,0.4,0.1,0.8,0,1.4c-0.1-0.3,0,0.4-0.1,0.4l0,0.6l0.1-0.2c0,0.5,0,0.9-0.1,1.4l0-0.4l-0.1,0.9l0.1-0.5c0,0.5,0.1,0,0,0.6
							c0-0.1-0.1,0.5-0.2,0.7l0,0c0,0.2,0,0.5-0.1,0.9c0,0.1-0.1-0.1-0.1,0c0,0.2-0.2,1.1-0.2,1.5c0-0.1,0-0.1,0-0.1l0,0.2
							c-0.1,0.2-0.1,0.3-0.1,0.2c-0.2,0.7,0.1-0.2-0.1,0.6c0-0.1,0,0,0-0.2c-0.2,0.8-0.4,1.6-0.6,2.3c-0.1,0.2,0.2-0.6,0-0.4
							c-0.3,1.1-0.6,2.2-1,3.2l0.1-0.2c0,0.2-0.3,0.7-0.5,1.2c0-0.1,0-0.2,0-0.1c-0.3,0.7-0.6,1.4-1,2.4l0-0.1
							c-0.2,0.4-0.6,1-0.8,1.4c0,0.1-0.2,0.4-0.1,0.2c-0.9,1.1-1.4,2.3-2.3,3.2c0.1-0.1,0.2-0.3,0.1-0.2c-0.2,0.3-0.4,0.6-0.7,0.8
							c0.1,0,0.1-0.1,0.3-0.2c-0.1,0.1-0.3,0.4-0.4,0.6c0.3-0.4-0.1,0-0.2,0.1c0,0,0,0,0,0c-0.4,0.4,0,0.1-0.6,0.7l0,0
							c-0.2,0.2-0.4,0.4-0.6,0.6c-0.1,0,0.2-0.2,0.2-0.3c-0.3,0.3-0.5,0.7-0.9,0.9c0.1-0.1,0.3-0.3,0.5-0.4
							c-0.3,0.3-0.4,0.3-0.6,0.5l0,0L57,66.4l0.2-0.1c-0.3,0.5-0.9,0.7-1.4,1.2c0.5-0.5,0.1-0.1,0.1-0.2c-0.2,0.1-0.4,0.2-0.3,0.2
							c-0.3,0.2-0.5,0.3-0.9,0.6c0,0-0.3,0.2-0.3,0.1c-0.4,0.2,0.1,0,0.1,0c-0.6,0.4-1.5,0.7-2.3,1.2c-0.8,0.4-0.9,0.5-1.6,0.8
							c-0.3,0.1,0.2-0.1,0.2-0.1c-0.4,0.1-0.7,0.2-1.1,0.4c0.1,0,0,0-0.1,0c-0.3,0.1-0.2,0.1-0.6,0.2c0.1,0,0.1-0.1,0.3-0.2
							c-0.4,0.1-0.7,0.2-1.1,0.4c-0.1,0,0.2-0.1,0.4-0.2c-0.4,0.1-1.1,0.3-1.3,0.4l0.3,0c-0.2,0-0.1,0,0-0.1
							c0.4-0.1,0.5-0.1,0.6-0.1l-0.3,0.1c0.3,0,1.1-0.3,1.7-0.5l-0.2,0.2l0.5-0.2c0.1,0,0.2,0,0,0.1c0.4-0.1,0.3-0.1,0.7-0.2
							c0,0,0,0,0,0l0.4-0.1c-0.1,0,0.1,0-0.2,0.1c0.7-0.2,1.1-0.5,1.3-0.5l-0.1,0c0.9-0.4,0.1-0.1,0.7-0.5l0.5-0.1l0.1-0.1
							c0.1,0,0.3-0.1,0.3-0.1c0.3-0.2-0.1,0,0.1-0.1c0.5-0.2,1.2-0.7,1.3-0.7c0.1-0.1-0.4,0.2,0-0.1c0.2,0,0.5-0.3,0.9-0.6
							c-0.1,0.1-0.5,0.4-0.1,0.1c0.2-0.2,0.7-0.5,1-0.7c0-0.1,0.6-0.6,1.1-1c0,0.1,0.9-0.8,1.4-1.2l0,0c0-0.1,0.5-0.6,0.8-0.9
							c0,0,0,0.1-0.2,0.3l0.3-0.3c0-0.1,0.1-0.2,0.3-0.4l0,0.1c0.3-0.4,0.7-0.9,1.1-1.5c0-0.1-0.5,0.4,0-0.3c0,0,0.1,0,0,0.2
							c0-0.1,0.1-0.2,0.2-0.3l-0.1,0.3c0.2-0.3,0.1-0.2,0.2-0.4c0,0,0.1-0.1,0.1-0.1c0,0.1-0.1,0.2-0.2,0.3c0.2-0.2,0.4-0.5,0.5-0.6
							c0,0,0,0,0.1-0.2c0.3-0.5,0.1-0.1,0.3-0.4c0.1-0.1,0.3-0.4,0.2-0.5c0.1-0.1,0.1-0.2,0.2-0.2c0.1-0.3,0.7-1.2,0.5-0.9l0,0.1
							l0,0l0,0l0,0c0.4-0.9,0.9-1.8,1.3-2.6l0,0c0.2-0.5,0.5-1.2,0.6-1.6c0.1-0.2,0.2-0.4,0.2-0.3c0.1-0.4,0.1-0.5,0.4-1.1
							c-0.1,0.4,0.1-0.1-0.1,0.4c0.2-0.5,0.3-0.6,0.4-1.2c0,0.2,0.2-0.4,0.2-0.7l-0.1,0.4c0.1-0.3,0.2-0.5,0.2-0.8l0,0.2
							c0.4-1.1,0.4-2.1,0.7-2.9c0-0.3-0.2,0.6-0.2,0.3c0.1-0.5,0.3-1,0.3-1.2c0.2-0.7,0-0.7,0.2-1.4c0,0.1-0.1,0.2-0.1-0.4
							c0.1-0.5,0.2-0.6,0.2-0.3c0,0.1,0,0.2,0,0.2c0,0.2,0,0.4,0,0.2l0-0.1c0.1-0.3,0.1-1,0.2-0.8c0-0.4,0-0.2-0.1,0.1
							c0.1-0.7,0.1-1.1,0.2-1.8c0,0.1-0.1,0.2,0,0.1c0.1-1,0-0.5,0-1.2c0-0.4,0.1,0.1,0-0.6c0-0.4,0.1-0.1,0.1,0.1
							c-0.1-0.6,0-1.2-0.1-1.6c0,0.1,0,0.2,0,0.3c0-0.2,0-0.4-0.1-0.5l0,0.2c0-0.2,0-0.4,0-0.4c-0.1-0.2-0.1,0.2-0.2-0.2
							c0-0.3-0.1-0.8-0.1-0.9c0.1,0.8,0.1-0.1,0.2,0.6c0-0.1,0-0.3-0.1-0.5c0,0,0,0,0,0.1c-0.1-0.8-0.1-0.4-0.3-1.2
							c0.1,0.1,0-0.2,0-0.3c0.1,0.3,0,0.2-0.1-0.1c-0.1-0.5-0.1-0.6-0.2-0.8l0,0.3c-0.1-0.1-0.1-0.4-0.2-0.7c0,0,0.1,0.3,0.1,0.2
							c-0.2-0.4-0.2-0.9-0.4-1.5c0-0.3,0.1,0,0-0.3c-0.2-0.6-0.2-0.7-0.4-1.3c0,0.2,0,0.2-0.2-0.2l0.4,1l-0.3-0.7
							c0.1,0.3,0.3,0.7,0.3,0.9c-0.1-0.3-0.1-0.3-0.1-0.1c-0.1-0.5-0.3-0.8-0.5-1.4l0.1,0c-0.3-0.8-0.6-1.3-1-2.2l0.1,0.3
							c-0.1-0.1-0.3-0.6-0.5-0.9c0.1,0,0-0.2-0.1-0.3c0,0-0.4-0.7-0.5-0.7c-0.1-0.1-0.1-0.3-0.2-0.4c-0.5-0.7-0.6-0.7-1.1-1.4
							c0.2,0.2,0-0.1,0.3,0.3c-0.2-0.2-0.3-0.4-0.3-0.4c-0.1-0.1-0.5-0.6-0.6-0.8c-0.1-0.1-0.1-0.1-0.3-0.3c0,0,0,0,0,0
							c0,0-0.3-0.3-0.2-0.1c-0.4-0.7-1.6-1.7-2.1-2.2c-0.4-0.4-1-0.8-1.4-1.1c0,0,0,0,0.1,0.1c-0.6-0.5-0.4-0.2-1.1-0.7
							c-0.3-0.3,0.4,0.2,0.2,0.1c0-0.2-0.8-0.6-1.3-0.9l0.1,0.1c-0.3-0.3-0.9-0.5-1.5-0.8c0,0,0,0,0,0c-0.4-0.2-1.3-0.6-1.9-0.8
							c0.2,0,0.3,0.1,0.2,0c-0.3-0.1,0,0.1-0.5-0.1c-0.2-0.1-0.6-0.3-0.6-0.4l0.5,0.2c-0.2-0.2-0.7-0.3-1-0.4l0,0
							c-0.8-0.3-0.9-0.2-1.7-0.5l0.1,0.1c-0.5-0.1-0.4-0.2-0.9-0.3L48.9,18c-0.3-0.1-1.2-0.3-1.7-0.4c0.3,0,1,0.2,1.5,0.3
							c-0.3-0.1-1.1-0.3-1.3-0.3c0.1,0,0.3,0,0.4,0.1c-0.4,0-0.9-0.1-1.6-0.3c0.1-0.1-0.6-0.2-1.4-0.3c-0.4,0-0.7,0.1-0.9,0.1
							c-1.2,0.3-2.3,0.4-3.6,0.9c0.5,0-0.4,0.1-0.3,0.2c-0.3,0.1-0.4,0.1-0.4,0.1l-0.9,0.3c-0.2,0,0.3-0.1,0.2-0.1
							c-0.7,0.2-0.3,0.1-0.7,0.2c0.1,0-0.2,0.1-0.6,0.3c0.2-0.1,0.4-0.1,0.5-0.2c-0.9,0.4-0.8,0.2-1.7,0.7l0.3-0.2
							c-0.5,0.2-1.7,0.8-2.1,1.2c-0.1,0-0.2,0.1,0-0.1c-1.1,0.6-2.2,1.5-3,2l0.1-0.1c-0.2,0.1-0.3,0.3-0.5,0.4c0,0,0.1-0.1,0,0
							c-0.1,0.1-0.4,0.4-0.7,0.6l0.2-0.2c-0.9,0.7-1.3,1.3-2,2c-0.1-0.1-0.7,0.6-1,1l0,0c-0.9,1.1-1.4,1.9-2,3
							c-0.5,0.6-1.4,2.3-1.9,3.5c0.1-0.2,0.1,0.1,0,0.3c-0.1,0.3-0.2,0.8-0.3,0.7l0-0.1c-0.1,0.2-0.3,0.8-0.5,1.2l0.1,0.1
							c-0.2,0.6-0.5,1.4-0.6,2.1c-0.1,0.7-0.3,1.4-0.4,1.7c0,0.3-0.1,0.7-0.1,1l-0.1,0c-0.1,0.8-0.2,1.2-0.2,2.3l0-0.2
							c0,0.6,0.1,0.7,0.1,1.3l-0.1,0.2c0,1,0.1,2.1,0.3,3c0,0,0,0-0.1-0.2c0.1,0.5,0.2,1.8,0.3,1.7c-0.1,0,0.2,1,0.3,1.6l-0.1-0.1
							c0.2,0.4,0.2,0.5,0.4,1.1c0,0.2,0,0.1,0-0.1c0.1,0.5,0.1,0.4,0.3,1L23,50.9c0.1,0.5,0.1,0.5,0.3,0.7c0.1,0.3,0.3,1,0.2,1
							c0.1,0.1,0.2,0.3,0.3,0.6c0,0-0.1-0.1-0.1-0.1c0.2,0.8,0.5,1.2,0.6,1.8c0,0,0,0.1,0,0.1c-0.3-0.6-0.4-1.2-0.4-1.1
							c0,0,0.1,0.6-0.1,0.2c0.2,0.4,0.5,1.1,0.7,1.6c0,0,0,0.1,0,0.1l0-0.1c0,0.1,0.1,0.2,0.1,0.3c0.1,0.2,0.1,0.3,0.2,0.4
							c0,0.1,0.2,0.6,0.4,0.9c0,0,0.2,0.3,0.1,0c0,0,0,0-0.1-0.2c0,0,0-0.1-0.1-0.1l0,0c-0.1-0.2-0.2-0.4-0.3-0.6
							c0.1,0.2,0.2,0.4,0.3,0.7c0.1,0.1,0.2,0.3,0.2,0.3c0.1,0.4,0.4,1.1,0.4,1.2c0.4,0.7,1,1.8,1.4,2.1c0.1,0.2,0.1,0.3,0.2,0.3
							c-0.1-0.1-0.2-0.3-0.2-0.3c0.3,0.4,0.8,1.2,1,1.2c0.3,0.5-0.3-0.2,0.2,0.4l-0.1-0.1c1,1.4,1.8,2,3.1,3.3
							c-0.1-0.1-0.1-0.1-0.1-0.2c1.5,1.5,3.4,2.6,5.2,3.6c0.5,0.3,0.6,0.3,0.9,0.4l0.1,0.1l0.6,0.2c0.8,0.3,1.4,0.7,2.4,0.9
							l-0.1-0.1c0.4,0.2,1.2,0.3,1.1,0.3c0,0,0.1,0,0.3,0l0,0c0.3,0.1,0.6,0.1,1,0.2c0.7,0.1-0.1,0.1,0.9,0.3c0.4,0.1,1.2,0.1,1,0.1
							c-0.2,0-0.4-0.1-0.4-0.1l0.4,0c0.1-0.1,0.4-0.1-0.5-0.3l-0.6,0L43.4,71l0.5,0.1C43.7,71,43.5,71,43.2,71c0,0-0.1-0.1-0.3-0.1
							c-0.2,0-0.4,0-0.6,0c-0.1-0.1,0.3,0-0.1-0.1c-0.3,0,0.3,0.1-0.2,0.1c-0.3-0.1-0.2-0.1-0.5-0.2c0,0,0,0,0.2,0
							c-0.3-0.1-0.8-0.2-1-0.2c-0.3-0.1-1-0.3-1-0.4c-0.1,0-0.6-0.1-0.8-0.2c0.5,0.1-1-0.4-0.8-0.5c-0.4,0-1.3-0.5-1.9-0.8
							c0,0,0.1,0,0.2,0.1c-0.3-0.2-0.4-0.3-0.6-0.4c-0.1,0-0.6-0.3-0.9-0.4c-0.4-0.3,0.3,0.1,0.2-0.1c0,0.1-0.7-0.4-0.6-0.3
							c-0.3-0.3-0.2-0.2-0.4-0.4c-0.1,0-0.3-0.2-0.6-0.3c-0.4-0.3-0.1-0.1-0.5-0.5C32.6,66.2,33,66.5,33,66.5z M24.8,55.5L24.8,55.5
							c0,0.1,0.1,0.2,0.1,0.3C24.9,55.7,24.9,55.7,24.8,55.5z M24.4,54.4c0,0.1,0.1,0.3,0.2,0.5c0,0,0,0-0.1-0.1
							C24.5,54.9,24.4,54.6,24.4,54.4z M25,56.9c-0.1-0.2-0.1-0.2-0.1-0.3C24.9,56.7,25,56.8,25,56.9L25,56.9
							C25,56.9,25,56.9,25,56.9z"/>
						<path fill="#808181" d="M25.2,57.2C25.2,57.2,25.2,57.2,25.2,57.2C25.2,57.2,25.2,57.1,25.2,57.2L25.2,57.2
							C25.2,57.1,25.2,57.1,25.2,57.2z"/>
						<path fill="#808181" d="M63.5,58.9L63.5,58.9L63.5,58.9C63.5,58.9,63.5,58.9,63.5,58.9z"/>
						<polygon fill="#808181" points="22.6,38.6 22.6,38.6 22.6,38.7 						"/>
						<path fill="#808181" d="M59.6,64.1C59.6,64.1,59.6,64.1,59.6,64.1C59.5,64.1,59.6,64.1,59.6,64.1z"/>
						<path fill="#808181" d="M57.6,66l-0.3,0.2C57.4,66.1,57.5,66,57.6,66z"/>
						<path fill="#808181" d="M55.9,67.2C55.8,67.3,55.8,67.3,55.9,67.2L55.9,67.2L55.9,67.2z"/>
						<path fill="#808181" d="M66.8,36.9L66.8,36.9C66.7,36.7,66.8,36.8,66.8,36.9z"/>
						<path fill="#808181" d="M67.3,47l0-0.3C67.3,46.8,67.2,46.9,67.3,47z"/>
						<polygon fill="#808181" points="61.9,26.9 61.9,26.9 61.9,26.8 						"/>
						<path fill="#808181" d="M67.3,46.2c0,0.2-0.1,0.3-0.1,0.5C67.3,46.5,67.3,46.3,67.3,46.2z"/>
						<path fill="#808181" d="M47.4,70.9l-0.1,0c0,0,0,0,0,0L47.4,70.9z"/>
						<path fill="#808181" d="M47.3,70.9l-0.1,0C47.2,70.9,47.3,70.9,47.3,70.9z"/>
						<path fill="#808181" d="M46.9,71l0.2-0.1C47.1,70.9,47,71,46.9,71z"/>
						<path fill="#808181" d="M50.1,70.1L50.1,70.1C50.1,70.1,50.1,70.1,50.1,70.1z"/>
						<path fill="#808181" d="M50.9,69.8c-0.2,0.1-0.5,0.1-0.8,0.2l0,0C50.3,70,50.8,69.9,50.9,69.8z"/>
						<path fill="#808181" d="M54.3,68.5c-0.2,0.1-0.4,0.2-0.6,0.3c0.1,0,0.3-0.1,0,0.1C54.5,68.6,53.5,69,54.3,68.5z"/>
						<path fill="#808181" d="M56.2,67.3C55.9,67.6,56.2,67.3,56.2,67.3C56.4,67.2,56.5,67.2,56.2,67.3z"/>
						<path fill="#808181" d="M65.6,54.3L65.6,54.3C65.7,54.1,65.6,54.3,65.6,54.3z"/>
						<polygon fill="#808181" points="66.3,51.3 66.2,51.5 66.2,51.7 						"/>
						<polygon fill="#808181" points="67.1,49.6 67.1,49.7 67.2,49.2 						"/>
						<path fill="#808181" d="M60.2,24.2l0,0.1C60.3,24.5,60.4,24.5,60.2,24.2z"/>
						<path fill="#808181" d="M50,18.4c-0.1-0.1-0.4-0.2-0.6-0.2C49.6,18.2,49.8,18.3,50,18.4z"/>
						<polygon fill="#808181" points="22.8,35.4 22.8,35.2 22.8,35.6 						"/>
					</g>
				</g>
			</g>
		</g>
	</g>
	<g>
		<path fill="#F4DDA3" d="M46.9,28c-0.3-0.9-0.5-1.9-0.3-2.8c0.2-0.9,1.2-1.8,2.1-1.6c-0.3-0.9,1-1.5,2-1.6c1.1-0.1,2.3-0.2,3.3,0.4
			s1.4,2.1,0.5,2.8c1.8,0.4,3.5,1.4,4.4,3c1,1.6,1,3.7-0.2,5.1c2.9,1.4,4.4,3.8,5,6.9c0.6,3.2-0.4,7-3.7,7.2c2.4,2.5,3,4.7,2.1,8.1
			c-0.4,1.6-1.5,3.9-2.9,4.8c-1.4,0.8-3.6,1.5-4.3,0c-0.1,2.2-0.7,2.9-2,3.7c-1.2,0.7-2.7,1.9-3.5,0.7c-0.1,1-0.9,1.8-1.9,1.9
			c-1,0.1-2-0.7-2.2-1.6c-0.1-0.7,0.1-1.3,0.1-2c0.1-1.4-0.6-2.7-0.7-4.1c-0.1-1.4,0.9-3.1,2.3-2.8c-1.9-1.8-1.8-5.1,0.2-6.8
			c-1.5-0.8-1.9-3.2-0.8-4.5c0.3-0.3,0.6-0.6,0.7-1c0.1-0.5-0.2-0.9-0.5-1.3c-0.7-1-1.3-2.2-1.2-3.4c0.1-1.2,0.9-2.5,2.2-2.6
			c-2.5-2.2-2.7-6.5-0.4-8.9"/>
		<g>
			<g>
				<g>
					<g>
						<path fill="#808181" d="M47.4,27.8c0-0.1,0-0.1-0.1,0.1l0,0.1L47.4,27.8z"/>
						<path fill="#808181" d="M46.7,28.7c-0.1,0.2-0.1,0.4,0,0.3c0-0.2,0.1-0.2,0.1-0.5c0.1-0.2,0.2-0.2,0.2-0.2
							c0-0.1,0.2-0.2,0.2-0.3C47,28.2,46.8,28.4,46.7,28.7C46.6,28.7,46.7,28.7,46.7,28.7z"/>
						<path fill="#808181" d="M47.3,43.6l0-0.1C47.3,43.5,47.3,43.6,47.3,43.6z"/>
						<path fill="#808181" d="M45.8,52.8c0-0.1,0-0.1,0-0.1C45.8,52.8,45.8,52.9,45.8,52.8z"/>
						<path fill="#808181" d="M46,54.7c0,0,0-0.1,0-0.1C46,54.6,46,54.7,46,54.7z"/>
						<path fill="#808181" d="M47.3,43.6c0,0.1,0,0.2,0,0.3C47.3,43.9,47.3,43.7,47.3,43.6z"/>
						<path fill="#808181" d="M46,30.9c0-0.1,0-0.1,0-0.2L46,30.9L46,30.9z"/>
						<path fill="#808181" d="M45.4,39.3L45.4,39.3c0-0.1,0-0.1,0-0.2L45.4,39.3z"/>
						<path fill="#808181" d="M47.4,36.5C47.3,36.5,47.4,36.6,47.4,36.5C47.4,36.6,47.4,36.6,47.4,36.5
							C47.4,36.6,47.4,36.5,47.4,36.5z"/>
						<path fill="#808181" d="M45.7,31.7c0,0,0-0.1,0-0.1C45.7,31.6,45.7,31.6,45.7,31.7z"/>
						<path fill="#808181" d="M46.2,41.9C46.2,41.9,46.2,41.9,46.2,41.9C46.2,41.9,46.2,41.9,46.2,41.9z"/>
						<path fill="#808181" d="M47.5,24.3L47.5,24.3C47.5,24.3,47.5,24.3,47.5,24.3z"/>
						<path fill="#808181" d="M46.9,28L46.9,28C46.9,27.9,46.9,27.9,46.9,28L46.9,28z"/>
						<path fill="#808181" d="M45.7,56.4L45.7,56.4C45.8,56.3,45.7,56.4,45.7,56.4z"/>
						<path fill="#808181" d="M61.3,58.7C61.1,59,61.5,58.2,61.3,58.7C61.3,58.6,61,59,61.3,58.7z"/>
						<path fill="#808181" d="M46,31c0,0,0,0.1,0,0.1C46,31.1,46,31,46,31z"/>
						<path fill="#808181" d="M61.2,58.6L61.2,58.6L61.2,58.6C61.2,58.6,61.2,58.6,61.2,58.6z"/>
						<path fill="#808181" d="M45.3,63.9C45.3,63.9,45.3,63.8,45.3,63.9C45.3,63.8,45.3,63.8,45.3,63.9z"/>
						<path fill="#808181" d="M44.8,58.3l0,0.1C44.8,58.4,44.8,58.3,44.8,58.3z"/>
						<path fill="#808181" d="M46.5,66.6c0.1,0,0.1,0.1,0.2,0.1l0,0C46.6,66.7,46.6,66.7,46.5,66.6z"/>
						<path fill="#808181" d="M49.4,65.9L49.4,65.9c-0.1,0.1-0.1,0.1-0.1,0.1C49.3,65.9,49.4,65.9,49.4,65.9z"/>
						<path fill="#808181" d="M54.8,23.7c0-0.1,0-0.1,0-0.1C54.7,23.6,54.6,23.2,54.8,23.7z"/>
						<path fill="#808181" d="M46,30.9C46,30.9,46,30.9,46,30.9L46,30.9C46,30.9,46,30.9,46,30.9z"/>
						<path fill="#808181" d="M46.8,66.3c0.1,0.1,0.3,0.1,0.4,0.1C47.1,66.4,46.9,66.3,46.8,66.3z"/>
						<path fill="#808181" d="M63.7,40.8l0-0.1C63.7,40.7,63.7,40.8,63.7,40.8z"/>
						<path fill="#808181" d="M48.4,66.2c0.1,0,0.2-0.1,0.2-0.1c0,0,0,0,0,0C48.6,66.1,48.5,66.2,48.4,66.2z"/>
						<path fill="#808181" d="M54.8,23.6L54.8,23.6L54.8,23.6z"/>
						<path fill="#808181" d="M52.3,22.3c0.4,0,0.2-0.1,0.3-0.1c0.5,0,0.2,0.1,0.4,0.2c0.3,0,0.6,0.1,0.8,0.2c0,0,0,0,0,0
							c0.3,0.1,0.8,0.6,1,0.9c0,0,0,0,0,0.1c0-0.1,0-0.1,0.1-0.1c0.1,0.2,0.2,0.3,0.1,0.4c0-0.1,0-0.1-0.1-0.2
							c0,0.1,0.1,0.1,0.1,0.2c0,0.2-0.1-0.3-0.1-0.3c0.1,0.4,0.2,0.9,0,1.1c0,0,0.2-0.7,0-0.3c0-0.1,0-0.3,0-0.4
							c-0.1,0.4,0-0.3-0.1,0.1c0,0.3,0,0.4-0.1,0.5c0,0,0,0.1,0,0.1c0,0,0,0-0.1,0.1c-0.1,0.2-0.3,0.3-0.5,0.5c0,0,0.1,0,0.2,0.1
							c0.3,0,0-0.1,0.3,0c0.2,0,0.3,0.1,0.5,0.1c0.1,0,0.1,0,0.2,0.1c0.1,0.1,0.2,0.1,0.2,0.1c0.1,0.1,0.2,0.2,0.5,0.3
							c0.2,0,0.3,0,0.7,0.3l-0.2,0c0.5,0.3,0.4,0.1,0.9,0.5c-0.1-0.1-0.4-0.3-0.3-0.2c0.3,0.3,0.3,0.1,0.5,0.3l0,0.1
							c0.5,0.4,1,0.9,1.4,1.6c0,0-0.1-0.1-0.1,0c0.5,0.8,0.6,1.9,0.5,2.7c0,0.1,0,0.2,0,0.3c0,0.1-0.1,0.1,0,0.1c-0.1,0.3,0,0,0,0.2
							c-0.1,0.2-0.1,0.2-0.1,0.1c0,0.1-0.1,0.3-0.2,0.5c0,0.1-0.1,0.2-0.1,0.3C59,32.9,59,33,58.8,33.1l-0.2,0.2l-0.1,0.1
							c0,0,0.1,0,0.1,0.1c0.1,0.1,0.3,0.2,0.4,0.2c0.2,0.1,0.3,0.2,0.5,0.3L59.5,34c0.4,0.3,0.6,0.2,0.9,0.5l-0.1,0
							c0.9,0.7,1.7,1.6,2,2.4c0.2,0.1,0.5,1,0.6,1c0.2,0.6,0.1,0.4,0.3,1.3c0.1,0.2,0.2,0.3,0.2,0.6l-0.1,0l0.1,0.4l0,0.2l0.1,0.3
							c0-0.1,0-0.2,0-0.2c0.1,0.4,0.1,1,0,1.1c0,0.3,0.1,0.7,0,1c0,0,0-0.2,0-0.3c0,0.5-0.1,0.1,0,0.6c0-0.1,0,0,0,0.1
							c-0.1,0.3-0.2,0.8-0.2,1.2l0-0.1c-0.2,0.7-0.5,1.5-1,2.1c0.2-0.2,0.2-0.1,0.1,0.1l-0.1,0c-0.1,0.1,0.2-0.2,0,0.1
							c-0.2,0.2-0.2,0.1-0.1,0l-0.3,0.3c0,0,0-0.1,0-0.1c-0.1,0.1-0.5,0.3-0.7,0.5l0,0c-0.2,0.1-0.3,0.2-0.5,0.2
							c-0.1,0-0.1,0-0.2,0.1c0,0-0.3,0-0.4,0.1L60,47.3l-0.2,0c0,0-0.2,0-0.1,0.1c0.2,0.2,0.4,0.4,0.6,0.6c0,0,0.2,0.1,0.2,0.2
							c0.1,0.1,0.2,0.2,0.2,0.2c0.3,0.4,0.6,0.9,0.9,1.4c0.2,0.4,0.1,0.1,0.2,0.2c0,0,0.2,0.6,0.1,0.3c0.3,0.7,0.4,0.9,0.5,1.8
							c0-0.1,0-0.2,0-0.2c0,0.2,0,0.4,0,0.4l0,0c0.2,1-0.3,2.4-0.4,3.2l0,0c-0.1,0.3-0.1,0.6-0.2,0.8c-0.1,0.4,0-0.2-0.1,0
							c-0.2,0.9-0.6,1.4-0.9,2.1c-0.2,0.2-0.5,0.7-0.8,1.1c-0.3,0.4-0.8,0.7-1.2,0.9l0.1,0c-0.2,0.1-0.2,0.1-0.4,0.2
							c0,0,0.2-0.1,0.1,0c-0.6,0.3-1.2,0.5-1.8,0.5c-0.3,0-0.6,0-0.9-0.1c-0.1,0-0.1-0.1-0.2-0.1c-0.1,0-0.1-0.1-0.2-0.2
							c-0.2-0.3-0.5-0.8-0.7-1.2c0,0.1,0,0.4-0.1,0.6l-0.1,0.7c0,0.3-0.1,0.4-0.1,0.5c0,0.1-0.1,0.2-0.1,0.4
							c-0.2,0.6,0.1,0.4-0.3,1.1c0-0.1,0-0.1,0.1-0.2c-0.3,0.6-0.8,1-1.4,1.3c-0.6,0.4-1.2,0.7-1.7,1c0.1,0,0.1-0.1,0.2-0.1
							c-0.3,0.1-0.9,0.3-0.9,0.3c-0.2,0,0,0-0.1-0.1c-0.1,0-0.2,0-0.3-0.1c-0.2-0.2-0.4-0.4-0.5-0.6c0-0.1,0.1,0.1,0.2,0.2
							c-0.1-0.1-0.2-0.2-0.4-0.4c0,0.3-0.1,0.5-0.1,0.7c0,0.2,0,0.2,0,0.2c-0.1,0.2-0.1,0.3-0.1,0.4c0,0.1-0.1,0.2-0.2,0.3
							c-0.1,0.2-0.2,0.3-0.4,0.4c-0.1,0.2-0.7,0.3-0.7,0.4c0,0-0.2,0-0.4,0c-0.2,0-0.5-0.1-0.6-0.1c0.1,0-0.2-0.1-0.1-0.1
							c-0.3-0.1-0.5-0.3-0.5-0.3c-0.4-0.5-0.7-1-0.5-1.4c0-0.5,0.1-1,0.1-1.5c0-0.5-0.1-1-0.2-1.5c0.1,0,0.2,1.1,0.3,1
							c-0.1-1-0.4-1.4-0.5-2.3c0-0.2,0.1,0.1,0.1,0.2c-0.2-0.9-0.4-1.7-0.2-2.4c0,0,0,0.1,0,0.2c0-0.1,0.1-0.3,0.1-0.3
							c0,0,0,0.1,0,0.1c-0.1,0.2,0.1-0.6,0.1-0.6c0,0.3,0.4-0.6,0.3-0.2c0-0.1,0.1-0.2,0.1-0.2c0.1-0.1,0.1-0.1,0.1,0
							c0.2-0.2,0.2-0.3,0.3-0.3c0.1-0.1,0.1-0.1,0.3-0.2c0,0-0.1,0.1-0.1,0.1c0.1-0.1,0.2-0.1,0.3-0.2c0.1-0.1,0.5-0.1,0.8,0
							c0,0,0.1,0-0.1,0c0.1,0,0.2,0,0.3,0c-0.2-0.3-0.8-0.8-0.9-0.9c-0.2-0.2-0.3-0.5-0.5-0.9c0.2,0.2-0.1-0.3,0-0.3
							c-0.1-0.1-0.1-0.3-0.1-0.4l0,0.2c-0.1-0.4-0.2-0.7-0.2-1c0,0.1,0,0.2,0,0.3c0-0.2,0-0.5,0-0.7c0,0.1,0,0.3,0,0.4
							c0-0.4-0.1,0-0.1-0.5c0,0.1,0-0.4,0.1-0.6l0,0c0-0.2,0-0.4,0.1-0.7c0-0.1,0.1,0.1,0.1,0c0-0.2,0.3-0.8,0.4-1
							c0,0.1,0,0.1,0,0.1l0-0.2c0.1-0.1,0.1-0.1,0.1-0.1c0.3-0.4-0.2,0.1,0.3-0.4c0,0,0,0-0.1,0.1c0.1-0.1,0.3-0.3,0.4-0.4l0.1-0.1
							c0,0,0,0-0.1,0l-0.1-0.1c-0.1-0.1-0.2-0.1-0.2-0.2c-0.2-0.2-0.4-0.4-0.6-0.6c0-0.2,0.3,0.4,0.2,0.2c-0.5-0.6-0.8-1.5-0.7-2.3
							c0,0,0,0.1,0,0.1c-0.1-0.1,0.1-0.6,0.3-1c0,0.1,0,0.1,0,0.1c0.1-0.2,0.3-0.5,0.5-0.7c0.2-0.2,0.5-0.5,0.6-1c0,0,0,0.1,0,0.1
							c0.1-0.2,0.1-0.4,0-0.7c-0.1-0.2-0.2-0.4-0.3-0.6c-0.1-0.1-0.2-0.2-0.2-0.1c-0.5-1-1.2-1.8-1.2-2.8c0,0.1,0.1,0.3,0.1,0.2
							c-0.1-0.3-0.1-0.5-0.1-0.8c0,0.1,0,0.1-0.1,0.3c0-0.1-0.1-0.3,0-0.5c0,0.4,0.1,0,0.1-0.1c0,0,0,0,0,0c0.2-0.4-0.1-0.1,0.2-0.6
							l0,0c0.1-0.2,0.1-0.4,0.3-0.6c0.1-0.1-0.1,0.2-0.1,0.2c0.2-0.3,0.3-0.6,0.6-0.8c-0.1,0.1-0.2,0.2-0.3,0.4
							c0.3-0.2,0.3-0.2,0.5-0.4l0,0c0.1-0.1,0.3-0.2,0.5-0.3c0,0-0.1,0-0.1,0c0.1-0.2,0.4-0.3,0.7-0.3c-0.1-0.1-0.4-0.4-0.6-0.5
							c0.5,0.4,0.1,0.1,0.2,0c-0.1-0.1-0.2-0.3-0.2-0.3c-0.2-0.2-0.2-0.4-0.5-0.6c0,0-0.1-0.2-0.1-0.2c-0.2-0.3,0,0.1,0,0.1
							c-0.3-0.4-0.5-1.2-0.7-1.9c-0.2-0.6-0.2-0.8-0.3-1.4c0-0.2,0.1,0.2,0.1,0.2c0-0.3,0-0.6,0-0.9c0,0.1,0,0,0.1-0.1
							c0-0.2,0-0.2,0-0.5c0,0.1,0,0.1,0,0.3c0-0.3,0.1-0.6,0.1-0.9c0.1-0.1,0,0.2,0,0.3c0.1-0.3,0.3-0.8,0.3-1
							c0,0.1-0.1,0.1-0.1,0.2c0-0.1,0.1,0,0,0c-0.1,0.3-0.2,0.4-0.2,0.4l0.1-0.2c-0.2,0.2-0.2,0.9-0.3,1.3l0-0.2c0,0.2,0,0.3,0,0.5
							c0,0.1-0.1,0.2-0.1-0.1c-0.1,0.3,0,0.3-0.1,0.6c0,0,0,0,0,0l0,0.3c0-0.1-0.1,0.1,0-0.1c-0.1,0.6,0.1,0.9,0.1,1.1l0,0
							c0.2,0.8,0.1,0.1,0.3,0.6l0,0.4l0.1,0.1c0,0.1,0.1,0.2,0,0.2c0.1,0.3,0-0.1,0.1,0.1c0.1,0.4,0.5,1,0.5,1.1
							c0.1,0.1-0.2-0.3,0.1,0c0,0.2,0.3,0.4,0.5,0.7c-0.1-0.1-0.3-0.3-0.1,0c0.2,0.1,0.4,0.4,0.4,0.5c0,0-0.1,0-0.1,0
							c0,0-0.1,0-0.2,0.1c-0.2,0.1-0.5,0.2-0.7,0.4c0,0-0.2,0.1-0.4,0.4c-0.2,0.2-0.4,0.6-0.5,0.8l0,0c0,0.1-0.1,0.6-0.1,0.9
							c0,0-0.1-0.1-0.1-0.3c0,0.1,0,0.2,0,0.3c0,0.1,0,0.2,0.1,0.4l-0.1-0.1c0,0.5,0.2,0.9,0.4,1.4c0.1,0,0-0.5,0.2,0.1
							c0,0-0.1,0.1-0.1-0.1c0,0,0.1,0.2,0.1,0.3l-0.1-0.2c0.1,0.2,0.1,0.1,0.2,0.3c0,0,0,0.2,0,0.1c0,0-0.1-0.2-0.1-0.2
							c0.1,0.2,0.2,0.5,0.2,0.6c0,0,0,0,0.1,0.1c0.2,0.4,0,0.2,0.2,0.4c0.1,0.1,0.2,0.3,0.3,0.3c0.1,0.1,0.1,0.1,0.1,0.2
							c0.1,0.1,0.2,0.3,0.3,0.5c0.1,0.2,0.1,0.3,0.1,0.2l0-0.1l0,0l0,0l0,0c0.2,0.3,0,0.7-0.3,1c-0.3,0.3-0.6,0.5-0.7,0.9l0,0
							c-0.2,0.4-0.3,1-0.3,1.3c0,0.1,0,0.3-0.1,0.3c0,0.3,0.1,0.4,0.2,0.9c-0.1-0.3,0,0.1-0.1-0.3c0.1,0.4,0.1,0.6,0.4,1
							c-0.1-0.1,0.1,0.3,0.3,0.5l-0.2-0.3c0.1,0.2,0.3,0.4,0.4,0.5c0,0-0.1,0-0.1,0c0.1,0.1,0.2,0.2,0.3,0.2c0,0,0.1,0,0.1,0.1
							c0,0-0.1,0.1-0.1,0.2c-0.2,0.3-0.4,0.5-0.7,0.9c-0.1,0.2,0.3-0.4,0.2-0.2C46.2,50.7,46,51,46,51.2c-0.2,0.6-0.1,0.6-0.2,1.1
							c0-0.1,0.1-0.1,0.1,0.3c0,0.4-0.1,0.5-0.1,0.2c0-0.1,0-0.2,0-0.1c0-0.1,0-0.3,0-0.2l0,0.1c0,0.2,0,0.8,0,0.7
							c0.1,0.3,0.1,0.1,0-0.1c0,0.5,0.1,0.9,0.3,1.4c0-0.1,0-0.2,0-0.1c0.3,0.8,0.2,0.3,0.4,0.8c0.1,0.3-0.2,0,0.2,0.4
							c0.1,0.1,0,0.1,0,0.1c0,0-0.1-0.1-0.1-0.1c0.1,0.1,0.1,0.1,0.2,0.2c0,0,0.1,0.1,0,0.1c-0.1,0-0.1,0-0.1,0c0,0,0,0,0,0
							c0,0,0,0,0,0c0,0,0,0,0,0c0,0-0.2,0-0.2,0c-0.2,0.1,0.1,0-0.2,0.2c-0.2,0.1-0.5,0.4-0.6,0.4c0.5-0.5-0.1,0,0.4-0.4
							c-0.1,0.1-0.2,0.2-0.3,0.3c0,0,0,0,0-0.1c-0.5,0.5-0.2,0.3-0.5,0.8c0-0.1-0.1,0.1-0.2,0.2c0.1-0.3,0.1-0.1,0,0.1
							c-0.2,0.4-0.1,0.5-0.2,0.7c0-0.1,0-0.2,0.1-0.2c0,0.1,0,0.3-0.1,0.6c0,0,0-0.3,0-0.2c0,0.3-0.1,0.8,0,1.2c0,0.2-0.1,0,0,0.2
							c0.1,0.5,0.1,0.5,0.2,1c0-0.2,0-0.2,0.1,0.2l-0.2-0.8l0.2,0.5c-0.1-0.3-0.2-0.5-0.2-0.7c0.1,0.3,0.1,0.2,0.1,0.1
							c0,0.4,0.2,0.7,0.3,1.1l-0.1,0c0.1,0.6,0.3,1,0.3,1.8l0-0.2c0.1,0.1,0,0.5,0,0.7c0,0-0.1,0.1-0.1,0.2c0,0-0.1,0.6,0,0.7
							c0,0.1,0,0.2,0,0.4c0,0.3,0.1,0.5,0.2,0.7c0.1,0.2,0.2,0.3,0.4,0.6c-0.2-0.1,0,0.1-0.3-0.2c0.1,0.2,0.3,0.3,0.3,0.3
							c0.1,0.1,0.5,0.3,0.7,0.5c0.1,0,0.1,0,0.4,0.1c0,0,0,0,0,0c0,0,0.4,0,0.2,0c0.3,0.1,0.8,0.1,1.2-0.1c0.4-0.2,0.7-0.5,0.9-0.7
							c0.1-0.2,0.2-0.3,0.2-0.5c0-0.1,0-0.2,0.1-0.3c0.1,0.1,0.1,0.1,0.1,0.1c0,0,0,0,0,0c0.1,0.1,0.3,0.2,0.3,0.2
							c0.1,0,0.2,0,0.6,0c0.4,0-0.4,0.1-0.1,0.1c0,0.1,0.3,0,0.5,0c0.2-0.1,0.5-0.2,0.7-0.3l-0.1,0.1c0.3-0.1,0.7-0.4,1.2-0.7
							c0,0,0,0,0,0c0.3-0.3,0.9-0.6,1.3-1c-0.1,0.2-0.2,0.2-0.1,0.2c0.2-0.2-0.1,0,0.2-0.4c0.1-0.1,0.4-0.4,0.4-0.4
							c-0.1,0.1-0.2,0.3-0.3,0.4c0.2-0.1,0.4-0.5,0.5-0.7l0,0c0.3-0.7,0.2-0.7,0.3-1.4l0,0.1c0-0.4,0.1-0.2,0.1-0.6
							c0,0,0,0.1,0.1,0.1c0,0,0,0,0,0c0,0,0.1,0.1,0.2,0.2c0.2,0.1,0.4,0.2,0.6,0.3c-0.1,0-0.4-0.1-0.6-0.2
							c-0.2-0.1-0.2-0.1-0.3-0.2c0,0.1,0.1,0.1,0.2,0.2c0.2,0.1,0.4,0.2,0.5,0.2c-0.1,0-0.2-0.1-0.3-0.1c0.3,0.1,0.8,0.2,1.3,0.2
							c0,0.1,0.3,0.1,0.7,0c0.4-0.1,0.8-0.3,1-0.3c0.4-0.2,0.8-0.4,1.2-0.7c0.4-0.3,0.7-0.7,1-1.1c-0.3,0.3,0.2-0.3,0-0.3
							c0.1-0.2,0.2-0.3,0.2-0.3c0.1-0.2,0.3-0.4,0.4-0.6c0.1-0.1-0.1,0.2-0.1,0.2c0.3-0.5,0.2-0.2,0.3-0.5c-0.1,0,0-0.2,0.2-0.5
							l-0.2,0.4c0.2-0.7,0.4-0.6,0.6-1.3l0,0.2c0.1-0.4,0.4-1.4,0.4-1.8c0-0.1,0.1-0.2,0.1,0c0.2-0.9,0.1-2.1,0-2.9l0,0.1
							c0-0.2-0.1-0.3-0.1-0.5c0,0,0,0.1,0,0c0-0.1-0.2-0.4-0.2-0.7c0,0.1,0.1,0.1,0.1,0.2c-0.3-0.9-0.7-1.3-1.1-1.9
							c0.1-0.1-0.3-0.7-0.6-0.9l0,0l-0.1-0.1l0,0l-0.1,0c0,0,0,0,0.1-0.1c0.4-0.2,0.9-0.3,1.3-0.7c0.3-0.1,0.7-0.5,1-1
							c0.4-0.5,0.6-1.1,0.8-1.6c-0.1,0.1-0.1,0,0-0.2c0.1-0.2,0.1-0.6,0.2-0.6l0,0.1c0.1-0.2,0.2-0.6,0.2-1l-0.1-0.1
							c0.1-0.5,0.1-1.1,0-1.7c-0.1-0.6-0.2-1.1-0.2-1.4c-0.1-0.2-0.2-0.5-0.2-0.7l0.1,0c-0.2-0.6-0.3-1-0.6-1.7l0.1,0.1
							c-0.2-0.4-0.4-0.4-0.6-0.8l0-0.2c-0.4-0.7-0.9-1.4-1.6-1.8c0,0,0.1,0,0.2,0.1c-0.3-0.3-1.1-0.9-1.1-0.8c0,0-0.2-0.1-0.4-0.3
							c-0.1-0.1-0.3-0.1-0.4-0.2c0,0-0.1,0-0.1-0.1c0,0,0,0,0.1,0c-0.1,0,0-0.1,0-0.1c0-0.1,0.1-0.2,0.2-0.5c0.1-0.1,0.1-0.1,0,0.1
							c0.2-0.4,0.1-0.3,0.3-0.8l0,0.2c0.1-0.4,0.1-0.4,0.1-0.6c0-0.3,0.1-0.8,0.1-0.8c0-0.1-0.1-0.3-0.1-0.5c0,0,0,0.1,0,0.1
							c0-0.7-0.2-1-0.4-1.5c0,0,0,0,0-0.1c0.2,0.5,0.3,1,0.3,0.9c0.1,0,0-0.5,0.1-0.1c-0.1-0.4-0.4-0.9-0.6-1.3c0,0,0,0,0-0.1l0,0
							c0-0.1-0.1-0.2-0.2-0.2c-0.1-0.1-0.1-0.2-0.2-0.3c0-0.1-0.3-0.4-0.5-0.6c0,0.1-0.2-0.2-0.1,0.1c0,0,0,0,0.1,0.1
							c0,0,0,0,0.1,0.1c0,0,0,0,0,0c0.1,0.1,0.2,0.3,0.3,0.4c-0.1-0.1-0.3-0.3-0.4-0.5c-0.1-0.1-0.2-0.1-0.3-0.2
							c-0.2-0.3-0.6-0.7-0.6-0.8c-0.6-0.4-1.4-0.8-1.8-0.9c-0.2-0.1-0.2-0.1-0.3-0.1c0.1,0,0.2,0.1,0.3,0.1
							c-0.2-0.1-0.5-0.2-0.7-0.2c-0.2-0.1-0.3-0.1-0.4,0c0,0,0,0,0,0c0.2-0.1,0,0.1,0.2-0.1l0,0l0,0c0,0,0,0,0-0.1
							c0-0.1,0.1-0.2,0.1-0.2c0.1-0.2,0.1-0.3,0.1-0.5c0-0.3-0.1-0.6-0.2-0.9c-0.3-0.5-0.7-1-1.3-1.3c0.1,0,0.1,0.1,0.2,0.1
							c-0.8-0.4-1.7-0.4-2.5-0.3c-0.8,0.1-1.7,0.2-2.4,0.7c-0.4,0.4-0.3,0.6-0.3,0.8c0,0,0,0-0.1,0l0,0.1c0,0-0.1,0-0.2,0.1
							c-0.4,0.1-0.6,0.1-0.9,0.3c-0.3,0.2-0.6,0.4-0.7,0.9l0.1-0.1c-0.2,0.3-0.3,1-0.3,0.9c0,0,0,0.1,0,0.2l0,0c0,0.3,0,0.5,0.1,0.8
							c0.1,0.6-0.2-0.1,0,0.8c0.1,0.3,0.3,0.9,0.3,0.7c0-0.1-0.1-0.3,0-0.3l0.1,0.3c0.1,0,0.2,0.2,0.1-0.5L46.9,27l0-0.2l0.1,0.4
							c0-0.2-0.1-0.4-0.1-0.5c0,0,0-0.1,0-0.2c0-0.2-0.1-0.3-0.1-0.5c0-0.1,0.1,0.2,0.1-0.1c0-0.2-0.1,0.2-0.1-0.2
							c0.1-0.2,0.1-0.2,0.1-0.4c0,0,0,0,0,0.1c0-0.2,0.1-0.6,0.2-0.7c0.1-0.2,0.4-0.6,0.5-0.5c0-0.1,0.3-0.3,0.4-0.4
							c-0.1,0.1,0,0,0.2,0c0.1,0,0.2,0,0.3,0c0.2,0,0.3,0.1,0.3,0.1c0.1,0,0.2,0,0.4,0c-0.1-0.2-0.1-0.4-0.1-0.6
							c0-0.1,0-0.2,0.1-0.3c0.1-0.2,0.3-0.3,0.5-0.4c0,0-0.1,0.1-0.1,0.1c0.2-0.1,0.3-0.1,0.5-0.2c0-0.1,0.4-0.2,0.7-0.3
							c0.4,0-0.2,0.1-0.1,0.2c0-0.1,0.6-0.1,0.5-0.2c0.3,0,0.2,0,0.4,0.1c0-0.1,0.3,0,0.5-0.1c0.4,0.1,0.1,0.1,0.5,0.1
							C52.7,22.3,52.3,22.3,52.3,22.3z M59,28.5L59,28.5c0-0.1-0.1-0.1-0.1-0.2C58.9,28.4,59,28.5,59,28.5z M59.4,29.4
							c0-0.1-0.1-0.2-0.1-0.4c0,0,0,0,0.1,0.1C59.3,29,59.4,29.2,59.4,29.4z M58.8,27.5c0.1,0.1,0.1,0.2,0.1,0.2
							C58.9,27.6,58.8,27.5,58.8,27.5L58.8,27.5C58.7,27.5,58.8,27.5,58.8,27.5z"/>
						<path fill="#808181" d="M58.6,27.3C58.5,27.3,58.5,27.3,58.6,27.3C58.5,27.3,58.5,27.3,58.6,27.3L58.6,27.3L58.6,27.3z"/>
						<path fill="#808181" d="M47.3,43.5L47.3,43.5L47.3,43.5C47.3,43.5,47.3,43.5,47.3,43.5z"/>
						<polygon fill="#808181" points="63.5,39.8 63.5,39.8 63.5,39.8 						"/>
						<path fill="#808181" d="M45.7,38.9C45.8,38.9,45.8,38.9,45.7,38.9C45.8,38.8,45.8,38.9,45.7,38.9z"/>
						<path fill="#808181" d="M46.8,37.1C46.9,37.1,47,37,47,37C46.9,37,46.9,37.1,46.8,37.1z"/>
						<path fill="#808181" d="M47.5,36.2C47.5,36.1,47.5,36.1,47.5,36.2L47.5,36.2L47.5,36.2z"/>
						<path fill="#808181" d="M45.2,58.2L45.2,58.2C45.2,58.4,45.2,58.3,45.2,58.2z"/>
						<path fill="#808181" d="M46.1,51.9c0,0.1,0,0.2,0,0.3C46.1,52,46.1,51.9,46.1,51.9z"/>
						<polygon fill="#808181" points="46.8,66.3 46.8,66.3 46.8,66.3 						"/>
						<path fill="#808181" d="M46,52.5c0-0.1,0-0.3,0-0.4C46,52.3,46,52.4,46,52.5z"/>
						<path fill="#808181" d="M46.4,29.5L46.4,29.5C46.5,29.4,46.5,29.4,46.4,29.5L46.4,29.5z"/>
						<path fill="#808181" d="M46.5,29.4L46.5,29.4C46.5,29.4,46.4,29.4,46.5,29.4z"/>
						<path fill="#808181" d="M46.5,29.2c0,0.1-0.1,0.1-0.1,0.2C46.5,29.3,46.5,29.2,46.5,29.2z"/>
						<path fill="#808181" d="M45.9,31.6L45.9,31.6C46,31.6,46,31.6,45.9,31.6z"/>
						<path fill="#808181" d="M46,32.3c0-0.2,0-0.4,0-0.6l0,0C46,31.7,45.9,32.1,46,32.3z"/>
						<path fill="#808181" d="M46.4,35c-0.1-0.2-0.2-0.3-0.2-0.5c0,0.1,0,0.2-0.1,0C46.4,35.2,46.1,34.3,46.4,35z"/>
						<path fill="#808181" d="M47.4,36.4C47.2,36.2,47.3,36.4,47.4,36.4C47.4,36.5,47.4,36.5,47.4,36.4z"/>
						<path fill="#808181" d="M45.9,47L45.9,47C45.9,47.2,45.8,47,45.9,47z"/>
						<path fill="#808181" d="M47.1,49c0-0.1-0.1-0.1-0.1-0.2l-0.1,0C47,48.9,47,48.9,47.1,49z"/>
						<path fill="#808181" d="M46.6,49.9L46.6,49.9c0,0-0.1,0.1-0.2,0.3L46.6,49.9z"/>
						<path fill="#808181" d="M49.1,66.3L49.1,66.3C48.8,66.5,48.9,66.5,49.1,66.3z"/>
						<path fill="#808181" d="M55.2,61.3c0.1-0.2,0.1-0.2,0.1-0.3C55.3,61.1,55.2,61.2,55.2,61.3z"/>
						<path fill="#808181" d="M64.2,42.2l0,0.2c0-0.1,0-0.2,0-0.4L64.2,42.2z"/>
					</g>
				</g>
			</g>
		</g>
	</g>
	<g>
		<path fill="#F4DDA3" d="M42.7,28c0.3-0.9,0.5-1.9,0.3-2.8c-0.2-0.9-1.2-1.8-2.1-1.6c0.3-0.9-1-1.5-2-1.6c-1.1-0.1-2.3-0.2-3.3,0.4
			s-1.4,2.1-0.5,2.8c-1.8,0.4-3.5,1.4-4.4,3c-1,1.6-1,3.7,0.2,5.1c-2.9,1.4-4.4,3.8-5,6.9c-0.6,3.2,0.4,7,3.7,7.2
			c-2.4,2.5-3,4.7-2.1,8.1c0.4,1.6,1.5,3.9,2.9,4.8s3.6,1.5,4.3,0c0.1,2.2,0.7,2.9,2,3.7c1.2,0.7,2.7,1.9,3.5,0.7
			c0.1,1,0.9,1.8,1.9,1.9c1,0.1,2-0.7,2.2-1.6c0.1-0.7-0.1-1.3-0.1-2c-0.1-1.4,0.6-2.7,0.7-4.1c0.1-1.4-0.9-3.1-2.3-2.8
			c1.9-1.8,1.8-5.1-0.2-6.8c1.5-0.8,1.9-3.2,0.8-4.5c-0.3-0.3-0.6-0.6-0.7-1c-0.1-0.5,0.2-0.9,0.5-1.3c0.7-1,1.3-2.2,1.2-3.4
			c-0.1-1.2-0.9-2.5-2.2-2.6c2.5-2.2,2.7-6.5,0.4-8.9"/>
		<g>
			<g>
				<g>
					<g>
						<path fill="#808181" d="M42.4,27.6c-0.1,0-0.1,0,0.1,0.1l0.1,0.1L42.4,27.6z"/>
						<path fill="#808181" d="M43,28.7c0.1,0.2,0.3,0.4,0.3,0.2c-0.2-0.2-0.1-0.2-0.3-0.4c-0.1-0.1-0.2-0.3-0.1-0.3
							c0,0-0.2-0.2-0.2-0.3C42.7,28.2,42.9,28.4,43,28.7C43.1,28.7,43.1,28.7,43,28.7z"/>
						<path fill="#808181" d="M42.2,43.6l0-0.1C42.3,43.5,42.2,43.5,42.2,43.6z"/>
						<path fill="#808181" d="M43.7,52.8c0-0.1,0-0.1,0-0.1C43.7,52.8,43.7,52.9,43.7,52.8z"/>
						<path fill="#808181" d="M43.3,54.5C43.3,54.5,43.3,54.5,43.3,54.5C43.3,54.5,43.3,54.5,43.3,54.5z"/>
						<path fill="#808181" d="M42.2,43.6c0,0.1,0,0.2,0,0.3C42.2,43.9,42.2,43.7,42.2,43.6z"/>
						<path fill="#808181" d="M44,30.9c0-0.1,0-0.1,0-0.2L44,30.9C44,30.8,44,30.8,44,30.9z"/>
						<path fill="#808181" d="M43.9,39.3L43.9,39.3c0-0.1,0-0.1,0-0.1L43.9,39.3z"/>
						<path fill="#808181" d="M41.9,36.8c0.1,0,0.2,0,0.3,0C42.1,36.7,42,36.7,41.9,36.8C41.9,36.7,41.9,36.7,41.9,36.8z"/>
						<path fill="#808181" d="M43.8,31.7C43.8,31.6,43.8,31.6,43.8,31.7C43.8,31.6,43.8,31.6,43.8,31.7z"/>
						<path fill="#808181" d="M43.2,41.7C43.2,41.7,43.2,41.7,43.2,41.7C43.2,41.7,43.2,41.7,43.2,41.7z"/>
						<path fill="#808181" d="M42.5,23.9C42.5,23.9,42.5,23.9,42.5,23.9C42.5,23.9,42.5,23.9,42.5,23.9z"/>
						<path fill="#808181" d="M42.7,28L42.7,28C42.7,27.9,42.7,27.9,42.7,28L42.7,28z"/>
						<path fill="#808181" d="M43.6,56.8L43.6,56.8C43.6,56.7,43.6,56.8,43.6,56.8z"/>
						<path fill="#808181" d="M28.8,58.4c0.1,0.3-0.3-0.4-0.1,0C28.7,58.4,29,58.8,28.8,58.4z"/>
						<path fill="#808181" d="M44,30.9c0,0,0,0.1,0,0.1C44,31,44,31,44,30.9z"/>
						<path fill="#808181" d="M28.7,58.5L28.7,58.5L28.7,58.5C28.7,58.5,28.7,58.5,28.7,58.5z"/>
						<path fill="#808181" d="M43.9,63.9C43.9,63.9,43.9,63.9,43.9,63.9C43.9,63.9,43.9,63.9,43.9,63.9z"/>
						<path fill="#808181" d="M44.5,58.3l0,0.1C44.5,58.4,44.5,58.4,44.5,58.3z"/>
						<path fill="#808181" d="M43,66.3c-0.1,0-0.1,0-0.2,0.1l0,0C42.9,66.4,43,66.4,43,66.3z"/>
						<path fill="#808181" d="M40.5,65.7L40.5,65.7c0,0.1,0.1,0.1,0.1,0.1C40.6,65.8,40.6,65.7,40.5,65.7z"/>
						<path fill="#808181" d="M34.5,23.6c0-0.1,0.1-0.1,0.1-0.1C34.5,23.5,34.7,23,34.5,23.6z"/>
						<path fill="#808181" d="M44,30.9C44,30.9,44,30.9,44,30.9L44,30.9C44,30.8,44,30.8,44,30.9z"/>
						<path fill="#808181" d="M43.1,66.8c-0.2,0.1-0.3,0.1-0.5,0.2C42.7,66.9,42.9,66.9,43.1,66.8z"/>
						<path fill="#808181" d="M25.6,40.7l0-0.1C25.6,40.7,25.6,40.7,25.6,40.7z"/>
						<path fill="#808181" d="M41,66.7c-0.1-0.1-0.2-0.1-0.2-0.2c0,0,0,0-0.1,0C40.8,66.6,40.9,66.6,41,66.7z"/>
						<path fill="#808181" d="M34.6,23.4L34.6,23.4L34.6,23.4z"/>
						<path fill="#808181" d="M37.4,21.7c-0.5,0-0.2,0.1-0.3,0.1c-0.6,0.1-0.3,0-0.5,0c-0.4,0.1-0.6,0.3-0.9,0.4c0,0-0.1,0,0,0
							c-0.4,0.2-1,0.8-1,1.2c0,0,0,0,0,0c0.1-0.1,0.1-0.1,0.1,0c-0.1,0.2-0.1,0.4-0.1,0.5c0-0.1,0-0.1,0-0.2c0,0.1,0,0.2,0,0.2
							c-0.1,0.2,0-0.3,0-0.3c-0.1,0.4-0.1,1,0.1,1.3c-0.1,0.1-0.2-0.8-0.2-0.3c0-0.2,0-0.4,0-0.6c-0.1,0.4,0-0.3-0.1,0
							c0,0.4,0,0.6,0.1,0.8c0,0.1,0.1,0.2,0.1,0.2c0,0,0,0,0,0.1c0,0,0,0,0,0c0,0,0.1,0,0.1,0.1c-0.1,0-0.1,0-0.1,0.1
							c-0.1,0-0.2,0-0.2,0.1c-0.1,0-0.2,0-0.3,0c-0.2,0-0.3,0-0.6,0.2c-0.1,0.1-0.2,0.2-0.6,0.4l0.1-0.2c-0.6,0.3-0.3,0.3-0.9,0.6
							c0.1-0.1,0.4-0.3,0.3-0.3c-0.4,0.2-0.2,0.2-0.5,0.4l-0.1,0c-0.5,0.5-1,1.1-1.4,1.8c0,0,0.1-0.2-0.1,0c-0.5,0.9-0.7,2-0.6,3
							c0,0.1,0.1,0.2,0.1,0.4c0,0.1,0,0.2,0,0.1c0.1,0.4,0,0,0.1,0.2c0.1,0.2,0,0.3,0,0.2c0.1,0.2,0.1,0.3,0.2,0.5
							c0.1,0.1,0.1,0.2,0.2,0.3c0.1,0.1,0.2,0.2,0.2,0.2c0.1,0.1,0,0.1-0.1,0.2c-0.2,0.1-0.4,0.2-0.5,0.3l0.1-0.1
							c-0.5,0.3-0.4,0.4-0.9,0.7l0.1-0.1c-1,0.7-1.7,1.7-2.2,2.4c0,0.2-0.6,1-0.5,1.1c-0.3,0.6-0.3,0.4-0.6,1.3
							c-0.1,0.2,0,0.4-0.1,0.7l-0.1,0l0,0.4l-0.1,0.2l0,0.3c0-0.1,0.1-0.2,0.1-0.2c-0.1,0.4-0.2,1.1-0.2,1.1c0,0.4,0,0.7,0.1,1.1
							c0,0,0-0.2-0.1-0.3c0.1,0.6-0.1,0.1,0,0.6c0-0.1,0,0,0.1,0c0,0.3,0.1,0.9,0.2,1.3l-0.1-0.1c0.2,0.8,0.5,1.6,1.1,2.3
							c-0.2-0.3-0.1-0.3,0.1-0.1l0,0.1c0.1,0.1-0.2-0.2,0.1,0c0.2,0.2,0.1,0.2,0,0.1l0.3,0.3c0,0-0.1,0-0.1,0
							c0.1,0.1,0.5,0.5,0.8,0.6l0,0c0.2,0.1,0.4,0.2,0.6,0.2c0.1,0,0.2,0.1,0.3,0.1c0.1,0,0,0,0.1,0c0,0,0.1,0,0.1,0
							c0,0,0,0-0.1,0.1c0,0,0,0,0,0.1c-0.1,0.1-0.1,0.2-0.2,0.3c-0.4,0.4-0.7,0.8-1.1,1.4c-0.2,0.4,0,0.1-0.1,0.3
							c-0.1,0-0.3,0.6-0.2,0.3c-0.3,0.7-0.4,0.9-0.5,1.9c0-0.1,0.1-0.2,0.1-0.2c0,0.2-0.1,0.4-0.1,0.4l0,0c-0.1,1.1,0,2.5,0.3,3.4
							l0,0c0.1,0.3,0.2,0.6,0.3,0.8c0.1,0.4-0.1-0.2,0,0.1c0.4,0.9,0.6,1.4,1,2.1c0.1,0.3,0.4,0.8,0.8,1.2c0.4,0.4,0.9,0.8,1.3,1
							l0-0.1c0.2,0.1,0.2,0.1,0.4,0.2c0,0-0.2-0.1-0.1-0.1c0.6,0.3,1.3,0.5,2,0.6c0.4,0,0.7,0,1.1-0.1c0.1,0,0.2-0.1,0.3-0.1
							c0.1,0,0.2-0.1,0.2-0.1c0,0,0,0,0,0c0,0,0,0.1,0,0.1c0,0,0,0.1,0,0.3c0,0.1,0,0.3,0.1,0.4c0.1,0.3,0.2,0.4,0.2,0.5
							c0.1,0.1,0.1,0.2,0.4,0.6c-0.1-0.1-0.1-0.1-0.2-0.2c0.4,0.6,1,1.1,1.6,1.5c0.6,0.4,1.2,0.8,1.8,1c-0.1,0-0.1,0-0.2-0.1
							c0.1,0.1,0.4,0.2,0.6,0.3c0.2,0.1,0.5,0,0.5,0c0.2,0,0.1,0,0.2,0.1c0.2,0,0.4-0.1,0.6-0.2c0,0,0.1-0.1,0.1-0.1c0,0,0,0,0,0
							c0,0,0,0,0,0c0,0,0,0.1,0,0c0,0,0,0.2,0.1,0.3c0.1,0.1,0.1,0.2,0.2,0.3c0.1,0.2,0.3,0.4,0.5,0.5c0.2,0.2,0.8,0.5,0.9,0.4
							c0,0,0.2,0.1,0.5,0.1c0.3,0,0.6-0.1,0.8-0.2c-0.1,0.1,0.3-0.1,0.2,0c0.4-0.2,0.6-0.5,0.5-0.5c0.3-0.2,0.5-0.6,0.6-0.9
							c0.1-0.3,0.1-0.6,0.2-0.8c0-0.6-0.2-1.1-0.2-1.5c0-0.5,0-0.9,0.1-1.4c0.1,0.1-0.2,1,0,1c0-0.9,0.1-1.4,0.4-2.3
							c0.1-0.2,0,0.1,0,0.2c0.2-0.9,0.4-1.8,0.1-2.6c0,0,0,0.1,0.1,0.2c0-0.2-0.1-0.4-0.1-0.4c0,0.1,0,0.1,0.1,0.2
							c0,0.3-0.3-0.6-0.4-0.6c0.3,0.2-0.4-0.7,0-0.4c-0.1-0.1-0.2-0.2-0.2-0.2c-0.1-0.1-0.1-0.2,0-0.1c-0.2-0.2-0.3-0.3-0.4-0.3
							c-0.1,0-0.1-0.1-0.4-0.2c0,0,0.1,0,0.2,0c-0.1-0.1-0.3-0.1-0.4-0.1c-0.2,0-0.2,0-0.3,0c0,0,0,0,0.1,0l-0.1,0
							c0-0.1,0.5-0.7,0.7-1.4c0,0.3,0.1-0.3,0.2-0.3c0-0.1,0.1-0.3,0.1-0.5l-0.1,0.2c0.1-0.4,0.1-0.7,0.1-1.1c0,0.1,0,0.2,0,0.3
							c0-0.2,0-0.5,0-0.7c0,0.1,0,0.3,0,0.4c0-0.4-0.1,0-0.1-0.5c0,0.1,0-0.4,0-0.6l0,0c-0.1-0.2-0.1-0.4-0.2-0.7c0-0.1,0.1,0,0.1,0
							c-0.1-0.2-0.4-0.9-0.6-1c0.1,0.1,0.1,0,0.1,0L43,50.1c-0.1-0.2-0.1-0.2-0.1-0.2c-0.3-0.4,0,0.2-0.3-0.3c0,0,0,0,0.1,0.1
							c-0.1-0.1-0.2-0.2-0.3-0.3c-0.1,0,0-0.1,0.1-0.1c0,0,0.1-0.1,0.1-0.1c0.3-0.2,0.4-0.4,0.6-0.7c0.2-0.1-0.3,0.4-0.1,0.3
							c0.6-0.7,0.7-1.7,0.6-2.6c0,0.1,0,0.1,0,0.2c-0.1-0.1,0-0.6-0.3-1c0,0.1,0.1,0.1,0.1,0.1c-0.1-0.3-0.3-0.5-0.5-0.8
							c-0.2-0.2-0.5-0.4-0.6-0.8c0,0,0,0.1,0,0.1c-0.1-0.3,0.1-0.8,0.3-1c0-0.1,0.2-0.3,0.1-0.2c0.8-0.8,1.1-1.9,1.3-2.8
							c0,0.1,0,0.3,0,0.2c0-0.3,0.1-0.6,0-0.9c0,0.1,0,0.1-0.1,0.3c0-0.2,0-0.4-0.1-0.6c0.1,0.4,0.1,0,0.1-0.2c0,0,0,0,0,0
							c0-0.5-0.1-0.1-0.2-0.6l0,0c-0.1-0.2-0.2-0.4-0.4-0.6c0-0.1,0.2,0.2,0.2,0.2c-0.2-0.3-0.5-0.5-0.7-0.7
							c0.1,0.1,0.3,0.2,0.4,0.3c-0.2-0.3-0.2-0.3-0.4-0.5l0,0c-0.2-0.1-0.3-0.2-0.5-0.3c0,0,0.1,0.1,0.1,0.1c-0.3,0-0.4-0.1-0.6-0.1
							c0-0.1,0.2-0.2,0.4-0.5c-0.3,0.4,0,0.1,0,0.2c0.1-0.1,0.3-0.3,0.2-0.2c0.1-0.2,0.3-0.3,0.5-0.7c0,0,0.2-0.3,0.2-0.2
							c0.1-0.3-0.1,0.1-0.1,0c0.2-0.5,0.6-1.2,0.7-2c0.1-0.7,0-0.8,0-1.4c0-0.2,0.1,0.2,0.1,0.2c0-0.3,0-0.6,0-0.9c0,0.1,0,0,0-0.1
							c-0.1-0.3-0.1-0.2-0.1-0.5c0,0.1,0.1,0.1,0.1,0.2c-0.1-0.3-0.2-0.6-0.3-0.9c0-0.1,0.1,0.2,0.2,0.3c-0.1-0.3-0.3-0.9-0.4-0.9
							c0,0.1,0.1,0.1,0.1,0.2c0-0.1,0-0.1,0.1,0c0.1,0.3,0.1,0.4,0.1,0.4l-0.1-0.2c0,0.2,0.3,0.9,0.3,1.3l-0.1-0.2
							c0,0.1,0.1,0.3,0.1,0.4c0,0.1-0.1,0.2-0.1,0c0,0.3,0.1,0.3,0,0.6c0,0,0,0,0,0l0,0.3c0-0.1-0.1,0.1,0-0.1c0,0.6,0,0.9-0.1,1.1
							l0,0c-0.1,0.8,0.1,0.1,0,0.7l-0.3,0.3l0,0.1c0,0.1-0.1,0.2-0.1,0.2c-0.1,0.3,0,0,0,0.1c-0.2,0.3-0.4,1-0.6,1
							c0,0.1,0.2-0.3,0,0.1c-0.1,0-0.2,0.4-0.5,0.7c0-0.1,0.3-0.4,0-0.1c0,0.2-0.5,0.5-0.7,0.7c0.1,0,0.1,0,0.2,0
							c0.1,0,0.3,0,0.5,0.1c0.2,0.1,0.4,0.2,0.6,0.4c0,0,0.1,0.2,0.3,0.4c0.2,0.2,0.3,0.6,0.4,0.8l0,0c0.1,0.1,0.2,0.5,0.3,0.9
							c0,0-0.1-0.1-0.1-0.2c0,0.1,0,0.2,0,0.3c0,0.1,0,0.2,0,0.4l-0.1-0.1c0,0.4,0,0.9-0.3,1.4c0,0.1,0.3-0.4,0.1,0.2
							c0,0-0.1,0,0-0.1c0,0,0,0.2-0.1,0.3l0.1-0.2c-0.1,0.2,0,0.1-0.1,0.3c0,0-0.1,0.1-0.1,0.1c0,0,0.1-0.2,0.1-0.2
							c-0.1,0.2-0.3,0.4-0.3,0.5c0,0,0,0,0,0.2c-0.2,0.4-0.1,0.1-0.3,0.3c0,0.1-0.2,0.3-0.2,0.4c-0.1,0.1-0.1,0.1-0.2,0.1
							c-0.1,0.1-0.2,0.3-0.3,0.5c-0.1,0.2-0.1,0.4,0,0.2l0-0.1c0,0,0,0,0,0l0,0l0,0c-0.1,0.4,0,0.8,0.3,1.1c0.3,0.3,0.5,0.6,0.7,0.9
							l0,0c0.2,0.4,0.3,0.9,0.4,1.2c0,0.1,0,0.3-0.1,0.2c0,0.3,0,0.4-0.1,0.8c0.1-0.3,0,0.1,0.1-0.3c-0.1,0.4-0.2,0.5-0.3,0.9
							c0-0.2-0.2,0.2-0.3,0.4l0.2-0.2c-0.1,0.2-0.3,0.3-0.4,0.5c0,0,0-0.1,0-0.1c-0.1,0.1-0.2,0.1-0.2,0.2c-0.1,0.1-0.3,0.2-0.4,0.3
							l-0.1,0.1l0.1,0.1l0.2,0.2c0.1,0.1,0.2,0.2,0.3,0.3c0.3,0.3,0.5,0.5,0.6,0.8c0.2,0.2-0.2-0.4-0.1-0.3c0.2,0.3,0.3,0.8,0.3,0.9
							c0.1,0.5,0.2,0.5,0.3,1c0-0.1,0.1-0.2,0.1,0.3c0,0.4-0.1,0.5-0.1,0.2c0-0.1,0-0.1,0-0.1c0-0.1,0-0.3-0.1-0.1l0,0.1
							c0,0.2,0,0.7-0.1,0.6c0,0.3,0,0.1,0.1-0.1c-0.1,0.5-0.1,0.8-0.3,1.3c0-0.1,0.1-0.1,0.1-0.1c-0.3,0.7-0.1,0.3-0.3,0.8
							c-0.2,0.2,0-0.1-0.3,0.3c-0.1,0.1-0.2,0.2-0.1,0.1c0-0.1,0.1-0.2,0.1-0.2c0,0.1-0.3,0.4-0.4,0.5c-0.2,0.2-0.4,0.4-0.5,0.5
							c0.3,0,0.6,0,0.8,0L42,56.5c0.4,0,0.8-0.1,1,0c-0.1,0-0.2-0.1-0.3-0.1c0.4,0,0.4,0.1,0.4,0.1c0.1,0-0.1-0.1,0.2,0
							c0.2,0.1,0.5,0.3,0.5,0.4c-0.4-0.4,0,0.1-0.4-0.2c0.1,0,0.2,0.1,0.3,0.2c0,0,0,0-0.1,0c0.3,0.4,0.2,0.1,0.6,0.6
							c-0.1,0,0,0.1,0,0.2c-0.1-0.2,0-0.1,0.1,0.1c0.1,0.4,0.1,0.4,0.2,0.6c0-0.1,0-0.2,0-0.2c0.1,0.1,0.1,0.3,0.1,0.5
							c0,0,0-0.2,0-0.1c0.1,0.3,0,0.7-0.1,1.1c-0.1,0.2-0.1,0-0.1,0.2c0,0.5-0.2,0.5-0.2,1c0.1-0.1,0.1-0.2,0,0.2l0.2-0.8l-0.1,0.5
							c0.1-0.3,0.1-0.5,0.1-0.7c0,0.3,0,0.2,0,0.1c-0.1,0.3-0.1,0.7-0.3,1.1l-0.1,0c-0.2,0.6-0.2,1.1-0.2,1.9l0-0.3
							c0,0.1,0,0.5,0.1,0.8c0,0,0,0.1,0,0.3c0,0,0.1,0.6,0.1,0.6c0,0.1,0,0.2-0.1,0.3c0,0.3-0.1,0.5-0.1,0.6c0,0.2-0.1,0.3-0.3,0.5
							c0.1-0.2-0.1,0,0.1-0.3c-0.1,0.2-0.2,0.3-0.2,0.3c-0.1,0.1-0.4,0.4-0.6,0.4c-0.1,0-0.1,0.1-0.3,0.2c0,0,0,0,0,0
							c0,0-0.3,0.1-0.1,0.1c-0.3,0-0.7,0-1.1-0.2c-0.4-0.2-0.7-0.5-0.8-0.7c-0.1-0.1-0.2-0.3-0.2-0.5c-0.1-0.2-0.1-0.6-0.1-0.7
							c-0.1,0.1-0.2,0.3-0.3,0.4c0,0,0,0,0.1-0.1c-0.3,0.3-0.4,0.3-0.4,0.4c-0.1,0-0.2,0.1-0.5,0.1c-0.3-0.1,0.3,0,0.1,0
							c0-0.1-0.2-0.1-0.4-0.1c-0.2,0-0.5-0.1-0.6-0.3l0.1,0c-0.3-0.2-0.7-0.3-1.2-0.6c0,0,0,0,0,0c-0.3-0.1-1-0.5-1.4-0.8
							c0.1,0.1,0.2,0.1,0.2,0c-0.2-0.1,0,0.1-0.3-0.2c-0.1-0.1-0.3-0.4-0.2-0.5c0.1,0.1,0.2,0.2,0.2,0.3c-0.1-0.2-0.3-0.4-0.4-0.6
							l0,0c-0.2-0.6-0.3-0.6-0.4-1.3l0,0.1c-0.1-0.4,0-0.4-0.1-0.9l0.1-0.3c0-0.1,0,0-0.1,0c-0.1,0.2-0.3,0.7-0.5,0.9
							c-0.2,0.2-0.4,0.2-0.6,0.3c0.1-0.1,0.3-0.1,0.4-0.3c0.1-0.1,0.5-0.6,0.6-0.9c-0.1,0.2-0.4,0.8-0.6,0.9
							c-0.1,0.1-0.3,0.2-0.3,0.2c0.1,0,0.2-0.1,0.3-0.1c-0.2,0.2-0.6,0.3-1.1,0.3c0-0.1-0.3-0.1-0.6-0.2c-0.4-0.1-0.8-0.3-0.9-0.4
							c-0.9-0.3-1.5-0.9-2.1-1.7c0.1,0.4-0.2-0.2-0.2-0.1c-0.1-0.2-0.2-0.3-0.2-0.3c-0.1-0.2-0.2-0.5-0.3-0.7c0-0.2,0.1,0.2,0.1,0.2
							c-0.2-0.5-0.1-0.2-0.2-0.6c0,0.1-0.1-0.1-0.2-0.4l0.1,0.4c-0.4-0.7-0.2-0.6-0.5-1.3l0.1,0.2c-0.2-0.3-0.4-1.3-0.5-1.7
							c0-0.1,0-0.2,0.1,0c-0.2-0.9-0.3-2-0.1-2.7l0,0.1c0-0.2,0-0.3,0.1-0.5c0,0,0,0.1,0,0c0-0.1,0.1-0.4,0.2-0.6c0,0.1,0,0.1,0,0.2
							c0.3-0.8,0.5-1.3,0.9-1.9c0.1,0,0.5-0.5,0.8-0.7l0,0l0.1-0.2l0.2-0.3c0.2-0.2,0.3-0.3,0.4-0.5c0.1-0.1-0.1-0.1-0.1-0.1l-0.3,0
							L29,47.2c-0.4-0.1-0.8-0.2-1.2-0.5c-0.2-0.2-0.6-0.5-0.9-1c-0.3-0.4-0.5-1-0.6-1.4c0,0.1-0.1,0-0.1-0.2
							c-0.1-0.2-0.2-0.6-0.1-0.6l0,0.1c0-0.2,0-0.6-0.1-1l-0.1-0.1c0-0.6,0.1-1.1,0.1-1.7c0.1-0.6,0.1-1.1,0.3-1.3
							c0-0.2,0.1-0.5,0.1-0.7l0.1,0c0.2-0.6,0.3-0.9,0.6-1.6l0,0.2c0.2-0.4,0.1-0.6,0.3-0.9l0.1-0.1c0.4-0.6,1-1.2,1.5-1.7
							c0,0,0,0.1-0.1,0.1c0.3-0.3,1.1-0.8,1-0.8c0,0,0.2-0.1,0.4-0.2c0.1-0.1,0.2-0.1,0.4-0.2c0.1-0.1,0.2-0.1,0.3-0.2l0.1-0.1
							c0,0,0.1,0,0-0.1l0.1,0l0,0l0,0c0,0,0,0,0,0L31,33.4c0,0-0.1-0.1-0.1-0.1c-0.1-0.1-0.1-0.1-0.2-0.2c-0.1-0.1-0.2-0.2-0.3-0.4
							c0-0.1,0-0.1,0,0c-0.1-0.4-0.2-0.2-0.3-0.7l0.1,0.2c-0.1-0.4-0.1-0.3-0.2-0.5c-0.1-0.2-0.1-0.8,0-0.8c0-0.1-0.1-0.3,0-0.5
							c0,0,0,0.1,0,0.1c0.1-0.6,0.1-1,0.3-1.4c0,0,0,0,0.1-0.1c-0.2,0.5-0.3,0.9-0.3,0.9c0.1,0,0.2-0.4,0.1-0.1
							c0-0.3,0.2-0.9,0.4-1.2c0,0,0,0,0,0l0,0c0-0.1,0.1-0.1,0.1-0.2c0.1-0.1,0.1-0.2,0.2-0.3c0.1,0,0.3-0.4,0.5-0.5
							c-0.1,0,0.1-0.2-0.1-0.1c0,0,0,0-0.1,0.1c0,0,0,0.1-0.1,0.1c0,0,0,0,0,0c-0.1,0.1-0.2,0.2-0.3,0.4c0.1-0.2,0.2-0.3,0.3-0.5
							c0-0.1,0.1-0.2,0.1-0.3c0.3-0.2,0.7-0.5,0.8-0.5c0.5-0.4,1.3-0.8,1.6-1.1c0.2-0.1,0.2-0.1,0.3-0.1c-0.1,0-0.2,0.1-0.3,0.1
							c0.2-0.1,0.4-0.2,0.6-0.3c0.3-0.1,0.6-0.2,0.6-0.2c0.1,0,0.1,0,0.1,0C35,25,35.7,25.7,35,25l0.1,0.1L35,24.9
							c0-0.1-0.1-0.1-0.1-0.1c0-0.1-0.1-0.1-0.1-0.2c0-0.1-0.1-0.2-0.1-0.4c0-0.2,0-0.5,0.1-0.7c0.1-0.5,0.5-1,1.2-1.2
							c-0.1,0-0.1,0-0.2,0c0.7-0.3,1.6-0.3,2.4-0.3c0.8,0,1.7,0.2,2.2,0.7c0.1,0.2,0.2,0.2,0.2,0.3c0,0.1,0.1,0.1,0.1,0.3l-0.1,0.2
							l0,0.1c0.2,0,0.4-0.1,0.6-0.1c0.3,0,0.6,0.2,0.8,0.4c0.2,0.2,0.4,0.4,0.6,0.8l0-0.1c0.2,0.2,0.3,0.9,0.3,0.8
							c0,0,0.1,0.1,0,0.2l0,0c0,0.2,0,0.5,0,0.7c-0.1,0.6-0.1-0.1-0.3,0.7c-0.1,0.3-0.1,0.9-0.1,0.8c0-0.1,0.1-0.3,0.1-0.3l-0.1,0.3
							c0.1,0.1,0.1,0.3,0.4-0.4l0.1-0.5l0.1-0.2l-0.1,0.4c0.1-0.2,0.1-0.4,0.1-0.6c0,0,0.1-0.1,0.1-0.2c0-0.2,0-0.3-0.1-0.5
							c0-0.1,0.1,0.2,0.1-0.1c0-0.2-0.1,0.2-0.1-0.2c0-0.2,0.1-0.2,0-0.5c0,0,0,0,0.1,0.1c-0.1-0.3-0.2-0.7-0.3-0.8
							c-0.1-0.3-0.5-0.7-0.5-0.8c-0.1,0-0.4-0.3-0.6-0.4c0.2,0.1,0-0.1-0.3-0.2c-0.1,0-0.3-0.1-0.4-0.1c0,0,0,0,0-0.1c0,0,0,0-0.1,0
							c0,0,0,0,0-0.1c0-0.1-0.1-0.3-0.2-0.4c-0.2-0.3-0.4-0.4-0.7-0.5c0,0,0.1,0,0.1,0.1c-0.3-0.2-0.4-0.2-0.6-0.3
							c-0.1,0.1-0.6-0.1-0.8-0.1c-0.4-0.1,0.3-0.1,0.1-0.1c0,0-0.7,0-0.6,0.1c-0.3-0.1-0.2,0-0.4-0.1c-0.1,0.1-0.3,0-0.5,0.1
							c-0.4,0-0.1-0.1-0.6,0C36.9,21.7,37.4,21.7,37.4,21.7z M30.4,28.4L30.4,28.4c0-0.1,0.1-0.2,0.1-0.2
							C30.5,28.2,30.4,28.3,30.4,28.4z M30,29.3c0-0.1,0.1-0.2,0.1-0.4c0,0,0,0,0,0.1C30.2,28.9,30.1,29.1,30,29.3z M31.3,27.8
							c-0.1,0.1-0.1,0.1-0.1,0.2C31.2,27.9,31.2,27.8,31.3,27.8L31.3,27.8C31.3,27.7,31.3,27.8,31.3,27.8z"/>
						<path fill="#808181" d="M31.4,27.5C31.4,27.5,31.4,27.5,31.4,27.5C31.4,27.5,31.4,27.5,31.4,27.5L31.4,27.5L31.4,27.5z"/>
						<path fill="#808181" d="M42.3,43.4L42.3,43.4L42.3,43.4C42.3,43.4,42.3,43.4,42.3,43.4z"/>
						<polygon fill="#808181" points="25.7,39.7 25.7,39.7 25.7,39.6 						"/>
						<path fill="#808181" d="M44.2,38.8C44.2,38.8,44.2,38.8,44.2,38.8C44.2,38.8,44.2,38.8,44.2,38.8z"/>
						<path fill="#808181" d="M43,36.9c-0.1-0.1-0.2-0.1-0.3-0.2C42.9,36.8,43,36.9,43,36.9z"/>
						<path fill="#808181" d="M42.4,36.3C42.4,36.3,42.4,36.3,42.4,36.3L42.4,36.3L42.4,36.3z"/>
						<path fill="#808181" d="M44.9,58.1L44.9,58.1C44.9,58.4,44.9,58.3,44.9,58.1z"/>
						<path fill="#808181" d="M43.8,51.9c0,0.1,0,0.2,0.1,0.3C43.8,52,43.8,51.9,43.8,51.9z"/>
						<polygon fill="#808181" points="43.2,66.8 43.2,66.8 43.1,66.8 						"/>
						<path fill="#808181" d="M43.9,52.5c0-0.1,0-0.3,0-0.4C43.9,52.3,43.9,52.4,43.9,52.5z"/>
						<path fill="#808181" d="M43.6,29.4L43.6,29.4C43.6,29.3,43.5,29.3,43.6,29.4L43.6,29.4z"/>
						<path fill="#808181" d="M43.5,29.3L43.5,29.3C43.5,29.2,43.5,29.3,43.5,29.3z"/>
						<path fill="#808181" d="M43.4,29c0,0.1,0.1,0.1,0.1,0.2C43.5,29.1,43.4,29.1,43.4,29z"/>
						<path fill="#808181" d="M44,31.6L44,31.6C44.1,31.6,44,31.6,44,31.6z"/>
						<path fill="#808181" d="M44,32.3c0-0.2,0-0.4,0-0.6l0,0C44.1,31.7,44,32.1,44,32.3z"/>
						<path fill="#808181" d="M43.1,34.9c0.1-0.2,0.2-0.3,0.2-0.5c-0.1,0.1-0.1,0.2,0,0C43,35,43.4,34.3,43.1,34.9z"/>
						<path fill="#808181" d="M42,36.4C42.3,36.1,41.9,36.3,42,36.4C41.8,36.5,41.7,36.6,42,36.4z"/>
						<path fill="#808181" d="M43.6,47L43.6,47C43.5,47.2,43.5,47,43.6,47z"/>
						<path fill="#808181" d="M42.7,49.2c0.1,0,0.1-0.1,0.2-0.1l0-0.1C42.9,49.1,42.8,49.1,42.7,49.2z"/>
						<path fill="#808181" d="M42.7,50.2L42.7,50.2c0,0,0.1,0.1,0.2,0.2L42.7,50.2z"/>
						<path fill="#808181" d="M40.9,66L40.9,66C41,66.2,41.1,66.2,40.9,66z"/>
						<path fill="#808181" d="M34.7,61.3c0,0,0-0.5-0.1-0.7C34.7,60.8,34.7,61.2,34.7,61.3z"/>
						<path fill="#808181" d="M25.9,42.2l0,0.2c0-0.1,0-0.2,0-0.3L25.9,42.2z"/>
					</g>
				</g>
			</g>
		</g>
	</g>
	<g>
		<g>
			<g>
				<g>
					<g>
						<path fill="#808181" d="M45.2,75.3C45.2,75.3,45.2,75.4,45.2,75.3L45.2,75.3L45.2,75.3z"/>
						<path fill="#808181" d="M45.6,75.4c0.1,0,0.1-0.1,0.1-0.2C45.6,75.3,45.6,75.3,45.6,75.4c-0.1,0-0.2,0-0.2,0
							c0,0-0.1,0-0.1,0.1C45.4,75.4,45.5,75.4,45.6,75.4C45.6,75.3,45.6,75.4,45.6,75.4z"/>
						<path fill="#808181" d="M51.3,73.9L51.3,73.9C51.3,73.9,51.3,73.9,51.3,73.9z"/>
						<path fill="#808181" d="M54.7,72.5C54.7,72.5,54.7,72.5,54.7,72.5C54.7,72.5,54.7,72.5,54.7,72.5z"/>
						<path fill="#808181" d="M55.3,72.3C55.3,72.3,55.3,72.3,55.3,72.3C55.3,72.3,55.3,72.3,55.3,72.3z"/>
						<path fill="#808181" d="M51.3,73.9l0.1,0C51.4,73.9,51.4,73.9,51.3,73.9z"/>
						<path fill="#808181" d="M46.4,75C46.3,75.1,46.3,75.1,46.4,75L46.4,75L46.4,75z"/>
						<path fill="#808181" d="M49.8,74.5L49.8,74.5C49.8,74.5,49.8,74.5,49.8,74.5L49.8,74.5z"/>
						<path fill="#808181" d="M48.6,74.8C48.7,74.8,48.6,74.8,48.6,74.8C48.6,74.8,48.6,74.8,48.6,74.8
							C48.6,74.8,48.6,74.8,48.6,74.8z"/>
						<path fill="#808181" d="M46.7,75.2L46.7,75.2L46.7,75.2z"/>
						<path fill="#808181" d="M50.7,74.2C50.7,74.2,50.7,74.2,50.7,74.2C50.7,74.2,50.7,74.2,50.7,74.2z"/>
						<path fill="#808181" d="M70.4,48.1L70.4,48.1C70.4,48.1,70.4,48.1,70.4,48.1z"/>
						<polygon fill="#808181" points="70.8,46.7 70.8,46.7 70.9,46.7 						"/>
						<path fill="#808181" d="M56.4,71.8L56.4,71.8C56.3,71.8,56.3,71.8,56.4,71.8z"/>
						<path fill="#808181" d="M64.3,64.8C64.1,64.9,64.3,64.6,64.3,64.8C64.2,64.7,64.1,64.9,64.3,64.8z"/>
						<path fill="#808181" d="M46.4,75L46.4,75C46.4,75,46.4,75,46.4,75z"/>
						<polygon fill="#808181" points="64.2,64.7 64.2,64.7 64.2,64.7 						"/>
						<path fill="#808181" d="M58.6,70.3C58.6,70.3,58.5,70.3,58.6,70.3C58.5,70.3,58.5,70.3,58.6,70.3z"/>
						<path fill="#808181" d="M56.9,71.3L56.9,71.3C56.9,71.3,56.9,71.3,56.9,71.3z"/>
						<path fill="#808181" d="M59.3,69.6C59.4,69.6,59.4,69.6,59.3,69.6C59.4,69.6,59.4,69.6,59.3,69.6
							C59.4,69.6,59.4,69.6,59.3,69.6z"/>
						<polygon fill="#808181" points="60.2,68.9 60.2,68.9 60.1,69 						"/>
						<path fill="#808181" d="M69.9,51.3C70,51.3,70,51.3,69.9,51.3C70,51.3,70,51.1,69.9,51.3z"/>
						<path fill="#808181" d="M46.4,75.1C46.4,75.1,46.4,75.1,46.4,75.1L46.4,75.1C46.4,75.1,46.4,75.1,46.4,75.1z"/>
						<path fill="#808181" d="M59.1,69.2l0.1-0.1C59.2,69.2,59.2,69.2,59.1,69.2z"/>
						<path fill="#808181" d="M67.6,58.5L67.6,58.5C67.6,58.4,67.6,58.4,67.6,58.5z"/>
						<path fill="#808181" d="M59.6,68.8C59.7,68.8,59.7,68.8,59.6,68.8c0.1,0,0.1,0,0.1-0.1L59.6,68.8z"/>
						<path fill="#808181" d="M70,51.2L70,51.2L70,51.2z"/>
						<path fill="#808181" d="M70.1,50.1c0,0.2,0.1,0.1,0.1,0.1c0,0.2-0.1,0.1-0.1,0.1c0,0.1,0,0.2,0,0.3c0,0,0,0,0,0
							c0,0.1-0.1,0.4,0,0.5c0,0,0,0,0,0c0,0,0.1,0,0.1,0c0,0.1,0,0.1,0,0.2c0,0,0-0.1,0-0.1l0,0.1c-0.1,0.1,0-0.1-0.1-0.1
							c0,0.1,0,0.3,0,0.4c-0.1,0,0-0.3-0.1-0.1l0.1-0.2c-0.1,0.1,0-0.1-0.1,0c-0.1,0.2,0,0.3-0.1,0.5c0,0.1,0.1,0,0.1,0.1
							c0,0.3-0.2,0.2-0.2,0.5c0,0.1,0.1,0.1,0,0.3l-0.1-0.1c-0.1,0.2,0.1,0.1,0,0.4c0,0,0-0.2,0-0.1c-0.1,0.1,0,0.1,0,0.2l-0.1,0
							c-0.1,0.2-0.1,0.5-0.1,0.7c0,0,0-0.1-0.1,0c-0.1,0.3-0.2,0.7-0.3,1l0,0.1c0,0,0,0,0,0c-0.1,0.1,0,0,0,0.1c0,0.1-0.1,0.1-0.1,0
							c0,0.2-0.1,0.6-0.2,0.8l0,0c-0.1,0.2,0,0.2-0.1,0.4l0,0c-0.2,0.4-0.3,0.8-0.5,1c0.1,0.1-0.2,0.3-0.1,0.4
							c-0.1,0.2-0.1,0.1-0.3,0.4c0,0.1,0,0.1,0,0.2l-0.1,0l0,0.2l-0.1,0l0,0.1c0,0,0.1-0.1,0.1-0.1c0,0.1-0.2,0.3-0.2,0.3L67.3,59
							c0,0,0-0.1,0-0.1c0,0.2-0.1,0-0.1,0.2c0,0,0,0,0,0c-0.1,0.1-0.2,0.2-0.2,0.4l0,0c-0.1,0.2-0.2,0.5-0.4,0.8
							c0.1-0.1,0.1,0,0.1,0.1l-0.1,0c0,0.1,0.1-0.1,0.1,0.1c-0.1,0.1-0.1,0-0.1,0l0,0.1c0,0,0,0,0-0.1c0,0.1-0.2,0.2-0.1,0.3l0,0
							c-0.1,0.3-0.2,0.4-0.3,0.6c0,0,0,0.1,0,0.2c-0.1,0.1-0.2,0.3-0.3,0.5c-0.1,0.1,0,0.1,0,0.1c0,0-0.2,0.2-0.1,0.1
							c-0.1,0.2-0.2,0.3-0.3,0.6c0,0,0.1,0,0.1,0c0,0.1-0.1,0.1-0.1,0.1l0,0c-0.1,0.4-0.6,0.6-0.7,0.9l0,0l-0.1,0.3
							c-0.1,0.1,0-0.1-0.1,0c-0.1,0.3-0.3,0.4-0.4,0.7c-0.2,0.1-0.5,0.6-0.7,0.7l0,0c0,0.1-0.1,0.1-0.1,0.1c0,0,0.1,0,0.1,0
							c-0.4,0.5-0.9,0.9-1.3,1.3c-0.2,0.2,0,0.2-0.2,0.4l0-0.1c-0.3,0.4-0.7,0.7-1,1c0,0,0,0,0-0.1c-0.1,0-0.3,0.2-0.2,0.3
							c-0.1,0,0,0-0.1,0c-0.1,0-0.1,0.2-0.2,0.2c0,0,0,0,0,0c0,0.1-0.2,0.2-0.1,0.2c-0.1,0.1-0.2,0.2-0.4,0.3c0,0.1-0.2,0.2-0.2,0.2
							c0-0.1-0.3,0.1-0.3,0.2c0,0-0.1,0-0.1,0c-0.1,0.1-0.2,0.2-0.1,0.2c-0.2,0.1-0.3,0.3-0.5,0.3c-0.3,0.3-0.5,0.5-0.8,0.7
							c0-0.1,0.3-0.2,0.2-0.3c-0.2,0.2-0.3,0.4-0.6,0.5c-0.1,0,0-0.1,0-0.1c-0.2,0.2-0.5,0.3-0.7,0.5c0,0,0,0,0,0
							c0,0-0.1,0.1-0.1,0.1l0,0c0.1,0-0.1,0.2-0.1,0.2c0-0.1-0.3,0.1-0.2-0.1c0,0-0.1,0.1,0,0.1c-0.1,0-0.1,0,0,0
							c-0.2,0.1-0.1,0.1-0.2,0.2c0,0,0,0,0-0.1c-0.1,0.1-0.1,0.2-0.3,0.2c0,0,0,0,0,0c-0.2,0.1-0.3,0.3-0.6,0.4c0-0.1-0.1,0-0.1,0
							l-0.1,0.1l0.1,0c-0.1,0.1-0.2,0.2-0.3,0.2l0.1-0.1l-0.2,0.1l0.1,0c-0.1,0.1,0.1,0.1-0.1,0.1c0,0-0.1,0.1-0.2,0l0,0
							c0,0.1-0.1,0.1-0.2,0.1c0,0,0-0.1,0-0.1c0,0.1-0.3,0.2-0.3,0.2c0,0,0-0.1,0-0.1l0,0.1c-0.1,0-0.1,0-0.1,0
							c-0.2,0.1,0.1,0.1-0.1,0.1c0,0,0,0,0,0c-0.2,0.1-0.4,0.2-0.6,0.3c-0.1,0,0.2-0.1,0.1-0.1c-0.3,0.1-0.5,0.3-0.8,0.4l0.1,0
							c0,0.1-0.2,0-0.3,0.1c0,0,0-0.1,0-0.1c-0.2,0.1-0.4,0.2-0.6,0.3l0,0c-0.1,0-0.3,0.1-0.4,0.1c0,0-0.1,0.1,0,0.1
							c-0.4,0-0.7,0.3-1,0.3c0,0,0.1-0.1,0.1,0l-0.3,0.1c0,0,0,0,0.1,0c0,0-0.1,0.1-0.2,0.1c0.1-0.1,0-0.1-0.1-0.1c0,0,0,0,0,0
							c-0.2,0,0,0.1-0.2,0.1l0,0c-0.1,0-0.1,0.1-0.2,0.1c0,0,0.1,0,0.1-0.1c-0.1,0-0.2,0.2-0.3,0.1c0.1,0,0.1,0,0.2-0.1
							c-0.1,0-0.1,0-0.2,0l0,0l-0.2,0l0.1,0c-0.1,0.2-0.3,0.1-0.4,0.2c0.2-0.1,0-0.1,0-0.1c-0.1,0-0.1,0-0.1,0
							c-0.1,0.1-0.2,0-0.3,0.1c0,0-0.1,0-0.1,0c-0.1,0,0,0,0,0.1c-0.2,0.1-0.4,0-0.7,0.2c-0.2,0.1-0.2,0.2-0.4,0.2
							c-0.1,0,0-0.1,0-0.1c-0.1,0-0.2,0-0.3,0.1c0,0,0,0,0,0c-0.1,0,0,0.1-0.2,0.1c0,0,0-0.1,0.1-0.1c-0.1,0-0.2,0.1-0.3,0.1
							c0,0,0.1-0.1,0.1-0.1c-0.1,0-0.3,0.1-0.3,0.2l0.1,0c0,0,0,0,0-0.1c0.1-0.1,0.2,0,0.2,0l-0.1,0c0.1,0.1,0.3-0.1,0.5-0.1l0,0.1
							l0.1-0.1c0,0,0.1,0.1,0,0.1c0.1,0,0.1,0,0.2,0c0,0,0,0,0,0l0.1,0c0,0,0,0.1,0,0.1c0.2,0,0.3-0.1,0.4-0.1l0,0
							c0.3-0.1,0-0.1,0.2-0.2l0.2,0.1l0-0.1c0,0,0.1,0,0.1,0c0.1-0.1,0,0,0-0.1c0.1,0,0.4-0.1,0.4,0c0-0.1-0.1,0,0-0.1
							c0.1,0.1,0.2-0.1,0.3,0c0,0.1-0.1,0.1,0,0.1c0-0.1,0.2,0,0.3-0.1c0-0.1,0.2-0.1,0.4-0.2c0,0,0.3,0,0.5-0.1l0,0
							c0-0.1,0.2-0.1,0.3-0.2c0,0,0,0.1-0.1,0.1l0.1,0c0,0,0-0.1,0.1-0.1l0,0.1c0.1-0.1,0.3-0.2,0.5-0.2c0-0.1-0.2-0.1,0-0.2
							c0,0,0,0.1,0,0.1c0,0,0.1,0,0.1,0l-0.1,0.1c0.1,0,0-0.1,0.1-0.1c0,0,0.1,0,0.1,0c0,0-0.1,0-0.1,0c0.1,0,0.2,0,0.2,0
							c0,0,0,0,0-0.1c0.1-0.1,0.1,0,0.2,0c0,0,0.1,0,0.1-0.1c0,0,0.1,0,0.1,0c0.1,0,0.3-0.1,0.2-0.2l0,0l0,0l0,0l0,0
							c0.2-0.1,0.5-0.2,0.7-0.3l0,0c0.1-0.1,0.3-0.1,0.4-0.2c0,0,0.1,0,0.1,0c0.1-0.1,0.1-0.1,0.3-0.1c-0.1,0.1,0,0-0.1,0.1
							c0.1,0,0.2,0,0.3-0.1c0,0.1,0.1,0,0.2,0l-0.1,0c0.1,0,0.1-0.1,0.2-0.1l0,0.1c0.3,0,0.5-0.4,0.7-0.3c0.1-0.1-0.2,0-0.1,0
							c0.1-0.1,0.3,0,0.3-0.1c0.2-0.1,0.1-0.2,0.3-0.2c0,0-0.1-0.1,0-0.1c0.1-0.1,0.2,0,0.1,0.1c0,0,0,0-0.1,0c0,0-0.1,0.1,0,0.1
							l0,0c0.1,0,0.3-0.1,0.2,0c0.1-0.1,0-0.1-0.1,0c0.2-0.1,0.3-0.1,0.4-0.2c0,0-0.1,0,0,0c0.3-0.1,0.1-0.1,0.2-0.2
							c0.1,0,0,0.1,0.2,0c0.1,0,0.1,0,0,0.1C55.8,72,56,72,56,72L56,72c0,0,0.1-0.1,0.1-0.1l-0.1,0c0.1,0,0.1,0,0.1,0
							c0-0.1-0.1,0,0-0.1c0.1,0,0.2-0.1,0.2-0.1c-0.2,0.1,0.1,0-0.1,0.1c0,0,0.1,0,0.1-0.1c0,0,0,0,0,0c0.2-0.1,0-0.1,0.2-0.2
							c0,0,0.1,0,0.1,0c-0.1,0-0.1,0,0-0.1c0.1,0,0.1-0.1,0.2-0.1l-0.1,0c0,0,0.1-0.1,0.1-0.1c0,0-0.1,0.1,0,0.1
							c0.1-0.1,0.2-0.1,0.3-0.2c0.1,0,0,0.1,0.1,0c0.1-0.1,0.2-0.1,0.3-0.2c-0.1,0-0.1,0,0-0.1L57.5,71l0.1-0.2
							c-0.1,0-0.1,0.1-0.2,0.2c0.1-0.1,0.1-0.1,0-0.1c0.1,0,0.2-0.2,0.3-0.2l0.1,0.1c0.2-0.1,0.3-0.3,0.5-0.4l-0.1,0
							c0-0.1,0.1-0.1,0.2-0.2c0,0,0.1,0,0.1,0c0,0,0.2-0.1,0.1-0.2l0.1,0c0.2-0.1,0.1-0.2,0.3-0.4c0,0.1,0.1,0,0,0.1
							c0.1,0,0.1-0.1,0.1-0.1c0,0,0.1-0.2,0.2-0.2c0,0,0-0.1,0.1-0.1c0,0,0,0,0,0c0,0,0.1-0.1,0-0.1c0.3,0,0.5-0.4,0.7-0.4
							c0.1-0.1,0.2-0.2,0.4-0.3c0,0,0,0,0,0c0.2-0.1,0-0.2,0.2-0.3c0.1,0-0.1,0.1,0,0.1c0.1,0.1,0.2-0.2,0.4-0.2l0,0
							c0.1,0,0.2-0.2,0.3-0.4c0,0,0,0,0,0c0-0.1,0.2-0.3,0.3-0.5c0,0.1,0,0.1,0,0.1c0.1-0.1-0.1,0,0-0.2c0.1,0,0.2-0.1,0.2-0.1
							l-0.1,0.1c0.1,0,0.1-0.1,0.2-0.2l0,0c0.2-0.2,0.1-0.2,0.3-0.4l0,0c0-0.2,0.1-0.1,0.2-0.2l0.1,0c0-0.1,0.2-0.3,0.3-0.4
							c0,0.1-0.1,0.3-0.2,0.4c0.1-0.1,0.2-0.2,0.2-0.3c0,0,0,0.1-0.1,0.1c0-0.1,0.1-0.3,0.2-0.4c0.1,0.1,0.3-0.3,0.5-0.3
							c0.2-0.3,0.4-0.5,0.6-0.8c-0.2,0,0.1-0.1,0-0.1c0-0.1,0.1-0.1,0.1-0.1l0.2-0.2c0.1,0,0,0.1,0,0.1c0.1-0.1,0.1,0,0.2-0.1
							c0,0,0-0.1,0.1-0.2l-0.1,0.1c0.1-0.3,0.2-0.1,0.3-0.4l0,0.1c0.1-0.1,0.3-0.4,0.3-0.6c0,0,0.1,0,0,0c0.2-0.3,0.3-0.7,0.5-0.8
							l0,0c0-0.1,0-0.1,0.1-0.2c0,0,0,0,0,0c0,0,0-0.2,0.1-0.2l0,0.1c0.2-0.2,0.2-0.4,0.3-0.7c0.1,0,0.2-0.2,0.3-0.3l0,0
							c0.2-0.3,0.3-0.6,0.4-0.9c0.2-0.1,0.4-0.6,0.6-0.9c0,0-0.1,0,0-0.1c0.1-0.1,0-0.2,0.1-0.2l0,0c0.1,0,0.1-0.2,0.2-0.3l-0.1-0.1
							c0.3-0.2,0.3-0.8,0.5-0.9c0-0.1,0-0.2,0.1-0.3l0,0c0.1-0.2,0.2-0.3,0.2-0.6l0,0.1c0.1-0.1-0.1-0.2,0-0.4l0.1,0
							c0.1-0.3,0.3-0.5,0.3-0.8c0,0,0,0,0,0.1c0-0.1,0.2-0.4,0.1-0.4c0.1,0,0.1-0.3,0.1-0.4l0,0c0-0.1,0-0.2,0-0.3c0,0,0.1,0,0,0
							c0.1-0.1,0-0.1,0.1-0.3l0,0.1c0-0.1,0-0.1,0-0.2c0-0.1,0.1-0.2,0.2-0.3c0,0,0-0.1,0-0.2c0,0,0,0,0,0c0.1-0.2,0-0.4,0.1-0.5
							c0,0,0,0,0,0c-0.1,0.2-0.1,0.3-0.1,0.3c0,0,0.1-0.1,0.1,0c0-0.1,0-0.4,0-0.5l0,0l0,0c0,0,0-0.1,0-0.1c0,0,0-0.1,0.1-0.1
							c0,0,0.1-0.2,0.1-0.2c-0.1,0,0-0.1-0.1,0c0,0,0,0,0,0.1c0,0,0,0,0,0l0,0c0,0,0,0.1,0,0.2c0-0.1,0-0.1,0-0.2c0,0,0-0.1-0.1-0.1
							c0.1-0.1,0.2-0.3,0.2-0.3c0-0.2,0.1-0.5,0.1-0.7c0-0.1,0-0.1,0.1-0.1c0,0,0,0.1,0,0.1c0-0.1,0.1-0.4,0-0.4
							c0.1-0.2,0,0.1,0.1-0.1l0,0c0.2-0.4,0-0.7,0.2-1.2c0,0,0,0,0,0.1c0.2-0.5,0.1-1.2,0.3-1.7c0-0.2,0-0.2,0-0.3l0.1,0l0-0.2
							c0-0.2,0.2-0.4,0.1-0.7l0,0c0-0.1,0-0.3,0.1-0.3c0,0,0,0,0-0.1l0,0l0-0.3c0-0.2,0.1,0,0.1-0.3c0-0.1-0.1-0.3-0.1-0.3
							c0,0,0,0.1-0.1,0.1l0-0.1c-0.1,0-0.2-0.1-0.3,0.1l0,0.2l0,0.1l0-0.1c0,0.1,0,0.1,0,0.2c0,0,0,0-0.1,0.1l0.1,0.2
							c0,0-0.1-0.1-0.1,0c0,0.1,0.1-0.1,0.1,0.1c0,0.1-0.1,0.1-0.1,0.1c0,0,0,0,0,0c0,0.1,0,0.2,0,0.3c-0.1,0.1,0,0.3-0.1,0.3
							c0,0,0.1,0.2,0,0.2c-0.1-0.2,0,0.3-0.2,0.2c0.1,0.1,0,0.4,0,0.6c0,0,0,0,0,0c0,0.1-0.1,0.1-0.1,0.2c0.1,0,0.1,0.2,0.1,0.3
							c-0.1,0.1-0.1-0.1-0.2-0.1c0.1,0,0,0.2,0.1,0.2c-0.1,0.1,0,0.1-0.1,0.1c0.1,0,0,0.1,0,0.2C70.2,50.2,70.1,50.1,70.1,50.1
							C70.1,50.3,70.1,50.1,70.1,50.1z M69.4,53.8L69.4,53.8C69.4,53.8,69.4,53.7,69.4,53.8C69.4,53.7,69.4,53.8,69.4,53.8z
							 M69.3,54.1c0,0,0-0.1,0-0.1C69.4,54,69.4,54,69.3,54.1C69.4,54,69.3,54.1,69.3,54.1z M69.9,53.6
							C69.8,53.6,69.8,53.6,69.9,53.6C69.8,53.6,69.8,53.6,69.9,53.6L69.9,53.6C69.8,53.6,69.8,53.6,69.9,53.6z"/>
						<polygon fill="#808181" points="69.8,53.5 69.8,53.4 69.8,53.5 69.8,53.5 						"/>
						<path fill="#808181" d="M51.3,73.9L51.3,73.9C51.3,73.9,51.3,73.9,51.3,73.9L51.3,73.9z"/>
						<polygon fill="#808181" points="67.7,58.1 67.7,58.1 67.7,58.1 						"/>
						<path fill="#808181" d="M49.6,74.3C49.6,74.3,49.6,74.3,49.6,74.3C49.6,74.3,49.6,74.3,49.6,74.3z"/>
						<path fill="#808181" d="M48.9,74.5l-0.1,0C48.8,74.5,48.8,74.5,48.9,74.5z"/>
						<path fill="#808181" d="M48.3,74.6C48.3,74.6,48.3,74.6,48.3,74.6L48.3,74.6L48.3,74.6z"/>
						<path fill="#808181" d="M56.7,71L56.7,71C56.7,71,56.7,71,56.7,71z"/>
						<path fill="#808181" d="M54.3,72.5C54.4,72.4,54.4,72.4,54.3,72.5C54.4,72.4,54.3,72.4,54.3,72.5z"/>
						<polygon fill="#808181" points="59.1,69.3 59.1,69.3 59.1,69.2 						"/>
						<path fill="#808181" d="M54.5,72.3c0,0-0.1,0-0.1,0.1C54.4,72.4,54.5,72.4,54.5,72.3z"/>
						<polygon fill="#808181" points="45.9,75.1 45.8,75.1 45.8,75.2 						"/>
						<path fill="#808181" d="M45.8,75.2L45.8,75.2C45.8,75.2,45.8,75.2,45.8,75.2z"/>
						<path fill="#808181" d="M45.7,75.2L45.7,75.2C45.8,75.2,45.8,75.2,45.7,75.2z"/>
						<path fill="#808181" d="M46.6,75L46.6,75C46.6,75,46.6,75,46.6,75z"/>
						<path fill="#808181" d="M46.8,75c-0.1,0-0.1,0-0.2,0l0,0C46.6,75,46.8,75,46.8,75z"/>
						<path fill="#808181" d="M47.8,75l-0.2,0c0,0,0.1,0,0,0.1C47.9,75.1,47.6,75.1,47.8,75z"/>
						<path fill="#808181" d="M48.4,74.9C48.3,74.9,48.4,74.9,48.4,74.9C48.5,74.9,48.5,74.9,48.4,74.9z"/>
						<path fill="#808181" d="M52.6,73.5L52.6,73.5C52.7,73.5,52.6,73.5,52.6,73.5z"/>
						<polygon fill="#808181" points="53.2,72.9 53.2,72.9 53.1,73 						"/>
						<polygon fill="#808181" points="53.8,73 53.8,73.1 53.9,73 						"/>
						<path fill="#808181" d="M60.1,69.1L60.1,69.1C60,69.1,60,69.2,60.1,69.1z"/>
						<path fill="#808181" d="M62.3,66.9c0,0,0.1-0.1,0.1-0.1C62.4,66.8,62.4,66.9,62.3,66.9z"/>
						<polygon fill="#808181" points="67.8,59.1 67.8,59.2 67.8,59 						"/>
					</g>
				</g>
			</g>
		</g>
	</g>
</g>
</svg>
