<?xml version="1.0" encoding="utf-8"?>
<!-- Generator: Adobe Illustrator 23.1.0, SVG Export Plug-In . SVG Version: 6.00 Build 0)  -->
<svg version="1.1" id="Capa_1" xmlns="http://www.w3.org/2000/svg" xmlns:xlink="http://www.w3.org/1999/xlink" x="0px" y="0px"
	 viewBox="0 0 89.2 89.2" enable-background="new 0 0 89.2 89.2" xml:space="preserve">
<g>
	<g>
		<path fill="#D8B58B" d="M56.8,36.2c0.3,5.3-3.7,9.8-9,10.2c-5.3,0.3-9.8-3.7-10.2-9C37.3,32,40.8,18.3,46.1,18
			S56.5,30.9,56.8,36.2z"/>
		<g>
			<g>
				<g>
					<g>
						<path fill="#808181" d="M56.9,36.4c0-0.3-0.1,0.2,0-0.2C56.9,36.2,56.9,36.3,56.9,36.4z"/>
						<path fill="#808181" d="M56.8,35.3c-0.3-0.9-0.4-2-0.7-2.9c0-0.1,0.1,0,0-0.2c-0.4-0.9-0.7-2.3-1.1-3.4l0,0.1
							c-0.1-0.2-0.2-0.4-0.3-0.7c0,0,0,0.1,0,0c-0.1,0-0.2-0.4-0.2-0.5c0-0.1,0-0.1,0-0.2l-0.1-0.1c-0.3-0.3-0.3-0.8-0.6-1.3
							c0,0,0.1,0.1,0,0c-0.4-0.7-0.8-1.6-1.3-2.4c0,0,0.1,0,0.1,0c-0.1,0-0.2-0.2-0.4-0.4c0-0.1-0.3-0.3-0.4-0.6l0,0
							c-0.2-0.1-0.1-0.3-0.3-0.4l0-0.1c-0.1,0-0.1-0.3-0.3-0.4l0,0c-0.1-0.1-0.1-0.2-0.2-0.3l0,0c-0.2-0.3-0.3-0.5-0.4-0.4
							c0-0.1,0.2,0.3,0.2,0.1c-0.8-0.9-1.6-1.8-2.6-2.4c-0.1-0.1-0.2-0.1-0.2-0.2c-0.1-0.1-0.4-0.2-0.5-0.2c0,0-0.1-0.1-0.1-0.1
							c-0.2-0.1-0.2,0-0.5-0.1c0.1,0,0.1,0,0.1,0c-0.2,0-0.5-0.1-0.7-0.1c0,0,0.1,0,0.1,0c-0.3,0.1-0.5,0-0.7,0l0.1,0
							c-0.4,0-0.1,0.1-0.4,0.1c0.1,0,0,0,0.1-0.1c-0.1,0.1-0.3,0.1-0.5,0.2c-0.2,0.1-0.3,0.2-0.5,0.2c0,0,0,0,0,0
							c-0.3,0.2-0.6,0.3-0.8,0.6c-0.1,0.1,0-0.1-0.3,0.1c0.1,0-0.4,0.4-0.2,0.3c-0.2,0.2-0.5,0.5-0.6,0.7c0.1-0.1-0.2,0.1,0-0.1
							l-0.1,0.1c0,0,0.1-0.1,0.1-0.1c-0.1,0.1-0.3,0.4-0.3,0.5c-0.1,0.2-0.1,0.4-0.3,0.7c0.1-0.2-0.1,0-0.1-0.1l-0.1,0.5
							c-0.1,0.1-0.1,0-0.1,0.2c0,0,0,0.1,0,0.1c0,0-0.2,0.4-0.3,0.5c-0.1,0,0.1-0.2,0-0.1c-0.1,0.2-0.1,0.2-0.2,0.4l0,0
							c-0.1,0.1-0.2,0.4-0.1,0.3c0-0.1-0.1,0,0-0.1c0,0.1-0.1,0.3-0.2,0.5c0-0.1,0-0.1,0-0.1c-0.1,0.3-0.2,0.6-0.3,0.9
							c0,0,0-0.1,0-0.2c-0.2,0.4-0.3,0.8-0.5,1.1c0-0.1,0.1,0,0,0c-0.1,0.2-0.1,0.2-0.1,0.3c0,0-0.1,0.2-0.1,0.3c0,0.1,0,0,0-0.1
							c0,0.2-0.3,0.9-0.4,1.3c0,0,0,0.3,0,0.4l0-0.1c-0.1,0.1-0.1,0.3-0.1,0.3c0,0.2,0.2-0.8,0.2-0.5c-0.1,0.1-0.1,0.4-0.1,0.3
							c-0.1,0.2-0.1,0.4-0.2,0.6c0-0.1,0-0.2-0.1,0c-0.1,0.3,0,0.1-0.1,0.3l0,0.1c0,0-0.1,0.2,0,0.2c0,0-0.1,0.4-0.2,0.4l0-0.1
							c0,0.1,0,0.2,0,0.3c0,0,0,0,0,0c0.1,0-0.1,0.3,0,0.4c-0.1,0.2-0.2,0.6-0.2,0.8c0,0.2,0,0.4-0.1,0.6c0,0,0-0.1,0-0.1
							c-0.1,0.1,0,0.2-0.1,0.3c0,0-0.1,0.3-0.2,0.4c0,0.2,0,0.1,0.1,0.2c-0.1,0.2,0,0.6-0.2,0.8c0-0.1,0-0.3,0-0.1
							c-0.1,0.2,0,0.4-0.1,0.7l0.1-0.1c-0.1,0.1,0,0.4-0.1,0.4c0,0.1-0.1,0.3,0,0.3c-0.1,0.5-0.1,1.2-0.2,1.5c0,0.1,0,0.2,0,0.2
							c0-0.1,0-0.2,0-0.2c0,0.1,0,0.1,0,0.1c0,0.1,0,0.3-0.1,0.1c-0.1,0.3,0.1,0.4,0.1,0.8c0,0,0,0,0,0.1l0,0.2
							c0,0.3-0.1,0.2-0.1,0.2c0,0.1,0,0.3,0.1,0.4c0,0.1,0,0.1-0.1,0.2c0-0.1,0,0.1,0.1,0.2l0-0.1c0,0,0,0.2,0,0.3c0,0,0-0.2,0-0.3
							c0,0.1,0,0.2,0.1,0.3c-0.1,0,0,0.2,0,0.4c0,0.1,0.1,0.1,0.1,0.2c0,0,0,0.2,0,0.1c0,0,0-0.1,0-0.2c0,0.1,0,0.1,0,0.3
							c0.1,0.1,0.1-0.1,0.1,0.2c0-0.1,0-0.1-0.1-0.1l0,0.2l0,0c0,0,0,0,0,0c0.1,0.1,0.1,0.4,0.2,0.4c0,0.1,0,0.3,0.1,0.4l0,0
							c0,0.1,0.1,0.3,0.2,0.4l0,0c0,0.1,0.1,0.2,0.2,0.3c0,0.2-0.1,0.1,0,0.3c0.1,0.2,0.2,0.3,0.2,0.2c0.1,0.3,0.4,0.7,0.5,1
							c0,0,0,0,0.1,0.1c0.3,0.5,0.7,0.9,0.9,1.2c-0.1-0.1,0,0-0.1,0c0.1,0.1,0.1,0.1,0.2,0.1c0,0,0,0,0-0.2c0.2,0.2,0.6,0.5,0.7,0.7
							c-0.1-0.1,0,0,0.1,0c-0.1,0,0.1,0.2,0.3,0.3l0,0l0.1,0.1c0.1,0,0.1,0,0.2,0.1c0,0,0,0,0,0.1c0.2,0.1,0.4,0.2,0.6,0.3l0.1,0.1
							c0.1,0,0.2,0.1,0.1,0c0.3,0.2,0.5,0.3,0.5,0.4c0.7,0.2,1.4,0.4,2,0.6l0,0c0.2,0.1,0.1,0,0.2,0c-0.1,0,0.1,0.1,0,0.1
							c0.2,0.1,0.3,0,0.5,0c0,0-0.1,0-0.1,0c0,0,0.3,0.1,0.4,0c0.1,0,0,0.1,0,0.1l0.2,0c0.2,0.1-0.5,0.1-0.3,0.2l0.1,0
							c0.1,0.1-0.4,0,0,0.1c0.2,0,0.3-0.1,0.2-0.1c0.3,0,0.2-0.1,0.5-0.1c0.1,0-0.3,0-0.2,0c0.2,0.1,0.3,0,0.5,0
							c-0.2,0,0-0.1,0.1-0.1c0.2,0-0.1,0.1,0.1,0.1c0,0,0.3-0.1,0.1-0.1c0.1-0.1,0.3,0,0.4,0c0.1,0.1-0.3,0.1,0,0.2
							c0,0,0.3-0.1,0.2-0.2c0.1,0,0.1,0,0,0.1c0.2,0,0.4-0.1,0.4,0l0-0.1c0.1,0,0.1,0,0.2,0c0.1,0,0.4-0.2,0.4-0.1
							c0,0,0.4-0.1,0.2-0.1c-0.2,0-0.2,0.1-0.3,0c0.1,0,0.3-0.1,0.4-0.1l0,0c0.1,0,0.2-0.1,0.2-0.1c0,0,0,0,0,0l0.1-0.1
							c0.3-0.1,0.1,0.1,0.3,0l-0.2,0.1c0,0,0.1,0,0.3-0.1c0-0.1,0.1-0.1,0.1-0.2c0.1-0.1,0.1,0,0.2-0.1l-0.2,0.1c0,0,0.1,0,0.3,0
							c0.1-0.1,0.3-0.2,0.1-0.1c0.1,0,0.2-0.1,0.2,0c0.2-0.1,0,0,0.1-0.1c0.1,0,0.3-0.1,0.5-0.1c0,0.1-0.1,0.1-0.2,0.2l0.1-0.1
							c-0.1,0.1,0.1,0,0,0.1c0.1,0,0.2-0.1,0.3-0.2c-0.3,0,0.2-0.3,0.1-0.3c0.3-0.2,0.3,0.1,0.6-0.3c-0.1,0,0-0.1-0.1,0
							c0.2-0.1,0.1-0.2,0.3-0.3c-0.1,0.1,0.2,0,0,0.2c0,0-0.1,0.1-0.2,0.1c0.1,0,0,0.1,0.2,0c0.1-0.1,0.3-0.2,0.2-0.2
							c0,0-0.2,0.1-0.1,0c0.2-0.2,0.3-0.2,0.3-0.3c-0.1,0.1-0.2,0.1-0.2,0.1l0.1-0.2l0,0.1c0.3-0.2,0-0.1,0.3-0.3l0.2,0
							c0,0.1-0.4,0.3-0.3,0.3c0.2-0.1,0.2-0.2,0.4-0.3l-0.1,0.1c0.1-0.1,0.2,0,0.4-0.3c0.1-0.1,0-0.1,0-0.1c0.2-0.3,0.3-0.3,0.4-0.5
							c0,0.1,0.2-0.3,0.2-0.1c-0.1,0.1-0.4,0.4-0.5,0.6c0.1,0-0.2,0.2-0.2,0.3c0.2-0.2,0.2-0.1,0.3-0.1c0.1-0.1,0.1-0.1,0.1-0.2
							c0-0.1-0.1,0-0.1,0c0.2-0.2,0.4-0.4,0.5-0.6c0.1-0.1,0.1,0,0,0.1c0.2-0.3,0.5-0.6,0.7-0.9c-0.2,0.1,0.2-0.3,0.1-0.2
							c-0.1,0.1-0.3,0.2-0.2,0.1c0.1-0.1,0,0,0.1,0c0-0.1,0.2-0.2,0.2-0.3c-0.2,0.3,0,0.1,0.1,0.2c0.1-0.2,0,0,0.2-0.2
							c0.1-0.2,0.2-0.5,0.3-0.8c0.2-0.3,0.4-0.8,0.4-1.1c0.1-0.1,0.1,0,0.2-0.2c0.1-0.2-0.1,0.1,0-0.2l0,0c0-0.1,0.2-0.5,0.1-0.6
							l0.1,0.1c0-0.1,0-0.1,0-0.2c0,0,0.1-0.1,0.1,0c0.1-0.2,0.1-0.4,0.1-0.6l-0.1,0.1c0-0.3,0.1-0.6,0.1-0.9l0,0l0-0.2
							c0,0.1,0.1-0.1,0-0.2c0,0.2,0.1,0.4,0.1,0.5c0,0.1,0-0.2-0.1-0.1c0,0.1-0.1,0.4,0,0.4c0-0.1,0-0.1,0-0.2c0.1,0,0,0.1,0.1,0.2
							c0-0.1,0-0.2,0-0.2c0,0.1,0,0.3,0,0.5c0-0.1,0,0.1-0.1,0c0.1,0,0,0.2,0,0.5c-0.1,0.2,0,0.5-0.2,0.8c0-0.1,0-0.3,0-0.5
							c-0.1,0.2,0,0.2-0.1,0.4c0,0.1,0.1,0.2,0,0.4l0,0c0,0.2,0,0.2-0.1,0.5c-0.1,0.2-0.2,0.4-0.3,0.7c-0.1,0.2-0.2,0.4-0.3,0.6l0,0
							c0,0.2-0.3,0.6-0.4,0.9c-0.3,0.4-0.6,0.8-0.8,1c-0.5,0.6-1.1,1.2-1.8,1.6l0.1-0.1c-0.1,0.1-0.1,0-0.2,0.1
							c0.2-0.1-0.1,0.2-0.2,0.3c-0.4,0.1-0.8,0.4-1.1,0.6l0,0c-0.3,0.2-0.7,0.3-1.1,0.4c-0.1,0-0.1,0-0.3,0
							c-0.2,0.1-0.3,0.1-0.7,0.3c-0.2,0.1-0.6,0.1-0.9,0.1c-0.9,0.2-1.9,0.1-2.9,0l-0.1-0.1c-1-0.1-2.1-0.6-2.8-0.9l0.1,0
							c-0.2-0.1-0.5-0.3-0.5-0.2c-0.2-0.2-0.6-0.3-0.7-0.5c-0.2-0.2-0.3-0.2-0.5-0.3c-0.4-0.3-0.5-0.5-0.9-0.8l0.1,0.1
							c0.1,0,0.1,0,0-0.1c-0.2-0.1-0.5-0.5-0.4-0.3c-0.1-0.2-0.4-0.4-0.6-0.7c-0.2-0.2-0.4-0.5-0.5-0.7c0,0.1-0.1-0.1-0.1-0.1
							c-0.2-0.4-0.4-0.9-0.6-1.2c0-0.1,0.1,0.1,0-0.1c-0.1-0.1,0,0-0.1-0.1c-0.3-0.7-0.4-1.5-0.6-2.1c-0.3-1.2-0.2-2.5-0.1-3.6l0,0
							c0-0.4,0.2-0.9,0.1-1.2c0-0.1,0.1-0.3,0.1-0.3c0-0.3,0.2-0.8,0.2-1.3c0,0,0,0.1,0,0.1c0.1-0.4,0.1-0.8,0.3-1.3
							c0,0,0,0.1,0,0.2c0.1-0.2,0-0.4,0.1-0.5c0-0.1,0-0.1,0,0c0.3-1,0.5-2.1,0.8-3.1c0.3-0.7,0.2,0,0.3-0.6c0,0,0,0,0,0
							c0-0.2,0.2-0.3,0.2-0.5c-0.1,0,0-0.1,0-0.1c0.2-0.4,0.3-0.5,0.4-0.9l0,0c0.1-0.4,0.3-0.9,0.3-1.3c0.5-1.1,1-2.2,1.6-3.2
							c0.6-1,1.4-2,2.4-2.7c1-0.7,2.4-1,3.6-0.5c1.2,0.4,2.1,1.2,2.9,2.1c0.3,0.5,0.3,0.5,0.7,1c0,0-0.1,0,0,0
							c0.1,0,0.3,0.3,0.3,0.3c0.5,0.7,0.9,1.4,1.4,2.2c-0.1-0.1-0.2-0.2-0.1,0l0.1,0.1l0,0c0.1,0.1,0.2,0.2,0.1,0.1
							c1.1,1.9,1.9,4,2.6,6.1c0.1,0.5,0.4,1.2,0.6,1.7c0.4,1.6,0.7,3.1,0.9,4.8C57.1,36.2,56.9,36,56.8,35.3z"/>
						<path fill="#808181" d="M56.9,36.7C56.9,36.8,56.9,37,56.9,36.7C56.9,36.8,56.9,36.7,56.9,36.7z"/>
						<path fill="#808181" d="M55.3,41.5C55.3,41.5,55.3,41.6,55.3,41.5C55.3,41.5,55.3,41.5,55.3,41.5
							C55.3,41.5,55.3,41.5,55.3,41.5z"/>
						<path fill="#808181" d="M54.6,42.6c0,0,0.2-0.3,0.2-0.4C54.7,42.3,54.6,42.4,54.6,42.6z"/>
						<path fill="#808181" d="M53.7,43.4C53.6,43.4,53.6,43.4,53.7,43.4C53.7,43.3,53.7,43.3,53.7,43.4z"/>
						<path fill="#808181" d="M53.7,43.5c-0.1,0.1-0.1,0.1-0.2,0.1C53.5,43.6,53.7,43.4,53.7,43.5z"/>
						<path fill="#808181" d="M51.6,44.9c-0.1,0-0.2,0.1-0.2,0.1C51.4,45,51.6,44.8,51.6,44.9z"/>
						<path fill="#808181" d="M50.5,45.4C50.5,45.5,50.5,45.5,50.5,45.4C50.3,45.5,50.4,45.4,50.5,45.4L50.5,45.4z"/>
						<polygon fill="#808181" points="38.2,32.9 38.2,33.1 38.1,33 						"/>
						<path fill="#808181" d="M40.9,23.6C41,23.4,41,23.5,40.9,23.6C40.9,23.6,41,23.4,40.9,23.6z"/>
						<polygon fill="#808181" points="43.7,19.2 43.7,19.2 43.7,19.1 						"/>
					</g>
				</g>
			</g>
		</g>
	</g>
	<g>
		<path fill="#D8B58B" d="M46.2,22.8c0.7,6.4,1.4,12.8,1.9,19.3"/>
		<g>
			<g>
				<g>
					<g>
						<path fill="#808181" d="M48,42C48,42,48,42,48,42L48,42L48,42z"/>
						<path fill="#808181" d="M48.1,41.8c0,0-0.1-0.1-0.2,0C48,41.8,48,41.8,48.1,41.8C48.1,41.9,48,41.9,48.1,41.8
							C48,41.9,48,41.9,48,42C48.1,41.9,48.1,41.9,48.1,41.8C48.1,41.8,48.1,41.8,48.1,41.8z"/>
						<path fill="#808181" d="M47.9,39.1L47.9,39.1C47.9,39.1,47.9,39.1,47.9,39.1z"/>
						<path fill="#808181" d="M47.8,37.4C47.8,37.4,47.8,37.4,47.8,37.4C47.8,37.4,47.8,37.4,47.8,37.4z"/>
						<path fill="#808181" d="M47.8,37.1C47.8,37.1,47.8,37.1,47.8,37.1C47.8,37.1,47.8,37.1,47.8,37.1z"/>
						<path fill="#808181" d="M47.9,39.1L47.9,39.1C47.9,39,47.9,39.1,47.9,39.1z"/>
						<path fill="#808181" d="M47.9,41.5C47.9,41.5,47.9,41.5,47.9,41.5L47.9,41.5L47.9,41.5z"/>
						<polygon fill="#808181" points="48,39.8 48,39.8 48.1,39.8 						"/>
						<path fill="#808181" d="M48.1,40.4C48.1,40.4,48.1,40.4,48.1,40.4C48.1,40.4,48.1,40.4,48.1,40.4
							C48.1,40.4,48.1,40.4,48.1,40.4z"/>
						<path fill="#808181" d="M48.1,41.3L48.1,41.3L48.1,41.3z"/>
						<path fill="#808181" d="M48,39.4C48,39.4,48,39.4,48,39.4C48,39.4,48,39.4,48,39.4z"/>
						<path fill="#808181" d="M46,23.4L46,23.4C46,23.4,46,23.4,46,23.4z"/>
						<polygon fill="#808181" points="46.2,22.8 46.2,22.8 46.3,22.8 						"/>
						<path fill="#808181" d="M47.9,36.6L47.9,36.6C47.9,36.6,47.9,36.6,47.9,36.6z"/>
						<path fill="#808181" d="M47.3,31.7c0,0.1-0.1-0.1-0.1,0C47.2,31.7,47.3,31.8,47.3,31.7z"/>
						<path fill="#808181" d="M47.9,41.4L47.9,41.4C47.9,41.4,47.9,41.4,47.9,41.4z"/>
						<polygon fill="#808181" points="47.2,31.7 47.2,31.7 47.2,31.7 						"/>
						<path fill="#808181" d="M47.7,35.3C47.7,35.3,47.7,35.4,47.7,35.3C47.7,35.4,47.7,35.4,47.7,35.3z"/>
						<path fill="#808181" d="M47.7,36.3L47.7,36.3C47.7,36.2,47.7,36.3,47.7,36.3z"/>
						<path fill="#808181" d="M47.6,34.9C47.6,34.9,47.6,34.9,47.6,34.9L47.6,34.9C47.6,34.9,47.6,34.9,47.6,34.9z"/>
						<path fill="#808181" d="M47.5,34.4C47.5,34.4,47.5,34.4,47.5,34.4L47.5,34.4L47.5,34.4z"/>
						<path fill="#808181" d="M46.2,24.9C46.2,24.9,46.2,24.9,46.2,24.9C46.2,24.9,46.2,24.8,46.2,24.9z"/>
						<path fill="#808181" d="M47.9,41.5C47.9,41.5,47.9,41.5,47.9,41.5C47.9,41.4,47.9,41.5,47.9,41.5
							C47.9,41.5,47.9,41.5,47.9,41.5z"/>
						<path fill="#808181" d="M47.1,34.9L47.1,34.9C47.1,34.8,47.1,34.9,47.1,34.9z"/>
						<path fill="#808181" d="M46.5,28.5L46.5,28.5C46.5,28.4,46.5,28.4,46.5,28.5z"/>
						<path fill="#808181" d="M47.1,34.6C47.1,34.6,47.1,34.6,47.1,34.6L47.1,34.6L47.1,34.6z"/>
						<path fill="#808181" d="M46.2,24.9L46.2,24.9L46.2,24.9z"/>
						<path fill="#808181" d="M46,24.4c0,0.1,0.1,0,0.1,0c0,0.1-0.1,0-0.1,0.1c0,0.1,0.1,0.1,0.1,0.1c0,0,0,0,0,0
							c0.1,0.1,0,0.2,0.1,0.2c0,0,0,0,0,0c0,0,0.1,0,0.1,0c0,0,0.1,0.1,0,0.1c0,0,0,0,0,0l0,0c-0.1,0,0,0-0.1,0
							c0,0.1,0.1,0.1,0.1,0.2c-0.1,0,0-0.1-0.1,0l0-0.1c-0.1,0.1,0,0-0.1,0c0,0.1,0,0.1,0,0.2c0,0,0.1,0,0.1,0
							c0.1,0.1-0.2,0.1-0.1,0.2c0,0,0.1,0,0.1,0.1l-0.1,0c0,0.1,0.1,0,0.1,0.2c0,0,0-0.1,0-0.1c-0.1,0.1,0,0,0.1,0.1l-0.1,0
							c0,0.1,0.1,0.2,0.1,0.3c0,0,0,0-0.1,0c0,0.1,0,0.3,0,0.5l0.1,0c0,0,0,0,0,0c0,0.1,0,0,0.1,0c0,0,0,0,0,0
							c0.1,0.1,0.1,0.3,0.1,0.4l0,0c0,0.1,0.1,0.1,0.1,0.2l0,0c0,0.2,0.1,0.4,0,0.5c0.1,0,0,0.2,0.1,0.2c0,0.1-0.1,0.1-0.1,0.2
							c0,0,0.1,0,0.1,0.1l-0.1,0l0.1,0.1l-0.1,0l0,0c0,0,0,0,0,0c0,0.1,0,0.2-0.1,0.2l0.1,0.2c0,0,0,0-0.1,0c0.1,0.1-0.1,0,0,0.1
							c0,0,0,0,0.1,0c0,0,0,0.1,0,0.2l0,0c0,0.1,0,0.3,0.1,0.4c0-0.1,0.1,0,0.1,0l-0.1,0c0,0,0,0,0.1,0c0,0.1-0.1,0-0.1,0l0,0.1
							c0,0,0,0-0.1,0c0,0-0.1,0.1,0,0.1l0,0c0,0.1,0,0.2,0.1,0.3c0.1,0,0,0,0.1,0.1c0,0.1,0,0.2,0,0.3c0,0.1,0.1,0,0.1,0
							c-0.1,0,0,0.1-0.1,0.1c0,0.1,0,0.2,0.1,0.3c0,0,0,0,0,0c0,0,0,0.1,0,0.1l0,0c0.1,0.2-0.1,0.4,0,0.5l0,0l0.1,0.1
							c0,0.1,0,0-0.1,0c0.1,0.1,0,0.2,0.1,0.4c-0.1,0.1,0,0.3,0,0.5l0,0c0,0,0,0,0,0.1c0,0,0,0,0.1,0c0.1,0.3,0,0.6,0,0.9
							c0,0.1,0.2,0,0.1,0.2l-0.1,0c0.1,0.2,0,0.4,0.1,0.6c0,0,0,0,0,0c0,0,0,0.2,0.1,0.2c0,0,0,0-0.1,0c0,0,0.1,0.1,0,0.1
							c0,0,0,0,0,0c0,0,0,0.1,0.1,0.1c0,0.1,0,0.1,0,0.2c0.1,0,0,0.1,0.1,0.1c-0.1,0-0.1,0.1,0,0.2c0,0,0,0-0.1,0
							c0,0.1,0,0.1,0.1,0.1c-0.1,0.1,0.1,0.2,0,0.3c0.1,0.2,0.1,0.3,0.2,0.5c-0.1,0,0-0.2-0.1-0.2c0.1,0.1,0.1,0.2,0.1,0.4
							c0,0,0,0-0.1,0c0.1,0.1,0,0.3,0.1,0.4c0,0,0,0,0,0c0,0,0,0.1,0,0.1l0,0c0.1,0,0.1,0.1,0.2,0.1c-0.1,0,0,0.1-0.2,0.1
							c0,0,0,0,0.1,0c0,0,0,0-0.1,0c0,0.1,0.1,0.1,0.1,0.1c0,0,0,0-0.1,0c0,0,0.1,0.1,0.1,0.1c0,0,0,0,0,0c0,0.1,0.1,0.2,0.1,0.3
							c-0.1,0,0,0-0.1,0.1l0,0.1l0,0c0,0.1,0.1,0.1,0,0.2l0,0l0,0.1l0-0.1c0,0.1,0.1,0,0.1,0.1c0,0,0,0.1,0,0.1l0,0
							c0,0,0.1,0.1,0,0.1c0,0-0.1,0-0.1,0c0.1,0,0,0.1,0.1,0.2c0,0-0.1,0-0.1,0l0.1,0c0,0,0,0-0.1,0c0,0.1,0.1,0,0.1,0.1
							c0,0,0,0,0,0c0,0.1,0.1,0.2,0,0.3c-0.1,0,0-0.1-0.1,0c0,0.1,0.1,0.3,0.1,0.4l0,0c0.1,0,0,0.1,0,0.2c0,0-0.1,0,0,0
							c0,0.1,0,0.2,0.1,0.3l0,0c0,0.1,0,0.1,0,0.2c0,0,0,0,0.1,0c-0.1,0.2,0.1,0.3,0,0.5c0,0,0,0,0,0l0,0.1c0,0,0,0,0.1-0.1
							c0,0,0.1,0.1,0.1,0.1c0-0.1-0.1,0-0.1,0c0,0,0,0,0,0c-0.1,0.1,0.1,0,0,0.1l0,0c0,0,0.1,0.1,0,0.1c-0.1,0,0,0-0.1,0
							c0,0.1,0.1,0.1,0.1,0.2c0,0,0-0.1,0-0.1c-0.1,0.1,0,0.1,0,0.1l0,0l0,0.1l0,0c0.1,0.1,0,0.1,0.1,0.2c-0.1-0.1-0.1,0-0.1,0
							c0,0,0,0.1,0,0.1c0.1,0,0,0.1,0,0.1c0,0,0,0,0,0c0,0.1,0,0,0.1,0c0.1,0.1-0.1,0.2,0,0.3c0,0.1,0.1,0.1,0.2,0.2
							c0,0-0.1,0-0.1,0c0,0.1,0,0.1,0,0.1c0,0,0,0-0.1,0c0,0,0.1,0,0.1,0.1c0,0-0.1,0-0.1,0c0,0,0.1,0.1,0.1,0.1c0,0-0.1,0-0.1,0
							c0,0.1,0,0.1,0.1,0.2l0,0c0,0,0,0-0.1,0c0,0,0-0.1,0-0.1l0,0c0.1,0,0-0.1,0-0.2l0.1,0L48,41.4c0,0,0.1,0,0.1,0
							c0-0.1,0,0,0-0.1c0,0,0,0,0,0l0,0c0,0,0.1,0,0,0c0-0.1-0.1-0.1,0-0.2l0,0c0-0.1-0.1,0-0.1-0.1l0.1-0.1l-0.1,0c0,0,0,0,0,0
							c0,0,0,0-0.1,0c0.1-0.1,0-0.2,0.1-0.2c0,0,0,0.1-0.1,0c0.1,0,0-0.1,0-0.1c0.1,0,0,0.1,0.1,0c-0.1,0,0-0.1,0-0.2
							c-0.1,0,0-0.1-0.1-0.2c0,0,0-0.2,0-0.2l0,0C48,40,48,39.9,48,39.9c0,0,0.1,0,0.1,0l0-0.1c0,0,0,0-0.1-0.1l0.1,0
							c0-0.1-0.1-0.1-0.1-0.2c-0.1,0-0.1,0.1-0.2,0c0,0,0.1,0,0.1,0c0,0,0,0,0,0l0.1,0c0,0,0,0,0-0.1c0,0,0,0,0.1,0c0,0,0,0,0,0
							c0,0,0-0.1,0.1-0.1c0,0-0.1,0-0.1,0c0-0.1,0,0,0.1-0.1c0,0,0-0.1-0.1-0.1c0,0,0,0,0,0c0,0,0-0.2-0.1-0.1l0,0l0,0l0,0l0,0
							c-0.1-0.1,0-0.2,0-0.4l0,0c0-0.1,0-0.2-0.1-0.2c0,0,0-0.1,0.1,0c0-0.1,0-0.1,0-0.1c0,0.1,0,0,0,0.1c0-0.1,0-0.1,0-0.2
							c0.1,0,0.1-0.1,0-0.1l0,0.1c0,0,0-0.1,0-0.1l0.1,0c0.1-0.2-0.2-0.2,0-0.4c-0.1,0,0,0.1-0.1,0.1c0-0.1,0.1-0.1,0.1-0.2
							c0-0.1-0.1-0.1-0.1-0.2c0,0-0.1,0-0.1,0c0-0.1,0.1-0.1,0.1-0.1c0,0,0,0,0,0c0,0,0,0,0,0l0,0c0,0,0-0.1,0.1-0.1c0,0,0,0-0.1,0
							c0-0.1,0-0.1,0-0.2c0,0,0,0,0,0c0-0.1-0.1-0.1-0.1-0.1c0-0.1,0.1,0,0.1-0.1c0-0.1,0.1,0,0.1,0c-0.1-0.1,0-0.2,0-0.2l0,0
							c0,0,0,0,0-0.1l0,0c0,0,0,0,0,0c0,0-0.1,0-0.1,0c0,0,0-0.1,0-0.1c0,0.1,0.1,0,0.1,0.1c0,0,0,0,0-0.1c0,0,0,0,0,0
							c0-0.1-0.1,0-0.1-0.1c0,0,0.1,0,0.1,0c0,0-0.1,0-0.1,0c0-0.1,0-0.1,0-0.1l0,0c0,0,0,0-0.1-0.1c0,0,0,0,0,0
							c-0.1,0,0.1-0.1,0-0.2c0,0,0.1,0,0.1,0c-0.1-0.1,0-0.1,0-0.2c0,0,0,0-0.1,0l0,0.1l-0.1-0.1c0,0,0,0.1,0,0.1c0,0,0,0-0.1,0
							c0.1-0.1-0.1-0.1,0-0.2l0.1,0c0-0.1-0.1-0.2-0.1-0.3l0,0c0,0,0-0.1,0-0.1c0,0,0.1,0,0.1,0c0,0,0-0.1-0.1-0.1l0-0.1
							c0-0.1-0.1-0.1-0.1-0.2c0,0,0.1,0,0.1,0c0,0,0-0.1,0-0.1c0,0-0.1-0.1,0-0.1c0,0-0.1,0-0.1-0.1c0,0,0,0,0,0c0,0,0-0.1-0.1,0
							c0.1-0.1,0-0.3,0.1-0.4c0-0.1,0-0.2-0.1-0.2c0,0,0,0,0,0c0-0.1-0.1,0-0.1-0.2c0.1-0.1,0,0.1,0.1,0c0.1,0,0-0.1,0-0.2l0,0
							c0-0.1-0.1-0.1-0.1-0.2c0,0,0,0,0,0c-0.1-0.1-0.1-0.2-0.1-0.2c0.1,0,0,0,0.1,0c0,0-0.1,0-0.1-0.1c0,0,0-0.1,0.1-0.1l0,0.1
							c0.1,0,0-0.1,0-0.1l0,0c0-0.1-0.1-0.1-0.1-0.2l0,0c-0.1-0.1,0-0.1,0-0.1l0.1,0c0,0-0.1-0.1-0.1-0.2c0.1,0,0.1,0.1,0.1,0.2
							c0,0,0-0.1-0.1-0.2c0,0,0,0,0,0.1c-0.1,0-0.1-0.1-0.1-0.2c0.2,0,0-0.2,0.1-0.3c-0.1-0.1,0-0.3,0-0.5c-0.1,0.1,0,0-0.1,0
							c0,0,0-0.1,0-0.1l0.1-0.1c0,0,0,0,0.1,0c0-0.1,0,0,0.1-0.1c0,0-0.1,0-0.1-0.1l-0.1,0.1c-0.1-0.1,0.1-0.1,0-0.2l0,0
							c0-0.1,0-0.2-0.1-0.3c0,0,0,0,0.1,0c0-0.2-0.1-0.3-0.1-0.4l0,0c0,0-0.1,0,0-0.1c0,0,0,0,0,0c0,0-0.1-0.1,0-0.1l0,0
							c0-0.1-0.1-0.2-0.1-0.3c0.1,0,0.1-0.1,0.1-0.2l0,0c0-0.2-0.1-0.3-0.2-0.4c0.1-0.1,0-0.3,0-0.5c0,0-0.1,0-0.1,0
							c0,0-0.1-0.1,0-0.1l0,0c0.1,0,0-0.1,0-0.2l-0.1,0c0.1-0.2-0.1-0.4,0-0.5c0,0,0-0.1-0.1-0.1l0.1,0c0-0.1,0-0.2,0-0.3l0,0
							c0-0.1-0.2-0.1-0.2-0.1l0.1,0c0-0.1,0-0.3,0-0.4c0,0,0,0,0,0c0-0.1,0-0.2-0.1-0.2c0.1,0,0-0.1,0-0.2l0.1,0
							c-0.1,0-0.1,0-0.1-0.1c0,0,0,0,0,0c0-0.1-0.1,0,0-0.1l0,0c0-0.1,0-0.1-0.1-0.1c0,0,0-0.1,0.1-0.1c0,0-0.1,0-0.1-0.1
							c0,0,0,0,0,0c0-0.1-0.1-0.2,0-0.2c0,0,0,0,0,0c0,0.1,0,0.2,0,0.1c0.1,0,0.1-0.1,0.1,0c0-0.1-0.1-0.1-0.1-0.2c0,0,0,0,0,0l0,0
							c0,0,0,0,0,0c0,0,0,0,0-0.1c0,0,0-0.1,0-0.1c-0.1,0-0.1,0-0.1,0c0,0,0,0,0,0c0,0,0,0,0,0l0,0c0,0,0,0.1,0,0.1
							c0,0-0.1-0.1,0-0.1c0,0-0.1,0-0.1,0c0.1-0.1,0.1-0.2,0.2-0.2c0-0.1,0-0.2-0.2-0.3c0,0,0,0,0-0.1c0,0,0,0,0,0
							c0-0.1,0-0.2-0.1-0.2c0-0.1,0.1,0,0.1-0.1l0,0c0.1-0.2-0.2-0.3-0.1-0.6c0,0,0,0,0,0c0-0.3-0.1-0.5,0-0.8c0-0.1,0-0.1-0.1-0.1
							l0.1,0l-0.1-0.1c-0.1-0.1,0.1-0.2,0-0.3l0,0c0,0,0-0.2,0-0.1c0,0,0,0,0,0l0,0L46.3,23c0-0.1,0.1,0,0.1-0.1
							c0,0-0.1-0.1-0.1-0.1c0,0,0,0.1,0,0.1l0,0c-0.1,0-0.2,0-0.3,0.1l0.1,0.1l0,0l0-0.1c0,0,0,0.1,0,0.1c0,0,0,0,0,0l0.1,0.1
							c0,0-0.1,0-0.1,0c0,0,0.1,0,0.1,0c0,0-0.1,0,0,0.1c0,0,0,0-0.1,0c0,0,0,0.1,0.1,0.1c0,0,0,0.1-0.1,0.1c0,0,0.1,0.1,0.1,0.1
							c-0.1-0.1,0,0.1-0.1,0.1c0.1,0,0.1,0.2,0.1,0.3c0,0,0,0,0,0c0,0,0,0.1,0,0.1c0.1,0,0.1,0.1,0.2,0.1c-0.1,0.1-0.1,0-0.2,0
							c0.1,0,0.1,0.1,0.1,0.1c0,0.1,0,0-0.1,0.1c0.1,0,0,0,0.1,0.1C46.1,24.4,46.1,24.4,46,24.4C46.1,24.5,46,24.4,46,24.4z
							 M46.4,26.1L46.4,26.1C46.4,26.1,46.4,26.1,46.4,26.1C46.4,26.1,46.4,26.1,46.4,26.1z M46.4,26.3
							C46.4,26.2,46.4,26.2,46.4,26.3C46.4,26.2,46.4,26.2,46.4,26.3C46.4,26.2,46.4,26.2,46.4,26.3z M46.8,25.9
							C46.8,25.9,46.8,25.9,46.8,25.9C46.7,25.9,46.7,25.9,46.8,25.9L46.8,25.9C46.7,25.9,46.8,25.9,46.8,25.9z"/>
						<polygon fill="#808181" points="46.7,25.9 46.7,25.9 46.7,25.9 46.7,25.9 						"/>
						<polygon fill="#808181" points="47.9,39.1 47.9,39.1 47.9,39.1 						"/>
						<polygon fill="#808181" points="46.5,28.3 46.5,28.3 46.5,28.3 						"/>
						<path fill="#808181" d="M47.8,39.9C47.8,39.9,47.8,39.9,47.8,39.9C47.8,39.9,47.8,39.9,47.8,39.9z"/>
						<path fill="#808181" d="M47.8,40.3L47.8,40.3C47.8,40.3,47.8,40.3,47.8,40.3z"/>
						<path fill="#808181" d="M47.8,40.5C47.8,40.5,47.8,40.5,47.8,40.5L47.8,40.5L47.8,40.5z"/>
						<path fill="#808181" d="M47.3,36.3C47.3,36.3,47.3,36.3,47.3,36.3C47.3,36.3,47.3,36.3,47.3,36.3z"/>
						<path fill="#808181" d="M47.6,37.6C47.6,37.5,47.6,37.5,47.6,37.6C47.5,37.5,47.6,37.6,47.6,37.6z"/>
						<polygon fill="#808181" points="47.1,34.9 47.1,34.9 47.1,34.9 						"/>
						<path fill="#808181" d="M47.5,37.5C47.5,37.5,47.5,37.5,47.5,37.5C47.6,37.5,47.6,37.5,47.5,37.5z"/>
						<polygon fill="#808181" points="47.9,41.7 47.9,41.7 47.9,41.7 						"/>
						<path fill="#808181" d="M47.9,41.7L47.9,41.7C47.9,41.7,47.9,41.7,47.9,41.7z"/>
						<path fill="#808181" d="M47.9,41.8L47.9,41.8C47.9,41.7,47.9,41.8,47.9,41.8z"/>
						<path fill="#808181" d="M47.9,41.3L47.9,41.3C47.9,41.3,47.9,41.3,47.9,41.3z"/>
						<path fill="#808181" d="M47.9,41.2c0,0,0,0.1,0,0.1l0,0C47.8,41.3,47.9,41.3,47.9,41.2z"/>
						<path fill="#808181" d="M48.1,40.8L48.1,40.8C48.1,40.8,48.1,40.8,48.1,40.8C48.2,40.7,48.1,40.9,48.1,40.8z"/>
						<path fill="#808181" d="M48.1,40.5C48.1,40.5,48.1,40.5,48.1,40.5C48.1,40.5,48.1,40.4,48.1,40.5z"/>
						<path fill="#808181" d="M47.9,38.5L47.9,38.5C47.9,38.4,47.9,38.5,47.9,38.5z"/>
						<polygon fill="#808181" points="47.6,38.1 47.6,38.2 47.6,38.2 						"/>
						<polygon fill="#808181" points="47.9,37.9 47.9,37.9 47.9,37.8 						"/>
						<path fill="#808181" d="M47.6,34.5L47.6,34.5C47.5,34.5,47.6,34.5,47.6,34.5z"/>
						<path fill="#808181" d="M47.4,33C47.4,33,47.4,33,47.4,33C47.4,33,47.4,33,47.4,33z"/>
						<polygon fill="#808181" points="47,28.6 47.1,28.7 47,28.6 						"/>
					</g>
				</g>
			</g>
		</g>
	</g>
	<g>
		<path fill="#D8B58B" d="M74.1,64.3c-2,4.9-7.7,7.2-12.6,5.2s-7.2-7.7-5.2-12.6s11.2-15.7,16.1-13.7C77.4,45.2,76.2,59.4,74.1,64.3
			z"/>
		<g>
			<g>
				<g>
					<g>
						<path fill="#808181" d="M74.2,64.5c0.1-0.3-0.1,0.1,0.1-0.2C74.2,64.3,74.2,64.4,74.2,64.5z"/>
						<path fill="#808181" d="M74.5,63.4c0.1-0.9,0.6-2,0.7-3c0-0.1,0.1,0,0.1-0.2c0.1-0.9,0.4-2.4,0.6-3.5l0,0.1c0-0.2,0-0.5,0-0.7
							c0,0,0,0.1,0,0c0-0.1,0-0.4,0-0.5c0-0.1,0.1-0.1,0.1-0.2l0-0.1c-0.1-0.4,0.1-0.9,0-1.4c0,0,0,0.1,0,0c-0.1-0.8,0-1.8-0.1-2.7
							c0,0,0.1,0.1,0.1,0c-0.1,0-0.1-0.3-0.1-0.6c0-0.1-0.1-0.4-0.1-0.7l0,0c-0.1-0.2,0-0.3-0.1-0.5l0-0.1c-0.1-0.1,0-0.3-0.1-0.5
							l0,0c0-0.2,0-0.2-0.1-0.4l0,0c-0.1-0.3-0.1-0.6-0.1-0.5c0-0.1,0.1,0.3,0.1,0.1c-0.3-1.1-0.6-2.3-1.3-3.3
							c0-0.1-0.1-0.2-0.1-0.2c-0.1-0.1-0.3-0.3-0.4-0.4c0,0,0-0.1-0.1-0.1c-0.1-0.2-0.2-0.1-0.4-0.3c0.1,0.1,0.1,0.1,0.1,0
							c-0.2-0.1-0.4-0.3-0.6-0.4c0,0,0.1,0,0.1,0c-0.3-0.1-0.4-0.2-0.6-0.3l0.1,0c-0.3-0.2-0.1,0-0.4-0.1c0.1,0,0.1,0,0.1,0
							c-0.2,0-0.3,0-0.5,0c-0.2,0-0.4,0-0.5,0c0,0,0,0,0,0c-0.3,0-0.6,0-1,0.2c-0.1,0,0-0.1-0.3,0c0,0.1-0.5,0.2-0.3,0.2
							c-0.3,0.1-0.7,0.2-0.9,0.3c0.1-0.1-0.2,0,0-0.1l-0.2,0c0,0,0.2-0.1,0.1-0.1c-0.1,0.1-0.4,0.2-0.5,0.3
							c-0.2,0.2-0.3,0.3-0.6,0.5c0.1-0.1-0.1,0,0-0.1L67,44.6c-0.1,0.1-0.1,0-0.2,0.1c0,0,0,0.1-0.1,0.1c0,0-0.4,0.3-0.5,0.3
							c-0.1,0,0.1-0.1,0-0.1c-0.2,0.1-0.2,0.2-0.3,0.3l0,0c-0.1,0.1-0.3,0.3-0.2,0.2c0.1-0.1-0.1,0,0.1-0.1
							c-0.1,0.1-0.2,0.3-0.4,0.4c0.1-0.1,0-0.1,0-0.1c-0.2,0.2-0.4,0.4-0.7,0.7c0,0,0.1-0.1,0.1-0.1c-0.4,0.2-0.6,0.6-0.9,0.8
							c0,0,0.1,0,0,0c-0.2,0.1-0.2,0.1-0.3,0.2c0,0-0.1,0.1-0.2,0.2c0,0.1,0,0,0-0.1c-0.1,0.1-0.6,0.7-1,1c0,0-0.1,0.2-0.2,0.3
							l0-0.1c-0.1,0-0.2,0.3-0.3,0.2c-0.1,0.2,0.5-0.6,0.4-0.4c-0.1,0-0.2,0.3-0.2,0.3c-0.1,0.2-0.2,0.3-0.4,0.4c0,0,0.1-0.2,0,0
							c-0.2,0.2,0,0.1-0.2,0.3l-0.1,0.1c0,0-0.2,0.2-0.1,0.1c-0.1,0-0.3,0.3-0.3,0.3l0-0.1c-0.1,0.1-0.1,0.2-0.1,0.3c0,0,0,0,0,0
							c0.1,0.1-0.2,0.2-0.2,0.4c-0.2,0.2-0.4,0.5-0.5,0.6c-0.1,0.2-0.2,0.3-0.3,0.5c0,0,0.1-0.1,0.1-0.1c-0.1,0.1-0.1,0.1-0.2,0.3
							c0,0-0.2,0.2-0.3,0.3c-0.1,0.2,0,0.2,0,0.2c-0.2,0.1-0.3,0.5-0.5,0.6c0-0.1,0.1-0.3,0-0.1c-0.2,0.1-0.2,0.3-0.4,0.6l0.1,0
							c-0.1,0.1-0.2,0.4-0.3,0.3c0,0.1-0.2,0.3-0.1,0.3c-0.3,0.4-0.6,1-0.9,1.2c0,0.1-0.1,0.2-0.1,0.2c0.1-0.1,0.1-0.2,0.1-0.2
							c0,0.1,0,0.1,0,0.1c-0.1,0.1-0.2,0.2-0.1,0.1c-0.2,0.3-0.1,0.4-0.3,0.7c0,0,0,0-0.1,0.1l-0.1,0.2c-0.1,0.2-0.1,0.1-0.2,0.1
							c-0.1,0.1-0.1,0.3-0.1,0.4c0,0-0.1,0.1-0.1,0.1c0.1-0.1,0,0.1,0,0.2l0-0.1c0,0-0.1,0.2-0.1,0.3c0,0,0.1-0.2,0.1-0.3
							c0,0.1,0,0.2-0.1,0.3c0,0-0.1,0.2-0.2,0.3c-0.1,0.1,0,0.2,0,0.2c0,0-0.1,0.2-0.1,0.1c0,0,0-0.1,0-0.2c0,0.1-0.1,0.1-0.1,0.2
							c0,0.1,0.1,0,0,0.2c0-0.1,0-0.1,0-0.1l-0.1,0.2l0,0c0,0,0,0,0,0c0,0.1-0.1,0.4,0,0.4c0,0.1-0.1,0.2-0.1,0.4l0,0
							c0,0.1-0.1,0.3,0,0.4l0,0c0,0.1,0,0.3,0,0.4c0,0.2-0.2,0.1-0.1,0.3c0,0.2,0.1,0.3,0.1,0.2c0,0.4,0.1,0.8,0,1.1
							c0,0,0,0,0.1,0.1c0,0.5,0.3,1.1,0.3,1.5c-0.1-0.1,0,0-0.1,0c0.1,0.1,0,0.2,0.1,0.2c0,0,0.1,0,0-0.2c0.1,0.3,0.3,0.7,0.3,0.9
							c0-0.1,0,0,0.1,0c-0.1,0,0,0.2,0.1,0.4l0,0l0,0.1c0,0.1,0.1,0,0.1,0.2c0,0,0,0,0,0.1c0.1,0.1,0.3,0.3,0.4,0.5l0,0.2
							c0,0.1,0.2,0.2,0.1,0c0.2,0.3,0.3,0.5,0.3,0.6c0.6,0.5,1.1,1,1.5,1.4l0,0c0.1,0.1,0.1,0,0.2,0.1c-0.1,0,0.1,0.1-0.1,0.1
							c0.2,0.2,0.3,0.2,0.4,0.2c0,0-0.1-0.1-0.1-0.1c0,0,0.3,0.2,0.3,0.2c0,0.1,0,0.1-0.1,0.1l0.2,0.1c0.1,0.2-0.4-0.1-0.3,0.1
							l0.1,0.1c0.1,0.1-0.4-0.1-0.1,0.1c0.2,0.1,0.3,0.1,0.2,0c0.3,0.2,0.2,0,0.5,0.1c0.1,0.1-0.2-0.1-0.2-0.1
							c0.1,0.1,0.3,0.2,0.4,0.2c-0.1-0.1,0-0.1,0.1,0c0.1,0.1-0.1,0,0.1,0.1c0.1,0,0.3,0.1,0.1,0c0.1,0,0.2,0.1,0.4,0.1
							c0.1,0.1-0.3,0,0,0.1c0-0.1,0.3,0.1,0.2-0.1c0.1,0.1,0.1,0.1,0,0.1c0.1,0.1,0.4,0,0.4,0.2l0.1,0c0,0,0.1,0.1,0.2,0.1
							c0.1,0.1,0.4,0,0.4,0.1c0,0,0.3,0.1,0.2,0c-0.2-0.1-0.2,0-0.3-0.1c0.1,0.1,0.3,0.1,0.4,0.1l0,0c0.1,0,0.2,0,0.3,0
							c-0.1,0,0,0,0,0.1l0.1,0c0.3,0,0,0.1,0.3,0.1l-0.2,0c0,0,0.1,0.1,0.3,0.1c0.1,0,0.2-0.1,0.2-0.1c0.1,0,0.1,0.1,0.2,0l-0.2,0
							c0,0,0.1,0.1,0.3,0.1c0.1,0,0.3-0.1,0.1-0.1c0.1,0,0.2,0,0.2,0.1c0.2,0,0,0,0.2-0.1c0.1,0,0.3,0.1,0.5,0.1
							c-0.1,0-0.1,0-0.2,0.1l0.1,0c-0.2,0.1,0.1,0,0,0.1c0.1,0,0.2,0,0.3,0c-0.3-0.1,0.3-0.2,0.2-0.2c0.4-0.1,0.3,0.2,0.6,0
							c-0.1,0,0.1-0.1-0.1,0c0.2,0,0.1-0.1,0.4-0.1c-0.2,0.1,0.2,0.1-0.1,0.2c0,0-0.2,0-0.2,0c0.1,0,0,0.1,0.2,0.1
							c0.1,0,0.3-0.1,0.3-0.1c0,0-0.2,0-0.1,0c0.3-0.1,0.3,0,0.4-0.1c-0.2,0.1-0.2,0-0.2,0l0.2-0.1l0,0c0.3-0.1,0.1-0.1,0.4-0.2
							l0.2,0c-0.1,0.1-0.5,0.1-0.4,0.2c0.2,0,0.3-0.1,0.5-0.1l-0.1,0.1c0.1,0,0.2,0.1,0.5-0.1c0.1-0.1,0,0,0-0.1
							c0.3-0.1,0.4-0.2,0.6-0.3c0,0.1,0.4-0.2,0.2,0c-0.1,0-0.6,0.2-0.7,0.3c0.1,0-0.3,0.1-0.3,0.2c0.3-0.1,0.3,0,0.3,0
							c0.1,0,0.1-0.1,0.2-0.1c0-0.1-0.1,0-0.1-0.1c0.3-0.1,0.6-0.2,0.7-0.3c0.1,0,0.1,0,0,0.1c0.3-0.2,0.7-0.3,1-0.5
							c-0.2,0,0.3-0.2,0.2-0.2c-0.2,0.1-0.3,0.1-0.3,0c0.1-0.1,0,0,0.1,0c0.1-0.1,0.2-0.1,0.3-0.2c-0.3,0.2,0,0.1,0,0.2
							c0.2-0.2,0,0.1,0.2-0.1c0.2-0.2,0.4-0.4,0.6-0.5c0.3-0.2,0.7-0.6,0.9-0.8c0.1-0.1,0.1,0,0.2-0.1c0.1-0.2-0.2,0.1,0.1-0.1l0,0
							c0.1-0.1,0.4-0.4,0.4-0.5l0,0.1c0,0,0.1-0.1,0.1-0.1c0,0,0.1,0,0,0.1c0.2-0.1,0.2-0.3,0.4-0.5l-0.1,0.1
							c0.2-0.3,0.3-0.5,0.5-0.8l0,0l0.1-0.2c0,0.1,0.1-0.1,0.1-0.2c0,0.2-0.1,0.3-0.2,0.5c-0.1,0.1,0-0.2-0.1-0.1
							c-0.1,0-0.2,0.3-0.2,0.4c0.1-0.1,0.1-0.1,0.1-0.2c0.1,0,0,0.2,0,0.3c0-0.1,0.1-0.1,0.1-0.1c0,0.1-0.1,0.2-0.2,0.4
							c0.1-0.1-0.1,0-0.1,0c0,0-0.1,0.2-0.2,0.4c-0.2,0.1-0.3,0.4-0.5,0.6c0-0.1,0.1-0.3,0.2-0.4c-0.1,0.1-0.1,0.2-0.3,0.3
							c0,0.1,0,0.2-0.2,0.4l0,0c-0.1,0.2-0.1,0.2-0.3,0.4c-0.2,0.2-0.4,0.3-0.5,0.5c-0.2,0.1-0.4,0.3-0.5,0.4l0,0
							c-0.1,0.2-0.6,0.4-0.8,0.6c-0.4,0.2-0.9,0.5-1.1,0.5c-0.8,0.3-1.5,0.6-2.3,0.7l0.1-0.1c-0.1,0.1-0.1,0-0.3,0
							c0.2,0-0.2,0.1-0.3,0.1c-0.4,0-0.9,0.1-1.2,0.1l0,0c-0.3,0.1-0.8,0-1.2-0.1c0,0-0.1-0.1-0.2-0.1c-0.2,0-0.4,0-0.7-0.1
							c-0.2,0-0.6-0.2-0.9-0.3c-0.9-0.2-1.8-0.7-2.6-1.3l0-0.1c-0.8-0.5-1.6-1.4-2.1-2l0.1,0C57.2,66.2,57,66,57,66
							c-0.1-0.2-0.4-0.5-0.4-0.7c-0.1-0.2-0.2-0.3-0.3-0.5c-0.2-0.5-0.3-0.7-0.5-1.1l0,0.1c0,0,0.1,0,0-0.1
							c-0.1-0.2-0.2-0.6-0.2-0.4c0-0.3-0.1-0.6-0.2-0.9c-0.1-0.3-0.1-0.6-0.1-0.9c0,0,0-0.1-0.1-0.1c0-0.5,0-1,0-1.3
							c0-0.1,0,0.1,0.1-0.1c0-0.1,0,0,0-0.1c0-0.8,0.2-1.5,0.4-2.2c0.3-1.2,0.9-2.3,1.5-3.3l0,0c0.1-0.4,0.5-0.7,0.6-1
							c0.1-0.1,0.2-0.3,0.2-0.2c0.1-0.3,0.5-0.7,0.7-1.1c0,0,0,0.1-0.1,0.1c0.3-0.3,0.5-0.7,0.8-1c0,0-0.1,0.1-0.1,0.1
							c0.1-0.1,0.2-0.4,0.3-0.4c0.1-0.1,0-0.1,0,0c0.7-0.8,1.3-1.6,2-2.4c0.6-0.5,0.1,0.1,0.5-0.4c0,0,0-0.1,0,0
							c0.1-0.2,0.3-0.2,0.4-0.3c-0.1,0,0.1-0.1,0-0.1c0.4-0.3,0.5-0.3,0.7-0.6l0,0c0.3-0.4,0.7-0.7,0.9-1c0.9-0.8,1.8-1.5,2.8-2.2
							c1-0.6,2.1-1.2,3.3-1.4c1.2-0.2,2.6,0.1,3.5,1.1c0.9,0.9,1.4,2,1.7,3.2c0.1,0.6,0.1,0.6,0.2,1.2c0,0,0-0.1,0,0
							c0.1,0,0.1,0.4,0.2,0.5c0.1,0.9,0.2,1.7,0.3,2.5c0-0.1-0.1-0.2-0.1,0l0.1,0.2l0,0c0,0.1,0.1,0.2,0.1,0.1
							c0.2,2.2-0.1,4.4-0.3,6.6c-0.1,0.5-0.2,1.2-0.3,1.8c-0.4,1.6-0.8,3.1-1.3,4.7C74.4,64.4,74.3,64.1,74.5,63.4z"/>
						<path fill="#808181" d="M74,64.8c-0.1,0-0.2,0.2-0.1,0C73.9,64.8,74,64.7,74,64.8z"/>
						<path fill="#808181" d="M70.5,68.4C70.5,68.4,70.4,68.4,70.5,68.4C70.4,68.4,70.5,68.3,70.5,68.4
							C70.5,68.3,70.5,68.3,70.5,68.4z"/>
						<path fill="#808181" d="M69.3,69c0,0,0.2-0.2,0.4-0.3C69.6,68.8,69.5,68.9,69.3,69z"/>
						<path fill="#808181" d="M68.2,69.3C68.1,69.3,68.1,69.3,68.2,69.3C68.3,69.3,68.2,69.3,68.2,69.3z"/>
						<path fill="#808181" d="M68.1,69.4c-0.1,0-0.1,0-0.2,0C68,69.5,68.1,69.4,68.1,69.4z"/>
						<path fill="#808181" d="M65.6,69.8c-0.1,0-0.2,0-0.3,0C65.4,69.8,65.7,69.7,65.6,69.8z"/>
						<path fill="#808181" d="M64.4,69.8C64.4,69.8,64.4,69.8,64.4,69.8C64.3,69.8,64.3,69.7,64.4,69.8L64.4,69.8z"/>
						<polygon fill="#808181" points="58.8,53.1 58.8,53.2 58.7,53.2 						"/>
						<path fill="#808181" d="M65.4,45.9c0.1-0.1,0.1,0,0.1,0C65.4,46,65.5,45.8,65.4,45.9z"/>
						<polygon fill="#808181" points="69.9,43.2 69.8,43.2 69.8,43.1 						"/>
					</g>
				</g>
			</g>
		</g>
	</g>
	<g>
		<path fill="#D8B58B" d="M70.5,47.5c-2.2,6.1-4.4,12.1-6.7,18.1"/>
		<g>
			<g>
				<g>
					<g>
						<path fill="#808181" d="M63.6,65.6C63.7,65.6,63.7,65.6,63.6,65.6L63.6,65.6L63.6,65.6z"/>
						<path fill="#808181" d="M63.8,65.5c0,0-0.1-0.1-0.1-0.1C63.8,65.4,63.7,65.4,63.8,65.5c0,0-0.1,0-0.1,0c0,0,0,0,0,0.1
							C63.8,65.6,63.8,65.5,63.8,65.5C63.8,65.5,63.8,65.5,63.8,65.5z"/>
						<path fill="#808181" d="M64.9,62.9L64.9,62.9L64.9,62.9z"/>
						<path fill="#808181" d="M65.5,61.4C65.5,61.4,65.5,61.4,65.5,61.4C65.5,61.4,65.5,61.4,65.5,61.4z"/>
						<path fill="#808181" d="M65.7,61.1L65.7,61.1C65.7,61.1,65.7,61.1,65.7,61.1z"/>
						<path fill="#808181" d="M64.9,62.9L64.9,62.9C64.9,62.9,64.9,62.9,64.9,62.9z"/>
						<path fill="#808181" d="M63.8,65.1C63.8,65.1,63.8,65.1,63.8,65.1L63.8,65.1L63.8,65.1z"/>
						<polygon fill="#808181" points="64.7,63.7 64.7,63.7 64.7,63.7 						"/>
						<path fill="#808181" d="M64.5,64.2C64.5,64.2,64.4,64.2,64.5,64.2C64.4,64.2,64.4,64.2,64.5,64.2
							C64.5,64.2,64.5,64.2,64.5,64.2z"/>
						<path fill="#808181" d="M64.1,65L64.1,65L64.1,65z"/>
						<path fill="#808181" d="M64.8,63.3C64.8,63.3,64.8,63.3,64.8,63.3C64.8,63.3,64.8,63.3,64.8,63.3z"/>
						<path fill="#808181" d="M70,48.1L70,48.1C70,48,70,48.1,70,48.1z"/>
						<polygon fill="#808181" points="70.5,47.5 70.5,47.5 70.5,47.5 						"/>
						<path fill="#808181" d="M65.9,60.6L65.9,60.6C65.9,60.7,65.9,60.7,65.9,60.6z"/>
						<path fill="#808181" d="M67.6,56.1c-0.1,0,0-0.1-0.1,0C67.5,56,67.5,56.1,67.6,56.1z"/>
						<path fill="#808181" d="M63.8,65.1L63.8,65.1C63.8,65,63.8,65,63.8,65.1z"/>
						<polygon fill="#808181" points="67.5,56 67.5,56 67.5,56 						"/>
						<path fill="#808181" d="M66.3,59.5C66.3,59.5,66.3,59.5,66.3,59.5C66.3,59.5,66.3,59.5,66.3,59.5z"/>
						<path fill="#808181" d="M65.9,60.3L65.9,60.3C65.9,60.3,65.9,60.3,65.9,60.3z"/>
						<path fill="#808181" d="M66.4,59C66.4,59,66.4,59,66.4,59L66.4,59C66.4,59,66.4,59,66.4,59z"/>
						<path fill="#808181" d="M66.6,58.5C66.6,58.5,66.6,58.6,66.6,58.5L66.6,58.5L66.6,58.5z"/>
						<path fill="#808181" d="M69.5,49.5C69.5,49.5,69.6,49.5,69.5,49.5C69.5,49.5,69.6,49.4,69.5,49.5z"/>
						<path fill="#808181" d="M63.8,65.1C63.8,65.1,63.8,65.1,63.8,65.1C63.8,65.1,63.8,65.1,63.8,65.1
							C63.8,65.1,63.8,65.1,63.8,65.1z"/>
						<path fill="#808181" d="M66,58.8L66,58.8C66,58.8,66,58.8,66,58.8z"/>
						<path fill="#808181" d="M68.3,52.8L68.3,52.8C68.3,52.8,68.3,52.8,68.3,52.8z"/>
						<path fill="#808181" d="M66.1,58.5C66.1,58.5,66.1,58.5,66.1,58.5C66.2,58.5,66.2,58.5,66.1,58.5L66.1,58.5z"/>
						<path fill="#808181" d="M69.6,49.5L69.6,49.5L69.6,49.5z"/>
						<path fill="#808181" d="M69.6,48.9C69.6,49,69.7,49,69.6,48.9c0.1,0.2,0,0.1,0,0.1c0,0.1,0,0.1,0,0.2c0,0,0,0,0,0
							c0,0.1-0.1,0.2,0,0.3c0,0,0,0,0,0c0,0,0.1,0,0.1,0c0,0,0,0.1,0,0.1c0,0,0,0,0,0l0,0c-0.1,0,0-0.1-0.1-0.1c0,0.1,0,0.2,0,0.2
							c-0.1,0,0-0.1-0.1-0.1l0.1-0.1c-0.1,0,0,0-0.1,0c-0.1,0.1,0,0.1-0.1,0.2c0,0,0.1,0,0.1,0c0,0.2-0.2,0.1-0.2,0.2
							c0,0,0.1,0.1,0,0.1l-0.1-0.1c0,0.1,0.1,0.1,0,0.2c0,0,0-0.1,0-0.1c-0.1,0,0,0.1,0,0.1l-0.1,0c0,0.1,0,0.2-0.1,0.4
							c0,0,0,0-0.1,0c0,0.2-0.1,0.3-0.2,0.4l0,0.1c0,0,0,0,0,0c0,0,0,0,0,0c0,0,0,0-0.1,0c0,0.1,0,0.3-0.1,0.4l0,0
							c-0.1,0.1,0.1,0.1,0,0.2l0,0c-0.1,0.2-0.1,0.4-0.2,0.5c0.1,0.1-0.1,0.2,0,0.2c-0.1,0.1-0.1,0-0.2,0.2c0,0,0.1,0.1,0,0.1
							l-0.1,0l0,0.1l-0.1,0l0,0c0,0,0,0,0.1,0c0,0.1-0.1,0.1-0.1,0.1l0,0.2c0,0,0,0,0-0.1c0,0.1-0.1,0,0,0.1c0,0,0,0,0,0
							c0,0-0.1,0.1-0.1,0.2l0,0c-0.1,0.1-0.1,0.3-0.1,0.4c0,0,0.1,0,0.1,0l-0.1,0c0,0,0,0,0.1,0c0,0-0.1,0-0.1,0l0,0.1c0,0,0,0,0,0
							c0,0-0.1,0.1,0,0.1l0,0c0,0.1,0,0.2-0.1,0.3c0.1,0,0,0.1,0.1,0.1c0,0.1-0.1,0.1-0.2,0.2c0,0.1,0,0,0.1,0.1
							c-0.1,0-0.1,0.1-0.1,0c0,0.1,0,0.1-0.1,0.3c0,0,0,0,0.1,0c0,0,0,0.1-0.1,0l0,0c0,0.2-0.3,0.3-0.2,0.5l0,0l0,0.2
							c0,0.1,0-0.1-0.1,0c0,0.2-0.1,0.2-0.1,0.4c-0.2,0-0.1,0.3-0.2,0.4l0,0c0,0,0,0-0.1,0.1c0,0,0,0,0.1,0
							c-0.1,0.3-0.3,0.5-0.4,0.8c0,0.1,0.2,0.1,0,0.2l0-0.1c0,0.2-0.2,0.4-0.2,0.6c0,0,0,0,0,0c-0.1,0-0.1,0.2,0,0.2c0,0,0,0-0.1,0
							c0,0,0,0.1,0,0.1c0,0,0,0,0,0c0,0-0.1,0.1,0,0.1c-0.1,0.1,0,0.2-0.1,0.2c0,0.1-0.1,0.1,0,0.2c-0.1,0-0.1,0.1-0.1,0.2
							c0,0,0,0-0.1,0c0,0.1,0,0.1,0,0.1c-0.1,0.1,0,0.2-0.1,0.2c0,0.2,0,0.3-0.1,0.5c-0.1,0,0.1-0.2,0-0.2c0,0.1,0,0.3,0,0.4
							c0,0,0,0,0-0.1c0,0.1-0.1,0.3-0.1,0.4c0,0,0,0,0,0c0,0,0,0.1,0,0.1l0,0c0.1,0,0.1,0.1,0.1,0.2c-0.1-0.1-0.1,0.1-0.2,0
							c0,0,0,0,0,0.1c0,0,0,0-0.1,0c0,0.1,0,0.1,0,0.2c0,0,0,0,0,0c0,0.1,0,0.1,0,0.2c0,0,0,0,0,0c0,0.1,0,0.2-0.1,0.3
							c-0.1-0.1,0,0-0.1,0l0,0.1l0,0c0,0.1,0,0.1,0,0.2l0-0.1l0,0.1l0-0.1c0,0.1,0.1,0,0,0.1c0,0,0,0.1-0.1,0.1l0,0c0,0,0,0.1,0,0.1
							c0,0-0.1,0-0.1,0c0,0.1,0,0.1,0,0.2c0,0,0,0-0.1,0l0,0c0,0,0,0-0.1,0c0,0.1,0.1,0,0,0.1c0,0,0,0,0,0c-0.1,0.1,0,0.2-0.1,0.3
							c-0.1,0,0-0.1-0.1-0.1c0,0.1,0,0.3-0.1,0.4l0,0c0.1,0.1-0.1,0.1-0.1,0.2c0,0,0,0,0,0c0,0.1,0,0.2-0.1,0.3l0,0
							c0,0-0.1,0.1-0.1,0.2c0,0,0,0.1,0,0.1c-0.2,0.1,0,0.3-0.2,0.4c0,0,0-0.1,0,0l0,0.1c0,0,0,0,0.1,0c0,0,0,0.1,0,0.1
							c0-0.1-0.1,0-0.1,0c0,0,0,0,0,0c-0.1,0,0.1,0,0,0.1l0,0c0,0,0,0.1,0,0.1c-0.1,0,0,0-0.1-0.1c0,0.1,0.1,0.1,0,0.2
							c0,0,0-0.1,0-0.1c-0.1,0-0.1,0-0.1,0.1l0,0L64.2,64l0,0c0.1,0.1,0,0.1,0,0.3c-0.1-0.1,0,0-0.1-0.1c0,0-0.1,0-0.1,0
							c0,0.1-0.1,0.1,0,0.1c0,0,0,0-0.1,0c0,0.1,0,0,0.1,0c0,0.1-0.1,0.2-0.1,0.3c0,0.1,0.1,0.2,0.1,0.3c0,0-0.1-0.1-0.1-0.1
							c0,0-0.1,0.1-0.1,0.1c0,0,0,0-0.1,0c0,0,0.1,0.1,0,0.1c0,0,0,0-0.1-0.1c0,0.1,0,0.1,0,0.2c0,0,0,0-0.1-0.1c0,0.1,0,0.1,0,0.2
							l0,0c0,0,0,0-0.1,0c0-0.1,0-0.1,0.1-0.1l0,0c0.1,0,0-0.1,0.1-0.2l0.1,0.1l0-0.1c0,0,0.1,0,0.1,0c0.1,0,0-0.1,0-0.1
							c0,0,0,0,0,0l0-0.1c0,0,0.1,0,0,0c0.1-0.1,0-0.2,0.1-0.2l0,0c0-0.1-0.1,0-0.1-0.1l0.2,0l-0.1,0c0,0,0,0,0,0c0-0.1,0,0-0.1,0
							c0.1,0,0-0.2,0.1-0.1c0,0-0.1,0-0.1,0c0.1,0,0-0.1,0.1-0.1c0,0,0,0.1,0.1,0c-0.1-0.1,0.1-0.1,0.1-0.1c-0.1,0,0-0.1,0-0.2
							c0,0,0.1-0.1,0.1-0.2l0,0c-0.1,0,0-0.1,0-0.2c0,0,0.1,0,0.1,0.1l0,0c0,0,0,0,0-0.1l0,0c0-0.1,0-0.2,0.1-0.2c0,0-0.2,0-0.2-0.1
							c0,0,0.1,0,0.1,0c0,0,0,0,0,0l0,0.1c0,0,0,0,0-0.1c0,0,0,0,0.1,0c0,0,0,0,0,0c0,0,0.1-0.1,0.1-0.1c0,0-0.1,0,0,0
							c0-0.1,0.1,0,0.1,0c0,0,0-0.1,0-0.1c0,0,0,0,0.1,0c0,0,0.1-0.2,0-0.1l0,0l0,0l0,0l0,0c0-0.1,0.1-0.2,0.1-0.3l0,0
							c0-0.1,0-0.2,0-0.2c0,0,0.1,0,0.1,0c0-0.1,0-0.1,0-0.1c0,0.1,0,0,0,0.1c0-0.1,0.1-0.1,0.1-0.2c0,0,0.1,0,0.1-0.1l-0.1,0
							c0,0,0-0.1,0-0.1l0.1,0c0.1-0.1,0-0.3,0.1-0.3c0-0.1-0.1,0.1-0.1,0c0-0.1,0.1-0.1,0.2-0.1c0.1-0.1-0.1-0.1,0-0.2
							c0,0-0.1,0-0.1-0.1c0-0.1,0.1,0,0.1,0c0,0,0,0,0,0c0,0,0,0.1,0,0l0,0c0,0,0.1-0.1,0.1-0.1c0-0.1,0,0-0.1,0
							c0.1-0.1,0-0.1,0.1-0.2c0,0,0,0,0,0c0.1-0.1,0-0.1,0-0.2c0.1,0,0.1,0,0.1,0c0,0,0.1,0,0.1,0c0-0.1,0.1-0.1,0.1-0.2l0,0
							c0,0,0,0,0-0.1l-0.1,0c0,0,0,0,0,0c0,0-0.1,0-0.1-0.1c0,0,0-0.1,0.1-0.1c-0.1,0.1,0.1,0,0,0.1c0,0,0,0,0-0.1c0,0,0,0,0,0
							c0.1-0.1-0.1-0.1,0-0.2c0,0,0.1,0,0.1,0c0,0-0.1,0-0.1,0c0-0.1,0-0.1,0-0.1l0,0c0,0,0-0.1,0-0.1c0,0,0,0,0,0
							c0-0.1,0.1-0.1,0.1-0.2c0,0,0.1,0,0.1,0c0-0.1,0.1-0.1,0.1-0.2c-0.1,0,0,0-0.1-0.1l0,0.1l0-0.1c0,0,0,0.1,0,0.1
							c0-0.1,0,0-0.1,0c0.1,0,0-0.1,0.1-0.2l0.1,0c0.1-0.1,0-0.2,0.1-0.3l0,0c0,0,0-0.1,0-0.1c0,0,0.1,0,0.1,0c0,0,0-0.1,0-0.1
							l0.1,0c0.1-0.1-0.1-0.2,0-0.2c0,0,0.1,0,0.1,0.1c0,0,0-0.1,0-0.1c0,0,0-0.1,0-0.1c0,0,0,0,0-0.1c0,0,0,0,0,0c0,0,0-0.1-0.1,0
							c0.2-0.1,0.1-0.3,0.2-0.3c0-0.1,0-0.2,0.1-0.2c0,0,0,0,0,0c0.1-0.1-0.1-0.1,0-0.2c0.1,0,0,0.1,0,0c0.1,0,0-0.1,0.1-0.2l0,0
							c0.1,0,0-0.1,0-0.2c0,0,0,0,0,0c0-0.1,0-0.2,0-0.3c0,0,0,0,0.1,0c0,0-0.1,0-0.1-0.1c0,0,0.1-0.1,0.1,0l0,0.1
							c0.1,0,0-0.1,0.1-0.1l0,0c0-0.1,0-0.1,0-0.2l0,0c-0.1-0.1,0.1,0,0-0.1l0.1,0c0,0,0-0.2,0-0.2c0,0.1,0,0.2,0.1,0.2
							c0,0,0-0.1,0-0.2c0,0,0,0,0,0.1c0-0.1,0-0.1,0-0.2c0.1,0.1,0.1-0.2,0.2-0.2c0-0.2,0.1-0.3,0.2-0.4c-0.1,0,0,0-0.1-0.1
							c0,0,0-0.1,0-0.1l0.1-0.1c0,0,0,0,0,0.1c0-0.1,0.1,0,0.1-0.1c0,0,0-0.1,0-0.1l-0.1,0c0-0.1,0.1-0.1,0.1-0.2l0,0
							c0-0.1,0.1-0.2,0-0.3c0,0,0.1,0,0.1,0c0.1-0.1,0-0.3,0.1-0.4l0,0c0,0,0-0.1,0-0.1c0,0,0,0,0,0c0,0,0-0.1,0-0.1l0,0
							c0.1-0.1,0-0.2,0-0.4c0.1,0,0.2-0.1,0.2-0.1l0,0c0.1-0.2,0-0.3,0.1-0.5c0.1-0.1,0.2-0.3,0.3-0.4c0,0-0.1,0-0.1-0.1
							c0,0,0-0.1,0.1-0.1l0,0c0.1,0,0.1-0.1,0.1-0.1l-0.1,0c0.2-0.1,0.1-0.4,0.2-0.4c0,0,0-0.1,0-0.1l0.1,0c0-0.1,0.1-0.1,0.1-0.3
							l0,0c0-0.1-0.1-0.1-0.1-0.2l0.1,0c0-0.1,0.2-0.2,0.1-0.4c0,0,0,0,0,0c0-0.1,0.1-0.2,0-0.2c0.1,0,0.1-0.1,0-0.2l0,0
							c0-0.1-0.1-0.1-0.1-0.2c0,0,0,0,0,0c0.1,0,0-0.1,0-0.1l0,0c0-0.1,0-0.1,0-0.1c0,0,0.1-0.1,0.1-0.1c0,0-0.1-0.1,0-0.1
							c0,0,0,0,0,0c0.1-0.1,0-0.2,0.1-0.2c0,0,0,0,0,0c0,0.1-0.1,0.1-0.1,0.1c0,0,0.1,0,0.1,0c0-0.1-0.1-0.2,0-0.2c0,0,0,0,0,0l0,0
							c0,0,0,0,0,0c0,0,0,0,0,0c0,0,0-0.1,0.1-0.1c-0.1,0,0-0.1-0.1,0c0,0,0,0,0,0c0,0,0,0,0,0l0,0c0,0,0,0.1,0,0.1c0,0,0-0.1,0-0.1
							c0,0-0.1-0.1-0.1-0.1c0.1,0,0.2-0.1,0.2-0.1c0-0.1,0.1-0.2,0-0.3c0,0,0,0,0.1,0c0,0,0,0,0,0.1c0-0.1,0.1-0.2,0-0.2
							c0.1-0.1,0.1,0.1,0.1,0l0,0c0.2-0.2-0.1-0.4,0.2-0.5c0,0,0,0,0,0c0.2-0.2,0.1-0.5,0.3-0.7c0-0.1,0-0.1,0-0.1l0.1,0l0-0.1
							c0-0.1,0.2-0.1,0.2-0.3l0,0c0,0,0-0.2,0.1-0.1c0,0,0,0,0,0l0,0l0-0.1c0.1-0.1,0.1,0.1,0.2-0.1c0-0.1,0-0.2-0.1-0.2
							c0,0,0,0-0.1,0l0,0c-0.1,0-0.2-0.1-0.3,0l0,0.1l-0.1,0l0-0.1c-0.1,0,0,0.1,0,0.1c0,0,0,0-0.1,0l0.1,0.1c0,0-0.1-0.1-0.1,0
							c0,0,0.1,0,0.1,0.1c-0.1,0-0.1,0-0.1,0.1c0,0,0,0,0,0c0,0,0,0.1,0,0.1c-0.1,0,0,0.1-0.1,0.1c0,0,0,0.1,0,0.1
							c-0.1-0.1-0.1,0.1-0.2,0.1c0.1,0.1,0,0.2,0,0.3c0,0,0,0,0,0c0,0-0.1,0-0.1,0.1c0.1,0,0.1,0.1,0.1,0.2c-0.1,0-0.1-0.1-0.2-0.1
							c0.1,0,0,0.1,0.1,0.1c-0.1,0,0,0-0.1,0c0.1,0,0,0,0,0.1C69.7,49,69.7,48.9,69.6,48.9C69.6,49,69.6,48.9,69.6,48.9z M69.2,50.6
							L69.2,50.6C69.2,50.6,69.2,50.6,69.2,50.6C69.2,50.6,69.2,50.6,69.2,50.6z M69.1,50.8C69.1,50.7,69.2,50.7,69.1,50.8
							C69.2,50.7,69.2,50.7,69.1,50.8C69.2,50.7,69.2,50.7,69.1,50.8z M69.6,50.6C69.6,50.6,69.6,50.6,69.6,50.6
							C69.6,50.6,69.6,50.6,69.6,50.6L69.6,50.6C69.6,50.6,69.6,50.6,69.6,50.6z"/>
						<polygon fill="#808181" points="69.6,50.5 69.6,50.5 69.5,50.5 69.6,50.6 						"/>
						<polygon fill="#808181" points="64.9,63 64.9,63 64.9,63 						"/>
						<polygon fill="#808181" points="68.3,52.6 68.3,52.6 68.3,52.6 						"/>
						<path fill="#808181" d="M64.4,63.6C64.4,63.6,64.4,63.6,64.4,63.6C64.4,63.6,64.4,63.6,64.4,63.6z"/>
						<path fill="#808181" d="M64.3,64L64.3,64C64.2,64,64.3,64,64.3,64z"/>
						<polygon fill="#808181" points="64.1,64.2 64.2,64.2 64.2,64.2 						"/>
						<path fill="#808181" d="M65.6,60.2C65.6,60.2,65.6,60.2,65.6,60.2C65.6,60.2,65.6,60.2,65.6,60.2z"/>
						<path fill="#808181" d="M65.3,61.4C65.2,61.4,65.2,61.4,65.3,61.4C65.2,61.4,65.2,61.4,65.3,61.4z"/>
						<polygon fill="#808181" points="66,58.8 66,58.8 66,58.8 						"/>
						<path fill="#808181" d="M65.3,61.3C65.2,61.3,65.2,61.4,65.3,61.3C65.2,61.4,65.3,61.3,65.3,61.3z"/>
						<polygon fill="#808181" points="63.7,65.3 63.7,65.3 63.7,65.3 						"/>
						<path fill="#808181" d="M63.7,65.3L63.7,65.3C63.7,65.3,63.7,65.3,63.7,65.3z"/>
						<path fill="#808181" d="M63.7,65.4L63.7,65.4C63.7,65.3,63.7,65.3,63.7,65.4z"/>
						<path fill="#808181" d="M63.9,65L63.9,65C63.8,65,63.9,65,63.9,65z"/>
						<path fill="#808181" d="M63.9,64.9C63.9,64.9,63.8,64.9,63.9,64.9L63.9,64.9C63.8,64.9,63.9,64.9,63.9,64.9z"/>
						<path fill="#808181" d="M64.3,64.5L64.3,64.5c0,0.1,0,0.1,0,0.1C64.4,64.6,64.2,64.6,64.3,64.5z"/>
						<path fill="#808181" d="M64.4,64.3C64.4,64.3,64.5,64.3,64.4,64.3C64.5,64.3,64.5,64.3,64.4,64.3z"/>
						<path fill="#808181" d="M65.1,62.4L65.1,62.4C65.2,62.4,65.2,62.4,65.1,62.4z"/>
						<polygon fill="#808181" points="65,61.9 65,61.9 65,62 						"/>
						<polygon fill="#808181" points="65.4,61.8 65.4,61.9 65.4,61.8 						"/>
						<path fill="#808181" d="M66.6,58.6L66.6,58.6C66.5,58.7,66.6,58.7,66.6,58.6z"/>
						<path fill="#808181" d="M67.1,57.2C67.1,57.2,67.1,57.2,67.1,57.2C67.1,57.2,67.1,57.2,67.1,57.2z"/>
						<polygon fill="#808181" points="68.7,53.2 68.7,53.2 68.7,53.1 						"/>
					</g>
				</g>
			</g>
		</g>
	</g>
	<g>
		<path fill="#D8B58B" d="M14.6,56.6c-2.3-4.8-0.3-10.5,4.4-12.9s10.5-0.3,12.9,4.4s4.4,18.8-0.4,21.2S16.9,61.4,14.6,56.6z"/>
		<g>
			<g>
				<g>
					<g>
						<path fill="#808181" d="M14.4,56.5c0.1,0.2,0-0.2,0.1,0.2C14.5,56.6,14.4,56.6,14.4,56.5z"/>
						<path fill="#808181" d="M14.9,57.4c0.6,0.7,1.1,1.7,1.8,2.4c0.1,0.1-0.1,0,0.1,0.2c0.7,0.7,1.6,1.8,2.3,2.7l-0.1,0
							c0.1,0.2,0.4,0.3,0.5,0.5c0,0-0.1,0,0,0c0.1,0,0.3,0.3,0.4,0.3c0.1,0.1,0,0.1,0.1,0.2l0.1,0.1c0.4,0.2,0.6,0.6,1,0.9
							c0,0-0.1,0,0,0c0.6,0.5,1.4,1.2,2.1,1.7c0,0-0.1,0-0.1,0.1c0.1,0,0.3,0.1,0.5,0.3c0.1,0.1,0.4,0.2,0.6,0.4l0,0
							c0.2,0.1,0.2,0.2,0.4,0.2l0.1,0.1c0.1,0,0.2,0.2,0.4,0.3l0,0c0.1,0.1,0.2,0.2,0.3,0.2l0,0c0.3,0.2,0.5,0.3,0.5,0.2
							c0.1,0.1-0.3-0.2-0.2,0c1,0.5,2.1,1,3.3,1.2c0.1,0,0.2,0.1,0.2,0.1c0.1,0,0.4,0,0.5,0c0,0,0.1,0,0.1,0c0.2,0,0.2-0.1,0.5-0.1
							c-0.1,0-0.1,0-0.1,0.1c0.2-0.1,0.5-0.1,0.7-0.2c0,0-0.1,0-0.1,0.1c0.2-0.2,0.5-0.1,0.6-0.3l-0.1,0.1c0.3-0.1,0.1-0.1,0.3-0.3
							c-0.1,0.1,0,0,0,0.1c0.1-0.1,0.2-0.2,0.4-0.4c0.1-0.1,0.3-0.3,0.3-0.4c0,0,0,0,0,0c0.2-0.3,0.4-0.5,0.5-0.8
							c0.1-0.1,0.1,0.1,0.2-0.2c-0.1,0,0.2-0.5,0-0.4c0.1-0.3,0.3-0.7,0.3-0.9c0,0.1,0.1-0.1,0.1,0.1l0.1-0.2c0,0-0.1,0.2,0,0.1
							c0-0.1,0.1-0.5,0.1-0.6c0-0.2,0-0.4,0-0.8c0,0.2,0.1-0.1,0.1,0L34,64.3c0-0.1,0.1,0,0.1-0.2c0,0,0-0.1,0-0.1
							c0,0,0-0.5,0.1-0.5c0,0,0,0.2,0,0.1c0-0.2,0-0.2,0-0.5l0,0c0-0.1,0-0.4-0.1-0.3c0,0.1,0,0,0,0.1c0-0.1,0-0.4,0-0.6
							c0,0.1,0,0.1,0,0.1c0-0.3-0.1-0.6-0.1-0.9c0,0,0.1,0.1,0,0.2c0.1-0.4-0.1-0.9,0-1.2c0,0.1,0,0,0,0c0-0.2,0-0.2,0-0.3
							c0,0,0-0.2,0-0.3c0-0.1,0,0,0,0.1c0-0.2-0.1-1-0.1-1.4c0,0-0.1-0.3-0.1-0.4l0,0c0-0.1,0-0.3,0-0.4c-0.1-0.2,0.1,0.8,0.1,0.5
							c0-0.1-0.1-0.4,0-0.3c0-0.2-0.1-0.4-0.1-0.6c0,0.1,0.1,0.2,0.1,0c0-0.3,0-0.1-0.1-0.3l0-0.1c0,0,0-0.3-0.1-0.1
							c0,0-0.1-0.4,0-0.4l0.1,0c0-0.1-0.1-0.2-0.1-0.3c0,0,0-0.1,0,0c-0.1,0,0-0.3-0.1-0.4c0-0.3-0.1-0.7-0.1-0.8
							c-0.1-0.2-0.1-0.4-0.2-0.6c0,0,0,0.1,0.1,0.1c0-0.1,0-0.2-0.1-0.3c0,0,0-0.3,0-0.5c-0.1-0.2-0.1-0.1-0.1-0.1
							c0.1-0.2-0.2-0.5-0.2-0.8c0,0.1,0.1,0.3,0.1,0.1c0-0.2-0.1-0.3-0.2-0.6L33,52.2c0-0.1-0.1-0.4-0.1-0.4c0-0.1-0.1-0.3-0.1-0.3
							c-0.1-0.5-0.4-1.1-0.3-1.4c0-0.1-0.1-0.2-0.1-0.2c0,0.1,0.1,0.1,0.1,0.2c0-0.1,0-0.1-0.1-0.1c0-0.1-0.1-0.3,0-0.1
							c-0.1-0.3-0.2-0.3-0.4-0.7c0,0,0,0,0-0.1l-0.1-0.2c-0.1-0.3,0-0.2,0-0.2c-0.1-0.1-0.1-0.3-0.2-0.3c0-0.1,0-0.1,0-0.2
							c0,0.1-0.1-0.1-0.1-0.1l0,0.1c0,0-0.1-0.2-0.1-0.2c0,0,0.1,0.2,0.1,0.3c-0.1-0.1-0.1-0.2-0.2-0.2c0.1,0-0.1-0.2-0.1-0.3
							c-0.1-0.1-0.1-0.1-0.1-0.1c0,0-0.1-0.2,0-0.1c0,0,0,0.1,0.1,0.1c0-0.1,0-0.1-0.1-0.2C31,47.1,31,47.3,30.9,47
							c0,0,0.1,0,0.1,0.1l-0.1-0.2l0,0c0,0,0,0,0,0c-0.1,0-0.2-0.3-0.3-0.3c-0.1-0.1-0.1-0.2-0.2-0.3l0,0C30.3,46.2,30.1,46,30,46
							l0,0c0-0.1-0.2-0.2-0.3-0.2c-0.1-0.2,0.1-0.2-0.1-0.3c-0.1-0.1-0.3-0.2-0.2-0.1c-0.3-0.3-0.6-0.5-0.8-0.7c-0.1,0,0,0-0.1,0
							c-0.4-0.3-1-0.5-1.3-0.8c0.1,0.1,0,0,0-0.1c-0.1,0-0.1-0.1-0.2-0.1c0,0,0,0.1,0.1,0.1c-0.3-0.1-0.7-0.3-0.9-0.4
							c0.1,0,0,0-0.1,0c0-0.1-0.2-0.1-0.4-0.2l0,0l-0.1-0.1c-0.1,0-0.1,0.1-0.2,0c0,0,0,0,0-0.1c-0.2,0-0.4,0-0.6-0.1l-0.1-0.1
							c-0.1,0-0.2,0-0.1,0c-0.3-0.1-0.5-0.1-0.6-0.1c-0.8,0.1-1.4,0.1-2.1,0.2l0,0c-0.2,0-0.1,0.1-0.2,0.1c0.1,0-0.1,0,0-0.1
							c-0.3,0-0.3,0.1-0.5,0.2c0,0,0.1-0.1,0.1,0c0,0-0.4,0-0.4,0.1c-0.1,0,0-0.1,0-0.1l-0.1,0.1c-0.2,0,0.4-0.2,0.2-0.3l-0.1,0.1
							c-0.2,0,0.4-0.2,0-0.1c-0.1,0.1-0.3,0.2-0.1,0.2c-0.3,0.1-0.1,0.2-0.4,0.3c-0.1,0,0.3-0.1,0.2-0.1c-0.2,0-0.3,0.1-0.5,0.2
							c0.2,0,0.1,0.1,0,0.1c-0.2,0,0.1-0.1-0.1,0c0,0-0.2,0.2,0,0.1c-0.1,0.1-0.3,0.1-0.4,0.2c-0.1,0,0.2-0.2-0.1-0.1
							c0.1,0-0.3,0.2-0.1,0.2c-0.1,0-0.1,0-0.1-0.1c-0.2,0-0.3,0.3-0.4,0.2l0,0.1c-0.1,0-0.1,0-0.2,0c-0.1,0.1-0.3,0.3-0.4,0.2
							c0,0-0.3,0.2-0.2,0.2c0.2-0.1,0.2-0.2,0.3-0.2c-0.1,0-0.2,0.2-0.3,0.2l0,0c0,0-0.2,0.1-0.2,0.2c0,0,0,0-0.1,0l0,0.1
							c-0.2,0.2-0.1,0-0.3,0.2l0.1-0.2c0,0-0.1,0.1-0.2,0.2c0,0.1,0,0.2-0.1,0.2c-0.1,0.1-0.1,0-0.2,0.1l0.1-0.2c0,0-0.1,0-0.3,0.2
							c-0.1,0.1-0.2,0.3,0,0.2c-0.1,0.1-0.2,0.2-0.2,0.1c-0.1,0.2,0.1,0-0.1,0.2c-0.1,0-0.3,0.2-0.4,0.3c0-0.1,0.1-0.1,0.1-0.2
							l-0.1,0.1c0.1-0.2-0.1,0-0.1-0.1c-0.1,0.1-0.1,0.2-0.2,0.3c0.2-0.2-0.1,0.3,0,0.3c-0.2,0.3-0.3,0-0.4,0.5c0.1,0,0,0.2,0.1-0.1
							c-0.1,0.2,0,0.2-0.2,0.4c0.1-0.2-0.2,0.1-0.1-0.1c0,0,0.1-0.1,0.1-0.2c-0.1,0.1-0.1-0.1-0.2,0.1c-0.1,0.1-0.2,0.3-0.1,0.3
							c0,0,0.1-0.2,0.1-0.1c-0.1,0.2-0.2,0.3-0.2,0.4c0.1-0.2,0.1-0.2,0.2-0.2l-0.1,0.2l0-0.1c-0.2,0.3,0,0.1-0.1,0.4l-0.1,0.1
							c0-0.1,0.2-0.4,0.1-0.4c-0.1,0.2-0.1,0.3-0.2,0.4l0.1-0.1c0,0.1-0.2,0.1-0.2,0.4c0,0.2,0,0.1,0,0.1c-0.1,0.3-0.1,0.4-0.2,0.6
							c-0.1-0.1-0.1,0.4-0.1,0.1c0.1-0.1,0.2-0.6,0.2-0.7c-0.1,0.1,0.1-0.2,0.1-0.4c-0.1,0.3-0.2,0.2-0.2,0.2c0,0.1,0,0.2,0,0.2
							c0,0,0.1,0,0.1,0c-0.1,0.3-0.2,0.6-0.2,0.8c-0.1,0.1-0.1,0-0.1-0.1c-0.1,0.4-0.2,0.7-0.3,1.1c0.1-0.2-0.1,0.4,0,0.2
							c0.1-0.2,0.1-0.3,0.2-0.2c0,0.1,0,0-0.1,0c0,0.2-0.1,0.2-0.1,0.4c0-0.3-0.1-0.1-0.1-0.1c0,0.2-0.1,0-0.1,0.2
							c0,0.2,0,0.5,0,0.8c-0.1,0.3,0,0.9,0,1.2c0,0.2-0.1,0.1-0.1,0.2c0,0.2,0.1-0.2,0.1,0.1l0,0c0,0.1,0,0.6,0.1,0.6L13.8,54
							c0,0.1,0,0.1,0.1,0.1c0,0,0,0.1-0.1,0c0,0.2,0.1,0.4,0.1,0.6l0-0.1c0.1,0.3,0.2,0.6,0.3,0.9l0,0l0.1,0.2c-0.1,0,0,0.1,0.1,0.2
							c-0.1-0.1-0.2-0.3-0.3-0.5c0-0.1,0.1,0.1,0.1,0c0-0.1-0.1-0.4-0.1-0.4c0,0.1,0,0.1,0.1,0.2c0,0.1-0.1-0.1-0.2-0.2
							c0,0.1,0,0.2,0.1,0.2c-0.1-0.1-0.1-0.2-0.2-0.4c0.1,0.1,0-0.1,0,0c-0.1,0-0.1-0.2-0.2-0.4c0-0.2-0.1-0.5-0.2-0.8
							c0.1,0.1,0.1,0.3,0.2,0.4c0-0.2,0-0.2,0-0.4c-0.1-0.1-0.1-0.1-0.2-0.4l0,0c0-0.2-0.1-0.2-0.1-0.5c0-0.2,0-0.5,0-0.7
							c0-0.2,0-0.4,0.1-0.6l0,0c-0.1-0.2,0.1-0.7,0.1-1c0.1-0.5,0.2-1,0.4-1.2c0.3-0.8,0.5-1.5,1-2.2l0,0.2c0-0.2,0.1-0.1,0.2-0.2
							c-0.1,0.1,0.1-0.2,0.1-0.3c0.3-0.3,0.5-0.7,0.7-1l0,0c0.2-0.3,0.5-0.6,0.9-0.8c0,0,0.1,0,0.2-0.1c0.1-0.2,0.2-0.3,0.5-0.5
							c0.2-0.2,0.6-0.4,0.8-0.4c0.8-0.6,1.7-0.8,2.7-1.1l0.1,0c0.9-0.3,2.1-0.3,2.9-0.2L24,42.6c0.2,0,0.6,0,0.5,0
							c0.2,0.1,0.6,0.1,0.8,0.2c0.3,0.1,0.3,0,0.5,0.1c0.5,0.2,0.7,0.2,1.1,0.4l-0.1-0.1c-0.1,0-0.1,0,0,0.1c0.2,0,0.6,0.3,0.5,0.1
							c0.2,0.1,0.5,0.3,0.8,0.4c0.3,0.2,0.5,0.3,0.7,0.5c0,0,0.1,0,0.1,0c0.4,0.3,0.7,0.6,1,0.9c0,0.1-0.1,0,0,0.1
							c0.1,0.1,0,0,0.1,0.1c0.6,0.5,1,1.2,1.4,1.7c0.7,1,1.1,2.2,1.5,3.3l0,0c0.2,0.3,0.2,0.9,0.4,1.1c0,0.1,0.1,0.3,0,0.3
							c0.1,0.3,0.2,0.8,0.3,1.2c0,0,0-0.1,0-0.1c0.1,0.4,0.2,0.8,0.2,1.3c0,0,0-0.1-0.1-0.1c0,0.2,0.2,0.4,0.1,0.5
							c0,0.1,0.1,0.1,0,0c0.1,1,0.4,2.1,0.5,3.1c0,0.8-0.2,0.1,0,0.7c0,0.1,0,0,0,0c0,0.2-0.1,0.4,0,0.5c0.1-0.1,0,0.1,0.1,0.1
							c0,0.5-0.1,0.6,0,0.9l0,0c0.1,0.4,0.1,0.9,0.2,1.3c0,1.2-0.1,2.4-0.2,3.5c-0.2,1.2-0.5,2.3-1.1,3.4c-0.6,1-1.8,1.9-3.1,1.9
							c-1.3,0.1-2.4-0.3-3.5-0.9c-0.5-0.3-0.5-0.3-1.1-0.6c0,0,0.1,0,0,0c-0.1,0-0.4-0.2-0.5-0.2c-0.7-0.5-1.4-0.9-2.1-1.5
							c0.1,0.1,0.2,0.1,0.1,0L23,66.9l0,0c-0.1-0.1-0.2-0.1-0.1,0c-1.8-1.4-3.3-3-4.7-4.6c-0.3-0.4-0.8-0.9-1.2-1.4
							c-1-1.4-1.8-2.6-2.6-4.1C14.3,56.7,14.6,56.8,14.9,57.4z"/>
						<path fill="#808181" d="M14.3,56.2c0-0.1-0.1-0.3,0.1-0.1C14.3,56.1,14.3,56.2,14.3,56.2z"/>
						<path fill="#808181" d="M13.9,51.1C13.9,51.1,13.9,51.1,13.9,51.1C13.9,51.1,14,51.2,13.9,51.1C13.9,51.1,13.9,51.2,13.9,51.1
							z"/>
						<path fill="#808181" d="M14.2,49.9c0,0,0,0.3-0.1,0.5C14.1,50.2,14.2,50,14.2,49.9z"/>
						<path fill="#808181" d="M14.7,48.8C14.8,48.7,14.8,48.7,14.7,48.8C14.7,48.9,14.7,48.8,14.7,48.8z"/>
						<path fill="#808181" d="M14.7,48.7c0-0.1,0.1-0.1,0.1-0.2C14.8,48.5,14.7,48.7,14.7,48.7z"/>
						<path fill="#808181" d="M16.1,46.6c0,0,0.1-0.2,0.2-0.2C16.2,46.4,16.1,46.6,16.1,46.6z"/>
						<path fill="#808181" d="M16.8,45.6C16.9,45.6,16.9,45.6,16.8,45.6C17,45.5,16.9,45.6,16.8,45.6L16.8,45.6z"/>
						<polygon fill="#808181" points="33.1,52.4 33,52.3 33,52.3 						"/>
						<path fill="#808181" d="M34.1,62.1c0,0.1,0,0.1,0,0.1C34.1,62.1,34.1,62.3,34.1,62.1z"/>
						<polygon fill="#808181" points="33.2,67.3 33.3,67.3 33.3,67.3 						"/>
					</g>
				</g>
			</g>
		</g>
	</g>
	<g>
		<path fill="#D8B58B" d="M29.6,64.9c-3.1-5.6-6.2-11.3-9.2-17"/>
		<g>
			<g>
				<g>
					<g>
						<path fill="#808181" d="M20.5,47.8C20.5,47.8,20.4,47.9,20.5,47.8L20.5,47.8L20.5,47.8z"/>
						<path fill="#808181" d="M20.5,48.1c0,0,0.1,0,0.2,0C20.6,48,20.6,48,20.5,48.1c0-0.1,0-0.1,0-0.1c0,0,0,0-0.1,0
							C20.4,48,20.5,48,20.5,48.1C20.5,48,20.5,48,20.5,48.1z"/>
						<path fill="#808181" d="M21.7,50.5L21.7,50.5C21.7,50.5,21.7,50.5,21.7,50.5z"/>
						<path fill="#808181" d="M22.5,52C22.4,52,22.4,52,22.5,52C22.4,52,22.5,52,22.5,52z"/>
						<path fill="#808181" d="M22.5,52.3C22.5,52.3,22.5,52.3,22.5,52.3C22.5,52.3,22.5,52.3,22.5,52.3z"/>
						<path fill="#808181" d="M21.7,50.5L21.7,50.5C21.7,50.6,21.7,50.5,21.7,50.5z"/>
						<path fill="#808181" d="M20.8,48.3C20.8,48.3,20.8,48.3,20.8,48.3L20.8,48.3L20.8,48.3z"/>
						<polygon fill="#808181" points="21.3,49.9 21.3,49.9 21.2,49.9 						"/>
						<path fill="#808181" d="M21,49.4C21,49.4,21.1,49.4,21,49.4C21.1,49.4,21,49.4,21,49.4C21,49.4,21,49.4,21,49.4z"/>
						<path fill="#808181" d="M20.7,48.5L20.7,48.5L20.7,48.5z"/>
						<path fill="#808181" d="M21.5,50.3C21.5,50.3,21.4,50.3,21.5,50.3L21.5,50.3z"/>
						<path fill="#808181" d="M29.5,64.2L29.5,64.2C29.5,64.2,29.5,64.2,29.5,64.2z"/>
						<polygon fill="#808181" points="29.5,64.9 29.5,64.9 29.5,64.9 						"/>
						<path fill="#808181" d="M22.7,52.8L22.7,52.8C22.7,52.8,22.7,52.8,22.7,52.8z"/>
						<path fill="#808181" d="M25.1,57.1c0-0.1,0.1,0,0.1-0.1C25.2,57.1,25.1,57,25.1,57.1z"/>
						<path fill="#808181" d="M20.8,48.3L20.8,48.3C20.8,48.3,20.8,48.3,20.8,48.3z"/>
						<polygon fill="#808181" points="25.2,57 25.2,57 25.2,57 						"/>
						<path fill="#808181" d="M23.3,53.9C23.3,53.9,23.3,53.9,23.3,53.9C23.3,53.9,23.3,53.9,23.3,53.9z"/>
						<path fill="#808181" d="M23,53L23,53C23,53.1,23,53,23,53z"/>
						<path fill="#808181" d="M23.6,54.3C23.6,54.3,23.6,54.3,23.6,54.3L23.6,54.3C23.6,54.3,23.6,54.3,23.6,54.3z"/>
						<path fill="#808181" d="M23.9,54.7C23.9,54.7,23.9,54.7,23.9,54.7L23.9,54.7L23.9,54.7z"/>
						<path fill="#808181" d="M28.7,62.9C28.7,62.9,28.7,62.9,28.7,62.9C28.7,62.9,28.8,63,28.7,62.9z"/>
						<path fill="#808181" d="M20.8,48.3C20.8,48.3,20.8,48.3,20.8,48.3C20.8,48.3,20.8,48.3,20.8,48.3
							C20.8,48.3,20.8,48.3,20.8,48.3z"/>
						<path fill="#808181" d="M24,54.1L24,54.1C24.1,54.1,24,54.1,24,54.1z"/>
						<path fill="#808181" d="M27.1,59.8L27.1,59.8C27.1,59.8,27.1,59.8,27.1,59.8z"/>
						<path fill="#808181" d="M24.2,54.3C24.2,54.4,24.2,54.4,24.2,54.3L24.2,54.3L24.2,54.3z"/>
						<path fill="#808181" d="M28.7,62.9L28.7,62.9L28.7,62.9z"/>
						<path fill="#808181" d="M29.1,63.3c0-0.1-0.1,0-0.1,0C28.9,63.3,29,63.3,29.1,63.3c-0.1-0.1-0.2-0.1-0.2-0.2c0,0,0,0,0,0
							c-0.1,0-0.1-0.2-0.2-0.2c0,0,0,0,0,0c0,0-0.1,0-0.1,0.1c0,0-0.1,0,0-0.1c0,0,0,0,0,0l0,0c0-0.1,0,0,0.1,0
							c-0.1,0-0.1-0.1-0.1-0.1c0.1,0,0.1,0.1,0.1,0l0,0.1c0.1-0.1,0,0,0.1-0.1c0-0.1-0.1-0.1-0.1-0.2c0,0,0,0-0.1,0
							c-0.1-0.1,0.1-0.2,0-0.2c-0.1,0-0.1,0-0.1-0.1l0.1,0c0-0.1-0.1,0-0.1-0.1c0,0,0.1,0.1,0.1,0c0-0.1-0.1,0-0.1-0.1l0.1,0
							c-0.1-0.1-0.2-0.2-0.2-0.3c0,0,0.1,0,0.1,0c-0.1-0.1-0.1-0.3-0.2-0.4l-0.1,0c0,0,0,0,0,0c0-0.1,0,0-0.1,0c0,0,0-0.1,0,0
							c-0.1-0.1-0.2-0.2-0.2-0.3l0,0c0-0.1-0.2,0-0.1-0.1l0,0c-0.1-0.2-0.2-0.3-0.2-0.5c-0.1,0-0.1-0.2-0.2-0.1c0-0.1,0-0.1,0-0.3
							c0,0-0.1,0-0.1-0.1l0.1,0l-0.1,0l0-0.1l0,0c0,0,0,0,0,0.1c-0.1,0,0-0.2,0-0.2l-0.1-0.1c0,0,0,0,0.1,0c-0.1,0,0.1,0,0-0.1
							c0,0,0,0,0,0c0-0.1,0-0.1-0.1-0.2l0,0c0-0.1-0.1-0.2-0.2-0.3c0,0.1-0.1,0.1-0.1,0l0.1,0c0,0,0,0-0.1,0c0,0,0-0.1,0.1-0.1
							l-0.1,0c0,0,0,0,0.1,0c0,0,0-0.1-0.1-0.1l0,0c-0.1-0.1-0.1-0.2-0.2-0.3c-0.1,0-0.1,0-0.1,0c0-0.1,0-0.2-0.1-0.3
							c-0.1,0-0.1,0-0.1,0c0,0,0-0.1,0-0.1C26.1,58,26.1,58,26,57.8c0,0,0,0,0,0c0,0,0-0.1,0-0.1l0,0c-0.1-0.1-0.1-0.4-0.2-0.5l0,0
							l-0.1-0.1c0-0.1,0.1,0,0.1,0c-0.1-0.1-0.1-0.2-0.2-0.3c0.1-0.2-0.2-0.3-0.1-0.5l0,0c0,0,0,0,0-0.1c0,0,0,0,0,0
							c-0.2-0.2-0.2-0.5-0.3-0.8c0-0.1-0.2,0-0.2-0.1l0.1,0c-0.2-0.2-0.2-0.4-0.4-0.5c0,0,0,0,0,0c0-0.1-0.1-0.1-0.1-0.1
							c0,0,0,0,0-0.1c0-0.1-0.1-0.1-0.1-0.1c0,0,0,0,0,0c0,0-0.1-0.1-0.1-0.1c0-0.1-0.1-0.1-0.1-0.2c-0.1,0,0-0.1-0.1-0.1
							c0.1,0,0-0.2-0.1-0.2c0,0,0-0.1,0-0.1c0,0-0.1-0.1-0.1-0.1c0-0.1-0.2-0.1-0.1-0.3c-0.1-0.1-0.2-0.3-0.3-0.4
							c0.1,0,0.1,0.1,0.2,0.1c-0.1-0.1-0.2-0.1-0.3-0.3c0,0,0,0,0.1,0c-0.1-0.1-0.1-0.3-0.2-0.3c0,0,0,0,0,0c0,0,0-0.1-0.1,0l0,0
							c0,0.1-0.2,0-0.2,0c0.1,0,0-0.1,0.1-0.1c0,0,0,0-0.1,0c0,0,0,0,0,0c-0.1-0.1-0.1,0-0.1-0.1c0,0,0,0,0.1,0
							c-0.1,0-0.1,0-0.1-0.1c0,0,0,0,0,0c-0.1-0.1-0.2-0.1-0.2-0.3c0.1,0,0-0.1,0.1-0.1L22.8,52l0,0c0-0.1-0.1-0.1-0.1-0.1l0,0
							l-0.1-0.1l0,0.1c-0.1,0-0.1,0.1-0.1,0c0,0,0-0.1,0-0.1l0,0c0,0-0.1,0-0.1-0.1c0,0,0.1,0,0.1,0c-0.1,0-0.1-0.1-0.2-0.1
							c0,0,0.1,0,0.1,0l-0.1,0c0,0,0,0,0-0.1c0-0.1-0.1,0.1-0.1,0c0,0,0,0,0,0c0-0.1-0.1-0.2-0.1-0.3c0.1-0.1,0.1,0.1,0.1,0
							c-0.1-0.1-0.2-0.2-0.3-0.3l0,0c-0.1,0,0-0.1-0.1-0.1c0,0,0.1,0,0.1,0c0-0.1-0.1-0.2-0.2-0.3l0,0c0-0.1-0.1-0.1-0.1-0.2
							c0,0,0,0-0.1,0c0.1-0.2-0.2-0.3-0.2-0.5c0,0,0,0,0,0l-0.1-0.1c0,0,0,0,0,0.1c0,0-0.1,0-0.1-0.1c0.1,0,0.1,0,0.1-0.1
							c0,0,0,0,0,0c0-0.1-0.1,0-0.1-0.1l0,0c0,0-0.1,0-0.1-0.1c0,0,0,0,0.1,0c0,0-0.1,0-0.1-0.1c0,0,0,0,0.1,0.1c0-0.1,0-0.1,0-0.1
							l0,0l0-0.1l0,0c-0.2,0-0.1-0.1-0.2-0.1c0.1,0,0.1,0,0.1,0c0,0,0-0.1,0-0.1c-0.1,0,0-0.1-0.1-0.1c0,0,0,0,0-0.1c0,0,0,0,0,0
							c-0.1,0,0-0.2-0.2-0.3c-0.1-0.1-0.2-0.1-0.2-0.1c0,0,0.1,0,0.1,0c0-0.1,0-0.1-0.1-0.1c0,0,0,0,0,0c0,0-0.1,0-0.1-0.1
							c0,0,0.1,0,0.1,0c0,0-0.1-0.1-0.1-0.1c0,0,0.1,0,0.1,0c0,0-0.1-0.1-0.2-0.1l0,0c0,0,0,0,0.1,0c0.1,0,0,0.1,0,0.1l0,0
							c-0.1,0.1,0.1,0.1,0.1,0.2l-0.1,0l0.1,0c0,0,0,0.1-0.1,0c0,0.1,0,0,0,0.1c0,0,0,0,0,0l0,0c0,0,0,0-0.1,0
							c0,0.1,0.1,0.1,0.1,0.2l0,0c0.1,0.1,0.1,0,0.2,0l-0.1,0.1l0.1,0c0,0,0,0,0,0c0.1,0,0,0,0.1,0c0,0.1,0.1,0.1,0,0.2
							c0.1,0,0-0.1,0.1,0c-0.1,0.1,0.1,0.1,0,0.1c-0.1,0-0.1-0.1-0.1,0c0.1,0,0,0.1,0.1,0.1c0.1,0,0.1,0.1,0.1,0.1c0,0,0,0.2,0,0.2
							l0,0c0.1,0,0.1,0.1,0.1,0.1c0,0-0.1,0-0.1,0l0,0c0,0,0,0,0.1,0l-0.1,0c0,0.1,0.1,0.1,0.1,0.2c0,0,0.1-0.1,0.2-0.1
							c0,0-0.1,0-0.1,0c0,0,0,0,0,0l-0.1,0c0,0,0,0,0.1,0c0,0,0,0,0,0c0,0,0,0,0,0c0,0,0,0.1,0,0.1c0,0,0,0,0.1,0c0,0.1,0,0,0,0.1
							c0,0,0,0.1,0.1,0c0,0,0,0,0,0c0,0,0.1,0.1,0.1,0.1l0,0l0,0l0,0l0,0c0.1,0.1,0.1,0.2,0.2,0.3l0,0c0.1,0.1,0.1,0.1,0.1,0.2
							c0,0,0,0.1,0,0.1c0,0,0.1,0,0.1,0.1c-0.1,0,0,0,0,0c0,0.1,0,0.1,0.1,0.1c-0.1,0,0,0.1,0,0.1l0-0.1c0,0,0,0.1,0,0.1l-0.1,0
							c0,0.2,0.2,0.2,0.2,0.3c0.1,0,0-0.1,0.1-0.1c0,0.1,0,0.2,0,0.2c0,0.1,0.1,0,0.2,0.1c0,0,0.1-0.1,0.1,0c0,0.1-0.1,0.1-0.1,0.1
							c0,0,0,0,0,0c0,0,0,0-0.1,0l0,0c0,0,0,0.1,0,0.1c0,0,0,0,0,0c0,0.1,0.1,0.1,0.1,0.2c0,0,0,0,0,0c0,0.1,0.1,0,0.1,0.1
							c0,0.1-0.1,0,0,0.1c0,0.1-0.1,0-0.1,0c0.1,0,0,0.1,0.1,0.2l0,0c0,0,0,0,0,0.1l0,0c0,0,0,0,0,0.1c0,0,0.1-0.1,0.1,0
							c0,0,0.1,0.1,0,0.1c0-0.1-0.1,0-0.1,0c0,0,0,0,0,0.1c0,0,0,0,0,0c0,0.1,0.1,0,0.1,0.1c0,0,0,0.1,0,0.1c0,0,0,0,0.1,0
							C22.9,53,23,53,23,53l0,0c0,0,0,0,0.1,0.1c0,0,0,0,0,0c0.1,0,0,0.1,0.1,0.2c0,0-0.1,0-0.1,0.1c0.1,0,0,0.1,0.1,0.2
							c0,0,0,0,0.1,0l-0.1-0.1l0.1,0c0,0-0.1-0.1-0.1-0.1c0.1,0,0,0,0.1,0c0,0.1,0.1,0.1,0.1,0.2l-0.1,0.1c0,0.1,0.1,0.1,0.2,0.3
							l0,0c0.1,0,0,0.1,0.1,0.1c0,0,0,0-0.1,0.1c0,0,0,0.1,0.1,0.1l0,0.1c0,0.1,0.2,0,0.2,0.1c-0.1,0-0.1,0-0.1,0c0,0,0,0.1,0,0
							c0,0,0.1,0.1,0.1,0.1c0,0,0.1,0,0.1,0c0,0,0,0,0,0c0,0,0.1,0,0.1,0c-0.1,0.1,0.1,0.2,0.1,0.4c0,0.1,0.1,0.1,0.1,0.2
							c0,0,0,0,0,0c0,0.1,0.1,0,0.1,0.1c0,0.1-0.1,0-0.1,0c-0.1,0.1,0.1,0.1,0,0.2l0,0c0,0.1,0.1,0.1,0.1,0.2c0,0,0,0,0,0
							c0.1,0,0.2,0.1,0.2,0.2c-0.1,0,0,0-0.1,0c0,0,0.1,0,0.1,0c0,0,0,0.1-0.1,0.1l0-0.1c0,0.1,0,0.1,0.1,0.1l0,0
							c0.1,0.1,0.1,0.1,0.2,0.2l0,0c0.1,0,0,0.1,0.1,0.1L24.6,56c0,0,0.1,0.1,0.2,0.2c-0.1,0-0.1-0.1-0.2-0.1c0,0,0.1,0.1,0.1,0.1
							c0,0,0,0,0,0c0.1,0,0.1,0.1,0.2,0.1c-0.1,0.1,0.1,0.2,0,0.3c0.1,0.1,0.1,0.3,0.2,0.4c0.1-0.1,0,0,0.1,0c0,0,0,0,0,0.1l0,0.1
							c0,0,0,0-0.1,0c0,0.1,0,0.1,0,0.1c0,0,0.1,0,0.1,0l0-0.1c0.1,0.1,0,0.1,0.1,0.2l-0.1,0c0.1,0,0.1,0.2,0.2,0.2c0,0,0,0-0.1,0
							c0.1,0.1,0.3,0.2,0.3,0.4l0,0c0,0,0.1,0,0.1,0.1c0,0,0,0,0,0c0,0,0.1,0,0.1,0.1l0,0c0,0.1,0.2,0.2,0.3,0.3
							c-0.1,0-0.1,0.2,0,0.2l0,0c0.1,0.2,0.2,0.2,0.3,0.3c0,0.1,0.1,0.3,0.1,0.5c0,0,0.1,0,0.1,0c0,0,0.1,0.1,0,0.1l0,0
							c-0.1,0.1,0,0.1,0,0.2l0.1,0c-0.1,0.2,0.2,0.3,0.2,0.5c0,0,0.1,0.1,0.1,0.1l-0.1,0c0,0.1,0.1,0.1,0.1,0.3l0,0
							c0,0.1,0.2,0,0.2,0.1L27,60.7c0.1,0.1,0.1,0.3,0.2,0.3c0,0,0,0,0,0c0,0.1,0.1,0.2,0.2,0.2c-0.1,0,0.1,0.1,0.1,0.2l-0.1,0
							c0.1,0,0.1,0,0.2,0.1c0,0,0,0,0,0c0,0.1,0.1,0,0.1,0.1l0,0c0,0.1,0,0,0.1,0.1c0,0,0,0.1,0,0.1c0,0,0.1,0,0.1,0c0,0,0,0,0,0
							c0,0.1,0.1,0.1,0.1,0.2c0,0,0,0,0,0c0-0.1-0.1-0.1-0.1-0.1c0,0,0,0.1-0.1,0.1c0.1,0,0.2,0.1,0.2,0.1c0,0,0,0,0,0l0,0
							c0,0,0,0,0,0c0,0,0,0,0,0.1c0,0,0,0.1,0,0.1c0,0,0.1,0,0.1,0c0,0,0,0,0,0c0,0,0,0,0,0l0,0c0,0,0,0,0-0.1c0,0,0.1,0,0.1,0.1
							c0,0,0.1,0,0.1,0c0,0.1,0,0.2-0.1,0.2c0.1,0.1,0.1,0.2,0.3,0.2c0,0,0,0,0,0.1c0,0,0,0,0,0c0.1,0,0.1,0.2,0.2,0.1
							c0,0.1-0.1,0,0,0.1l0,0c0,0.2,0.3,0.2,0.3,0.5c0,0,0,0,0,0c0.1,0.3,0.3,0.4,0.3,0.7c0,0.1,0.1,0.1,0.1,0.1l0,0l0.1,0
							c0.1,0.1,0,0.2,0.1,0.3l0,0c0,0,0.1,0.1,0,0.1c0,0,0,0,0,0l0,0l0.1,0.1c0,0.1-0.1,0-0.1,0.2c0,0,0.2,0.1,0.2,0.1
							c0,0,0-0.1,0-0.1l0,0c0.1,0,0.2-0.1,0.2-0.2l-0.1,0l0,0l0,0.1c0-0.1,0-0.1-0.1-0.1c0,0,0,0,0-0.1l-0.1,0c0,0,0.1,0,0.1-0.1
							c-0.1,0-0.1,0.1-0.1,0c0-0.1,0.1-0.1,0-0.1c0,0,0,0,0.1,0c0,0-0.1-0.1-0.1-0.1c0-0.1-0.1-0.1,0-0.2c0,0-0.1,0-0.1-0.1
							c0.1,0-0.1-0.1,0.1-0.2c-0.1,0-0.1-0.1-0.2-0.2c0,0,0,0,0,0c0,0,0-0.1,0-0.1c-0.1,0-0.1,0-0.2,0c0-0.1,0.1,0,0.2-0.1
							c-0.1,0-0.1-0.1-0.1,0c0-0.1,0,0,0-0.1c-0.1,0,0,0-0.1,0C29,63.4,29.1,63.4,29.1,63.3C29,63.3,29.1,63.3,29.1,63.3z
							 M28.1,61.9L28.1,61.9C28.1,61.9,28.1,61.9,28.1,61.9C28.1,61.9,28.1,61.9,28.1,61.9z M28,61.8C28,61.8,28,61.8,28,61.8
							C28,61.8,28,61.8,28,61.8C28,61.8,28,61.8,28,61.8z M27.8,62.2C27.8,62.2,27.8,62.2,27.8,62.2C27.8,62.2,27.8,62.2,27.8,62.2
							L27.8,62.2C27.8,62.2,27.8,62.2,27.8,62.2z"/>
						<polygon fill="#808181" points="27.9,62.2 27.9,62.2 27.9,62.2 27.9,62.2 						"/>
						<polygon fill="#808181" points="21.7,50.5 21.7,50.5 21.7,50.5 						"/>
						<polygon fill="#808181" points="27.2,59.9 27.1,59.9 27.2,59.9 						"/>
						<path fill="#808181" d="M21.5,49.7C21.5,49.7,21.5,49.7,21.5,49.7C21.5,49.7,21.5,49.7,21.5,49.7z"/>
						<path fill="#808181" d="M21.3,49.4L21.3,49.4C21.3,49.4,21.3,49.4,21.3,49.4z"/>
						<path fill="#808181" d="M21.2,49.1C21.2,49.1,21.2,49.1,21.2,49.1L21.2,49.1L21.2,49.1z"/>
						<path fill="#808181" d="M23.3,52.8C23.3,52.8,23.3,52.9,23.3,52.8C23.3,52.9,23.3,52.9,23.3,52.8z"/>
						<path fill="#808181" d="M22.6,51.8C22.6,51.8,22.6,51.8,22.6,51.8C22.6,51.8,22.6,51.8,22.6,51.8z"/>
						<polygon fill="#808181" points="24,54.1 24,54.1 24,54.1 						"/>
						<path fill="#808181" d="M22.6,51.9C22.6,51.8,22.6,51.8,22.6,51.9C22.6,51.8,22.6,51.9,22.6,51.9z"/>
						<polygon fill="#808181" points="20.7,48.1 20.7,48.1 20.7,48.1 						"/>
						<path fill="#808181" d="M20.7,48.1L20.7,48.1C20.7,48.1,20.7,48.1,20.7,48.1z"/>
						<path fill="#808181" d="M20.6,48.1L20.6,48.1C20.7,48.1,20.7,48.1,20.6,48.1z"/>
						<path fill="#808181" d="M20.8,48.4L20.8,48.4C20.9,48.4,20.8,48.4,20.8,48.4z"/>
						<path fill="#808181" d="M20.9,48.5c0,0,0-0.1,0-0.1L20.9,48.5C20.9,48.4,20.8,48.5,20.9,48.5z"/>
						<path fill="#808181" d="M20.9,49L20.9,49C20.8,49,20.8,49,20.9,49C20.8,49.1,20.8,48.9,20.9,49z"/>
						<path fill="#808181" d="M21,49.3C20.9,49.3,21,49.3,21,49.3C21,49.3,21,49.3,21,49.3z"/>
						<path fill="#808181" d="M21.9,51.1L21.9,51.1C21.9,51.1,21.9,51.1,21.9,51.1z"/>
						<polygon fill="#808181" points="22.4,51.3 22.4,51.2 22.3,51.2 						"/>
						<polygon fill="#808181" points="22.1,51.7 22.1,51.6 22.2,51.7 						"/>
						<path fill="#808181" d="M23.8,54.6L23.8,54.6C23.8,54.6,23.7,54.6,23.8,54.6z"/>
						<path fill="#808181" d="M24.5,55.9C24.5,55.9,24.5,56,24.5,55.9C24.5,56,24.5,55.9,24.5,55.9z"/>
						<polygon fill="#808181" points="26.5,59.8 26.5,59.8 26.5,59.9 						"/>
					</g>
				</g>
			</g>
		</g>
	</g>
</g>
</svg>
