<?xml version="1.0" encoding="utf-8"?>
<!-- Generator: Adobe Illustrator 23.1.0, SVG Export Plug-In . SVG Version: 6.00 Build 0)  -->
<svg version="1.1" id="Capa_1" xmlns="http://www.w3.org/2000/svg" xmlns:xlink="http://www.w3.org/1999/xlink" x="0px" y="0px"
	 viewBox="0 0 89.2 89.2" enable-background="new 0 0 89.2 89.2" xml:space="preserve">
<g>
	<g>
		<path fill="#F7EBDF" d="M61.1,65c0-0.6,3.6-3.3,4-3.7c4.1-4.9,11-11.5,12.7-20.3c0,0,1.4-3.7,0-8.5c-1.4-4.8-4.6-6.9-4.6-6.9
			c-0.6-1.3-0.6-2.5-2.9-4.5c-2.1-1.9-5.1-2.7-5.1-2.7c-1.8-1.3-1.5-2.9-5.8-3.9c-3.8-1-8.2-0.2-8.2-0.2c-1.8-0.8-2.6-1.7-5.8-1.7
			c-3.3,0-5.7,1.7-5.7,1.7c-2.8-0.3-4.5-0.8-7.7,0.2c-4.3,1.3-6.3,4.6-6.3,4.6c-2.1,0-3.3,0.4-4.7,1.3c-2.8,1.7-3.3,5.3-3.3,5.3
			c-2.8,1.8-5,3.9-5.7,6.3c-1.4,4.5,1.1,9.1,1.1,9.1c1.7,8.8,9,15.8,13.2,20.6c0.4,0.5,3.5,2.8,3.5,3.4c-0.2,3.5,0.2,7.7,3.1,8.1
			h5.9c0.3,0,0.5,0.1,0.8,0.2c2.5,1.6,4.6,2.5,5.4,2.8c0.3,0.1,0.6,0.1,0.9,0c0.9-0.3,2.9-1.2,5.4-2.8c0.2-0.2,0.5-0.2,0.8-0.2h5.9
			C60.8,72.6,61.3,68.4,61.1,65z"/>
		<g>
			<g>
				<g>
					<g>
						<path fill="#808181" d="M61.2,64.9c0-0.1-0.1,0,0,0.3l0.1,0.2L61.2,64.9z"/>
						<path fill="#808181" d="M61.1,67c0,0.4,0.1,0.8,0.1,0.5c0-0.4,0-0.4-0.1-0.8c0-0.3,0-0.5,0-0.5c0-0.1,0-0.5,0-0.6
							C61.1,66,61.1,66.5,61.1,67C61.1,67.1,61.1,67,61.1,67z"/>
						<path fill="#808181" d="M37.7,73l0.2,0C37.8,73,37.7,73,37.7,73z"/>
						<path fill="#808181" d="M27.1,62.2c0.1,0.1,0.2,0.1,0.2,0.1C27.2,62.3,27.1,62.2,27.1,62.2z"/>
						<path fill="#808181" d="M25.1,60c0,0.1,0.1,0.1,0.1,0.1C25.1,60,25.1,60,25.1,60z"/>
						<path fill="#808181" d="M37.7,73l-0.5,0C37.1,73,37.4,73,37.7,73z"/>
						<path fill="#808181" d="M60.6,71c0-0.1,0.1-0.2,0.1-0.3C60.6,70.8,60.6,70.9,60.6,71L60.6,71z"/>
						<path fill="#808181" d="M45,76l0.1,0c0,0,0.1,0,0.1,0C45.1,76,45,76,45,76z"/>
						<path fill="#808181" d="M50.4,73.6c-0.1,0.1-0.1,0.1-0.2,0.2C50.3,73.8,50.4,73.7,50.4,73.6C50.5,73.6,50.4,73.6,50.4,73.6z"
							/>
						<path fill="#808181" d="M59.7,72l0.1-0.1C59.7,71.9,59.7,72,59.7,72z"/>
						<path fill="#808181" d="M41,74.1C41,74.1,41,74,41,74.1C41,74,41,74.1,41,74.1z"/>
						<path fill="#808181" d="M66.3,60.2C66.3,60.2,66.3,60.2,66.3,60.2C66.3,60.2,66.3,60.2,66.3,60.2z"/>
						<path fill="#808181" d="M61.1,65l0-0.1c0,0,0,0,0,0L61.1,65z"/>
						<path fill="#808181" d="M21.4,55.7C21.4,55.7,21.4,55.7,21.4,55.7C21.5,55.8,21.4,55.7,21.4,55.7z"/>
						<path fill="#808181" d="M29.6,15.6c-0.5,0.2,0.8-0.5,0-0.1C29.6,15.4,28.9,15.9,29.6,15.6z"/>
						<path fill="#808181" d="M60.5,71.1c0,0.1-0.1,0.2-0.1,0.2C60.4,71.2,60.5,71.2,60.5,71.1z"/>
						<path fill="#808181" d="M29.6,15.5L29.6,15.5L29.6,15.5C29.5,15.5,29.5,15.5,29.6,15.5z"/>
						<path fill="#808181" d="M14.4,44.8c0,0,0,0.1,0,0.1C14.4,45,14.4,44.9,14.4,44.8z"/>
						<path fill="#808181" d="M19.2,53.2L19.1,53C19.1,53.1,19.2,53.1,19.2,53.2z"/>
						<path fill="#808181" d="M12.8,40.1c0-0.1-0.1-0.2-0.1-0.3c0,0,0,0,0,0.1C12.7,39.9,12.7,39.9,12.8,40.1z"/>
						<path fill="#808181" d="M11.6,35C11.6,35.1,11.6,35.1,11.6,35c0,0.1,0,0.2,0,0.3C11.6,35.2,11.6,35.1,11.6,35z"/>
						<path fill="#808181" d="M75.8,47.3c-0.1,0.1-0.1,0.2-0.2,0.2C75.7,47.5,75.3,48.2,75.8,47.3z"/>
						<path fill="#808181" d="M60.5,71c0,0,0,0.1,0,0.2C60.5,71.1,60.5,71,60.5,71C60.5,70.9,60.5,70.9,60.5,71z"/>
						<path fill="#808181" d="M12.3,40c-0.1-0.3-0.2-0.5-0.3-0.8C12.1,39.5,12.2,39.8,12.3,40z"/>
						<path fill="#808181" d="M63.5,16.3l0.1,0.1C63.5,16.3,63.5,16.3,63.5,16.3z"/>
						<path fill="#808181" d="M11.4,36.8c0-0.2,0-0.3,0-0.5c0,0,0-0.1,0-0.1C11.3,36.4,11.4,36.6,11.4,36.8z"/>
						<path fill="#808181" d="M75.6,47.5L75.6,47.5L75.6,47.5z"/>
						<path fill="#808181" d="M72.8,52.3c0.5-0.7,0.2-0.3,0.2-0.5c0.5-0.8,0.3-0.3,0.5-0.6c0.3-0.5,0.5-0.9,0.7-1.3c0,0,0.1-0.1,0,0
							c0.3-0.6,0.9-1.6,1.2-2.3c0,0,0-0.1,0.1-0.1c-0.1,0.1-0.1,0.1-0.1,0.1c0.2-0.3,0.3-0.6,0.4-0.7c-0.1,0.2-0.1,0.2-0.1,0.3
							l0.1-0.3c0.2-0.3-0.2,0.5-0.2,0.5c0.3-0.7,0.6-1.5,0.8-2c0.1-0.1-0.5,1.2-0.1,0.6L76,46.7c0.4-0.6-0.2,0.5,0.1,0
							c0.5-1,0.5-1.2,0.9-2.2c0.1-0.3-0.1,0.1,0-0.2c0.4-1.6,0.6-1.2,0.8-2.4c0-0.3-0.1-0.5,0.2-1.2l0,0.3c0.3-1.1,0.1-0.6,0.4-1.8
							c0,0.2-0.1,0.9-0.1,0.7c0.2-0.7,0.1-0.5,0.2-1.1l0.1-0.1c0.1-1.2,0.1-2.5-0.1-3.8c0,0.1,0.1,0.3,0.1,0
							c-0.2-1.6-0.7-3.5-1.4-4.9l-0.3-0.5c-0.1-0.1-0.1-0.2,0-0.1c-0.3-0.6,0,0-0.2-0.3c-0.2-0.3-0.2-0.4-0.1-0.2
							c-0.6-0.9-1.9-2.5-2.8-3.2l0.2,0.1c-0.2-0.1-0.4-0.3-0.4-0.3c-0.2-0.3-0.3-0.5-0.5-1.1l0.1,0.1c-0.3-0.9-0.9-1.8-1.5-2.6
							c-0.6-0.7-1.3-1.3-1.9-1.8c-0.3-0.1-1.6-1-1.8-1c-1-0.5-0.7-0.4-2.2-1c0,0-0.1,0-0.1,0c0,0,0,0,0,0c-0.1,0-0.1-0.1-0.2-0.1
							c-0.1-0.1-0.3-0.2-0.5-0.4l0-0.1c-0.2-0.1-0.3-0.3-0.5-0.5l-0.2-0.3l-0.3-0.4c0.1,0.2,0.3,0.3,0.2,0.3
							c-0.3-0.3-0.6-0.6-0.9-0.9c-0.3-0.3-0.5-0.4-0.5-0.4c-0.5-0.3-1.1-0.6-1.7-0.7c0,0,0.3,0.1,0.6,0.2c-0.9-0.3-0.1-0.1-1-0.4
							c0.1,0.1-0.1,0-0.1,0c-0.4-0.2-1.4-0.4-2.1-0.5l0.1,0c-1.3-0.2-2.8-0.3-4.3-0.2c0.5,0,0.4,0.1,0,0.1l-0.2-0.1
							c-0.3,0.1,0.5,0-0.1,0.1c-0.6,0-0.4-0.1-0.1-0.1l-0.7,0.1c0,0,0.1,0,0.2-0.1c-0.3,0.1-1.2,0-1.6,0.2l0,0c-0.1,0-0.2,0-0.3,0
							c-0.1,0,0,0-0.1,0c-0.1-0.1-0.3-0.1-0.4-0.2c-0.3-0.1-0.5-0.2-0.7-0.4c-0.5-0.2-0.9-0.4-1.5-0.6c0,0-0.5-0.1-0.9-0.1
							c-0.9-0.2-1.9-0.3-3-0.2c-0.8,0.1-0.2,0.1-0.6,0.1c-0.1-0.1-1.1,0.1-0.6,0c-1.3,0.3-1.6,0.4-3.1,1.1c0.2-0.1,0.4-0.1,0.3-0.1
							c-0.3,0.1-0.6,0.3-0.6,0.2l0.1,0l-0.3,0.2l-0.3,0.2c-1.5-0.2-3.5-0.6-4.8-0.4l0.1,0c-0.5,0-1,0.1-1.5,0.2
							c-0.7,0.1,0.4-0.1-0.1,0c-1.6,0.4-2.5,0.7-3.7,1.3c-0.5,0.2-1.3,0.7-2,1.3c-0.8,0.6-1.4,1.4-1.9,2l0.1,0
							c-0.1,0.1-0.1,0.2-0.2,0.3c0,0.1,0,0-0.1,0c0,0,0,0-0.1,0c0.1,0,0,0,0.1,0c0,0,0,0,0,0c0,0,0,0,0,0l-0.5,0c-0.2,0-0.4,0-0.6,0
							c-0.4,0-0.8,0.1-1.2,0.2c-0.8,0.2-1.5,0.5-2.2,0.9c-1.5,0.8-2.6,2.2-3.1,3.7c-0.2,0.5-0.2,0.7-0.2,0.9c0,0.1,0,0.2-0.1,0.4
							c0,0.1-0.1,0.3-0.1,0.6c0,0,0,0-0.1,0c0.1-0.1,0,0,0-0.1c0,0,0,0,0-0.1c0,0.1,0,0.1,0,0.1c0,0-0.1,0.1-0.2,0.2l-0.4,0.2
							L16,26.3c-0.5,0.3-0.9,0.7-1.3,1.1C13.8,28.2,13,29,12.5,30c0.1-0.1,0-0.1,0.2-0.3c-0.3,0.4-0.9,1.6-0.8,1.6
							c-0.1,0.3-0.1,0.1-0.2,0.3c-0.2,0.5-0.3,1.2-0.3,1.5c0,0,0-0.1,0-0.2c-0.1,0.3-0.2,1.5-0.1,1.2c-0.1,0.9,0,1.7,0.1,2.3
							c0.1,0.4,0.2,1.5,0.3,1.6c-0.1,0,0.3,1.5,0.6,2c-0.1-0.2,0.1,0.5,0,0.3c0.1,0.3,0.2,0.6,0.3,0.7c0.1,0.1,0.1,0.1,0.1,0.1
							c0,0,0,0.1,0,0c0.1,0.6,0.2,1.1,0.4,1.6c0.2,0.5,0.3,0.9,0.3,1.2c0.6,1.7,1.4,3.2,2.2,4.7c-0.1,0-0.9-1.6-0.9-1.5
							c0.7,1.4,1.3,2.1,2.1,3.4c0.2,0.3-0.2-0.2-0.2-0.3c0.9,1.3,1.7,2.5,2.6,3.6c0,0-0.1-0.1-0.2-0.2c0.2,0.2,0.4,0.5,0.4,0.5
							l-0.2-0.2c-0.2-0.4,0.8,0.8,0.8,0.8c-0.4-0.3,0.8,1.1,0.3,0.6c0.1,0.1,0.3,0.3,0.3,0.2c0.2,0.2,0.2,0.3,0,0.1
							c0.6,0.7,0.5,0.4,1,1.1c0,0-0.1-0.1-0.2-0.2c0.3,0.3,0.6,0.6,1.1,1.2c0,0,0,0-0.1-0.1c0.9,1,1.5,1.6,2.4,2.6
							c-0.3-0.3,0.3,0.4,0.3,0.5l0.5,0.6L25.5,61c0.2,0.3,0.4,0.5,0.6,0.7c0.2,0.2,0.4,0.4,0.7,0.6L26.4,62l1,0.8l-0.5-0.5
							c0.5,0.4,0-0.1,0.7,0.5c-0.1-0.1,0.5,0.4,0.7,0.7l0,0c0.3,0.2,0.5,0.4,0.9,0.8c0.1,0.1-0.1,0-0.1,0.1c0.1,0.1,0.5,0.4,0.5,0.7
							c0,0.4,0,0.8,0,1c0-0.1-0.1-0.1-0.1-0.1l0,0.3c0,0.3,0,0.4-0.1,0.3c0,0.9,0.1-0.3,0.1,0.8c0-0.1,0,0,0-0.2
							c0,1.1,0.2,2.1,0.4,3.1c0,0.3-0.2-0.9-0.2-0.5c0.2,0.7,0.4,1.5,0.9,2.1c0.4,0.6,1.1,1.2,1.8,1.4c-0.1,0-0.2-0.1-0.3-0.1
							c0.1,0,0.4,0.1,0.7,0.2c0.3,0,0.7,0,1.1,0c-0.2,0-0.2,0.1-0.2,0c1,0,2,0,3.4-0.1l-0.2,0c0.6,0,1.5,0,2.1,0.1
							c0.2,0,0.5,0.2,0.3,0c1.5,1.1,3.1,1.8,4.6,2.5c-0.2-0.1-0.5-0.2-0.3-0.1c0.4,0.2,0.9,0.4,1.4,0.5c-0.1-0.1-0.2-0.1-0.4-0.2
							c0.2,0,0.6,0.2,0.9,0.2c-0.7,0,0,0.1,0.3,0c-0.1,0,0,0,0,0c0.7-0.2,0.1-0.1,1.1-0.5l0,0c0.3-0.2,0.7-0.3,1-0.5
							c0.2,0-0.4,0.2-0.4,0.2c0.5-0.2,1-0.6,1.5-0.8c-0.2,0.1-0.5,0.3-0.7,0.4c0.5-0.2,0.6-0.2,1-0.4l0,0l0.9-0.5l-0.2,0.1
							c0.3-0.2,0.6-0.4,0.9-0.6c0.4-0.2,0.7-0.5,1.1-0.6c-0.9,0.4-0.1,0.1-0.2,0.2c0.2-0.1,0.6,0,0.5,0c0.5,0,0.8,0,1.4,0
							c0,0,0.5,0,0.4,0c0.6,0-0.1,0-0.1-0.1c0.9-0.1,2.2,0.1,3.5,0c0.6,0,0.9-0.1,1.2-0.2c0.3-0.2,0.6-0.3,0.9-0.7
							c0.3-0.2-0.2,0.3-0.2,0.3c0.5-0.4,0.7-0.8,1-1.3c0,0.1,0,0,0.1-0.1c0.2-0.4,0.1-0.3,0.3-0.8c0,0.1,0,0.2-0.1,0.4
							c0.2-0.5,0.3-1,0.3-1.5c0.1-0.1,0,0.3,0,0.5c0.1-0.6,0.2-1.6,0.2-1.7l-0.1,0.4c0-0.2,0.1-0.1,0,0.1c0,0.5-0.1,0.7-0.1,0.8
							c0-0.1,0-0.3,0-0.4c-0.2,0.4-0.2,1.5-0.6,2.2l0.1-0.3c-0.1,0.2-0.1,0.5-0.3,0.7c-0.1,0.1-0.2,0.2,0-0.1
							c-0.3,0.5-0.2,0.4-0.5,0.8c0,0,0,0,0,0l-0.4,0.4c0.1-0.1-0.1,0,0.1-0.2c-0.7,0.6-1.3,0.8-1.7,0.7l0.1,0
							c-1.3,0-0.1,0.1-1.1,0.1L56.1,73L55.9,73c-0.1,0-0.4,0-0.4,0c-0.5,0,0.1,0-0.2,0.1c-0.7-0.1-1.8,0-2-0.1c-0.2,0,0.6,0-0.1,0.1
							c-0.2-0.1-0.8,0-1.4,0c0.2-0.1,0.8,0,0.2-0.1c-0.2,0-0.5,0.1-0.8,0.3c-0.3,0.2-0.6,0.3-0.8,0.5c0,0.1-0.9,0.6-1.7,1
							c0,0-1.4,0.7-2.2,1l0,0c-0.1,0.1-0.3,0.2-0.6,0.3c-0.3,0.1-0.6,0.2-0.9,0.2c0,0,0.1,0,0.4-0.1c-0.2,0-0.3,0-0.5,0
							c-0.1,0-0.3-0.1-0.6-0.2l0.2,0c-0.7-0.3-1.4-0.5-2.3-1c-0.1,0,0.6,0.5-0.3,0c0,0,0-0.1,0.2,0c-0.1,0-0.3-0.1-0.4-0.2l0.4,0.1
							c-0.4-0.2-0.2-0.1-0.5-0.2c0,0-0.2-0.1-0.2-0.2c0.1,0,0.3,0.2,0.4,0.2c-0.3-0.2-0.8-0.4-0.9-0.5c0,0,0,0-0.3-0.1
							c-0.6-0.4-0.2-0.2-0.6-0.4c-0.2-0.1-0.6-0.3-0.6-0.3c-0.2-0.1-0.2-0.2-0.3-0.2c-0.1,0-0.3-0.1-0.5-0.1c-0.2,0-0.4,0-0.6,0
							c-0.3,0-0.6,0-0.4,0l0.1,0c0,0,0,0-0.1,0h0h0c-1.3,0.1-2.6,0-3.9,0l0,0c-0.4,0-0.8,0-1.2,0c-0.4,0-0.7-0.2-1-0.3
							c-0.2-0.1-0.4-0.3-0.3-0.3c-0.4-0.3-0.5-0.4-0.9-1.1c0.3,0.5-0.1-0.2,0.3,0.5c-0.4-0.6-0.4-0.8-0.8-1.5
							c0.1,0.2-0.1-0.5-0.2-0.9l0.1,0.5c-0.1-0.4-0.2-0.7-0.2-1.1l0.1,0.2c-0.2-1.5-0.4-2.7-0.2-3.9c0-0.4-0.1,0.8-0.1,0.5
							c0-0.2,0-0.4,0-0.5c0-0.1,0-0.4-0.1-0.6c-0.2-0.3-0.3-0.5-0.4-0.6c-0.7-0.7-0.7-0.6-1.5-1.3c0.1,0.1,0.1,0.2-0.5-0.2
							c-0.5-0.5-0.6-0.6-0.2-0.4c0.1,0.1,0.2,0.2,0.2,0.2c0.2,0.1,0.4,0.3,0.2,0.1l-0.1,0c-0.3-0.2-1-0.9-0.8-0.8
							c-0.4-0.3-0.2-0.1,0.1,0.1c-0.2-0.2-0.3-0.3-0.4-0.4c-0.1-0.1-0.2-0.3-0.4-0.4c-0.2-0.3-0.5-0.5-0.8-0.9
							c0.1,0.1,0.2,0.2,0.1,0.1c-0.9-1-0.4-0.4-1.1-1.1c-0.3-0.4,0.2,0.1-0.5-0.6c-0.4-0.4,0-0.1,0.1,0c-0.6-0.6-1-1.2-1.3-1.6
							l0.3,0.3c-0.2-0.2-0.3-0.4-0.5-0.5l0.1,0.2c-0.2-0.2-0.3-0.4-0.3-0.4c-0.2-0.2,0.1,0.2-0.3-0.2c-0.2-0.3-0.7-0.8-0.7-0.9
							c0.7,0.9,0-0.1,0.6,0.6c-0.1-0.1-0.3-0.3-0.4-0.5c0,0,0,0,0.1,0.1c-0.6-0.8-0.4-0.3-1.1-1.2c0.1,0.1-0.1-0.2-0.2-0.4
							c0.3,0.3,0.1,0.2-0.2-0.1c-0.4-0.6-0.5-0.6-0.7-0.9l0.2,0.3c-0.1-0.1-0.3-0.4-0.6-0.7c0,0,0.3,0.3,0.2,0.2
							c-0.4-0.4-0.7-1-1.1-1.6c-0.2-0.3,0-0.1-0.1-0.3c-0.5-0.7-0.5-0.8-1-1.5c0.1,0.2,0.1,0.3-0.2-0.2c0.3,0.4,0.5,0.8,0.8,1.2
							c-0.2-0.2-0.4-0.5-0.6-0.7c0.2,0.4,0.5,0.8,0.7,1c-0.3-0.3-0.2-0.3-0.2-0.1c-0.3-0.5-0.7-1-1-1.6l0.1,0
							c-0.3-0.5-0.5-0.9-0.7-1.3c-0.3-0.4-0.5-0.9-0.8-1.5l0.2,0.4c-0.1-0.1-0.4-0.7-0.5-1.2c0.1,0,0-0.2-0.1-0.4c0,0-0.4-0.9-0.5-1
							l-0.1-0.6c-0.3-1-0.5-1.2-0.7-2.2c0.1,0.3,0-0.2,0.2,0.5c-0.1-0.3-0.1-0.6-0.2-0.6c0,0,0-0.1-0.1-0.3c0-0.1-0.1-0.2-0.2-0.3
							c-0.1-0.2-0.2-0.5-0.3-0.6c-0.1-0.1-0.1-0.2-0.3-0.5c0,0,0,0,0,0c0,0-0.2-0.6-0.2-0.2c-0.3-1-0.7-2.9-0.6-3.9
							c0-0.8,0-1.7,0.1-2.4c0,0,0,0,0,0.1c0.1-0.5,0.1-0.6,0.1-0.8c0-0.2,0-0.4,0.2-0.9c0.3-0.5-0.2,0.5,0,0.2
							c0.1-0.1,0.5-1.2,1-1.8L13,29.9c0.3-0.4,0.8-1.1,1.4-1.8c0,0,0,0,0,0c0.4-0.5,1.3-1.3,2-1.8c-0.2,0.2-0.3,0.3-0.1,0.2
							c0.3-0.2-0.1,0,0.5-0.5c0.2-0.1,0.7-0.4,0.9-0.4L17,26.1c0.1,0,0.2-0.1,0.3-0.2c0.1-0.1,0.3-0.2,0.4-0.3c0-0.1,0-0.3,0.1-0.4
							c0-0.1,0-0.2,0.1-0.3l0,0.1c0.3-1.1,0.2-1.1,0.8-2.2l-0.1,0.1c0.3-0.6,0.3-0.5,0.6-1c0.1,0,0.1-0.1,0.2-0.1
							c0.2-0.4,1-1.2,1.7-1.6c-0.4,0.3-1.1,0.8-1.4,1.3c0.3-0.3,1.1-1,1.3-1.1c-0.1,0.1-0.3,0.2-0.5,0.3c0.4-0.3,1-0.8,1.8-1.1
							c0,0.1,0.5-0.1,1.1-0.3c0.6-0.2,1.4-0.2,1.7-0.1c0.2,0,0.3,0,0.6,0c0.2-0.3,0.2-0.4,0.3-0.5c0.1-0.1,0.2-0.3,0.3-0.4
							c0.2-0.3,0.5-0.5,0.7-0.8c0.5-0.5,1.1-1,1.7-1.4c-0.6,0.3,0.4-0.3,0.3-0.3c0.4-0.2,0.5-0.3,0.5-0.3c0.4-0.2,0.8-0.3,1.2-0.5
							c0.3-0.1-0.4,0.2-0.3,0.2c0.8-0.3,0.4-0.1,0.9-0.3c-0.1,0,0.3-0.2,0.8-0.3c-0.2,0-0.5,0.1-0.7,0.2c1.2-0.4,1.1-0.2,2.3-0.5
							c-0.1,0-0.3,0.1-0.4,0.1c0.3-0.1,0.9-0.2,1.5-0.2c0.6,0,1.2,0,1.5-0.1c0.1,0,0.3,0.1,0,0.1c1,0.1,2.2,0.2,3.2,0.3
							c0.2-0.1,0.3-0.2,0.4-0.3c0.1-0.1,0.2-0.1,0.4-0.2c0.2-0.1,0.5-0.2,0.7-0.3L41,13.8c0.3-0.1,0.4-0.2,0.8-0.3c0,0-0.1,0.1,0,0
							c0.1-0.1,0.7-0.3,1.1-0.4l-0.3,0.1c1.5-0.3,2.3-0.5,3.6-0.4c0,0.1,1.2,0.2,1.8,0.4l0,0c0.8,0.2,1.5,0.5,2.2,0.9l0.5,0.2
							l0.3,0.1c0.1,0,0.2,0.1,0.4,0.1c0.4-0.1,0.8-0.1,1.2-0.2c1,0,3.5-0.2,5.1,0.1c-0.2,0,0-0.1,0.3,0c0.4,0.1,1.1,0.1,1,0.2
							l-0.1,0c0.3,0.1,1,0.3,1.6,0.5l0.1-0.1c0.7,0.3,1.7,0.8,2.4,1.4c0.7,0.7,1.2,1.4,1.5,1.8c0.2,0.1,0.3,0.3,0.5,0.4
							c0.3,0.1,0.4,0.1,0.7,0.2l0,0c1,0.4,1.5,0.6,2.7,1.2l-0.3-0.1c0.7,0.4,0.9,0.3,1.5,0.8l0.1,0.2c1,0.8,1.9,1.8,2.5,3
							c0,0-0.1,0-0.2-0.2c0.1,0.3,0.4,0.8,0.5,1.3c0.1,0.2,0.2,0.4,0.3,0.6c0.1,0.1,0.2,0.3,0.1,0.2c0,0,0,0,0,0.1
							c0.1,0.1,0.3,0.3,0.7,0.5c0.3,0.3,0.7,0.6,0.9,0.8l-0.1,0c0.5,0.4,0.5,0.4,1,1.1c0.1,0.2,0.1,0.2-0.1-0.1
							c0.4,0.6,0.4,0.4,0.8,1.1l-0.2-0.2c0.4,0.6,0.3,0.5,0.6,0.8c0.2,0.4,0.6,1.2,0.5,1.3c0.1,0.1,0.3,0.4,0.4,0.8
							c0,0.1-0.1-0.1-0.1-0.1c0.3,1.1,0.5,1.6,0.7,2.4c0,0,0,0.1,0,0.1c-0.2-0.9-0.4-1.6-0.3-1.5c0,0,0.1,0.7-0.1,0.2
							c0.2,0.5,0.5,1.5,0.5,2.2c0,0,0,0.1,0,0.1l0-0.1c0,0.2,0,0.3,0,0.4c0,0.2,0,0.4,0,0.6c0,0.1,0,0.8,0,1.2c0.1,0,0,0.5,0.1,0
							c0,0.1,0-0.1,0-0.3c0-0.1,0-0.1,0-0.2l0,0c0-0.2,0-0.6,0-0.9c0,0.3,0.1,0.6,0,1c0,0.2,0.1,0.4,0.1,0.5
							C78.2,38,78,39,77.9,39.1c-0.1,0.6-0.2,1.2-0.4,1.8c-0.1,0.6-0.2,1.1-0.3,1.5c-0.1,0.3-0.1,0.3-0.2,0.5c0-0.2,0.1-0.4,0.1-0.5
							c-0.2,0.6-0.5,1.8-0.5,2c-0.3,0.7,0.1-0.4-0.3,0.6l0-0.1c-0.9,2-1.2,3.3-2.6,5.3c0.1-0.1,0.1-0.2,0.2-0.2
							c-1.5,2.3-3.2,4.7-5.1,6.7c-0.5,0.6-0.5,0.7-0.8,1l-0.2,0.1l-0.5,0.7c-0.7,0.9-1.4,1.4-2.3,2.6l0.2-0.1
							c-0.3,0.4-1.2,1.1-1.2,1c0,0-0.1,0.1-0.3,0.3l0,0l-1,0.9c-0.8,0.6,0-0.2-1.1,0.8c-0.2,0.2-0.5,0.5-0.6,0.7
							c-0.2,0.3-0.2,0.6-0.1,0.4c0-0.3,0.3-0.5,0.3-0.5c-0.1,0.1-0.2,0.3-0.3,0.4c0,0.1,0.1,0.2,0.1,0.1c0,0,0,0,0.1-0.1
							c0.1-0.1,0.2-0.2,0.4-0.4c0.2-0.2,0.4-0.4,0.6-0.6l0.2-0.1L62,64.1c0.3-0.2,0.5-0.4,0.7-0.6c0.1,0,0.2-0.1,0.3-0.2l0.6-0.6
							c0.1,0-0.2,0.3,0.2,0c0.3-0.3-0.3,0.2,0.1-0.3c0.3-0.2,0.3-0.1,0.6-0.5c0.1,0,0,0.1-0.1,0.2c0.2-0.1,0.4-0.3,0.6-0.5
							c0.2-0.2,0.4-0.4,0.4-0.5c0.3-0.3,0.9-1.1,1-1c0.1-0.1,0.4-0.6,0.7-0.9c-0.4,0.6,1-1.1,0.9-0.9c0.3-0.5,1.2-1.5,1.8-2.2
							c0,0-0.1,0.1-0.1,0.2c0.3-0.4,0.5-0.5,0.7-0.7c0-0.1,0.5-0.7,0.7-1.1c0.5-0.5-0.2,0.4,0,0.2c-0.1,0,0.6-0.9,0.5-0.8
							c0.3-0.4,0.3-0.3,0.5-0.5c0-0.1,0.3-0.4,0.5-0.7c0.5-0.6,0.2-0.1,0.6-0.8C73.2,51.7,72.8,52.3,72.8,52.3z M78.4,34.8
							L78.4,34.8c0,0.2,0,0.3,0,0.4C78.4,35.2,78.4,35,78.4,34.8z M78.1,33.3c0,0.2,0.1,0.4,0.1,0.7c0,0.1,0,0-0.1-0.2
							C78.2,33.9,78.1,33.5,78.1,33.3z M78.1,36.6c0-0.2,0-0.3,0-0.4C78.1,36.4,78.1,36.5,78.1,36.6L78.1,36.6
							C78.1,36.7,78.1,36.6,78.1,36.6z"/>
						<path fill="#808181" d="M78.2,37c0,0,0,0.1,0,0.1C78.2,37.1,78.2,37,78.2,37l0-0.1C78.2,37,78.2,37,78.2,37z"/>
						<path fill="#808181" d="M37.9,73L37.9,73C37.9,73,37.9,73,37.9,73C37.9,73,37.9,73,37.9,73z"/>
						<polygon fill="#808181" points="64.6,17.5 64.6,17.6 64.7,17.6 						"/>
						<path fill="#808181" d="M45.8,76.2c0,0,0.1,0,0.1,0C45.9,76.2,45.8,76.2,45.8,76.2z"/>
						<path fill="#808181" d="M49.1,74.7l0.5-0.2C49.4,74.5,49.3,74.6,49.1,74.7z"/>
						<path fill="#808181" d="M51.6,73.3C51.6,73.3,51.6,73.2,51.6,73.3L51.6,73.3L51.6,73.3z"/>
						<path fill="#808181" d="M19,53.5C19,53.5,19,53.5,19,53.5C18.8,53.3,18.9,53.4,19,53.5z"/>
						<path fill="#808181" d="M28.2,63.4l-0.3-0.3C28.1,63.3,28.2,63.5,28.2,63.4z"/>
						<polygon fill="#808181" points="12.3,40.1 12.3,40.1 12.3,40 						"/>
						<path fill="#808181" d="M27.4,62.8c0.2,0.2,0.3,0.3,0.5,0.4C27.7,63,27.6,62.9,27.4,62.8z"/>
						<path fill="#808181" d="M61.2,68.5l0-0.1c0,0,0,0,0,0L61.2,68.5z"/>
						<path fill="#808181" d="M61.2,68.3l0-0.2C61.2,68.2,61.2,68.3,61.2,68.3z"/>
						<path fill="#808181" d="M61.2,67.8l0,0.3C61.2,68,61.2,67.9,61.2,67.8z"/>
						<path fill="#808181" d="M59.9,72.1L59.9,72.1C59.9,72.1,59.9,72.1,59.9,72.1z"/>
						<path fill="#808181" d="M59,72.9c0.1-0.1,0.3-0.2,0.4-0.3c0.1-0.1,0.3-0.3,0.4-0.4l0,0C59.8,72.3,59.2,72.7,59,72.9z"/>
						<path fill="#808181" d="M54.2,73l1,0c-0.2,0-0.4,0,0-0.1C54,72.9,55.5,73,54.2,73z"/>
						<path fill="#808181" d="M51.2,73.2C51.7,72.9,51.2,73.1,51.2,73.2C50.9,73.3,50.9,73.4,51.2,73.2z"/>
						<path fill="#808181" d="M31.4,72.3L31.4,72.3C31.2,72,31.5,72.3,31.4,72.3z"/>
						<path fill="#808181" d="M29.6,68.7c0,0.1,0,0.3,0,0.4l0.1,0.2C29.7,69.1,29.6,68.9,29.6,68.7z"/>
						<path fill="#808181" d="M29.8,66.3l0,0.2c0-0.2,0-0.4,0-0.7L29.8,66.3z"/>
						<path fill="#808181" d="M11.8,36l0,0.1C11.8,36.3,11.8,36.4,11.8,36z"/>
						<path fill="#808181" d="M18.6,23c0.1-0.1,0.3-0.5,0.5-0.7C18.8,22.5,18.6,22.8,18.6,23z"/>
						<path fill="#808181" d="M61.2,15.3l-0.3-0.1c0.2,0.1,0.4,0.1,0.5,0.2L61.2,15.3z"/>
					</g>
				</g>
			</g>
		</g>
	</g>
	<g>
		<g>
			<g>
				<g>
					<g>
						<path fill="#808181" d="M39.7,14.2C39.7,14.2,39.7,14.2,39.7,14.2L39.7,14.2L39.7,14.2z"/>
						<path fill="#808181" d="M39.6,14.6c0.1,0.1,0.1,0.1,0.2,0.1C39.7,14.7,39.8,14.6,39.6,14.6c0-0.1,0.1-0.2,0.1-0.2
							c0,0,0-0.1,0-0.1C39.6,14.4,39.6,14.5,39.6,14.6C39.7,14.7,39.6,14.6,39.6,14.6z"/>
						<path fill="#808181" d="M40,20.5L40,20.5C40,20.5,40,20.5,40,20.5z"/>
						<path fill="#808181" d="M40.3,24.1C40.3,24.1,40.3,24.1,40.3,24.1C40.3,24.1,40.3,24.1,40.3,24.1z"/>
						<path fill="#808181" d="M40.3,24.8C40.3,24.7,40.3,24.7,40.3,24.8C40.3,24.7,40.3,24.8,40.3,24.8z"/>
						<path fill="#808181" d="M40,20.5L40,20.5C40,20.6,40,20.5,40,20.5z"/>
						<path fill="#808181" d="M39.9,15.4C39.9,15.4,39.9,15.4,39.9,15.4C39.9,15.4,39.9,15.4,39.9,15.4
							C39.9,15.4,39.9,15.4,39.9,15.4z"/>
						<path fill="#808181" d="M39.8,18.9L39.8,18.9C39.8,18.9,39.8,18.9,39.8,18.9L39.8,18.9z"/>
						<path fill="#808181" d="M39.7,17.7c0,0,0.1,0,0.1,0C39.7,17.7,39.7,17.7,39.7,17.7C39.7,17.7,39.7,17.7,39.7,17.7z"/>
						<path fill="#808181" d="M39.6,15.7L39.6,15.7C39.6,15.7,39.6,15.7,39.6,15.7z"/>
						<path fill="#808181" d="M39.9,19.8C39.9,19.8,39.8,19.8,39.9,19.8C39.8,19.8,39.9,19.8,39.9,19.8z"/>
						<path fill="#808181" d="M43.7,54C43.7,54,43.7,54,43.7,54C43.7,54.1,43.7,54.1,43.7,54z"/>
						<path fill="#808181" d="M43.5,55.5L43.5,55.5C43.4,55.5,43.4,55.5,43.5,55.5L43.5,55.5z"/>
						<path fill="#808181" d="M40.3,25.9C40.3,25.9,40.3,25.9,40.3,25.9C40.3,25.9,40.3,25.9,40.3,25.9z"/>
						<path fill="#808181" d="M41.3,36.3c0.1-0.1,0.1,0.2,0.2,0C41.5,36.3,41.4,36.1,41.3,36.3z"/>
						<path fill="#808181" d="M39.9,15.5C39.9,15.5,39.9,15.5,39.9,15.5C39.9,15.5,39.9,15.5,39.9,15.5z"/>
						<path fill="#808181" d="M41.5,36.3C41.5,36.3,41.5,36.3,41.5,36.3L41.5,36.3C41.5,36.3,41.5,36.3,41.5,36.3z"/>
						<path fill="#808181" d="M40.6,28.5C40.6,28.5,40.6,28.5,40.6,28.5C40.6,28.5,40.6,28.5,40.6,28.5z"/>
						<path fill="#808181" d="M40.5,26.6L40.5,26.6C40.5,26.6,40.5,26.6,40.5,26.6z"/>
						<path fill="#808181" d="M40.8,29.5C40.8,29.5,40.8,29.5,40.8,29.5C40.8,29.6,40.8,29.6,40.8,29.5
							C40.8,29.6,40.8,29.5,40.8,29.5z"/>
						<path fill="#808181" d="M40.9,30.6C40.9,30.6,40.9,30.5,40.9,30.6C40.9,30.5,40.9,30.5,40.9,30.6L40.9,30.6z"/>
						<path fill="#808181" d="M43.4,50.9C43.3,50.9,43.3,50.9,43.4,50.9C43.4,50.9,43.4,51,43.4,50.9z"/>
						<path fill="#808181" d="M39.9,15.4C39.9,15.4,39.9,15.4,39.9,15.4C39.9,15.4,39.9,15.4,39.9,15.4
							C39.9,15.4,39.9,15.4,39.9,15.4z"/>
						<path fill="#808181" d="M41.4,29.5l0,0.2C41.4,29.6,41.4,29.6,41.4,29.5z"/>
						<path fill="#808181" d="M42.6,43.3L42.6,43.3C42.7,43.3,42.7,43.3,42.6,43.3z"/>
						<path fill="#808181" d="M41.5,30.2C41.4,30.2,41.4,30.2,41.5,30.2c0,0.1,0,0.1,0,0.1L41.5,30.2z"/>
						<path fill="#808181" d="M43.3,50.9C43.3,50.9,43.3,50.9,43.3,50.9C43.3,50.9,43.3,50.9,43.3,50.9z"/>
						<path fill="#808181" d="M43.6,52c0-0.2-0.1-0.1-0.2-0.1c0-0.2,0.1-0.1,0.1-0.2c0-0.1-0.1-0.2-0.1-0.3c0,0,0,0,0,0
							c-0.1-0.1,0-0.4-0.2-0.5c0,0,0,0,0,0c0,0-0.1,0-0.1,0c0-0.1-0.1-0.1,0-0.2c0,0,0,0,0.1,0.1l0-0.1c0.1-0.1,0,0.1,0.1,0.1
							c0-0.1-0.1-0.3-0.1-0.4c0.1,0,0.1,0.3,0.1,0.1l0,0.2c0.1-0.1,0,0.1,0.1,0c0-0.2-0.1-0.2-0.1-0.5c-0.1,0-0.1,0-0.1,0
							c-0.1-0.3,0.2-0.3,0.1-0.5c-0.1-0.1-0.2-0.1-0.1-0.2l0.1,0c0-0.2-0.2-0.1-0.1-0.3c0,0,0.1,0.2,0.1,0.1
							c0.1-0.2-0.1-0.1-0.1-0.2l0.1,0c0-0.2-0.1-0.5-0.2-0.7c0,0,0.1,0.1,0.1,0c-0.1-0.3-0.1-0.7,0-1L43,47.2c0,0,0-0.1,0,0
							c0-0.1-0.1,0-0.1-0.1c0-0.1,0-0.1,0.1-0.1c-0.1-0.2-0.2-0.6-0.1-0.8l0,0c0-0.2-0.2-0.2-0.1-0.4l0,0c0-0.4-0.1-0.8,0-1.1
							c-0.1,0,0-0.4-0.1-0.4c0.1-0.2,0.1-0.2,0.1-0.5c0-0.1-0.1-0.1-0.1-0.2l0.1,0l-0.1-0.1l0.1-0.1l0-0.1c0,0,0,0.1-0.1,0.1
							c-0.1-0.1,0-0.4,0.1-0.4l-0.1-0.3c0,0,0.1,0.1,0.1,0.1c-0.1-0.2,0.1,0,0-0.2c0,0-0.1,0-0.1,0c0-0.1,0-0.3,0-0.4l0.1,0
							c0-0.3-0.1-0.6-0.1-0.9c0,0.1-0.1,0.1-0.1,0l0.1,0c-0.1-0.1,0,0.1-0.1,0c0-0.1,0.1-0.1,0.1,0l0-0.1c0,0,0,0,0.1,0
							c-0.1,0,0.1-0.2,0-0.3l0,0c0-0.3-0.1-0.4-0.1-0.7c-0.1,0-0.1-0.1-0.1-0.2c0-0.2,0-0.4,0-0.6c-0.1-0.1-0.1,0-0.1-0.1
							c0.1,0,0-0.2,0.1-0.1c0-0.3,0-0.3-0.1-0.6c0,0,0,0.1-0.1,0.1c0-0.1,0-0.1,0.1-0.1l0,0c-0.1-0.4,0.1-0.9,0-1.1l0,0L42,37.1
							c0-0.1,0.1,0.1,0.1,0c-0.1-0.3,0-0.5-0.1-0.8c0.2-0.2-0.1-0.7,0-1l0,0c-0.1-0.1,0-0.1,0-0.1c0,0,0,0.1-0.1,0
							c-0.1-0.6,0-1.3-0.1-1.9c0-0.2-0.3-0.1-0.2-0.4l0.1,0.1c-0.2-0.5-0.1-0.9-0.2-1.4c0,0,0.1,0,0.1,0.1c0.1-0.1,0-0.4-0.1-0.4
							c0-0.1,0,0,0.1-0.1c0-0.1-0.1-0.2,0-0.3c0,0,0,0,0,0c0-0.1,0-0.3-0.1-0.2c0-0.2-0.1-0.3,0-0.5c-0.1-0.1,0-0.3-0.1-0.3
							c0.1,0,0.1-0.3,0-0.4c0,0,0-0.1,0.1-0.1c0-0.1,0-0.2-0.1-0.2c0.1-0.2-0.2-0.4,0-0.6c-0.1-0.4-0.2-0.7-0.2-1
							c0.1,0,0,0.4,0.2,0.3c-0.1-0.3-0.2-0.5-0.2-0.8c0-0.1,0.1,0,0.1,0.1c-0.1-0.3,0-0.6-0.1-0.9c0,0,0,0,0,0.1c0-0.1,0-0.1,0-0.1
							l0,0.1c-0.1,0.1-0.2-0.2-0.2-0.2c0.2,0.1,0-0.3,0.2-0.1c0,0,0-0.1-0.1-0.1c0-0.1,0-0.1,0.1,0c0-0.2-0.1-0.1-0.1-0.3
							c0,0,0,0,0.1,0c-0.1-0.1-0.1-0.2-0.1-0.3c0,0,0,0,0,0c0-0.3-0.2-0.4-0.2-0.7c0.1,0.1,0-0.1,0.1-0.1l0-0.1l0,0.1
							c0-0.1-0.1-0.2-0.1-0.4l0.1,0.1l0-0.2l0,0.1c-0.1-0.1-0.1,0-0.1-0.2c0,0,0-0.1,0-0.2c0,0,0,0,0,0c0-0.1-0.1-0.1-0.1-0.2
							c0,0,0.1,0,0.1,0c-0.1-0.1-0.1-0.3-0.2-0.4c0,0,0.1,0,0.1,0l-0.1,0c0-0.1,0-0.1,0.1-0.1c0-0.2-0.1,0.1-0.1-0.2c0,0,0,0,0,0
							c0-0.2-0.1-0.4-0.1-0.6c0.1-0.1,0,0.2,0.1,0.1c0-0.3-0.2-0.6-0.2-0.9l0,0.1c-0.1,0,0.1-0.2,0-0.4c0,0,0.1,0,0.1,0
							c0-0.2-0.1-0.4-0.1-0.7l0,0c0-0.1,0-0.3,0-0.4c0,0,0-0.1-0.1-0.1c0.2-0.4-0.2-0.7,0-1.1c0,0,0,0.1,0,0.1l-0.1-0.3
							c-0.1,0,0,0-0.1,0.1c0,0-0.1-0.1-0.1-0.2c0.1,0.1,0.1,0,0.1-0.1c0,0,0,0-0.1,0c0.1-0.2-0.1,0-0.1-0.2l0,0
							c0-0.1-0.1-0.1-0.1-0.2c0.1,0,0,0.1,0.1,0.1c0-0.1-0.2-0.2-0.1-0.3c0,0,0,0.1,0.1,0.2c0.1-0.1,0.1-0.1,0.1-0.2l0,0l0-0.2
							l0,0.1c-0.2-0.1-0.1-0.3-0.2-0.5c0.1,0.2,0.1,0,0.2,0c0-0.1,0-0.1,0.1-0.1c-0.1-0.1,0-0.2-0.1-0.3c0,0,0-0.1,0.1-0.1
							c0-0.1,0,0-0.1,0c-0.1-0.2,0.1-0.4-0.1-0.7c-0.1-0.2-0.2-0.3-0.2-0.5c0-0.1,0.1,0,0.1,0c0-0.1,0-0.2,0-0.3c0,0,0,0,0.1,0
							c0-0.1-0.1,0-0.1-0.2c0,0,0.1,0,0.1,0.1c0-0.1-0.1-0.2-0.1-0.3c0,0,0.1,0.1,0.1,0.1c0-0.1-0.1-0.3-0.1-0.3l0,0.1
							c0,0,0.1,0,0.1,0c0.1,0.1,0,0.2,0,0.2l0-0.1c-0.1,0.1,0.1,0.3,0.1,0.5l-0.1-0.1l0.1,0.1c0,0-0.1,0.1-0.1,0c0,0.1,0,0.1,0,0.2
							c0,0,0,0,0,0l0,0.1c0,0-0.1,0-0.1,0c0,0.2,0.1,0.3,0,0.4l0,0c0.1,0.3,0.1,0,0.2,0.2l-0.2,0.2l0.1,0c0,0,0,0.1,0,0.1
							c0.1,0.1,0,0,0.1,0c-0.1,0.1,0.1,0.4-0.1,0.4c0.1,0,0-0.1,0.1,0c-0.1,0.1,0,0.2,0,0.3c-0.1,0,0-0.1-0.1,0c0.1,0.1,0,0.2,0,0.3
							c0.1,0,0.1,0.2,0.1,0.4c0,0,0,0.3,0,0.5l0,0c0.1,0,0.1,0.2,0.1,0.3c-0.1,0-0.1,0-0.1-0.1l0,0.1c0,0,0.1,0.1,0.1,0.1l-0.1,0
							c0,0.1,0.1,0.3,0.1,0.5c0.1,0,0.2-0.2,0.2,0c0,0-0.1,0-0.1,0c0,0,0,0.1,0,0.1L40,19.5c0,0.1,0.1,0,0.1,0.1c-0.1,0,0,0.1-0.1,0
							c0,0,0-0.1,0-0.1c0,0.1,0,0.2-0.1,0.2c0,0,0.1,0,0.1,0.1c0,0.1-0.1,0.1-0.1,0.1c0,0,0,0.1,0.1,0.1c0,0,0,0.1-0.1,0.1
							c0,0.1,0,0.4,0.1,0.3l0,0c0,0,0,0,0,0c0,0,0,0,0,0l0,0c0.1,0.2,0,0.5,0.1,0.8l0,0c0,0.1,0.1,0.3,0.1,0.4c0,0,0,0.1-0.1,0.1
							c0,0.1,0.1,0.1,0,0.3c-0.1-0.1,0,0,0-0.1c0,0.2,0,0.2,0,0.3c-0.1,0-0.1,0.1,0,0.2l0-0.1c0,0.1,0,0.1,0,0.2l-0.1,0
							c-0.1,0.3,0.2,0.5,0.1,0.8c0.1,0.1,0-0.2,0.1-0.1c0,0.1-0.1,0.3-0.1,0.3c0,0.2,0.2,0.2,0.1,0.4c0,0,0.1-0.1,0.2,0.1
							c0,0.1-0.1,0.2-0.2,0.1c0,0,0-0.1,0-0.1c0,0,0-0.1-0.1,0l0,0c0,0.1,0,0.3-0.1,0.2c0,0.1,0.1,0,0.1,0c0,0.2,0,0.3,0,0.5
							c0,0,0.1-0.1,0.1,0c0,0.3,0.1,0.1,0.1,0.3c0,0.1-0.1,0-0.1,0.2c0,0.1-0.1,0-0.1,0c0.1,0.2,0,0.3,0,0.4l0-0.1
							c0,0.1,0,0.1,0,0.1l0.1-0.1c0,0.1,0,0.1,0,0.1c0,0.1,0.1-0.1,0.2,0.1c0,0.1,0.1,0.2,0,0.2c0-0.2-0.1,0-0.1-0.2
							c0,0,0,0.1,0,0.1c0,0,0,0,0,0c-0.1,0.2,0.1,0.1,0.1,0.3c-0.1,0-0.1,0.1-0.1,0.1c0-0.1,0.1,0,0.1,0c0,0.1,0,0.1,0,0.2l0-0.1
							c0.1,0,0.1,0.1,0.1,0.2c0,0,0-0.1,0,0c0.1,0.1-0.1,0.3,0,0.4c0,0.1-0.1,0-0.1,0.1c0.1,0.2,0,0.2,0,0.4c0.1-0.1,0-0.1,0.1,0.1
							l-0.1-0.3l0.1,0.2c0-0.1-0.1-0.2-0.1-0.2c0.1,0.1,0,0.1,0.1,0c-0.1,0.1,0.1,0.2,0,0.4l-0.2,0c-0.1,0.2,0.1,0.4,0.1,0.6l0-0.1
							c0.1,0,0,0.2,0.1,0.3c-0.1,0-0.1,0.1-0.1,0.1c0,0,0,0.2,0.1,0.2l-0.1,0.1c0,0.2,0.2,0.2,0.2,0.5c-0.1-0.1-0.1,0-0.1-0.1
							c0,0.1,0,0.1,0,0.1c0,0,0.1,0.2,0,0.3c0,0,0.1,0,0.1,0.1c0,0,0,0,0,0c0,0,0,0.1,0.1,0c-0.1,0.2,0.1,0.6-0.1,0.8
							c0,0.2,0.1,0.3,0.1,0.5c0,0,0,0,0,0c0,0.2,0.2,0.1,0.1,0.3c-0.1,0.1-0.1-0.1-0.1,0c-0.2,0,0,0.3,0,0.4l0,0
							c0,0.1,0.1,0.3,0.1,0.5c0,0,0,0,0,0c0.1,0.1,0.2,0.4,0.2,0.5c-0.1,0,0-0.1-0.1,0c0,0.1,0.1,0,0.1,0.1c0,0.1-0.1,0.2-0.1,0.2
							l0-0.1c-0.1,0.1,0,0.2,0,0.3l0,0c0,0.2,0.1,0.2,0.2,0.5l0,0c0.1,0.1,0,0.1,0,0.2l-0.1,0.1c0,0.1,0.1,0.3,0.2,0.5
							c-0.1-0.1-0.1-0.3-0.2-0.4c0,0.1,0,0.3,0.1,0.3c0,0,0-0.1,0-0.1c0.1,0.1,0.2,0.2,0.2,0.4c-0.2,0,0,0.5-0.2,0.6
							c0.1,0.3,0,0.6,0.1,1c0.2-0.1,0,0.1,0.2,0.1c0,0.1,0,0.1,0,0.1l-0.1,0.3c0,0.1,0-0.1-0.1-0.1c0,0.2-0.1,0.1-0.1,0.2
							c0.1,0,0.1,0.1,0.1,0.2l0.1-0.2c0.1,0.2-0.1,0.2,0,0.5l-0.1-0.1c0,0.1,0,0.5,0.2,0.6c0,0-0.1,0.1-0.1,0c0,0.3,0.2,0.7,0.2,1
							l0,0c0,0.1,0.1,0.1,0.1,0.2c0,0,0,0,0,0c0,0,0.1,0.2,0.1,0.2L41.6,39c0,0.3,0.2,0.5,0.2,0.7c-0.1,0-0.1,0.3-0.1,0.4l0,0
							c0,0.4,0.2,0.6,0.2,0.9c-0.1,0.2,0,0.7,0,1.1c0-0.1,0.1,0,0.1,0.1c0,0.1,0.1,0.2,0,0.2l0,0c-0.1,0.1-0.1,0.2,0,0.4l0.1,0
							c-0.2,0.4,0.2,0.9,0,1.1c0,0.1,0.1,0.2,0.1,0.3L42,44c0,0.2,0,0.3,0,0.6L42,44.6c0,0.2,0.2,0.2,0.3,0.3L42.2,45
							c0,0.3,0,0.6,0.1,0.8c0,0-0.1,0-0.1-0.1c0,0.1,0,0.5,0.1,0.4c-0.1,0,0,0.3,0.1,0.4l-0.1,0c0.1,0.1,0.1,0.1,0.2,0.3
							c0,0-0.1,0,0,0c0,0.1,0.1,0.1,0.1,0.3L42.5,47c0,0.1,0,0.1,0.1,0.2c0,0.1,0,0.3-0.1,0.3c0,0,0.1,0.1,0.1,0.2c0,0,0,0-0.1,0
							c0,0.2,0.1,0.3,0.1,0.5c0,0,0,0,0,0c0-0.2,0-0.3,0-0.3c-0.1,0-0.1,0.2-0.2,0c0.1,0.1,0.2,0.3,0.2,0.5c0,0,0,0,0,0l0,0
							c0,0,0,0.1,0,0.1c0,0,0,0.1,0,0.1c-0.1,0,0,0.2,0,0.2c0.1,0,0.1,0.1,0.1,0c0,0,0,0,0-0.1c0,0,0,0,0,0c0,0,0,0,0,0
							c0,0,0-0.1,0-0.2c0,0.1,0.1,0.1,0,0.2c0.1,0,0.1,0.1,0.1,0.1c-0.1,0.1-0.1,0.3-0.2,0.3c0.1,0.2,0.1,0.5,0.2,0.7
							c0,0.1,0,0.1-0.1,0.1c0,0,0-0.1,0-0.1c0,0.1,0.1,0.4,0.2,0.4c0,0.2-0.1-0.1-0.1,0.1l0,0c-0.1,0.5,0.3,0.7,0.2,1.2
							c0,0,0-0.1,0-0.1c0,0.6,0.2,1.1,0.1,1.7c0,0.2,0.1,0.2,0.1,0.3l-0.1,0l0.1,0.2c0.1,0.2-0.2,0.4,0,0.7l0.1,0
							c0,0.1,0.1,0.3,0,0.3c0,0,0.1,0,0,0.1l0,0l0.1,0.3c0,0.2-0.2,0-0.2,0.3c0,0.1,0.2,0.3,0.2,0.3c0,0,0-0.1,0.1-0.1l0,0.1
							c0.1,0,0.3,0.1,0.3-0.2l-0.1-0.2l0.1-0.1l0,0.1c0.1-0.1,0-0.1,0-0.2c0,0,0.1,0,0.1-0.1l-0.1-0.2c0,0,0.1,0.1,0.1,0
							c-0.1-0.1-0.1,0.1-0.2,0c0.1-0.1,0.1-0.1,0-0.2c0,0,0.1,0,0.1,0c0-0.1,0-0.2-0.1-0.3c0.1-0.1,0-0.3,0.1-0.3
							c0,0-0.1-0.1-0.1-0.2c0.2,0.1,0-0.3,0.1-0.3c-0.1-0.1-0.1-0.4-0.2-0.6c0,0,0,0,0,0c0-0.1,0-0.1,0.1-0.2
							c-0.1,0-0.1-0.2-0.2-0.2c0.1-0.1,0.1,0.1,0.2,0c-0.1,0-0.1-0.2-0.2-0.2c0.1-0.1,0-0.1,0.1-0.1c-0.1,0,0-0.1-0.1-0.2
							C43.5,52,43.6,52.1,43.6,52C43.5,51.9,43.6,52,43.6,52z M43,48.3C43,48.3,43,48.3,43,48.3C43,48.3,43,48.4,43,48.3
							C43,48.4,43,48.3,43,48.3z M43,48c0,0,0,0.1,0,0.1c0,0-0.1,0-0.1,0C42.9,48.1,43,48,43,48z M42.5,48.7
							C42.5,48.7,42.5,48.6,42.5,48.7C42.5,48.6,42.5,48.7,42.5,48.7C42.5,48.7,42.5,48.7,42.5,48.7C42.5,48.7,42.5,48.7,42.5,48.7z
							"/>
						<path fill="#808181" d="M42.6,48.8C42.6,48.8,42.6,48.8,42.6,48.8C42.6,48.8,42.6,48.8,42.6,48.8
							C42.6,48.8,42.6,48.8,42.6,48.8C42.6,48.8,42.6,48.8,42.6,48.8z"/>
						<path fill="#808181" d="M40,20.5L40,20.5C40,20.5,40,20.5,40,20.5C40,20.5,40,20.5,40,20.5z"/>
						<polygon fill="#808181" points="42.7,43.7 42.7,43.7 42.7,43.7 						"/>
						<path fill="#808181" d="M40.1,18.7C40.1,18.7,40.1,18.7,40.1,18.7C40.1,18.7,40.1,18.7,40.1,18.7z"/>
						<path fill="#808181" d="M40.1,18l0-0.1C40.1,17.9,40.1,17.9,40.1,18z"/>
						<path fill="#808181" d="M40.1,17.4C40.1,17.4,40,17.4,40.1,17.4C40,17.4,40,17.4,40.1,17.4L40.1,17.4z"/>
						<path fill="#808181" d="M41,26.5C41,26.5,41,26.5,41,26.5C41,26.5,41,26.5,41,26.5z"/>
						<path fill="#808181" d="M40.6,23.8C40.6,23.8,40.6,23.8,40.6,23.8C40.6,23.8,40.6,23.8,40.6,23.8z"/>
						<path fill="#808181" d="M41.4,29.5C41.4,29.5,41.4,29.5,41.4,29.5C41.4,29.5,41.4,29.5,41.4,29.5L41.4,29.5z"/>
						<path fill="#808181" d="M40.6,24c0,0,0-0.1,0-0.1C40.6,23.9,40.6,24,40.6,24z"/>
						<path fill="#808181" d="M39.9,14.9L39.9,14.9C39.9,14.9,39.9,14.9,39.9,14.9L39.9,14.9z"/>
						<path fill="#808181" d="M39.9,14.9L39.9,14.9C39.8,14.9,39.8,14.9,39.9,14.9z"/>
						<path fill="#808181" d="M39.8,14.8L39.8,14.8C39.8,14.8,39.8,14.8,39.8,14.8z"/>
						<path fill="#808181" d="M39.9,15.7L39.9,15.7C39.9,15.7,39.9,15.7,39.9,15.7z"/>
						<path fill="#808181" d="M39.9,15.9c0-0.1,0-0.1,0-0.2l0,0C40,15.7,39.9,15.9,39.9,15.9z"/>
						<path fill="#808181" d="M39.7,16.9l0-0.2c0,0-0.1,0.1-0.1,0C39.5,16.9,39.7,16.6,39.7,16.9z"/>
						<path fill="#808181" d="M39.7,17.5C39.7,17.4,39.6,17.5,39.7,17.5C39.7,17.6,39.7,17.6,39.7,17.5z"/>
						<path fill="#808181" d="M40.1,21.8L40.1,21.8C40,21.9,40.1,21.8,40.1,21.8z"/>
						<polygon fill="#808181" points="40.5,22.6 40.6,22.5 40.5,22.5 						"/>
						<polygon fill="#808181" points="40.1,23.1 40.1,23.1 40.1,23.2 						"/>
						<path fill="#808181" d="M40.8,30.4L40.8,30.4C40.9,30.3,40.8,30.3,40.8,30.4z"/>
						<path fill="#808181" d="M41.2,33.5c0,0-0.1,0.1,0,0.2C41.2,33.6,41.2,33.5,41.2,33.5z"/>
						<polygon fill="#808181" points="41.9,42.9 41.9,42.8 41.9,43 						"/>
					</g>
				</g>
			</g>
		</g>
	</g>
	<g>
		<g>
			<g>
				<g>
					<g>
						<path fill="#808181" d="M39.4,56.8C39.4,56.8,39.5,56.8,39.4,56.8L39.4,56.8L39.4,56.8z"/>
						<path fill="#808181" d="M39.4,56.3c-0.1,0-0.2-0.1-0.2,0C39.3,56.4,39.3,56.4,39.4,56.3c0,0.1,0,0.2-0.1,0.2
							c0,0,0,0.1,0.1,0.1C39.5,56.5,39.4,56.4,39.4,56.3C39.4,56.3,39.4,56.3,39.4,56.3z"/>
						<path fill="#808181" d="M37.6,50.9L37.6,50.9C37.6,51,37.6,51,37.6,50.9z"/>
						<path fill="#808181" d="M36.4,47.6C36.4,47.6,36.4,47.6,36.4,47.6C36.4,47.6,36.4,47.6,36.4,47.6z"/>
						<path fill="#808181" d="M36.3,47C36.3,47,36.3,47,36.3,47C36.3,47,36.3,47,36.3,47z"/>
						<path fill="#808181" d="M37.6,50.9L37.6,50.9C37.5,50.8,37.5,50.9,37.6,50.9z"/>
						<path fill="#808181" d="M38.9,55.7C38.9,55.7,39,55.7,38.9,55.7C39,55.7,38.9,55.7,38.9,55.7C38.9,55.7,38.9,55.7,38.9,55.7z"
							/>
						<path fill="#808181" d="M38.2,52.4L38.2,52.4C38.2,52.4,38.2,52.4,38.2,52.4L38.2,52.4z"/>
						<path fill="#808181" d="M38.6,53.5c0,0-0.1,0-0.1,0C38.5,53.5,38.5,53.5,38.6,53.5C38.6,53.5,38.6,53.5,38.6,53.5z"/>
						<path fill="#808181" d="M39.1,55.3L39.1,55.3C39.1,55.3,39.1,55.3,39.1,55.3z"/>
						<path fill="#808181" d="M37.9,51.6C37.9,51.6,37.9,51.6,37.9,51.6C37.9,51.6,37.9,51.6,37.9,51.6z"/>
						<path fill="#808181" d="M25.7,20.4C25.7,20.4,25.7,20.4,25.7,20.4C25.7,20.4,25.7,20.4,25.7,20.4z"/>
						<path fill="#808181" d="M25.6,19L25.6,19C25.6,19,25.6,19,25.6,19L25.6,19z"/>
						<path fill="#808181" d="M36,45.9C36,45.9,36,45.9,36,45.9C36,46,36,46,36,45.9z"/>
						<path fill="#808181" d="M32.4,36.5c0,0.1-0.1-0.1-0.2,0C32.2,36.5,32.4,36.6,32.4,36.5z"/>
						<path fill="#808181" d="M38.9,55.6C38.9,55.6,38.9,55.6,38.9,55.6C38.9,55.6,38.9,55.6,38.9,55.6z"/>
						<path fill="#808181" d="M32.2,36.5C32.2,36.5,32.2,36.5,32.2,36.5L32.2,36.5C32.2,36.5,32.2,36.5,32.2,36.5z"/>
						<path fill="#808181" d="M35,43.6C35,43.6,35,43.6,35,43.6C35,43.6,35,43.6,35,43.6z"/>
						<path fill="#808181" d="M35.6,45.4L35.6,45.4C35.6,45.4,35.6,45.4,35.6,45.4z"/>
						<path fill="#808181" d="M34.6,42.7C34.6,42.7,34.6,42.6,34.6,42.7C34.6,42.6,34.6,42.6,34.6,42.7
							C34.6,42.6,34.6,42.7,34.6,42.7z"/>
						<path fill="#808181" d="M34.2,41.7C34.2,41.7,34.2,41.7,34.2,41.7C34.2,41.8,34.2,41.8,34.2,41.7L34.2,41.7z"/>
						<path fill="#808181" d="M26.8,23.3C26.8,23.3,26.8,23.3,26.8,23.3C26.8,23.3,26.7,23.1,26.8,23.3z"/>
						<path fill="#808181" d="M39,55.7C38.9,55.7,38.9,55.7,39,55.7C38.9,55.7,38.9,55.7,39,55.7C39,55.7,39,55.7,39,55.7z"/>
						<path fill="#808181" d="M34,42.9l0-0.2C34,42.7,34,42.8,34,42.9z"/>
						<path fill="#808181" d="M29.4,30.2L29.4,30.2C29.4,30.2,29.4,30.2,29.4,30.2z"/>
						<path fill="#808181" d="M33.8,42.3c0,0,0-0.1,0-0.1c0,0,0,0,0,0L33.8,42.3z"/>
						<path fill="#808181" d="M26.9,23.2C26.9,23.2,26.9,23.2,26.9,23.2C26.9,23.2,26.9,23.2,26.9,23.2z"/>
						<path fill="#808181" d="M26.3,22.3c0.1,0.1,0.1,0,0.2,0c0.1,0.2,0,0.1-0.1,0.2c0.1,0.1,0.2,0.1,0.2,0.2c0,0,0,0,0,0
							c0.1,0.1,0.1,0.3,0.3,0.4c0,0,0,0,0,0c0,0,0.1-0.1,0.1-0.1c0,0.1,0.1,0.1,0.1,0.1c0,0,0,0-0.1,0l0.1,0.1
							c-0.1,0.1-0.1-0.1-0.1-0.1c0.1,0.1,0.2,0.3,0.2,0.4C27,23.7,27,23.4,27,23.6l0-0.2c-0.1,0.2,0-0.1-0.1,0.1
							c0.1,0.2,0.1,0.2,0.2,0.4c0.1,0,0.1,0,0.1,0c0.2,0.3-0.1,0.3,0.1,0.5c0.1,0,0.2,0,0.2,0.2l-0.1,0c0.1,0.2,0.2,0.1,0.2,0.3
							c-0.1,0-0.1-0.1-0.1-0.1c0,0.2,0.1,0.1,0.1,0.2L27.4,25c0.1,0.2,0.2,0.4,0.3,0.7c0,0-0.1,0-0.1,0c0.2,0.3,0.2,0.6,0.3,1
							l0.1,0.1c0,0,0,0.1,0,0c0,0.1,0.1,0,0.1,0c0,0.1,0,0.1,0,0.1c0.1,0.2,0.3,0.5,0.3,0.8l0,0c0,0.2,0.2,0.1,0.2,0.3l0,0
							c0.1,0.4,0.3,0.7,0.3,1c0.1,0,0.1,0.4,0.2,0.3c0,0.2,0,0.2,0,0.5c0,0.1,0.1,0.1,0.2,0.2l-0.1,0l0.1,0.1l-0.1,0.1l0.1,0.1
							c0,0,0-0.1,0-0.1c0.1,0.1,0.1,0.4,0,0.4l0.2,0.3c0,0-0.1,0-0.1-0.1c0.1,0.1-0.1,0.1,0.1,0.2c0,0,0.1,0,0.1,0
							c0,0.1,0,0.3,0.1,0.4l-0.1,0c0.1,0.2,0.2,0.5,0.3,0.8c0-0.1,0.1-0.1,0.1,0L30.1,32c0.1,0,0-0.1,0.1,0c0,0.1-0.1,0.1-0.1,0.1
							l0.1,0.1c0,0,0,0-0.1,0c0.1,0,0,0.2,0.1,0.3l0,0c0.1,0.3,0.2,0.4,0.3,0.6c0.1,0,0.1,0.1,0.2,0.1c0,0.2,0,0.4,0.1,0.6
							c0.1,0.1,0.1,0,0.1,0.1c-0.1,0,0,0.2-0.1,0.1c0.1,0.2,0.1,0.3,0.3,0.6c0,0,0-0.1,0-0.1c0,0,0,0.1,0,0.1l0,0
							c0.2,0.3,0.1,0.8,0.3,1.1l0,0l0.2,0.2c0,0.1-0.1-0.1-0.1,0.1c0.2,0.3,0.2,0.5,0.3,0.7c-0.1,0.3,0.3,0.7,0.2,1l0,0
							c0.1,0,0,0.1,0,0.1c0,0,0-0.1,0.1-0.1c0.3,0.5,0.4,1.2,0.5,1.8c0.1,0.2,0.3,0,0.3,0.3l-0.1,0c0.3,0.4,0.3,0.9,0.6,1.2
							c0,0-0.1,0-0.1,0c0,0.1,0.1,0.3,0.2,0.3c0,0.1,0,0-0.1,0.1c0,0.1,0.2,0.2,0.1,0.3c0,0,0,0,0,0c0.1,0,0.1,0.3,0.1,0.2
							c0,0.2,0.1,0.3,0.1,0.4c0.1,0.1,0.1,0.3,0.2,0.3c-0.1,0,0,0.3,0.1,0.4c0,0,0,0.1-0.1,0.1c0,0.1,0.1,0.2,0.2,0.2
							c-0.1,0.3,0.3,0.4,0.1,0.6c0.2,0.3,0.3,0.6,0.5,0.9c-0.1,0-0.1-0.3-0.3-0.3c0.2,0.3,0.3,0.4,0.4,0.7c0,0.1-0.1,0-0.1,0
							c0.2,0.3,0.2,0.6,0.4,0.8c0,0,0,0-0.1,0c0,0,0,0.1,0.1,0.1l0,0c0-0.1,0.2,0.1,0.3,0.1c-0.2,0,0.1,0.3-0.2,0.2
							c0,0,0.1,0.1,0.1,0c0,0.1,0,0.1-0.1,0c0.1,0.2,0.1,0.1,0.2,0.2c0,0,0,0-0.1,0c0.1,0.1,0.2,0.1,0.2,0.3c0,0,0,0,0,0
							c0.1,0.2,0.3,0.4,0.3,0.6c-0.1,0,0,0.1-0.1,0.2l0.1,0.1l0-0.1c0,0.1,0.2,0.2,0.2,0.3L36,47.6l0.1,0.2l0-0.1
							c0.1,0.1,0.1-0.1,0.2,0.1c0,0,0,0.1,0,0.2c0,0,0,0,0,0c0.1,0,0.1,0.1,0.1,0.2c0,0-0.1,0-0.1,0c0.1,0,0.1,0.3,0.2,0.3
							c0,0-0.1,0-0.1,0l0.1,0c0,0.1,0,0.1-0.1,0.1c0.1,0.2,0.1-0.1,0.1,0.1c0,0,0,0,0,0c0,0.2,0.2,0.4,0.2,0.6
							c-0.1,0.1-0.1-0.2-0.1-0.1c0.1,0.3,0.3,0.5,0.4,0.8l0-0.1c0.2,0,0,0.2,0.1,0.3c0,0-0.1,0-0.1,0c0,0.2,0.2,0.3,0.3,0.6l0,0
							c0,0.1,0.1,0.3,0.1,0.4c0,0,0.1,0.1,0.1,0c-0.1,0.4,0.4,0.6,0.3,1c0,0-0.1-0.1-0.1,0l0.1,0.2c0.1,0,0,0,0-0.1
							c0,0,0.1,0.1,0.1,0.1c-0.1-0.1-0.1,0-0.1,0.1c0,0,0,0,0.1,0c-0.1,0.2,0.1,0,0.1,0.2l0,0c0,0.1,0.1,0.1,0.1,0.2
							c-0.1,0.1-0.1-0.1-0.1,0c0,0.1,0.2,0.2,0.2,0.3c0,0-0.1-0.1-0.1-0.1c0,0.1,0,0.1,0,0.2l0,0l0,0.2l0-0.1
							c0.2,0.1,0.1,0.3,0.3,0.4c-0.2-0.1-0.1,0-0.2,0c0,0.1,0,0.1,0,0.1c0.1,0.1,0,0.2,0.1,0.2c0,0,0,0.1,0,0.1c0.1,0.1,0,0,0.1,0
							c0.1,0.1,0,0.4,0.3,0.6c0.1,0.2,0.2,0.2,0.3,0.4c0,0.1-0.1,0-0.1,0c0,0.1,0,0.2,0.1,0.3c0,0,0,0-0.1,0.1c0,0.1,0.1,0,0.1,0.1
							c0,0-0.1,0-0.1,0c0.1,0.1,0.1,0.2,0.2,0.3c0,0-0.1,0-0.1-0.1c0.1,0.1,0.1,0.3,0.2,0.3l0-0.1c0,0-0.1,0-0.1,0
							c-0.1-0.1,0-0.1,0-0.2l0,0.1c0.1-0.1-0.1-0.3-0.2-0.4l0.1,0L39,55.5c0,0,0.1-0.1,0.1,0c0-0.1-0.1-0.1,0-0.2c0,0,0,0,0,0
							l-0.1-0.1c0,0,0.1,0,0.1,0c0-0.2-0.2-0.3-0.1-0.4l0,0c-0.1-0.2-0.1,0-0.2-0.1l0.1-0.2l-0.1,0c0,0,0-0.1,0-0.1
							c-0.1-0.1,0,0-0.1,0c0-0.1-0.2-0.3,0-0.4c-0.1,0,0,0.1-0.1,0c0.1-0.1-0.1-0.1-0.1-0.3c0.1,0,0.1,0.1,0.1,0
							c-0.1,0-0.1-0.2-0.1-0.3c-0.1,0-0.1-0.2-0.2-0.3c0,0-0.1-0.3-0.1-0.5l0,0c-0.1,0-0.1-0.2-0.2-0.3c0.1,0,0.1,0,0.1,0l0-0.1
							c0,0-0.1,0-0.1-0.1l0.1,0c-0.1-0.1-0.2-0.2-0.2-0.4c-0.1,0-0.1,0.2-0.2,0c0,0,0.1,0,0.1,0c0,0-0.1,0,0-0.1l0.1,0.1
							c0-0.1-0.1,0-0.1-0.1c0.1,0,0-0.1,0.1-0.1c0,0,0,0.1,0,0.1c0-0.1,0-0.2,0-0.2c0,0-0.1,0-0.1,0c-0.1-0.1,0-0.1,0-0.2
							c0,0,0-0.1-0.1-0.1c0,0,0-0.1,0-0.1c-0.1-0.1-0.1-0.3-0.2-0.2l0,0c0,0,0,0,0,0c0,0,0,0,0,0l0,0c-0.2-0.2-0.1-0.5-0.3-0.7l0,0
							c-0.1-0.1-0.1-0.3-0.2-0.4c0,0,0-0.1,0-0.1c-0.1-0.1-0.1-0.1-0.1-0.3c0.1,0.1,0-0.1,0.1,0.1c0-0.1,0-0.2-0.1-0.3
							c0.1,0,0-0.1,0-0.2l0,0.1c0-0.1-0.1-0.1-0.1-0.2l0.1,0c0-0.3-0.4-0.4-0.3-0.7c-0.1-0.1,0,0.2-0.1,0.1c0-0.1,0-0.3,0-0.4
							c0-0.2-0.2-0.1-0.2-0.3c0,0-0.1,0.1-0.2,0c0-0.1,0.1-0.2,0.1-0.1c0,0,0,0,0,0.1c0,0,0.1,0.1,0.1,0l0,0c0-0.1-0.1-0.3,0-0.2
							c-0.1-0.1-0.1,0-0.1,0.1c0-0.2-0.1-0.3-0.1-0.4c0,0,0,0.1,0,0c-0.1-0.3-0.1-0.1-0.2-0.3c0-0.1,0.1,0,0-0.2
							c0-0.1,0.1-0.1,0.1,0c-0.1-0.1-0.1-0.3-0.1-0.4l0.1,0.1c0,0,0-0.1-0.1-0.1l0,0.1c0-0.1,0-0.1,0-0.1c-0.1,0-0.1,0.1-0.2,0
							c0-0.1-0.1-0.2,0-0.2c0,0.2,0.1-0.1,0.1,0.1c0,0,0-0.1,0-0.1c0,0,0,0,0,0c0-0.2-0.1-0.1-0.2-0.3c0.1,0,0.1-0.1,0-0.1
							c0,0.1-0.1,0.1-0.1,0c0-0.1-0.1-0.1-0.1-0.2l0,0.1c-0.1,0-0.1-0.1-0.1-0.2c0,0,0.1,0.1,0.1,0c-0.1-0.1,0-0.3-0.1-0.4
							c0-0.1,0.1,0,0.1-0.1c-0.1-0.1,0-0.2-0.1-0.3c0,0.1,0,0.1-0.1,0l0.1,0.3l-0.2-0.1c0,0.1,0.1,0.2,0.1,0.2
							c-0.1-0.1-0.1-0.1-0.1,0c0.1-0.1-0.1-0.2-0.1-0.4l0.2-0.1c0-0.2-0.2-0.3-0.3-0.6l0,0.1c-0.1,0-0.1-0.2-0.1-0.2
							c0.1,0,0.1-0.1,0.1-0.1c0,0-0.1-0.2-0.2-0.2l0-0.1c0-0.2-0.2-0.2-0.3-0.4c0.1,0,0.1-0.1,0.2,0.1c0-0.1,0-0.1-0.1-0.1
							c0,0-0.1-0.2-0.1-0.2c0,0-0.1,0-0.1-0.1c0,0,0,0,0,0c0,0-0.1-0.1-0.1,0c0.1-0.3-0.2-0.6-0.1-0.8c-0.1-0.1-0.1-0.3-0.2-0.4
							c0,0,0,0,0,0c0-0.2-0.2-0.1-0.2-0.3c0-0.1,0.1,0.1,0.1,0c0.2-0.1-0.1-0.2-0.1-0.4l0,0c0-0.1-0.2-0.2-0.2-0.4c0,0,0,0,0,0
							c-0.1-0.1-0.2-0.3-0.3-0.4c0.1,0,0.1,0.1,0.1,0c0-0.1-0.1,0.1-0.2-0.1c0-0.1,0-0.2,0.1-0.2l0.1,0.1c0.1-0.1-0.1-0.2-0.1-0.3
							l0,0c-0.1-0.2-0.2-0.2-0.3-0.4l0,0c-0.1-0.1,0-0.1-0.1-0.2l0.1-0.1c-0.1-0.1-0.2-0.2-0.3-0.4c0.1,0.1,0.2,0.2,0.3,0.3
							c0-0.1-0.1-0.3-0.2-0.3c0,0,0.1,0.1,0.1,0.1c-0.1-0.1-0.2-0.2-0.3-0.3c0.2,0-0.1-0.4,0-0.6c-0.2-0.3-0.2-0.6-0.3-0.9
							c-0.1,0.2,0-0.1-0.2,0c0-0.1,0-0.1,0-0.1l0-0.3c0-0.1,0.1,0.1,0.1,0c-0.1-0.2,0-0.1,0-0.2c0,0-0.1,0-0.1-0.1l0,0.2
							c-0.2-0.2,0.1-0.3-0.1-0.5l0.1,0.1c-0.1-0.1-0.2-0.5-0.3-0.5c0,0,0-0.1,0.1,0c-0.1-0.3-0.4-0.6-0.4-0.9l0,0
							c0-0.1-0.1-0.1-0.1-0.2c0,0,0,0,0,0c0,0-0.1-0.1-0.1-0.2l0.1,0c-0.1-0.3-0.3-0.4-0.4-0.6c0.1,0,0.1-0.3,0-0.4l0,0
							c-0.1-0.3-0.3-0.5-0.5-0.8c0.1-0.2-0.2-0.7-0.2-1c0,0.1-0.1,0-0.1,0c0-0.1-0.2-0.2,0-0.2l0,0c0.1-0.1,0-0.2,0-0.3l-0.1,0
							c0.1-0.4-0.4-0.8-0.3-1c-0.1-0.1-0.1-0.2-0.2-0.2l0.1,0c-0.1-0.2-0.1-0.3-0.2-0.6l0.1,0c0-0.1-0.3-0.1-0.3-0.2l0.1-0.1
							c-0.1-0.2-0.1-0.5-0.3-0.7c0,0,0.1,0,0.1,0c0-0.1-0.1-0.5-0.2-0.4c0.1,0-0.1-0.3-0.2-0.4l0.1,0c-0.1-0.1-0.2-0.1-0.2-0.2
							c0,0,0-0.1,0,0c0-0.1-0.1-0.1-0.1-0.2l0.1,0c0-0.1-0.1-0.1-0.1-0.2c-0.1-0.1-0.1-0.2,0-0.3c0,0-0.1-0.1-0.1-0.1c0,0,0,0,0.1,0
							c0-0.2-0.2-0.3-0.2-0.5c0,0,0,0,0,0c0.1,0.2,0.1,0.3,0.1,0.3c0.1,0,0-0.2,0.2-0.1c-0.1-0.1-0.3-0.2-0.3-0.4c0,0,0,0,0,0l0,0
							c0,0,0-0.1,0-0.1c0,0,0-0.1,0-0.1c0,0,0-0.2-0.1-0.2c-0.1,0-0.1-0.1-0.1,0c0,0,0,0,0,0.1c0,0,0,0,0,0c0,0,0,0,0,0
							c0,0,0,0.1,0.1,0.2c-0.1,0-0.1-0.1-0.1-0.2c-0.1,0-0.1,0-0.2-0.1c0.1-0.1,0.1-0.3,0.1-0.4c-0.1-0.2-0.2-0.5-0.4-0.6
							c0-0.1,0-0.1,0-0.1c0,0,0,0.1,0.1,0.1c-0.1-0.1-0.1-0.3-0.2-0.3c0-0.2,0.1,0.1,0-0.1l0,0c0-0.5-0.5-0.6-0.5-1.1
							c0,0,0,0.1,0,0.1c-0.1-0.5-0.5-1-0.5-1.6c0-0.2-0.1-0.1-0.2-0.2l0.1-0.1l-0.1-0.1c-0.1-0.2,0.1-0.4-0.2-0.7l0,0.1
							c0-0.1-0.1-0.3-0.1-0.3c0,0-0.1,0-0.1-0.1l0,0l-0.2-0.2c0-0.2,0.2,0,0.1-0.3c-0.1-0.1-0.2-0.2-0.2-0.2c0,0,0,0.1,0,0.1
							L25.6,19c-0.1,0-0.3,0-0.3,0.3l0.1,0.1l0,0.1l-0.1-0.1c0,0.1,0,0.1,0.1,0.2c0,0,0,0.1,0,0.1l0.2,0.1c0,0-0.1,0-0.1,0.1
							c0.1,0.1,0.1-0.1,0.2,0c0,0.1-0.1,0.1,0,0.2c0,0-0.1,0-0.1,0c0.1,0.1,0.1,0.2,0.2,0.2c0,0.1,0.1,0.3,0,0.3
							c0,0,0.1,0.1,0.2,0.2c-0.2-0.1,0.1,0.3-0.1,0.3c0.2,0.1,0.2,0.3,0.3,0.5c0,0,0,0,0,0c0,0.1,0,0.1,0,0.2c0.1,0,0.2,0.1,0.3,0.2
							c-0.1,0.2-0.1,0-0.2,0c0.1,0,0.2,0.2,0.2,0.1c0,0.1,0,0.1-0.1,0.2c0.1,0,0.1,0.1,0.2,0.1c0,0.2-0.1,0.1,0,0.2
							C26.4,22.4,26.3,22.3,26.3,22.3z M27.8,25.6C27.8,25.6,27.8,25.6,27.8,25.6C27.8,25.6,27.8,25.6,27.8,25.6
							C27.8,25.6,27.8,25.6,27.8,25.6z M27.9,25.9c0,0,0-0.1,0-0.1c0,0,0.1,0,0.1,0C27.9,25.8,27.9,25.9,27.9,25.9z M28.2,25.1
							C28.2,25.2,28.2,25.2,28.2,25.1C28.2,25.2,28.2,25.1,28.2,25.1C28.1,25.1,28.1,25.1,28.2,25.1C28.2,25.1,28.2,25.1,28.2,25.1z
							"/>
						<path fill="#808181" d="M28.1,25.1C28.1,25.1,28,25.1,28.1,25.1C28,25.1,28,25.1,28.1,25.1C28,25.1,28.1,25.1,28.1,25.1
							C28.1,25.1,28.1,25.1,28.1,25.1z"/>
						<path fill="#808181" d="M37.6,51L37.6,51C37.6,51,37.6,51,37.6,51C37.6,51,37.6,51,37.6,51z"/>
						<polygon fill="#808181" points="29.2,29.9 29.2,29.9 29.2,29.9 						"/>
						<path fill="#808181" d="M37.9,52.7C37.9,52.7,37.9,52.7,37.9,52.7C37.9,52.7,37.9,52.7,37.9,52.7z"/>
						<path fill="#808181" d="M38.1,53.3l0,0.1C38.1,53.4,38.1,53.4,38.1,53.3z"/>
						<path fill="#808181" d="M38.3,53.9C38.3,53.9,38.3,53.9,38.3,53.9C38.3,53.9,38.3,53.9,38.3,53.9L38.3,53.9z"/>
						<path fill="#808181" d="M35.1,45.6C35.1,45.6,35.1,45.6,35.1,45.6C35.1,45.5,35.1,45.6,35.1,45.6z"/>
						<path fill="#808181" d="M36.2,48C36.2,48,36.2,48,36.2,48C36.2,48,36.2,48,36.2,48z"/>
						<path fill="#808181" d="M34,42.9C34,42.9,34,42.9,34,42.9C34,42.9,34,42.9,34,42.9L34,42.9z"/>
						<path fill="#808181" d="M36.1,47.8c0,0,0,0.1,0,0.1C36.1,47.9,36.1,47.9,36.1,47.8z"/>
						<path fill="#808181" d="M39.1,56.2L39.1,56.2C39.1,56.2,39.1,56.2,39.1,56.2L39.1,56.2z"/>
						<path fill="#808181" d="M39.1,56.2L39.1,56.2C39.1,56.2,39.1,56.2,39.1,56.2z"/>
						<path fill="#808181" d="M39.2,56.3L39.2,56.3C39.1,56.2,39.1,56.2,39.2,56.3z"/>
						<path fill="#808181" d="M38.9,55.4L38.9,55.4C38.8,55.5,38.9,55.5,38.9,55.4z"/>
						<path fill="#808181" d="M38.8,55.2c0,0.1,0,0.1,0,0.2l0,0C38.8,55.4,38.8,55.3,38.8,55.2z"/>
						<path fill="#808181" d="M38.8,54.2l0,0.2c0,0,0-0.1,0.1,0C38.9,54.2,38.9,54.5,38.8,54.2z"/>
						<path fill="#808181" d="M38.6,53.7C38.7,53.8,38.7,53.7,38.6,53.7C38.6,53.6,38.6,53.6,38.6,53.7z"/>
						<path fill="#808181" d="M37.2,49.7L37.2,49.7C37.2,49.7,37.2,49.7,37.2,49.7z"/>
						<polygon fill="#808181" points="36.5,49.1 36.5,49.2 36.6,49.2 						"/>
						<polygon fill="#808181" points="36.8,48.5 36.9,48.5 36.8,48.4 						"/>
						<path fill="#808181" d="M34.4,41.9L34.4,41.9C34.3,42,34.4,41.9,34.4,41.9z"/>
						<path fill="#808181" d="M33.2,39c0,0,0-0.1,0-0.2C33.2,38.9,33.2,39,33.2,39z"/>
						<polygon fill="#808181" points="30.2,30.4 30.2,30.5 30.1,30.4 						"/>
					</g>
				</g>
			</g>
		</g>
	</g>
	<g>
		<g>
			<g>
				<g>
					<g>
						<path fill="#808181" d="M34.9,60.1C34.9,60.1,35,60.1,34.9,60.1L34.9,60.1L34.9,60.1z"/>
						<path fill="#808181" d="M34.9,59.7c-0.1,0-0.2-0.1-0.2,0C34.8,59.7,34.7,59.8,34.9,59.7c0,0.1,0,0.2,0,0.2c0,0,0,0.1,0.1,0.1
							C35,59.9,34.9,59.8,34.9,59.7C34.8,59.7,34.9,59.7,34.9,59.7z"/>
						<path fill="#808181" d="M32.5,54.8L32.5,54.8C32.5,54.8,32.5,54.8,32.5,54.8z"/>
						<path fill="#808181" d="M31,51.7C31,51.7,31.1,51.7,31,51.7C31.1,51.7,31,51.7,31,51.7z"/>
						<path fill="#808181" d="M30.9,51.1C30.9,51.1,30.9,51.2,30.9,51.1C30.9,51.2,30.9,51.1,30.9,51.1z"/>
						<path fill="#808181" d="M32.5,54.8L32.5,54.8C32.5,54.7,32.5,54.7,32.5,54.8z"/>
						<path fill="#808181" d="M34.3,59.1C34.4,59.1,34.4,59.2,34.3,59.1C34.4,59.2,34.4,59.1,34.3,59.1
							C34.4,59.1,34.3,59.1,34.3,59.1z"/>
						<path fill="#808181" d="M33.3,56.1L33.3,56.1C33.3,56.1,33.3,56.1,33.3,56.1L33.3,56.1z"/>
						<path fill="#808181" d="M33.8,57.1c0,0-0.1,0-0.1,0C33.7,57.1,33.7,57.1,33.8,57.1C33.8,57.1,33.8,57.1,33.8,57.1z"/>
						<path fill="#808181" d="M34.5,58.8L34.5,58.8C34.5,58.8,34.5,58.8,34.5,58.8z"/>
						<path fill="#808181" d="M32.9,55.3C32.9,55.3,32.9,55.3,32.9,55.3C32.9,55.3,32.9,55.3,32.9,55.3z"/>
						<path fill="#808181" d="M17.8,26.9C17.8,26.9,17.9,26.9,17.8,26.9C17.8,26.9,17.8,26.9,17.8,26.9z"/>
						<path fill="#808181" d="M17.6,25.5L17.6,25.5C17.6,25.5,17.6,25.5,17.6,25.5L17.6,25.5z"/>
						<path fill="#808181" d="M30.5,50.1C30.5,50.1,30.5,50.1,30.5,50.1C30.5,50.2,30.5,50.2,30.5,50.1z"/>
						<path fill="#808181" d="M26,41.5c0,0.1-0.2-0.1-0.2,0.1C25.9,41.5,26,41.6,26,41.5z"/>
						<path fill="#808181" d="M34.3,59.1C34.3,59.1,34.3,59.1,34.3,59.1C34.3,59.1,34.3,59.1,34.3,59.1z"/>
						<path fill="#808181" d="M25.9,41.5C25.9,41.5,25.9,41.5,25.9,41.5L25.9,41.5C25.9,41.6,25.9,41.5,25.9,41.5z"/>
						<path fill="#808181" d="M29.3,48C29.3,48,29.3,48,29.3,48C29.3,48,29.3,48,29.3,48z"/>
						<path fill="#808181" d="M30,49.7L30,49.7C30,49.6,30,49.6,30,49.7z"/>
						<path fill="#808181" d="M28.8,47.2C28.8,47.2,28.8,47.2,28.8,47.2C28.8,47.1,28.8,47.1,28.8,47.2
							C28.8,47.1,28.8,47.2,28.8,47.2z"/>
						<path fill="#808181" d="M28.3,46.3C28.3,46.3,28.3,46.3,28.3,46.3C28.3,46.3,28.4,46.4,28.3,46.3L28.3,46.3z"/>
						<path fill="#808181" d="M19.2,29.6C19.2,29.5,19.3,29.5,19.2,29.6C19.2,29.5,19.1,29.4,19.2,29.6z"/>
						<path fill="#808181" d="M34.4,59.1C34.4,59.1,34.4,59.1,34.4,59.1C34.3,59.1,34.4,59.1,34.4,59.1
							C34.4,59.1,34.4,59.1,34.4,59.1z"/>
						<path fill="#808181" d="M28.2,47.4l-0.1-0.1C28.2,47.3,28.2,47.4,28.2,47.4z"/>
						<path fill="#808181" d="M22.4,35.9L22.4,35.9C22.4,35.8,22.4,35.8,22.4,35.9z"/>
						<path fill="#808181" d="M28,46.9c0,0,0-0.1,0-0.1c0,0,0,0,0,0L28,46.9z"/>
						<path fill="#808181" d="M19.3,29.5C19.3,29.5,19.3,29.5,19.3,29.5C19.3,29.5,19.3,29.5,19.3,29.5z"/>
						<path fill="#808181" d="M18.6,28.6c0.1,0.1,0.1,0,0.2,0c0.1,0.1,0,0.1,0,0.2C18.9,28.9,19,29,19,29c0,0,0,0,0,0
							c0.1,0.1,0.2,0.3,0.3,0.4c0,0,0,0,0,0c0,0,0.1-0.1,0.1-0.1c0,0.1,0.1,0.1,0.1,0.1c0,0,0,0-0.1,0l0.1,0c-0.1,0.1-0.1-0.1-0.1,0
							c0.1,0.1,0.2,0.2,0.3,0.3c-0.1,0.1-0.1-0.2-0.1,0l0-0.2c-0.1,0.2,0-0.1-0.1,0.1c0.1,0.2,0.2,0.2,0.2,0.4c0.1,0,0.1,0,0.1,0
							c0.2,0.2-0.1,0.3,0.1,0.5c0.1,0,0.2,0,0.2,0.2l-0.1,0c0.1,0.2,0.2,0,0.2,0.3c-0.1,0-0.1-0.1-0.1-0.1c0,0.2,0.1,0.1,0.1,0.2
							L20,31.1c0.1,0.2,0.3,0.4,0.4,0.6c0,0-0.1,0-0.1,0c0.2,0.3,0.3,0.6,0.4,0.9l0.1,0.1c0,0,0,0.1,0,0c0,0.1,0,0,0.1,0
							c0,0.1,0,0.1,0,0.1c0.2,0.2,0.4,0.5,0.4,0.7l0,0c0,0.2,0.2,0.1,0.2,0.3l0,0c0.1,0.3,0.4,0.7,0.4,1c0.1,0,0.1,0.3,0.3,0.3
							c0,0.2,0,0.2,0.1,0.5c0,0.1,0.1,0.1,0.2,0.1l-0.1,0l0.1,0.1l-0.1,0.1l0.1,0.1c0,0,0-0.1,0-0.1c0.1,0.1,0.1,0.3,0.1,0.4
							l0.2,0.3c0,0-0.1,0-0.1-0.1c0.2,0.1-0.1,0.1,0.1,0.2c0,0,0.1,0,0.1,0c0,0.1,0.1,0.3,0.2,0.4l-0.1,0c0.1,0.2,0.3,0.5,0.4,0.7
							c0-0.1,0.1-0.1,0.1-0.1l-0.1,0.1c0.1,0,0-0.1,0.1,0c0,0.1-0.1,0.1-0.1,0.1l0.1,0.1c0,0,0,0-0.1,0c0.1,0,0,0.2,0.1,0.3l0,0
							c0.1,0.2,0.2,0.3,0.3,0.5c0.1,0,0.1,0.1,0.2,0.1c0.1,0.2,0.1,0.4,0.2,0.5c0.1,0.1,0.1,0,0.1,0c-0.1,0,0,0.2-0.1,0.1
							c0.1,0.2,0.2,0.3,0.3,0.5c0,0,0-0.1,0-0.1c0,0,0,0.1,0,0.1l0,0c0.2,0.3,0.2,0.8,0.4,1l0,0l0.2,0.2c0,0.1-0.1,0-0.1,0.1
							c0.2,0.2,0.2,0.4,0.4,0.6c-0.1,0.3,0.3,0.6,0.3,0.9l0,0c0.1,0,0,0.1,0,0.1c0,0,0-0.1,0-0.1c0.3,0.5,0.5,1.1,0.7,1.6
							c0.1,0.2,0.3,0,0.3,0.3l-0.1,0c0.3,0.3,0.4,0.8,0.7,1.1c0,0-0.1,0-0.1,0c0,0.1,0.1,0.3,0.2,0.3c0,0.1,0,0,0,0.1
							c0,0.1,0.2,0.2,0.1,0.2c0,0,0,0,0,0c0.1,0,0.1,0.2,0.2,0.2c0,0.2,0.2,0.3,0.2,0.4c0.1,0,0.1,0.3,0.2,0.2c-0.1,0,0,0.3,0.1,0.4
							c0,0,0,0.1-0.1,0.1c0.1,0.1,0.1,0.2,0.2,0.1c0,0.3,0.3,0.3,0.2,0.5c0.2,0.3,0.4,0.5,0.6,0.8c-0.1,0-0.2-0.3-0.3-0.2
							c0.2,0.2,0.3,0.3,0.5,0.6c0,0.1-0.1,0-0.1,0c0.2,0.2,0.2,0.5,0.4,0.7c0,0,0,0-0.1,0c0,0,0,0.1,0.1,0.1l0,0
							c0-0.1,0.2,0.1,0.3,0.1c-0.2,0,0.1,0.2-0.2,0.2c0,0,0.1,0.1,0.1,0c0,0,0,0.1-0.1,0c0.1,0.1,0.1,0.1,0.2,0.2c0,0,0,0-0.1,0
							c0.1,0.1,0.2,0.1,0.2,0.2c0,0,0,0,0,0c0.1,0.2,0.3,0.3,0.4,0.6c-0.1,0,0,0.1-0.1,0.2l0.1,0.1l0-0.1c0.1,0.1,0.2,0.2,0.2,0.3
							l-0.1-0.1l0.1,0.2l0-0.1c0.1,0.1,0.1-0.1,0.2,0.1c0,0,0.1,0.1,0,0.2c0,0,0,0,0,0c0.1,0,0.1,0.1,0.1,0.2c0,0-0.1,0-0.1,0.1
							c0.1,0,0.2,0.2,0.3,0.3c0,0-0.1,0-0.1,0l0.1,0c0,0.1,0,0.1,0,0.1c0.1,0.2,0.1-0.1,0.1,0.1c0,0,0,0,0,0
							c0.1,0.2,0.2,0.3,0.3,0.5c-0.1,0.1-0.1-0.1-0.1,0c0.1,0.2,0.4,0.4,0.5,0.7l0,0c0.1,0,0,0.2,0.1,0.3c0,0-0.1,0-0.1,0
							c0.1,0.2,0.2,0.3,0.4,0.5l0,0c0,0.1,0.1,0.3,0.1,0.4c0,0,0.1,0.1,0.1,0c0,0.4,0.4,0.6,0.4,0.9c0,0-0.1-0.1-0.1,0l0.2,0.2
							c0,0,0,0,0-0.1c0,0,0.1,0.1,0.1,0.1c-0.1-0.1-0.1,0-0.1,0.1c0,0,0,0,0.1,0c0,0.2,0.1,0,0.1,0.2l0,0c0,0.1,0.1,0.1,0.1,0.2
							c-0.1,0.1-0.1-0.1-0.1,0c0.1,0.1,0.2,0.1,0.2,0.2c0,0-0.1-0.1-0.1-0.1c0,0.1,0,0.1,0,0.2l0,0l0,0.2l0-0.1
							c0.2,0,0.2,0.2,0.4,0.3c-0.2-0.1-0.1,0-0.2,0c0,0.1,0,0.1,0,0.1c0.1,0,0,0.2,0.2,0.2c0,0,0,0.1,0,0.1c0.1,0.1,0,0,0.1-0.1
							c0.2,0.1,0.1,0.4,0.3,0.6c0.1,0.2,0.2,0.2,0.4,0.3c0,0.1-0.1,0-0.1,0c0,0.1,0.1,0.2,0.1,0.3c0,0,0,0-0.1,0.1
							c0,0.1,0.1,0,0.1,0.1c0,0-0.1,0-0.1,0c0.1,0.1,0.2,0.1,0.2,0.2c0,0-0.1,0-0.1,0c0.1,0.1,0.2,0.2,0.3,0.2l0-0.1c0,0,0,0-0.1,0
							c-0.1-0.1,0-0.1,0-0.2l0,0.1c0.1-0.1-0.2-0.2-0.2-0.4l0.1,0L34.4,59c0,0,0.1-0.1,0.1,0c0-0.1-0.1-0.1-0.1-0.2c0,0,0,0,0,0
							l-0.1-0.1c0,0,0.1-0.1,0.1,0c0-0.2-0.2-0.2-0.2-0.3l0,0c-0.1-0.2-0.1,0-0.3-0.1l0.1-0.2l-0.1,0c0,0,0-0.1,0-0.1
							c-0.1-0.1,0,0-0.1,0c0-0.1-0.2-0.3-0.1-0.4c-0.1,0,0,0.1-0.1,0c0.1-0.1-0.1-0.1-0.1-0.3c0.1,0,0.1,0.1,0.1,0
							c-0.1,0-0.1-0.2-0.1-0.3c-0.1,0-0.1-0.2-0.2-0.3c0,0-0.1-0.3-0.1-0.4l0,0c-0.1,0-0.2-0.1-0.2-0.2c0.1,0,0.1,0,0.1,0l0-0.1
							c0,0-0.1,0-0.1-0.1l0.1,0c-0.1-0.1-0.2-0.2-0.2-0.4c-0.1,0-0.1,0.2-0.2,0.1c0,0,0.1-0.1,0.1,0c0,0-0.1,0-0.1-0.1l0.1,0
							c0-0.1-0.1,0-0.1-0.1c0,0,0-0.1,0.1-0.1c0,0,0,0.1,0,0.1c0-0.1,0-0.2,0-0.2c0,0-0.1,0-0.1,0c-0.1-0.1,0-0.1,0-0.2
							c0,0-0.1-0.1-0.1-0.1c0,0,0-0.1,0-0.1c-0.1,0-0.2-0.3-0.2-0.2l0,0c0,0,0,0,0,0c0,0,0,0,0,0l0,0c-0.2-0.2-0.2-0.5-0.3-0.7l0,0
							c-0.1-0.1-0.2-0.3-0.3-0.3c0,0,0-0.1,0-0.1c-0.1-0.1-0.1-0.1-0.1-0.2c0.1,0.1,0-0.1,0.1,0.1c0-0.1,0-0.2-0.2-0.3
							c0.1,0,0-0.1,0-0.2l0,0.1c0-0.1-0.1-0.1-0.1-0.2l0.1,0c0-0.3-0.4-0.4-0.3-0.7c-0.1,0,0,0.2-0.1,0.1c0-0.1,0-0.3,0-0.3
							c0-0.2-0.2-0.1-0.3-0.3c0,0-0.1,0.1-0.2,0c0-0.1,0-0.2,0.1-0.1c0,0,0,0,0,0c0,0,0.1,0.1,0.1,0l0,0c0-0.1-0.1-0.2,0-0.2
							c-0.1-0.1-0.1,0,0,0.1c0-0.2-0.1-0.2-0.2-0.4c0,0,0,0.1,0,0c-0.1-0.2-0.1-0.1-0.2-0.2c0-0.1,0.1,0,0-0.2c0-0.1,0.1-0.1,0.1,0
							c-0.1-0.1-0.1-0.3-0.1-0.4l0.1,0.1c0,0-0.1-0.1-0.1-0.1l0,0.1c0,0,0-0.1,0-0.1c-0.1,0-0.1,0.1-0.2,0c0-0.1-0.1-0.2-0.1-0.2
							c0.1,0.2,0.1-0.1,0.2,0.1c0,0,0-0.1-0.1-0.1c0,0,0,0,0,0c0-0.2-0.1,0-0.2-0.2c0.1,0,0.1-0.1,0-0.1c0,0.1-0.1,0.1-0.1,0
							c0-0.1-0.1-0.1-0.1-0.2l0,0.1c-0.1,0-0.1-0.1-0.1-0.1c0,0,0.1,0.1,0.1,0c-0.1-0.1,0-0.2-0.1-0.3c0-0.1,0.1,0,0.1-0.1
							c-0.1-0.1,0-0.2-0.1-0.3c0,0.1,0,0.1-0.1,0l0.2,0.2L29.7,49c0,0.1,0.1,0.1,0.1,0.2c-0.1-0.1-0.1-0.1-0.1,0
							c0-0.1-0.2-0.2-0.2-0.3l0.1-0.1c0-0.2-0.2-0.3-0.3-0.5l0,0.1c-0.1,0-0.1-0.1-0.1-0.2c0.1,0,0-0.1,0.1-0.1c0,0-0.1-0.2-0.2-0.1
							l0-0.1c-0.1-0.2-0.2-0.1-0.3-0.3c0.1,0,0.1-0.1,0.2,0c0-0.1,0-0.1-0.1-0.1c0,0-0.1-0.1-0.1-0.2c0,0-0.1,0-0.1-0.1c0,0,0,0,0,0
							c0,0-0.1-0.1-0.1,0c0.1-0.3-0.3-0.5-0.2-0.7c-0.1-0.1-0.2-0.3-0.2-0.4c0,0,0,0,0,0c0-0.2-0.2,0-0.2-0.2c0-0.1,0.1,0.1,0.1,0
							c0.1-0.1-0.1-0.2-0.1-0.4l0,0c0-0.1-0.2-0.2-0.2-0.4c0,0,0,0,0,0c-0.1-0.1-0.3-0.3-0.4-0.4c0.1,0,0.1,0.1,0.1,0
							c0-0.1-0.1,0.1-0.2-0.1c0-0.1,0-0.2,0.1-0.2l0.1,0.1c0.1-0.1-0.1-0.2-0.1-0.2l0,0c-0.1-0.2-0.2-0.1-0.3-0.3l0,0
							c-0.2-0.1,0-0.1-0.1-0.2l0.1-0.1c-0.1-0.1-0.2-0.2-0.3-0.3c0.1,0,0.2,0.2,0.3,0.3c0-0.1-0.1-0.2-0.2-0.3c0,0,0.1,0.1,0.1,0.1
							c-0.1-0.1-0.2-0.2-0.3-0.3c0.2-0.1-0.1-0.4-0.1-0.6c-0.2-0.2-0.2-0.5-0.4-0.8c-0.1,0.2,0-0.1-0.2,0c0-0.1-0.1-0.1-0.1-0.1
							l0-0.3c0-0.1,0.1,0.1,0.1,0c-0.1-0.2,0-0.1,0-0.2c0,0-0.1,0-0.1-0.1l0,0.2c-0.2-0.2,0-0.3-0.2-0.4l0.1,0
							c-0.1-0.1-0.2-0.4-0.4-0.5c0,0,0-0.1,0.1,0C25.3,40,25,39.7,25,39.5l0,0c0,0-0.1-0.1-0.1-0.1c0,0,0,0,0,0c0,0-0.1-0.1-0.1-0.2
							l0.1,0c-0.1-0.3-0.3-0.3-0.4-0.6c0.1-0.1,0-0.3,0-0.4l0,0c-0.1-0.3-0.4-0.5-0.5-0.7c0-0.2-0.3-0.6-0.3-0.9c0,0.1-0.1,0-0.1,0
							c0-0.1-0.2-0.1-0.1-0.2l0,0c0.1-0.1,0-0.2-0.1-0.3l-0.1,0c0-0.4-0.4-0.7-0.3-0.9c-0.1-0.1-0.1-0.1-0.2-0.2l0.1,0
							c-0.1-0.2-0.1-0.3-0.2-0.5l0.1,0c-0.1-0.1-0.3-0.1-0.3-0.2l0.1-0.1c-0.1-0.2-0.1-0.5-0.3-0.7c0,0,0.1,0,0.1,0
							c-0.1-0.1-0.1-0.4-0.3-0.3c0.1,0-0.1-0.2-0.2-0.3l0.1,0c-0.1-0.1-0.2,0-0.3-0.2c0,0,0-0.1,0,0c0-0.1-0.1-0.1-0.1-0.2l0.1,0
							c-0.1-0.1-0.1-0.1-0.2-0.1c-0.1-0.1-0.1-0.2,0-0.3c0,0-0.1,0-0.1-0.1c0,0,0,0,0.1,0c-0.1-0.2-0.2-0.2-0.2-0.4c0,0,0,0,0,0
							c0.1,0.2,0.1,0.3,0.1,0.3c0.1,0,0-0.2,0.1-0.1c-0.1-0.1-0.3-0.2-0.3-0.3c0,0,0,0,0,0l0,0c0,0,0-0.1,0-0.1c0,0,0-0.1,0-0.1
							c0,0,0-0.2-0.1-0.2c-0.1,0-0.1,0-0.1,0.1c0,0,0,0,0,0c0,0,0,0,0,0c0,0,0,0,0,0c0,0,0.1,0.1,0.1,0.2c-0.1,0-0.1-0.1-0.1-0.2
							c-0.1,0-0.1,0-0.2,0c0.1-0.1,0-0.3,0.1-0.4c-0.1-0.2-0.3-0.4-0.4-0.5c0,0,0-0.1,0-0.1c0,0,0,0.1,0.1,0.1
							c-0.1-0.1-0.2-0.3-0.3-0.3c0-0.2,0.1,0,0-0.1l0,0c0-0.4-0.5-0.5-0.6-1c0,0,0,0.1,0,0.1c-0.2-0.5-0.6-0.9-0.7-1.4
							c0-0.1-0.1-0.1-0.2-0.2l0.1-0.1L18.4,27c-0.2-0.2,0-0.4-0.2-0.6l0,0.1c0-0.1-0.2-0.3-0.1-0.3c0,0-0.1,0-0.1,0l0,0L17.9,26
							c-0.1-0.2,0.2-0.1,0.1-0.3c-0.1-0.1-0.2-0.2-0.3-0.2c0,0,0,0.1,0,0.1l-0.1-0.1c-0.1,0-0.3,0-0.2,0.3l0.1,0.1l0,0.1l-0.1-0.1
							c0,0.1,0.1,0.1,0.1,0.1c0,0,0,0.1,0,0.1l0.2,0.1c0,0-0.1,0-0.1,0.1c0.1,0,0.1-0.1,0.2,0c0,0.1-0.1,0.1,0,0.2c0,0-0.1,0-0.1,0
							c0.1,0.1,0.1,0.2,0.2,0.2c0,0.1,0.1,0.2,0,0.3c0,0,0.1,0.1,0.2,0.1c-0.2-0.1,0.1,0.2,0,0.3c0.2,0,0.2,0.3,0.4,0.4c0,0,0,0,0,0
							c0,0.1,0,0.1,0,0.2c0.1,0,0.2,0.1,0.3,0.1c0,0.2-0.1,0-0.2,0.1c0.1,0,0.2,0.1,0.2,0.1c0,0.1,0,0.1-0.1,0.2
							c0.1,0,0.1,0.1,0.2,0.1c0,0.1-0.1,0.1,0,0.2C18.7,28.7,18.6,28.6,18.6,28.6z M20.4,31.6C20.4,31.6,20.4,31.6,20.4,31.6
							C20.4,31.6,20.4,31.6,20.4,31.6C20.4,31.6,20.4,31.6,20.4,31.6z M20.6,31.9c0,0,0-0.1-0.1-0.1c0,0,0,0,0.1,0
							C20.5,31.8,20.6,31.9,20.6,31.9z M20.8,31.1C20.8,31.1,20.8,31.2,20.8,31.1C20.8,31.2,20.7,31.1,20.8,31.1
							C20.7,31.1,20.7,31.1,20.8,31.1C20.7,31.1,20.7,31.1,20.8,31.1z"/>
						<path fill="#808181" d="M20.6,31.1C20.6,31.1,20.6,31.1,20.6,31.1C20.6,31.1,20.6,31.1,20.6,31.1
							C20.6,31.1,20.6,31.1,20.6,31.1C20.6,31.1,20.6,31.1,20.6,31.1z"/>
						<path fill="#808181" d="M32.5,54.8L32.5,54.8C32.5,54.8,32.5,54.8,32.5,54.8C32.5,54.8,32.5,54.8,32.5,54.8z"/>
						<polygon fill="#808181" points="22.3,35.6 22.3,35.6 22.2,35.6 						"/>
						<path fill="#808181" d="M33,56.4C33,56.4,33,56.4,33,56.4C33,56.4,33,56.4,33,56.4z"/>
						<path fill="#808181" d="M33.3,57l0,0.1C33.3,57,33.3,57,33.3,57z"/>
						<path fill="#808181" d="M33.5,57.5C33.6,57.5,33.6,57.5,33.5,57.5C33.6,57.5,33.6,57.5,33.5,57.5L33.5,57.5z"/>
						<path fill="#808181" d="M29.6,49.9C29.6,49.9,29.6,49.9,29.6,49.9C29.6,49.9,29.6,49.9,29.6,49.9z"/>
						<path fill="#808181" d="M30.9,52.1C30.9,52.1,30.9,52.1,30.9,52.1C30.9,52.1,30.9,52.1,30.9,52.1z"/>
						<path fill="#808181" d="M28.2,47.4C28.2,47.4,28.2,47.4,28.2,47.4C28.2,47.4,28.2,47.4,28.2,47.4L28.2,47.4z"/>
						<path fill="#808181" d="M30.8,51.9c0,0,0,0.1,0.1,0.1C30.8,52,30.8,52,30.8,51.9z"/>
						<path fill="#808181" d="M34.6,59.6L34.6,59.6C34.6,59.6,34.6,59.6,34.6,59.6L34.6,59.6z"/>
						<path fill="#808181" d="M34.6,59.6L34.6,59.6C34.6,59.6,34.6,59.6,34.6,59.6z"/>
						<path fill="#808181" d="M34.6,59.6L34.6,59.6C34.6,59.6,34.6,59.6,34.6,59.6z"/>
						<path fill="#808181" d="M34.3,58.9L34.3,58.9C34.2,58.9,34.3,58.9,34.3,58.9z"/>
						<path fill="#808181" d="M34.2,58.7c0,0,0,0.1,0.1,0.2l0,0C34.2,58.9,34.2,58.7,34.2,58.7z"/>
						<path fill="#808181" d="M34.1,57.8l0.1,0.2c0,0,0-0.1,0.1,0C34.2,57.7,34.2,58,34.1,57.8z"/>
						<path fill="#808181" d="M33.8,57.2C33.9,57.3,33.9,57.2,33.8,57.2C33.9,57.2,33.8,57.2,33.8,57.2z"/>
						<path fill="#808181" d="M32,53.6L32,53.6C32,53.6,32.1,53.6,32,53.6z"/>
						<polygon fill="#808181" points="31.3,53.1 31.3,53.2 31.4,53.2 						"/>
						<polygon fill="#808181" points="31.6,52.5 31.6,52.5 31.5,52.4 						"/>
						<path fill="#808181" d="M28.5,46.4L28.5,46.4C28.5,46.5,28.6,46.5,28.5,46.4z"/>
						<path fill="#808181" d="M27.1,43.9c0,0,0-0.1,0-0.2C27.1,43.8,27.1,43.8,27.1,43.9z"/>
						<polygon fill="#808181" points="23.2,36 23.3,36 23.2,35.9 						"/>
					</g>
				</g>
			</g>
		</g>
	</g>
	<g>
		<g>
			<g>
				<g>
					<g>
						<path fill="#808181" d="M48.3,55.5C48.4,55.5,48.4,55.5,48.3,55.5L48.3,55.5L48.3,55.5z"/>
						<path fill="#808181" d="M48.5,55.1c0-0.1-0.1-0.2-0.2-0.1C48.4,55.1,48.4,55.1,48.5,55.1c0,0.1-0.1,0.2-0.1,0.1
							c0,0,0,0.1,0,0.1C48.5,55.3,48.5,55.2,48.5,55.1C48.5,55.1,48.5,55.1,48.5,55.1z"/>
						<path fill="#808181" d="M49.1,49.3L49.1,49.3C49,49.3,49,49.3,49.1,49.3z"/>
						<path fill="#808181" d="M49.3,45.6C49.3,45.7,49.3,45.7,49.3,45.6C49.3,45.6,49.3,45.6,49.3,45.6z"/>
						<path fill="#808181" d="M49.5,45C49.5,45,49.5,45,49.5,45C49.5,45,49.5,45,49.5,45z"/>
						<path fill="#808181" d="M49.1,49.3L49.1,49.3C49.1,49.2,49.1,49.2,49.1,49.3z"/>
						<path fill="#808181" d="M48.4,54.3C48.4,54.3,48.4,54.3,48.4,54.3C48.4,54.3,48.4,54.3,48.4,54.3
							C48.4,54.3,48.4,54.3,48.4,54.3z"/>
						<path fill="#808181" d="M49,50.9L49,50.9C49,50.9,49,50.9,49,50.9L49,50.9z"/>
						<path fill="#808181" d="M49,52.1c0,0-0.1,0-0.1-0.1C48.9,52,48.9,52.1,49,52.1C48.9,52.1,48.9,52.1,49,52.1z"/>
						<path fill="#808181" d="M48.7,54L48.7,54C48.7,54,48.7,54,48.7,54z"/>
						<path fill="#808181" d="M49.1,50C49.1,50,49.1,50,49.1,50C49.1,50,49.1,50,49.1,50z"/>
						<path fill="#808181" d="M50.7,15.6C50.7,15.6,50.7,15.6,50.7,15.6C50.7,15.6,50.7,15.6,50.7,15.6z"/>
						<path fill="#808181" d="M51.2,14.2L51.2,14.2C51.2,14.3,51.2,14.3,51.2,14.2L51.2,14.2z"/>
						<path fill="#808181" d="M49.6,43.9C49.6,43.9,49.6,43.9,49.6,43.9C49.6,43.9,49.6,43.9,49.6,43.9z"/>
						<path fill="#808181" d="M50.2,33.5c-0.1,0.1-0.1-0.2-0.2,0C50.1,33.4,50.2,33.6,50.2,33.5z"/>
						<path fill="#808181" d="M48.4,54.2C48.4,54.2,48.4,54.2,48.4,54.2C48.4,54.2,48.4,54.2,48.4,54.2z"/>
						<path fill="#808181" d="M50.1,33.5C50.1,33.5,50.1,33.5,50.1,33.5L50.1,33.5C50.1,33.5,50.1,33.5,50.1,33.5z"/>
						<path fill="#808181" d="M49.8,41.3C49.7,41.3,49.7,41.3,49.8,41.3C49.7,41.3,49.7,41.3,49.8,41.3z"/>
						<path fill="#808181" d="M49.5,43.2L49.5,43.2C49.5,43.2,49.5,43.2,49.5,43.2z"/>
						<path fill="#808181" d="M49.7,40.3C49.7,40.2,49.7,40.2,49.7,40.3C49.7,40.2,49.7,40.2,49.7,40.3
							C49.7,40.2,49.7,40.2,49.7,40.3z"/>
						<path fill="#808181" d="M49.8,39.2C49.8,39.2,49.8,39.2,49.8,39.2C49.8,39.2,49.8,39.3,49.8,39.2L49.8,39.2z"/>
						<path fill="#808181" d="M50.5,18.8C50.5,18.8,50.6,18.8,50.5,18.8C50.5,18.8,50.5,18.6,50.5,18.8z"/>
						<path fill="#808181" d="M48.4,54.3C48.4,54.3,48.4,54.3,48.4,54.3C48.4,54.3,48.4,54.3,48.4,54.3
							C48.4,54.3,48.4,54.3,48.4,54.3z"/>
						<path fill="#808181" d="M49.1,40.2l0-0.2C49.1,40.1,49.1,40.1,49.1,40.2z"/>
						<path fill="#808181" d="M50.1,26.4L50.1,26.4C50,26.3,50,26.4,50.1,26.4z"/>
						<path fill="#808181" d="M49.1,39.5C49.2,39.5,49.2,39.5,49.1,39.5c0.1-0.1,0-0.1,0-0.1L49.1,39.5z"/>
						<path fill="#808181" d="M50.6,18.8C50.6,18.8,50.6,18.8,50.6,18.8C50.6,18.8,50.6,18.8,50.6,18.8z"/>
						<path fill="#808181" d="M50.5,17.7c0,0.2,0.1,0.1,0.2,0.1c0,0.2-0.1,0.1-0.1,0.1c0,0.1,0.1,0.2,0.1,0.3c0,0,0,0,0,0
							c0.1,0.1,0,0.4,0.1,0.5c0,0,0,0,0,0c0.1,0,0.1,0,0.1,0c0,0.1,0.1,0.1,0,0.2c0,0,0,0,0-0.1l0,0.1c-0.1,0.1,0-0.1-0.1-0.1
							c0,0.1,0.1,0.3,0.1,0.4c-0.1,0,0-0.3-0.1-0.1l0-0.2c-0.2,0.1,0-0.1-0.1,0c0,0.2,0,0.3,0,0.5c0,0.1,0.1,0,0.1,0
							c0.1,0.3-0.3,0.2-0.1,0.5c0.1,0.1,0.2,0.1,0.1,0.3l-0.1-0.1c0,0.2,0.1,0.1,0.1,0.4c0,0,0-0.2,0-0.1c-0.1,0.1,0.1,0.1,0,0.2
							l-0.1,0c0,0.2,0.1,0.5,0.1,0.8c0,0-0.1-0.1-0.1,0c0,0.3-0.1,0.7-0.1,1l0.1,0.1c0,0,0,0-0.1,0c0,0.1,0.1,0,0.1,0.1
							c0,0.1-0.1,0.1-0.1,0c0.1,0.2,0.1,0.6,0,0.9l0,0c0,0.2,0.2,0.2,0.1,0.4l0,0c-0.1,0.4,0,0.8-0.2,1.1c0.1,0.1-0.1,0.4,0.1,0.4
							c-0.1,0.2-0.1,0.2-0.2,0.5c0,0.1,0.1,0.1,0.1,0.2l-0.1,0l0.1,0.1L50,26.2l0,0.1c0,0,0-0.1,0.1-0.1c0,0.2-0.1,0.4-0.1,0.4
							l0,0.4c0,0,0-0.1-0.1-0.1c0.1,0.2-0.1,0,0,0.2c0,0,0,0,0.1,0C50,27.2,50,27.4,50,27.5l-0.1,0c0,0.3,0,0.6,0,0.9
							c0-0.1,0.1-0.1,0.1,0l-0.1,0c0.1,0.1,0-0.1,0.1,0c0,0.1-0.1,0.1-0.1,0l0,0.1c0,0,0,0-0.1,0c0.1,0.1-0.1,0.2,0,0.3l0,0
							c0,0.3,0,0.4,0,0.7c0.1,0,0.1,0.1,0.1,0.2c0,0.2-0.1,0.4-0.1,0.6c0,0.2,0.1,0,0.1,0.1c-0.1,0-0.1,0.2-0.1,0.1
							c0,0.3,0,0.3,0,0.7c0,0,0-0.1,0.1-0.1c0,0.1,0,0.1-0.1,0.1l0,0c0.1,0.4-0.3,0.8-0.1,1.1l0,0l0.1,0.3c0,0.1,0-0.1-0.1,0
							c0.1,0.3,0,0.5,0,0.8c-0.2,0.2,0,0.7-0.2,1l0,0c0,0.1,0,0.1,0,0.1c0,0,0-0.1,0.1,0c0,0.6-0.2,1.3-0.2,1.9
							c0,0.2,0.2,0.1,0.1,0.4l-0.1-0.1c0.1,0.5-0.1,0.9,0,1.4c0,0,0,0,0-0.1c-0.1,0.1,0,0.4,0,0.4c0,0.1,0,0-0.1,0.1
							c0,0.1,0.1,0.2,0,0.3c0,0,0,0,0,0c0,0.1,0,0.3,0.1,0.2c0,0.2,0,0.3,0,0.5c0.1,0.1-0.1,0.3,0.1,0.3c-0.1,0-0.1,0.3-0.1,0.4
							c0,0,0,0.1-0.1,0c0,0.1,0,0.2,0.1,0.2c-0.2,0.2,0.1,0.5-0.1,0.6c0,0.4,0.1,0.7,0.1,1c-0.1,0,0-0.4-0.1-0.4
							c0,0.3,0.1,0.5,0.1,0.8c0,0.1-0.1,0-0.1-0.1c0,0.3,0,0.6,0,0.9c0,0,0,0,0-0.1c0,0.1,0,0.1,0,0.1l0-0.1
							c0.1-0.1,0.2,0.2,0.2,0.2c-0.2-0.1-0.1,0.3-0.3,0.1c0,0,0,0.1,0.1,0.1c0,0.1,0,0.1-0.1,0c0,0.2,0.1,0.1,0.1,0.3
							c0,0,0,0-0.1-0.1c0,0.1,0.1,0.2,0.1,0.3c0,0,0,0,0,0c0,0.3,0.1,0.4,0,0.7c-0.1-0.1,0,0.1-0.1,0.1l0,0.2l0.1-0.1
							c0,0.1,0.1,0.3,0,0.4l0-0.1l0,0.2l0-0.1c0,0.1,0.1,0,0.1,0.2c0,0,0,0.1-0.1,0.2c0,0,0,0,0,0c0,0.1,0.1,0.1,0,0.2
							c0,0-0.1,0-0.1,0c0.1,0.1,0,0.3,0.1,0.4c0,0-0.1,0-0.1,0l0.1,0.1c0,0.1,0,0.1-0.1,0.1c0,0.2,0.1-0.1,0.1,0.2c0,0,0,0,0,0
							c0,0.2,0,0.4,0,0.6c-0.1,0.1,0-0.2-0.1-0.1c0,0.3,0.1,0.6,0,0.9l0-0.1c0.1,0-0.1,0.2,0,0.4c0,0-0.1-0.1-0.1,0
							c0,0.2,0,0.4,0,0.7l0,0c0,0.1,0,0.3-0.1,0.4c0,0,0,0.1,0.1,0.1c-0.2,0.4,0.1,0.7-0.1,1.1c0,0,0-0.1,0-0.1l0,0.3
							c0.1,0,0,0,0.1-0.1c0,0,0.1,0.1,0.1,0.2c0-0.1-0.1,0-0.1,0c0,0,0,0,0.1,0c-0.1,0.1,0.1,0,0,0.2l0,0c0,0.1,0.1,0.2,0,0.2
							c-0.1,0,0-0.1-0.1-0.1c0,0.1,0.1,0.2,0,0.3c0-0.1,0-0.1,0-0.2c-0.1,0.1-0.1,0.1-0.1,0.2l0,0l-0.1,0.2l0,0
							c0.2,0.2,0,0.3,0.1,0.5c-0.1-0.2-0.1,0-0.1-0.1c0,0-0.1,0.1-0.1,0.1c0.1,0.1-0.1,0.2,0,0.3c0,0,0,0.1-0.1,0.1c0,0.1,0,0,0.1,0
							c0.1,0.2-0.1,0.4,0,0.7c0,0.2,0.1,0.3,0.2,0.5c0,0.1-0.1-0.1-0.1-0.1c0,0.1,0,0.2,0,0.3c0,0,0,0-0.1,0c0,0.1,0.1,0.1,0,0.2
							c0,0-0.1-0.1-0.1-0.1c0,0.1,0.1,0.2,0.1,0.3c0,0-0.1-0.1-0.1-0.1c0,0.1,0,0.3,0.1,0.4l0-0.1c0,0-0.1,0-0.1,0
							c-0.1-0.1,0-0.1,0.1-0.2l0,0.1c0.2-0.1,0-0.3,0-0.5l0.1,0.1l-0.1-0.2c0,0,0.1-0.1,0.1,0c0.1-0.1,0-0.1,0-0.2c0,0,0,0,0,0
							l0-0.1c0,0,0.1,0,0.1,0.1c0.1-0.2-0.1-0.3,0-0.4l0,0c0-0.3-0.1,0-0.2-0.2l0.2-0.1l-0.1,0c0,0,0-0.1,0-0.1c-0.1-0.1,0,0-0.1,0
							c0.1-0.1,0-0.4,0.1-0.4c-0.1-0.1-0.1,0.1-0.1,0c0.1,0,0-0.2,0.1-0.3c0.1,0,0,0.2,0.1,0c-0.1-0.1,0-0.2,0-0.3
							c-0.1,0,0-0.2,0-0.4c0,0,0.1-0.3,0.1-0.5l0,0c-0.1,0-0.1-0.2-0.1-0.3c0.1,0,0.1,0,0.1,0.1l0-0.1c0,0,0-0.1-0.1-0.1l0.1,0
							c0-0.2-0.1-0.3,0-0.5c-0.1,0-0.2,0.1-0.2-0.1c0,0,0.1,0,0.1,0c0,0,0-0.1,0-0.1l0.1,0.1c0-0.1-0.1,0,0-0.1c0.1,0,0,0,0.1,0
							c0,0,0,0.1,0,0.1c0-0.1,0.1-0.2,0.1-0.2c0,0-0.1,0-0.1-0.1c0-0.2,0.1,0,0.1-0.1c0,0,0-0.1-0.1-0.1c0,0,0,0,0.1-0.1
							c0-0.1,0-0.4-0.1-0.3l0,0c0,0,0,0,0,0c0,0,0,0,0,0l0,0c-0.1-0.3,0.1-0.5,0.1-0.8l0,0c0-0.2,0-0.3,0-0.4c0,0,0.1-0.1,0.1-0.1
							c0-0.1,0-0.1,0-0.3c0,0.1,0,0,0,0.1c0-0.1,0.1-0.2,0-0.3c0.1,0.1,0.1-0.1,0.1-0.2l-0.1,0.1c0-0.1,0-0.2,0-0.2l0.1,0
							c0.1-0.3-0.2-0.6,0-0.8c-0.1-0.1-0.1,0.2-0.1,0.1c0-0.1,0.2-0.3,0.2-0.3c0.1-0.2-0.1-0.2-0.1-0.4c0,0-0.1,0-0.1-0.1
							c0-0.1,0.1-0.2,0.2-0.1c0,0,0,0,0,0c0,0,0,0.1,0.1,0.1l0,0c0-0.1,0-0.3,0.1-0.2c0-0.1-0.1,0-0.1,0c0.1-0.2,0-0.3,0.1-0.5
							c0,0-0.1,0.1-0.1,0c0.1-0.3-0.1-0.1-0.1-0.3c0.1-0.1,0.1,0,0.1-0.1c0-0.1,0.1,0,0.1,0c-0.1-0.2,0.1-0.3,0.1-0.4l0,0.1
							c0-0.1,0-0.1,0-0.1l-0.1,0c0-0.1,0-0.1,0-0.1c0-0.1-0.1,0-0.2-0.1c0-0.1,0-0.2,0.1-0.2c0,0.2,0.1,0,0.1,0.2c0,0,0-0.1,0-0.1
							c0,0,0,0,0,0c0.1-0.2-0.1-0.1-0.1-0.3c0,0,0.1,0,0.1-0.1c0,0.1-0.1,0-0.1,0c0-0.1,0-0.2,0-0.2l0,0.1c0,0,0-0.1,0-0.2
							c0,0,0,0.1,0,0.1c-0.1-0.1,0.1-0.2,0.1-0.4c0-0.1,0.1,0,0.1-0.1c-0.1-0.2,0.1-0.2,0-0.4c-0.1,0-0.1,0.1-0.1-0.1l0,0.3
							l-0.1-0.2c0,0.1,0,0.2,0,0.2c0-0.1,0-0.1-0.1,0c0.1-0.1,0-0.2,0-0.4l0.2,0c0.1-0.2-0.1-0.4,0-0.6l0,0.1c-0.1,0,0-0.2,0-0.3
							c0.1,0,0.1,0,0.1-0.1c0,0,0-0.2-0.1-0.2l0.1-0.1c0-0.2-0.1-0.3-0.1-0.5c0.1,0.1,0.1,0,0.1,0.1c0-0.1,0-0.1,0-0.1
							c0,0-0.1-0.2,0-0.3c0,0-0.1,0-0.1-0.1c0,0,0,0,0,0c0,0,0-0.1-0.1-0.1c0.2-0.2,0-0.6,0.2-0.8c0-0.2,0-0.3,0-0.5c0,0,0,0,0,0
							c0.1-0.2-0.1-0.1-0.1-0.3c0.1-0.1,0,0.1,0.1,0.1c0.2,0,0-0.3,0.1-0.4l0,0c0.1-0.1-0.1-0.3,0-0.5c0,0,0,0,0,0
							c-0.1-0.1-0.1-0.4-0.1-0.6c0.1,0.1,0,0.1,0.1,0.1c0-0.1-0.1,0-0.1-0.1c0,0,0.1-0.2,0.2-0.2l0,0.2c0.1-0.1,0-0.2,0-0.3l0,0
							c0-0.2-0.1-0.2-0.1-0.5l0,0c-0.1-0.1,0.1-0.1,0-0.2l0.1,0c0-0.1-0.1-0.3-0.1-0.5c0.1,0.1,0.1,0.3,0.1,0.4c0-0.1,0-0.3,0-0.4
							c0,0,0,0.1,0,0.1c-0.1-0.1-0.1-0.3-0.1-0.4c0.2,0,0.1-0.5,0.3-0.6c-0.1-0.3,0.1-0.6,0.1-1c-0.2,0.1,0-0.1-0.2-0.1
							c0-0.1,0-0.1,0-0.1l0.1-0.2c0.1-0.1,0,0.1,0.1,0.1c0-0.2,0.1-0.1,0.1-0.2c-0.1,0-0.1-0.1-0.1-0.2l-0.1,0.1
							c-0.1-0.3,0.2-0.2,0.1-0.5l0,0.1c0-0.1,0-0.5-0.1-0.6c0,0,0.1-0.1,0.1,0c0-0.3-0.1-0.7,0-1l0,0c0-0.1-0.1-0.1,0-0.2
							c0,0,0,0,0,0c0,0-0.1-0.2,0-0.2l0,0.1c0.1-0.3-0.1-0.5-0.1-0.7c0.1,0,0.2-0.2,0.2-0.4l0,0c0-0.4-0.1-0.6-0.1-1
							c0.1-0.2,0.1-0.7,0.2-1c0,0-0.1,0-0.1-0.1c0-0.1-0.1-0.2,0-0.2l0,0c0.1-0.1,0.1-0.2,0.1-0.3l-0.1,0c0.2-0.3,0-0.9,0.2-1
							c0-0.1,0-0.2-0.1-0.3l0.1,0c0-0.2,0.1-0.3,0-0.6l0.1,0.1c0-0.2-0.2-0.2-0.2-0.4l0.1,0c0-0.3,0.1-0.5,0-0.8c0,0,0,0,0.1,0.1
							c0-0.1,0.1-0.5-0.1-0.4c0.1,0,0-0.3,0-0.4l0.1,0c-0.1-0.1-0.1-0.1-0.1-0.3c0,0,0.1,0,0,0c0-0.1-0.1-0.1,0-0.3l0,0.1
							c0-0.1,0-0.1-0.1-0.2c0-0.1,0-0.3,0.1-0.3c0,0-0.1-0.1-0.1-0.2c0,0,0,0,0,0c0.1-0.2-0.1-0.4,0-0.5c0,0,0,0,0,0
							c0,0.2,0,0.3,0,0.3c0.1,0,0.1-0.1,0.2,0c0-0.1-0.1-0.3-0.1-0.5c0,0,0,0,0,0l0,0c0,0,0-0.1,0-0.1c0,0,0-0.1,0-0.1
							c0.1,0,0-0.2,0-0.2c-0.1,0-0.1-0.1-0.1,0c0,0,0,0,0,0.1c0,0,0,0,0,0c0,0,0,0,0,0c0,0,0,0.1,0,0.2c0-0.1-0.1-0.1,0-0.2
							c0,0-0.1-0.1-0.1-0.1c0.1-0.1,0.2-0.3,0.3-0.3c0-0.2,0-0.5-0.1-0.7c0-0.1,0-0.1,0.1-0.1c0,0,0,0.1,0,0.1c0-0.1,0-0.4-0.1-0.4
							c0.1-0.2,0.1,0.1,0.1-0.1l0,0c0.2-0.4-0.2-0.7,0-1.2c0,0,0,0,0,0.1c0.1-0.5,0-1.2,0.2-1.7c0-0.2,0-0.2-0.1-0.3l0.1,0l-0.1-0.2
							c-0.1-0.2,0.2-0.4,0.1-0.7l-0.1,0c0-0.1,0-0.3,0.1-0.3c0,0-0.1,0,0-0.1l0,0l-0.1-0.3c0-0.2,0.2,0,0.2-0.2
							c0-0.1-0.1-0.3-0.1-0.3c0,0,0,0.1-0.1,0.1l0-0.1c-0.1,0-0.3-0.1-0.4,0.1l0.1,0.2l-0.1,0.1l0-0.1c-0.1,0.1,0,0.1,0,0.2
							c0,0-0.1,0-0.1,0.1l0.1,0.2c-0.1,0-0.1-0.1-0.1,0c0.1,0.1,0.1-0.1,0.1,0.1c-0.1,0.1-0.1,0.1-0.1,0.1c0,0-0.1,0-0.1,0
							c0,0.1,0,0.2,0.1,0.3c-0.1,0.1,0,0.3-0.1,0.3c0,0,0.1,0.2,0.1,0.2c-0.1-0.2,0,0.3-0.2,0.2c0.1,0.1,0,0.4,0.1,0.6c0,0,0,0,0,0
							c0,0.1-0.1,0.1-0.1,0.2c0.1,0,0.1,0.2,0.2,0.3c-0.1,0.1-0.1-0.1-0.2-0.1c0.1,0,0.1,0.2,0.1,0.2c-0.1,0.1,0,0.1-0.1,0.1
							c0.1,0,0,0.1,0.1,0.2C50.6,17.7,50.5,17.6,50.5,17.7C50.5,17.8,50.5,17.7,50.5,17.7z M50.5,21.4
							C50.5,21.4,50.5,21.4,50.5,21.4C50.5,21.4,50.5,21.3,50.5,21.4C50.5,21.3,50.5,21.4,50.5,21.4z M50.5,21.7c0,0,0-0.1,0-0.1
							C50.5,21.6,50.5,21.6,50.5,21.7C50.5,21.6,50.5,21.7,50.5,21.7z M51,21.1C51,21.1,51,21.2,51,21.1C51,21.1,51,21.1,51,21.1
							C51,21.1,51,21.1,51,21.1C51,21.1,51,21.1,51,21.1z"/>
						<path fill="#808181" d="M50.9,21C50.9,21,50.9,21,50.9,21C50.9,21,50.9,21,50.9,21C50.9,21,50.9,21,50.9,21
							C50.9,21,50.9,21,50.9,21z"/>
						<path fill="#808181" d="M49,49.3L49,49.3C49,49.3,49,49.3,49,49.3C49,49.3,49,49.3,49,49.3z"/>
						<polygon fill="#808181" points="50,26 50.1,26 50,26 						"/>
						<path fill="#808181" d="M48.7,51C48.7,51,48.6,51,48.7,51C48.6,51,48.7,51,48.7,51z"/>
						<path fill="#808181" d="M48.6,51.7l0,0.1C48.6,51.8,48.6,51.8,48.6,51.7z"/>
						<path fill="#808181" d="M48.5,52.3C48.5,52.3,48.5,52.3,48.5,52.3C48.6,52.3,48.6,52.3,48.5,52.3L48.5,52.3z"/>
						<path fill="#808181" d="M49,43.2C49,43.2,49,43.2,49,43.2C49,43.1,49,43.2,49,43.2z"/>
						<path fill="#808181" d="M49,45.9C49,45.9,49,45.9,49,45.9C49,45.9,49,45.9,49,45.9z"/>
						<path fill="#808181" d="M49.1,40.2C49.1,40.2,49.1,40.2,49.1,40.2C49.1,40.2,49.1,40.2,49.1,40.2L49.1,40.2z"/>
						<path fill="#808181" d="M49,45.7c0,0,0,0.1,0,0.1C49,45.8,49,45.8,49,45.7z"/>
						<path fill="#808181" d="M48.3,54.8L48.3,54.8C48.3,54.8,48.3,54.8,48.3,54.8L48.3,54.8z"/>
						<path fill="#808181" d="M48.3,54.8L48.3,54.8C48.3,54.8,48.3,54.8,48.3,54.8z"/>
						<path fill="#808181" d="M48.4,54.9L48.4,54.9C48.3,54.9,48.3,54.9,48.4,54.9z"/>
						<path fill="#808181" d="M48.4,54L48.4,54C48.4,54,48.4,54,48.4,54z"/>
						<path fill="#808181" d="M48.4,53.8c0,0.1-0.1,0.1-0.1,0.2l0,0C48.3,54,48.5,53.9,48.4,53.8z"/>
						<path fill="#808181" d="M48.8,52.9l0,0.2c0,0,0.1-0.1,0.1,0C49,52.8,48.8,53.1,48.8,52.9z"/>
						<path fill="#808181" d="M48.9,52.3C48.9,52.4,49,52.3,48.9,52.3C48.9,52.2,48.9,52.2,48.9,52.3z"/>
						<path fill="#808181" d="M49.2,48L49.2,48C49.2,47.9,49.2,48,49.2,48z"/>
						<polygon fill="#808181" points="48.9,47.1 48.8,47.2 48.9,47.2 						"/>
						<polygon fill="#808181" points="49.4,46.7 49.4,46.7 49.4,46.6 						"/>
						<path fill="#808181" d="M49.8,39.4L49.8,39.4C49.8,39.5,49.9,39.5,49.8,39.4z"/>
						<path fill="#808181" d="M49.9,36.3c0,0,0.1-0.1,0-0.2C50,36.2,49.9,36.2,49.9,36.3z"/>
						<polygon fill="#808181" points="50.7,26.9 50.7,27 50.7,26.8 						"/>
					</g>
				</g>
			</g>
		</g>
	</g>
	<g>
		<g>
			<g>
				<g>
					<g>
						<path fill="#808181" d="M53,56.8C53,56.8,53,56.8,53,56.8L53,56.8L53,56.8z"/>
						<path fill="#808181" d="M53.2,56.4c0-0.1-0.1-0.2-0.2-0.2C53.1,56.4,53.1,56.4,53.2,56.4c-0.1,0.1-0.1,0.1-0.2,0.1
							c0,0,0,0.1,0,0.1C53.2,56.6,53.2,56.5,53.2,56.4C53.2,56.4,53.2,56.4,53.2,56.4z"/>
						<path fill="#808181" d="M55.1,51L55.1,51C55.1,51.1,55.1,51,55.1,51z"/>
						<path fill="#808181" d="M56.2,47.7C56.2,47.7,56.2,47.7,56.2,47.7C56.2,47.7,56.2,47.7,56.2,47.7z"/>
						<path fill="#808181" d="M56.5,47.1C56.4,47.1,56.4,47.1,56.5,47.1C56.5,47.1,56.5,47.1,56.5,47.1z"/>
						<path fill="#808181" d="M55.1,51L55.1,51C55.1,50.9,55.1,51,55.1,51z"/>
						<path fill="#808181" d="M53.3,55.6C53.3,55.6,53.3,55.7,53.3,55.6C53.3,55.7,53.3,55.6,53.3,55.6
							C53.3,55.6,53.3,55.6,53.3,55.6z"/>
						<path fill="#808181" d="M54.7,52.5L54.7,52.5C54.7,52.6,54.7,52.6,54.7,52.5L54.7,52.5z"/>
						<path fill="#808181" d="M54.3,53.7C54.3,53.7,54.3,53.6,54.3,53.7C54.3,53.6,54.3,53.7,54.3,53.7
							C54.3,53.7,54.3,53.7,54.3,53.7z"/>
						<path fill="#808181" d="M53.6,55.5L53.6,55.5C53.6,55.5,53.6,55.5,53.6,55.5z"/>
						<path fill="#808181" d="M55,51.7C55,51.7,55,51.7,55,51.7C55,51.7,55,51.7,55,51.7z"/>
						<path fill="#808181" d="M64.4,19.6C64.4,19.6,64.4,19.6,64.4,19.6C64.4,19.6,64.4,19.6,64.4,19.6z"/>
						<path fill="#808181" d="M65.2,18.4L65.2,18.4C65.2,18.4,65.2,18.4,65.2,18.4L65.2,18.4z"/>
						<path fill="#808181" d="M56.9,46.1C56.9,46.1,56.9,46.1,56.9,46.1C56.9,46.1,56.9,46.1,56.9,46.1z"/>
						<path fill="#808181" d="M59.9,36.4c-0.1,0.1,0-0.2-0.2-0.1C59.7,36.3,59.8,36.5,59.9,36.4z"/>
						<path fill="#808181" d="M53.3,55.6C53.3,55.6,53.3,55.6,53.3,55.6C53.3,55.6,53.3,55.6,53.3,55.6z"/>
						<path fill="#808181" d="M59.7,36.3C59.7,36.3,59.7,36.3,59.7,36.3L59.7,36.3C59.7,36.3,59.7,36.3,59.7,36.3z"/>
						<path fill="#808181" d="M57.6,43.6C57.6,43.6,57.6,43.7,57.6,43.6C57.6,43.7,57.6,43.7,57.6,43.6z"/>
						<path fill="#808181" d="M56.9,45.4L56.9,45.4C56.9,45.4,56.9,45.4,56.9,45.4z"/>
						<path fill="#808181" d="M57.8,42.7C57.8,42.6,57.8,42.6,57.8,42.7C57.8,42.6,57.8,42.6,57.8,42.7
							C57.8,42.6,57.8,42.6,57.8,42.7z"/>
						<path fill="#808181" d="M58.1,41.7C58.1,41.7,58.1,41.7,58.1,41.7C58.1,41.7,58.1,41.7,58.1,41.7L58.1,41.7z"/>
						<path fill="#808181" d="M63.5,22.6C63.5,22.6,63.5,22.5,63.5,22.6C63.5,22.5,63.5,22.4,63.5,22.6z"/>
						<path fill="#808181" d="M53.3,55.6C53.3,55.6,53.3,55.6,53.3,55.6C53.3,55.6,53.3,55.6,53.3,55.6
							C53.3,55.6,53.3,55.6,53.3,55.6z"/>
						<path fill="#808181" d="M57.2,42.4l0.1-0.2C57.3,42.3,57.2,42.4,57.2,42.4z"/>
						<path fill="#808181" d="M61.3,29.6L61.3,29.6C61.3,29.6,61.3,29.6,61.3,29.6z"/>
						<path fill="#808181" d="M57.4,41.8C57.4,41.8,57.5,41.8,57.4,41.8C57.5,41.8,57.5,41.7,57.4,41.8L57.4,41.8z"/>
						<path fill="#808181" d="M63.6,22.5C63.6,22.5,63.6,22.5,63.6,22.5C63.6,22.5,63.6,22.5,63.6,22.5z"/>
						<path fill="#808181" d="M63.7,21.5c0,0.1,0.1,0.1,0.1,0.1c0,0.2-0.1,0.1-0.2,0.1c0,0.1,0.1,0.2,0,0.3c0,0,0,0,0,0
							c0,0.1-0.1,0.3-0.1,0.5c0,0,0,0,0,0c0.1,0,0.1,0,0.1,0c0,0.1,0,0.1,0,0.1c0,0,0-0.1,0-0.1l0,0.1c-0.1,0,0-0.1-0.1-0.1
							c0,0.1,0,0.3,0,0.4c-0.1,0,0-0.3-0.1-0.1l0.1-0.2c-0.2,0.1,0-0.1-0.1,0c-0.1,0.2,0,0.3-0.1,0.5c0,0.1,0.1,0,0.1,0.1
							c0,0.3-0.3,0.2-0.2,0.4c0,0.1,0.1,0.1,0,0.3l-0.1-0.1c-0.1,0.2,0.1,0.2,0,0.4c0-0.1,0-0.2,0-0.1c-0.1,0.1,0,0.1,0,0.2l-0.1,0
							c-0.1,0.2-0.1,0.5-0.1,0.7c0,0,0-0.1-0.1,0c-0.1,0.3-0.2,0.6-0.4,0.9l0,0.1c0,0-0.1,0-0.1,0c-0.1,0.1,0,0,0.1,0.1
							c0,0.1-0.1,0.1-0.1,0c0,0.2,0,0.6-0.2,0.8l0,0c-0.1,0.2,0.1,0.2,0,0.4l0,0c-0.1,0.3-0.2,0.8-0.4,1c0.1,0.1-0.2,0.3,0,0.4
							c-0.1,0.2-0.2,0.1-0.3,0.4c0,0.1,0.1,0.1,0,0.2l-0.1,0l0,0.2l-0.1,0l0,0.1c0,0,0.1-0.1,0.1-0.1c0,0.2-0.2,0.3-0.2,0.3l0,0.4
							c0,0,0-0.1,0-0.1c0,0.2-0.1,0-0.1,0.2c0,0,0,0,0.1,0C61,30.3,61,30.5,61,30.7l0,0c-0.1,0.2-0.1,0.5-0.2,0.8
							c0.1-0.1,0.1,0,0.1,0l-0.1,0c0,0.1,0.1-0.1,0.1,0.1c0,0.1-0.1,0-0.1,0l0,0.1c0,0,0,0-0.1-0.1c0,0.1-0.2,0.2-0.1,0.3l0,0
							c-0.1,0.3-0.1,0.4-0.2,0.6c0.1,0,0,0.1,0.1,0.2c-0.1,0.2-0.2,0.3-0.2,0.5c0,0.2,0,0.1,0.1,0.1c-0.1,0-0.1,0.2-0.1,0.1
							C60,33.7,60,33.7,60,34.1c0,0,0.1-0.1,0.1,0c0,0.1-0.1,0.1-0.1,0.1l0,0c0,0.4-0.4,0.7-0.4,1l0,0l0,0.3c-0.1,0.1,0-0.1-0.1,0
							c0,0.3-0.2,0.5-0.2,0.7c-0.3,0.1-0.2,0.7-0.4,0.9l0.1,0c0,0.1-0.1,0.1-0.1,0.1c0,0,0.1-0.1,0.1,0c-0.1,0.6-0.4,1.2-0.7,1.7
							c-0.1,0.2,0.2,0.2,0,0.4l-0.1-0.1c0,0.5-0.3,0.9-0.3,1.3c0,0,0,0,0-0.1c-0.1,0.1-0.1,0.3-0.1,0.3c0,0.1-0.1,0-0.1,0
							c-0.1,0.1,0,0.2-0.1,0.3c0,0,0,0,0,0c0,0.1-0.1,0.3,0,0.2c-0.1,0.1-0.1,0.3-0.1,0.4c0.1,0.1-0.1,0.3,0,0.3
							c-0.1,0-0.2,0.2-0.2,0.4c0,0-0.1,0.1-0.1,0c0,0.1,0,0.2,0,0.2c-0.2,0.2,0,0.5-0.2,0.5c0,0.4-0.1,0.7-0.2,1
							c-0.1,0,0.1-0.3,0-0.4c0,0.3,0,0.5-0.1,0.8c0,0.1,0-0.1-0.1-0.1c0,0.3-0.2,0.6-0.2,0.8c0,0,0,0,0-0.1c0,0.1-0.1,0.1,0,0.1
							l0-0.1c0.1-0.1,0.1,0.3,0.1,0.3c-0.1-0.1-0.1,0.2-0.3,0c0,0,0,0.1,0.1,0.1c0,0-0.1,0.1-0.1,0c0,0.2,0.1,0.1,0,0.3
							c0,0,0,0-0.1-0.1c0,0.1,0,0.2,0,0.3c0,0,0,0,0,0c-0.1,0.2,0,0.4-0.1,0.7c-0.1-0.1-0.1,0.1-0.2,0.1l0,0.2l0.1,0
							c0,0.1,0,0.3-0.1,0.4l0-0.1l-0.1,0.2l0.1-0.1c0,0.1,0.1,0,0,0.2c0,0,0,0.1-0.1,0.2c0,0,0,0,0,0c0,0.1,0,0.1,0,0.2
							c0,0-0.1-0.1-0.1,0c0.1,0.1-0.1,0.3,0,0.4c0,0-0.1,0-0.1,0l0.1,0.1c0,0.1-0.1,0.1-0.1,0c-0.1,0.2,0.1,0,0,0.2c0,0,0,0,0,0
							c-0.1,0.2-0.1,0.4-0.2,0.6c-0.1,0,0-0.2-0.1-0.1c-0.1,0.3-0.1,0.6-0.2,0.9l0,0c0.1,0.1-0.1,0.2-0.1,0.3c0,0-0.1-0.1-0.1-0.1
							c-0.1,0.2-0.1,0.4-0.1,0.7l0,0c-0.1,0.1-0.1,0.3-0.2,0.4c0,0,0,0.1,0.1,0.1c-0.3,0.3-0.1,0.7-0.4,1c0,0,0-0.1,0-0.1l-0.1,0.3
							c0.1,0,0,0,0.1-0.1c0,0,0,0.1,0,0.2c0-0.1-0.1,0-0.1,0c0,0,0,0,0.1,0c-0.2,0.1,0.1,0.1,0,0.2l0,0c0,0.1,0,0.2,0,0.2
							c-0.1,0,0-0.1-0.1-0.1c0,0.1,0.1,0.3,0,0.3c0-0.1,0-0.1,0-0.2c-0.1,0.1-0.1,0.1-0.1,0.2l0,0L54,53.4l0,0
							c0.1,0.2-0.1,0.3,0,0.5c-0.1-0.2-0.1,0-0.1-0.1c0,0-0.1,0.1-0.1,0.1c0,0.1-0.1,0.1,0,0.3c0,0,0,0.1-0.1,0.1c0,0.1,0.1,0,0.1,0
							c0,0.2-0.2,0.4-0.2,0.7c0,0.2,0.1,0.3,0,0.5c-0.1,0.1-0.1-0.1-0.1-0.1c-0.1,0.1-0.1,0.2-0.1,0.3c0,0,0,0-0.1,0
							c0,0.1,0.1,0.1,0,0.2c0,0-0.1-0.1-0.1-0.1c0,0.1,0,0.2,0,0.3c-0.1,0,0-0.1-0.1-0.1c0,0.1-0.1,0.3,0,0.4l0-0.1c0,0-0.1,0-0.1,0
							c0-0.1,0.1-0.1,0.1-0.1l0,0.1c0.2,0,0.1-0.3,0.1-0.4l0.1,0.1l0-0.2c0,0,0.1,0,0.1,0.1c0.1-0.1,0-0.1,0.1-0.2c0,0,0,0,0,0
							l0-0.1c0,0,0.1,0,0,0.1c0.1-0.2,0-0.3,0.1-0.4l0,0c0-0.3-0.1,0-0.1-0.3l0.2-0.1l-0.1,0c0,0,0-0.1,0.1-0.1c0-0.1,0,0-0.1-0.1
							c0.1-0.1,0.1-0.4,0.2-0.3c0-0.1-0.1,0.1-0.1,0c0.1,0,0-0.2,0.1-0.3c0.1,0.1,0,0.2,0.1,0.1c-0.1-0.1,0.1-0.2,0.1-0.3
							c-0.1,0,0-0.2,0-0.4c0,0,0.1-0.3,0.2-0.4l0,0c-0.1-0.1,0-0.2,0-0.3c0.1,0,0.1,0,0.1,0.1l0-0.1c0,0,0-0.1,0-0.1l0.1,0
							c0-0.1,0-0.3,0.1-0.5c-0.1,0-0.2,0.1-0.2-0.1c0,0,0.1,0,0.1,0.1c0,0,0-0.1,0-0.1l0,0.1c0.1-0.1,0-0.1,0-0.1c0.1,0,0.1,0,0.1,0
							c0,0,0,0.1,0,0.1c0-0.1,0.1-0.2,0.1-0.2c0,0-0.1,0-0.1-0.1c0-0.1,0.1,0,0.1-0.1c0,0,0-0.1,0-0.1c0,0,0.1,0,0.1,0
							c0-0.1,0.1-0.3,0-0.3l0,0c0,0,0,0,0,0c0,0,0,0,0,0l0,0c0-0.3,0.2-0.5,0.2-0.7l0,0c0-0.1,0.1-0.3,0.1-0.4c0,0,0.1-0.1,0.1-0.1
							c0-0.1,0-0.1,0.1-0.3c0,0.1,0.1,0,0,0.1c0.1-0.1,0.1-0.2,0.1-0.3c0.1,0.1,0.1-0.1,0.1-0.2l-0.1,0.1c0-0.1,0-0.1,0.1-0.2
							l0.1,0.1c0.2-0.3,0-0.6,0.2-0.7c0-0.1-0.1,0.1-0.1,0.1c0.1-0.1,0.2-0.2,0.2-0.3c0.1-0.2-0.1-0.2,0-0.4c0,0-0.1,0-0.1-0.1
							c0.1-0.1,0.2-0.1,0.2,0c0,0,0,0,0,0c0,0,0,0.1,0,0.1l0,0c0.1-0.1,0.1-0.2,0.1-0.2c0-0.1,0-0.1-0.1,0c0.1-0.2,0.1-0.3,0.2-0.4
							c0,0-0.1,0-0.1,0c0.1-0.2,0-0.1,0-0.3c0.1-0.1,0.1,0.1,0.1-0.1c0.1-0.1,0.1,0,0.1,0.1c0-0.2,0.1-0.3,0.2-0.4l0,0.1
							c0-0.1,0-0.1,0-0.1l-0.1,0c0,0,0-0.1,0.1-0.1c0-0.1-0.1,0-0.1-0.1c0.1-0.1,0-0.2,0.1-0.2c-0.1,0.2,0.1,0,0,0.2
							c0,0,0-0.1,0-0.1c0,0,0,0,0,0c0.1-0.2-0.1-0.1,0-0.3c0,0,0.1,0,0.1-0.1c0,0.1-0.1,0-0.1-0.1c0.1-0.1,0-0.2,0-0.2l0,0.1
							c0,0,0-0.1,0-0.2c0,0,0,0.1,0,0.1c-0.1-0.1,0.2-0.2,0.1-0.4c0.1-0.1,0.1,0,0.1,0c0-0.2,0.1-0.2,0.1-0.3c-0.1,0-0.1,0-0.1-0.1
							l0,0.3l0-0.2c0,0.1,0,0.2,0,0.2c0-0.1,0-0.1-0.1-0.1c0.1-0.1,0-0.2,0.1-0.4l0.2,0.1c0.1-0.2,0-0.4,0.1-0.6L57.4,44
							c-0.1-0.1,0-0.2,0-0.2c0,0,0.1,0,0.1,0c0,0,0.1-0.2,0-0.2l0.1-0.1c0.1-0.2-0.1-0.3,0-0.5c0,0.1,0.1,0,0.1,0.1
							c0-0.1,0-0.1,0-0.1c0,0,0-0.2,0.1-0.2c0,0-0.1-0.1,0-0.1c0,0,0,0,0,0c0,0,0-0.1-0.1-0.1c0.2-0.2,0.2-0.6,0.4-0.7
							c0-0.1,0.1-0.3,0.1-0.5c0,0,0,0,0,0c0.1-0.2-0.1-0.2,0-0.3c0.1-0.1,0,0.1,0.1,0.1c0.2,0,0.1-0.3,0.2-0.4l0,0
							c0.1-0.1,0-0.3,0.1-0.4c0,0,0,0,0,0c-0.1-0.1,0-0.4,0-0.6c0.1,0.1,0,0.1,0.1,0.1c0-0.1-0.1,0-0.1-0.2c0.1,0,0.1-0.1,0.2-0.1
							l0,0.1c0.1,0,0.1-0.2,0.1-0.3l0,0c0.1-0.2,0-0.3,0-0.5l0,0c-0.1-0.2,0.1-0.1,0.1-0.2l0.1,0c0-0.1,0-0.3,0-0.5
							c0.1,0.1,0,0.3,0,0.4c0-0.1,0.1-0.3,0-0.3c0,0,0,0.1,0,0.1c-0.1-0.1,0-0.3,0-0.4c0.2,0.1,0.2-0.4,0.4-0.5
							c0-0.3,0.2-0.6,0.3-0.9c-0.2,0.1,0-0.1-0.1-0.1c0-0.1,0-0.1,0-0.1l0.2-0.2c0.1,0,0,0.1,0.1,0.1C60,36,60,36.1,60.1,36
							c-0.1,0-0.1-0.1,0-0.2L60,36c0-0.3,0.2-0.2,0.2-0.4l0,0.1c0-0.1,0.1-0.5,0.1-0.6c0,0,0.1,0,0.1,0c0.1-0.3,0.1-0.7,0.2-0.9l0,0
							c0-0.1,0-0.1,0-0.2c0,0,0,0,0,0c0,0,0-0.2,0-0.2l0,0.1c0.1-0.3,0-0.5,0.1-0.7c0.1,0,0.2-0.2,0.3-0.3l0,0
							c0.1-0.3,0.1-0.6,0.1-0.9c0.2-0.2,0.3-0.6,0.4-0.9c0,0-0.1,0-0.1-0.1c0-0.1,0-0.2,0.1-0.2l0,0c0.1,0,0.1-0.2,0.2-0.3l-0.1-0.1
							c0.3-0.2,0.2-0.8,0.4-0.9c0-0.1,0-0.2,0-0.3l0.1,0c0.1-0.2,0.1-0.3,0.2-0.6l0,0.1c0-0.1-0.2-0.2-0.1-0.4l0.1,0
							c0.1-0.3,0.3-0.5,0.2-0.8c0,0,0,0,0,0.1c0-0.1,0.2-0.4,0.1-0.4c0.1,0,0.1-0.3,0.1-0.4l0.1,0c-0.1-0.1-0.1-0.2-0.1-0.3
							c0,0,0.1,0,0,0c0.1-0.1,0-0.1,0-0.3l0,0.1c0-0.1,0-0.1,0-0.2c0-0.1,0.1-0.2,0.2-0.2c0,0-0.1-0.1,0-0.2c0,0,0,0,0,0
							c0.1-0.2,0-0.3,0.1-0.5c0,0,0,0,0.1,0c-0.1,0.2-0.1,0.3-0.1,0.3c0.1,0,0.1-0.1,0.2,0c0-0.1-0.1-0.4,0-0.5c0,0,0,0,0,0l0,0
							c0,0,0-0.1,0-0.1c0,0,0-0.1,0.1-0.1c0.1,0,0.1-0.1,0.1-0.2c-0.1,0,0-0.1-0.1,0c0,0,0,0,0,0.1c0,0,0,0,0,0c0,0,0,0,0,0
							c0,0,0,0.1,0,0.2c0-0.1,0-0.1,0-0.2c0-0.1-0.1-0.1-0.1-0.1c0.1-0.1,0.2-0.2,0.3-0.2c0-0.2,0.1-0.5,0-0.7
							c0-0.1,0.1-0.1,0.1-0.1c0,0,0,0.1,0,0.1c0-0.1,0.1-0.4,0-0.4c0.1-0.1,0.1,0.1,0.1-0.1l0,0c0.3-0.4,0-0.7,0.3-1.1
							c0,0,0,0-0.1,0c0.2-0.5,0.3-1.1,0.5-1.6c0.1-0.1,0-0.2,0-0.3l0.1,0l0-0.2c0-0.2,0.3-0.3,0.3-0.6l-0.1,0c0-0.1,0.1-0.3,0.1-0.3
							c0,0,0,0,0-0.1l0,0l0-0.3c0.1-0.2,0.2,0.1,0.2-0.2c0-0.1,0-0.3-0.1-0.3c0,0-0.1,0.1-0.1,0.1l0-0.1c-0.1-0.1-0.2-0.2-0.4,0
							l0,0.2l-0.1,0l0-0.1c-0.1,0.1,0,0.1,0,0.2c0,0-0.1,0-0.1,0l0.1,0.2c-0.1,0-0.1-0.1-0.1,0c0,0.1,0.1,0,0.1,0.1
							c-0.1,0.1-0.1,0-0.1,0.1c0,0,0,0-0.1-0.1c0,0.1,0,0.2,0,0.3c-0.1,0.1-0.1,0.3-0.2,0.2c0,0,0,0.2,0,0.2
							c-0.1-0.2-0.1,0.3-0.2,0.2c0.1,0.1-0.1,0.4,0,0.6c0,0,0,0,0-0.1c0,0.1-0.1,0.1-0.1,0.2c0.1,0,0.1,0.2,0.1,0.3
							c-0.1,0.1-0.1-0.1-0.2-0.1c0.1,0,0,0.2,0.1,0.2c-0.1,0.1-0.1,0.1-0.2,0.1c0.1,0.1,0,0.1,0.1,0.2
							C63.8,21.5,63.8,21.4,63.7,21.5C63.7,21.6,63.7,21.5,63.7,21.5z M62.9,25C62.9,25,62.9,25,62.9,25C62.9,25,62.9,24.9,62.9,25
							C62.9,24.9,62.9,25,62.9,25z M62.8,25.3c0,0,0-0.1,0-0.1C62.8,25.2,62.9,25.2,62.8,25.3C62.8,25.2,62.8,25.2,62.8,25.3z
							 M63.5,24.8C63.5,24.9,63.4,24.9,63.5,24.8C63.4,24.9,63.4,24.8,63.5,24.8C63.4,24.8,63.4,24.8,63.5,24.8
							C63.5,24.8,63.5,24.8,63.5,24.8z"/>
						<path fill="#808181" d="M63.4,24.7C63.4,24.7,63.4,24.7,63.4,24.7C63.4,24.7,63.4,24.7,63.4,24.7
							C63.4,24.7,63.4,24.7,63.4,24.7C63.4,24.7,63.4,24.7,63.4,24.7z"/>
						<path fill="#808181" d="M55.1,51.1L55.1,51.1C55.1,51.1,55,51.1,55.1,51.1C55,51.1,55,51.1,55.1,51.1z"/>
						<polygon fill="#808181" points="61.4,29.3 61.4,29.3 61.4,29.2 						"/>
						<path fill="#808181" d="M54.3,52.6C54.3,52.6,54.3,52.6,54.3,52.6C54.3,52.6,54.3,52.6,54.3,52.6z"/>
						<path fill="#808181" d="M54.1,53.3L54.1,53.3C54,53.3,54.1,53.3,54.1,53.3z"/>
						<path fill="#808181" d="M53.9,53.8C53.9,53.8,53.9,53.8,53.9,53.8C53.9,53.8,53.9,53.8,53.9,53.8L53.9,53.8z"/>
						<path fill="#808181" d="M56.4,45.3C56.4,45.3,56.4,45.3,56.4,45.3C56.4,45.2,56.4,45.3,56.4,45.3z"/>
						<path fill="#808181" d="M55.8,47.9C55.8,47.8,55.8,47.8,55.8,47.9C55.8,47.8,55.8,47.9,55.8,47.9z"/>
						<path fill="#808181" d="M57.2,42.5C57.2,42.5,57.2,42.5,57.2,42.5C57.2,42.5,57.2,42.5,57.2,42.5L57.2,42.5z"/>
						<path fill="#808181" d="M55.8,47.7c0,0,0,0.1,0,0.1C55.8,47.8,55.8,47.7,55.8,47.7z"/>
						<path fill="#808181" d="M53.1,56.1L53.1,56.1C53.1,56.1,53.1,56.1,53.1,56.1L53.1,56.1z"/>
						<path fill="#808181" d="M53.1,56.1L53.1,56.1C53.1,56.1,53.1,56.1,53.1,56.1z"/>
						<path fill="#808181" d="M53.1,56.2L53.1,56.2C53.1,56.2,53.1,56.2,53.1,56.2z"/>
						<path fill="#808181" d="M53.4,55.4L53.4,55.4C53.3,55.4,53.3,55.4,53.4,55.4z"/>
						<path fill="#808181" d="M53.4,55.2c0,0-0.1,0.1-0.1,0.2l0,0C53.3,55.3,53.5,55.2,53.4,55.2z"/>
						<path fill="#808181" d="M54,54.4L54,54.6c0,0,0.1-0.1,0.1,0C54.2,54.4,53.9,54.6,54,54.4z"/>
						<path fill="#808181" d="M54.2,53.8C54.2,53.9,54.3,53.9,54.2,53.8C54.3,53.8,54.3,53.8,54.2,53.8z"/>
						<path fill="#808181" d="M55.5,49.8L55.5,49.8C55.6,49.8,55.5,49.8,55.5,49.8z"/>
						<polygon fill="#808181" points="55.4,49 55.3,49 55.4,49.1 						"/>
						<polygon fill="#808181" points="56,48.6 56,48.7 56,48.5 						"/>
						<path fill="#808181" d="M58.1,41.9L58.1,41.9C58,41.9,58.1,42,58.1,41.9z"/>
						<path fill="#808181" d="M58.9,38.9c0.1,0,0.1-0.1,0.1-0.2C59,38.9,58.9,38.9,58.9,38.9z"/>
						<polygon fill="#808181" points="61.8,30.2 61.8,30.3 61.8,30.2 						"/>
					</g>
				</g>
			</g>
		</g>
	</g>
	<g>
		<g>
			<g>
				<g>
					<g>
						<path fill="#808181" d="M55.5,60C55.5,60,55.5,60,55.5,60L55.5,60L55.5,60z"/>
						<path fill="#808181" d="M55.8,59.7c0-0.1,0-0.2-0.1-0.2C55.7,59.6,55.7,59.6,55.8,59.7c-0.1,0.1-0.1,0.1-0.2,0.1
							c0,0-0.1,0.1,0,0.1C55.7,59.9,55.7,59.8,55.8,59.7C55.8,59.7,55.8,59.7,55.8,59.7z"/>
						<path fill="#808181" d="M58.4,54.9L58.4,54.9C58.4,54.9,58.4,54.9,58.4,54.9z"/>
						<path fill="#808181" d="M60,51.9C60,51.9,60,51.9,60,51.9C60,51.9,60,51.9,60,51.9z"/>
						<path fill="#808181" d="M60.3,51.4C60.3,51.4,60.3,51.4,60.3,51.4C60.3,51.4,60.3,51.4,60.3,51.4z"/>
						<path fill="#808181" d="M58.4,54.9L58.4,54.9C58.4,54.8,58.4,54.8,58.4,54.9z"/>
						<path fill="#808181" d="M55.9,58.9C55.9,58.9,55.9,59,55.9,58.9C55.9,59,55.9,58.9,55.9,58.9C55.9,58.9,55.9,58.9,55.9,58.9z"
							/>
						<path fill="#808181" d="M57.8,56.2L57.8,56.2C57.8,56.3,57.8,56.3,57.8,56.2L57.8,56.2z"/>
						<path fill="#808181" d="M57.3,57.3C57.3,57.2,57.2,57.2,57.3,57.3C57.2,57.2,57.2,57.2,57.3,57.3
							C57.2,57.3,57.3,57.3,57.3,57.3z"/>
						<path fill="#808181" d="M56.3,58.8L56.3,58.8C56.3,58.9,56.3,58.8,56.3,58.8z"/>
						<path fill="#808181" d="M58.2,55.5C58.2,55.5,58.2,55.5,58.2,55.5C58.2,55.5,58.2,55.5,58.2,55.5z"/>
						<path fill="#808181" d="M72.2,26.6C72.2,26.6,72.2,26.6,72.2,26.6C72.2,26.6,72.2,26.6,72.2,26.6z"/>
						<path fill="#808181" d="M73.2,25.6L73.2,25.6C73.2,25.6,73.2,25.6,73.2,25.6L73.2,25.6z"/>
						<path fill="#808181" d="M60.9,50.5C60.9,50.5,60.9,50.5,60.9,50.5C60.9,50.5,60.9,50.5,60.9,50.5z"/>
						<path fill="#808181" d="M65.3,41.8c-0.1,0.1,0-0.2-0.1-0.1C65.2,41.7,65.2,41.9,65.3,41.8z"/>
						<path fill="#808181" d="M56,58.9C56,58.9,56,58.9,56,58.9C56,58.9,56,58.9,56,58.9z"/>
						<path fill="#808181" d="M65.1,41.7C65.1,41.7,65.1,41.7,65.1,41.7L65.1,41.7C65.1,41.7,65.1,41.7,65.1,41.7z"/>
						<path fill="#808181" d="M62,48.3C62,48.3,61.9,48.3,62,48.3C61.9,48.3,61.9,48.3,62,48.3z"/>
						<path fill="#808181" d="M61,49.9L61,49.9C61.1,49.8,61,49.8,61,49.9z"/>
						<path fill="#808181" d="M62.3,47.4C62.3,47.4,62.3,47.4,62.3,47.4C62.3,47.3,62.3,47.3,62.3,47.4
							C62.3,47.4,62.3,47.4,62.3,47.4z"/>
						<path fill="#808181" d="M62.7,46.5C62.7,46.5,62.7,46.5,62.7,46.5C62.7,46.5,62.7,46.5,62.7,46.5L62.7,46.5z"/>
						<path fill="#808181" d="M70.9,29.3C70.9,29.2,70.9,29.2,70.9,29.3C70.9,29.2,71,29.1,70.9,29.3z"/>
						<path fill="#808181" d="M56,58.9C56,58.9,56,58.9,56,58.9C56,58.9,55.9,58.9,56,58.9C56,58.9,56,58.9,56,58.9z"/>
						<path fill="#808181" d="M61.8,47.1l0.1-0.1C61.8,47,61.8,47,61.8,47.1z"/>
						<path fill="#808181" d="M67.7,35.6L67.7,35.6C67.7,35.5,67.7,35.6,67.7,35.6z"/>
						<path fill="#808181" d="M62.1,46.5C62.1,46.5,62.1,46.5,62.1,46.5C62.1,46.5,62.1,46.5,62.1,46.5L62.1,46.5z"/>
						<path fill="#808181" d="M71,29.2C71,29.2,71,29.2,71,29.2C71,29.2,71,29.2,71,29.2z"/>
						<path fill="#808181" d="M71.3,28.2c-0.1,0.1,0.1,0.1,0.1,0.2c-0.1,0.2-0.1,0-0.2,0.1c0,0.1,0,0.2,0,0.3c0,0,0,0,0,0
							c0,0.1-0.2,0.3-0.1,0.5c0,0,0,0,0,0c0.1,0,0.1,0,0.1,0c0,0.1,0,0.1-0.1,0.1c0,0,0-0.1,0-0.1l0,0.1c-0.1,0,0-0.1,0-0.1
							c0,0.1,0,0.3-0.1,0.4c-0.1,0,0.1-0.2-0.1-0.1l0.1-0.1c-0.2,0,0.1-0.1-0.1-0.1c-0.1,0.2-0.1,0.2-0.2,0.4c0,0.1,0.1,0,0.1,0.1
							c-0.1,0.3-0.3,0.1-0.3,0.4c0,0.1,0.1,0.2,0,0.3l-0.1-0.1c-0.1,0.2,0.1,0.2-0.1,0.3c0-0.1,0-0.2,0-0.1c-0.1,0.1,0,0.1,0,0.2
							l-0.1,0C70,31,70,31.2,69.9,31.4c0,0,0-0.1-0.1,0c-0.1,0.3-0.3,0.6-0.5,0.8l0,0.1c0,0-0.1,0-0.1,0c-0.1,0.1,0,0,0,0.1
							c0,0.1-0.1,0.1-0.1,0c0,0.2-0.1,0.6-0.3,0.7l0,0c-0.1,0.1,0.1,0.2-0.1,0.3l0,0c-0.2,0.3-0.3,0.7-0.5,0.9
							c0.1,0.1-0.2,0.3-0.1,0.4c-0.2,0.1-0.2,0.1-0.3,0.3c0,0.1,0,0.1,0,0.2l-0.1,0l0,0.2l-0.1,0l0,0.1c0,0,0.1-0.1,0.1,0
							c0,0.1-0.2,0.3-0.2,0.3l-0.1,0.3c0,0,0-0.1,0-0.1c0,0.2-0.1,0-0.1,0.2c0,0,0,0,0.1,0c-0.1,0-0.2,0.2-0.2,0.3l0,0
							c-0.1,0.2-0.2,0.5-0.3,0.7c0.1-0.1,0.1,0,0.1,0.1l-0.1,0c0,0.1,0.1-0.1,0.1,0.1c-0.1,0.1-0.1,0-0.1-0.1l0,0.1c0,0,0,0-0.1-0.1
							c0,0.1-0.2,0.2-0.1,0.3l0,0c-0.1,0.2-0.2,0.4-0.3,0.6c0.1,0,0,0.1,0,0.2c-0.1,0.1-0.2,0.3-0.3,0.5c0,0.1,0,0.1,0.1,0.1
							c-0.1,0-0.2,0.2-0.2,0c-0.1,0.2-0.1,0.3-0.2,0.6c0,0,0.1,0,0.1,0c0,0.1-0.1,0.1-0.1,0.1l0,0c-0.1,0.4-0.5,0.6-0.5,0.9l0,0
							l-0.1,0.3c-0.1,0.1,0-0.1-0.1,0c0,0.3-0.2,0.4-0.3,0.7c-0.3,0.1-0.3,0.6-0.5,0.8l0.1,0c0,0.1-0.1,0.1-0.1,0.1c0,0,0.1,0,0.1,0
							c-0.2,0.5-0.6,1-0.9,1.5c-0.1,0.2,0.2,0.2-0.1,0.4l0-0.1c-0.1,0.4-0.4,0.8-0.5,1.2c0,0,0,0,0-0.1c-0.1,0-0.2,0.3-0.1,0.3
							c0,0.1-0.1,0-0.1,0c-0.1,0.1,0,0.2-0.1,0.3c0,0,0,0,0,0c0,0.1-0.1,0.2,0,0.2c-0.1,0.1-0.1,0.3-0.2,0.4c0,0.1-0.2,0.2-0.1,0.3
							c-0.1-0.1-0.2,0.2-0.2,0.3c0,0-0.1,0.1-0.1,0c-0.1,0.1-0.1,0.2,0,0.2c-0.2,0.1-0.1,0.4-0.3,0.5c-0.1,0.3-0.2,0.6-0.3,0.9
							c-0.1-0.1,0.1-0.3,0-0.4c-0.1,0.3-0.1,0.5-0.2,0.7c0,0.1,0-0.1,0-0.1c-0.1,0.3-0.3,0.5-0.3,0.8c0,0,0,0,0-0.1
							c0,0-0.1,0.1,0,0.1l0-0.1c0.1,0,0.1,0.3,0.1,0.3c-0.1-0.2-0.2,0.2-0.3,0c0,0,0,0.1,0,0.1c0,0-0.1,0-0.1,0
							c-0.1,0.2,0,0.1,0,0.3c0,0,0,0,0-0.1c0,0.1,0,0.2-0.1,0.3c0,0,0,0,0,0c-0.1,0.2-0.1,0.4-0.2,0.6c-0.1-0.1-0.1,0.1-0.2,0l0,0.1
							l0.1,0c-0.1,0.1,0,0.2-0.1,0.3l0-0.1l-0.1,0.2l0.1-0.1c0,0.1,0.1,0,0,0.2c0,0-0.1,0.1-0.1,0.1c0,0,0,0,0,0
							c0,0.1,0,0.1-0.1,0.2c0,0-0.1-0.1-0.1-0.1c0,0.1-0.1,0.3-0.1,0.4c0,0-0.1-0.1-0.1-0.1l0,0.1c0,0-0.1,0-0.1,0
							c-0.1,0.1,0.1,0,0,0.2c0,0,0,0,0,0c-0.1,0.2-0.1,0.4-0.3,0.5c-0.1,0,0.1-0.2-0.1-0.1c-0.1,0.3-0.1,0.6-0.3,0.8l0,0
							c0.1,0.1-0.2,0.1-0.2,0.3c0,0-0.1-0.1,0-0.1c-0.1,0.2-0.1,0.3-0.2,0.6l0,0c-0.1,0.1-0.1,0.2-0.2,0.3c0,0,0,0.1,0,0.1
							c-0.4,0.2-0.2,0.7-0.5,0.9c0,0,0-0.1,0-0.1l-0.1,0.3c0.1,0,0.1,0,0.1,0c0,0,0,0.1,0,0.2c0-0.1-0.1,0-0.1,0c0,0,0,0,0.1,0
							c-0.2,0.1,0.1,0.1-0.1,0.2l0,0c0,0.1,0,0.2-0.1,0.2c-0.1,0,0-0.1,0-0.1c0,0.1,0,0.3-0.1,0.3c0-0.1,0-0.1,0-0.2
							c-0.1,0.1-0.1,0.1-0.2,0.1l0,0L57,57l0,0c0.1,0.2-0.1,0.3-0.1,0.5c0-0.2,0-0.1-0.1-0.1c0,0-0.1,0.1-0.1,0.1
							c0,0.1-0.1,0.1-0.1,0.3c0,0,0,0.1-0.1,0c0,0.1,0.1,0,0.1,0c0,0.2-0.3,0.3-0.3,0.6c-0.1,0.2,0,0.3,0,0.5
							c-0.1,0-0.1-0.1-0.1-0.1c-0.1,0.1-0.1,0.2-0.1,0.3c0,0,0,0-0.1,0c0,0.1,0.1,0.1,0,0.2c0,0-0.1-0.1-0.1-0.1c0,0.1,0,0.2,0,0.3
							c-0.1,0,0-0.1,0-0.1c0,0.1-0.1,0.3,0,0.3l0.1-0.1c0,0-0.1,0-0.1,0c0-0.1,0.1-0.1,0.1-0.1l0,0.1c0.2,0,0.1-0.3,0.2-0.4l0.1,0.1
							l0-0.2c0,0,0.1,0,0.1,0.1c0.1-0.1,0-0.1,0.1-0.2c0,0,0,0,0,0l0-0.1c0,0,0.1,0,0,0.1c0.1-0.1,0.1-0.3,0.2-0.3l0,0
							c0.1-0.2-0.1-0.1-0.1-0.3l0.2,0l-0.1-0.1c0,0,0-0.1,0.1,0c0-0.1,0,0-0.1-0.1c0.1-0.1,0.1-0.3,0.3-0.3c0-0.1-0.1,0.1-0.1-0.1
							c0.1,0,0-0.1,0.2-0.2c0.1,0.1,0,0.1,0.1,0.1c-0.1-0.1,0.1-0.2,0.1-0.3c-0.1,0,0.1-0.2,0.1-0.4c0,0,0.2-0.2,0.3-0.4l0,0
							c-0.1-0.1,0-0.2,0-0.3c0.1,0,0.1,0.1,0.1,0.1l0-0.1c0,0,0-0.1,0-0.1l0.1,0.1c0.1-0.1,0-0.3,0.2-0.4c-0.1,0-0.2,0-0.2-0.2
							c0,0,0.1,0,0.1,0.1c0,0,0-0.1,0-0.1l0,0.1c0.1-0.1,0-0.1,0-0.1c0,0,0.1,0,0.1,0c0,0,0,0,0,0.1c0-0.1,0.1-0.1,0.2-0.1
							c0,0-0.1,0,0-0.1c0.1-0.1,0.1,0,0.1-0.1c0,0,0.1-0.1,0-0.1c0,0,0.1,0,0.1,0c0-0.1,0.1-0.3,0-0.3l0,0c0,0,0,0,0,0c0,0,0,0,0,0
							l0,0c0-0.2,0.3-0.4,0.3-0.6l0,0c0-0.1,0.1-0.3,0.1-0.4c0,0,0.1-0.1,0.1,0c0-0.1,0-0.1,0.1-0.2c0,0.1,0.1,0,0,0.1
							c0.1-0.1,0.1-0.1,0.1-0.3c0,0.1,0.1-0.1,0.1-0.1l-0.1,0.1c0-0.1,0.1-0.1,0.1-0.2l0.1,0.1c0.2-0.2,0.1-0.5,0.3-0.7
							c0-0.1-0.1,0.1-0.1,0c0.1-0.1,0.3-0.2,0.3-0.2c0.1-0.1,0-0.2,0.1-0.4c0,0-0.1,0-0.1-0.2c0.1-0.1,0.2-0.1,0.2,0c0,0,0,0,0,0
							c0,0,0,0.1,0,0.1l0,0c0.1,0,0.1-0.2,0.2-0.1c0-0.1,0-0.1-0.1,0c0.1-0.1,0.1-0.2,0.2-0.4c0,0-0.1,0-0.1,0
							c0.2-0.2,0-0.1,0.1-0.3c0.1-0.1,0.1,0.1,0.1-0.1c0.1-0.1,0.1,0,0.1,0.1c0-0.2,0.2-0.2,0.2-0.3l0,0.1c0-0.1,0-0.1,0-0.1l-0.1,0
							c0,0,0.1-0.1,0.1-0.1c0-0.1-0.1,0-0.1-0.1c0.1,0,0.1-0.2,0.1-0.2c-0.1,0.2,0.1,0,0,0.2c0,0,0-0.1,0.1-0.1c0,0,0,0,0,0
							c0.2-0.1,0-0.1,0-0.3c0,0,0.1,0,0.1,0c0,0.1-0.1,0-0.1-0.1c0.1-0.1,0-0.1,0.1-0.2L61,49.9c0,0,0-0.1,0-0.2c0,0,0,0.1,0,0.1
							c0-0.1,0.2-0.2,0.2-0.3c0.1,0,0.1,0,0.1,0c0-0.2,0.1-0.1,0.2-0.3c-0.1,0-0.1,0-0.1-0.1l-0.1,0.3l0-0.2c0,0.1,0,0.2-0.1,0.2
							c0-0.1,0-0.1-0.1-0.1c0.1-0.1,0.1-0.2,0.2-0.3l0.1,0.1c0.2-0.1,0.1-0.3,0.2-0.6l-0.1,0.1c0-0.1,0.1-0.1,0.1-0.2
							c0,0,0.1,0,0.1,0c0,0,0.1-0.2,0-0.2L62,48c0.1-0.2,0-0.3,0.1-0.4c0,0.1,0.1,0,0.1,0.2c0-0.1,0.1-0.1,0-0.1c0,0,0-0.2,0.1-0.2
							c0,0-0.1-0.1,0-0.1c0,0,0,0,0,0c0,0,0-0.1-0.1-0.1c0.2-0.1,0.2-0.5,0.5-0.6c0-0.1,0.1-0.3,0.2-0.4c0,0,0,0,0,0
							C63,46,62.8,46,63,45.8c0.1-0.1,0,0.1,0.1,0.1c0.2,0.1,0.1-0.2,0.2-0.3l0,0c0.1-0.1,0.1-0.3,0.1-0.4c0,0,0,0,0,0
							c0-0.1,0-0.4,0.1-0.5c0,0.1,0,0.1,0.1,0.1c0-0.1-0.1,0-0.1-0.2c0.1,0,0.1-0.1,0.2-0.1l-0.1,0.1c0.1,0,0.1-0.2,0.1-0.2l0,0
							c0.1-0.2,0-0.3,0.1-0.5l0,0c0-0.2,0.1-0.1,0.1-0.2l0.1,0c0-0.1,0-0.3,0.1-0.5c0,0.1,0,0.3,0,0.4c0-0.1,0.1-0.3,0.1-0.3
							c0,0,0,0.1,0,0.1c0-0.1,0-0.3,0.1-0.4c0.2,0.1,0.2-0.4,0.4-0.4c0.1-0.3,0.3-0.5,0.4-0.8c-0.2,0,0-0.1-0.1-0.1
							c0-0.1,0-0.1,0.1-0.1l0.2-0.2c0.1,0,0,0.1,0,0.1c0.1-0.1,0.1,0,0.2-0.1c-0.1,0,0-0.1,0-0.2l-0.1,0.1c0-0.3,0.2-0.1,0.3-0.4
							l0,0.1c0-0.1,0.2-0.4,0.1-0.6c0,0,0.1,0,0.1,0c0.2-0.3,0.2-0.7,0.4-0.8l0,0c0-0.1,0-0.1,0-0.2c0,0,0,0,0,0c0,0,0-0.2,0.1-0.2
							l0,0.1c0.2-0.2,0.1-0.5,0.2-0.7c0.1,0.1,0.2-0.1,0.3-0.2l0,0c0.2-0.3,0.2-0.6,0.3-0.9c0.2-0.1,0.3-0.6,0.6-0.8
							c0,0-0.1,0-0.1-0.1c0.1-0.1,0-0.2,0.1-0.2l0,0c0.1,0,0.2-0.1,0.2-0.3l-0.1-0.1c0.3-0.2,0.3-0.8,0.5-0.8c0-0.1,0-0.2,0-0.2
							l0.1,0c0.1-0.2,0.2-0.3,0.3-0.5l0,0.1c0.1-0.1-0.1-0.3-0.1-0.4l0.1,0c0.1-0.2,0.3-0.4,0.3-0.7c0,0,0,0,0,0.1
							c0.1-0.1,0.3-0.4,0.1-0.4c0.1,0,0.1-0.2,0.1-0.4l0.1,0.1c0-0.1-0.1-0.2,0-0.3c0,0,0.1,0,0,0c0.1-0.1,0-0.1,0.1-0.2l0,0.1
							c0.1-0.1,0-0.1,0-0.2c0-0.1,0.1-0.2,0.2-0.2c0,0,0-0.1,0-0.2c0,0,0,0,0,0.1c0.1-0.2,0.1-0.3,0.2-0.4c0,0,0,0,0.1,0
							c-0.1,0.2-0.1,0.3-0.1,0.3c0.1,0,0.1-0.1,0.2,0.1c0-0.1,0-0.3,0.1-0.5c0,0,0,0,0,0l0,0c0,0,0-0.1,0-0.1c0,0,0.1-0.1,0.1-0.1
							c0.1,0,0.1-0.1,0.1-0.2c-0.1,0,0-0.1-0.1-0.1c0,0,0,0,0,0.1c0,0,0,0,0,0c0,0,0,0,0,0c0,0,0,0.1-0.1,0.2c0-0.1,0-0.1,0.1-0.2
							c0-0.1-0.1-0.1-0.1-0.1c0.1,0,0.3-0.2,0.3-0.2c0.1-0.2,0.2-0.5,0.1-0.6c0-0.1,0.1,0,0.1-0.1c0,0,0,0.1,0,0.1
							c0-0.1,0.1-0.3,0.1-0.4c0.1-0.1,0,0.1,0.1-0.1l0,0c0.3-0.3,0.1-0.7,0.5-1c0,0,0,0-0.1,0c0.3-0.4,0.4-1,0.8-1.4
							c0.1-0.1,0-0.2,0-0.3l0.1,0l0-0.2c0-0.2,0.4-0.2,0.4-0.5l-0.1,0c0.1-0.1,0.1-0.3,0.2-0.2c0,0,0-0.1,0-0.1l0,0l0-0.2
							c0.1-0.2,0.1,0.1,0.3-0.1c0-0.1,0-0.3,0-0.3c0,0-0.1,0.1-0.1,0.1l0-0.1c-0.1-0.1-0.2-0.2-0.4,0l0,0.2l-0.1,0l0.1-0.1
							c-0.1,0-0.1,0.1-0.1,0.2c0,0-0.1,0-0.1,0l0,0.2c-0.1,0-0.1-0.1-0.1,0c0,0.1,0.1,0,0.1,0.1c-0.1,0-0.1,0-0.1,0.1c0,0,0,0,0-0.1
							c0,0.1-0.1,0.2,0,0.3c-0.1,0-0.1,0.2-0.2,0.2c0,0,0,0.2,0,0.2c-0.1-0.2-0.1,0.2-0.3,0.1c0.1,0.1-0.1,0.3-0.1,0.5
							c0,0,0,0,0-0.1c-0.1,0.1-0.1,0.1-0.2,0.1c0.1,0.1,0,0.2,0.1,0.3c-0.1,0.1-0.1-0.1-0.2-0.1c0.1,0,0,0.2,0.1,0.2
							C71.5,28,71.6,28,71.5,28c0.1,0.1,0,0.1,0,0.2C71.4,28.3,71.4,28.2,71.3,28.2C71.3,28.4,71.3,28.2,71.3,28.2z M69.9,31.5
							C69.9,31.5,69.9,31.5,69.9,31.5C69.9,31.4,69.9,31.4,69.9,31.5C69.9,31.4,69.9,31.4,69.9,31.5z M69.8,31.7c0,0,0-0.1,0.1-0.1
							C69.9,31.6,69.9,31.6,69.8,31.7C69.9,31.6,69.8,31.7,69.8,31.7z M70.5,31.4C70.5,31.5,70.5,31.5,70.5,31.4
							C70.5,31.4,70.5,31.4,70.5,31.4C70.5,31.4,70.5,31.4,70.5,31.4C70.5,31.4,70.5,31.4,70.5,31.4z"/>
						<path fill="#808181" d="M70.5,31.3C70.5,31.3,70.5,31.3,70.5,31.3C70.5,31.3,70.5,31.3,70.5,31.3
							C70.5,31.3,70.5,31.3,70.5,31.3C70.5,31.3,70.5,31.3,70.5,31.3z"/>
						<path fill="#808181" d="M58.4,54.9L58.4,54.9C58.4,54.9,58.4,54.9,58.4,54.9C58.4,54.9,58.4,54.9,58.4,54.9z"/>
						<polygon fill="#808181" points="67.8,35.3 67.8,35.3 67.8,35.2 						"/>
						<path fill="#808181" d="M57.4,56.2C57.4,56.2,57.4,56.2,57.4,56.2C57.4,56.2,57.4,56.2,57.4,56.2z"/>
						<path fill="#808181" d="M57.1,56.8L57.1,56.8C57,56.9,57.1,56.8,57.1,56.8z"/>
						<path fill="#808181" d="M56.8,57.3C56.8,57.3,56.8,57.3,56.8,57.3C56.8,57.3,56.8,57.3,56.8,57.3L56.8,57.3z"/>
						<path fill="#808181" d="M60.6,49.7C60.6,49.6,60.6,49.6,60.6,49.7C60.6,49.6,60.6,49.6,60.6,49.7z"/>
						<path fill="#808181" d="M59.6,52C59.6,52,59.6,51.9,59.6,52C59.6,51.9,59.5,52,59.6,52z"/>
						<path fill="#808181" d="M61.8,47.1C61.8,47.1,61.8,47.1,61.8,47.1C61.8,47.1,61.8,47.1,61.8,47.1L61.8,47.1z"/>
						<path fill="#808181" d="M59.6,51.8c0,0,0,0.1-0.1,0.1C59.6,51.9,59.6,51.8,59.6,51.8z"/>
						<path fill="#808181" d="M55.7,59.3L55.7,59.3C55.7,59.4,55.7,59.4,55.7,59.3L55.7,59.3z"/>
						<path fill="#808181" d="M55.7,59.4L55.7,59.4C55.7,59.4,55.7,59.4,55.7,59.4z"/>
						<path fill="#808181" d="M55.7,59.5L55.7,59.5C55.7,59.4,55.7,59.4,55.7,59.5z"/>
						<path fill="#808181" d="M56.1,58.7L56.1,58.7C56,58.7,56.1,58.7,56.1,58.7z"/>
						<path fill="#808181" d="M56.2,58.5c0,0-0.1,0.1-0.1,0.2l0,0C56,58.7,56.2,58.6,56.2,58.5z"/>
						<path fill="#808181" d="M56.9,57.9L56.8,58c0,0,0.1,0,0.1,0C57,57.9,56.8,58.1,56.9,57.9z"/>
						<path fill="#808181" d="M57.2,57.4C57.1,57.5,57.2,57.4,57.2,57.4C57.2,57.4,57.2,57.4,57.2,57.4z"/>
						<path fill="#808181" d="M59,53.8L59,53.8C59.1,53.8,59,53.8,59,53.8z"/>
						<polygon fill="#808181" points="59,52.9 58.9,53 59,53.1 						"/>
						<polygon fill="#808181" points="59.7,52.8 59.7,52.8 59.7,52.7 						"/>
						<path fill="#808181" d="M62.7,46.7L62.7,46.7C62.6,46.7,62.7,46.8,62.7,46.7z"/>
						<path fill="#808181" d="M64,44c0.1,0,0.1-0.1,0.1-0.1C64,44,64,44,64,44z"/>
						<polygon fill="#808181" points="68.1,36.3 68.1,36.3 68.1,36.2 						"/>
					</g>
				</g>
			</g>
		</g>
	</g>
</g>
</svg>
