<?xml version="1.0" encoding="utf-8"?>
<!-- Generator: Adobe Illustrator 23.1.0, SVG Export Plug-In . SVG Version: 6.00 Build 0)  -->
<svg version="1.1" id="Capa_1" xmlns="http://www.w3.org/2000/svg" xmlns:xlink="http://www.w3.org/1999/xlink" x="0px" y="0px"
	 viewBox="0 0 89.2 89.2" enable-background="new 0 0 89.2 89.2" xml:space="preserve">
<g>
	<g>
		<path fill="#D8B58B" d="M18.9,69.8c0,0,21.9,6.7,25.6-12.4c0,0,13.8-0.5,13.5-13.8c0,0,17.5,1.3,13.8-25.9c0,0-24.6-5.7-26.2,13
			c0,0-13.8-0.7-14,13.3C31.6,43.9,14.1,43.6,18.9,69.8z"/>
		<g>
			<g>
				<g>
					<g>
						<path fill="#808181" d="M19.4,69.8c-0.6-0.2,0.3,0.1-0.4-0.1C19,69.7,19.2,69.7,19.4,69.8z"/>
						<path fill="#808181" d="M18.7,67.7c-0.5-2-0.5-4.8-0.6-7.1c0-0.3,0.1,0.1,0.1-0.5c-0.1-2.2,0.6-5.7,1.8-8.1l-0.1,0.2
							c0.3-0.4,0.5-1,0.7-1.5c0,0-0.1,0.2,0,0.1c0-0.1,0.1-0.3,0.2-0.5c0.1-0.2,0.3-0.4,0.4-0.5c0.1-0.2,0.2-0.1,0.3-0.3l0.1-0.3
							c0.1-0.2,0.2-0.4,0.4-0.6c0.2-0.2,0.4-0.4,0.6-0.6c0.4-0.4,0.8-0.8,1.3-1.2c0,0-0.1,0.1,0,0.1c1.4-1.3,3.7-2.2,5.8-2.6
							c-0.1,0-0.2,0.1,0,0.1c0.1-0.1,0.7-0.2,1.3-0.3c0.1,0,0.4,0,0.6-0.1c0-0.2,0-0.6,0.1-0.9l0,0.1c0-0.5,0.1-0.7,0.1-1.1l0.1-0.3
							c0-0.2,0.2-0.7,0.2-1.1l0,0c0.1-0.4,0.1-0.6,0.2-0.9l0,0c0.2-0.8,0.5-1.2,0.4-1.2c0.2-0.3-0.3,0.8,0,0.4
							c0.9-2.6,2.8-4.9,5.3-6.2c0.3-0.1,0.5-0.2,0.5-0.2c0.2-0.2,1-0.4,1.2-0.5c-0.1,0,0.2,0,0.3-0.1c0.5-0.1,0.5-0.2,1-0.4
							c-0.2,0.1-0.3,0.1-0.2,0.1c0.4-0.2,1.1-0.3,1.6-0.4c-0.1,0-0.2,0.1-0.2,0.1c0.6-0.2,1.1-0.2,1.6-0.3l-0.2,0.1
							c0.9,0,0.2-0.1,1-0.1c-0.2,0-0.1,0-0.1,0c0.3,0,0.8-0.1,1.1-0.1c0.1-0.5,0.1-0.9,0.2-1.3c0,0,0,0,0,0c0-0.4,0.1-0.8,0.2-1.1
							c0.1-0.4,0.2-0.8,0.3-1.2c0.1-0.3,0.1,0.1,0.3-0.6c-0.1,0,0.5-1.3,0.2-0.9c0.3-0.6,0.8-1.6,1-2c-0.1,0.3,0.2-0.2,0,0.3
							c0.1-0.1,0.2-0.2,0.3-0.3c0,0.1-0.2,0.4-0.1,0.3c0.1-0.2,0.6-0.9,0.8-1.1c0.3-0.4,0.5-0.9,1.2-1.4c-0.3,0.3,0.2-0.1,0,0.1
							c0.3-0.3,0.5-0.6,0.8-0.9c0.2-0.2,0.1,0,0.4-0.3c0,0,0.1-0.1,0.2-0.2c0.1-0.1,1-0.6,1.1-0.6c0.1,0-0.4,0.3-0.1,0.1
							c0.5-0.3,0.5-0.3,0.9-0.5l0,0c0.3-0.2,0.9-0.4,0.6-0.3c-0.2,0.1,0.1,0-0.2,0.1c0.2-0.1,0.8-0.4,1.3-0.6
							c-0.2,0.1-0.1,0.1-0.2,0.1c0.6-0.3,1.4-0.5,2.1-0.8c0,0-0.3,0.1-0.4,0.2c1-0.2,2-0.5,2.9-0.6c-0.1,0-0.1,0-0.1,0
							c0.5-0.1,0.5,0,0.8-0.1c0,0,0.4-0.1,0.7-0.1c0.2,0,0.1,0-0.2,0c0.4-0.1,2.3-0.3,3.3-0.2c0,0,0.6-0.1,0.9-0.1l-0.1,0
							c0.2,0,0.8,0,0.8,0.1c0.5,0-2,0-1.3,0c0.2,0,1-0.1,0.8,0c0.5,0,1,0,1.4,0.1c-0.1,0-0.4,0,0,0.1c0.7,0,0.2,0,0.8,0l0.4,0
							c0,0,0.6,0.1,0.4,0c0.1,0,1,0.1,0.9,0.2l-0.1,0c0.3,0,0.5,0,0.7,0c0,0,0.1,0,0.1,0c0.1-0.1,0.7,0.1,1.1,0.1
							c0.3,0.1,0.7,0.1,1.1,0.2c0.1,0,0.3,0.1,0.4,0.1c0,0.1,0,0.2,0,0.3c0,0.2,0,0.3,0,0.4c0.1,0.5,0.1,0.9,0.2,1.5
							c0-0.1,0-0.3-0.1-0.3c0,0.3,0,0.4,0.1,0.7c0-0.1,0,0.7,0,1.1c0.1,0.5,0.1,0.3,0.1,0.4c0,0.2,0,0.6,0.1,0.9c0,0.3,0,0.7,0,1
							c0-0.2,0-0.7-0.1-0.3c-0.1,0.4,0.1,0.9,0,1.6l0.1-0.2c0,0.3,0,1,0,1c0,0.2,0,0.8,0,0.8c-0.1,1.2-0.2,2.8-0.4,3.5
							c0,0.2-0.1,0.6,0,0.5c0.1-0.3,0-0.4,0.1-0.5c0,0.1,0,0.2,0,0.2c0,0.4-0.1,0.6-0.1,0.3c-0.2,0.8-0.1,0.8-0.3,1.8
							c0-0.1,0,0-0.1,0.3L71.6,33c-0.2,0.6-0.2,0.3-0.2,0.3c-0.1,0.3-0.3,0.7-0.3,0.9l-0.2,0.4c0.2-0.3-0.1,0.3-0.1,0.4l0-0.2
							c0,0.1-0.2,0.4-0.2,0.6c0,0,0.2-0.4,0.3-0.6c-0.1,0.2-0.1,0.4-0.2,0.7c0,0-0.1,0.1-0.1,0.3c-0.1,0.2-0.2,0.4-0.3,0.5
							c-0.2,0.3-0.1,0.3-0.2,0.4c0,0-0.3,0.5-0.2,0.2c0-0.1,0.1-0.2,0.2-0.4c-0.1,0.2-0.1,0.1-0.3,0.5c-0.1,0.3,0.1,0-0.2,0.5
							c0.1-0.2,0.1-0.2,0.1-0.3l-0.3,0.5l0,0c0,0.1,0,0,0,0c-0.1,0.2-0.5,0.7-0.6,0.9c-0.2,0.2-0.4,0.5-0.6,0.7l0,0
							c-0.2,0.3-0.6,0.6-0.8,0.8l0,0c-0.1,0.1-0.5,0.4-0.6,0.6c-0.4,0.3-0.2,0-0.6,0.3c-0.4,0.3-0.6,0.5-0.4,0.4
							c-0.7,0.5-1.6,1-2.4,1.3c-0.1,0.1,0,0-0.3,0.1c-1.2,0.5-2.6,0.8-3.7,0.8c0.4,0,0,0,0-0.1c-0.3,0.1-0.4,0-0.5,0.1
							c0,0,0,0.1,0.4,0c-0.2,0-0.4,0-0.6,0l-0.3,0l-0.1,0c0,0.1,0,0.2,0,0.3c0,0.2,0,0.3,0,0.4c0-0.2,0,0,0,0.1
							c-0.1-0.1-0.1,0.5-0.1,0.9l0,0.1c0,0.1,0,0.2-0.1,0.3c0,0.2,0,0.2-0.1,0.6c0,0,0,0-0.1,0.1c-0.1,0.4-0.1,1.1-0.3,1.5l-0.2,0.4
							c-0.1,0.2-0.2,0.5,0,0.2c-0.2,0.4-0.3,0.7-0.4,1c-0.1,0.2-0.2,0.4-0.3,0.5c-0.5,1.4-1.9,3-3.2,4l0-0.1
							c-0.4,0.2-0.2,0.2-0.4,0.4c0.1-0.1-0.3,0.2,0-0.1c-0.5,0.4-0.6,0.5-1,0.7c0,0.1,0.3-0.2,0.2-0.1c-0.1,0-0.8,0.4-0.8,0.5
							c-0.1,0.1-0.1,0,0-0.1c-0.1,0.1-0.2,0.1-0.3,0.2c-0.2,0.1,0-0.1,0.2-0.2c0.2-0.2,0.4-0.3,0.2-0.2l-0.3,0.2
							c-0.3,0.1,0.8-0.5,0-0.1c-0.3,0.2-0.6,0.4-0.3,0.3c-0.7,0.3-0.3,0.3-1.1,0.6c-0.2,0.1,0.6-0.3,0.5-0.3
							c-0.4,0.1-0.8,0.3-1.1,0.4c0.4-0.1,0.1,0-0.2,0.2c-0.4,0.1,0.3-0.1-0.3,0.1c-0.1,0.1-0.6,0.2-0.2,0.1
							c-0.2,0.1-0.6,0.2-0.9,0.3c-0.2,0,0.6-0.3-0.1-0.1c0.1,0-0.8,0.3-0.4,0.2c-0.3,0-0.3,0-0.1-0.1c-0.4,0.1-0.9,0.3-1,0.2
							l-0.1,0.1c-0.1,0-0.3,0-0.5,0c-0.1,0-0.3,0.1-0.5,0.1c-0.2,0-0.2,0-0.3,0c0,0,0,0,0,0c0-0.1-0.2,0.7,0,0.4
							c0.1-0.2,0.1-0.3,0.1-0.4c0,0,0,0,0-0.1c0,0,0,0,0,0c0,0,0,0,0,0c0-0.1,0,0.3-0.1,0.6l0,0c0,0.2-0.1,0.5-0.1,0.6
							c0-0.1,0-0.1-0.1,0.1l0,0.2c-0.2,0.7-0.1,0.1-0.3,0.8l0.1-0.5c0,0.1-0.1,0.3-0.2,0.6c0,0.1,0,0.4,0,0.5
							C44,60.9,44,60.7,43.9,61c0.1-0.2,0.1-0.3,0.1-0.5c0-0.1-0.2,0.3-0.4,0.7c-0.1,0.3-0.2,0.8,0,0.3c-0.1,0.2-0.3,0.5-0.2,0.3
							c-0.2,0.5,0.1,0-0.1,0.4c-0.1,0.2-0.4,0.7-0.6,1l0.2-0.5l-0.2,0.3c0.2-0.4-0.1,0.2-0.1-0.1c-0.1,0.2-0.2,0.4-0.3,0.6
							c0.4-0.5-0.3,0.7-0.1,0.6c-0.5,0.8-0.5,0.4-1,1.2c0.1-0.1-0.1,0.3,0.2-0.2c-0.4,0.4-0.2,0.4-0.7,0.8c0.3-0.4-0.4,0.3,0-0.2
							c0,0.1,0.3-0.3,0.3-0.4c-0.2,0.2,0-0.1-0.4,0.4c-0.2,0.3-0.6,0.6-0.5,0.6c0,0,0.4-0.4,0.2-0.2c-0.5,0.5-0.6,0.5-0.8,0.8
							c0.3-0.3,0.5-0.3,0.5-0.3l-0.4,0.4l0.1-0.1c-0.7,0.5-0.1,0.2-0.8,0.7L38.7,68c0.1-0.1,1-0.7,0.8-0.7c-0.4,0.4-0.5,0.5-0.9,0.8
							c0.1-0.1,0.2-0.2,0.3-0.2c-0.2,0.1-0.4,0.1-1,0.6c-0.3,0.2-0.1,0.1-0.1,0.1c-0.7,0.5-0.9,0.6-1.4,0.8c0.1-0.1-0.9,0.4-0.4,0.1
							c0.3-0.1,1.4-0.6,1.6-0.9c-0.3,0.1,0.6-0.3,0.7-0.5c-0.6,0.4-0.6,0.3-0.7,0.3c-0.2,0.1-0.3,0.2-0.4,0.3c0,0.1,0.2,0,0.2,0
							c-0.7,0.4-1.3,0.7-1.7,0.9c-0.2,0.1-0.2,0,0.1-0.1c-0.8,0.4-1.7,0.7-2.6,0.9c0.6-0.1-0.9,0.3-0.5,0.2c0.4-0.1,0.8-0.1,0.6-0.1
							c-0.3,0.1,0,0-0.1,0c-0.3,0.1-0.6,0.1-0.9,0.2c0.8-0.2,0.1-0.1,0.3-0.2c-0.6,0.1,0,0-0.6,0.1c-0.6,0.2-1.3,0.3-1.9,0.4
							c-0.8,0-2.1,0.2-2.8,0.1c-0.4,0-0.1-0.1-0.5-0.1c-0.5,0,0.4,0.1-0.4,0l0.1,0c-0.2,0-1.3-0.1-1.5,0l0.2-0.1c-0.1,0-0.3,0-0.4,0
							c0,0-0.2-0.1,0.1-0.1c-0.4-0.1-0.9-0.1-1.4-0.1l0.3,0.1c-0.8-0.1-1.4-0.2-2.2-0.3l0,0l-0.5-0.1c0.1,0-0.3-0.1-0.6-0.1
							c0.4,0.1,0.8,0.1,1.2,0.1c0.3,0.1-0.4,0-0.2,0.1c0.2,0.1,0.9,0.2,1,0.2c-0.3,0-0.3,0-0.5-0.1c-0.1-0.1,0.3,0,0.6,0
							c-0.1,0-0.4-0.1-0.4-0.1c0.3,0,0.6,0.1,1.1,0.1c-0.3,0,0.2,0.1,0,0.1c0-0.1,0.5,0,1.1,0.1c0.4,0.1,1.1,0.1,1.8,0.1
							c-0.3,0-0.6,0.1-1.1,0.1c0.4,0,0.5,0,0.9,0.1c0.2,0,0.4-0.1,0.9-0.1l0,0c0.5,0,0.5-0.1,1.2-0.1c1.1,0,2.3-0.2,3.1-0.3l0,0
							c0.2-0.1,0.6-0.2,1-0.3c0.4-0.1,0.8-0.2,1.1-0.3c1-0.3,2.2-0.8,2.7-1c1.7-0.9,3-1.9,4.3-3.4l-0.2,0.3c0.2-0.3,0.2-0.1,0.4-0.4
							c-0.3,0.3,0.3-0.4,0.4-0.6c0.6-0.7,1.1-1.7,1.4-2.4l0,0c0.2-0.4,0.3-0.8,0.5-1.2c0.2-0.4,0.4-0.9,0.5-1.3
							c0-0.1,0.1-0.3,0.2-0.5c0.1-0.6,0.2-0.8,0.3-1.6c0-0.2,0.1-0.3,0.1-0.6c0.5,0,0.7,0,1-0.1c0.3,0,0.6-0.1,0.8-0.1
							c2.1-0.4,4.2-1.1,6.1-2.4l0.2,0c0.4-0.3,0.9-0.7,1.3-1c0.4-0.4,0.8-0.8,1.2-1.2c0.3-0.5,0.7-0.9,1-1.3
							c0.3-0.5,0.5-0.9,0.7-1.3c0,0.1,0,0.1,0,0.2c0.3-0.5,0.4-1.2,0.3-1.1c0.1-0.3,0.2-0.6,0.3-0.9c0.1-0.3,0.1-0.6,0.2-0.8
							c0.1-0.6,0.1-0.7,0.2-1.2c0-0.5,0.1-0.8,0.1-1.2c0-0.4,0-0.8,0.1-1.3c0.1,0,0.2,0,0.4,0c0.1,0,0.2,0,0.2,0c0.1,0,0.1,0,0.2,0
							l-0.4,0c-0.2,0-0.2,0.1,0.3,0.1c0.4,0,1.5-0.1,1.1-0.1c1.2,0,2.7-0.6,3.8-0.9c-0.1,0,0.2-0.1,0.3-0.2c0.5-0.2,1-0.4,1.4-0.7
							c0.4-0.3,0.8-0.5,1.1-0.8c0.1-0.1-0.2,0.2,0.1-0.1c0.2-0.2,0,0,0.2-0.2c0.3-0.3,0.6-0.6,0.9-0.9c0.3-0.3,0.5-0.6,0.8-0.9
							c0.3-0.3,0.5-0.6,0.8-1c0.2-0.4,0.4-0.7,0.6-1l0.5-0.9l0.4-1l0.4-1c0.1-0.3,0.2-0.6,0.3-1c0.3-1.4,0.7-2.7,0.7-4l0,0
							c0-0.9,0.3-2,0.2-2.8c0-0.2,0-0.8,0-0.6c-0.1-0.7,0-2,0-3c0,0.1,0,0.1,0,0.3c0-1-0.2-1.9-0.3-3c0,0.1,0,0.3,0.1,0.3
							c0-0.4-0.2-1-0.1-1.2c0-0.2-0.1-0.2,0,0L71.6,18c0,0,0,0-0.1,0l-0.1,0L71,17.8c-0.6-0.1-1.2-0.2-1.8-0.3
							c-1.2-0.2-2.5-0.2-3.7-0.3c-1.8-0.1-0.1-0.2-1.5-0.1c-0.1,0-0.1,0-0.1,0c-0.5,0-0.8-0.1-1.2,0c0.2,0-0.2,0-0.3,0.1
							c-1.1,0-1.3,0-2.1,0.1l0.1,0c-1,0.2-2.1,0.3-2.9,0.6c-2.7,0.6-5.2,1.7-7.1,3.6c-2,1.8-3.2,4.2-3.8,6.8
							c-0.1,0.4-0.2,0.8-0.2,1.2c-0.1,0.5-0.1,1.1-0.2,1.6l-0.4,0l-0.4,0c-0.1,0-0.3,0-0.4,0c-0.3,0-0.5,0-0.8,0.1
							c-0.5,0-1.1,0.1-1.6,0.2c-1.1,0.2-2.1,0.5-3.1,0.9c-2,0.8-3.8,2.2-5.1,4c-0.7,1-0.8,1.1-1.2,2.4c0-0.1,0-0.1,0-0.1
							c0,0.1-0.4,0.9-0.3,1c-0.2,1-0.5,1.9-0.5,2.8c0,0.6-0.1,1.2-0.1,1.8c0,0.1-0.1,0-0.1,0.1l-0.2,0l-0.4,0l-0.4,0
							c-0.2,0-0.5,0.1-0.7,0.1c0.3,0,0.5-0.1,0.1-0.1c-0.1,0-0.3,0.1-0.4,0.1l-0.1,0c-0.3,0.1-0.5,0.1-0.3,0.1
							c-2.5,0.5-4.8,1.7-6.6,3.4c-1.8,1.7-3,4-3.7,6.4c-0.2,0.5-0.3,1.3-0.4,2c-0.1,0.7-0.3,1.5-0.3,2.1c-0.1,1-0.2,1.9-0.2,2.8
							c0,0.9,0.1,1.9,0.1,2.8c0,0.9,0.1,1.8,0.3,2.8c0.1,0.9,0.3,1.9,0.4,2.9C19.2,69.8,19,69.3,18.7,67.7z"/>
						<path fill="#808181" d="M20.1,70c0.1,0.1,0.6,0.2,0.2,0.1C20.3,70.1,20.1,70,20.1,70z"/>
						<path fill="#808181" d="M32.1,70.7c0,0,0.2,0,0.2,0c-0.1,0-0.3,0.1-0.4,0.1C32.1,70.7,32.1,70.7,32.1,70.7z"/>
						<path fill="#808181" d="M35.1,69.8c0,0.1-0.7,0.3-1,0.4C34.5,70.1,34.8,70,35.1,69.8z"/>
						<path fill="#808181" d="M37.8,68.6c0.2-0.1,0.2-0.1-0.1,0.1C37.7,68.7,37.8,68.7,37.8,68.6z"/>
						<path fill="#808181" d="M38,68.5c0.2-0.1,0.3-0.2,0.4-0.2C38.4,68.2,37.9,68.6,38,68.5z"/>
						<path fill="#808181" d="M42.5,64c0.1-0.1,0.2-0.4,0.3-0.5C42.7,63.6,42.4,64.1,42.5,64z"/>
						<path fill="#808181" d="M43.7,61.3c0-0.1,0.1-0.1,0.1-0.2C43.9,60.9,43.9,61.1,43.7,61.3L43.7,61.3z"/>
						<polygon fill="#808181" points="72.5,24.1 72.5,24.4 72.5,24.3 						"/>
						<path fill="#808181" d="M55.1,18c-0.3,0.1-0.2,0-0.3,0.1C55.1,18,54.8,18.1,55.1,18z"/>
						<polygon fill="#808181" points="46.4,26.5 46.5,26.4 46.5,26.5 						"/>
					</g>
				</g>
			</g>
		</g>
	</g>
	<g>
		<circle fill="#F5D4B8" cx="58.2" cy="30.8" r="7"/>
		<g>
			<g>
				<g>
					<g>
						<path fill="#808181" d="M65,30.8C65.1,30.8,65.1,30.8,65,30.8L65,30.8L65,30.8z"/>
						<path fill="#808181" d="M65.1,30.4c0-0.1-0.1-0.2-0.1-0.1C65.1,30.3,65,30.4,65.1,30.4c0,0.1,0,0.2-0.1,0.2c0,0,0,0.1,0,0.1
							C65.1,30.6,65.1,30.5,65.1,30.4C65.1,30.4,65.1,30.4,65.1,30.4z"/>
						<path fill="#808181" d="M62.3,25.1L62.3,25.1C62.3,25.1,62.3,25.1,62.3,25.1z"/>
						<path fill="#808181" d="M58.7,23.7C58.7,23.7,58.7,23.7,58.7,23.7C58.7,23.7,58.7,23.7,58.7,23.7z"/>
						<path fill="#808181" d="M58,23.7C58,23.7,58,23.7,58,23.7C58,23.7,58,23.6,58,23.7z"/>
						<path fill="#808181" d="M62.3,25.1L62.3,25.1C62.2,25,62.3,25,62.3,25.1z"/>
						<path fill="#808181" d="M64.9,29.6C64.9,29.6,64.9,29.6,64.9,29.6L64.9,29.6L64.9,29.6z"/>
						<path fill="#808181" d="M63.6,26.2L63.6,26.2C63.6,26.2,63.6,26.2,63.6,26.2L63.6,26.2z"/>
						<path fill="#808181" d="M64.4,27.3C64.4,27.2,64.3,27.2,64.4,27.3C64.3,27.3,64.3,27.3,64.4,27.3
							C64.3,27.3,64.4,27.3,64.4,27.3z"/>
						<path fill="#808181" d="M65,29.2L65,29.2L65,29.2z"/>
						<path fill="#808181" d="M62.9,25.5C62.9,25.5,62.9,25.5,62.9,25.5C62.9,25.5,62.9,25.5,62.9,25.5z"/>
						<path fill="#808181" d="M64.8,32.2L64.8,32.2C64.8,32.2,64.8,32.2,64.8,32.2z"/>
						<polygon fill="#808181" points="65.2,30.8 65.2,30.8 65.2,30.8 						"/>
						<path fill="#808181" d="M56.8,23.7L56.8,23.7C56.8,23.7,56.8,23.7,56.8,23.7z"/>
						<path fill="#808181" d="M51.2,32.3c0-0.1,0.1,0.2,0.1,0C51.3,32.3,51.2,32.2,51.2,32.3z"/>
						<path fill="#808181" d="M64.9,29.5L64.9,29.5C64.9,29.5,64.9,29.5,64.9,29.5z"/>
						<polygon fill="#808181" points="51.3,32.3 51.3,32.3 51.3,32.3 						"/>
						<path fill="#808181" d="M54.2,24.9C54.2,24.9,54.2,24.9,54.2,24.9C54.2,24.9,54.2,24.9,54.2,24.9z"/>
						<path fill="#808181" d="M56.1,24L56.1,24C56.1,24,56.1,24,56.1,24z"/>
						<path fill="#808181" d="M53.3,25.6C53.3,25.6,53.3,25.6,53.3,25.6C53.3,25.7,53.3,25.7,53.3,25.6
							C53.3,25.6,53.3,25.6,53.3,25.6z"/>
						<polygon fill="#808181" points="52.6,26.4 52.6,26.4 52.6,26.4 						"/>
						<path fill="#808181" d="M63.3,35.2C63.4,35.2,63.4,35.2,63.3,35.2C63.4,35.1,63.5,35,63.3,35.2z"/>
						<path fill="#808181" d="M64.9,29.6C64.9,29.5,64.9,29.5,64.9,29.6L64.9,29.6C64.9,29.6,64.9,29.6,64.9,29.6z"/>
						<path fill="#808181" d="M53.6,25.9l-0.1,0.1C53.5,26,53.6,26,53.6,25.9z"/>
						<path fill="#808181" d="M56.3,37.3L56.3,37.3C56.4,37.3,56.3,37.3,56.3,37.3z"/>
						<path fill="#808181" d="M53.1,26.4C53.1,26.4,53.1,26.5,53.1,26.4C53,26.5,53,26.5,53.1,26.4L53.1,26.4z"/>
						<path fill="#808181" d="M63.4,35.2L63.4,35.2L63.4,35.2z"/>
						<path fill="#808181" d="M64,34.2c-0.1,0.1,0,0.1,0,0.2c-0.1,0.2-0.1,0.1-0.2,0.1c0,0.1,0,0.2-0.1,0.3c0,0,0,0,0,0
							c0,0.1-0.2,0.3-0.3,0.5c0,0,0,0,0,0c0,0,0.1,0,0.1,0c0,0.1-0.1,0.1-0.1,0.1c0,0,0,0,0-0.1l0,0.1c-0.1,0,0.1-0.1,0-0.1
							c-0.1,0.1-0.2,0.3-0.3,0.4c-0.1,0,0.2-0.2,0-0.1l0.1-0.1c-0.2,0,0.1-0.1-0.1-0.1c-0.2,0.2-0.1,0.2-0.3,0.4c0,0.1,0,0,0,0.1
							c-0.2,0.3-0.3,0.1-0.4,0.3c0,0.1,0,0.1-0.2,0.2l0-0.1c-0.2,0.1,0,0.2-0.3,0.3c0,0,0.1-0.1,0.1-0.1c-0.2,0-0.1,0.1-0.2,0.2
							l-0.1,0c-0.2,0.1-0.4,0.3-0.6,0.4c0,0,0-0.1,0-0.1c-0.3,0.2-0.7,0.3-1,0.4l-0.1,0.1c0,0-0.1,0,0,0c-0.1,0,0,0,0,0.1
							c-0.1,0-0.1,0-0.1,0c-0.2,0.1-0.6,0.3-0.8,0.2l0,0c-0.2,0-0.2,0.1-0.4,0.1l0,0c-0.4,0-0.8,0.1-1.1,0c-0.1,0.1-0.4-0.1-0.4,0
							c-0.2-0.1-0.2-0.1-0.5-0.2c-0.1,0-0.1,0-0.2,0l0-0.1l-0.2,0l-0.1-0.1l-0.1,0c0,0,0.1,0,0.1,0.1c-0.2,0-0.4-0.1-0.3-0.2
							l-0.4-0.1c0,0,0.1,0,0.1,0c-0.2,0,0-0.1-0.2-0.1c0,0,0,0,0,0c-0.1-0.1-0.2-0.2-0.4-0.2l0,0c-0.2-0.1-0.5-0.3-0.8-0.4
							c0.1,0.1,0,0.1-0.1,0.1l0-0.1c-0.1,0,0.1,0.1-0.1,0c-0.1-0.1,0-0.1,0-0.1l-0.1-0.1c0,0,0,0,0.1,0c-0.1,0-0.2-0.2-0.3-0.2l0,0
							c-0.2-0.2-0.3-0.3-0.5-0.4c0,0-0.1,0-0.2-0.1c-0.1-0.1-0.2-0.3-0.4-0.5c-0.1-0.1-0.1,0-0.1,0c0,0-0.1-0.2,0-0.1
							c-0.2-0.2-0.2-0.3-0.4-0.5c0,0,0,0.1,0,0.1c0,0-0.1-0.1,0-0.1l0,0c-0.3-0.3-0.3-0.8-0.5-1.1l0,0l-0.2-0.3c0-0.1,0.1,0.1,0.1,0
							c-0.2-0.3-0.1-0.5-0.3-0.8c0.1-0.2-0.2-0.7-0.1-1l0,0c0-0.1,0-0.1,0-0.1c0,0,0,0.1,0,0c-0.1-0.6,0.1-1.3,0.3-1.9
							c0.1-0.2-0.1-0.2,0-0.4l0,0.1c0.1-0.5,0.3-0.9,0.5-1.3c0,0,0,0,0,0.1c0.1-0.1,0.2-0.3,0.2-0.3c0-0.1,0,0,0.1,0
							c0.1-0.1,0.1-0.2,0.1-0.3c0,0,0,0,0,0c0-0.1,0.2-0.2,0.1-0.2c0.1-0.1,0.2-0.3,0.3-0.4c0-0.1,0.2-0.2,0.2-0.3
							c0.1,0.1,0.3-0.2,0.3-0.3c0,0,0.1,0,0.1,0c0.1-0.1,0.2-0.2,0.1-0.2c0.2-0.1,0.3-0.4,0.5-0.3c0.3-0.3,0.6-0.5,0.8-0.6
							c0,0.1-0.3,0.2-0.3,0.3c0.2-0.2,0.4-0.3,0.7-0.5c0.1,0,0,0.1,0,0.1c0.3-0.2,0.6-0.2,0.8-0.3c0,0,0,0-0.1,0
							c0.1,0,0.1,0,0.1-0.1l-0.1,0c-0.1,0,0.2-0.2,0.2-0.2c-0.1,0.1,0.3,0,0.2,0.1c0,0,0.1,0,0.1-0.1c0.1,0,0.1,0,0,0
							c0.2-0.1,0.1-0.1,0.3-0.1c0,0,0,0,0,0.1c0.1,0,0.2-0.1,0.3-0.1c0,0,0,0,0,0c0.3-0.1,0.4-0.1,0.7-0.1c-0.1,0.1,0.1,0,0.1,0.1
							c0.1,0,0.1,0,0.2,0l-0.1,0c0.1,0,0.3,0,0.4,0l-0.1,0l0.3,0l-0.1,0c0.1,0,0-0.1,0.2-0.1c0,0,0.1,0,0.2,0.1l0,0
							c0.1,0,0.1,0,0.2,0c0,0,0,0.1,0,0.1c0.1,0,0.3,0,0.4,0c0,0,0,0,0,0.1l0.1,0c0.1,0,0.1,0,0,0.1c0.2,0.1,0-0.1,0.2,0
							c0,0,0,0,0,0c0.2,0.1,0.4,0.1,0.6,0.2c0,0.1-0.2,0-0.1,0c0.3,0.1,0.6,0.1,0.9,0.3l0,0c0.1-0.1,0.2,0.1,0.3,0.2
							c0,0-0.1,0-0.1,0c0.2,0.1,0.4,0.2,0.6,0.3l0,0c0.1,0.1,0.2,0.2,0.3,0.3c0,0,0.1,0,0.1,0c0.2,0.4,0.6,0.4,0.8,0.8
							c0,0-0.1-0.1-0.1,0l0.2,0.2c0,0,0,0,0-0.1c0,0,0.1,0.1,0.2,0.1c-0.1-0.1,0,0,0,0.1c0,0,0,0,0,0c0,0.2,0.1,0,0.2,0.2l0,0
							c0.1,0.1,0.1,0.1,0.2,0.2c0,0.1-0.1-0.1-0.1,0c0.1,0.1,0.2,0.1,0.2,0.3c0,0-0.1-0.1-0.1-0.1c0,0.1,0,0.1,0.1,0.2l0,0l0.1,0.2
							l0-0.1c0.2,0.1,0.2,0.2,0.4,0.4c-0.2-0.1-0.1,0-0.1,0c0,0.1,0,0.1,0,0.1c0.1,0.1,0,0.2,0.2,0.3c0,0,0,0.1,0,0.1
							c0.1,0.1,0,0,0,0c0.1,0.2,0.1,0.4,0.3,0.7c0.1,0.2,0.2,0.2,0.3,0.5c0,0.1-0.1,0-0.1,0c0,0.1,0,0.2,0.1,0.3c0,0,0,0,0,0
							c0,0.1,0.1,0,0.1,0.2c0,0-0.1,0-0.1-0.1c0,0.1,0.1,0.2,0.1,0.3c0,0-0.1-0.1-0.1-0.1c0,0.1,0.1,0.3,0.1,0.4l0-0.1
							c0,0,0,0-0.1,0c-0.1-0.1,0-0.2,0-0.2l0,0.1c0.1-0.1-0.1-0.3-0.1-0.5l0.1,0.1L65,29.4c0,0,0.1-0.1,0.1,0c0-0.1-0.1-0.1,0-0.2
							c0,0,0,0,0,0L65,29.1c0,0,0,0,0.1,0c0-0.2-0.1-0.3-0.1-0.4l0,0c-0.1-0.3-0.1,0-0.2-0.2l0.1-0.2l-0.1,0c0,0,0-0.1,0-0.1
							c-0.1-0.1,0,0-0.1,0c0-0.2-0.2-0.4-0.1-0.4c-0.1,0,0,0.1-0.1,0c0.1-0.1-0.1-0.1-0.1-0.3c0.1,0,0.1,0.1,0.1,0
							c-0.1,0-0.1-0.2-0.2-0.3c-0.1,0-0.1-0.2-0.3-0.3c0,0-0.2-0.3-0.3-0.5l0,0c-0.1,0-0.2-0.1-0.3-0.2c0,0,0.1,0,0.1,0l-0.1-0.1
							c0,0-0.1,0-0.1-0.1l0.1,0c-0.1-0.1-0.3-0.2-0.4-0.4c0,0,0,0.2-0.2,0.1c0,0,0-0.1,0.1,0c0,0-0.1,0-0.1-0.1l0.1,0
							c-0.1-0.1-0.1,0-0.1-0.1c0,0,0-0.1,0-0.1c0,0,0,0.1,0.1,0.1c-0.1-0.1-0.1-0.1-0.1-0.2c0,0,0,0-0.1,0c-0.1-0.1,0-0.1-0.1-0.1
							c0,0-0.1-0.1-0.1,0c0,0,0-0.1,0-0.1c-0.1,0-0.3-0.2-0.3-0.1l0,0l0,0l0,0l0,0c-0.2-0.1-0.5-0.3-0.7-0.5l0,0
							c-0.1-0.1-0.3-0.1-0.4-0.2c0,0-0.1-0.1-0.1-0.1c-0.1,0-0.1,0-0.3-0.1c0.1,0,0,0,0.1,0c-0.1-0.1-0.2-0.1-0.4-0.1
							c0.1,0-0.1-0.1-0.2-0.1l0.1,0.1c-0.1,0-0.2-0.1-0.2-0.1l0.1,0c-0.3-0.2-0.6,0-0.8-0.2c-0.1,0,0.2,0.1,0.1,0.1
							c-0.1,0-0.3-0.1-0.3-0.2c-0.2-0.1-0.2,0.1-0.4,0c0,0,0,0.1-0.1,0.1c-0.1,0-0.2-0.1-0.1-0.1c0,0,0.1,0,0.1,0c0,0,0.1,0,0.1,0
							l0,0c-0.1,0-0.3,0-0.2-0.1c-0.1,0-0.1,0,0,0.1c-0.2,0-0.3,0-0.5,0c0,0,0.1,0,0,0c-0.3,0-0.1,0-0.3,0.1c-0.1,0,0-0.1-0.2,0
							c-0.1,0,0-0.1,0-0.1c-0.2,0-0.3,0-0.5,0l0.1,0c-0.1,0-0.1,0-0.2,0l0.1,0c-0.1,0-0.1,0-0.1,0c-0.1,0,0.1,0.1-0.1,0.1
							c-0.1,0-0.2,0.1-0.3,0c0.2,0,0-0.1,0.2-0.1c0,0-0.1,0-0.1,0c0,0,0,0,0,0c-0.2,0-0.1,0.1-0.3,0.1c0,0-0.1,0-0.1,0
							c0.1,0,0.1,0,0,0.1c-0.2,0-0.2,0.1-0.2,0.1l0.1,0c0,0-0.1,0.1-0.2,0.1c0,0,0.1,0,0,0c-0.1,0.1-0.3,0-0.4,0.1
							c-0.1,0,0-0.1-0.1,0c-0.2,0.1-0.2,0-0.4,0.2c0.1,0,0.1,0,0,0.1l0.3-0.2l-0.2,0.1c0.1,0,0.2-0.1,0.2-0.1
							c-0.1,0.1-0.1,0.1,0,0.1c-0.1,0-0.2,0.1-0.4,0.2l0-0.1c-0.2,0-0.3,0.2-0.6,0.4l0.1,0c0,0.1-0.2,0.1-0.2,0.2c0,0-0.1,0-0.1,0
							c0,0-0.2,0.1-0.2,0.2l-0.1,0c-0.2,0.1-0.2,0.2-0.3,0.4c0-0.1-0.1,0,0-0.2c-0.1,0.1-0.1,0.1-0.1,0.1c0,0-0.1,0.2-0.2,0.2
							c0,0,0,0.1-0.1,0.1c0,0,0,0,0,0c0,0-0.1,0.1,0,0.1c-0.2,0.1-0.4,0.5-0.6,0.6c-0.1,0.1-0.2,0.3-0.3,0.4c0,0,0,0,0,0
							c-0.1,0.2,0,0.2-0.1,0.3c-0.1,0.1,0-0.1,0-0.1c-0.1,0-0.1,0.2-0.3,0.4l0,0c-0.1,0.1-0.1,0.3-0.2,0.5c0,0,0,0,0,0
							c0,0.1-0.1,0.4-0.1,0.6c0-0.1,0-0.1-0.1-0.1c0,0.1,0.1,0,0,0.2c0,0-0.1,0.2-0.2,0.2c0-0.1,0-0.1,0.1-0.2
							c-0.1,0.1-0.1,0.2-0.1,0.3l0,0c-0.1,0.2,0,0.3-0.1,0.5l0,0c0,0.2-0.1,0.1,0,0.3l-0.1,0c0,0.1,0,0.3,0,0.5
							c-0.1-0.1,0-0.3-0.1-0.4c0,0.1,0,0.3,0,0.4c0,0,0-0.1,0-0.1c0,0.1,0.1,0.3,0.1,0.5c-0.1,0-0.1,0.5-0.2,0.6
							c0.1,0.3,0,0.7,0.1,1.1c0.1-0.2,0,0.1,0.1,0.1c0,0.1,0,0.1,0,0.1l0,0.3c0,0.1,0-0.1-0.1-0.1c0,0.2,0,0.1,0,0.2
							c0,0,0.1,0.1,0.1,0.2l0-0.2c0.1,0.3,0,0.3,0.1,0.5l-0.1-0.1c0.1,0.1,0.2,0.5,0.3,0.6c0,0,0,0.1-0.1,0c0.1,0.3,0.4,0.6,0.5,0.9
							l0,0c0,0.1,0.1,0.1,0.1,0.1c0,0,0,0,0,0c0,0,0.1,0.1,0.2,0.2l-0.1,0c0.2,0.3,0.4,0.4,0.6,0.6c-0.1,0.1,0.1,0.3,0.2,0.4l0,0
							c0.3,0.3,0.5,0.4,0.9,0.6c0.1,0.2,0.6,0.5,0.9,0.7c0,0,0-0.1,0.1,0c0.1,0.1,0.2,0.1,0.2,0.1l0,0c0,0.1,0.2,0.2,0.3,0.2
							l0.1-0.1c0.3,0.3,0.9,0.2,1.1,0.4c0.1,0,0.2,0,0.3,0l0,0.1c0.2,0,0.4,0.1,0.7,0.1l-0.1,0c0.2,0,0.2-0.1,0.4-0.1l0,0.1
							c0.3,0,0.6,0.1,0.9,0c0,0,0,0-0.1,0c0.1,0,0.5,0,0.5-0.1c0,0.1,0.3,0,0.4-0.1l0,0.1c0.1-0.1,0.1-0.1,0.3-0.2c0,0,0,0,0,0
							c0.1,0,0.1-0.1,0.3-0.1l-0.1,0c0.1,0,0.1,0,0.2-0.1c0.1-0.1,0.3-0.1,0.3,0c0,0,0.1-0.1,0.2-0.1c0,0,0,0,0,0
							c0.3,0,0.3-0.2,0.5-0.2c0,0,0,0,0,0c-0.2,0.1-0.3,0.2-0.3,0.1c0,0,0.2,0,0.1,0.1c0.1-0.1,0.3-0.3,0.4-0.3c0,0,0,0,0,0l0,0
							c0,0,0.1,0,0.1-0.1c0,0,0.1,0,0.1-0.1c0,0,0.2-0.1,0.2-0.1c0,0,0.1-0.1,0-0.1c0,0,0,0-0.1,0c0,0,0,0,0,0l0,0
							c0,0-0.1,0.1-0.2,0.1c0-0.1,0.1-0.1,0.2-0.1c0-0.1,0-0.1,0.1-0.1c0.1,0,0.3-0.1,0.4-0.1c0.2-0.2,0.5-0.4,0.5-0.5
							c0-0.1,0.1,0,0.1,0c0,0-0.1,0.1-0.1,0.1c0.1-0.1,0.3-0.3,0.3-0.4c0.1-0.1,0,0.1,0.1-0.1l0,0c0.4-0.3,0.4-0.7,0.8-1
							c0,0,0,0-0.1,0c0.4-0.5,0.6-1.1,0.9-1.6c0.1-0.2,0-0.2,0-0.3l0.1,0l0-0.2c0-0.3,0.3-0.4,0.2-0.7l0,0c0-0.1,0-0.4,0.1-0.3
							c0,0,0,0,0-0.1l0,0c0-0.1,0-0.2,0-0.3c0-0.2,0.1,0,0.1-0.3c0-0.1-0.1-0.3-0.1-0.3c0,0,0,0.1-0.1,0.1l0-0.1
							c-0.1,0-0.2-0.1-0.2,0.2l0,0.2l0,0.1l0-0.1c0,0.1,0,0.1,0,0.2c0,0,0,0-0.1,0.1l0.1,0.2c0,0-0.1-0.1-0.1,0
							c0,0.1,0.1-0.1,0.1,0.1c-0.1,0.1-0.1,0-0.1,0.2c0,0,0,0,0-0.1c0,0.1,0,0.2,0,0.3c-0.1,0.1,0,0.3-0.1,0.3c0,0,0,0.2,0,0.2
							c-0.1-0.2-0.1,0.3-0.2,0.2c0.1,0.1-0.1,0.4-0.1,0.6c0,0,0,0,0-0.1c0,0.1-0.1,0.1-0.1,0.2c0.1,0,0,0.2,0,0.3
							c-0.1,0.1,0-0.1-0.1-0.1c0.1,0,0,0.2,0,0.2c-0.1,0.1-0.1,0.1-0.1,0.1c0.1,0.1,0,0.1,0,0.2C64,34.2,64,34.1,64,34.2
							C63.9,34.3,64,34.2,64,34.2z M61.3,36.9L61.3,36.9C61.4,36.8,61.4,36.8,61.3,36.9C61.4,36.8,61.4,36.8,61.3,36.9z M61,37
							c0,0,0.1,0,0.1-0.1c0,0,0,0,0,0C61.2,37,61.1,37,61,37z M61.8,37C61.8,37,61.8,37,61.8,37C61.8,37,61.8,37,61.8,37L61.8,37
							C61.8,37,61.8,37,61.8,37z"/>
						<polygon fill="#808181" points="61.9,36.9 61.9,36.9 61.9,36.9 61.9,36.9 						"/>
						<path fill="#808181" d="M62.3,25.1L62.3,25.1C62.3,25.1,62.3,25.1,62.3,25.1L62.3,25.1z"/>
						<polygon fill="#808181" points="56.7,37.4 56.7,37.4 56.7,37.4 						"/>
						<path fill="#808181" d="M63.5,26.5C63.5,26.5,63.5,26.5,63.5,26.5C63.5,26.5,63.5,26.5,63.5,26.5z"/>
						<path fill="#808181" d="M64,27.1l0,0.1C64,27.2,64,27.1,64,27.1z"/>
						<path fill="#808181" d="M64.2,27.6C64.3,27.6,64.3,27.6,64.2,27.6L64.2,27.6L64.2,27.6z"/>
						<path fill="#808181" d="M56.2,24.3L56.2,24.3C56.2,24.4,56.2,24.4,56.2,24.3z"/>
						<path fill="#808181" d="M59,24C59,24,58.9,24,59,24C59,24,59,24,59,24z"/>
						<polygon fill="#808181" points="53.6,25.9 53.6,25.9 53.6,25.9 						"/>
						<path fill="#808181" d="M58.8,24c0,0,0.1,0,0.1,0C58.9,24,58.8,24,58.8,24z"/>
						<polygon fill="#808181" points="65,30.1 65,30.1 65,30.1 						"/>
						<path fill="#808181" d="M65,30.1L65,30.1C65,30.1,65,30.1,65,30.1z"/>
						<path fill="#808181" d="M65,30.2L65,30.2C65,30.2,65,30.2,65,30.2z"/>
						<path fill="#808181" d="M64.9,29.3L64.9,29.3C64.8,29.3,64.8,29.3,64.9,29.3z"/>
						<path fill="#808181" d="M64.8,29.1c0,0.1,0,0.1,0,0.2l0,0C64.8,29.3,64.8,29.1,64.8,29.1z"/>
						<path fill="#808181" d="M64.7,28l0.1,0.2c0,0,0-0.1,0.1,0C64.8,28,64.8,28.3,64.7,28z"/>
						<path fill="#808181" d="M64.4,27.4C64.5,27.5,64.5,27.4,64.4,27.4C64.4,27.4,64.4,27.4,64.4,27.4z"/>
						<path fill="#808181" d="M61.1,24.3L61.1,24.3C61,24.3,61.1,24.3,61.1,24.3z"/>
						<path fill="#808181" d="M60.2,24.3C60.2,24.3,60.2,24.3,60.2,24.3l0.1,0C60.3,24.3,60.2,24.3,60.2,24.3z"/>
						<polygon fill="#808181" points="59.8,23.8 59.8,23.8 59.7,23.8 						"/>
						<path fill="#808181" d="M52.7,26.3L52.7,26.3C52.8,26.2,52.7,26.2,52.7,26.3z"/>
						<path fill="#808181" d="M51.3,29.3c0,0-0.1,0.1-0.1,0.2C51.2,29.4,51.3,29.4,51.3,29.3z"/>
						<polygon fill="#808181" points="55.7,37.6 55.6,37.6 55.8,37.6 						"/>
					</g>
				</g>
			</g>
		</g>
	</g>
	<g>
		<circle fill="#F5D4B8" cx="45.2" cy="43.9" r="7"/>
		<g>
			<g>
				<g>
					<g>
						<path fill="#808181" d="M52.1,43.9C52.1,44,52.1,43.9,52.1,43.9L52.1,43.9L52.1,43.9z"/>
						<path fill="#808181" d="M52.2,43.5c0-0.1-0.1-0.2-0.1-0.1C52.1,43.5,52.1,43.5,52.2,43.5c0,0.1,0,0.2-0.1,0.2c0,0,0,0.1,0,0.1
							C52.2,43.7,52.2,43.6,52.2,43.5C52.1,43.5,52.1,43.5,52.2,43.5z"/>
						<path fill="#808181" d="M49.3,38.2L49.3,38.2C49.3,38.2,49.3,38.2,49.3,38.2z"/>
						<path fill="#808181" d="M45.7,36.9C45.7,36.9,45.7,36.9,45.7,36.9C45.7,36.9,45.7,36.9,45.7,36.9z"/>
						<path fill="#808181" d="M45,36.8C45,36.8,45.1,36.8,45,36.8C45,36.8,45,36.8,45,36.8z"/>
						<path fill="#808181" d="M49.3,38.2L49.3,38.2C49.2,38.1,49.3,38.2,49.3,38.2z"/>
						<path fill="#808181" d="M51.9,42.7C51.9,42.7,51.9,42.7,51.9,42.7L51.9,42.7L51.9,42.7z"/>
						<path fill="#808181" d="M50.6,39.3L50.6,39.3C50.6,39.3,50.7,39.3,50.6,39.3L50.6,39.3z"/>
						<path fill="#808181" d="M51.4,40.4C51.4,40.4,51.3,40.4,51.4,40.4C51.3,40.4,51.3,40.4,51.4,40.4
							C51.4,40.4,51.4,40.4,51.4,40.4z"/>
						<path fill="#808181" d="M52.1,42.4L52.1,42.4L52.1,42.4z"/>
						<path fill="#808181" d="M50,38.6C50,38.6,50,38.6,50,38.6C50,38.6,50,38.6,50,38.6z"/>
						<path fill="#808181" d="M51.8,45.4L51.8,45.4C51.8,45.4,51.8,45.4,51.8,45.4z"/>
						<polygon fill="#808181" points="52.2,43.9 52.2,43.9 52.2,44 						"/>
						<path fill="#808181" d="M43.8,36.8L43.8,36.8C43.8,36.8,43.8,36.8,43.8,36.8z"/>
						<path fill="#808181" d="M38.2,45.4c0-0.1,0.1,0.2,0.1,0C38.3,45.5,38.2,45.3,38.2,45.4z"/>
						<path fill="#808181" d="M51.9,42.6L51.9,42.6C51.9,42.6,51.9,42.6,51.9,42.6z"/>
						<polygon fill="#808181" points="38.3,45.4 38.3,45.4 38.3,45.4 						"/>
						<path fill="#808181" d="M41.2,38C41.2,38,41.2,38,41.2,38C41.2,38,41.2,38,41.2,38z"/>
						<path fill="#808181" d="M43.1,37.1L43.1,37.1C43.1,37.1,43.1,37.1,43.1,37.1z"/>
						<path fill="#808181" d="M40.4,38.7C40.3,38.7,40.3,38.7,40.4,38.7C40.3,38.8,40.3,38.8,40.4,38.7
							C40.3,38.8,40.3,38.7,40.4,38.7z"/>
						<polygon fill="#808181" points="39.6,39.6 39.6,39.6 39.6,39.5 						"/>
						<path fill="#808181" d="M50.4,48.3C50.4,48.3,50.4,48.3,50.4,48.3C50.4,48.3,50.5,48.1,50.4,48.3z"/>
						<path fill="#808181" d="M51.9,42.7C51.9,42.7,51.9,42.7,51.9,42.7L51.9,42.7C51.9,42.7,51.9,42.7,51.9,42.7z"/>
						<path fill="#808181" d="M40.6,39.1l-0.1,0.1C40.5,39.1,40.6,39.1,40.6,39.1z"/>
						<path fill="#808181" d="M43.4,50.4L43.4,50.4C43.4,50.4,43.4,50.4,43.4,50.4z"/>
						<path fill="#808181" d="M40.2,39.6C40.1,39.6,40.1,39.6,40.2,39.6C40.1,39.6,40.1,39.6,40.2,39.6L40.2,39.6z"/>
						<path fill="#808181" d="M50.4,48.3L50.4,48.3L50.4,48.3z"/>
						<path fill="#808181" d="M51,47.3c-0.1,0.1,0,0.1,0,0.2c-0.1,0.2-0.1,0.1-0.2,0.1c0,0.1,0,0.2-0.1,0.3c0,0,0,0,0,0
							c0,0.1-0.2,0.3-0.3,0.5c0,0,0,0,0,0c0,0,0.1,0,0.1,0c0,0.1-0.1,0.1-0.1,0.1c0,0,0,0,0-0.1l0,0.1c-0.1,0,0.1-0.1,0-0.1
							c-0.1,0.1-0.2,0.3-0.3,0.4c-0.1,0,0.2-0.2,0-0.1l0.1-0.1c-0.2,0,0.1-0.1-0.1-0.1c-0.2,0.2-0.1,0.2-0.3,0.4c0,0.1,0,0,0,0.1
							c-0.2,0.3-0.3,0.1-0.4,0.3c0,0.1,0,0.1-0.2,0.2l0-0.1c-0.2,0.1,0,0.2-0.3,0.3c0,0,0.1-0.1,0.1-0.1c-0.2,0-0.1,0.1-0.2,0.2
							l-0.1,0c-0.2,0.1-0.4,0.3-0.6,0.4c0,0,0-0.1,0-0.1c-0.3,0.2-0.7,0.3-1,0.4l-0.1,0.1c0,0-0.1,0,0,0c-0.1,0,0,0,0,0.1
							c-0.1,0-0.1,0-0.1,0c-0.2,0.1-0.6,0.3-0.8,0.2l0,0c-0.2,0-0.2,0.1-0.4,0.1l0,0c-0.4,0-0.8,0.1-1.1,0c-0.1,0.1-0.4-0.1-0.4,0
							c-0.2-0.1-0.2-0.1-0.5-0.2c-0.1,0-0.1,0-0.2,0l0-0.1l-0.2,0l-0.1-0.1l-0.1,0c0,0,0.1,0,0.1,0.1c-0.2,0-0.4-0.1-0.3-0.2
							l-0.4-0.1c0,0,0.1,0,0.1,0c-0.2,0,0-0.1-0.2-0.1c0,0,0,0,0,0c-0.1-0.1-0.2-0.2-0.4-0.2l0,0c-0.2-0.1-0.5-0.3-0.8-0.4
							c0.1,0.1,0,0.1-0.1,0.1l0-0.1c-0.1,0,0.1,0.1-0.1,0c-0.1-0.1,0-0.1,0-0.1l-0.1-0.1c0,0,0,0,0.1,0c-0.1,0-0.2-0.2-0.3-0.2l0,0
							c-0.2-0.2-0.3-0.3-0.5-0.4c0,0-0.1,0-0.2-0.1c-0.1-0.1-0.2-0.3-0.4-0.5c-0.1-0.1-0.1,0-0.1,0c0,0-0.1-0.2,0-0.1
							c-0.2-0.2-0.2-0.3-0.4-0.5c0,0,0,0.1,0,0.1c0,0-0.1-0.1,0-0.1l0,0c-0.3-0.3-0.3-0.8-0.5-1.1l0,0l-0.2-0.3c0-0.1,0.1,0.1,0.1,0
							c-0.2-0.3-0.1-0.5-0.3-0.8c0.1-0.2-0.2-0.7-0.1-1l0,0c0-0.1,0-0.1,0-0.1c0,0,0,0.1,0,0c-0.1-0.6,0.1-1.3,0.3-1.9
							c0.1-0.2-0.1-0.2,0-0.4l0,0.1c0.1-0.5,0.3-0.9,0.5-1.3c0,0,0,0,0,0.1c0.1-0.1,0.2-0.3,0.2-0.3c0-0.1,0,0,0.1,0
							c0.1-0.1,0.1-0.2,0.1-0.3c0,0,0,0,0,0c0-0.1,0.2-0.2,0.1-0.2c0.1-0.1,0.2-0.3,0.3-0.4c0-0.1,0.2-0.2,0.2-0.3
							c0.1,0.1,0.3-0.2,0.3-0.3c0,0,0.1,0,0.1,0c0.1-0.1,0.2-0.2,0.1-0.2c0.2-0.1,0.3-0.4,0.5-0.3c0.3-0.3,0.6-0.5,0.8-0.6
							c0,0.1-0.3,0.2-0.3,0.3c0.2-0.2,0.4-0.3,0.7-0.5c0.1,0,0,0.1,0,0.1c0.3-0.2,0.6-0.2,0.8-0.3c0,0,0,0-0.1,0
							c0.1,0,0.1,0,0.1-0.1l-0.1,0c-0.1,0,0.2-0.2,0.2-0.2c-0.1,0.1,0.3,0,0.2,0.1c0,0,0.1,0,0.1-0.1c0.1,0,0.1,0,0,0
							c0.2-0.1,0.1-0.1,0.3-0.1c0,0,0,0,0,0.1c0.1,0,0.2-0.1,0.3-0.1c0,0,0,0,0,0c0.3-0.1,0.4-0.1,0.7-0.1c-0.1,0.1,0.1,0,0.1,0.1
							c0.1,0,0.1,0,0.2,0l-0.1,0c0.1,0,0.3,0,0.4,0l-0.1,0l0.3,0l-0.1,0c0.1,0,0-0.1,0.2-0.1c0,0,0.1,0,0.2,0.1l0,0
							c0.1,0,0.1,0,0.2,0c0,0,0,0.1,0,0.1c0.1,0,0.3,0,0.4,0c0,0,0,0,0,0.1l0.1,0c0.1,0,0.1,0,0,0.1c0.2,0.1,0-0.1,0.2,0
							c0,0,0,0,0,0c0.2,0.1,0.4,0.1,0.6,0.2c0,0.1-0.2,0-0.1,0c0.3,0.1,0.6,0.1,0.9,0.3l0,0c0.1-0.1,0.2,0.1,0.3,0.2
							c0,0-0.1,0-0.1,0c0.2,0.1,0.4,0.2,0.6,0.3l0,0c0.1,0.1,0.2,0.2,0.3,0.3c0,0,0.1,0,0.1,0c0.2,0.4,0.6,0.4,0.8,0.8
							c0,0-0.1-0.1-0.1,0l0.2,0.2c0,0,0,0,0-0.1c0,0,0.1,0.1,0.2,0.1c-0.1-0.1,0,0,0,0.1c0,0,0,0,0,0c0,0.2,0.1,0,0.2,0.2l0,0
							c0.1,0.1,0.1,0.1,0.2,0.2c0,0.1-0.1-0.1-0.1,0C50.9,40,51,40,51,40.1c0,0-0.1-0.1-0.1-0.1c0,0.1,0,0.1,0.1,0.2l0,0l0.1,0.2
							l0-0.1c0.2,0.1,0.2,0.2,0.4,0.4c-0.2-0.1-0.1,0-0.1,0c0,0.1,0,0.1,0,0.1c0.1,0.1,0,0.2,0.2,0.3c0,0,0,0.1,0,0.1
							c0.1,0.1,0,0,0,0c0.1,0.2,0.1,0.4,0.3,0.7c0.1,0.2,0.2,0.2,0.3,0.5c0,0.1-0.1,0-0.1,0c0,0.1,0,0.2,0.1,0.3c0,0,0,0,0,0
							c0,0.1,0.1,0,0.1,0.2c0,0-0.1,0-0.1-0.1c0,0.1,0.1,0.2,0.1,0.3c0,0-0.1-0.1-0.1-0.1c0,0.1,0.1,0.3,0.1,0.4l0-0.1
							c0,0,0,0-0.1,0c-0.1-0.1,0-0.2,0-0.2l0,0.1c0.1-0.1-0.1-0.3-0.1-0.5l0.1,0.1L52,42.6c0,0,0.1-0.1,0.1,0c0-0.1-0.1-0.1,0-0.2
							c0,0,0,0,0,0L52,42.3c0,0,0,0,0.1,0c0-0.2-0.1-0.3-0.1-0.4l0,0c-0.1-0.3-0.1,0-0.2-0.2l0.1-0.2l-0.1,0c0,0,0-0.1,0-0.1
							c-0.1-0.1,0,0-0.1,0c0-0.2-0.2-0.4-0.1-0.4c-0.1,0,0,0.1-0.1,0c0.1-0.1-0.1-0.1-0.1-0.3c0.1,0,0.1,0.1,0.1,0
							c-0.1,0-0.1-0.2-0.2-0.3c-0.1,0-0.1-0.2-0.3-0.3c0,0-0.2-0.3-0.3-0.5l0,0c-0.1,0-0.2-0.1-0.3-0.2c0,0,0.1,0,0.1,0l-0.1-0.1
							c0,0-0.1,0-0.1-0.1l0.1,0c-0.1-0.1-0.3-0.2-0.4-0.4c0,0,0,0.2-0.2,0.1c0,0,0-0.1,0.1,0c0,0-0.1,0-0.1-0.1l0.1,0
							c-0.1-0.1-0.1,0-0.1-0.1c0,0,0-0.1,0-0.1c0,0,0,0.1,0.1,0.1C50,38.8,50,38.7,50,38.6c0,0,0,0-0.1,0c-0.1-0.1,0-0.1-0.1-0.1
							c0,0-0.1-0.1-0.1,0c0,0,0-0.1,0-0.1c-0.1,0-0.3-0.2-0.3-0.1l0,0l0,0l0,0l0,0c-0.2-0.1-0.5-0.3-0.7-0.5l0,0
							c-0.1-0.1-0.3-0.1-0.4-0.2c0,0-0.1-0.1-0.1-0.1c-0.1,0-0.1,0-0.3-0.1c0.1,0,0,0,0.1,0c-0.1-0.1-0.2-0.1-0.4-0.1
							c0.1,0-0.1-0.1-0.2-0.1l0.1,0.1c-0.1,0-0.2-0.1-0.2-0.1l0.1,0c-0.3-0.2-0.6,0-0.8-0.2c-0.1,0,0.2,0.1,0.1,0.1
							c-0.1,0-0.3-0.1-0.3-0.2c-0.2-0.1-0.2,0.1-0.4,0c0,0,0,0.1-0.1,0.1c-0.1,0-0.2-0.1-0.1-0.1c0,0,0.1,0,0.1,0c0,0,0.1,0,0.1,0
							l0,0c-0.1,0-0.3,0-0.2-0.1c-0.1,0-0.1,0,0,0.1c-0.2,0-0.3,0-0.5,0c0,0,0.1,0,0,0c-0.3,0-0.1,0-0.3,0.1c-0.1,0,0-0.1-0.2,0
							c-0.1,0,0-0.1,0-0.1c-0.2,0-0.3,0-0.5,0l0.1,0c-0.1,0-0.1,0-0.2,0l0.1,0c-0.1,0-0.1,0-0.1,0c-0.1,0,0.1,0.1-0.1,0.1
							c-0.1,0-0.2,0.1-0.3,0c0.2,0,0-0.1,0.2-0.1c0,0-0.1,0-0.1,0c0,0,0,0,0,0c-0.2,0-0.1,0.1-0.3,0.1c0,0-0.1,0-0.1,0
							c0.1,0,0.1,0,0,0.1c-0.2,0-0.2,0.1-0.2,0.1l0.1,0c0,0-0.1,0.1-0.2,0.1c0,0,0.1,0,0,0c-0.1,0.1-0.3,0-0.4,0.1
							c-0.1,0,0-0.1-0.1,0c-0.2,0.1-0.2,0-0.4,0.2c0.1,0,0.1,0,0,0.1l0.3-0.2l-0.2,0.1c0.1,0,0.2-0.1,0.2-0.1
							c-0.1,0.1-0.1,0.1,0,0.1c-0.1,0-0.2,0.1-0.4,0.2l0-0.1c-0.2,0-0.3,0.2-0.6,0.4l0.1,0c0,0.1-0.2,0.1-0.2,0.2c0,0-0.1,0-0.1,0
							c0,0-0.2,0.1-0.2,0.2l-0.1,0c-0.2,0.1-0.2,0.2-0.3,0.4c0-0.1-0.1,0,0-0.2c-0.1,0.1-0.1,0.1-0.1,0.1c0,0-0.1,0.2-0.2,0.2
							c0,0,0,0.1-0.1,0.1c0,0,0,0,0,0c0,0-0.1,0.1,0,0.1c-0.2,0.1-0.4,0.5-0.6,0.6c-0.1,0.1-0.2,0.3-0.3,0.4c0,0,0,0,0,0
							c-0.1,0.2,0,0.2-0.1,0.3c-0.1,0.1,0-0.1,0-0.1c-0.1,0-0.1,0.2-0.3,0.4l0,0c-0.1,0.1-0.1,0.3-0.2,0.5c0,0,0,0,0,0
							c0,0.1-0.1,0.4-0.1,0.6c0-0.1,0-0.1-0.1-0.1c0,0.1,0.1,0,0,0.2c0,0-0.1,0.2-0.2,0.2c0-0.1,0-0.1,0.1-0.2
							c-0.1,0.1-0.1,0.2-0.1,0.3l0,0c-0.1,0.2,0,0.3-0.1,0.5l0,0c0,0.2-0.1,0.1,0,0.3l-0.1,0c0,0.1,0,0.3,0,0.5
							c-0.1-0.1,0-0.3-0.1-0.4c0,0.1,0,0.3,0,0.4c0,0,0-0.1,0-0.1c0,0.1,0.1,0.3,0.1,0.5c-0.1,0-0.1,0.5-0.2,0.6
							c0.1,0.3,0,0.7,0.1,1.1c0.1-0.2,0,0.1,0.1,0.1c0,0.1,0,0.1,0,0.1l0,0.3c0,0.1,0-0.1-0.1-0.1c0,0.2,0,0.1,0,0.2
							c0,0,0.1,0.1,0.1,0.2l0-0.2c0.1,0.3,0,0.3,0.1,0.5l-0.1-0.1c0.1,0.1,0.2,0.5,0.3,0.6c0,0,0,0.1-0.1,0c0.1,0.3,0.4,0.6,0.5,0.9
							l0,0c0,0.1,0.1,0.1,0.1,0.1c0,0,0,0,0,0c0,0,0.1,0.1,0.2,0.2l-0.1,0c0.2,0.3,0.4,0.4,0.6,0.6c-0.1,0.1,0.1,0.3,0.2,0.4l0,0
							c0.3,0.3,0.5,0.4,0.9,0.6c0.1,0.2,0.6,0.5,0.9,0.7c0,0,0-0.1,0.1,0c0.1,0.1,0.2,0.1,0.2,0.1l0,0c0,0.1,0.2,0.2,0.3,0.2
							l0.1-0.1c0.3,0.3,0.9,0.2,1.1,0.4c0.1,0,0.2,0,0.3,0l0,0.1c0.2,0,0.4,0.1,0.7,0.1l-0.1,0c0.2,0,0.2-0.1,0.4-0.1l0,0.1
							c0.3,0,0.6,0.1,0.9,0c0,0,0,0-0.1,0c0.1,0,0.5,0,0.5-0.1c0,0.1,0.3,0,0.4-0.1l0,0.1c0.1-0.1,0.1-0.1,0.3-0.2c0,0,0,0,0,0
							c0.1,0,0.1-0.1,0.3-0.1l-0.1,0c0.1,0,0.1,0,0.2-0.1c0.1-0.1,0.3-0.1,0.3,0c0,0,0.1-0.1,0.2-0.1c0,0,0,0,0,0
							c0.3,0,0.3-0.2,0.5-0.2c0,0,0,0,0,0c-0.2,0.1-0.3,0.2-0.3,0.1c0,0,0.2,0,0.1,0.1c0.1-0.1,0.3-0.3,0.4-0.3c0,0,0,0,0,0l0,0
							c0,0,0.1,0,0.1-0.1c0,0,0.1,0,0.1-0.1c0,0,0.2-0.1,0.2-0.1c0,0,0.1-0.1,0-0.1c0,0,0,0-0.1,0c0,0,0,0,0,0l0,0
							c0,0-0.1,0.1-0.2,0.1c0-0.1,0.1-0.1,0.2-0.1c0-0.1,0-0.1,0.1-0.1c0.1,0,0.3-0.1,0.4-0.1c0.2-0.2,0.5-0.4,0.5-0.5
							c0-0.1,0.1,0,0.1,0c0,0-0.1,0.1-0.1,0.1c0.1-0.1,0.3-0.3,0.3-0.4c0.1-0.1,0,0.1,0.1-0.1l0,0c0.4-0.3,0.4-0.7,0.8-1
							c0,0,0,0-0.1,0c0.4-0.5,0.6-1.1,0.9-1.6c0.1-0.2,0-0.2,0-0.3l0.1,0l0-0.2c0-0.3,0.3-0.4,0.2-0.7l0,0c0-0.1,0-0.4,0.1-0.3
							c0,0,0,0,0-0.1l0,0c0-0.1,0-0.2,0-0.3c0-0.2,0.1,0,0.1-0.3c0-0.1-0.1-0.3-0.1-0.3c0,0,0,0.1-0.1,0.1l0-0.1
							c-0.1,0-0.2-0.1-0.2,0.2l0,0.2l0,0.1l0-0.1c0,0.1,0,0.1,0,0.2c0,0,0,0-0.1,0.1l0.1,0.2c0,0-0.1-0.1-0.1,0
							c0,0.1,0.1-0.1,0.1,0.1c-0.1,0.1-0.1,0-0.1,0.2c0,0,0,0,0-0.1c0,0.1,0,0.2,0,0.3c-0.1,0.1,0,0.3-0.1,0.3c0,0,0,0.2,0,0.2
							c-0.1-0.2-0.1,0.3-0.2,0.2c0.1,0.1-0.1,0.4-0.1,0.6c0,0,0,0,0-0.1c0,0.1-0.1,0.1-0.1,0.2c0.1,0,0,0.2,0,0.3
							c-0.1,0.1,0-0.1-0.1-0.1c0.1,0,0,0.2,0,0.2C51.2,47,51.2,47,51.2,47c0.1,0.1,0,0.1,0,0.2C51,47.3,51.1,47.2,51,47.3
							C50.9,47.4,51,47.3,51,47.3z M48.4,50L48.4,50C48.4,50,48.4,50,48.4,50C48.4,50,48.4,50,48.4,50z M48.1,50.1
							c0,0,0.1,0,0.1-0.1c0,0,0,0,0,0C48.2,50.1,48.1,50.1,48.1,50.1z M48.9,50.1C48.8,50.2,48.8,50.2,48.9,50.1
							C48.8,50.1,48.8,50.1,48.9,50.1L48.9,50.1C48.9,50.1,48.9,50.1,48.9,50.1z"/>
						<polygon fill="#808181" points="48.9,50 48.9,50 48.9,50 48.9,50 						"/>
						<path fill="#808181" d="M49.3,38.2L49.3,38.2C49.3,38.2,49.3,38.2,49.3,38.2L49.3,38.2z"/>
						<polygon fill="#808181" points="43.7,50.5 43.7,50.5 43.7,50.5 						"/>
						<path fill="#808181" d="M50.5,39.6C50.5,39.6,50.5,39.6,50.5,39.6C50.5,39.6,50.5,39.6,50.5,39.6z"/>
						<path fill="#808181" d="M51,40.2l0,0.1C51,40.3,51,40.3,51,40.2z"/>
						<path fill="#808181" d="M51.3,40.8C51.3,40.8,51.3,40.8,51.3,40.8L51.3,40.8L51.3,40.8z"/>
						<path fill="#808181" d="M43.3,37.5L43.3,37.5C43.2,37.5,43.2,37.5,43.3,37.5z"/>
						<path fill="#808181" d="M46,37.1C46,37.1,46,37.1,46,37.1C46,37.1,46,37.1,46,37.1z"/>
						<polygon fill="#808181" points="40.6,39.1 40.6,39.1 40.6,39.1 						"/>
						<path fill="#808181" d="M45.8,37.1c0,0,0.1,0,0.1,0C45.9,37.1,45.8,37.1,45.8,37.1z"/>
						<polygon fill="#808181" points="52,43.2 52,43.2 52,43.2 						"/>
						<path fill="#808181" d="M52,43.2L52,43.2C52,43.3,52,43.2,52,43.2z"/>
						<path fill="#808181" d="M52,43.3L52,43.3C52,43.3,52,43.3,52,43.3z"/>
						<path fill="#808181" d="M51.9,42.4L51.9,42.4C51.9,42.4,51.9,42.4,51.9,42.4z"/>
						<path fill="#808181" d="M51.8,42.2c0,0.1,0,0.1,0,0.2l0,0C51.8,42.4,51.9,42.2,51.8,42.2z"/>
						<path fill="#808181" d="M51.7,41.2l0.1,0.2c0,0,0-0.1,0.1,0C51.8,41.1,51.8,41.4,51.7,41.2z"/>
						<path fill="#808181" d="M51.5,40.6C51.5,40.7,51.5,40.6,51.5,40.6C51.5,40.5,51.4,40.5,51.5,40.6z"/>
						<path fill="#808181" d="M48.1,37.5L48.1,37.5C48.1,37.4,48.1,37.4,48.1,37.5z"/>
						<path fill="#808181" d="M47.2,37.4C47.2,37.4,47.3,37.4,47.2,37.4l0.1,0C47.3,37.4,47.2,37.4,47.2,37.4z"/>
						<polygon fill="#808181" points="46.8,36.9 46.8,36.9 46.7,36.9 						"/>
						<path fill="#808181" d="M39.7,39.4L39.7,39.4C39.8,39.3,39.7,39.3,39.7,39.4z"/>
						<path fill="#808181" d="M38.3,42.4c0,0-0.1,0.1-0.1,0.2C38.2,42.5,38.3,42.5,38.3,42.4z"/>
						<polygon fill="#808181" points="42.7,50.7 42.7,50.7 42.8,50.7 						"/>
					</g>
				</g>
			</g>
		</g>
	</g>
	<g>
		<circle fill="#F5D4B8" cx="31.3" cy="57.9" r="7"/>
		<g>
			<g>
				<g>
					<g>
						<path fill="#808181" d="M35.8,52.7C35.8,52.7,35.8,52.7,35.8,52.7L35.8,52.7L35.8,52.7z"/>
						<path fill="#808181" d="M35.5,52.3c-0.1,0-0.2,0-0.2,0C35.4,52.4,35.4,52.4,35.5,52.3c0.1,0.1,0.1,0.1,0.1,0.2
							c0,0,0.1,0.1,0.1,0.1C35.7,52.5,35.6,52.4,35.5,52.3C35.5,52.3,35.5,52.3,35.5,52.3z"/>
						<path fill="#808181" d="M29.6,51L29.6,51C29.7,51,29.6,51,29.6,51z"/>
						<path fill="#808181" d="M26.3,52.9C26.3,52.9,26.3,52.8,26.3,52.9C26.3,52.9,26.2,52.9,26.3,52.9z"/>
						<path fill="#808181" d="M25.8,53.3C25.8,53.3,25.8,53.3,25.8,53.3C25.8,53.3,25.8,53.3,25.8,53.3z"/>
						<path fill="#808181" d="M29.6,51l-0.1,0C29.5,51,29.6,51,29.6,51z"/>
						<path fill="#808181" d="M34.7,52C34.7,52,34.8,52,34.7,52L34.7,52L34.7,52z"/>
						<polygon fill="#808181" points="31.3,50.8 31.4,50.8 31.4,50.7 						"/>
						<path fill="#808181" d="M32.6,50.9C32.6,50.9,32.6,50.9,32.6,50.9C32.6,50.9,32.6,50.9,32.6,50.9
							C32.6,50.9,32.6,50.9,32.6,50.9z"/>
						<path fill="#808181" d="M34.6,51.7L34.6,51.7C34.6,51.7,34.6,51.7,34.6,51.7z"/>
						<path fill="#808181" d="M30.4,50.8C30.4,50.8,30.4,50.8,30.4,50.8C30.4,50.8,30.4,50.8,30.4,50.8z"/>
						<path fill="#808181" d="M36.7,53.9L36.7,53.9C36.7,53.8,36.7,53.8,36.7,53.9z"/>
						<polygon fill="#808181" points="35.9,52.6 35.9,52.6 35.9,52.6 						"/>
						<path fill="#808181" d="M25,54.3L25,54.3C25,54.3,25,54.3,25,54.3z"/>
						<path fill="#808181" d="M27.8,64.2C27.7,64.1,28.1,64.2,27.8,64.2C27.9,64.1,27.7,64.1,27.8,64.2z"/>
						<path fill="#808181" d="M34.7,52L34.7,52C34.7,52,34.7,52,34.7,52z"/>
						<polygon fill="#808181" points="27.9,64.1 27.9,64.1 27.9,64.1 						"/>
						<path fill="#808181" d="M24.1,57C24.2,57,24.2,57,24.1,57C24.2,57,24.2,57,24.1,57z"/>
						<path fill="#808181" d="M24.8,55L24.8,55C24.7,55,24.8,55,24.8,55z"/>
						<path fill="#808181" d="M24.2,58.1C24.2,58.2,24.2,58.2,24.2,58.1C24.2,58.2,24.2,58.2,24.2,58.1
							C24.2,58.2,24.2,58.2,24.2,58.1z"/>
						<polygon fill="#808181" points="24.3,59.3 24.3,59.2 24.3,59.2 						"/>
						<path fill="#808181" d="M37.9,56.8C38,56.8,38,56.8,37.9,56.8C38,56.8,37.9,56.6,37.9,56.8z"/>
						<path fill="#808181" d="M34.7,52C34.7,52,34.7,52,34.7,52L34.7,52C34.7,52,34.7,52,34.7,52z"/>
						<path fill="#808181" d="M24.6,58.2l0,0.2C24.6,58.3,24.6,58.2,24.6,58.2z"/>
						<path fill="#808181" d="M35,63.5L35,63.5C35,63.5,35,63.5,35,63.5z"/>
						<path fill="#808181" d="M24.7,58.8c0,0,0,0.1,0,0.1c0,0,0,0,0,0L24.7,58.8z"/>
						<path fill="#808181" d="M38,56.8L38,56.8L38,56.8z"/>
						<path fill="#808181" d="M37.6,55.7c0,0.2,0.1,0.1,0.1,0.1c0.1,0.2,0,0.1,0,0.2c0.1,0.1,0.1,0.2,0.2,0.3c0,0,0,0,0,0
							c0.1,0.1,0.1,0.4,0.2,0.5c0,0,0,0,0,0c0,0,0.1,0,0.1,0c0,0.1,0.1,0.1,0,0.2c0,0,0,0,0-0.1l0,0.1c-0.1,0.1,0-0.1-0.1-0.1
							c0,0.1,0.1,0.3,0.1,0.4c-0.1,0-0.1-0.3-0.1-0.1l0-0.2c-0.1,0.1,0-0.1-0.1,0c0,0.2,0.1,0.3,0.1,0.5c0,0.1,0.1,0,0.1,0
							c0.1,0.3-0.2,0.3-0.1,0.5c0,0.1,0.1,0.1,0.1,0.3L38,58.2c0,0.2,0.1,0.1,0,0.4c0,0,0-0.2,0-0.1c-0.1,0.1,0,0.1,0,0.2l-0.1,0
							c0,0.2,0,0.5-0.1,0.8c0,0,0-0.1-0.1,0c0,0.3-0.2,0.7-0.4,1l0,0.1c0,0,0,0,0,0c-0.1,0.1,0,0,0,0.1c0,0.1-0.1,0.1-0.1,0
							c-0.1,0.2-0.2,0.6-0.4,0.8l0,0c-0.1,0.1,0,0.2-0.1,0.4l0,0c-0.3,0.3-0.5,0.7-0.8,0.8c0,0.1-0.3,0.3-0.2,0.3
							c-0.2,0.1-0.2,0-0.4,0.2c-0.1,0.1-0.1,0.1-0.1,0.2l0,0l-0.1,0.1l-0.1,0L35,63.5c0,0,0.1,0,0.1,0c-0.1,0.1-0.3,0.2-0.4,0.1
							l-0.3,0.2c0,0,0-0.1,0.1-0.1c-0.1,0.1-0.1,0-0.2,0.1c0,0,0,0,0,0c-0.1,0-0.3,0.1-0.4,0.2l0,0c-0.2,0.1-0.5,0.2-0.8,0.3
							c0.1,0,0.1,0.1,0,0.1l-0.1,0c0,0.1,0.1,0,0,0.1c-0.1,0-0.1-0.1,0-0.1l-0.1,0.1c0,0,0,0,0-0.1c0,0-0.2,0-0.3,0.1l0,0
							c-0.3,0.1-0.4,0.1-0.7,0.1c0,0.1-0.1,0.1-0.2,0.1c-0.2,0-0.4,0-0.6,0c-0.2,0,0,0-0.1,0.1c0,0-0.2-0.1-0.1-0.1
							c-0.3,0-0.3,0-0.7,0c0,0,0.1,0,0,0.1c-0.1,0-0.1,0-0.1-0.1l0,0c-0.4,0-0.8-0.3-1.1-0.3l0,0l-0.3-0.1c-0.1-0.1,0.1,0,0-0.1
							c-0.3,0-0.5-0.2-0.7-0.3c-0.1-0.2-0.7-0.4-0.8-0.6l0,0c-0.1,0-0.1-0.1-0.1-0.1c0,0,0,0.1,0,0.1c-0.5-0.3-0.9-0.9-1.3-1.4
							c-0.1-0.2-0.2,0-0.3-0.3l0.1,0c-0.3-0.4-0.5-0.8-0.7-1.3c0,0,0,0,0.1,0.1c0-0.1-0.1-0.3-0.1-0.3c0-0.1,0,0,0-0.1
							c0-0.1-0.1-0.2-0.1-0.3c0,0,0,0,0,0c0-0.1-0.1-0.3-0.1-0.2c0-0.2-0.1-0.3-0.1-0.5c-0.1-0.1,0-0.3-0.1-0.3c0.1,0,0-0.3,0-0.4
							c0,0,0-0.1,0.1-0.1c0-0.1,0-0.2-0.1-0.2c0.1-0.2-0.1-0.5,0.1-0.6c0-0.4,0-0.7,0.1-1.1c0.1,0-0.1,0.4,0,0.4
							c0-0.3,0-0.5,0.1-0.8c0-0.1,0,0.1,0,0.1c0.1-0.3,0.2-0.6,0.3-0.9c0,0,0,0,0,0.1c0-0.1,0.1-0.1,0-0.1l0,0.1
							c-0.1,0.1,0-0.3,0-0.3c0.1,0.1,0.2-0.2,0.2,0c0,0,0-0.1,0-0.1c0,0,0.1-0.1,0.1,0c0.1-0.2,0-0.1,0.1-0.3c0,0,0,0,0,0.1
							c0-0.1,0-0.2,0.1-0.3c0,0,0,0,0,0c0.1-0.2,0.2-0.4,0.4-0.6c0,0.1,0.1-0.1,0.1,0c0,0,0.1-0.1,0.1-0.1l-0.1,0
							c0.1-0.1,0.1-0.2,0.2-0.3l0,0.1l0.2-0.2l-0.1,0.1c0.1-0.1-0.1-0.1,0.1-0.2c0,0,0.1-0.1,0.2-0.1l0,0c0-0.1,0.1-0.1,0.2-0.2
							c0,0,0,0.1,0.1,0.1c0-0.1,0.2-0.2,0.3-0.3c0,0,0,0.1,0,0.1l0-0.1c0.1,0,0.1,0,0.1,0c0.2-0.1-0.1,0,0.1-0.1c0,0,0,0,0,0
							c0.2-0.1,0.3-0.3,0.5-0.4c0.1,0-0.2,0.1-0.1,0.1c0.3-0.2,0.5-0.4,0.8-0.5l-0.1,0c0-0.1,0.2,0,0.3-0.1c0,0,0,0.1,0,0.1
							c0.2,0,0.4-0.2,0.7-0.3l0,0c0.1,0,0.3-0.1,0.4-0.1c0,0,0.1,0,0.1-0.1c0.4,0.1,0.7-0.2,1.1-0.1c0,0-0.1,0-0.1,0l0.3,0
							c0,0,0,0-0.1-0.1c0,0,0.1,0,0.2-0.1c-0.1,0,0,0.1,0.1,0.1c0,0,0,0,0,0c0.2,0.1,0-0.1,0.2,0l0,0c0.1,0,0.2,0,0.2,0
							c0,0.1-0.1,0-0.1,0.1c0.1,0,0.3-0.1,0.4,0c-0.1,0-0.1,0-0.2,0c0.1,0.1,0.1,0.1,0.2,0.1l0,0l0.2,0.1l0,0c0.2-0.1,0.3,0,0.5,0
							c-0.2,0,0,0-0.1,0.1c0,0,0.1,0.1,0.1,0.1c0.1,0,0.1,0.1,0.3,0c0,0,0.1,0,0.1,0.1c0.1,0,0,0,0-0.1c0.2,0,0.4,0.2,0.7,0.2
							c0.2,0.1,0.3,0,0.5,0.1c0.1,0.1-0.1,0-0.1,0c0.1,0.1,0.2,0.1,0.3,0.2c0,0,0,0,0,0.1c0.1,0,0.1,0,0.2,0.1c0,0-0.1,0-0.1,0
							c0.1,0,0.2,0.1,0.3,0.1c0,0-0.1,0-0.1,0c0.1,0.1,0.3,0.1,0.3,0.1l-0.1-0.1c0,0,0,0,0,0c-0.1,0-0.1-0.1-0.1-0.1l0.1,0
							c0-0.1-0.3-0.2-0.4-0.2l0.1,0l-0.2,0c0,0,0-0.1,0.1-0.1c-0.1-0.1-0.1,0-0.2-0.1c0,0,0,0,0,0l-0.1,0c0,0,0-0.1,0.1,0
							c-0.2-0.1-0.3-0.1-0.4-0.2l0,0c-0.3-0.1,0,0-0.3,0l-0.1-0.2l0,0c0,0-0.1,0-0.1-0.1c-0.1,0,0,0-0.1,0c-0.1-0.1-0.4-0.1-0.4-0.2
							c-0.1,0,0.1,0.1,0,0.1c0-0.1-0.2,0-0.3-0.1c0.1,0,0.2,0,0-0.1c-0.1,0.1-0.2-0.1-0.4-0.1c0,0.1-0.2,0-0.4,0
							c0,0-0.3-0.1-0.5-0.1l0,0c0,0.1-0.2,0-0.3,0.1c0,0,0-0.1,0.1-0.1l-0.1,0c0,0-0.1,0-0.1,0l0-0.1c-0.2,0-0.3,0.1-0.5,0
							c0,0,0.2,0.1,0,0.2c0,0,0-0.1,0-0.1c0,0-0.1,0-0.1,0l0.1-0.1c-0.1,0,0,0-0.1,0c0,0-0.1,0-0.1-0.1c0,0,0.1,0,0.1,0
							c-0.1,0-0.2,0-0.2,0c0,0,0,0-0.1,0.1c-0.2,0-0.1,0-0.2,0c0,0-0.1,0-0.1,0.1c0,0-0.1,0-0.1,0c-0.1,0-0.4,0.1-0.3,0.1l0,0l0,0
							l0,0l0,0c-0.3,0.1-0.6,0.1-0.8,0.2l0,0c-0.1,0.1-0.3,0.2-0.4,0.2c0,0-0.1,0-0.1,0c-0.1,0.1-0.1,0.1-0.3,0.1
							c0.1-0.1-0.1,0,0.1-0.1c-0.1,0.1-0.2,0.1-0.3,0.2c0-0.1-0.1,0-0.2,0.1l0.1,0c-0.1,0-0.1,0.1-0.2,0.1l0-0.1
							c-0.3,0.1-0.4,0.4-0.7,0.5c0,0.1,0.2-0.1,0.1,0c-0.1,0.1-0.3,0.1-0.3,0.2c-0.2,0.1-0.1,0.2-0.3,0.3c0,0,0.1,0,0,0.2
							c-0.1,0.1-0.2,0.1-0.1,0c0,0,0,0,0,0c0,0,0.1-0.1,0-0.1l0,0c-0.1,0-0.2,0.2-0.2,0.1c-0.1,0.1,0,0.1,0.1,0
							c-0.2,0.1-0.2,0.2-0.4,0.4c0,0,0.1,0,0,0c-0.2,0.2,0,0.1-0.2,0.3c-0.1,0.1,0-0.1-0.1,0.1c-0.1,0.1-0.1,0,0-0.1
							c-0.1,0.2-0.2,0.3-0.3,0.4l0-0.1c0,0.1,0,0.1-0.1,0.1l0.1,0c0,0-0.1,0.1-0.1,0.1c0,0.1,0.1,0,0.1,0.1
							c-0.1,0.1-0.1,0.2-0.2,0.2c0.1-0.2-0.1,0,0-0.2c0,0,0,0.1-0.1,0.1c0,0,0,0,0,0c-0.2,0.2,0,0.1-0.1,0.3c0,0-0.1,0-0.1,0.1
							c0-0.1,0.1,0,0.1,0.1c-0.1,0.1-0.1,0.2-0.1,0.2l0.1-0.1c0,0,0,0.1,0,0.2c0,0,0-0.1,0-0.1c0,0.1-0.2,0.2-0.2,0.4
							c0,0.1-0.1,0-0.1,0c0,0.2-0.1,0.2-0.1,0.4c0.1,0,0-0.1,0.1,0.1l0.1-0.3l0,0.2c0-0.1,0-0.2,0.1-0.3c0,0.1,0,0.1,0,0.1
							c-0.1,0.1,0,0.3-0.1,0.4l-0.1,0c-0.1,0.2,0,0.4-0.1,0.7l0-0.1c0,0,0,0.2,0,0.3c0,0-0.1,0-0.1,0.1c0,0,0,0.2,0.1,0.3l-0.1,0.1
							c0,0.2,0.1,0.3,0.1,0.5c0-0.1-0.1,0-0.1-0.1c0,0.1,0,0.1,0,0.1c0,0,0.1,0.2,0,0.3c0,0,0.1,0,0.1,0.1c0,0,0,0,0,0
							c0,0,0,0.1,0.1,0.1c-0.1,0.2,0.1,0.6,0,0.9c0,0.2,0.1,0.4,0.1,0.5c0,0,0,0,0,0c0,0.2,0.1,0.1,0.2,0.3c0,0.1-0.1-0.1-0.1,0
							c-0.1,0.1,0.1,0.3,0.1,0.4l0,0c0,0.1,0.2,0.3,0.2,0.4c0,0,0,0,0,0c0.1,0.1,0.3,0.3,0.4,0.5c-0.1,0-0.1-0.1-0.1,0
							c0,0.1,0.1-0.1,0.2,0.1c0,0.1,0,0.2,0,0.2c0,0-0.1-0.1-0.1-0.1c0,0.1,0.1,0.2,0.1,0.3l0,0c0.2,0.2,0.2,0.2,0.4,0.4l0,0
							c0.1,0.1,0,0.1,0.2,0.2l0,0.1c0.1,0.1,0.3,0.2,0.4,0.3c-0.1,0-0.3-0.2-0.4-0.2c0.1,0.1,0.2,0.2,0.3,0.3c0,0-0.1,0-0.1-0.1
							c0.1,0.1,0.3,0.1,0.4,0.3c-0.1,0.1,0.3,0.4,0.4,0.5c0.3,0.2,0.5,0.4,0.9,0.6c-0.1-0.2,0.1,0.1,0.1-0.1c0.1,0,0.1,0.1,0.1,0.1
							l0.2,0.2c0,0.1-0.1,0-0.1,0c0.2,0.1,0.1,0.1,0.2,0.2c0,0,0.1,0,0.2,0l-0.1-0.1c0.3,0.1,0.2,0.2,0.5,0.2l-0.1,0
							c0.1,0,0.5,0.2,0.7,0.1c0,0,0,0.1,0,0.1c0.3,0.1,0.8,0.1,1,0.2l0,0c0.1,0,0.1,0,0.2,0c0,0,0,0,0,0c0,0,0.2,0,0.3,0l-0.1,0
							c0.3,0.1,0.5,0,0.8-0.1c0,0.1,0.3,0.1,0.4,0.1l0,0c0.4,0,0.7-0.1,1-0.3c0.2,0.1,0.8-0.2,1.1-0.3c-0.1,0,0-0.1,0-0.1
							c0.1,0,0.2-0.1,0.2-0.1l0,0c0.1,0,0.2,0,0.4-0.1l0-0.1c0.4,0,0.8-0.5,1-0.5c0.1-0.1,0.1-0.1,0.2-0.2l0,0
							c0.2-0.1,0.3-0.2,0.5-0.4l0,0.1c0.1-0.1,0-0.3,0.1-0.4l0.1,0c0.2-0.2,0.4-0.4,0.6-0.7c0,0,0,0,0,0.1c0.1-0.1,0.3-0.4,0.2-0.4
							c0.1,0,0.2-0.3,0.2-0.4l0,0c0-0.2,0-0.2,0.1-0.3c0,0,0.1,0,0,0c0.1-0.1,0-0.1,0.1-0.3l0,0.1c0.1-0.1,0.1-0.1,0-0.2
							c0-0.1,0.1-0.3,0.2-0.3c0,0,0-0.1,0-0.2c0,0,0,0,0,0c0.1-0.2,0.1-0.4,0.2-0.5c0,0,0,0,0,0c-0.1,0.2-0.1,0.3-0.1,0.3
							c0,0,0.1-0.1,0.1,0c0-0.1,0-0.4,0-0.5l0,0l0,0c0,0,0-0.1,0-0.1c0,0,0-0.1,0-0.1c0,0,0.1-0.2,0.1-0.3c-0.1,0,0-0.1-0.1,0
							c0,0,0,0,0,0.1c0,0,0,0,0,0l0,0c0,0.1,0,0.1,0,0.2c0-0.1,0-0.1,0-0.2c0,0-0.1-0.1-0.1-0.1c0.1-0.1,0.2-0.3,0.2-0.3
							c0-0.2,0-0.6-0.1-0.7c0-0.1,0-0.1,0-0.1c0,0,0,0.1,0,0.1c0-0.1,0-0.4-0.1-0.4c0-0.2,0.1,0.1,0-0.1l0,0
							c0.1-0.5-0.3-0.7-0.2-1.3c0,0,0,0.1,0,0.1c-0.1-0.6-0.4-1.2-0.6-1.7c-0.1-0.2-0.1-0.2-0.2-0.2l0-0.1L37.2,54
							c-0.2-0.2-0.1-0.4-0.4-0.6l0,0.1c-0.1-0.1-0.2-0.3-0.2-0.3c0,0-0.1,0-0.1,0l0,0c-0.1-0.1-0.1-0.1-0.2-0.2
							c-0.1-0.2,0.1-0.1-0.1-0.3c-0.1-0.1-0.3-0.2-0.3-0.1c0,0,0.1,0.1,0.1,0.1l-0.1-0.1c-0.1,0.1-0.2,0.1,0,0.3L36,53l0,0.1
							l-0.1-0.1c0,0.1,0.1,0.1,0.2,0.1c0,0,0,0.1,0,0.1l0.2,0.1c0,0-0.1,0,0,0.1c0.1,0,0-0.1,0.1,0c0,0.1,0,0.1,0.1,0.1
							c0,0,0,0-0.1,0c0.1,0,0.2,0.2,0.2,0.2c0,0.1,0.2,0.2,0.1,0.3c0,0,0.1,0.1,0.2,0.2c-0.2-0.1,0.2,0.3,0.1,0.3
							c0.1,0,0.2,0.3,0.4,0.5c0,0,0,0,0,0c0,0.1,0,0.1,0.1,0.2c0.1,0,0.2,0.1,0.2,0.2c0,0.2-0.1,0-0.2,0c0.1,0,0.1,0.2,0.2,0.1
							c0,0.1,0,0.1,0,0.2c0.1,0,0.1,0.1,0.1,0.1C37.7,55.7,37.6,55.6,37.6,55.7C37.7,55.8,37.6,55.7,37.6,55.7z M37.9,59.5
							L37.9,59.5C37.9,59.4,37.9,59.4,37.9,59.5C37.9,59.4,37.9,59.4,37.9,59.5z M37.8,59.8c0,0,0-0.1,0-0.1
							C37.9,59.6,37.9,59.7,37.8,59.8C37.9,59.7,37.9,59.7,37.8,59.8z M38.4,59.2C38.4,59.2,38.3,59.2,38.4,59.2
							C38.3,59.2,38.3,59.2,38.4,59.2L38.4,59.2C38.3,59.2,38.4,59.2,38.4,59.2z"/>
						<polygon fill="#808181" points="38.3,59.1 38.3,59 38.3,59.1 38.3,59.1 						"/>
						<path fill="#808181" d="M29.7,51L29.7,51C29.7,51,29.7,51,29.7,51L29.7,51z"/>
						<polygon fill="#808181" points="35.2,63.3 35.3,63.3 35.3,63.3 						"/>
						<path fill="#808181" d="M31.5,51C31.5,51,31.5,51,31.5,51C31.5,51,31.5,51,31.5,51z"/>
						<path fill="#808181" d="M32.3,51.1l0.1,0C32.3,51.1,32.3,51.1,32.3,51.1z"/>
						<path fill="#808181" d="M32.8,51.2C32.9,51.2,32.9,51.2,32.8,51.2L32.8,51.2L32.8,51.2z"/>
						<path fill="#808181" d="M25.1,55.1L25.1,55.1C25.1,55.2,25.1,55.2,25.1,55.1z"/>
						<path fill="#808181" d="M26.6,52.8C26.6,52.8,26.6,52.8,26.6,52.8C26.6,52.8,26.7,52.8,26.6,52.8z"/>
						<polygon fill="#808181" points="24.6,58.1 24.6,58.1 24.6,58.2 						"/>
						<path fill="#808181" d="M26.5,53C26.5,52.9,26.6,52.9,26.5,53C26.6,52.9,26.5,52.9,26.5,53z"/>
						<polygon fill="#808181" points="35.2,52.3 35.2,52.3 35.2,52.3 						"/>
						<path fill="#808181" d="M35.2,52.3L35.2,52.3C35.2,52.3,35.2,52.3,35.2,52.3z"/>
						<path fill="#808181" d="M35.3,52.3L35.3,52.3C35.2,52.3,35.3,52.3,35.3,52.3z"/>
						<path fill="#808181" d="M34.5,51.9L34.5,51.9C34.5,51.9,34.5,51.9,34.5,51.9z"/>
						<path fill="#808181" d="M34.3,51.7c0,0,0.1,0.1,0.2,0.1l0,0C34.4,51.9,34.4,51.7,34.3,51.7z"/>
						<path fill="#808181" d="M33.4,51.1l0.2,0.1c0,0-0.1-0.1,0,0C33.4,51,33.7,51.2,33.4,51.1z"/>
						<path fill="#808181" d="M32.8,50.9C32.9,51,32.8,50.9,32.8,50.9C32.8,50.9,32.8,50.9,32.8,50.9z"/>
						<path fill="#808181" d="M28.3,51.4L28.3,51.4C28.2,51.4,28.3,51.4,28.3,51.4z"/>
						<path fill="#808181" d="M27.6,52.1C27.7,52.1,27.7,52.1,27.6,52.1L27.6,52.1C27.7,52,27.7,52.1,27.6,52.1z"/>
						<polygon fill="#808181" points="27,52.1 27,52.1 26.9,52.2 						"/>
						<path fill="#808181" d="M24.2,59.1L24.2,59.1C24.3,59,24.2,59,24.2,59.1z"/>
						<path fill="#808181" d="M25.6,62.1c0,0.1,0,0.1,0.1,0.2C25.7,62.2,25.6,62.2,25.6,62.1z"/>
						<polygon fill="#808181" points="34.8,64.2 34.7,64.2 34.8,64.1 						"/>
					</g>
				</g>
			</g>
		</g>
	</g>
	<g>
		<g>
			<g>
				<g>
					<g>
						<path fill="#808181" d="M36.9,59.5C36.9,59.5,36.9,59.5,36.9,59.5L36.9,59.5L36.9,59.5z"/>
						<path fill="#808181" d="M36.8,59.5c0,0,0.1,0.1,0.1,0.1C36.9,59.5,36.9,59.5,36.8,59.5C36.8,59.5,36.9,59.5,36.8,59.5
							C36.9,59.5,36.9,59.5,36.8,59.5C36.8,59.5,36.8,59.5,36.8,59.5C36.8,59.5,36.8,59.5,36.8,59.5z"/>
						<path fill="#808181" d="M36.3,60.6L36.3,60.6L36.3,60.6z"/>
						<path fill="#808181" d="M35.9,61.2C35.9,61.2,35.9,61.2,35.9,61.2C35.9,61.2,35.9,61.2,35.9,61.2z"/>
						<path fill="#808181" d="M35.7,61.3L35.7,61.3C35.7,61.3,35.7,61.3,35.7,61.3z"/>
						<path fill="#808181" d="M36.3,60.6L36.3,60.6C36.2,60.6,36.2,60.6,36.3,60.6z"/>
						<path fill="#808181" d="M36.9,59.7C36.9,59.7,36.9,59.7,36.9,59.7L36.9,59.7L36.9,59.7z"/>
						<polygon fill="#808181" points="36.4,60.3 36.4,60.3 36.3,60.3 						"/>
						<path fill="#808181" d="M36.4,60C36.4,60.1,36.5,60.1,36.4,60C36.5,60.1,36.5,60.1,36.4,60C36.5,60.1,36.4,60.1,36.4,60z"/>
						<path fill="#808181" d="M36.7,59.7L36.7,59.7L36.7,59.7z"/>
						<path fill="#808181" d="M36.3,60.4C36.3,60.4,36.2,60.4,36.3,60.4L36.3,60.4z"/>
						<path fill="#808181" d="M30.5,63.8L30.5,63.8C30.5,63.8,30.5,63.8,30.5,63.8z"/>
						<polygon fill="#808181" points="30.3,63.5 30.3,63.5 30.3,63.4 						"/>
						<path fill="#808181" d="M35.6,61.4L35.6,61.4C35.6,61.4,35.5,61.4,35.6,61.4z"/>
						<path fill="#808181" d="M34.1,62.8c0,0,0,0.1,0.1,0.1C34.1,62.9,34.1,62.8,34.1,62.8z"/>
						<path fill="#808181" d="M36.9,59.7L36.9,59.7C36.9,59.7,36.9,59.7,36.9,59.7z"/>
						<polygon fill="#808181" points="34.1,62.9 34.1,62.9 34.1,62.9 						"/>
						<path fill="#808181" d="M35.2,61.9L35.2,61.9C35.3,61.9,35.3,61.9,35.2,61.9z"/>
						<path fill="#808181" d="M35.6,61.6L35.6,61.6C35.6,61.6,35.6,61.6,35.6,61.6z"/>
						<path fill="#808181" d="M35.2,62.1C35.2,62.1,35.2,62.1,35.2,62.1L35.2,62.1C35.2,62.1,35.2,62.1,35.2,62.1z"/>
						<polygon fill="#808181" points="35,62.2 35,62.2 35,62.2 						"/>
						<path fill="#808181" d="M31.2,63.8L31.2,63.8C31.2,63.8,31.2,63.8,31.2,63.8z"/>
						<path fill="#808181" d="M36.8,59.7C36.9,59.7,36.9,59.7,36.8,59.7L36.8,59.7C36.9,59.7,36.8,59.7,36.8,59.7z"/>
						<path fill="#808181" d="M35.5,62.4L35.5,62.4C35.4,62.4,35.4,62.4,35.5,62.4z"/>
						<path fill="#808181" d="M32.8,63.7L32.8,63.7C32.8,63.7,32.8,63.7,32.8,63.7z"/>
						<path fill="#808181" d="M35.4,62.5C35.3,62.5,35.3,62.4,35.4,62.5C35.3,62.4,35.3,62.5,35.4,62.5L35.4,62.5z"/>
						<path fill="#808181" d="M31.2,63.8L31.2,63.8L31.2,63.8z"/>
						<path fill="#808181" d="M31,63.9c0,0,0-0.1,0-0.1C31,63.8,31,63.8,31,63.9c0.1,0,0.1-0.1,0.1-0.1c0,0,0,0,0,0
							c0-0.1,0.1,0,0.1-0.1l0,0c0,0,0-0.1,0-0.1c0,0,0,0,0,0c0,0,0,0,0,0l0,0c0,0.1,0,0,0,0.1c0,0,0.1-0.1,0.1-0.1
							c0,0.1-0.1,0,0,0.1l0,0c0,0.1,0,0,0,0.1c0,0,0.1,0,0.1,0c0,0,0-0.1,0-0.1c0.1-0.1,0,0.2,0.1,0.1c0,0,0-0.1,0.1-0.1l0,0.1
							c0,0,0-0.1,0.1-0.1c0,0,0,0,0,0c0,0.1,0,0,0,0l0,0.1c0.1,0,0.1-0.1,0.2-0.1c0,0,0,0,0,0.1c0.1,0,0.1,0,0.2,0l0-0.1
							c0,0,0,0,0,0c0,0,0,0,0-0.1c0,0,0,0,0,0c0-0.1,0.1-0.1,0.2-0.1l0,0c0,0,0-0.1,0.1-0.1l0,0c0.1,0,0.2,0,0.2,0
							c0-0.1,0.1,0,0.1-0.1c0.1,0,0,0.1,0.1,0.1c0,0,0-0.1,0-0.1l0,0.1l0-0.1l0,0.1l0,0c0,0,0,0,0,0c0,0,0.1,0,0.1,0.1l0.1-0.1
							c0,0,0,0,0,0c0-0.1,0,0.1,0,0c0,0,0,0,0,0c0,0,0.1,0,0.1,0l0,0c0.1,0,0.1-0.1,0.2-0.1c0,0,0-0.1,0-0.1l0,0.1c0,0,0,0,0-0.1
							c0,0,0,0.1,0,0.1l0,0c0,0,0,0,0,0.1c0,0,0.1,0,0.1,0l0,0c0.1,0,0.1,0,0.1-0.1c0-0.1,0,0,0-0.1c0,0,0.1,0,0.1,0c0,0,0,0,0-0.1
							c0,0,0.1,0,0.1,0.1c0,0,0.1,0,0.1-0.1c0,0,0,0,0,0c0,0,0,0,0,0l0,0c0-0.1,0.2,0.1,0.2-0.1l0,0l0-0.1c0,0,0,0,0,0.1
							c0-0.1,0.1,0,0.1-0.1c0.1,0.1,0.1-0.1,0.2,0l0,0c0,0,0,0,0,0c0,0,0,0,0,0c0.1-0.1,0.3-0.1,0.4-0.2c0,0-0.1-0.2,0-0.1l0,0.1
							c0-0.1,0.2-0.1,0.2-0.2c0,0,0,0,0,0c0,0,0.1,0,0-0.1c0,0,0,0,0,0c0,0,0-0.1,0,0c0,0,0,0,0,0c0,0,0.1,0,0-0.1
							c0,0,0-0.1,0.1-0.1c0-0.1,0.1,0,0-0.1c0.1,0.1,0.1,0,0.1,0c0,0,0,0,0.1,0c0,0,0,0,0-0.1c0.1,0,0-0.1,0.1-0.1
							c0-0.1,0-0.2,0.1-0.2c0.1,0.1,0,0.1,0,0.1c0-0.1,0-0.1,0.1-0.2c0,0,0,0,0,0c0-0.1,0.1-0.1,0.1-0.2c0,0,0,0,0,0c0,0,0,0,0,0
							l0,0c-0.1,0-0.1-0.1-0.1-0.1c0.1,0.1,0.1,0,0.1,0.1c0,0,0,0,0,0c0,0,0,0,0,0c0,0,0-0.1,0-0.1c0,0,0,0,0,0c0,0,0-0.1,0-0.1
							c0,0,0,0,0,0c0,0,0-0.1,0-0.2c0.1,0.1,0,0,0.1,0l0,0l0,0c0,0,0-0.1,0-0.1l0,0l0-0.1l0,0c0,0-0.1,0,0-0.1c0,0,0,0,0.1,0l0,0
							c0,0,0,0,0-0.1c0,0,0.1,0,0.1,0c0,0,0-0.1,0-0.1c0,0,0,0,0,0l0,0c0,0,0,0,0.1,0c0,0-0.1,0,0-0.1c0,0,0,0,0,0
							c0,0,0-0.1,0.1-0.1c0.1,0,0,0,0.1,0.1c0-0.1,0-0.2,0-0.2l0,0c-0.1-0.1,0.1,0,0-0.1c0,0,0,0,0,0c0,0,0-0.1,0-0.2l0,0
							c0,0,0-0.1,0.1-0.1c0,0,0,0,0,0c0.2,0,0-0.2,0.1-0.2c0,0,0,0,0,0c0,0,0,0,0-0.1c0,0,0,0-0.1,0c0,0,0,0,0-0.1c0,0,0.1,0,0.1,0
							l0,0c0.1,0-0.1,0,0-0.1l0,0c0,0,0,0,0-0.1c0,0,0,0,0.1,0c0,0-0.1-0.1,0-0.1c0,0,0,0,0,0c0.1,0,0.1,0,0.1,0l0,0l0,0l0,0
							c-0.1-0.1,0-0.1-0.1-0.1c0.1,0.1,0,0,0.1,0c0,0,0,0,0.1,0c0,0,0,0,0-0.1c0,0,0,0,0.1,0c0,0,0,0-0.1,0c0-0.1,0.1-0.1,0-0.1
							c0-0.1-0.1-0.1-0.1-0.1c0,0,0.1,0,0.1,0c0,0,0,0,0-0.1c0,0,0,0,0.1,0c0,0-0.1,0,0,0c0,0,0,0,0.1,0c0,0,0-0.1,0-0.1
							c0,0,0,0,0.1,0c0,0,0-0.1-0.1-0.1l0,0c0,0,0,0,0,0c0,0,0,0,0,0l0,0c-0.1,0,0,0.1,0,0.1l-0.1,0l0.1,0.1c0,0-0.1,0-0.1,0
							c0,0,0,0,0,0c0,0,0,0,0,0l0,0c0,0-0.1,0,0,0c-0.1,0,0,0.1,0,0.1l0,0c0,0.1,0.1,0,0.1,0.1l-0.1,0l0.1,0c0,0,0,0,0,0
							c0,0,0,0,0.1,0c-0.1,0,0,0.1-0.1,0.1c0,0,0,0,0.1,0c-0.1,0,0,0,0,0c0,0,0,0-0.1,0c0.1,0,0,0,0,0.1c0.1,0,0,0.1,0,0.1
							c0,0-0.1,0-0.1,0.1l0,0c0.1,0,0,0.1,0,0.1c0,0-0.1,0-0.1,0l0,0c0,0,0,0,0,0l0,0c0,0,0,0.1,0,0.1c0,0,0.1,0,0.1,0.1
							c0,0-0.1,0-0.1,0c0,0,0,0,0,0l0,0c0,0,0,0,0,0c0,0,0,0-0.1,0c0,0,0,0,0,0c0,0,0,0-0.1,0c0,0,0,0,0,0c0,0,0,0-0.1,0
							c0,0,0,0,0,0c0,0,0,0,0,0c0,0,0,0.1,0,0.1l0,0l0,0l0,0l0,0c0,0.1-0.1,0.1-0.1,0.1l0,0c0,0,0,0.1,0,0.1c0,0,0,0-0.1,0
							c0,0,0,0,0,0.1c0,0,0,0,0,0c0,0-0.1,0,0,0.1c0,0-0.1,0-0.1,0l0,0c0,0,0,0,0,0l-0.1,0c-0.1,0,0.1,0.2-0.1,0.1c0,0,0,0,0.1,0
							c0,0-0.1,0-0.1,0c-0.1,0,0.1,0.1,0,0.1c0,0,0.1,0,0.1,0.1c0,0-0.1,0-0.1,0c0,0,0,0,0,0c0,0,0,0,0,0l0,0c0,0,0,0-0.1,0
							c0,0,0,0,0,0c0,0,0,0-0.1,0.1c0,0,0,0,0,0c-0.1,0,0,0,0,0.1c0,0-0.1-0.1-0.1,0c0,0-0.1,0-0.1,0c0,0.1-0.1,0-0.1,0l0,0
							c0,0,0,0,0,0l0,0c0,0,0,0,0,0c0,0,0.1,0,0.1,0.1c0,0,0,0-0.1,0c0,0-0.1,0,0-0.1c0,0,0,0,0,0c0,0,0,0,0,0c-0.1,0,0,0.1,0,0.1
							c0,0-0.1,0-0.1,0c0,0,0,0,0.1,0.1c0,0,0,0,0,0l0,0c0,0,0,0,0,0.1c0,0,0,0,0,0c0,0.1-0.1,0-0.1,0.1c0,0,0,0-0.1,0
							c0,0.1-0.1,0-0.1,0c0,0,0,0,0.1,0.1l0-0.1l0,0.1c0,0,0,0,0,0c0,0,0,0,0,0c-0.1,0,0,0.1-0.1,0.1l-0.1-0.1c-0.1,0,0,0.1-0.1,0.1
							l0,0c0,0,0,0,0,0.1c0,0,0,0-0.1,0c0,0,0,0,0,0.1l-0.1,0c0,0,0,0.1,0,0.1c0,0-0.1,0-0.1-0.1c0,0,0,0,0,0c0,0,0,0.1,0,0
							c0,0,0,0,0,0.1c0,0,0,0,0,0c0,0,0,0,0,0.1c-0.1-0.1-0.1,0.1-0.2,0.1c0,0,0,0.1-0.1,0.1c0,0,0,0,0,0c-0.1,0,0.1,0.1,0,0.1
							c-0.1,0,0,0,0,0c-0.1-0.1,0,0-0.1,0l0,0c0,0,0,0.1,0,0.1c0,0,0,0,0,0c0,0.1,0,0.1,0,0.1c0,0,0,0,0-0.1c0,0,0.1,0.1,0,0.1
							c0,0-0.1,0-0.1-0.1l0,0c-0.1,0,0,0,0,0l0,0c0,0,0,0.1,0,0.1l0,0c0,0.1,0,0,0,0l0-0.1c0,0,0,0.1,0,0.1c0-0.1,0-0.1,0-0.1
							c0,0,0,0,0,0.1c0,0,0,0,0,0c0,0.1,0,0.1,0,0.1c-0.1-0.1-0.1,0-0.2-0.1c0,0.1-0.1,0-0.2,0.1c0.1,0.1,0,0,0,0.1c0,0,0,0,0,0
							l-0.1,0c0,0,0,0,0-0.1c0,0,0,0-0.1-0.1c0,0,0,0.1,0,0.1l0,0c0,0.1-0.1-0.1-0.1,0l0,0c0,0-0.1,0-0.1,0.1c0,0,0,0,0,0
							c-0.1,0-0.1,0.1-0.2,0.1l0,0c0,0,0,0.1,0,0c0,0,0,0,0,0c0,0,0,0.1,0,0l0,0c-0.1,0-0.1,0.1-0.1,0.1c0-0.1-0.1-0.1-0.1-0.1l0,0
							c-0.1,0-0.1,0.1-0.1,0.1c-0.1-0.1-0.1,0-0.2,0c0,0,0,0.1,0,0.1c0,0,0,0.1,0,0l0,0c0-0.1-0.1,0-0.1,0l0,0.1
							c-0.1-0.1-0.2,0.1-0.2,0c0,0,0,0,0,0.1l0-0.1c0,0-0.1,0-0.1,0l0,0c0,0,0,0.2,0,0.2l0-0.1c-0.1,0-0.1-0.1-0.2,0c0,0,0,0,0,0
							c0,0-0.1,0-0.1,0.1c0-0.1-0.1,0-0.1,0l0-0.1c0,0.1,0,0.1-0.1,0.1c0,0,0,0,0,0c0,0,0,0.1-0.1,0l0,0c0,0,0,0,0,0.1
							c0,0-0.1,0-0.1-0.1c0,0,0,0.1,0,0.1c0,0,0,0,0,0c0,0-0.1,0.1-0.1,0c0,0,0,0,0,0c0,0,0.1,0,0.1,0c0,0,0-0.1,0-0.1
							c0,0-0.1,0.1-0.1,0.1c0,0,0,0,0,0l0,0c0,0,0,0,0,0c0,0,0,0,0,0c0,0,0,0,0,0c0,0.1,0,0,0,0.1c0,0,0,0,0,0l0,0l0,0l0,0
							c0,0,0,0.1,0,0c0,0,0,0.1,0,0.1c0-0.1-0.1-0.1-0.1-0.2c0,0-0.1,0-0.1,0.1c0,0,0,0,0,0c0,0,0,0,0,0c0,0-0.1,0-0.1,0.1
							c0,0,0-0.1,0-0.1l0,0c-0.1-0.1-0.2,0.2-0.2,0c0,0,0,0,0,0c-0.1-0.1-0.2,0-0.3-0.1c0,0,0,0-0.1,0l0-0.1l0,0.1
							c-0.1,0-0.1-0.2-0.1-0.1l0,0c0,0-0.1,0-0.1,0c0,0,0,0,0,0l0,0l-0.1,0c0,0,0-0.1,0-0.1c0,0-0.1,0.1-0.1,0.1c0,0,0,0,0,0.1l0,0
							c0,0.1-0.1,0.2,0,0.2l0.1,0l0,0l0,0c0,0,0,0,0,0c0,0,0,0,0,0l0.1-0.1c0,0,0,0.1,0,0.1c0,0,0-0.1,0-0.1c0,0,0,0.1,0,0
							c0,0,0,0,0,0c0,0,0.1,0,0.1,0c0,0.1,0.1,0,0,0.1c0,0,0-0.1,0.1-0.1c0,0.1,0.1,0,0,0.1c0-0.1,0.1,0,0.1-0.1c0,0,0,0,0,0
							c0,0,0,0,0,0.1c0-0.1,0-0.1,0.1-0.1c0,0.1,0,0.1,0,0.2c0-0.1,0.1-0.1,0.1-0.1C30.9,63.8,30.9,63.8,31,63.9c0-0.1,0-0.1,0-0.1
							C31,63.8,30.9,63.9,31,63.9C31,63.9,31,63.9,31,63.9z M31.8,63.8L31.8,63.8C31.8,63.8,31.8,63.8,31.8,63.8
							C31.8,63.8,31.8,63.8,31.8,63.8z M31.8,63.8L31.8,63.8C31.8,63.7,31.8,63.7,31.8,63.8C31.8,63.7,31.8,63.8,31.8,63.8z
							 M31.7,63.4C31.7,63.4,31.7,63.4,31.7,63.4C31.7,63.4,31.7,63.4,31.7,63.4L31.7,63.4C31.7,63.4,31.7,63.4,31.7,63.4z"/>
						<path fill="#808181" d="M31.7,63.5L31.7,63.5C31.7,63.5,31.7,63.5,31.7,63.5L31.7,63.5L31.7,63.5z"/>
						<polygon fill="#808181" points="36.3,60.6 36.3,60.6 36.3,60.6 						"/>
						<polygon fill="#808181" points="32.8,63.8 32.8,63.7 32.8,63.8 						"/>
						<path fill="#808181" d="M36.6,60.3L36.6,60.3C36.6,60.3,36.6,60.3,36.6,60.3z"/>
						<path fill="#808181" d="M36.7,60.2L36.7,60.2C36.7,60.2,36.7,60.2,36.7,60.2z"/>
						<polygon fill="#808181" points="36.7,60.1 36.7,60.1 36.7,60.1 						"/>
						<path fill="#808181" d="M35.8,61.8L35.8,61.8C35.8,61.8,35.8,61.8,35.8,61.8z"/>
						<path fill="#808181" d="M36.1,61.3C36.1,61.3,36.1,61.3,36.1,61.3C36.1,61.3,36.1,61.3,36.1,61.3z"/>
						<polygon fill="#808181" points="35.5,62.4 35.5,62.4 35.5,62.4 						"/>
						<path fill="#808181" d="M36.1,61.3C36.1,61.3,36.1,61.3,36.1,61.3C36.1,61.3,36.1,61.3,36.1,61.3z"/>
						<polygon fill="#808181" points="36.9,59.6 36.9,59.6 36.9,59.6 						"/>
						<path fill="#808181" d="M36.9,59.6L36.9,59.6C36.9,59.6,36.9,59.6,36.9,59.6z"/>
						<path fill="#808181" d="M36.9,59.6L36.9,59.6C36.9,59.6,36.9,59.6,36.9,59.6z"/>
						<path fill="#808181" d="M36.8,59.8L36.8,59.8C36.9,59.8,36.8,59.8,36.8,59.8z"/>
						<path fill="#808181" d="M36.8,59.8C36.8,59.8,36.9,59.8,36.8,59.8L36.8,59.8C36.9,59.8,36.8,59.8,36.8,59.8z"/>
						<path fill="#808181" d="M36.5,59.9L36.5,59.9C36.5,59.9,36.5,59.9,36.5,59.9C36.4,59.9,36.6,59.9,36.5,59.9z"/>
						<path fill="#808181" d="M36.5,60C36.5,60,36.4,60,36.5,60C36.4,60,36.4,60,36.5,60z"/>
						<path fill="#808181" d="M36.1,60.8L36.1,60.8C36.1,60.8,36.1,60.8,36.1,60.8z"/>
						<polygon fill="#808181" points="36.2,61.1 36.3,61.1 36.2,61.1 						"/>
						<polygon fill="#808181" points="35.9,61 35.9,61 35.9,61 						"/>
						<path fill="#808181" d="M35,62.1L35,62.1C35.1,62.2,35,62.1,35,62.1z"/>
						<path fill="#808181" d="M34.6,62.6C34.5,62.6,34.5,62.6,34.6,62.6C34.5,62.6,34.6,62.6,34.6,62.6z"/>
						<polygon fill="#808181" points="32.8,63.3 32.8,63.2 32.8,63.3 						"/>
					</g>
				</g>
			</g>
		</g>
	</g>
	<g>
		<g>
			<g>
				<g>
					<g>
						<path fill="#808181" d="M51.1,45.7C51,45.7,51,45.7,51.1,45.7L51.1,45.7L51.1,45.7z"/>
						<path fill="#808181" d="M50.9,45.7c0,0,0.1,0.1,0.1,0.1C51,45.7,51,45.7,50.9,45.7C50.9,45.7,51,45.7,50.9,45.7
							C51,45.7,51,45.7,50.9,45.7C50.9,45.7,50.9,45.7,50.9,45.7C50.9,45.7,50.9,45.7,50.9,45.7z"/>
						<path fill="#808181" d="M50.4,46.8L50.4,46.8L50.4,46.8z"/>
						<path fill="#808181" d="M50,47.4C50,47.4,50,47.4,50,47.4C50,47.4,50,47.4,50,47.4z"/>
						<path fill="#808181" d="M49.9,47.5L49.9,47.5C49.9,47.5,49.9,47.5,49.9,47.5z"/>
						<path fill="#808181" d="M50.4,46.8L50.4,46.8C50.4,46.8,50.4,46.8,50.4,46.8z"/>
						<path fill="#808181" d="M51,45.9C51,45.9,51,45.9,51,45.9L51,45.9L51,45.9z"/>
						<polygon fill="#808181" points="50.5,46.5 50.5,46.5 50.5,46.5 						"/>
						<path fill="#808181" d="M50.5,46.2C50.5,46.3,50.6,46.3,50.5,46.2C50.6,46.3,50.6,46.3,50.5,46.2
							C50.6,46.3,50.6,46.3,50.5,46.2z"/>
						<path fill="#808181" d="M50.8,45.9L50.8,45.9L50.8,45.9z"/>
						<path fill="#808181" d="M50.4,46.6C50.4,46.6,50.4,46.6,50.4,46.6L50.4,46.6z"/>
						<path fill="#808181" d="M44.7,50L44.7,50C44.6,50,44.7,50,44.7,50z"/>
						<polygon fill="#808181" points="44.4,49.7 44.4,49.7 44.4,49.6 						"/>
						<path fill="#808181" d="M49.7,47.6L49.7,47.6C49.7,47.6,49.7,47.6,49.7,47.6z"/>
						<path fill="#808181" d="M48.2,49c0,0,0,0.1,0.1,0.1C48.2,49.1,48.2,49,48.2,49z"/>
						<path fill="#808181" d="M51,45.9L51,45.9C51,45.9,51,45.9,51,45.9z"/>
						<polygon fill="#808181" points="48.2,49.1 48.2,49.1 48.2,49.1 						"/>
						<path fill="#808181" d="M49.4,48.1L49.4,48.1C49.4,48.1,49.4,48.1,49.4,48.1z"/>
						<path fill="#808181" d="M49.7,47.8L49.7,47.8C49.7,47.8,49.7,47.8,49.7,47.8z"/>
						<path fill="#808181" d="M49.3,48.3C49.3,48.3,49.3,48.3,49.3,48.3L49.3,48.3C49.3,48.3,49.3,48.3,49.3,48.3z"/>
						<polygon fill="#808181" points="49.1,48.4 49.2,48.4 49.2,48.4 						"/>
						<path fill="#808181" d="M45.3,50L45.3,50C45.3,50,45.3,50,45.3,50z"/>
						<path fill="#808181" d="M51,45.9C51,45.9,51,45.9,51,45.9L51,45.9C51,45.9,51,45.9,51,45.9z"/>
						<path fill="#808181" d="M49.6,48.6L49.6,48.6C49.6,48.6,49.6,48.6,49.6,48.6z"/>
						<path fill="#808181" d="M47,49.9L47,49.9C46.9,49.9,47,49.9,47,49.9z"/>
						<path fill="#808181" d="M49.5,48.7C49.5,48.7,49.4,48.7,49.5,48.7C49.4,48.7,49.4,48.7,49.5,48.7L49.5,48.7z"/>
						<path fill="#808181" d="M45.3,50L45.3,50L45.3,50z"/>
						<path fill="#808181" d="M45.1,50.1c0,0,0-0.1,0-0.1C45.2,50,45.1,50,45.1,50.1c0.1,0,0.1-0.1,0.1-0.1c0,0,0,0,0,0
							c0-0.1,0.1,0,0.1-0.1l0,0c0,0,0-0.1,0-0.1c0,0,0,0,0,0c0,0,0,0,0,0l0,0c0,0.1,0,0,0,0.1c0,0,0.1-0.1,0.1-0.1
							c0,0.1-0.1,0,0,0.1l0,0c0,0.1,0,0,0,0.1c0,0,0.1,0,0.1,0c0,0,0-0.1,0-0.1c0.1-0.1,0,0.2,0.1,0.1c0,0,0-0.1,0.1-0.1l0,0.1
							c0,0,0-0.1,0.1-0.1c0,0,0,0,0,0c0,0.1,0,0,0,0l0,0.1c0.1,0,0.1-0.1,0.2-0.1c0,0,0,0,0,0.1c0.1,0,0.1,0,0.2,0l0-0.1
							c0,0,0,0,0,0c0,0,0,0,0-0.1c0,0,0,0,0,0c0-0.1,0.1-0.1,0.2-0.1l0,0c0,0,0-0.1,0.1-0.1l0,0c0.1,0,0.2,0,0.2,0
							c0-0.1,0.1,0,0.1-0.1c0.1,0,0,0.1,0.1,0.1c0,0,0-0.1,0-0.1l0,0.1l0-0.1l0,0.1l0,0c0,0,0,0,0,0c0,0,0.1,0,0.1,0.1l0.1-0.1
							c0,0,0,0,0,0c0-0.1,0,0.1,0,0c0,0,0,0,0,0c0,0,0.1,0,0.1,0l0,0c0.1,0,0.1-0.1,0.2-0.1c0,0,0-0.1,0-0.1l0,0.1c0,0,0,0,0-0.1
							c0,0,0,0.1,0,0.1l0,0c0,0,0,0,0,0.1c0,0,0.1,0,0.1,0l0,0c0.1,0,0.1,0,0.1-0.1c0-0.1,0,0,0-0.1c0,0,0.1,0,0.1,0c0,0,0,0,0-0.1
							c0,0,0.1,0,0.1,0.1c0,0,0.1,0,0.1-0.1c0,0,0,0,0,0c0,0,0,0,0,0l0,0c0-0.1,0.2,0.1,0.2-0.1l0,0l0-0.1c0,0,0,0,0,0.1
							c0-0.1,0.1,0,0.1-0.1c0.1,0.1,0.1-0.1,0.2,0l0,0c0,0,0,0,0,0c0,0,0,0,0,0c0.1-0.1,0.3-0.1,0.4-0.2c0,0-0.1-0.2,0-0.1l0,0.1
							c0-0.1,0.2-0.1,0.2-0.2c0,0,0,0,0,0c0,0,0.1,0,0-0.1c0,0,0,0,0,0c0,0,0-0.1,0,0c0,0,0,0,0,0c0,0,0.1,0,0-0.1
							c0,0,0-0.1,0.1-0.1c0-0.1,0.1,0,0-0.1c0.1,0.1,0.1,0,0.1,0c0,0,0,0,0.1,0c0,0,0,0,0-0.1c0.1,0,0-0.1,0.1-0.1
							c0-0.1,0-0.2,0.1-0.2c0.1,0.1,0,0.1,0,0.1c0-0.1,0-0.1,0.1-0.2c0,0,0,0,0,0c0-0.1,0.1-0.1,0.1-0.2c0,0,0,0,0,0c0,0,0,0,0,0
							l0,0c-0.1,0-0.1-0.1-0.1-0.1c0.1,0.1,0.1,0,0.1,0.1c0,0,0,0,0,0c0,0,0,0,0,0c0,0,0-0.1,0-0.1c0,0,0,0,0,0c0,0,0-0.1,0-0.1
							c0,0,0,0,0,0c0,0,0-0.1,0-0.2c0.1,0.1,0,0,0.1,0l0,0l0,0c0,0,0-0.1,0-0.1l0,0l0-0.1l0,0c0,0-0.1,0,0-0.1c0,0,0,0,0.1,0l0,0
							c0,0,0,0,0-0.1c0,0,0.1,0,0.1,0c0,0,0-0.1,0-0.1c0,0,0,0,0,0l0,0c0,0,0,0,0.1,0c0,0-0.1,0,0-0.1c0,0,0,0,0,0
							c0,0,0-0.1,0.1-0.1c0.1,0,0,0,0.1,0.1c0-0.1,0-0.2,0-0.2l0,0c-0.1-0.1,0.1,0,0-0.1c0,0,0,0,0,0c0,0,0-0.1,0-0.2l0,0
							c0,0,0-0.1,0.1-0.1c0,0,0,0,0,0c0.2,0,0-0.2,0.1-0.2c0,0,0,0,0,0c0,0,0,0,0-0.1c0,0,0,0-0.1,0c0,0,0,0,0-0.1c0,0,0.1,0,0.1,0
							l0,0c0.1,0-0.1,0,0-0.1l0,0c0,0,0,0,0-0.1c0,0,0,0,0.1,0c0,0-0.1-0.1,0-0.1c0,0,0,0,0,0c0.1,0,0.1,0,0.1,0l0,0l0,0l0,0
							c-0.1-0.1,0-0.1-0.1-0.1c0.1,0.1,0,0,0.1,0c0,0,0,0,0.1,0c0,0,0,0,0-0.1c0,0,0,0,0.1,0c0,0,0,0-0.1,0c0-0.1,0.1-0.1,0-0.1
							c0-0.1-0.1-0.1-0.1-0.1c0,0,0.1,0,0.1,0c0,0,0,0,0-0.1c0,0,0,0,0.1,0c0,0-0.1,0,0,0c0,0,0,0,0.1,0c0,0,0-0.1,0-0.1
							c0,0,0,0,0.1,0c0,0,0-0.1-0.1-0.1l0,0c0,0,0,0,0,0c0,0,0,0,0,0l0,0c-0.1,0,0,0.1,0,0.1l-0.1,0l0.1,0.1c0,0-0.1,0-0.1,0
							c0,0,0,0,0,0c0,0,0,0,0,0l0,0c0,0-0.1,0,0,0c-0.1,0,0,0.1,0,0.1l0,0c0,0.1,0.1,0,0.1,0.1l-0.1,0l0.1,0c0,0,0,0,0,0
							c0,0,0,0,0.1,0c-0.1,0,0,0.1-0.1,0.1c0,0,0,0,0.1,0c-0.1,0,0,0,0,0c0,0,0,0-0.1,0c0.1,0,0,0,0,0.1c0.1,0,0,0.1,0,0.1
							c0,0-0.1,0-0.1,0.1l0,0c0.1,0,0,0.1,0,0.1c0,0-0.1,0-0.1,0l0,0c0,0,0,0,0,0l0,0c0,0,0,0.1,0,0.1c0,0,0.1,0,0.1,0.1
							c0,0-0.1,0-0.1,0c0,0,0,0,0,0l0,0c0,0,0,0,0,0c0,0,0,0-0.1,0c0,0,0,0,0,0c0,0,0,0-0.1,0c0,0,0,0,0,0c0,0,0,0-0.1,0
							c0,0,0,0,0,0c0,0,0,0,0,0c0,0,0,0.1,0,0.1l0,0l0,0l0,0l0,0c0,0.1-0.1,0.1-0.1,0.1l0,0c0,0,0,0.1,0,0.1c0,0,0,0-0.1,0
							c0,0,0,0,0,0.1c0,0,0,0,0,0c0,0-0.1,0,0,0.1c0,0-0.1,0-0.1,0l0,0c0,0,0,0,0,0l-0.1,0c-0.1,0,0.1,0.2-0.1,0.1c0,0,0,0,0.1,0
							c0,0-0.1,0-0.1,0c-0.1,0,0.1,0.1,0,0.1c0,0,0.1,0,0.1,0.1c0,0-0.1,0-0.1,0c0,0,0,0,0,0c0,0,0,0,0,0l0,0c0,0,0,0-0.1,0
							c0,0,0,0,0,0c0,0,0,0-0.1,0.1c0,0,0,0,0,0c-0.1,0,0,0,0,0.1c0,0-0.1-0.1-0.1,0c0,0-0.1,0-0.1,0c0,0.1-0.1,0-0.1,0l0,0
							c0,0,0,0,0,0l0,0c0,0,0,0,0,0c0,0,0.1,0,0.1,0.1c0,0,0,0-0.1,0c0,0-0.1,0,0-0.1c0,0,0,0,0,0c0,0,0,0,0,0c-0.1,0,0,0.1,0,0.1
							c0,0-0.1,0-0.1,0c0,0,0,0,0.1,0.1c0,0,0,0,0,0l0,0c0,0,0,0,0,0.1c0,0,0,0,0,0c0,0.1-0.1,0-0.1,0.1c0,0,0,0-0.1,0
							c0,0.1-0.1,0-0.1,0c0,0,0,0,0.1,0.1l0-0.1l0,0.1c0,0,0,0,0,0c0,0,0,0,0,0c-0.1,0,0,0.1-0.1,0.1l-0.1-0.1c-0.1,0,0,0.1-0.1,0.1
							l0,0c0,0,0,0,0,0.1c0,0,0,0-0.1,0c0,0,0,0,0,0.1l-0.1,0c0,0,0,0.1,0,0.1c0,0-0.1,0-0.1-0.1c0,0,0,0,0,0c0,0,0,0.1,0,0
							c0,0,0,0,0,0.1c0,0,0,0,0,0c0,0,0,0,0,0.1c-0.1-0.1-0.1,0.1-0.2,0.1c0,0,0,0.1-0.1,0.1c0,0,0,0,0,0c-0.1,0,0.1,0.1,0,0.1
							c-0.1,0,0,0,0,0c-0.1-0.1,0,0-0.1,0l0,0c0,0,0,0.1,0,0.1c0,0,0,0,0,0c0,0.1,0,0.1,0,0.1c0,0,0,0,0-0.1c0,0,0.1,0.1,0,0.1
							c0,0-0.1,0-0.1-0.1l0,0c-0.1,0,0,0,0,0l0,0c0,0,0,0.1,0,0.1l0,0c0,0.1,0,0,0,0l0-0.1c0,0,0,0.1,0,0.1c0-0.1,0-0.1,0-0.1
							c0,0,0,0,0,0.1c0,0,0,0,0,0c0,0.1,0,0.1,0,0.1c-0.1-0.1-0.1,0-0.2-0.1c0,0.1-0.1,0-0.2,0.1c0.1,0.1,0,0,0,0.1c0,0,0,0,0,0
							l-0.1,0c0,0,0,0,0-0.1c0,0,0,0-0.1-0.1c0,0,0,0.1,0,0.1l0,0c0,0.1-0.1-0.1-0.1,0l0,0c0,0-0.1,0-0.1,0.1c0,0,0,0,0,0
							c-0.1,0-0.1,0.1-0.2,0.1l0,0c0,0,0,0.1,0,0c0,0,0,0,0,0c0,0,0,0.1,0,0l0,0c-0.1,0-0.1,0.1-0.1,0.1c0-0.1-0.1-0.1-0.1-0.1l0,0
							c-0.1,0-0.1,0.1-0.1,0.1c-0.1-0.1-0.1,0-0.2,0c0,0,0,0.1,0,0.1c0,0,0,0.1,0,0l0,0c0-0.1-0.1,0-0.1,0l0,0.1
							c-0.1-0.1-0.2,0.1-0.2,0c0,0,0,0,0,0.1l0-0.1c0,0-0.1,0-0.1,0l0,0c0,0,0,0.2,0,0.2l0-0.1c-0.1,0-0.1-0.1-0.2,0c0,0,0,0,0,0
							c0,0-0.1,0-0.1,0.1c0-0.1-0.1,0-0.1,0l0-0.1c0,0.1,0,0.1-0.1,0.1c0,0,0,0,0,0c0,0,0,0.1-0.1,0l0,0c0,0,0,0,0,0.1
							c0,0-0.1,0-0.1-0.1c0,0,0,0.1,0,0.1c0,0,0,0,0,0c0,0-0.1,0.1-0.1,0c0,0,0,0,0,0c0,0,0.1,0,0.1,0c0,0,0-0.1,0-0.1
							c0,0-0.1,0.1-0.1,0.1c0,0,0,0,0,0l0,0c0,0,0,0,0,0c0,0,0,0,0,0c0,0,0,0,0,0c0,0.1,0,0,0,0.1c0,0,0,0,0,0l0,0l0,0l0,0
							c0,0,0,0.1,0,0c0,0,0,0.1,0,0.1c0-0.1-0.1-0.1-0.1-0.2c0,0-0.1,0-0.1,0.1c0,0,0,0,0,0c0,0,0,0,0,0c0,0-0.1,0-0.1,0.1
							c0,0,0-0.1,0-0.1l0,0c-0.1-0.1-0.2,0.2-0.2,0c0,0,0,0,0,0c-0.1-0.1-0.2,0-0.3-0.1c0,0,0,0-0.1,0l0-0.1l0,0.1
							c-0.1,0-0.1-0.2-0.1-0.1l0,0c0,0-0.1,0-0.1,0c0,0,0,0,0,0l0,0l-0.1,0c0,0,0-0.1,0-0.1c0,0-0.1,0.1-0.1,0.1c0,0,0,0,0,0.1l0,0
							c0,0.1-0.1,0.2,0,0.2l0.1,0l0,0l0,0c0,0,0,0,0,0c0,0,0,0,0,0l0.1-0.1c0,0,0,0.1,0,0.1c0,0,0-0.1,0-0.1c0,0,0,0.1,0,0
							c0,0,0,0,0,0c0,0,0.1,0,0.1,0c0,0.1,0.1,0,0,0.1c0,0,0-0.1,0.1-0.1c0,0.1,0.1,0,0,0.1c0-0.1,0.1,0,0.1-0.1c0,0,0,0,0,0
							c0,0,0,0,0,0.1c0-0.1,0-0.1,0.1-0.1c0,0.1,0,0.1,0,0.2C45,50,45,50,45,50C45,50,45,50,45.1,50.1c0-0.1,0-0.1,0-0.1
							C45.1,50,45.1,50.1,45.1,50.1C45.1,50.1,45.1,50.1,45.1,50.1z M45.9,50L45.9,50C45.9,50,45.9,50,45.9,50
							C45.9,50,45.9,50,45.9,50z M46,50L46,50C45.9,49.9,45.9,49.9,46,50C45.9,49.9,45.9,50,46,50z M45.8,49.6
							C45.8,49.6,45.8,49.6,45.8,49.6C45.8,49.6,45.8,49.6,45.8,49.6L45.8,49.6C45.8,49.6,45.8,49.6,45.8,49.6z"/>
						<path fill="#808181" d="M45.8,49.7L45.8,49.7C45.8,49.7,45.8,49.7,45.8,49.7L45.8,49.7L45.8,49.7z"/>
						<polygon fill="#808181" points="50.4,46.8 50.4,46.8 50.4,46.8 						"/>
						<polygon fill="#808181" points="46.9,50 46.9,49.9 46.9,50 						"/>
						<path fill="#808181" d="M50.7,46.5L50.7,46.5C50.7,46.5,50.7,46.5,50.7,46.5z"/>
						<path fill="#808181" d="M50.8,46.4L50.8,46.4C50.8,46.4,50.8,46.4,50.8,46.4z"/>
						<polygon fill="#808181" points="50.8,46.3 50.8,46.3 50.8,46.3 						"/>
						<path fill="#808181" d="M50,48L50,48C50,48,50,48,50,48z"/>
						<path fill="#808181" d="M50.2,47.5C50.2,47.5,50.2,47.5,50.2,47.5C50.2,47.5,50.2,47.5,50.2,47.5z"/>
						<polygon fill="#808181" points="49.6,48.6 49.6,48.6 49.6,48.6 						"/>
						<path fill="#808181" d="M50.2,47.5C50.2,47.5,50.2,47.5,50.2,47.5C50.2,47.5,50.2,47.5,50.2,47.5z"/>
						<polygon fill="#808181" points="51,45.8 51,45.8 51,45.8 						"/>
						<path fill="#808181" d="M51,45.8L51,45.8C51,45.8,51,45.8,51,45.8z"/>
						<path fill="#808181" d="M51,45.8L51,45.8C51,45.8,51,45.8,51,45.8z"/>
						<path fill="#808181" d="M51,46L51,46C51,46,51,46,51,46z"/>
						<path fill="#808181" d="M50.9,46C51,46,51,46,50.9,46L50.9,46C51,46,50.9,46,50.9,46z"/>
						<path fill="#808181" d="M50.7,46.1L50.7,46.1C50.7,46.1,50.6,46.1,50.7,46.1C50.6,46.1,50.7,46.1,50.7,46.1z"/>
						<path fill="#808181" d="M50.6,46.2C50.6,46.2,50.6,46.2,50.6,46.2C50.6,46.2,50.6,46.2,50.6,46.2z"/>
						<path fill="#808181" d="M50.2,47L50.2,47C50.2,47,50.2,47,50.2,47z"/>
						<polygon fill="#808181" points="50.4,47.3 50.4,47.3 50.4,47.3 						"/>
						<polygon fill="#808181" points="50,47.2 50,47.2 50,47.2 						"/>
						<path fill="#808181" d="M49.1,48.3L49.1,48.3C49.2,48.4,49.1,48.3,49.1,48.3z"/>
						<path fill="#808181" d="M48.7,48.8C48.7,48.8,48.6,48.8,48.7,48.8C48.7,48.8,48.7,48.8,48.7,48.8z"/>
						<polygon fill="#808181" points="47,49.5 47,49.4 46.9,49.5 						"/>
					</g>
				</g>
			</g>
		</g>
	</g>
	<g>
		<g>
			<g>
				<g>
					<g>
						<path fill="#808181" d="M63.9,32.4C63.9,32.4,63.9,32.4,63.9,32.4L63.9,32.4L63.9,32.4z"/>
						<path fill="#808181" d="M63.8,32.4c0,0,0.1,0.1,0.1,0.1C63.9,32.4,63.9,32.5,63.8,32.4C63.8,32.4,63.8,32.4,63.8,32.4
							C63.8,32.4,63.9,32.4,63.8,32.4C63.8,32.4,63.8,32.4,63.8,32.4C63.8,32.4,63.8,32.4,63.8,32.4z"/>
						<path fill="#808181" d="M63.2,33.5L63.2,33.5L63.2,33.5z"/>
						<path fill="#808181" d="M62.9,34.1C62.9,34.1,62.8,34.1,62.9,34.1C62.8,34.1,62.8,34.1,62.9,34.1z"/>
						<path fill="#808181" d="M62.7,34.2L62.7,34.2C62.7,34.2,62.7,34.2,62.7,34.2z"/>
						<path fill="#808181" d="M63.2,33.5L63.2,33.5C63.2,33.5,63.2,33.5,63.2,33.5z"/>
						<path fill="#808181" d="M63.9,32.6C63.9,32.6,63.9,32.6,63.9,32.6L63.9,32.6L63.9,32.6z"/>
						<polygon fill="#808181" points="63.3,33.2 63.3,33.2 63.3,33.2 						"/>
						<path fill="#808181" d="M63.4,32.9C63.4,33,63.5,33,63.4,32.9C63.5,33,63.5,33,63.4,32.9C63.4,33,63.4,33,63.4,32.9z"/>
						<path fill="#808181" d="M63.6,32.6L63.6,32.6L63.6,32.6z"/>
						<path fill="#808181" d="M63.2,33.3C63.2,33.3,63.2,33.3,63.2,33.3L63.2,33.3z"/>
						<path fill="#808181" d="M57.5,36.7L57.5,36.7C57.5,36.7,57.5,36.7,57.5,36.7z"/>
						<polygon fill="#808181" points="57.3,36.4 57.3,36.4 57.3,36.3 						"/>
						<path fill="#808181" d="M62.5,34.3L62.5,34.3C62.5,34.3,62.5,34.3,62.5,34.3z"/>
						<path fill="#808181" d="M61,35.7c0,0,0,0.1,0.1,0.1C61.1,35.8,61.1,35.7,61,35.7z"/>
						<path fill="#808181" d="M63.9,32.6L63.9,32.6C63.9,32.6,63.9,32.6,63.9,32.6z"/>
						<polygon fill="#808181" points="61.1,35.8 61.1,35.8 61.1,35.8 						"/>
						<path fill="#808181" d="M62.2,34.8L62.2,34.8C62.3,34.8,62.2,34.8,62.2,34.8z"/>
						<path fill="#808181" d="M62.5,34.5L62.5,34.5C62.5,34.5,62.5,34.5,62.5,34.5z"/>
						<path fill="#808181" d="M62.2,35C62.1,35,62.1,35,62.2,35L62.2,35C62.1,35,62.1,35,62.2,35z"/>
						<polygon fill="#808181" points="62,35.1 62,35.1 62,35.1 						"/>
						<path fill="#808181" d="M58.2,36.7L58.2,36.7C58.2,36.7,58.2,36.7,58.2,36.7z"/>
						<path fill="#808181" d="M63.8,32.6C63.8,32.6,63.9,32.6,63.8,32.6L63.8,32.6C63.8,32.6,63.8,32.6,63.8,32.6z"/>
						<path fill="#808181" d="M62.4,35.3L62.4,35.3C62.4,35.3,62.4,35.3,62.4,35.3z"/>
						<path fill="#808181" d="M59.8,36.6L59.8,36.6C59.8,36.6,59.8,36.6,59.8,36.6z"/>
						<path fill="#808181" d="M62.3,35.4C62.3,35.4,62.3,35.4,62.3,35.4C62.3,35.4,62.3,35.4,62.3,35.4L62.3,35.4z"/>
						<path fill="#808181" d="M58.2,36.7L58.2,36.7L58.2,36.7z"/>
						<path fill="#808181" d="M58,36.8c0,0,0-0.1,0-0.1C58,36.7,58,36.8,58,36.8c0.1,0,0.1-0.1,0.1-0.1c0,0,0,0,0,0
							c0-0.1,0.1,0,0.1-0.1l0,0c0,0,0-0.1,0-0.1c0,0,0,0,0,0c0,0,0,0,0,0l0,0c0,0.1,0,0,0,0.1c0,0,0.1-0.1,0.1-0.1
							c0,0.1-0.1,0,0,0.1l0,0c0,0.1,0,0,0,0.1c0,0,0.1,0,0.1,0c0,0,0-0.1,0-0.1c0.1-0.1,0,0.2,0.1,0.1c0,0,0-0.1,0.1-0.1l0,0.1
							c0,0,0-0.1,0.1-0.1c0,0,0,0,0,0c0,0.1,0,0,0,0l0,0.1c0.1,0,0.1-0.1,0.2-0.1c0,0,0,0,0,0.1c0.1,0,0.1,0,0.2,0l0-0.1
							c0,0,0,0,0,0c0,0,0,0,0-0.1c0,0,0,0,0,0c0-0.1,0.1-0.1,0.2-0.1l0,0c0,0,0-0.1,0.1-0.1l0,0c0.1,0,0.2,0,0.2,0
							c0-0.1,0.1,0,0.1-0.1c0.1,0,0,0.1,0.1,0.1c0,0,0-0.1,0-0.1l0,0.1l0-0.1l0,0.1l0,0c0,0,0,0,0,0c0,0,0.1,0,0.1,0.1l0.1-0.1
							c0,0,0,0,0,0c0-0.1,0,0.1,0,0c0,0,0,0,0,0c0,0,0.1,0,0.1,0l0,0c0.1,0,0.1-0.1,0.2-0.1c0,0,0-0.1,0-0.1l0,0.1c0,0,0,0,0-0.1
							c0,0,0,0.1,0,0.1l0,0c0,0,0,0,0,0.1c0,0,0.1,0,0.1,0l0,0c0.1,0,0.1,0,0.1-0.1c0-0.1,0,0,0-0.1c0,0,0.1,0,0.1,0c0,0,0,0,0-0.1
							c0,0,0.1,0,0.1,0.1c0,0,0.1,0,0.1-0.1c0,0,0,0,0,0c0,0,0,0,0,0l0,0c0-0.1,0.2,0.1,0.2-0.1l0,0l0-0.1c0,0,0,0,0,0.1
							c0-0.1,0.1,0,0.1-0.1c0.1,0.1,0.1-0.1,0.2,0l0,0c0,0,0,0,0,0c0,0,0,0,0,0c0.1-0.1,0.3-0.1,0.4-0.2c0,0-0.1-0.2,0-0.1l0,0.1
							c0-0.1,0.2-0.1,0.2-0.2c0,0,0,0,0,0c0,0,0.1,0,0-0.1c0,0,0,0,0,0c0,0,0-0.1,0,0c0,0,0,0,0,0c0,0,0.1,0,0-0.1
							c0,0,0-0.1,0.1-0.1c0-0.1,0.1,0,0-0.1c0.1,0.1,0.1,0,0.1,0c0,0,0,0,0.1,0c0,0,0,0,0-0.1c0.1,0,0-0.1,0.1-0.1
							c0-0.1,0-0.2,0.1-0.2c0.1,0.1,0,0.1,0,0.1c0-0.1,0-0.1,0.1-0.2c0,0,0,0,0,0c0-0.1,0.1-0.1,0.1-0.2c0,0,0,0,0,0c0,0,0,0,0,0
							l0,0c-0.1,0-0.1-0.1-0.1-0.1c0.1,0.1,0.1,0,0.1,0.1c0,0,0,0,0,0c0,0,0,0,0,0c0,0,0-0.1,0-0.1c0,0,0,0,0,0c0,0,0-0.1,0-0.1
							c0,0,0,0,0,0c0,0,0-0.1,0-0.2c0.1,0.1,0,0,0.1,0l0,0l0,0c0,0,0-0.1,0-0.1l0,0l0-0.1l0,0c0,0-0.1,0,0-0.1c0,0,0,0,0.1,0l0,0
							c0,0,0,0,0-0.1c0,0,0.1,0,0.1,0c0,0,0-0.1,0-0.1c0,0,0,0,0,0l0,0c0,0,0,0,0.1,0c0,0-0.1,0,0-0.1c0,0,0,0,0,0
							c0,0,0-0.1,0.1-0.1c0.1,0,0,0,0.1,0.1c0-0.1,0-0.2,0-0.2l0,0c-0.1-0.1,0.1,0,0-0.1c0,0,0,0,0,0c0,0,0-0.1,0-0.2l0,0
							c0,0,0-0.1,0.1-0.1c0,0,0,0,0,0c0.2,0,0-0.2,0.1-0.2c0,0,0,0,0,0c0,0,0,0,0-0.1c0,0,0,0-0.1,0c0,0,0,0,0-0.1c0,0,0.1,0,0.1,0
							l0,0c0.1,0-0.1,0,0-0.1l0,0c0,0,0,0,0-0.1c0,0,0,0,0.1,0c0,0-0.1-0.1,0-0.1c0,0,0,0,0,0c0.1,0,0.1,0,0.1,0l0,0l0,0l0,0
							c-0.1-0.1,0-0.1-0.1-0.1c0.1,0.1,0,0,0.1,0c0,0,0,0,0.1,0c0,0,0,0,0-0.1c0,0,0,0,0.1,0c0,0,0,0-0.1,0c0-0.1,0.1-0.1,0-0.1
							c0-0.1-0.1-0.1-0.1-0.1c0,0,0.1,0,0.1,0c0,0,0,0,0-0.1c0,0,0,0,0.1,0c0,0-0.1,0,0,0c0,0,0,0,0.1,0c0,0,0-0.1,0-0.1
							c0,0,0,0,0.1,0c0,0,0-0.1-0.1-0.1l0,0c0,0,0,0,0,0c0,0,0,0,0,0l0,0c-0.1,0,0,0.1,0,0.1l-0.1,0l0.1,0.1c0,0-0.1,0-0.1,0
							c0,0,0,0,0,0c0,0,0,0,0,0l0,0c0,0-0.1,0,0,0c-0.1,0,0,0.1,0,0.1l0,0c0,0.1,0.1,0,0.1,0.1l-0.1,0l0.1,0c0,0,0,0,0,0
							c0,0,0,0,0.1,0c-0.1,0,0,0.1-0.1,0.1c0,0,0,0,0.1,0c-0.1,0,0,0,0,0c0,0,0,0-0.1,0c0.1,0,0,0,0,0.1c0.1,0,0,0.1,0,0.1
							c0,0-0.1,0-0.1,0.1l0,0c0.1,0,0,0.1,0,0.1c0,0-0.1,0-0.1,0l0,0c0,0,0,0,0,0l0,0c0,0,0,0.1,0,0.1c0,0,0.1,0,0.1,0.1
							c0,0-0.1,0-0.1,0c0,0,0,0,0,0l0,0c0,0,0,0,0,0c0,0,0,0-0.1,0c0,0,0,0,0,0c0,0,0,0-0.1,0c0,0,0,0,0,0c0,0,0,0-0.1,0
							c0,0,0,0,0,0c0,0,0,0,0,0c0,0,0,0.1,0,0.1l0,0l0,0l0,0l0,0c0,0.1-0.1,0.1-0.1,0.1l0,0c0,0,0,0.1,0,0.1c0,0,0,0-0.1,0
							c0,0,0,0,0,0.1c0,0,0,0,0,0c0,0-0.1,0,0,0.1c0,0-0.1,0-0.1,0l0,0c0,0,0,0,0,0l-0.1,0c-0.1,0,0.1,0.2-0.1,0.1c0,0,0,0,0.1,0
							c0,0-0.1,0-0.1,0c-0.1,0,0.1,0.1,0,0.1c0,0,0.1,0,0.1,0.1c0,0-0.1,0-0.1,0c0,0,0,0,0,0c0,0,0,0,0,0l0,0c0,0,0,0-0.1,0
							c0,0,0,0,0,0c0,0,0,0-0.1,0.1c0,0,0,0,0,0c-0.1,0,0,0,0,0.1c0,0-0.1-0.1-0.1,0c0,0-0.1,0-0.1,0c0,0.1-0.1,0-0.1,0l0,0
							c0,0,0,0,0,0l0,0c0,0,0,0,0,0c0,0,0.1,0,0.1,0.1c0,0,0,0-0.1,0c0,0-0.1,0,0-0.1c0,0,0,0,0,0c0,0,0,0,0,0c-0.1,0,0,0.1,0,0.1
							c0,0-0.1,0-0.1,0c0,0,0,0,0.1,0.1c0,0,0,0,0,0l0,0c0,0,0,0,0,0.1c0,0,0,0,0,0c0,0.1-0.1,0-0.1,0.1c0,0,0,0-0.1,0
							c0,0.1-0.1,0-0.1,0c0,0,0,0,0.1,0.1l0-0.1l0,0.1c0,0,0,0,0,0c0,0,0,0,0,0c-0.1,0,0,0.1-0.1,0.1l-0.1-0.1c-0.1,0,0,0.1-0.1,0.1
							l0,0c0,0,0,0,0,0.1c0,0,0,0-0.1,0c0,0,0,0,0,0.1l-0.1,0c0,0,0,0.1,0,0.1c0,0-0.1,0-0.1-0.1c0,0,0,0,0,0c0,0,0,0.1,0,0
							c0,0,0,0,0,0.1c0,0,0,0,0,0c0,0,0,0,0,0.1c-0.1-0.1-0.1,0.1-0.2,0.1c0,0,0,0.1-0.1,0.1c0,0,0,0,0,0c-0.1,0,0.1,0.1,0,0.1
							c-0.1,0,0,0,0,0c-0.1-0.1,0,0-0.1,0l0,0c0,0,0,0.1,0,0.1c0,0,0,0,0,0c0,0.1,0,0.1,0,0.1c0,0,0,0,0-0.1c0,0,0.1,0.1,0,0.1
							c0,0-0.1,0-0.1-0.1l0,0c-0.1,0,0,0,0,0l0,0c0,0,0,0.1,0,0.1l0,0c0,0.1,0,0,0,0l0-0.1c0,0,0,0.1,0,0.1c0-0.1,0-0.1,0-0.1
							c0,0,0,0,0,0.1c0,0,0,0,0,0c0,0.1,0,0.1,0,0.1c-0.1-0.1-0.1,0-0.2-0.1c0,0.1-0.1,0-0.2,0.1c0.1,0.1,0,0,0,0.1c0,0,0,0,0,0
							l-0.1,0c0,0,0,0,0-0.1c0,0,0,0-0.1-0.1c0,0,0,0.1,0,0.1l0,0c0,0.1-0.1-0.1-0.1,0l0,0c0,0-0.1,0-0.1,0.1c0,0,0,0,0,0
							c-0.1,0-0.1,0.1-0.2,0.1l0,0c0,0,0,0.1,0,0c0,0,0,0,0,0c0,0,0,0.1,0,0l0,0c-0.1,0-0.1,0.1-0.1,0.1c0-0.1-0.1-0.1-0.1-0.1l0,0
							c-0.1,0-0.1,0.1-0.1,0.1c-0.1-0.1-0.1,0-0.2,0c0,0,0,0.1,0,0.1c0,0,0,0.1,0,0l0,0c0-0.1-0.1,0-0.1,0l0,0.1
							c-0.1-0.1-0.2,0.1-0.2,0c0,0,0,0,0,0.1l0-0.1c0,0-0.1,0-0.1,0l0,0c0,0,0,0.2,0,0.2l0-0.1c-0.1,0-0.1-0.1-0.2,0c0,0,0,0,0,0
							c0,0-0.1,0-0.1,0.1c0-0.1-0.1,0-0.1,0l0-0.1c0,0.1,0,0.1-0.1,0.1c0,0,0,0,0,0c0,0,0,0.1-0.1,0l0,0c0,0,0,0,0,0.1
							c0,0-0.1,0-0.1-0.1c0,0,0,0.1,0,0.1c0,0,0,0,0,0c0,0-0.1,0.1-0.1,0c0,0,0,0,0,0c0,0,0.1,0,0.1,0c0,0,0-0.1,0-0.1
							c0,0-0.1,0.1-0.1,0.1c0,0,0,0,0,0l0,0c0,0,0,0,0,0c0,0,0,0,0,0c0,0,0,0,0,0c0,0.1,0,0,0,0.1c0,0,0,0,0,0l0,0l0,0l0,0
							c0,0,0,0.1,0,0c0,0,0,0.1,0,0.1c0-0.1-0.1-0.1-0.1-0.2c0,0-0.1,0-0.1,0.1c0,0,0,0,0,0c0,0,0,0,0,0c0,0-0.1,0-0.1,0.1
							c0,0,0-0.1,0-0.1l0,0c-0.1-0.1-0.2,0.2-0.2,0c0,0,0,0,0,0c-0.1-0.1-0.2,0-0.3-0.1c0,0,0,0-0.1,0l0-0.1l0,0.1
							c-0.1,0-0.1-0.2-0.1-0.1l0,0c0,0-0.1,0-0.1,0c0,0,0,0,0,0l0,0l-0.1,0c0,0,0-0.1,0-0.1c0,0-0.1,0.1-0.1,0.1c0,0,0,0,0,0.1l0,0
							c0,0.1-0.1,0.2,0,0.2l0.1,0l0,0l0,0c0,0,0,0,0,0c0,0,0,0,0,0l0.1-0.1c0,0,0,0.1,0,0.1c0,0,0-0.1,0-0.1c0,0,0,0.1,0,0
							c0,0,0,0,0,0c0,0,0.1,0,0.1,0c0,0.1,0.1,0,0,0.1c0,0,0-0.1,0.1-0.1c0,0.1,0.1,0,0,0.1c0-0.1,0.1,0,0.1-0.1c0,0,0,0,0,0
							c0,0,0,0,0,0.1c0-0.1,0-0.1,0.1-0.1c0,0.1,0,0.1,0,0.2c0-0.1,0.1-0.1,0.1-0.1C57.9,36.7,57.9,36.7,58,36.8c0-0.1,0-0.1,0-0.1
							C58,36.7,57.9,36.8,58,36.8C58,36.8,58,36.8,58,36.8z M58.8,36.7L58.8,36.7C58.7,36.7,58.7,36.7,58.8,36.7
							C58.7,36.7,58.7,36.7,58.8,36.7z M58.8,36.7L58.8,36.7C58.8,36.6,58.8,36.6,58.8,36.7C58.8,36.6,58.8,36.7,58.8,36.7z
							 M58.7,36.3C58.7,36.3,58.7,36.3,58.7,36.3C58.7,36.3,58.7,36.3,58.7,36.3L58.7,36.3C58.7,36.3,58.7,36.3,58.7,36.3z"/>
						<path fill="#808181" d="M58.7,36.4L58.7,36.4C58.7,36.4,58.7,36.4,58.7,36.4L58.7,36.4L58.7,36.4z"/>
						<polygon fill="#808181" points="63.3,33.5 63.2,33.5 63.3,33.5 						"/>
						<polygon fill="#808181" points="59.7,36.7 59.7,36.7 59.7,36.7 						"/>
						<path fill="#808181" d="M63.6,33.2L63.6,33.2C63.6,33.3,63.6,33.2,63.6,33.2z"/>
						<path fill="#808181" d="M63.6,33.1L63.6,33.1C63.6,33.1,63.6,33.1,63.6,33.1z"/>
						<polygon fill="#808181" points="63.7,33 63.7,33 63.7,33 						"/>
						<path fill="#808181" d="M62.8,34.7L62.8,34.7C62.8,34.7,62.8,34.7,62.8,34.7z"/>
						<path fill="#808181" d="M63.1,34.2C63.1,34.2,63.1,34.2,63.1,34.2C63.1,34.2,63.1,34.2,63.1,34.2z"/>
						<polygon fill="#808181" points="62.4,35.3 62.4,35.3 62.4,35.3 						"/>
						<path fill="#808181" d="M63.1,34.2C63.1,34.2,63.1,34.2,63.1,34.2C63.1,34.2,63.1,34.2,63.1,34.2z"/>
						<polygon fill="#808181" points="63.9,32.5 63.9,32.5 63.9,32.5 						"/>
						<path fill="#808181" d="M63.9,32.5L63.9,32.5C63.9,32.5,63.9,32.5,63.9,32.5z"/>
						<path fill="#808181" d="M63.9,32.5L63.9,32.5C63.9,32.5,63.9,32.5,63.9,32.5z"/>
						<path fill="#808181" d="M63.8,32.7L63.8,32.7C63.8,32.7,63.8,32.7,63.8,32.7z"/>
						<path fill="#808181" d="M63.8,32.7C63.8,32.7,63.9,32.7,63.8,32.7L63.8,32.7C63.9,32.7,63.8,32.7,63.8,32.7z"/>
						<path fill="#808181" d="M63.5,32.8L63.5,32.8C63.5,32.8,63.5,32.8,63.5,32.8C63.4,32.8,63.5,32.8,63.5,32.8z"/>
						<path fill="#808181" d="M63.5,32.9C63.5,32.9,63.4,32.9,63.5,32.9C63.4,32.9,63.4,32.9,63.5,32.9z"/>
						<path fill="#808181" d="M63.1,33.7L63.1,33.7C63,33.7,63.1,33.7,63.1,33.7z"/>
						<polygon fill="#808181" points="63.2,34 63.3,34 63.2,34 						"/>
						<polygon fill="#808181" points="62.9,33.9 62.9,33.9 62.9,33.9 						"/>
						<path fill="#808181" d="M62,35L62,35C62,35.1,62,35,62,35z"/>
						<path fill="#808181" d="M61.6,35.5C61.5,35.5,61.5,35.5,61.6,35.5C61.5,35.5,61.6,35.5,61.6,35.5z"/>
						<polygon fill="#808181" points="59.8,36.2 59.8,36.1 59.8,36.2 						"/>
					</g>
				</g>
			</g>
		</g>
	</g>
	<path fill="none" stroke="#808181" stroke-width="0.1892" stroke-miterlimit="10" d="M50.9,43.9"/>
	<path fill="none" stroke="#808181" stroke-width="0.1892" stroke-miterlimit="10" d="M43.5,49.4"/>
</g>
</svg>
