<svg width="228" height="243" viewBox="0 0 228 243" fill="none" xmlns="http://www.w3.org/2000/svg">
<path d="M48.0621 23.7091C66.6426 9.2113 89.3884 0.66997 113.931 0.66997C176.467 0.66997 227.344 56.1251 227.344 124.285C227.344 127.637 224.628 130.354 221.276 130.354C217.925 130.354 215.209 127.637 215.209 124.285C215.209 62.8157 169.777 12.8042 113.931 12.8042C58.0853 12.8042 12.6533 62.8157 12.6533 124.285C12.6533 127.637 9.93682 130.354 6.58571 130.354C3.23371 130.354 0.519043 127.637 0.519043 124.285C0.519043 82.8744 19.2986 46.1535 48.0621 23.7091Z" fill="white"/>
<path d="M167.599 176.81C152.641 176.81 144.792 172.551 137.867 168.794C131.393 165.282 125.803 162.248 113.922 162.248C102.045 162.248 96.4546 165.282 89.9817 168.794C83.0572 172.551 75.2101 176.81 60.2519 176.81C45.2954 176.81 37.4483 172.551 30.5257 168.794C24.0537 165.282 18.4626 162.248 6.58522 162.248C3.23411 162.248 0.518555 159.532 0.518555 156.181C0.518555 152.829 3.23411 150.114 6.58522 150.114C21.5434 150.114 29.3906 154.372 36.3132 158.129C42.7861 161.642 48.3754 164.675 60.2519 164.675C72.1301 164.675 77.7212 161.642 84.1932 158.129C91.1177 154.372 98.9648 150.114 113.922 150.114C128.88 150.114 136.729 154.372 143.655 158.129C150.128 161.642 155.719 164.675 167.599 164.675C179.479 164.675 185.07 161.642 191.543 158.129C198.47 154.372 206.319 150.114 221.277 150.114C224.628 150.114 227.344 152.829 227.344 156.181C227.344 159.532 224.628 162.248 221.277 162.248C209.398 162.248 203.806 165.282 197.332 168.794C190.407 172.551 182.558 176.81 167.599 176.81Z" fill="white"/>
<path d="M167.599 207.323C152.641 207.323 144.792 203.064 137.867 199.307C131.393 195.795 125.803 192.761 113.922 192.761C102.045 192.761 96.4546 195.795 89.9817 199.307C83.0572 203.064 75.2101 207.323 60.2519 207.323C45.2954 207.323 37.4483 203.064 30.5257 199.307C24.0537 195.795 18.4626 192.761 6.58522 192.761C3.23411 192.761 0.518555 190.045 0.518555 186.694C0.518555 183.342 3.23411 180.627 6.58522 180.627C21.5434 180.627 29.3906 184.885 36.3132 188.642C42.7861 192.155 48.3754 195.188 60.2519 195.188C72.1301 195.188 77.7212 192.155 84.1932 188.642C91.1177 184.885 98.9648 180.627 113.922 180.627C128.88 180.627 136.729 184.885 143.655 188.642C150.128 192.155 155.719 195.188 167.599 195.188C179.479 195.188 185.07 192.155 191.543 188.642C198.47 184.885 206.319 180.627 221.277 180.627C224.628 180.627 227.344 183.342 227.344 186.694C227.344 190.045 224.628 192.761 221.277 192.761C209.398 192.761 203.806 195.795 197.332 199.307C190.407 203.064 182.558 207.323 167.599 207.323Z" fill="white"/>
<path d="M205.004 242.464H22.8581C10.5408 242.464 0.518555 232.443 0.518555 220.123C0.518555 216.772 3.23412 214.056 6.58523 214.056C9.93723 214.056 12.6528 216.772 12.6528 220.123C12.6528 225.749 17.2306 230.329 22.8581 230.329H205.004C210.631 230.329 215.208 225.749 215.208 220.123C215.208 216.772 217.925 214.056 221.277 214.056C224.628 214.056 227.344 216.772 227.344 220.123C227.344 232.443 217.321 242.464 205.004 242.464Z" fill="white"/>
<path d="M93.2821 149.095L96.291 100.974L96.2972 100.781C96.2972 99.565 97.2865 98.5757 98.5025 98.5757H129.36C130.576 98.5757 131.566 99.565 131.566 100.781V100.878L134.581 149.102C136.916 150.022 139.005 151.043 140.967 152.073L137.754 100.673C137.696 96.0948 133.953 92.3864 129.36 92.3864H98.5025C93.9096 92.3864 90.1656 96.0948 90.1088 100.673L86.8945 152.065C88.8572 151.036 90.947 150.015 93.2821 149.095Z" fill="white"/>
<path d="M97.8434 83.6398C97.0051 83.6398 96.2967 82.9313 96.2967 82.0931V74.3562C96.2967 73.5171 97.0051 72.8078 97.8434 72.8078H130.018C130.858 72.8078 131.566 73.5171 131.566 74.3562V82.0931C131.566 82.9313 130.858 83.6398 130.018 83.6398H97.8434ZM113.931 49.5118C123.478 49.5118 131.272 57.1393 131.553 66.6202H96.3091C96.5909 57.1393 104.384 49.5118 113.931 49.5118ZM140.968 83.6398H137.754V72.8078H140.968C142.677 72.8078 144.062 71.4229 144.062 69.7135C144.062 68.0051 142.677 66.6202 140.968 66.6202H137.741C137.482 54.7695 128.533 45.03 117.025 43.5304L117.028 39.2958C117.029 37.5873 115.644 36.2007 113.936 36.1998H113.934C112.226 36.1998 110.841 37.5838 110.839 39.2913L110.835 43.5313C99.3287 45.0318 90.3802 54.7704 90.1207 66.6202H86.8949C85.1856 66.6202 83.7998 68.0051 83.7998 69.7135C83.7998 71.4229 85.1856 72.8078 86.8949 72.8078H90.1074V83.6398H86.8949C85.1856 83.6398 83.7998 85.0255 83.7998 86.734C83.7998 88.4433 85.1856 89.8291 86.8949 89.8291H140.968C142.677 89.8291 144.062 88.4433 144.062 86.734C144.062 85.0255 142.677 83.6398 140.968 83.6398Z" fill="white"/>
</svg>
